g ref_22
v 0.5509 0.5444997 1.8397
v 0.5643 0.6151997 1.7344
v 0.6198 0.6171997 1.7371
v 0.5898 0.6404997 1.6991
v 0.6141 0.6482997 1.6845
v 0.612 0.5312997 1.8585
v 0.5457 0.5134987 1.8822
v 0.5546 0.4943997 1.9075
v 0.5789 0.4888997 1.9135
v 0.6141 0.4876997 1.9099
v 0.6999 0.5336997 1.8394
v 0.7238 0.6188997 1.7227
v 0.813 0.5334997 1.8049
v 0.6894 0.4856997 1.8879
v 0.7316 0.6526997 1.6644
v 0.835 0.6479997 1.6517
v 0.8257 0.6134997 1.7023
v 0.8568 0.5593997 1.7459
v 0.8565 0.6369997 1.655
v 0.8645 0.6137997 1.6802
v 0.842 0.5132997 1.809
v 0.8296 0.4998997 1.8282
v 0.81 0.4912997 1.8463
v -0.5434 0.5444997 1.8397
v -0.6122 0.6171997 1.7371
v -0.5568 0.6151997 1.7344
v -0.5822 0.6404997 1.6991
v -0.6066 0.6482997 1.6845
v -0.6045 0.5312997 1.8585
v -0.5381 0.5134987 1.8822
v -0.547 0.4943997 1.9075
v -0.5714 0.4888997 1.9135
v -0.6066 0.4876997 1.9099
v -0.6924 0.5336997 1.8394
v -0.7162 0.6188997 1.7227
v -0.8055 0.5334997 1.8049
v -0.6819 0.4856997 1.8879
v -0.7241 0.6526997 1.6644
v -0.8275 0.6479997 1.6517
v -0.8182 0.6134997 1.7023
v -0.8493 0.5593997 1.7459
v -0.849 0.6369997 1.655
v -0.857 0.6137997 1.6802
v -0.8345 0.5132997 1.809
v -0.8221 0.4998997 1.8282
v -0.8025 0.4912997 1.8463
vt 0.3594 0.8516
vt 0.3574 0.8398
vt 0.3323 0.8351
vt 0.3496 0.8281
vt 0.3301 0.8281
vt 0.3384 0.8538
vt 0.3527 0.8635
vt 0.3498 0.8642
vt 0.3465 0.865
vt 0.342 0.8648
vt 0.3224 0.8534
vt 0.3138 0.835
vt 0.2992 0.8482
vt 0.3275 0.8642
vt 0.3105 0.8281
vt 0.2911 0.8268
vt 0.2933 0.8326
vt 0.2832 0.835
vt 0.2813 0.8262
vt 0.2818 0.8285
vt 0.2852 0.8438
vt 0.2886 0.8481
vt 0.3027 0.8574
vt 0.3594 0.8516
vt 0.3323 0.8351
vt 0.3574 0.8398
vt 0.3496 0.8281
vt 0.3301 0.8281
vt 0.3384 0.8538
vt 0.3527 0.8635
vt 0.3498 0.8642
vt 0.3465 0.865
vt 0.342 0.8648
vt 0.3224 0.8534
vt 0.3138 0.835
vt 0.2992 0.8482
vt 0.3275 0.8642
vt 0.3105 0.8281
vt 0.2911 0.8268
vt 0.2933 0.8326
vt 0.2832 0.835
vt 0.2813 0.8262
vt 0.2818 0.8285
vt 0.2852 0.8438
vt 0.2886 0.8481
vt 0.3027 0.8574
vn -0.01053851 0.815191 0.5790964
vn -0.0568455 0.8315418 0.5525457
vn 0.01558094 0.836619 0.5475635
vn -0.007548708 0.8498151 0.5270268
vn 0.04359994 0.8620402 0.5049611
vn 0.05903138 0.7911941 0.6087095
vn -0.001884859 0.802106 0.5971788
vn 0.01340292 0.7911466 0.6114796
vn 0.05054049 0.7760313 0.628666
vn 0.1247953 0.7446181 0.655721
vn 0.1705481 0.7381654 0.6527061
vn 0.1101384 0.8201789 0.5614054
vn 0.2850062 0.7103153 0.643602
vn 0.2215761 0.6693382 0.7091476
vn 0.08195347 0.8576227 0.5077075
vn 0.2195055 0.7954215 0.5649089
vn 0.2523287 0.7577358 0.6018029
vn 0.3820699 0.7015593 0.6015289
vn 0.3102762 0.7552906 0.577291
vn 0.3348405 0.7284046 0.5977529
vn 0.3741632 0.6677729 0.6434914
vn 0.3489992 0.6443072 0.6804907
vn 0.2521668 0.6684827 0.6996735
vn 0.01053645 0.8151877 0.579101
vn -0.01552326 0.8366098 0.5475792
vn 0.05694808 0.8315247 0.5525609
vn 0.007631131 0.8497862 0.5270723
vn -0.04358253 0.8620052 0.5050224
vn -0.0590392 0.7912003 0.6087005
vn 0.001882311 0.8021066 0.5971779
vn -0.01334073 0.7911701 0.6114507
vn -0.05047566 0.776054 0.6286433
vn -0.1247954 0.7446177 0.6557215
vn -0.1705467 0.738197 0.6526707
vn -0.1100756 0.8201846 0.5614094
vn -0.2849805 0.7103383 0.6435881
vn -0.2215764 0.6693373 0.7091485
vn -0.08198766 0.8575559 0.5078148
vn -0.2194692 0.7954071 0.5649432
vn -0.2522506 0.7577577 0.601808
vn -0.3820691 0.7015603 0.6015283
vn -0.3102771 0.7552896 0.5772918
vn -0.3348403 0.7284051 0.5977525
vn -0.3741623 0.6677755 0.6434894
vn -0.3489997 0.6443056 0.680492
vn -0.2521671 0.6684814 0.6996744
g ref_22_0
f 3/3/3 2/2/2 1/1/1
f 4/4/4 2/2/2 3/3/3
f 5/5/5 4/4/4 3/3/3
f 6/6/6 3/3/3 1/1/1
f 7/7/7 6/6/6 1/1/1
f 8/8/8 6/6/6 7/7/7
f 9/9/9 6/6/6 8/8/8
f 10/10/10 6/6/6 9/9/9
f 11/11/11 6/6/6 10/10/10
f 12/12/12 6/6/6 11/11/11
f 3/3/3 6/6/6 12/12/12
f 12/12/12 11/11/11 13/13/13
f 13/13/13 11/11/11 14/14/14
f 14/14/14 11/11/11 10/10/10
f 15/15/15 3/3/3 12/12/12
f 5/5/5 3/3/3 15/15/15
f 15/15/15 12/12/12 16/16/16
f 16/16/16 12/12/12 17/17/17
f 17/17/17 12/12/12 13/13/13
f 17/17/17 13/13/13 18/18/18
f 16/16/16 17/17/17 19/19/19
f 19/19/19 17/17/17 20/20/20
f 20/20/20 17/17/17 18/18/18
f 18/18/18 13/13/13 21/21/21
f 21/21/21 13/13/13 22/22/22
f 22/22/22 13/13/13 23/23/23
f 23/23/23 13/13/13 14/14/14
f 26/26/26 25/25/25 24/24/24
f 26/26/26 27/27/27 25/25/25
f 27/27/27 28/28/28 25/25/25
f 25/25/25 29/29/29 24/24/24
f 29/29/29 30/30/30 24/24/24
f 29/29/29 31/31/31 30/30/30
f 29/29/29 32/32/32 31/31/31
f 29/29/29 33/33/33 32/32/32
f 29/29/29 34/34/34 33/33/33
f 29/29/29 35/35/35 34/34/34
f 29/29/29 25/25/25 35/35/35
f 34/34/34 35/35/35 36/36/36
f 34/34/34 36/36/36 37/37/37
f 34/34/34 37/37/37 33/33/33
f 25/25/25 38/38/38 35/35/35
f 25/25/25 28/28/28 38/38/38
f 35/35/35 38/38/38 39/39/39
f 35/35/35 39/39/39 40/40/40
f 35/35/35 40/40/40 36/36/36
f 36/36/36 40/40/40 41/41/41
f 40/40/40 39/39/39 42/42/42
f 40/40/40 42/42/42 43/43/43
f 40/40/40 43/43/43 41/41/41
f 36/36/36 41/41/41 44/44/44
f 36/36/36 44/44/44 45/45/45
f 36/36/36 45/45/45 46/46/46
f 36/36/36 46/46/46 37/37/37
