g Glass_56
v 0 1.2542 0.5968992
v 0.1726 1.3269 0.4200992
v 0.1778 1.2575 0.5822992
v 0 1.3272 0.4248992
v 0.3809 1.3198 0.4030992
v 0.3913 1.2526 0.5571992
v 0.1844 1.1714 0.8009992
v 0 1.1651 0.8242992
v 0.5835 1.3035 0.3638992
v 0.6117 1.2417 0.5262992
v 0.4045 1.1688 0.7669992
v 0.1957 1.009401 1.172199
v 0 0.9994008 1.2063
v 0 0.9043007 1.4076
v 0.6416 1.1601 0.7254992
v 0.4271 1.008501 1.1282
v 0.2044 0.9021007 1.400599
v 0.4452 0.9005008 1.355999
v 0.6767 0.9987008 1.072299
v 0.6768 0.9662008 1.135599
v 0.5711 0.9032007 1.304399
v 0.6649 0.9176008 1.230299
v -0.1957 1.009401 1.172199
v -0.1845 1.1714 0.8009992
v -0.4045 1.1688 0.7669992
v -0.1779 1.2575 0.5822992
v -0.3914 1.2526 0.5571992
v -0.381 1.3198 0.4030992
v -0.6118 1.2417 0.5262992
v -0.5835 1.3035 0.3638992
v -0.1726 1.3269 0.4200992
v -0.6416 1.1601 0.7254992
v -0.4272 1.008501 1.1282
v -0.2045 0.9021007 1.400599
v -0.4453 0.9005008 1.355999
v -0.6768 0.9987008 1.072299
v -0.6769 0.9662008 1.135599
v -0.5712 0.9032007 1.304399
v -0.665 0.9176008 1.230299
v 0 1.176799 -1.577401
v 0 1.090699 -1.7879
v 0.3403 1.169499 -1.574501
v 0.3382 1.233499 -1.422401
v 0.3431 1.085699 -1.7722
v 0.4823 1.081499 -1.75
v 0.6065 1.140899 -1.563201
v 0.5911 1.211099 -1.408301
v 0.6172 1.079499 -1.7102
v 0.3355 1.312299 -1.235301
v 0.5732 1.291499 -1.214801
v 0 1.241699 -1.427801
v 0 1.321299 -1.244401
v 0.3983 1.344899 -1.137901
v 0.2315 1.353999 -1.145101
v 0.5646 1.3233 -1.124001
v 0 1.360499 -1.152701
v -0.3356 1.312299 -1.235301
v -0.3382 1.233499 -1.422401
v -0.5912 1.211099 -1.408301
v -0.6065 1.140899 -1.563201
v -0.5733 1.291499 -1.214801
v -0.3404 1.169499 -1.574501
v -0.6173 1.079499 -1.7102
v -0.3432 1.085699 -1.7722
v -0.4824 1.081499 -1.75
v -0.3984 1.344899 -1.137901
v -0.2315 1.353999 -1.145101
v -0.5646 1.3233 -1.124001
v 0.7648 0.9835002 -1.0494
v 0.631 1.263499 -1.080101
v 0.6506 1.213799 -1.179001
v 0.6852 1.135299 -1.239701
v 0.7432 1.022899 -1.2499
v 0.759 0.9911992 -1.2404
v 0.6161 1.3212 -0.8842008
v 0.6114 1.349 -0.6556008
v 0.7883 0.9520001 -0.2941999
v 0.6141 1.3475 -0.3867008
v 0.6741 1.2143 0.4955992
v 0.792 0.9494001 -0.1858999
v 0.7063 1.1232 0.7037992
v 0.6491 1.2798 0.3103992
v 0.634 1.3175 0.1499992
v 0.6211 1.3435 -0.07870078
v 0.6156 1.3515 -0.2775008
v 0.7796 0.8964999 0.9111001
v 0.7422 1.0018 0.9290002
v -0.7648 0.9835002 -1.0494
v -0.6507 1.213799 -1.179001
v -0.631 1.263499 -1.080101
v -0.6853 1.135299 -1.239701
v -0.7433 1.022899 -1.2499
v -0.7591 0.9911992 -1.2404
v -0.6162 1.3212 -0.8842008
v -0.6114 1.349 -0.6556008
v -0.7884 0.9520001 -0.2941999
v -0.6142 1.3475 -0.3867008
v -0.6742 1.2143 0.4955992
v -0.7064 1.1232 0.7037992
v -0.7921 0.9494001 -0.1858999
v -0.6491 1.2798 0.3103992
v -0.6341 1.3175 0.1499992
v -0.6211 1.3435 -0.07870078
v -0.6157 1.3515 -0.2775008
v -0.7796 0.8964999 0.9111001
v -0.7423 1.0018 0.9290002
vt 0.5337 0.8423
vt 0.5337 0.8423
vt 0.5337 0.8423
vt 0.5337 0.8423
vt 0.5337 0.8423
vt 0.5337 0.8423
vt 0.5337 0.8423
vt 0.5337 0.8423
vt 0.5337 0.8423
vt 0.5337 0.8423
vt 0.5337 0.8423
vt 0.5337 0.8423
vt 0.5337 0.8423
vt 0.5337 0.8423
vt 0.5337 0.8423
vt 0.5337 0.8423
vt 0.5337 0.8423
vt 0.5337 0.8423
vt 0.5337 0.8423
vt 0.5337 0.8423
vt 0.5337 0.8423
vt 0.5337 0.8423
vt 0.5337 0.8423
vt 0.5337 0.8423
vt 0.5337 0.8423
vt 0.5337 0.8423
vt 0.5337 0.8423
vt 0.5337 0.8423
vt 0.5337 0.8423
vt 0.5337 0.8423
vt 0.5337 0.8423
vt 0.5337 0.8423
vt 0.5337 0.8423
vt 0.5337 0.8423
vt 0.5337 0.8423
vt 0.5337 0.8423
vt 0.5337 0.8423
vt 0.5337 0.8423
vt 0.5337 0.8423
vt 0.5337 0.8423
vt 0.5337 0.8423
vt 0.5337 0.8423
vt 0.5337 0.8423
vt 0.5337 0.8423
vt 0.5337 0.8423
vt 0.5337 0.8423
vt 0.5337 0.8423
vt 0.5337 0.8423
vt 0.5337 0.8423
vt 0.5337 0.8423
vt 0.5337 0.8423
vt 0.5337 0.8423
vt 0.5337 0.8423
vt 0.5337 0.8423
vt 0.5337 0.8423
vt 0.5337 0.8423
vt 0.5337 0.8423
vt 0.5337 0.8423
vt 0.5337 0.8423
vt 0.5337 0.8423
vt 0.5337 0.8423
vt 0.5337 0.8423
vt 0.5337 0.8423
vt 0.5337 0.8423
vt 0.5337 0.8423
vt 0.5337 0.8423
vt 0.5337 0.8423
vt 0.5337 0.8423
vt 0.5337 0.8423
vt 0.5337 0.8423
vt 0.5337 0.8423
vt 0.5337 0.8423
vt 0.5337 0.8423
vt 0.5337 0.8423
vt 0.5337 0.8423
vt 0.5337 0.8423
vt 0.5337 0.8423
vt 0.5337 0.8423
vt 0.5337 0.8423
vt 0.5337 0.8423
vt 0.5337 0.8423
vt 0.5337 0.8423
vt 0.5337 0.8423
vt 0.5337 0.8423
vt 0.5337 0.8423
vt 0.5337 0.8423
vt 0.5337 0.8423
vt 0.5337 0.8423
vt 0.5337 0.8423
vt 0.5337 0.8423
vt 0.5337 0.8423
vt 0.5337 0.8423
vt 0.5337 0.8423
vt 0.5337 0.8423
vt 0.5337 0.8423
vt 0.5337 0.8423
vt 0.5337 0.8423
vt 0.5337 0.8423
vt 0.5337 0.8423
vt 0.5337 0.8423
vt 0.5337 0.8423
vt 0.5337 0.8423
vt 0.5337 0.8423
vt 0.5337 0.8423
vt 0.5337 0.8423
vt 0.5337 0.8423
vn 0 0.9259466 0.3776544
vn 0.0387201 0.9193936 0.3914284
vn 0.03948319 0.9246535 0.3787571
vn 0 0.9205228 0.3906889
vn 0.1079688 0.9143333 0.3903043
vn 0.08834223 0.923699 0.3727946
vn 0.04315848 0.9232181 0.381845
vn 0 0.9237069 0.3830998
vn 0.1162665 0.925906 0.3594165
vn 0.09567912 0.9309545 0.3523766
vn 0.08567887 0.9202191 0.3819109
vn 0.0524632 0.9099475 0.4113917
vn 0 0.9099501 0.4147178
vn 0 0.904918 0.425586
vn 0.1047199 0.9178242 0.3829262
vn 0.1085816 0.9038767 0.4137836
vn 0.05288295 0.9045641 0.4230451
vn 0.1129845 0.9012508 0.4183079
vn 0.1310336 0.8940718 0.4283292
vn 0.1351203 0.8779589 0.4592719
vn 0.1633919 0.899923 0.4042793
vn 0.1543629 0.8887101 0.4317017
vn -0.05244223 0.9099524 0.4113835
vn -0.0431704 0.9232142 0.3818531
vn -0.08568763 0.9202139 0.3819216
vn -0.039479 0.9246563 0.3787507
vn -0.08835624 0.9236959 0.372799
vn -0.107999 0.9143343 0.3902936
vn -0.09567917 0.9309556 0.3523735
vn -0.1162918 0.9259155 0.3593838
vn -0.03869277 0.919402 0.3914114
vn -0.1047202 0.9178214 0.3829329
vn -0.1085672 0.9038845 0.4137705
vn -0.05287512 0.9045696 0.4230342
vn -0.1129845 0.9012508 0.4183078
vn -0.1310306 0.8940791 0.4283148
vn -0.1351203 0.877959 0.4592718
vn -0.1633918 0.8999231 0.4042791
vn -0.1543628 0.8887103 0.4317015
vn 0 0.9221641 -0.3867989
vn 0 0.92389 -0.3826582
vn 0.06822459 0.9208162 -0.383983
vn 0.06665713 0.9189643 -0.3886661
vn 0.05901963 0.9193978 -0.3888757
vn 0.1099853 0.9212996 -0.3729748
vn 0.1112576 0.9161593 -0.3850635
vn 0.1055036 0.9144938 -0.3906022
vn 0.1176501 0.9211921 -0.3708955
vn 0.07128143 0.9229955 -0.3781511
vn 0.1242116 0.9264886 -0.3552326
vn 0 0.9181296 -0.3962803
vn 0 0.9188103 -0.3946994
vn 0.1039361 0.9264458 -0.3617946
vn 0.04336058 0.9243893 -0.3789779
vn 0.1480627 0.9376788 -0.3143818
vn 0 0.9195075 -0.3930724
vn -0.0712729 0.9229965 -0.3781502
vn -0.06663481 0.9189624 -0.3886747
vn -0.1054751 0.91448 -0.3906422
vn -0.1112752 0.9161696 -0.3850339
vn -0.1242303 0.9265003 -0.3551956
vn -0.06824423 0.9208254 -0.3839573
vn -0.1176749 0.9212057 -0.3708541
vn -0.05901494 0.919398 -0.3888759
vn -0.1099853 0.9212996 -0.3729748
vn -0.1039369 0.9264581 -0.3617632
vn -0.04333906 0.9243962 -0.3789635
vn -0.1481439 0.9377189 -0.3142241
vn 0.905252 0.4240635 -0.02625023
vn 0.903272 0.426338 -0.04832806
vn 0.9033195 0.4274157 -0.03646383
vn 0.8984035 0.4383954 -0.02609
vn 0.8914392 0.4530863 -0.007002521
vn 0.896064 0.4438271 -0.009320223
vn 0.907323 0.4186182 -0.03903511
vn 0.9150769 0.4030026 -0.01494042
vn 0.9167638 0.3993017 -0.01010737
vn 0.9157382 0.4017153 -0.006953879
vn 0.9280093 0.3722191 0.01586458
vn 0.9235517 0.3834562 0.003701362
vn 0.9408659 0.3378717 0.02477891
vn 0.9227477 0.385295 0.0091861
vn 0.9193641 0.3934054 0.00133078
vn 0.9166639 0.3995858 -0.007638954
vn 0.9164896 0.3999514 -0.009260972
vn 0.943615 0.3299295 0.02714957
vn 0.9434417 0.3303792 0.02770158
vn -0.9052733 0.4240291 -0.02607053
vn -0.9033539 0.4273966 -0.03583063
vn -0.9032722 0.4263465 -0.04825074
vn -0.8984745 0.4382703 -0.02574674
vn -0.8914296 0.4531119 -0.006552019
vn -0.8960114 0.443943 -0.008844791
vn -0.9074686 0.4183203 -0.03884487
vn -0.9151024 0.4029427 -0.01499465
vn -0.9167438 0.3993426 -0.01030636
vn -0.9157653 0.4016475 -0.007295326
vn -0.9279525 0.3723634 0.01579872
vn -0.9409713 0.3375782 0.02477914
vn -0.9235218 0.3835276 0.003767597
vn -0.9226226 0.3855959 0.009135563
vn -0.9194288 0.3932537 0.001527759
vn -0.9165796 0.3997794 -0.00762982
vn -0.9164546 0.4000421 -0.008795298
vn -0.9438053 0.3294007 0.02695905
vn -0.9437088 0.3296514 0.02726724
g Glass_56_0
f 3/3/3 2/2/2 1/1/1
f 1/1/1 2/2/2 4/4/4
f 3/3/3 5/5/5 2/2/2
f 6/6/6 5/5/5 3/3/3
f 3/3/3 7/7/7 6/6/6
f 7/7/7 3/3/3 8/8/8
f 8/8/8 3/3/3 1/1/1
f 6/6/6 9/9/9 5/5/5
f 10/10/10 9/9/9 6/6/6
f 6/6/6 11/11/11 10/10/10
f 6/6/6 7/7/7 11/11/11
f 7/7/7 12/12/12 11/11/11
f 12/12/12 7/7/7 13/13/13
f 13/13/13 7/7/7 8/8/8
f 13/13/13 14/14/14 12/12/12
f 10/10/10 11/11/11 15/15/15
f 11/11/11 16/16/16 15/15/15
f 11/11/11 12/12/12 16/16/16
f 12/12/12 14/14/14 17/17/17
f 17/17/17 16/16/16 12/12/12
f 18/18/18 16/16/16 17/17/17
f 15/15/15 16/16/16 19/19/19
f 19/19/19 16/16/16 20/20/20
f 18/18/18 21/21/21 16/16/16
f 16/16/16 21/21/21 22/22/22
f 22/22/22 20/20/20 16/16/16
f 14/14/14 13/13/13 23/23/23
f 24/24/24 23/23/23 13/13/13
f 23/23/23 24/24/24 25/25/25
f 24/24/24 13/13/13 8/8/8
f 26/26/26 24/24/24 8/8/8
f 24/24/24 26/26/26 27/27/27
f 24/24/24 27/27/27 25/25/25
f 28/28/28 27/27/27 26/26/26
f 25/25/25 27/27/27 29/29/29
f 30/30/30 29/29/29 27/27/27
f 30/30/30 27/27/27 28/28/28
f 28/28/28 26/26/26 31/31/31
f 31/31/31 26/26/26 1/1/1
f 26/26/26 8/8/8 1/1/1
f 1/1/1 4/4/4 31/31/31
f 25/25/25 29/29/29 32/32/32
f 33/33/33 25/25/25 32/32/32
f 23/23/23 25/25/25 33/33/33
f 33/33/33 34/34/34 23/23/23
f 33/33/33 35/35/35 34/34/34
f 14/14/14 23/23/23 34/34/34
f 33/33/33 32/32/32 36/36/36
f 33/33/33 36/36/36 37/37/37
f 38/38/38 35/35/35 33/33/33
f 38/38/38 33/33/33 39/39/39
f 37/37/37 39/39/39 33/33/33
f 42/42/42 41/41/41 40/40/40
f 42/42/42 40/40/40 43/43/43
f 44/44/44 41/41/41 42/42/42
f 44/44/44 42/42/42 45/45/45
f 43/43/43 46/46/46 42/42/42
f 47/47/47 46/46/46 43/43/43
f 48/48/48 42/42/42 46/46/46
f 48/48/48 45/45/45 42/42/42
f 49/49/49 47/47/47 43/43/43
f 50/50/50 47/47/47 49/49/49
f 51/51/51 49/49/49 43/43/43
f 43/43/43 40/40/40 51/51/51
f 52/52/52 49/49/49 51/51/51
f 53/53/53 50/50/50 49/49/49
f 53/53/53 49/49/49 54/54/54
f 52/52/52 54/54/54 49/49/49
f 55/55/55 50/50/50 53/53/53
f 56/56/56 54/54/54 52/52/52
f 57/57/57 52/52/52 51/51/51
f 57/57/57 51/51/51 58/58/58
f 59/59/59 57/57/57 58/58/58
f 60/60/60 59/59/59 58/58/58
f 59/59/59 61/61/61 57/57/57
f 60/60/60 58/58/58 62/62/62
f 62/62/62 63/63/63 60/60/60
f 40/40/40 62/62/62 58/58/58
f 40/40/40 58/58/58 51/51/51
f 41/41/41 62/62/62 40/40/40
f 41/41/41 64/64/64 62/62/62
f 62/62/62 64/64/64 65/65/65
f 65/65/65 63/63/63 62/62/62
f 61/61/61 66/66/66 57/57/57
f 57/57/57 66/66/66 67/67/67
f 61/61/61 68/68/68 66/66/66
f 67/67/67 52/52/52 57/57/57
f 67/67/67 56/56/56 52/52/52
f 71/71/71 70/70/70 69/69/69
f 69/69/69 72/72/72 71/71/71
f 73/73/73 72/72/72 69/69/69
f 74/74/74 73/73/73 69/69/69
f 70/70/70 75/75/75 69/69/69
f 69/69/69 75/75/75 76/76/76
f 77/77/77 69/69/69 76/76/76
f 78/78/78 77/77/77 76/76/76
f 81/81/81 80/80/80 79/79/79
f 80/80/80 82/82/82 79/79/79
f 83/83/83 82/82/82 80/80/80
f 80/80/80 84/84/84 83/83/83
f 85/85/85 84/84/84 80/80/80
f 86/86/86 80/80/80 81/81/81
f 86/86/86 81/81/81 87/87/87
f 90/90/90 89/89/89 88/88/88
f 91/91/91 88/88/88 89/89/89
f 91/91/91 92/92/92 88/88/88
f 92/92/92 93/93/93 88/88/88
f 94/94/94 90/90/90 88/88/88
f 94/94/94 88/88/88 95/95/95
f 88/88/88 96/96/96 95/95/95
f 96/96/96 97/97/97 95/95/95
f 100/100/100 99/99/99 98/98/98
f 101/101/101 100/100/100 98/98/98
f 101/101/101 102/102/102 100/100/100
f 103/103/103 100/100/100 102/102/102
f 103/103/103 104/104/104 100/100/100
f 100/100/100 105/105/105 99/99/99
f 99/99/99 105/105/105 106/106/106
