g model_car_17_matte_mirror_LOD1
v 0.5910062 0.8967217 -0.0006113648
v 0.5924648 0.8939039 -0.0004940033
v 0.6282532 0.8972952 -0.004248023
v 0.6283405 0.9006985 -0.004130602
v 0.6575978 0.8931288 -0.0068506
v 0.6589886 0.8961136 -0.006948411
v 0.5659034 0.8802741 0.00175035
v 0.5688191 0.8790021 0.001851201
v 0.5581605 0.8453345 0.002299726
v 0.5618438 0.8460782 0.001669049
v 0.5881433 0.8253255 -0.0002095103
v 0.5868548 0.8221269 0.0002089739
v 0.5634018 0.8463717 0.004775822
v 0.5702235 0.8785685 0.004953444
v 0.5891217 0.8260765 0.002937973
v 0.5933484 0.8931408 0.0026595
v 0.6166268 0.824618 3.284216E-05
v 0.6283481 0.8964583 -0.001013279
v 0.5891217 0.8260765 0.002937973
v 0.5881433 0.8253255 -0.0002095103
v 0.6162686 0.8238337 -0.003179312
v 0.6167939 0.8200676 -0.002819538
v 0.5868548 0.8221269 0.0002089739
v 0.6456869 0.8256235 -0.005583167
v 0.644281 0.8289185 -0.005554557
v 0.6740334 0.8567923 -0.008796871
v 0.677652 0.8557779 -0.008601189
v 0.644022 0.8295897 -0.002289712
v 0.6570454 0.8923836 -0.003557146
v 0.6731167 0.8568496 -0.005461276
v 0.6701394 0.8743103 -0.005045831
v -0.5910057 0.8967217 -0.0006113648
v -0.6283416 0.9006985 -0.004130602
v -0.6282542 0.8972952 -0.004248023
v -0.5924643 0.8939039 -0.0004940033
v -0.6589895 0.8961136 -0.006948411
v -0.6575987 0.8931288 -0.0068506
v -0.5688186 0.8790021 0.001851201
v -0.5659029 0.8802741 0.00175035
v -0.5581615 0.8453345 0.002299726
v -0.5618433 0.8460782 0.001669049
v -0.5634028 0.8463717 0.004775822
v -0.570223 0.8785685 0.004953444
v -0.5881443 0.8253255 -0.0002095103
v -0.5868542 0.8221269 0.0002089739
v -0.5891227 0.8260765 0.002937973
v -0.5933478 0.8931408 0.0026595
v -0.5891227 0.8260765 0.002937973
v -0.6166263 0.824618 3.284216E-05
v -0.5881443 0.8253255 -0.0002095103
v -0.616268 0.8238337 -0.003179312
v -0.6167934 0.8200676 -0.002819538
v -0.644282 0.8289185 -0.005554557
v -0.6456878 0.8256235 -0.005583167
v -0.6776515 0.8557779 -0.008601189
v -0.6740329 0.8567923 -0.008796871
v -0.5868542 0.8221269 0.0002089739
v -0.6440215 0.8295897 -0.002289712
v -0.6283475 0.8964583 -0.001013279
v -0.6570448 0.8923836 -0.003557146
v -0.6731178 0.8568496 -0.005461276
v -0.6701404 0.8743103 -0.005045831
v 0.6709883 0.8746489 -0.008372366
v 0.6740334 0.8567923 -0.008796871
v 0.677652 0.8557779 -0.008601189
v 0.6741734 0.8772259 -0.008169174
v 0.6575978 0.8931288 -0.0068506
v 0.6589886 0.8961136 -0.006948411
v 0.6570454 0.8923836 -0.003557146
v 0.6283481 0.8964583 -0.001013279
v 0.6282532 0.8972952 -0.004248023
v 0.6701394 0.8743103 -0.005045831
v 0.6731167 0.8568496 -0.005461276
v 0.5933484 0.8931408 0.0026595
v 0.5924648 0.8939039 -0.0004940033
v 0.5702235 0.8785685 0.004953444
v 0.5688191 0.8790021 0.001851201
v -0.6575987 0.8931288 -0.0068506
v -0.6589895 0.8961136 -0.006948411
v -0.6741729 0.8772259 -0.008169174
v -0.6709878 0.8746489 -0.008372366
v -0.6776515 0.8557779 -0.008601189
v -0.6740329 0.8567923 -0.008796871
v -0.6701404 0.8743103 -0.005045831
v -0.6570448 0.8923836 -0.003557146
v -0.6283475 0.8964583 -0.001013279
v -0.6282542 0.8972952 -0.004248023
v -0.6731178 0.8568496 -0.005461276
v -0.5933478 0.8931408 0.0026595
v -0.5924643 0.8939039 -0.0004940033
v -0.570223 0.8785685 0.004953444
v -0.5688186 0.8790021 0.001851201
vn -0.1917509 -0.5660213 -0.8017802
vn 0.2648068 -0.9183854 -0.2940164
vn -0.04019648 -0.9676406 -0.2491103
vn -0.08376843 -0.5546547 -0.8278533
vn -0.3774051 -0.5754935 -0.7255154
vn -0.2959446 -0.3386896 -0.893144
vn 0.4049947 -0.08483595 -0.9103748
vn 0.7706198 -0.4845608 -0.4139395
vn 0.1397744 0.05914074 -0.9884157
vn 0.4523554 0.1424957 -0.8803803
vn 0.1966074 0.6217867 -0.7581075
vn 0.1284078 0.1311292 -0.983014
vn 0.03179187 0.05156308 -0.9981636
vn -0.0004134774 -0.04884171 -0.9988065
vn -0.07619065 0.06482404 -0.9949839
vn -0.08187395 -0.05831391 -0.9949353
vn -0.1008182 0.04966861 -0.9936643
vn -0.09513503 -0.05641949 -0.9938642
vn -0.07619065 0.06482404 -0.9949839
vn 0.1966074 0.6217867 -0.7581075
vn -0.08187395 0.9703619 -0.2273643
vn 0.1662964 0.2732114 -0.9474708
vn 0.1284078 0.1311292 -0.983014
vn -0.2466894 0.2334284 -0.9405613
vn -0.3868772 0.5611649 -0.731724
vn -0.3868772 0.1709122 -0.906154
vn -0.174701 0.2201675 -0.9596905
vn -0.1273403 0.06861299 -0.9894831
vn -0.1235514 -0.06589162 -0.9901481
vn -0.2429006 0.08566278 -0.9662614
vn -0.1917509 -0.03558075 -0.9807984
vn -0.07240182 -0.5698102 -0.8185807
vn -0.2675281 -0.4353056 -0.8596148
vn 0.03936958 -0.9676406 -0.2492424
vn -0.2656338 -0.9183854 -0.2932695
vn 0.2970122 -0.3386896 -0.8927895
vn 0.3784727 -0.5754935 -0.7249591
vn -0.5005432 -0.3349007 -0.7983094
vn -0.2599505 0.1671234 -0.9510497
vn -0.09513503 -0.03936958 -0.9946856
vn -0.2770004 0.1008182 -0.955566
vn -0.03072435 0.05156308 -0.998197
vn -0.0004134774 -0.04884171 -0.9988065
vn -0.1955398 0.6217867 -0.7583836
vn 0.1928185 0.2372172 -0.9521287
vn 0.07536376 0.06482404 -0.9950469
vn 0.08104706 -0.05831391 -0.995003
vn 0.07536376 0.06482404 -0.9950469
vn 0.09999138 0.04966861 -0.9937478
vn -0.1955398 0.6217867 -0.7583836
vn 0.08104706 0.9703619 -0.2276603
vn 0.3690005 0.2466894 -0.8960932
vn 0.3860504 0.5611649 -0.7321605
vn 0.3690005 0.09892386 -0.9241497
vn 0.2572291 0.121657 -0.958662
vn 0.3879448 0.1709122 -0.9056974
vn 0.1928185 0.2372172 -0.9521287
vn 0.1284078 0.06861299 -0.9893451
vn 0.09620249 -0.05641949 -0.9937615
vn 0.1227245 -0.06589162 -0.9902509
vn 0.2420737 0.08566278 -0.9664689
vn 0.1928185 -0.03558075 -0.9805892
vn -0.4702322 -0.177663 -0.8644753
vn -0.3868772 0.1709122 -0.906154
vn -0.174701 0.2201675 -0.9596905
vn -0.1974342 -0.2799623 -0.9394897
vn -0.3774051 -0.5754935 -0.7255154
vn -0.2959446 -0.3386896 -0.893144
vn -0.1235514 -0.06589162 -0.9901481
vn -0.09513503 -0.05641949 -0.9938642
vn -0.04019648 -0.9676406 -0.2491103
vn -0.1917509 -0.03558075 -0.9807984
vn -0.2429006 0.08566278 -0.9662614
vn -0.08187395 -0.05831391 -0.9949353
vn 0.2648068 -0.9183854 -0.2940164
vn -0.0004134774 -0.04884171 -0.9988065
vn 0.7706198 -0.4845608 -0.4139395
vn 0.3784727 -0.5754935 -0.7249591
vn 0.2970122 -0.3386896 -0.8927895
vn 0.1966074 -0.2799623 -0.9396631
vn 0.4712998 -0.177663 -0.8638937
vn 0.2572291 0.121657 -0.958662
vn 0.3879448 0.1709122 -0.9056974
vn 0.1928185 -0.03558075 -0.9805892
vn 0.1227245 -0.06589162 -0.9902509
vn 0.09620249 -0.05641949 -0.9937615
vn 0.03936958 -0.9676406 -0.2492424
vn 0.2420737 0.08566278 -0.9664689
vn 0.08104706 -0.05831391 -0.995003
vn -0.2656338 -0.9183854 -0.2932695
vn -0.0004134774 -0.04884171 -0.9988065
vn -0.5005432 -0.3349007 -0.7983094
g model_car_17_matte_mirror_LOD1_0
f 3/3/3 2/2/2 1/1/1
f 4/4/4 3/3/3 1/1/1
f 5/5/5 3/3/3 4/4/4
f 6/6/6 5/5/5 4/4/4
f 1/1/1 2/2/2 7/7/7
f 2/2/2 8/8/8 7/7/7
f 7/7/7 8/8/8 9/9/9
f 8/8/8 10/10/10 9/9/9
f 10/10/10 11/11/11 9/9/9
f 11/11/11 12/12/12 9/9/9
f 13/13/13 10/10/10 8/8/8
f 14/14/14 13/13/13 8/8/8
f 15/15/15 11/11/11 10/10/10
f 13/13/13 15/15/15 10/10/10
f 13/13/13 14/14/14 15/15/15
f 14/14/14 16/16/16 15/15/15
f 16/16/16 18/18/18 17/17/17
f 19/19/19 16/16/16 17/17/17
f 19/19/19 17/17/17 20/20/20
f 17/17/17 21/21/21 20/20/20
f 20/20/20 21/21/21 22/22/22
f 23/23/23 20/20/20 22/22/22
f 22/22/22 21/21/21 24/24/24
f 21/21/21 25/25/25 24/24/24
f 25/25/25 26/26/26 24/24/24
f 26/26/26 27/27/27 24/24/24
f 28/28/28 25/25/25 21/21/21
f 17/17/17 28/28/28 21/21/21
f 17/17/17 18/18/18 28/28/28
f 18/18/18 29/29/29 28/28/28
f 28/28/28 29/29/29 30/30/30
f 25/25/25 28/28/28 30/30/30
f 26/26/26 25/25/25 30/30/30
f 29/29/29 31/31/31 30/30/30
f 34/34/34 33/33/33 32/32/32
f 35/35/35 34/34/34 32/32/32
f 33/33/33 34/34/34 36/36/36
f 34/34/34 37/37/37 36/36/36
f 38/38/38 35/35/35 32/32/32
f 39/39/39 38/38/38 32/32/32
f 38/38/38 39/39/39 40/40/40
f 41/41/41 38/38/38 40/40/40
f 41/41/41 42/42/42 38/38/38
f 42/42/42 43/43/43 38/38/38
f 41/41/41 40/40/40 44/44/44
f 40/40/40 45/45/45 44/44/44
f 42/42/42 46/46/46 43/43/43
f 46/46/46 47/47/47 43/43/43
f 48/48/48 42/42/42 41/41/41
f 44/44/44 48/48/48 41/41/41
f 47/47/47 46/46/46 49/49/49
f 49/49/49 46/46/46 50/50/50
f 51/51/51 49/49/49 50/50/50
f 52/52/52 51/51/51 50/50/50
f 53/53/53 51/51/51 52/52/52
f 54/54/54 53/53/53 52/52/52
f 54/54/54 55/55/55 53/53/53
f 55/55/55 56/56/56 53/53/53
f 57/57/57 52/52/52 50/50/50
f 58/58/58 49/49/49 51/51/51
f 53/53/53 58/58/58 51/51/51
f 59/59/59 47/47/47 49/49/49
f 59/59/59 49/49/49 58/58/58
f 60/60/60 59/59/59 58/58/58
f 60/60/60 58/58/58 61/61/61
f 61/61/61 58/58/58 53/53/53
f 56/56/56 61/61/61 53/53/53
f 62/62/62 60/60/60 61/61/61
f 65/65/65 64/64/64 63/63/63
f 66/66/66 65/65/65 63/63/63
f 63/63/63 67/67/67 66/66/66
f 67/67/67 68/68/68 66/66/66
f 67/67/67 63/63/63 69/69/69
f 69/69/69 70/70/70 67/67/67
f 70/70/70 71/71/71 67/67/67
f 63/63/63 72/72/72 69/69/69
f 72/72/72 63/63/63 64/64/64
f 73/73/73 72/72/72 64/64/64
f 70/70/70 74/74/74 71/71/71
f 74/74/74 75/75/75 71/71/71
f 74/74/74 76/76/76 75/75/75
f 76/76/76 77/77/77 75/75/75
f 80/80/80 79/79/79 78/78/78
f 81/81/81 80/80/80 78/78/78
f 82/82/82 80/80/80 81/81/81
f 83/83/83 82/82/82 81/81/81
f 84/84/84 81/81/81 78/78/78
f 81/81/81 84/84/84 83/83/83
f 85/85/85 84/84/84 78/78/78
f 86/86/86 85/85/85 78/78/78
f 87/87/87 86/86/86 78/78/78
f 84/84/84 88/88/88 83/83/83
f 89/89/89 86/86/86 87/87/87
f 90/90/90 89/89/89 87/87/87
f 91/91/91 89/89/89 90/90/90
f 92/92/92 91/91/91 90/90/90
