g model_car_84_matte_detail_LOD1
v 0.7213265 0.3057905 -1.71393
v 0.7571076 0.3448323 -1.676002
v 0.7219419 0.3662745 -1.703808
v 0.6901577 0.3776129 -1.73242
v 0.674925 0.3138577 -1.752415
v 0.6233542 0.3932999 -1.773513
v 0.6280142 0.3246795 -1.781144
v 0.5491762 0.4035541 -1.808517
v 0.5620093 0.3392748 -1.809437
v 0.4899049 0.4081334 -1.827586
v 0.4946197 0.3589622 -1.827432
v 0.3955594 0.4162737 -1.844383
v 0.4119315 0.3742024 -1.846024
v 0.3536749 0.4184498 -1.850973
v 0.3547924 0.3691248 -1.857491
v 0.2824936 0.4222819 -1.861634
v 0.2872635 0.3594056 -1.869646
v 0.1824368 0.4264692 -1.874196
v 0.1872067 0.3464442 -1.880446
v 0.07378185 0.4277917 -1.88275
v 0.07855177 0.3384174 -1.887212
v -4.768372E-07 0.4274253 -1.883948
v -4.768372E-07 0.335714 -1.888385
v 0.7638558 0.306615 -1.666301
v 0.7645189 0.3278667 -1.666517
v 0.7616357 0.3039881 -1.668671
v 0.2021756 0.428517 1.819512
v 0.215126 0.4325908 1.815915
v 0.2124261 0.4068512 1.819087
v 0.2811308 0.4353787 1.803628
v 0.2862927 0.4095036 1.804983
v 0.3632476 0.4389213 1.787582
v 0.3670722 0.4122804 1.78908
v 0.298188 0.3498658 1.808104
v 0.3749304 0.3575629 1.79215
v 0.4519256 0.4417862 1.768286
v 0.4516692 0.4152442 1.770308
v 0.506134 0.4172298 1.755588
v 0.5121385 0.4417604 1.752068
v 0.4943193 0.3689929 1.762512
v 0.5622694 0.375023 1.740938
v 0.5895294 0.4205784 1.726376
v 0.521898 0.3374246 1.756753
v 0.4839628 0.3267092 1.768579
v 0.4511856 0.3649594 1.774144
v 0.3804805 0.3189353 1.794319
v 0.4507827 0.3232435 1.777324
v 0.3050424 0.3154916 1.809903
v 0.2189361 0.3122054 1.825989
v 0.2180055 0.3416964 1.82352
v 0.1635627 0.3144547 1.837251
v 0.175392 0.3378168 1.835049
v 0.151682 0.3174661 1.840837
v 0.1487732 0.3248883 1.842933
v 0.1575398 0.3466054 1.83924
v 0.1787331 0.3917979 1.830272
v 0.1934162 0.4198345 1.823081
v 0.5721974 0.4401888 1.730739
v 0.6036924 0.3373991 1.670867
v 0.6501966 0.3534342 1.646208
v 0.639012 0.3329736 1.652396
v 0.7345847 0.3376848 1.597015
v 0.7456154 0.3453377 1.589519
v 0.6701441 0.3903619 1.63509
v 0.7623464 0.3878084 1.580181
v 0.6914216 0.4295245 1.622597
v 0.7660978 0.4276122 1.575858
v 0.6501305 0.4164568 1.646615
v 0.6583258 0.4266375 1.640665
v 0.6363302 0.391296 1.655686
v 0.6159724 0.3563503 1.666786
v 0.02335787 0.3281342 1.941279
v -4.768372E-07 0.328061 1.94129
v -4.768372E-07 0.3922156 1.919756
v 0.03298545 0.3922156 1.919756
v -4.768372E-07 0.4449037 1.904043
v 0.03533375 0.4448854 1.904494
v 0.01940858 0.3004164 1.947609
v -4.768372E-07 0.3001527 1.947774
v 0.03305507 0.3036805 1.947261
v 0.04972017 0.3282074 1.941268
v 0.07874584 0.4404343 1.905051
v 0.07068992 0.3922156 1.919756
v 0.07939804 0.3395752 1.938506
v 0.1047822 0.3725063 1.928394
v 0.1257336 0.4119252 1.913561
v 0.1156627 0.4330012 1.905769
v 0.1275433 0.4222451 1.907472
v 0.05813885 0.3138832 1.945305
v 0.1255357 0.427579 1.906421
v -4.768372E-07 0.2739037 1.953042
v 0.01586235 0.2743653 1.952577
v 0.03589785 0.2895395 1.950969
v -0.7213274 0.3057905 -1.71393
v -0.721943 0.3662745 -1.703808
v -0.7571086 0.3448323 -1.676002
v -0.6901587 0.3776129 -1.73242
v -0.6749259 0.3138577 -1.752415
v -0.6233515 0.3932999 -1.773513
v -0.6280152 0.3246795 -1.781144
v -0.5491735 0.4035541 -1.808517
v -0.5620066 0.3392748 -1.809437
v -0.4899021 0.4081334 -1.827586
v -0.4946207 0.3589622 -1.827432
v -0.3955604 0.4162737 -1.844383
v -0.4119323 0.3742024 -1.846024
v -0.353676 0.4184498 -1.850973
v -0.3547932 0.3691248 -1.857491
v -0.2824947 0.4222819 -1.861634
v -0.2872609 0.3594056 -1.869646
v -0.1824378 0.4264692 -1.874196
v -0.1872076 0.3464442 -1.880446
v -0.0737828 0.4277917 -1.88275
v -0.07855272 0.3384174 -1.887212
v -4.768372E-07 0.4274253 -1.883948
v -4.768372E-07 0.335714 -1.888385
v -0.7638568 0.306615 -1.666301
v -0.761633 0.3039881 -1.668671
v -0.7645198 0.3278667 -1.666517
v -0.2021767 0.428517 1.819512
v -0.2124234 0.4068512 1.819087
v -0.2151269 0.4325908 1.815915
v -0.2811319 0.4353787 1.803628
v -0.28629 0.4095036 1.804983
v -0.3632485 0.4389213 1.787582
v -0.3670732 0.4122804 1.78908
v -0.2981852 0.3498658 1.808104
v -0.3749315 0.3575629 1.79215
v -0.451923 0.4417862 1.768286
v -0.4516701 0.4152442 1.770308
v -0.5061313 0.4172298 1.755588
v -0.5121394 0.4417604 1.752068
v -0.4943203 0.3689929 1.762512
v -0.5622705 0.375023 1.740938
v -0.5895268 0.4205784 1.726376
v -0.5218989 0.3374246 1.756753
v -0.4839636 0.3267092 1.768579
v -0.451183 0.3649594 1.774144
v -0.3804778 0.3189353 1.794319
v -0.4507836 0.3232435 1.777324
v -0.3050433 0.3154916 1.809903
v -0.218937 0.3122054 1.825989
v -0.2180029 0.3416964 1.82352
v -0.1635636 0.3144547 1.837251
v -0.175393 0.3378168 1.835049
v -0.151683 0.3174661 1.840837
v -0.1487705 0.3248883 1.842933
v -0.1575371 0.3466054 1.83924
v -0.1787339 0.3917979 1.830272
v -0.1934172 0.4198345 1.823081
v -0.5721985 0.4401888 1.730739
v -0.6036934 0.3373991 1.670867
v -0.6390091 0.3329736 1.652396
v -0.6501974 0.3534342 1.646208
v -0.7345856 0.3376848 1.597015
v -0.7456127 0.3453377 1.589519
v -0.6701452 0.3903619 1.63509
v -0.7623438 0.3878084 1.580181
v -0.6914226 0.4295245 1.622597
v -0.7660989 0.4276122 1.575858
v -0.6501278 0.4164568 1.646615
v -0.6583267 0.4266375 1.640665
v -0.6363276 0.391296 1.655686
v -0.6159734 0.3563503 1.666786
v -0.02335513 0.3281342 1.941279
v -0.0329864 0.3922156 1.919756
v -4.768372E-07 0.3922156 1.919756
v -4.768372E-07 0.328061 1.94129
v -4.768372E-07 0.4449037 1.904043
v -0.03533101 0.4448854 1.904494
v -0.01940954 0.3004164 1.947609
v -4.768372E-07 0.3001527 1.947774
v -0.03305602 0.3036805 1.947261
v -0.04972112 0.3282074 1.941268
v -0.0787468 0.4404343 1.905051
v -0.07068717 0.3922156 1.919756
v -0.07939899 0.3395752 1.938506
v -0.1047795 0.3725063 1.928394
v -0.1257344 0.4119252 1.913561
v -0.1156601 0.4330012 1.905769
v -0.1275443 0.4222451 1.907472
v -0.0581398 0.3138832 1.945305
v -0.1255368 0.427579 1.906421
v -4.768372E-07 0.2739037 1.953042
v -0.0158633 0.2743653 1.952577
v -0.0358988 0.2895395 1.950969
v 0.7991021 0.8179883 -0.6270177
v 0.8266221 0.8290409 -0.6433312
v 0.8462033 0.7945677 -0.6137522
v 0.8261751 0.7910801 -0.6199619
v 0.8038316 0.8606092 -0.6547539
v 0.791973 0.8721746 -0.6589413
v 0.773978 0.8743142 -0.6531932
v 0.7612584 0.8354117 -0.623336
v 0.773978 0.8743142 -0.6531932
v 0.7612584 0.8354117 -0.623336
v 0.7596575 0.8585502 -0.6374696
v 0.7640682 0.8695444 -0.646229
v -0.7991029 0.8179883 -0.6270177
v -0.8261725 0.7910801 -0.6199619
v -0.8462006 0.7945677 -0.6137522
v -0.8266193 0.8290409 -0.6433312
v -0.8038327 0.8606092 -0.6547539
v -0.7919701 0.8721746 -0.6589413
v -0.7739788 0.8743142 -0.6531932
v -0.7612594 0.8354117 -0.623336
v -0.7739788 0.8743142 -0.6531932
v -0.7640692 0.8695444 -0.646229
v -0.7596585 0.8585502 -0.6374696
v -0.7612594 0.8354117 -0.623336
vn 0.6719596 0.08353299 -0.7358618
vn 0.7044857 0.04361457 -0.7083768
vn 0.6616104 0.1012745 -0.7429772
vn 0.5980366 0.1145806 -0.7932361
vn 0.586209 0.1175376 -0.8015884
vn 0.4753245 0.1204945 -0.8715203
vn 0.4886307 0.1234514 -0.8637128
vn 0.3570478 0.08205456 -0.9304751
vn 0.386617 0.09536064 -0.9172969
vn 0.2402496 0.0583992 -0.9689529
vn 0.2535557 0.05692071 -0.9656446
vn 0.1885035 0.09240377 -0.9777157
vn 0.1958958 0.07761914 -0.977548
vn 0.1618912 0.1293652 -0.9782923
vn 0.1618912 0.1308437 -0.9780957
vn 0.1249297 0.1160591 -0.9853542
vn 0.1249297 0.1160591 -0.9853542
vn 0.0864898 0.08353299 -0.9927446
vn 0.0864898 0.08353299 -0.9927446
vn 0.04361451 0.0583992 -0.9973401
vn 0.04509294 0.05987763 -0.9971867
vn 0.0007391572 0.04952842 -0.9987724
vn 0.0007391572 0.04952842 -0.9987724
vn 0.7562318 -0.0317868 -0.6535313
vn 0.7562318 -0.0317868 -0.6535313
vn 0.747361 -0.03622222 -0.6634301
vn 0.2550341 0.102753 0.9614569
vn 0.1840681 0.0938822 0.9784197
vn 0.1973742 0.08648992 0.9765055
vn 0.1840681 0.09092528 0.9786989
vn 0.1855466 0.08648992 0.9788218
vn 0.2003312 0.08205456 0.9762861
vn 0.2032881 0.08205456 0.9756746
vn 0.187025 0.08648992 0.9785403
vn 0.2077234 0.08205456 0.97474
vn 0.2299004 0.0761407 0.9702311
vn 0.2313788 0.0761407 0.9698796
vn 0.2934741 0.07909763 0.9526891
vn 0.3023448 0.06874841 0.9507161
vn 0.2801679 0.07909763 0.9566867
vn 0.3097371 0.08501142 0.9470142
vn 0.3171294 0.08057606 0.9449531
vn 0.2890387 0.07761914 0.9541656
vn 0.2653834 0.0761407 0.9611318
vn 0.2313788 0.07761914 0.9697624
vn 0.2121589 0.08205456 0.9737842
vn 0.2328573 0.07761914 0.9694085
vn 0.1885035 0.08648992 0.9782566
vn 0.1944173 0.07170534 0.9782946
vn 0.1958958 0.08057606 0.9773088
vn 0.2461634 0.008131564 0.9691942
vn 0.2520772 0.05544227 0.9661176
vn 0.3053018 -0.08501136 0.9484534
vn 0.2919956 -0.04509294 0.9553561
vn 0.2742541 0.06726992 0.9593015
vn 0.277211 0.07022685 0.9582391
vn 0.2727757 0.1057099 0.9562525
vn 0.3304356 0.06726992 0.9414282
vn 0.4886307 -0.08057594 0.8687621
vn 0.5093291 -0.008131504 0.8605334
vn 0.4915876 0.01700234 0.8706621
vn 0.5063722 0.01995927 0.862084
vn 0.5108076 -0.01108837 0.8596236
vn 0.5137645 -0.003696084 0.8579233
vn 0.5167214 0.00221771 0.8561507
vn 0.5196784 0.01700234 0.8541928
vn 0.5211568 0.01700234 0.8532916
vn 0.5078506 0.01404542 0.8613306
vn 0.4649753 0.1367575 0.8746973
vn 0.5137645 -0.0140453 0.8578163
vn 0.5122861 -0.06579137 0.8562911
vn -0.0007392764 0.2993881 0.9541311
vn 0.0007391572 0.2964311 0.955054
vn 0.0007391572 0.3008665 0.953666
vn 0.0007391572 0.3008665 0.953666
vn 0.0007391572 0.2816465 0.959518
vn 0.00221765 0.2831249 0.9590805
vn -0.01108849 0.2165943 0.9761987
vn 0.0007391572 0.209202 0.9778722
vn -0.02587306 0.2358143 0.9714537
vn -0.01256692 0.3067803 0.9516973
vn 0.01108837 0.2949526 0.9554476
vn -0.005174637 0.3112156 0.9503253
vn -0.04361457 0.3274788 0.9438514
vn -0.03770077 0.3407849 0.9393851
vn 0.01108837 0.3230433 0.9463192
vn 0.01848072 0.3112156 0.9501596
vn 0.2742541 0.4383632 0.8559336
vn -0.02291614 0.2565128 0.9662691
vn 0.05248523 0.2121589 0.9758247
vn 0.0007391572 0.1914605 0.9815001
vn -0.005174637 0.1958959 0.980611
vn -0.04804999 0.2269436 0.9727219
vn -0.6719598 0.08353299 -0.7358617
vn -0.6616105 0.1012745 -0.7429771
vn -0.7044858 0.04361457 -0.7083767
vn -0.5980368 0.1145806 -0.793236
vn -0.5862091 0.1175376 -0.8015884
vn -0.4753246 0.1204945 -0.8715203
vn -0.4886308 0.1234514 -0.8637128
vn -0.3570479 0.08205456 -0.9304751
vn -0.3866171 0.09536064 -0.9172969
vn -0.2402496 0.0583992 -0.9689529
vn -0.2535558 0.05692071 -0.9656446
vn -0.1885036 0.09240377 -0.9777157
vn -0.1958959 0.07761914 -0.977548
vn -0.1618913 0.1293652 -0.9782923
vn -0.1618913 0.1308437 -0.9780957
vn -0.1249298 0.1160591 -0.9853542
vn -0.1249298 0.1160591 -0.9853542
vn -0.08648992 0.08353299 -0.9927446
vn -0.08648992 0.08353299 -0.9927446
vn -0.04361457 0.0583992 -0.9973401
vn -0.04509306 0.05987763 -0.9971867
vn 0.0007391572 0.04952842 -0.9987724
vn 0.0007391572 0.04952842 -0.9987724
vn -0.7562319 -0.0317868 -0.6535311
vn -0.7473612 -0.03622222 -0.6634299
vn -0.7562319 -0.0317868 -0.6535311
vn -0.2550342 0.102753 0.9614569
vn -0.1973743 0.08648992 0.9765055
vn -0.1840682 0.0938822 0.9784197
vn -0.1840682 0.08944684 0.9788351
vn -0.1855467 0.08648992 0.9788217
vn -0.2003313 0.08205456 0.9762861
vn -0.2032882 0.08205456 0.9756746
vn -0.1870251 0.08501142 0.9786698
vn -0.2077236 0.08205456 0.97474
vn -0.2299004 0.0761407 0.9702311
vn -0.2313789 0.0761407 0.9698796
vn -0.2934742 0.07909763 0.9526891
vn -0.3023449 0.06874841 0.9507161
vn -0.2801681 0.07909763 0.9566867
vn -0.3082588 0.08501142 0.9474965
vn -0.3171295 0.08057606 0.9449531
vn -0.2890388 0.07761914 0.9541655
vn -0.2653835 0.0761407 0.9611318
vn -0.2313789 0.07761914 0.9697624
vn -0.2121589 0.08205456 0.9737842
vn -0.2328573 0.07761914 0.9694085
vn -0.1885036 0.08648992 0.9782566
vn -0.1944174 0.07170534 0.9782946
vn -0.1958959 0.08057606 0.9773087
vn -0.2461635 0.008131564 0.9691942
vn -0.2520773 0.05544227 0.9661176
vn -0.3053019 -0.08501136 0.9484534
vn -0.2919958 -0.04509294 0.955356
vn -0.2742542 0.06726992 0.9593015
vn -0.2772112 0.07022685 0.9582391
vn -0.2727758 0.1057099 0.9562525
vn -0.3304356 0.06726992 0.9414282
vn -0.4886308 -0.08057594 0.8687621
vn -0.4915878 0.01700234 0.870662
vn -0.5093292 -0.008131504 0.8605334
vn -0.5063723 0.01995927 0.8620839
vn -0.5108076 -0.01108837 0.8596235
vn -0.5137646 -0.003696084 0.8579233
vn -0.5167215 0.00221771 0.8561507
vn -0.5196785 0.01700234 0.8541927
vn -0.5211569 0.01700234 0.8532915
vn -0.5078508 0.01404542 0.8613306
vn -0.4649755 0.1367575 0.8746972
vn -0.5152431 -0.0140453 0.856929
vn -0.5122862 -0.06579137 0.8562911
vn 0.0007391572 0.2993881 0.9541311
vn -0.0007392764 0.3008665 0.953666
vn 0.0007391572 0.3008665 0.953666
vn 0.0007391572 0.2964311 0.955054
vn 0.0007391572 0.2816465 0.959518
vn -0.0007392764 0.2831249 0.9590828
vn 0.01108837 0.2165943 0.9761987
vn 0.0007391572 0.209202 0.9778722
vn 0.02587301 0.2358143 0.9714537
vn 0.01256686 0.3067803 0.9516973
vn -0.01108849 0.2949526 0.9554476
vn 0.005174577 0.3112156 0.9503253
vn 0.04361451 0.3274788 0.9438514
vn 0.03770065 0.3407849 0.9393851
vn -0.01108849 0.3230433 0.9463192
vn -0.01848078 0.3112156 0.9501596
vn -0.2742542 0.4383632 0.8559336
vn 0.02291608 0.2565128 0.9662691
vn -0.05248535 0.2121589 0.9758247
vn 0.0007391572 0.1914605 0.9815001
vn 0.005174577 0.1958959 0.980611
vn 0.04804987 0.2269436 0.9727219
vn 0.2077234 0.5196785 0.828725
vn 0.1308436 0.5181999 0.8451916
vn 0.02143759 0.5241138 0.8513784
vn 0.02143759 0.5241138 0.8513784
vn 0.2402496 0.5108076 0.8254427
vn 0.3067802 0.5122862 0.8021526
vn 0.3141725 0.5122862 0.7992863
vn 0.3141725 0.5122862 0.7992863
vn 0.3141725 0.5122862 0.7992863
vn 0.3141725 0.5122862 0.7992863
vn 0.315651 0.5108076 0.79965
vn 0.315651 0.5108076 0.79965
vn -0.2077236 0.5196785 0.828725
vn -0.0214377 0.5241138 0.8513784
vn -0.0214377 0.5241138 0.8513784
vn -0.1308437 0.5181999 0.8451916
vn -0.2402496 0.5108076 0.8254427
vn -0.3067803 0.5122862 0.8021526
vn -0.3141726 0.5122862 0.7992862
vn -0.3141726 0.5108076 0.8002319
vn -0.3141726 0.5122862 0.7992862
vn -0.3156511 0.5108076 0.7996499
vn -0.3156511 0.5108076 0.7996499
vn -0.3141726 0.5108076 0.8002319
g model_car_84_matte_detail_LOD1_0
f 3/3/3 2/2/2 1/1/1
f 4/4/4 3/3/3 1/1/1
f 5/5/5 4/4/4 1/1/1
f 6/6/6 4/4/4 5/5/5
f 7/7/7 6/6/6 5/5/5
f 8/8/8 6/6/6 7/7/7
f 9/9/9 8/8/8 7/7/7
f 10/10/10 8/8/8 9/9/9
f 11/11/11 10/10/10 9/9/9
f 12/12/12 10/10/10 11/11/11
f 13/13/13 12/12/12 11/11/11
f 14/14/14 12/12/12 13/13/13
f 15/15/15 14/14/14 13/13/13
f 16/16/16 14/14/14 15/15/15
f 17/17/17 16/16/16 15/15/15
f 18/18/18 16/16/16 17/17/17
f 19/19/19 18/18/18 17/17/17
f 20/20/20 18/18/18 19/19/19
f 21/21/21 20/20/20 19/19/19
f 20/20/20 21/21/21 22/22/22
f 21/21/21 23/23/23 22/22/22
f 2/2/2 25/25/25 24/24/24
f 26/26/26 2/2/2 24/24/24
f 1/1/1 2/2/2 26/26/26
f 29/29/29 28/28/28 27/27/27
f 28/28/28 29/29/29 30/30/30
f 29/29/29 31/31/31 30/30/30
f 32/32/32 30/30/30 31/31/31
f 33/33/33 32/32/32 31/31/31
f 33/33/33 31/31/31 34/34/34
f 35/35/35 33/33/33 34/34/34
f 32/32/32 33/33/33 36/36/36
f 33/33/33 37/37/37 36/36/36
f 33/33/33 35/35/35 37/37/37
f 36/36/36 37/37/37 38/38/38
f 39/39/39 36/36/36 38/38/38
f 38/38/38 37/37/37 40/40/40
f 38/38/38 40/40/40 41/41/41
f 42/42/42 38/38/38 41/41/41
f 43/43/43 41/41/41 40/40/40
f 44/44/44 43/43/43 40/40/40
f 37/37/37 45/45/45 40/40/40
f 35/35/35 45/45/45 37/37/37
f 40/40/40 45/45/45 44/44/44
f 35/35/35 46/46/46 45/45/45
f 46/46/46 47/47/47 45/45/45
f 45/45/45 47/47/47 44/44/44
f 35/35/35 34/34/34 48/48/48
f 46/46/46 35/35/35 48/48/48
f 49/49/49 48/48/48 34/34/34
f 50/50/50 49/49/49 34/34/34
f 49/49/49 50/50/50 51/51/51
f 50/50/50 52/52/52 51/51/51
f 52/52/52 50/50/50 29/29/29
f 29/29/29 50/50/50 31/31/31
f 50/50/50 34/34/34 31/31/31
f 53/53/53 51/51/51 52/52/52
f 54/54/54 53/53/53 52/52/52
f 54/54/54 52/52/52 55/55/55
f 52/52/52 29/29/29 56/56/56
f 55/55/55 52/52/52 56/56/56
f 56/56/56 29/29/29 57/57/57
f 57/57/57 29/29/29 27/27/27
f 38/38/38 42/42/42 58/58/58
f 39/39/39 38/38/38 58/58/58
f 61/61/61 60/60/60 59/59/59
f 61/61/61 62/62/62 60/60/60
f 62/62/62 63/63/63 60/60/60
f 60/60/60 63/63/63 64/64/64
f 63/63/63 65/65/65 64/64/64
f 64/64/64 65/65/65 66/66/66
f 65/65/65 67/67/67 66/66/66
f 64/64/64 66/66/66 68/68/68
f 68/68/68 66/66/66 69/69/69
f 70/70/70 64/64/64 68/68/68
f 60/60/60 64/64/64 70/70/70
f 71/71/71 60/60/60 70/70/70
f 59/59/59 60/60/60 71/71/71
f 74/74/74 73/73/73 72/72/72
f 75/75/75 74/74/74 72/72/72
f 74/74/74 75/75/75 76/76/76
f 75/75/75 77/77/77 76/76/76
f 72/72/72 73/73/73 78/78/78
f 73/73/73 79/79/79 78/78/78
f 72/72/72 78/78/78 80/80/80
f 81/81/81 72/72/72 80/80/80
f 75/75/75 72/72/72 81/81/81
f 77/77/77 75/75/75 82/82/82
f 75/75/75 83/83/83 82/82/82
f 83/83/83 75/75/75 81/81/81
f 83/83/83 81/81/81 84/84/84
f 85/85/85 83/83/83 84/84/84
f 86/86/86 83/83/83 85/85/85
f 83/83/83 86/86/86 87/87/87
f 82/82/82 83/83/83 87/87/87
f 86/86/86 88/88/88 87/87/87
f 84/84/84 81/81/81 89/89/89
f 89/89/89 81/81/81 80/80/80
f 88/88/88 90/90/90 87/87/87
f 78/78/78 79/79/79 91/91/91
f 92/92/92 78/78/78 91/91/91
f 78/78/78 92/92/92 80/80/80
f 92/92/92 93/93/93 80/80/80
f 93/93/93 89/89/89 80/80/80
f 96/96/96 95/95/95 94/94/94
f 95/95/95 97/97/97 94/94/94
f 97/97/97 98/98/98 94/94/94
f 97/97/97 99/99/99 98/98/98
f 99/99/99 100/100/100 98/98/98
f 99/99/99 101/101/101 100/100/100
f 101/101/101 102/102/102 100/100/100
f 101/101/101 103/103/103 102/102/102
f 103/103/103 104/104/104 102/102/102
f 103/103/103 105/105/105 104/104/104
f 105/105/105 106/106/106 104/104/104
f 105/105/105 107/107/107 106/106/106
f 107/107/107 108/108/108 106/106/106
f 107/107/107 109/109/109 108/108/108
f 109/109/109 110/110/110 108/108/108
f 109/109/109 111/111/111 110/110/110
f 111/111/111 112/112/112 110/110/110
f 111/111/111 113/113/113 112/112/112
f 113/113/113 114/114/114 112/112/112
f 114/114/114 113/113/113 115/115/115
f 116/116/116 114/114/114 115/115/115
f 96/96/96 118/118/118 117/117/117
f 119/119/119 96/96/96 117/117/117
f 96/96/96 94/94/94 118/118/118
f 122/122/122 121/121/121 120/120/120
f 121/121/121 122/122/122 123/123/123
f 124/124/124 121/121/121 123/123/123
f 123/123/123 125/125/125 124/124/124
f 125/125/125 126/126/126 124/124/124
f 124/124/124 126/126/126 127/127/127
f 126/126/126 128/128/128 127/127/127
f 126/126/126 125/125/125 129/129/129
f 130/130/130 126/126/126 129/129/129
f 128/128/128 126/126/126 130/130/130
f 130/130/130 129/129/129 131/131/131
f 129/129/129 132/132/132 131/131/131
f 130/130/130 131/131/131 133/133/133
f 133/133/133 131/131/131 134/134/134
f 131/131/131 135/135/135 134/134/134
f 134/134/134 136/136/136 133/133/133
f 136/136/136 137/137/137 133/133/133
f 138/138/138 130/130/130 133/133/133
f 138/138/138 128/128/128 130/130/130
f 138/138/138 133/133/133 137/137/137
f 139/139/139 128/128/128 138/138/138
f 140/140/140 139/139/139 138/138/138
f 140/140/140 138/138/138 137/137/137
f 128/128/128 139/139/139 141/141/141
f 127/127/127 128/128/128 141/141/141
f 141/141/141 142/142/142 127/127/127
f 142/142/142 143/143/143 127/127/127
f 143/143/143 142/142/142 144/144/144
f 145/145/145 143/143/143 144/144/144
f 143/143/143 145/145/145 121/121/121
f 143/143/143 121/121/121 124/124/124
f 127/127/127 143/143/143 124/124/124
f 144/144/144 146/146/146 145/145/145
f 146/146/146 147/147/147 145/145/145
f 145/145/145 147/147/147 148/148/148
f 145/145/145 148/148/148 149/149/149
f 121/121/121 145/145/145 149/149/149
f 121/121/121 149/149/149 150/150/150
f 121/121/121 150/150/150 120/120/120
f 131/131/131 132/132/132 151/151/151
f 135/135/135 131/131/131 151/151/151
f 154/154/154 153/153/153 152/152/152
f 155/155/155 153/153/153 154/154/154
f 156/156/156 155/155/155 154/154/154
f 156/156/156 154/154/154 157/157/157
f 158/158/158 156/156/156 157/157/157
f 158/158/158 157/157/157 159/159/159
f 160/160/160 158/158/158 159/159/159
f 159/159/159 157/157/157 161/161/161
f 159/159/159 161/161/161 162/162/162
f 157/157/157 163/163/163 161/161/161
f 157/157/157 154/154/154 163/163/163
f 154/154/154 164/164/164 163/163/163
f 154/154/154 152/152/152 164/164/164
f 167/167/167 166/166/166 165/165/165
f 168/168/168 167/167/167 165/165/165
f 166/166/166 167/167/167 169/169/169
f 170/170/170 166/166/166 169/169/169
f 168/168/168 165/165/165 171/171/171
f 172/172/172 168/168/168 171/171/171
f 171/171/171 165/165/165 173/173/173
f 165/165/165 174/174/174 173/173/173
f 165/165/165 166/166/166 174/174/174
f 166/166/166 170/170/170 175/175/175
f 176/176/176 166/166/166 175/175/175
f 166/166/166 176/176/176 174/174/174
f 174/174/174 176/176/176 177/177/177
f 176/176/176 178/178/178 177/177/177
f 176/176/176 179/179/179 178/178/178
f 176/176/176 175/175/175 180/180/180
f 179/179/179 176/176/176 180/180/180
f 181/181/181 179/179/179 180/180/180
f 174/174/174 177/177/177 182/182/182
f 174/174/174 182/182/182 173/173/173
f 183/183/183 181/181/181 180/180/180
f 172/172/172 171/171/171 184/184/184
f 171/171/171 185/185/185 184/184/184
f 185/185/185 171/171/171 173/173/173
f 186/186/186 185/185/185 173/173/173
f 182/182/182 186/186/186 173/173/173
f 189/189/189 188/188/188 187/187/187
f 190/190/190 189/189/189 187/187/187
f 187/187/187 188/188/188 191/191/191
f 192/192/192 187/187/187 191/191/191
f 187/187/187 192/192/192 193/193/193
f 194/194/194 187/187/187 193/193/193
f 197/197/197 196/196/196 195/195/195
f 198/198/198 197/197/197 195/195/195
f 201/201/201 200/200/200 199/199/199
f 202/202/202 201/201/201 199/199/199
f 202/202/202 199/199/199 203/203/203
f 199/199/199 204/204/204 203/203/203
f 204/204/204 199/199/199 205/205/205
f 199/199/199 206/206/206 205/205/205
f 209/209/209 208/208/208 207/207/207
f 210/210/210 209/209/209 207/207/207
