g model_car_55_body_roof_LOD1
v 0.3562909 1.142629 0.02074564
v 0.5094975 1.131143 -0.04455197
v 0.5204507 1.120314 0.09896612
v 0.3697458 1.130011 0.1526018
v 0.3553778 1.142699 0.02094442
v 0.3688328 1.130074 0.1527859
v 0.003491342 1.125188 0.1531191
v 0.00349319 1.134162 0.009945214
v -8.34465E-07 1.125179 0.1533823
v -8.34465E-07 1.13414 0.01023424
v -8.34465E-07 1.113033 0.296293
v 0.003489494 1.113011 0.2960536
v -8.34465E-07 1.098658 0.4389992
v 0.003485799 1.098591 0.4387801
v 0.3436146 1.148948 -0.1116352
v 0.3427034 1.149022 -0.1114199
v 0.5167063 1.130078 -0.04571539
v 0.5273963 1.119332 0.09875256
v 0.003485799 1.094847 0.447539
v -8.34465E-07 1.094915 0.4477581
v 0.3831971 1.110656 0.2836867
v 0.3981799 1.086281 0.4136909
v 0.3990985 1.086232 0.4135399
v 0.3841138 1.110599 0.2835191
v 0.5706844 1.076449 0.3796992
v 0.5417717 1.101375 0.2404887
v 0.5491849 1.100305 0.2411219
v 0.5793236 1.075111 0.3809786
v 0.5757303 1.071122 0.3915765
v 0.5701303 1.072567 0.3882095
v 0.3991593 1.082368 0.4221792
v 0.003485799 1.090265 0.4478704
v 0.3982389 1.082417 0.4223301
v 0.398318 1.077834 0.422656
v 0.3992421 1.077784 0.4225014
v 0.3993876 1.072155 0.4212771
v 0.5697677 1.067979 0.3885741
v 0.5694621 1.062352 0.3874308
v 0.3984579 1.072204 0.4214318
v 0.003485799 1.084641 0.4466591
v -8.34465E-07 1.084709 0.4468781
v -8.34465E-07 1.090333 0.4480894
v 0.5747399 1.066584 0.3919539
v 0.5740348 1.060995 0.3907647
v 0.3055252 1.130022 -0.508126
v 0.003430545 1.132692 -0.5635566
v 0.003397465 1.123507 -0.7067139
v 0.293206 1.111326 -0.6393343
v -8.34465E-07 1.132732 -0.5631626
v -8.34465E-07 1.123564 -0.706296
v -8.34465E-07 1.123487 -0.7074852
v 0.003397465 1.123403 -0.7083762
v 0.00346005 1.139387 -0.4202612
v 0.3178884 1.143842 -0.3763159
v 0.3064124 1.129973 -0.5083874
v 0.3187868 1.14377 -0.3765607
v 0.2930514 1.111091 -0.6409763
v 0.3311887 1.150007 -0.2441744
v 0.5084943 1.135103 -0.3331714
v 0.5144476 1.130451 -0.4773117
v 0.506716 1.135322 -0.1888525
v 0.5166843 1.134083 -0.3361683
v 0.5144403 1.134192 -0.1909419
v 0.3302812 1.150084 -0.2439443
v 0.5232562 1.129573 -0.4812033
v 0.5331804 1.121742 -0.6259069
v 0.5235047 1.122469 -0.6211464
v 0.5343199 1.112613 -0.7647419
v 0.5444391 1.1117 -0.7703768
v 0.5444815 1.111411 -0.7731344
v 0.5344414 1.112501 -0.7663987
v 0.2940786 1.11131 -0.6396141
v 0.2939258 1.111074 -0.6412562
v 0.003489494 1.139805 -0.1333998
v 0.003480256 1.141937 -0.2768351
v -8.34465E-07 1.141924 -0.2764927
v -8.34465E-07 1.139783 -0.1330851
v -8.34465E-07 1.139396 -0.419893
v 0.2930514 1.111091 -0.6409763
v 0.2979831 1.107667 -0.6480508
v 0.2988575 1.10765 -0.6483306
v 0.2939258 1.111074 -0.6412562
v 0.5344414 1.112501 -0.7663987
v 0.5393712 1.109079 -0.7734731
v 0.5494131 1.107989 -0.7802089
v 0.5444815 1.111411 -0.7731344
v 0.008329153 1.119978 -0.7154506
v 0.003397465 1.123403 -0.7083762
v -8.34465E-07 1.123487 -0.7074852
v -8.34465E-07 1.120063 -0.7145597
v -0.008328915 1.119978 -0.7154506
v -0.003397226 1.123403 -0.7083762
v -0.2930512 1.111091 -0.6409763
v -0.2979829 1.107667 -0.6480508
v -0.2988573 1.10765 -0.6483306
v -0.2939256 1.111074 -0.6412562
v -0.5344412 1.112501 -0.7663987
v -0.5393729 1.109079 -0.7734731
v -0.5494129 1.107989 -0.7802089
v -0.5444831 1.111411 -0.7731344
v -0.3562906 1.142629 0.02074564
v -0.3697456 1.130011 0.1526018
v -0.5204523 1.120314 0.09896612
v -0.5094973 1.131143 -0.04455197
v -0.3553776 1.142699 0.02094442
v -0.3688325 1.130074 0.1527859
v -0.003492951 1.125188 0.1531191
v -0.003492951 1.134162 0.009945214
v -8.34465E-07 1.125179 0.1533823
v -8.34465E-07 1.13414 0.01023424
v -8.34465E-07 1.113033 0.296293
v -0.003489256 1.113011 0.2960536
v -8.34465E-07 1.098658 0.4389992
v -0.00348556 1.098591 0.4387801
v -0.3436144 1.148948 -0.1116352
v -0.3427032 1.149022 -0.1114199
v -0.5167062 1.130078 -0.04571539
v -0.5273979 1.119332 0.09875256
v -0.00348556 1.094847 0.447539
v -8.34465E-07 1.094915 0.4477581
v -0.3831987 1.110656 0.2836867
v -0.3981797 1.086281 0.4136909
v -0.3991001 1.086232 0.4135399
v -0.3841136 1.110599 0.2835191
v -0.5706843 1.076449 0.3796992
v -0.5417715 1.101375 0.2404887
v -0.5491846 1.100305 0.2411219
v -0.5793235 1.075111 0.3809786
v -0.57573 1.071122 0.3915765
v -0.5701302 1.072567 0.3882095
v -0.399159 1.082368 0.4221792
v -0.00348556 1.090265 0.4478704
v -8.34465E-07 1.090333 0.4480894
v -8.34465E-07 1.084709 0.4468781
v -0.00348556 1.084641 0.4466591
v -0.3983178 1.077834 0.422656
v -0.3992419 1.077784 0.4225014
v -0.3982386 1.082417 0.4223301
v -0.3993873 1.072155 0.4212771
v -0.5697693 1.067979 0.3885741
v -0.5694619 1.062352 0.3874308
v -0.3984577 1.072204 0.4214318
v -0.5740346 1.060995 0.3907647
v -0.5747415 1.066584 0.3919539
v -0.3055249 1.130022 -0.508126
v -0.2932058 1.111326 -0.6393343
v -0.003397226 1.123507 -0.7067139
v -0.003430367 1.132692 -0.5635566
v -8.34465E-07 1.132732 -0.5631626
v -8.34465E-07 1.123564 -0.706296
v -8.34465E-07 1.123487 -0.7074852
v -0.003397226 1.123403 -0.7083762
v -0.003459811 1.139387 -0.4202612
v -0.3178882 1.143842 -0.3763159
v -0.3064123 1.129973 -0.5083874
v -0.3187866 1.14377 -0.3765607
v -0.2930512 1.111091 -0.6409763
v -0.3311885 1.150007 -0.2441744
v -0.5084941 1.135103 -0.3331714
v -0.5144493 1.130451 -0.4773117
v -0.5067157 1.135322 -0.1888525
v -0.5166841 1.134083 -0.3361683
v -0.51444 1.134192 -0.1909419
v -0.3302829 1.150084 -0.2439443
v -0.523256 1.129573 -0.4812033
v -0.5331802 1.121742 -0.6259069
v -0.5235046 1.122469 -0.6211464
v -0.5343196 1.112613 -0.7647419
v -0.5444389 1.1117 -0.7703768
v -0.5444831 1.111411 -0.7731344
v -0.5344412 1.112501 -0.7663987
v -0.2940802 1.11131 -0.6396141
v -0.2939256 1.111074 -0.6412562
v -0.003489256 1.139805 -0.1333998
v -0.003480077 1.141937 -0.2768351
v -8.34465E-07 1.141924 -0.2764927
v -8.34465E-07 1.139783 -0.1330851
v -8.34465E-07 1.139396 -0.419893
vt 0.8685405 0.3991323
vt 0.9111363 0.4030073
vt 0.9083441 0.35222
vt 0.8688397 0.3490574
vt 0.8683126 0.3991323
vt 0.8686118 0.3490431
vt 0.7794741 0.3560095
vt 0.7838334 0.407452
vt 0.7785908 0.3560807
vt 0.7829643 0.4075518
vt 0.7742742 0.3067892
vt 0.7751575 0.3067465
vt 0.7702996 0.2619568
vt 0.7711686 0.2619283
vt 0.8684123 0.4254164
vt 0.8681701 0.4254021
vt 0.9131308 0.4031497
vt 0.9101533 0.3523625
vt 0.7709834 0.2595635
vt 0.7701144 0.259592
vt 0.8691674 0.3011621
vt 0.8694096 0.2588654
vt 0.8696375 0.2588654
vt 0.8693953 0.3011763
vt 0.9148403 0.2593783
vt 0.9100251 0.3045241
vt 0.9118629 0.3045241
vt 0.9172764 0.2587515
vt 0.9161794 0.2552755
vt 0.9143132 0.2565148
vt 0.8694096 0.2565718
vt 0.7709834 0.2584238
vt 0.8691816 0.2565718
vt 0.8692529 0.2554464
vt 0.8694808 0.2554606
vt 0.869666 0.254036
vt 0.9138288 0.2551757
vt 0.913202 0.2537369
vt 0.8694096 0.254036
vt 0.7709976 0.256985
vt 0.7701287 0.2569992
vt 0.7701002 0.2584381
vt 0.9153389 0.2541073
vt 0.9142562 0.2529248
vt 0.8675006 0.5037698
vt 0.7930648 0.5226031
vt 0.7951305 0.5495709
vt 0.8671587 0.5273043
vt 0.7922243 0.5228168
vt 0.7942758 0.5495424
vt 0.79429 0.5498416
vt 0.7951732 0.5499983
vt 0.7908995 0.494638
vt 0.8677855 0.479238
vt 0.8677285 0.5038125
vt 0.8680134 0.4792665
vt 0.8671444 0.5277174
vt 0.8682414 0.4525836
vt 0.9176325 0.4623279
vt 0.9220773 0.4943103
vt 0.9139001 0.4313569
vt 0.9198122 0.4625416
vt 0.9159657 0.4315279
vt 0.8679992 0.4525694
vt 0.9244279 0.4946238
vt 0.9290294 0.525381
vt 0.9265221 0.5249537
vt 0.9308244 0.5545713
vt 0.9335454 0.5558249
vt 0.9336166 0.5565372
vt 0.9308814 0.5549844
vt 0.8673866 0.527347
vt 0.8673724 0.5277744
vt 0.7861412 0.4352604
vt 0.7885488 0.4648495
vt 0.7876798 0.4649777
vt 0.7852722 0.4353743
vt 0.7900447 0.4948232
vt 0 0
vt 0 0
vt 0 0
vt 0 0
vt 0 0
vt 0 0
vt 0 0
vt 0 0
vt 0 0
vt 0 0
vt 0 0
vt 0 0
vt 0 0
vt 0 0
vt 0 0
vt 0 0
vt 0 0
vt 0 0
vt 0 0
vt 0 0
vt 0 0
vt 0 0
vt 0.8685405 0.3991323
vt 0.8688397 0.3490574
vt 0.9083441 0.35222
vt 0.9111363 0.4030073
vt 0.8683126 0.3991323
vt 0.8686118 0.3490431
vt 0.7794741 0.3560095
vt 0.7838334 0.407452
vt 0.7785908 0.3560807
vt 0.7829643 0.4075518
vt 0.7742742 0.3067892
vt 0.7751575 0.3067465
vt 0.7702996 0.2619568
vt 0.7711686 0.2619283
vt 0.8684123 0.4254164
vt 0.8681701 0.4254021
vt 0.9131308 0.4031497
vt 0.9101533 0.3523625
vt 0.7709834 0.2595635
vt 0.7701144 0.259592
vt 0.8691674 0.3011621
vt 0.8694096 0.2588654
vt 0.8696375 0.2588654
vt 0.8693953 0.3011763
vt 0.9148403 0.2593783
vt 0.9100251 0.3045241
vt 0.9118629 0.3045241
vt 0.9172764 0.2587515
vt 0.9161794 0.2552755
vt 0.9143132 0.2565148
vt 0.8694096 0.2565718
vt 0.7709834 0.2584238
vt 0.7701002 0.2584381
vt 0.7701287 0.2569992
vt 0.7709976 0.256985
vt 0.8692529 0.2554464
vt 0.8694808 0.2554606
vt 0.8691816 0.2565718
vt 0.869666 0.254036
vt 0.9138288 0.2551757
vt 0.913202 0.2537369
vt 0.8694096 0.254036
vt 0.9142562 0.2529248
vt 0.9153389 0.2541073
vt 0.8675006 0.5037698
vt 0.8671587 0.5273043
vt 0.7951305 0.5495709
vt 0.7930648 0.5226031
vt 0.7922243 0.5228168
vt 0.7942758 0.5495424
vt 0.79429 0.5498416
vt 0.7951732 0.5499983
vt 0.7908995 0.494638
vt 0.8677855 0.479238
vt 0.8677285 0.5038125
vt 0.8680134 0.4792665
vt 0.8671444 0.5277174
vt 0.8682414 0.4525836
vt 0.9176325 0.4623279
vt 0.9220773 0.4943103
vt 0.9139001 0.4313569
vt 0.9198122 0.4625416
vt 0.9159657 0.4315279
vt 0.8679992 0.4525694
vt 0.9244279 0.4946238
vt 0.9290294 0.525381
vt 0.9265221 0.5249537
vt 0.9308244 0.5545713
vt 0.9335454 0.5558249
vt 0.9336166 0.5565372
vt 0.9308814 0.5549844
vt 0.8673866 0.527347
vt 0.8673724 0.5277744
vt 0.7861412 0.4352604
vt 0.7885488 0.4648495
vt 0.7876798 0.4649777
vt 0.7852722 0.4353743
vt 0.7900447 0.4948232
vn 0.09319752 0.9937708 0.06110445
vn 0.1227855 0.9906563 0.05936233
vn 0.1212282 0.989099 0.08358706
vn 0.09475479 0.989099 0.1127147
vn 0.03246433 0.9968853 0.0718732
vn 0.04025066 0.9937708 0.1039202
vn -0.003352702 0.9968853 0.07879353
vn -0.01269627 0.9984426 0.0543239
vn -0.0002381802 0.9968853 0.0788646
vn -0.0002381802 0.9984426 0.05578707
vn -0.0002381802 0.9953281 0.09655044
vn 0.01221991 0.9937708 0.110771
vn -0.0002381802 0.9672974 0.2536446
vn 0.03557885 0.9641829 0.2628413
vn 0.08696848 0.9953281 0.04193466
vn 0.02933718 0.9995696 0
vn 0.1492589 0.9875418 0.04982921
vn 0.1430299 0.9859846 0.08588859
vn 0.06672406 0.5795393 0.8122082
vn -0.0002381802 0.5748676 0.8182464
vn 0.05115145 0.989099 0.138082
vn 0.0729531 0.9548393 0.2880272
vn 0.1087701 0.9501675 0.2921485
vn 0.09319752 0.9844272 0.1490546
vn 0.1056556 0.9579538 0.2667609
vn 0.1149992 0.9844272 0.1329594
vn 0.132129 0.98287 0.1284855
vn 0.08852571 0.9548393 0.2836283
vn -0.3039041 0.571753 0.7620635
vn -0.008024454 0.6714177 0.7410357
vn 0.1772896 0.5639668 0.8065419
vn 0.06205231 -0.06983858 0.9956265
vn 0.1149992 0.5670812 0.8155943
vn 0.1103274 -0.06828135 0.991547
vn 0.1741751 -0.06828135 0.9823445
vn 0.1648315 -0.2053203 0.9647145
vn -0.1980103 -0.02312076 0.9799272
vn -0.2400564 -0.1710606 0.9555686
vn 0.1056556 -0.2084348 0.9723126
vn 0.05582327 -0.2099921 0.9761081
vn -0.0002381802 -0.2099921 0.977703
vn -0.0002381802 -0.06828135 0.9976661
vn -0.5561805 0.01113898 0.8309869
vn -0.5935547 -0.1118847 0.7969784
vn 0.02156347 0.9937708 -0.1093368
vn 0.01689172 0.9968853 -0.07703478
vn 0.03246433 0.9953281 -0.0909292
vn 0.02000624 0.9922136 -0.1229306
vn -0.0002381802 0.9984426 -0.05578707
vn -0.0002381802 0.9984426 -0.05578707
vn -0.0002381802 0.9735265 -0.2285742
vn 0.01844895 0.959511 -0.2810662
vn -0.001795411 0.9984426 -0.05575875
vn 0.02467805 0.9984426 -0.05003275
vn 0.00131911 0.9937708 -0.1114352
vn 0.04492241 0.9968853 -0.06482014
vn 0.03402162 0.9688547 -0.2452819
vn 0.0729531 0.9968853 -0.02995875
vn 0.09319752 0.9953281 -0.02522458
vn 0.05582327 0.9968853 -0.05570848
vn 0.1149529 0.993371 0
vn 0.1134164 0.9935476 0
vn 0.1413727 0.9899564 0
vn 0.02622626 0.999656 0
vn 0.07606763 0.9968853 -0.02081791
vn 0.05270875 0.9968853 -0.0586639
vn 0.01689172 0.9968853 -0.07703478
vn -0.003352702 0.9953281 -0.09649239
vn 0.0464797 0.9953281 -0.08462669
vn -0.2229265 0.8536173 -0.470788
vn -0.148178 0.9268086 -0.3450639
vn -0.03294063 0.9922136 -0.1201127
vn -0.112361 0.9392667 -0.3242733
vn -0.01580882 0.9998751 0
vn -0.01269524 0.9999194 0
vn -0.0002381802 0.9999999 -0.000422864
vn -0.0002381802 0.9999999 -0.000422864
vn -0.0002381802 0.9999999 -0.000422864
vn 0.03402162 0.9688547 -0.2452819
vn -0.0578568 0.8816481 -0.4683474
vn -0.2712016 0.7788688 -0.5655202
vn -0.112361 0.9392667 -0.3242733
vn -0.148178 0.9268086 -0.3450639
vn -0.3070186 0.7555099 -0.5787438
vn -0.3070186 0.7555099 -0.5787438
vn -0.2229265 0.8536173 -0.470788
vn 0.06672406 0.917465 -0.392181
vn 0.01844895 0.959511 -0.2810662
vn -0.0002381802 0.9735265 -0.2285742
vn -0.0002381802 0.8925488 -0.4509507
vn -0.06720036 0.917465 -0.3920996
vn -0.01892531 0.959511 -0.2810345
vn -0.03449792 0.9688547 -0.2452153
vn 0.05893779 0.8816481 -0.4682126
vn 0.2707253 0.7788688 -0.5657484
vn 0.1134419 0.9392667 -0.3238967
vn 0.1477017 0.9268086 -0.3452681
vn 0.3065423 0.7555099 -0.5789963
vn 0.3065423 0.7555099 -0.5789963
vn 0.2240075 0.8536173 -0.4702745
vn -0.09211659 0.9937708 0.06272181
vn -0.09523112 0.989099 0.1123126
vn -0.1201473 0.989099 0.08513369
vn -0.1217045 0.9906563 0.06154814
vn -0.03294063 0.9968853 0.071656
vn -0.03916967 0.9937708 0.1043324
vn 0.002876341 0.9968853 0.07881244
vn 0.01221991 0.9984426 0.05443296
vn -0.0002381802 0.9968853 0.0788646
vn -0.0002381802 0.9984426 0.05578707
vn -0.0002381802 0.9953281 0.09655044
vn -0.01269627 0.9937708 0.1107174
vn -0.0002381802 0.9672974 0.2536446
vn -0.03605515 0.9641829 0.2627764
vn -0.08744478 0.9953281 0.04093271
vn -0.02825759 0.9996007 0
vn -0.1497352 0.9875418 0.04837928
vn -0.1419489 0.9859846 0.08766349
vn -0.06564313 0.5795393 0.8122963
vn -0.0002381802 0.5748676 0.8182464
vn -0.05007052 0.989099 0.1384777
vn -0.07187217 0.9548393 0.2882988
vn -0.1092464 0.9501675 0.2919708
vn -0.09367383 0.9844272 0.1487558
vn -0.1045747 0.9579538 0.2671866
vn -0.1154755 0.9844272 0.1325461
vn -0.1326054 0.98287 0.1279937
vn -0.08744478 0.9548393 0.2839635
vn 0.304985 0.571753 0.7616315
vn 0.007548153 0.6714177 0.7410407
vn -0.177766 0.5639668 0.8064371
vn -0.06097132 -0.06983858 0.9956933
vn -0.0002381802 -0.06828135 0.9976661
vn -0.0002381802 -0.2099921 0.977703
vn -0.05629957 -0.2099921 0.9760808
vn -0.1108037 -0.06828135 0.9914939
vn -0.1746514 -0.06828135 0.9822599
vn -0.1154755 0.5670812 0.815527
vn -0.1653078 -0.2053203 0.964633
vn 0.197534 -0.02312076 0.9800233
vn 0.2411373 -0.1710606 0.9552963
vn -0.1045747 -0.2084348 0.9724295
vn 0.5930784 -0.1118847 0.7973329
vn 0.5557041 0.01113898 0.8313055
vn -0.02203983 0.9937708 -0.1092417
vn -0.02048254 0.9922136 -0.122852
vn -0.03294063 0.9953281 -0.09075762
vn -0.01736802 0.9968853 -0.0769287
vn -0.0002381802 0.9984426 -0.05578707
vn -0.0002381802 0.9984426 -0.05578707
vn -0.0002381802 0.9735265 -0.2285742
vn -0.01892531 0.959511 -0.2810345
vn 0.00131911 0.9984426 -0.05577211
vn -0.02515435 0.9984426 -0.04979451
vn -0.001795411 0.9937708 -0.1114285
vn -0.04384148 0.9968853 -0.06555619
vn -0.03449792 0.9688547 -0.2452153
vn -0.07342941 0.9968853 -0.02877133
vn -0.09211659 0.9953281 -0.02892319
vn -0.05629957 0.9968853 -0.05522707
vn -0.1154227 0.9933165 0
vn -0.1123494 0.9936687 0
vn -0.1403138 0.9901071 0
vn -0.02670206 0.9996434 0
vn -0.07654399 0.9968853 -0.01899282
vn -0.05318505 0.9968853 -0.05823253
vn -0.01736802 0.9968853 -0.0769287
vn 0.002876341 0.9953281 -0.09650783
vn -0.04539871 0.9953281 -0.08521137
vn 0.2240075 0.8536173 -0.4702745
vn 0.1477017 0.9268086 -0.3452681
vn 0.03246433 0.9922136 -0.1202424
vn 0.1134419 0.9392667 -0.3238967
vn 0.01533263 0.9998825 0
vn 0.012219 0.9999254 0
vn -0.0002381802 0.9999999 -0.000422864
vn -0.0002381802 0.9999999 -0.000422864
vn -0.0002381802 0.9999999 -0.000422864
g model_car_55_body_roof_LOD1_0
f 3/3/3 2/2/2 1/1/1
f 4/4/4 3/3/3 1/1/1
f 4/4/4 1/1/1 5/5/5
f 6/6/6 4/4/4 5/5/5
f 7/7/7 6/6/6 5/5/5
f 8/8/8 7/7/7 5/5/5
f 9/9/9 7/7/7 8/8/8
f 10/10/10 9/9/9 8/8/8
f 9/9/9 11/11/11 7/7/7
f 11/11/11 12/12/12 7/7/7
f 7/7/7 12/12/12 6/6/6
f 12/12/12 11/11/11 13/13/13
f 14/14/14 12/12/12 13/13/13
f 5/5/5 1/1/1 15/15/15
f 16/16/16 5/5/5 15/15/15
f 5/5/5 16/16/16 8/8/8
f 2/2/2 3/3/3 17/17/17
f 3/3/3 18/18/18 17/17/17
f 19/19/19 14/14/14 13/13/13
f 20/20/20 19/19/19 13/13/13
f 21/21/21 12/12/12 14/14/14
f 12/12/12 21/21/21 6/6/6
f 22/22/22 21/21/21 14/14/14
f 14/14/14 19/19/19 22/22/22
f 22/22/22 23/23/23 21/21/21
f 23/23/23 24/24/24 21/21/21
f 24/24/24 23/23/23 25/25/25
f 26/26/26 24/24/24 25/25/25
f 24/24/24 26/26/26 3/3/3
f 3/3/3 26/26/26 18/18/18
f 4/4/4 24/24/24 3/3/3
f 21/21/21 24/24/24 4/4/4
f 26/26/26 27/27/27 18/18/18
f 6/6/6 21/21/21 4/4/4
f 28/28/28 27/27/27 26/26/26
f 25/25/25 28/28/28 26/26/26
f 29/29/29 28/28/28 25/25/25
f 30/30/30 29/29/29 25/25/25
f 25/25/25 23/23/23 31/31/31
f 30/30/30 25/25/25 31/31/31
f 31/31/31 23/23/23 22/22/22
f 19/19/19 20/20/20 32/32/32
f 19/19/19 33/33/33 22/22/22
f 33/33/33 31/31/31 22/22/22
f 33/33/33 19/19/19 32/32/32
f 31/31/31 33/33/33 34/34/34
f 34/34/34 33/33/33 32/32/32
f 35/35/35 31/31/31 34/34/34
f 36/36/36 35/35/35 34/34/34
f 37/37/37 35/35/35 36/36/36
f 29/29/29 30/30/30 37/37/37
f 37/37/37 30/30/30 31/31/31
f 35/35/35 37/37/37 31/31/31
f 38/38/38 37/37/37 36/36/36
f 39/39/39 36/36/36 34/34/34
f 34/34/34 32/32/32 40/40/40
f 39/39/39 34/34/34 40/40/40
f 41/41/41 40/40/40 32/32/32
f 42/42/42 41/41/41 32/32/32
f 20/20/20 42/42/42 32/32/32
f 43/43/43 29/29/29 37/37/37
f 44/44/44 43/43/43 37/37/37
f 38/38/38 44/44/44 37/37/37
f 47/47/47 46/46/46 45/45/45
f 48/48/48 47/47/47 45/45/45
f 49/49/49 46/46/46 47/47/47
f 50/50/50 49/49/49 47/47/47
f 51/51/51 50/50/50 47/47/47
f 52/52/52 51/51/51 47/47/47
f 46/46/46 53/53/53 45/45/45
f 46/46/46 49/49/49 53/53/53
f 53/53/53 54/54/54 45/45/45
f 55/55/55 45/45/45 54/54/54
f 56/56/56 55/55/55 54/54/54
f 47/47/47 48/48/48 57/57/57
f 52/52/52 47/47/47 57/57/57
f 58/58/58 56/56/56 54/54/54
f 56/56/56 58/58/58 59/59/59
f 60/60/60 56/56/56 59/59/59
f 56/56/56 60/60/60 55/55/55
f 58/58/58 15/15/15 59/59/59
f 15/15/15 61/61/61 59/59/59
f 62/62/62 59/59/59 61/61/61
f 59/59/59 62/62/62 60/60/60
f 63/63/63 62/62/62 61/61/61
f 64/64/64 58/58/58 54/54/54
f 54/54/54 53/53/53 64/64/64
f 58/58/58 64/64/64 15/15/15
f 62/62/62 65/65/65 60/60/60
f 65/65/65 66/66/66 60/60/60
f 66/66/66 67/67/67 60/60/60
f 60/60/60 67/67/67 55/55/55
f 67/67/67 66/66/66 68/68/68
f 67/67/67 68/68/68 55/55/55
f 66/66/66 69/69/69 68/68/68
f 69/69/69 70/70/70 68/68/68
f 70/70/70 71/71/71 68/68/68
f 72/72/72 68/68/68 71/71/71
f 73/73/73 72/72/72 71/71/71
f 73/73/73 57/57/57 72/72/72
f 57/57/57 48/48/48 72/72/72
f 68/68/68 72/72/72 55/55/55
f 63/63/63 61/61/61 2/2/2
f 17/17/17 63/63/63 2/2/2
f 2/2/2 61/61/61 1/1/1
f 61/61/61 15/15/15 1/1/1
f 45/45/45 55/55/55 72/72/72
f 48/48/48 45/45/45 72/72/72
f 64/64/64 16/16/16 15/15/15
f 16/16/16 64/64/64 74/74/74
f 64/64/64 75/75/75 74/74/74
f 75/75/75 76/76/76 74/74/74
f 76/76/76 77/77/77 74/74/74
f 53/53/53 75/75/75 64/64/64
f 76/76/76 75/75/75 53/53/53
f 78/78/78 76/76/76 53/53/53
f 49/49/49 78/78/78 53/53/53
f 77/77/77 10/10/10 74/74/74
f 10/10/10 8/8/8 74/74/74
f 16/16/16 74/74/74 8/8/8
f 81/81/81 80/80/80 79/79/79
f 82/82/82 81/81/81 79/79/79
f 81/81/81 82/82/82 83/83/83
f 84/84/84 81/81/81 83/83/83
f 85/85/85 84/84/84 83/83/83
f 86/86/86 85/85/85 83/83/83
f 80/80/80 87/87/87 79/79/79
f 87/87/87 88/88/88 79/79/79
f 88/88/88 87/87/87 89/89/89
f 87/87/87 90/90/90 89/89/89
f 90/90/90 91/91/91 89/89/89
f 91/91/91 92/92/92 89/89/89
f 92/92/92 91/91/91 93/93/93
f 91/91/91 94/94/94 93/93/93
f 94/94/94 95/95/95 93/93/93
f 95/95/95 96/96/96 93/93/93
f 96/96/96 95/95/95 97/97/97
f 95/95/95 98/98/98 97/97/97
f 98/98/98 99/99/99 97/97/97
f 99/99/99 100/100/100 97/97/97
f 103/103/103 102/102/102 101/101/101
f 104/104/104 103/103/103 101/101/101
f 101/101/101 102/102/102 105/105/105
f 102/102/102 106/106/106 105/105/105
f 106/106/106 107/107/107 105/105/105
f 107/107/107 108/108/108 105/105/105
f 107/107/107 109/109/109 108/108/108
f 109/109/109 110/110/110 108/108/108
f 111/111/111 109/109/109 107/107/107
f 112/112/112 111/111/111 107/107/107
f 112/112/112 107/107/107 106/106/106
f 111/111/111 112/112/112 113/113/113
f 112/112/112 114/114/114 113/113/113
f 101/101/101 105/105/105 115/115/115
f 105/105/105 116/116/116 115/115/115
f 116/116/116 105/105/105 108/108/108
f 103/103/103 104/104/104 117/117/117
f 118/118/118 103/103/103 117/117/117
f 114/114/114 119/119/119 113/113/113
f 119/119/119 120/120/120 113/113/113
f 112/112/112 121/121/121 114/114/114
f 121/121/121 112/112/112 106/106/106
f 121/121/121 122/122/122 114/114/114
f 119/119/119 114/114/114 122/122/122
f 123/123/123 122/122/122 121/121/121
f 124/124/124 123/123/123 121/121/121
f 123/123/123 124/124/124 125/125/125
f 124/124/124 126/126/126 125/125/125
f 126/126/126 124/124/124 103/103/103
f 126/126/126 103/103/103 118/118/118
f 124/124/124 102/102/102 103/103/103
f 124/124/124 121/121/121 102/102/102
f 127/127/127 126/126/126 118/118/118
f 121/121/121 106/106/106 102/102/102
f 128/128/128 125/125/125 126/126/126
f 127/127/127 128/128/128 126/126/126
f 128/128/128 129/129/129 125/125/125
f 129/129/129 130/130/130 125/125/125
f 125/125/125 130/130/130 131/131/131
f 123/123/123 125/125/125 131/131/131
f 123/123/123 131/131/131 122/122/122
f 120/120/120 119/119/119 132/132/132
f 133/133/133 120/120/120 132/132/132
f 134/134/134 133/133/133 132/132/132
f 135/135/135 134/134/134 132/132/132
f 132/132/132 136/136/136 135/135/135
f 131/131/131 137/137/137 136/136/136
f 138/138/138 131/131/131 136/136/136
f 138/138/138 136/136/136 132/132/132
f 119/119/119 138/138/138 132/132/132
f 137/137/137 139/139/139 136/136/136
f 137/137/137 140/140/140 139/139/139
f 130/130/130 129/129/129 140/140/140
f 140/140/140 137/137/137 131/131/131
f 130/130/130 140/140/140 131/131/131
f 140/140/140 141/141/141 139/139/139
f 139/139/139 142/142/142 136/136/136
f 136/136/136 142/142/142 135/135/135
f 138/138/138 119/119/119 122/122/122
f 131/131/131 138/138/138 122/122/122
f 143/143/143 141/141/141 140/140/140
f 144/144/144 143/143/143 140/140/140
f 129/129/129 144/144/144 140/140/140
f 147/147/147 146/146/146 145/145/145
f 148/148/148 147/147/147 145/145/145
f 148/148/148 149/149/149 147/147/147
f 149/149/149 150/150/150 147/147/147
f 150/150/150 151/151/151 147/147/147
f 151/151/151 152/152/152 147/147/147
f 153/153/153 148/148/148 145/145/145
f 149/149/149 148/148/148 153/153/153
f 154/154/154 153/153/153 145/145/145
f 145/145/145 155/155/155 154/154/154
f 155/155/155 156/156/156 154/154/154
f 147/147/147 152/152/152 157/157/157
f 146/146/146 147/147/147 157/157/157
f 156/156/156 158/158/158 154/154/154
f 158/158/158 156/156/156 159/159/159
f 156/156/156 160/160/160 159/159/159
f 160/160/160 156/156/156 155/155/155
f 115/115/115 158/158/158 159/159/159
f 161/161/161 115/115/115 159/159/159
f 159/159/159 162/162/162 161/161/161
f 162/162/162 159/159/159 160/160/160
f 162/162/162 163/163/163 161/161/161
f 158/158/158 164/164/164 154/154/154
f 153/153/153 154/154/154 164/164/164
f 164/164/164 158/158/158 115/115/115
f 165/165/165 162/162/162 160/160/160
f 166/166/166 165/165/165 160/160/160
f 167/167/167 166/166/166 160/160/160
f 167/167/167 160/160/160 155/155/155
f 166/166/166 167/167/167 168/168/168
f 168/168/168 167/167/167 155/155/155
f 169/169/169 166/166/166 168/168/168
f 170/170/170 169/169/169 168/168/168
f 171/171/171 170/170/170 168/168/168
f 168/168/168 172/172/172 171/171/171
f 172/172/172 173/173/173 171/171/171
f 157/157/157 173/173/173 172/172/172
f 146/146/146 157/157/157 172/172/172
f 172/172/172 168/168/168 155/155/155
f 161/161/161 163/163/163 104/104/104
f 163/163/163 117/117/117 104/104/104
f 161/161/161 104/104/104 101/101/101
f 115/115/115 161/161/161 101/101/101
f 145/145/145 146/146/146 172/172/172
f 155/155/155 145/145/145 172/172/172
f 116/116/116 164/164/164 115/115/115
f 164/164/164 116/116/116 174/174/174
f 175/175/175 164/164/164 174/174/174
f 176/176/176 175/175/175 174/174/174
f 177/177/177 176/176/176 174/174/174
f 175/175/175 153/153/153 164/164/164
f 175/175/175 176/176/176 153/153/153
f 176/176/176 178/178/178 153/153/153
f 178/178/178 149/149/149 153/153/153
f 110/110/110 177/177/177 174/174/174
f 108/108/108 110/110/110 174/174/174
f 174/174/174 116/116/116 108/108/108
