g model_car_91_matte_mirror_LOD1
v 0.8720496 0.9703307 0.6585041
v 0.873567 1.027075 0.6579653
v 0.8349076 0.9745805 0.6674949
v 0.9191409 0.9708756 0.6488234
v 0.9279606 1.026786 0.6470157
v 0.8242544 1.001171 0.6709014
v 0.9749703 0.973455 0.6379037
v 0.9786791 1.02618 0.6371679
v 1.005305 0.9879482 0.6292332
v 1.006325 1.001077 0.6281176
v 0.8245467 1.041093 0.670285
v 0.9455084 1.077756 0.6434501
v 0.9810277 1.076368 0.6365275
v 1.004301 1.057851 0.6303409
v 0.8401596 1.071716 0.6674372
v 0.8786002 1.078925 0.6568973
v 1.006246 1.031128 0.6286366
v -0.8720496 0.9703307 0.6585041
v -0.8349075 0.9745805 0.6674949
v -0.8735669 1.027075 0.6579653
v -0.9191408 0.9708756 0.6488234
v -0.9279605 1.026786 0.6470157
v -0.8242543 1.001171 0.6709014
v -0.9749702 0.973455 0.6379037
v -0.9786791 1.02618 0.6371679
v -1.005305 0.9879482 0.6292332
v -1.006325 1.001077 0.6281176
v -0.8245467 1.041093 0.670285
v -0.9455084 1.077756 0.6434501
v -0.9810277 1.076368 0.6365275
v -1.004301 1.057851 0.6303409
v -0.8401595 1.071716 0.6674372
v -0.8786002 1.078925 0.6568973
v -1.006246 1.031128 0.6286366
vn -0.209143 -0.002248853 -0.9778825
vn -0.2110706 0.000321269 -0.9774708
vn -0.2476947 0.006104022 -0.9688189
vn -0.1956499 -0.001606315 -0.9806725
vn -0.1950074 -0.001606315 -0.9808004
vn -0.2560476 0.004176438 -0.9666551
vn -0.2040028 0.000321269 -0.9789702
vn -0.2072154 0.000321269 -0.9782953
vn -0.2868889 -0.0009637773 -0.9579633
vn -0.3286532 -0.0215247 -0.9442053
vn -0.2419119 0.007389069 -0.9702701
vn -0.1937223 -0.002248853 -0.9810538
vn -0.2007901 -0.002891362 -0.97963
vn -0.2682556 0.009316653 -0.9633027
vn -0.2515499 0.01702702 -0.9676945
vn -0.2110706 0.000321269 -0.9774708
vn -0.2997395 0.02794999 -0.9536116
vn 0.209143 -0.002248853 -0.9778824
vn 0.2476947 0.006104022 -0.9688189
vn 0.2110706 0.000321269 -0.9774708
vn 0.1956499 -0.001606315 -0.9806725
vn 0.1950074 -0.001606315 -0.9808004
vn 0.2560475 0.004176438 -0.9666551
vn 0.2040027 0.000321269 -0.9789703
vn 0.2072154 0.000321269 -0.9782953
vn 0.2868889 -0.0009637773 -0.9579633
vn 0.3286532 -0.0215247 -0.9442053
vn 0.2419119 0.007389069 -0.9702701
vn 0.1937223 -0.002248853 -0.9810538
vn 0.2007901 -0.002891362 -0.9796301
vn 0.2682556 0.009316653 -0.9633027
vn 0.2515498 0.01702702 -0.9676946
vn 0.2110706 0.000321269 -0.9774708
vn 0.2997395 0.02794999 -0.9536116
g model_car_91_matte_mirror_LOD1_0
f 3/3/3 2/2/2 1/1/1
f 1/1/1 2/2/2 4/4/4
f 2/2/2 5/5/5 4/4/4
f 6/6/6 2/2/2 3/3/3
f 4/4/4 5/5/5 7/7/7
f 5/5/5 8/8/8 7/7/7
f 7/7/7 8/8/8 9/9/9
f 9/9/9 8/8/8 10/10/10
f 6/6/6 11/11/11 2/2/2
f 5/5/5 12/12/12 8/8/8
f 12/12/12 13/13/13 8/8/8
f 13/13/13 14/14/14 8/8/8
f 11/11/11 15/15/15 2/2/2
f 15/15/15 16/16/16 2/2/2
f 16/16/16 12/12/12 5/5/5
f 2/2/2 16/16/16 5/5/5
f 10/10/10 8/8/8 17/17/17
f 17/17/17 8/8/8 14/14/14
f 20/20/20 19/19/19 18/18/18
f 20/20/20 18/18/18 21/21/21
f 22/22/22 20/20/20 21/21/21
f 20/20/20 23/23/23 19/19/19
f 22/22/22 21/21/21 24/24/24
f 25/25/25 22/22/22 24/24/24
f 25/25/25 24/24/24 26/26/26
f 25/25/25 26/26/26 27/27/27
f 28/28/28 23/23/23 20/20/20
f 29/29/29 22/22/22 25/25/25
f 30/30/30 29/29/29 25/25/25
f 31/31/31 30/30/30 25/25/25
f 32/32/32 28/28/28 20/20/20
f 33/33/33 32/32/32 20/20/20
f 33/33/33 20/20/20 22/22/22
f 29/29/29 33/33/33 22/22/22
f 25/25/25 27/27/27 34/34/34
f 25/25/25 34/34/34 31/31/31
