g model_car_105_body_roof_LOD1
v 0.1353964 1.260211 -0.7947847
v 1.788139E-07 1.261375 -0.7903814
v 1.788139E-07 1.248061 -0.8904842
v 0.1416401 1.247091 -0.8912274
v 1.788139E-07 1.269636 -0.7073361
v 0.1301602 1.268716 -0.7115896
v 0.2684899 1.258158 -0.7992693
v 0.2593313 1.266869 -0.7159554
v 0.1241496 1.275466 -0.6132565
v 0.2483553 1.273619 -0.6212304
v 0.1217533 1.276174 -0.4613628
v 0.2435563 1.274341 -0.4717018
v 1.788139E-07 1.276854 -0.4511508
v 1.788139E-07 1.276386 -0.6053741
v 0.2570807 1.273667 -0.6218925
v 0.2680485 1.266821 -0.7171797
v 0.250712 1.274335 -0.4723202
v 0.1420274 1.244657 -0.8941776
v 0.2763056 1.242906 -0.8951623
v 0.2781523 1.245323 -0.892233
v 1.788139E-07 1.267352 -0.3161981
v 0.1272767 1.266876 -0.3263351
v 0.2545615 1.264608 -0.3366075
v 0.1303039 1.253085 -0.228281
v 0.2603827 1.250518 -0.2397463
v 0.2884871 1.240811 -0.9062384
v 0.2902256 1.243347 -0.90323
v 0.2910271 1.244728 -0.8957703
v 0.2783959 1.257998 -0.8006476
v 1.788139E-07 1.25352 -0.21962
v 1.788139E-07 1.23803 -0.1489333
v 0.1329667 1.23809 -0.1575089
v 1.788139E-07 1.232017 -0.1249844
v 0.1341243 1.231505 -0.1302248
v 1.788139E-07 1.228961 -0.1240809
v 0.1341763 1.228453 -0.1292608
v 0.2653087 1.234828 -0.169018
v 0.2672927 1.228105 -0.1427769
v 0.2672262 1.225055 -0.1418067
v 1.788139E-07 1.245633 -0.8934323
v -0.1353961 1.260211 -0.7947847
v -0.1416399 1.247091 -0.8912274
v 1.788139E-07 1.248061 -0.8904842
v 1.788139E-07 1.261375 -0.7903814
v 1.788139E-07 1.269636 -0.7073361
v -0.1301599 1.268716 -0.7115896
v -0.2684895 1.258158 -0.7992693
v -0.259331 1.266869 -0.7159554
v -0.1241493 1.275466 -0.6132565
v -0.248355 1.273619 -0.6212304
v -0.1217529 1.276174 -0.4613628
v -0.243556 1.274341 -0.4717018
v 1.788139E-07 1.276854 -0.4511508
v 1.788139E-07 1.276386 -0.6053741
v -0.2570804 1.273667 -0.6218925
v -0.2680482 1.266821 -0.7171797
v -0.2507117 1.274335 -0.4723202
v -0.1420271 1.244657 -0.8941776
v -0.2763053 1.242906 -0.8951623
v -0.2781519 1.245323 -0.892233
v 1.788139E-07 1.267352 -0.3161981
v -0.1272764 1.266876 -0.3263351
v -0.2545612 1.264608 -0.3366075
v -0.1303036 1.253085 -0.228281
v -0.2603845 1.250518 -0.2397463
v -0.2884868 1.240811 -0.9062384
v -0.2902252 1.243347 -0.90323
v -0.2910268 1.244728 -0.8957703
v -0.2783956 1.257998 -0.8006476
v 1.788139E-07 1.25352 -0.21962
v 1.788139E-07 1.23803 -0.1489333
v -0.1329663 1.23809 -0.1575089
v 1.788139E-07 1.232017 -0.1249844
v -0.134124 1.231505 -0.1302248
v 1.788139E-07 1.228961 -0.1240809
v -0.134176 1.228453 -0.1292608
v -0.2653105 1.234828 -0.169018
v -0.2672924 1.228105 -0.1427769
v -0.2672258 1.225055 -0.1418067
v 1.788139E-07 1.245633 -0.8934323
vt 0.3772251 0.4828922
vt 0.3763578 0.5243132
vt 0.4073495 0.5239146
vt 0.4069455 0.4804788
vt 0.3507908 0.5245287
vt 0.351782 0.4848369
vt 0.3778231 0.4423546
vt 0.3525578 0.445743
vt 0.3219216 0.4868947
vt 0.3240872 0.4494816
vt 0.2760939 0.487455
vt 0.2794554 0.4510008
vt 0.2725815 0.5242647
vt 0.319562 0.5246257
vt 0.3242542 0.4468689
vt 0.3528648 0.4431088
vt 0.2796494 0.4488729
vt 0.4081144 0.4803387
vt 0.4078182 0.4390254
vt 0.4066438 0.4384651
vt 0.2314622 0.5234782
vt 0.2354217 0.4851601
vt 0.2392034 0.4472299
vt 0.2057659 0.4834201
vt 0.2101941 0.4447356
vt 0.4110881 0.4350713
vt 0.4099029 0.4344518
vt 0.4075488 0.4343817
vt 0.3781517 0.439354
vt 0.2018872 0.5225463
vt 0.1799889 0.5216897
vt 0.1841477 0.4818524
vt 0.1725386 0.5213503
vt 0.1757654 0.4811791
vt 0.1715851 0.5212803
vt 0.1748119 0.4810767
vt 0.1887105 0.4425216
vt 0.180673 0.4416165
vt 0.1797195 0.441498
vt 0.4085346 0.5239038
vt 0.3772251 0.4828922
vt 0.4069455 0.4804788
vt 0.4073495 0.5239146
vt 0.3763578 0.5243132
vt 0.3507908 0.5245287
vt 0.351782 0.4848369
vt 0.3778231 0.4423546
vt 0.3525578 0.445743
vt 0.3219216 0.4868947
vt 0.3240872 0.4494816
vt 0.2760939 0.487455
vt 0.2794554 0.4510008
vt 0.2725815 0.5242647
vt 0.319562 0.5246257
vt 0.3242542 0.4468689
vt 0.3528648 0.4431088
vt 0.2796494 0.4488729
vt 0.4081144 0.4803387
vt 0.4078182 0.4390254
vt 0.4066438 0.4384651
vt 0.2314622 0.5234782
vt 0.2354217 0.4851601
vt 0.2392034 0.4472299
vt 0.2057659 0.4834201
vt 0.2101941 0.4447356
vt 0.4110881 0.4350713
vt 0.4099029 0.4344518
vt 0.4075488 0.4343817
vt 0.3781517 0.439354
vt 0.2018872 0.5225463
vt 0.1799889 0.5216897
vt 0.1841477 0.4818524
vt 0.1725386 0.5213503
vt 0.1757654 0.4811791
vt 0.1715851 0.5212803
vt 0.1748119 0.4810767
vt 0.1887105 0.4425216
vt 0.180673 0.4416165
vt 0.1797195 0.441498
vt 0.4085346 0.5239038
vn 0.008297384 0.9927762 -0.1196939
vn 8.061528E-05 0.9927762 -0.1199811
vn 8.061528E-05 0.9914067 -0.1308159
vn 0.008297384 0.9914067 -0.1305525
vn 8.061528E-05 0.9968845 -0.07887556
vn 0.008297384 0.9968845 -0.07843794
vn 0.01103628 0.9927762 -0.1194726
vn 0.01103628 0.9968845 -0.07809982
vn 0.00966683 0.9996234 -0.02568239
vn 0.0137752 0.9996234 -0.02373318
vn 0.0137752 0.9996234 0.02373318
vn 0.01788357 0.9996234 0.02081361
vn 8.061528E-05 0.9996234 0.02744167
vn 8.061528E-05 0.9996234 -0.02744167
vn -0.02183071 0.9982539 -0.05488605
vn -0.00950557 0.9982539 -0.05829851
vn -0.002658278 0.9996234 0.02731212
vn 0.004188985 0.770924 -0.6369134
vn -0.02867797 0.7805102 -0.624485
vn 0.01103628 0.9914067 -0.1303496
vn 8.061528E-05 0.9955151 0.09460284
vn 0.01925305 0.9955151 0.09262297
vn 0.01925305 0.9941456 0.1063192
vn 0.02473086 0.9845594 0.173295
vn 0.02746978 0.9845594 0.1728819
vn -0.4011705 0.7818797 -0.4772069
vn -0.4134956 0.7996826 -0.4353494
vn -0.04374203 0.9777122 -0.2053426
vn -0.04511148 0.9900372 -0.1333842
vn 8.061528E-05 0.9845594 0.1750507
vn 8.061528E-05 0.9763427 0.2162289
vn 0.02883923 0.9749732 0.220444
vn 8.061528E-05 0.9708648 0.239628
vn 0.03020868 0.9708648 0.2377163
vn 8.061528E-05 0.2929833 0.9561176
vn 0.06855351 0.2957222 0.952811
vn 0.0329476 0.9736037 0.2258545
vn -0.3012001 0.8859584 0.3526417
vn 0.09183428 0.3012001 0.9491286
vn 8.061528E-05 0.7722934 -0.6352659
vn -0.008136123 0.9927762 -0.1197049
vn -0.008136123 0.9914067 -0.1305625
vn 8.061528E-05 0.9914067 -0.1308159
vn 8.061528E-05 0.9927762 -0.1199811
vn 8.061528E-05 0.9968845 -0.07887556
vn -0.008136123 0.9968845 -0.07845466
vn -0.01087505 0.9927762 -0.1194873
vn -0.01087505 0.9968845 -0.07812233
vn -0.00950557 0.9996234 -0.02574266
vn -0.01361394 0.9996234 -0.02382717
vn -0.01361394 0.9996234 0.02382717
vn -0.01772231 0.9996234 0.02095205
vn 8.061528E-05 0.9996234 0.02744167
vn 8.061528E-05 0.9996234 -0.02744167
vn 0.01103628 0.9982539 -0.05802848
vn 0.02610031 0.9968845 -0.07443207
vn 8.061528E-05 0.9996234 0.02744167
vn -0.004027754 0.770924 -0.6369145
vn 0.02746978 0.7805102 -0.6245393
vn -0.01087505 0.9914067 -0.1303631
vn 8.061528E-05 0.9955151 0.09460284
vn -0.01909178 0.9955151 0.09265643
vn -0.02046123 0.9941456 0.1060934
vn -0.0245696 0.9845594 0.1733178
vn -0.03278637 0.9859289 0.1639184
vn 0.4013317 0.7818797 -0.4770713
vn 0.3698342 0.7777714 -0.5082268
vn 0.01788357 0.9941456 -0.1065581
vn 0.03020868 0.9872984 -0.1559787
vn 8.061528E-05 0.9845594 0.1750507
vn 8.061528E-05 0.9763427 0.2162289
vn -0.02867797 0.9749732 0.2204651
vn 8.061528E-05 0.9708648 0.239628
vn -0.03004745 0.9708648 0.2377367
vn 8.061528E-05 0.2929833 0.9561176
vn -0.06839225 0.2957222 0.9528226
vn -0.03278637 0.9749732 0.2198916
vn -0.04100311 0.9763427 0.2123057
vn -0.09167305 0.3012001 0.9491441
vn 8.061528E-05 0.7722934 -0.6352659
g model_car_105_body_roof_LOD1_0
f 3/3/3 2/2/2 1/1/1
f 4/4/4 3/3/3 1/1/1
f 2/2/2 5/5/5 1/1/1
f 5/5/5 6/6/6 1/1/1
f 7/7/7 1/1/1 6/6/6
f 8/8/8 7/7/7 6/6/6
f 8/8/8 6/6/6 9/9/9
f 10/10/10 8/8/8 9/9/9
f 10/10/10 9/9/9 11/11/11
f 12/12/12 10/10/10 11/11/11
f 11/11/11 9/9/9 13/13/13
f 9/9/9 14/14/14 13/13/13
f 6/6/6 5/5/5 14/14/14
f 9/9/9 6/6/6 14/14/14
f 10/10/10 15/15/15 8/8/8
f 15/15/15 16/16/16 8/8/8
f 17/17/17 15/15/15 10/10/10
f 12/12/12 17/17/17 10/10/10
f 3/3/3 4/4/4 18/18/18
f 18/18/18 4/4/4 19/19/19
f 4/4/4 20/20/20 19/19/19
f 11/11/11 13/13/13 21/21/21
f 22/22/22 11/11/11 21/21/21
f 12/12/12 11/11/11 22/22/22
f 23/23/23 12/12/12 22/22/22
f 12/12/12 23/23/23 17/17/17
f 23/23/23 22/22/22 24/24/24
f 25/25/25 23/23/23 24/24/24
f 19/19/19 20/20/20 26/26/26
f 20/20/20 27/27/27 26/26/26
f 27/27/27 20/20/20 28/28/28
f 28/28/28 20/20/20 29/29/29
f 20/20/20 7/7/7 29/29/29
f 22/22/22 21/21/21 30/30/30
f 24/24/24 22/22/22 30/30/30
f 24/24/24 30/30/30 31/31/31
f 32/32/32 24/24/24 31/31/31
f 25/25/25 24/24/24 32/32/32
f 32/32/32 31/31/31 33/33/33
f 34/34/34 32/32/32 33/33/33
f 34/34/34 33/33/33 35/35/35
f 36/36/36 34/34/34 35/35/35
f 37/37/37 32/32/32 34/34/34
f 37/37/37 25/25/25 32/32/32
f 38/38/38 37/37/37 34/34/34
f 38/38/38 34/34/34 36/36/36
f 39/39/39 38/38/38 36/36/36
f 7/7/7 8/8/8 29/29/29
f 8/8/8 16/16/16 29/29/29
f 7/7/7 20/20/20 1/1/1
f 20/20/20 4/4/4 1/1/1
f 40/40/40 3/3/3 18/18/18
f 43/43/43 42/42/42 41/41/41
f 44/44/44 43/43/43 41/41/41
f 45/45/45 44/44/44 41/41/41
f 46/46/46 45/45/45 41/41/41
f 41/41/41 47/47/47 46/46/46
f 47/47/47 48/48/48 46/46/46
f 46/46/46 48/48/48 49/49/49
f 48/48/48 50/50/50 49/49/49
f 49/49/49 50/50/50 51/51/51
f 50/50/50 52/52/52 51/51/51
f 49/49/49 51/51/51 53/53/53
f 54/54/54 49/49/49 53/53/53
f 46/46/46 49/49/49 54/54/54
f 45/45/45 46/46/46 54/54/54
f 55/55/55 50/50/50 48/48/48
f 56/56/56 55/55/55 48/48/48
f 57/57/57 52/52/52 50/50/50
f 55/55/55 57/57/57 50/50/50
f 42/42/42 43/43/43 58/58/58
f 42/42/42 58/58/58 59/59/59
f 60/60/60 42/42/42 59/59/59
f 53/53/53 51/51/51 61/61/61
f 51/51/51 62/62/62 61/61/61
f 51/51/51 52/52/52 62/62/62
f 52/52/52 63/63/63 62/62/62
f 63/63/63 52/52/52 57/57/57
f 62/62/62 63/63/63 64/64/64
f 63/63/63 65/65/65 64/64/64
f 60/60/60 59/59/59 66/66/66
f 67/67/67 60/60/60 66/66/66
f 60/60/60 67/67/67 68/68/68
f 60/60/60 68/68/68 69/69/69
f 47/47/47 60/60/60 69/69/69
f 62/62/62 64/64/64 70/70/70
f 61/61/61 62/62/62 70/70/70
f 70/70/70 64/64/64 71/71/71
f 64/64/64 72/72/72 71/71/71
f 64/64/64 65/65/65 72/72/72
f 71/71/71 72/72/72 73/73/73
f 72/72/72 74/74/74 73/73/73
f 73/73/73 74/74/74 75/75/75
f 74/74/74 76/76/76 75/75/75
f 72/72/72 77/77/77 74/74/74
f 65/65/65 77/77/77 72/72/72
f 77/77/77 78/78/78 74/74/74
f 74/74/74 78/78/78 76/76/76
f 78/78/78 79/79/79 76/76/76
f 48/48/48 47/47/47 69/69/69
f 56/56/56 48/48/48 69/69/69
f 60/60/60 47/47/47 41/41/41
f 42/42/42 60/60/60 41/41/41
f 43/43/43 80/80/80 58/58/58
