g model_car_105_matte_mirror_LOD1
v 1.094023 0.9356234 0.02753532
v 1.072467 0.8864089 0.03686368
v 1.092144 0.8948462 0.0268811
v 1.09929 0.9109702 0.02393317
v 1.072819 0.9613357 0.03803575
v 1.05069 0.8816578 0.04716706
v 1.042211 0.9788728 0.05232918
v 1.022931 0.8781583 0.05887723
v 1.007453 0.9851985 0.06921625
v 0.9903083 0.87919 0.07270944
v 0.9687414 0.9858129 0.08707619
v 0.9468976 0.8849392 0.09117532
v 0.9388273 0.9821332 0.09973633
v 0.9218333 0.9018912 0.1025815
v 0.9194179 0.9699533 0.1070307
v 0.9082129 0.9201224 0.109159
v 0.907326 0.9569683 0.1113039
v 0.903338 0.9379382 0.1119916
v -1.094023 0.9356234 0.02753532
v -1.09929 0.9109702 0.02393317
v -1.092144 0.8948462 0.0268811
v -1.072467 0.8864089 0.03686368
v -1.072821 0.9613357 0.03803575
v -1.05069 0.8816578 0.04716706
v -1.042211 0.9788728 0.05232918
v -1.022933 0.8781583 0.05887723
v -1.007453 0.9851985 0.06921625
v -0.9903083 0.87919 0.07270944
v -0.9687414 0.9858129 0.08707619
v -0.9468975 0.8849392 0.09117532
v -0.9388273 0.9821332 0.09973633
v -0.9218333 0.9018912 0.1025815
v -0.9194179 0.9699533 0.1070307
v -0.9082129 0.9201224 0.109159
v -0.907326 0.9569683 0.1113039
v -0.903338 0.9379382 0.1119916
vn -0.4375713 0.02113622 -0.8989353
vn -0.4375713 0.02113622 -0.8989353
vn -0.460057 0.03552708 -0.8871784
vn -0.460057 0.03552708 -0.8871784
vn -0.4132867 0.01394081 -0.9104942
vn -0.4132867 0.01394081 -0.9104942
vn -0.4087896 0.02113622 -0.9123839
vn -0.4087896 0.02203566 -0.9123626
vn -0.4069907 0.03462765 -0.9127757
vn -0.4060913 0.03552708 -0.9131417
vn -0.397097 0.04452136 -0.9166961
vn -0.3961976 0.0454208 -0.9170411
vn -0.3872033 0.04811904 -0.9207378
vn -0.3872033 0.04811904 -0.9207378
vn -0.378209 0.04632017 -0.9245607
vn -0.378209 0.04632017 -0.9245607
vn -0.3746113 0.04452136 -0.9261124
vn -0.3746113 0.04452136 -0.9261124
vn 0.4375719 0.02113622 -0.898935
vn 0.4600576 0.03552708 -0.887178
vn 0.4600576 0.03552708 -0.887178
vn 0.4375719 0.02113622 -0.898935
vn 0.4132874 0.01394081 -0.9104939
vn 0.4132874 0.01394081 -0.9104939
vn 0.4087903 0.02113622 -0.9123836
vn 0.4087903 0.02203566 -0.9123623
vn 0.4069914 0.03462765 -0.9127754
vn 0.406092 0.03552708 -0.9131414
vn 0.3970977 0.04452136 -0.9166958
vn 0.3961983 0.0454208 -0.9170408
vn 0.387204 0.04811904 -0.9207376
vn 0.387204 0.04811904 -0.9207376
vn 0.3782097 0.04632017 -0.9245604
vn 0.3782097 0.04632017 -0.9245604
vn 0.374612 0.04452136 -0.9261122
vn 0.374612 0.04452136 -0.9261122
g model_car_105_matte_mirror_LOD1_0
f 3/3/3 2/2/2 1/1/1
f 4/4/4 3/3/3 1/1/1
f 1/1/1 2/2/2 5/5/5
f 2/2/2 6/6/6 5/5/5
f 5/5/5 6/6/6 7/7/7
f 6/6/6 8/8/8 7/7/7
f 7/7/7 8/8/8 9/9/9
f 8/8/8 10/10/10 9/9/9
f 9/9/9 10/10/10 11/11/11
f 10/10/10 12/12/12 11/11/11
f 11/11/11 12/12/12 13/13/13
f 12/12/12 14/14/14 13/13/13
f 13/13/13 14/14/14 15/15/15
f 14/14/14 16/16/16 15/15/15
f 15/15/15 16/16/16 17/17/17
f 16/16/16 18/18/18 17/17/17
f 21/21/21 20/20/20 19/19/19
f 22/22/22 21/21/21 19/19/19
f 22/22/22 19/19/19 23/23/23
f 24/24/24 22/22/22 23/23/23
f 24/24/24 23/23/23 25/25/25
f 26/26/26 24/24/24 25/25/25
f 26/26/26 25/25/25 27/27/27
f 28/28/28 26/26/26 27/27/27
f 28/28/28 27/27/27 29/29/29
f 30/30/30 28/28/28 29/29/29
f 30/30/30 29/29/29 31/31/31
f 32/32/32 30/30/30 31/31/31
f 32/32/32 31/31/31 33/33/33
f 34/34/34 32/32/32 33/33/33
f 34/34/34 33/33/33 35/35/35
f 36/36/36 34/34/34 35/35/35
