g Glass_40
v -0.4592 1.213 0.1266002
v -0.5251 1.096 0.3497002
v -0.5502 1.1991 0.1191002
v -0.2652 1.1109 0.3845002
v -0.2094 1.2316 0.1344002
v -0.3171 0.9932999 0.6277002
v 0 0.9922999 0.6570002
v 0 1.1166 0.3891002
v 0 1.2338 0.1361002
v 0 0.9224999 0.8022002
v -0.6306 1.0814 0.3210002
v -0.5874 0.9867999 0.5564002
v -0.3386 0.9219999 0.7698002
v -0.6945 0.9694999 0.5057002
v -0.626 0.9165999 0.6812002
v -0.7279 0.9108999 0.5983001
v 0 1.0149 -1.6822
v 0 1.088 -1.4316
v -0.3244 1.013 -1.6721
v -0.3027 1.0749 -1.4355
v -0.4249 1.0115 -1.6451
v 0 1.177 -1.1012
v -0.497 1.043 -1.4439
v -0.4746 1.1465 -1.0977
v -0.2746 1.1664 -1.0999
v -0.3993 1.2161 -0.8587998
v 0 1.2448 -0.8491998
v -0.474 1.1929 -0.9011998
v -0.5294 1.1567 -0.9977998
v -0.5415 1.1255 -1.1011
v -0.529 1.0287 -1.4473
v -0.5037 1.0056 -1.5652
v -0.2444 1.2341 -0.8523998
v -0.6247 1.1536 -0.5715998
v -0.6202 1.1615 -0.7042998
v -0.5841 1.2004 -0.5625998
v -0.6734 1.0839 -0.5850998
v -0.6681 1.0927 -0.8535998
v -0.7035 1.0354 -0.8880998
v -0.7252 0.9893001 -0.8603998
v -0.7166 1.0117 -0.5984998
v -0.7436 0.9561001 -0.7953998
v -0.759 0.9351001 -0.6125998
v -0.5622 1.2255 -0.0872998
v -0.579 1.2003 0.0221002
v -0.6215 1.1568 -0.2014998
v -0.6092 1.1584 0.1197002
v -0.5584 1.2402 -0.2768998
v -0.6206 1.1552 -0.5269998
v -0.578 1.2131 -0.5211998
v -0.6788 1.0598 0.2866002
v -0.6712 1.0842 -0.5357998
v -0.6791 1.072 -0.1276998
v -0.7444 0.9557999 0.4506001
v -0.7318 0.9825 -0.05209984
v -0.7166 1.01 -0.5442998
v -0.7701 0.9129999 0.5111001
v -0.7755 0.9142 0.01010015
v -0.7626 0.9288001 -0.5528998
v 0.4592 1.213 0.1266002
v 0.5502 1.1991 0.1190002
v 0.525 1.096 0.3497002
v 0.2652 1.1109 0.3845002
v 0.2094 1.2316 0.1344002
v 0.3171 0.9932999 0.6277002
v 0 0.9922999 0.6570002
v 0 1.1166 0.3891002
v 0 1.2338 0.1361002
v 0 0.9224999 0.8022002
v 0.6306 1.0814 0.3210002
v 0.5874 0.9867999 0.5564002
v 0.3386 0.9219999 0.7698002
v 0.6945 0.9694999 0.5057002
v 0.6259 0.9165999 0.6812002
v 0.7278 0.9108999 0.5983001
v 0 1.0149 -1.6822
v 0.3243 1.013 -1.6721
v 0 1.088 -1.4316
v 0.3027 1.0749 -1.4355
v 0.4249 1.0115 -1.6451
v 0 1.177 -1.1012
v 0.4969 1.043 -1.4439
v 0.4746 1.1465 -1.0977
v 0.2746 1.1664 -1.0999
v 0.3993 1.2161 -0.8587998
v 0 1.2448 -0.8491998
v 0.474 1.1929 -0.9011998
v 0.5294 1.1567 -0.9977998
v 0.5415 1.1255 -1.1011
v 0.529 1.0287 -1.4473
v 0.5037 1.0056 -1.5652
v 0.2444 1.2341 -0.8523998
v 0.6246 1.1536 -0.5715998
v 0.5841 1.2004 -0.5625998
v 0.6202 1.1615 -0.7042998
v 0.6734 1.0839 -0.5850998
v 0.6681 1.0927 -0.8535998
v 0.7035 1.0354 -0.8880998
v 0.7252 0.9893001 -0.8603998
v 0.7165 1.0117 -0.5984998
v 0.7436 0.9561001 -0.7953998
v 0.759 0.9351001 -0.6125998
v 0.5622 1.2255 -0.0872998
v 0.6215 1.1568 -0.2014998
v 0.579 1.2003 0.0221002
v 0.6092 1.1584 0.1197002
v 0.5584 1.2402 -0.2768998
v 0.6206 1.1552 -0.5269998
v 0.5779 1.2131 -0.5211998
v 0.6788 1.0598 0.2866002
v 0.6712 1.0842 -0.5357998
v 0.6791 1.072 -0.1276998
v 0.7443 0.9557999 0.4506001
v 0.7318 0.9825 -0.05209984
v 0.7165 1.01 -0.5442998
v 0.7701 0.9129999 0.5111001
v 0.7755 0.9142 0.01010015
v 0.7626 0.9288001 -0.5528998
vt 0.0652 0.3564
vt 0.0774 0.2218
vt 0.02 0.3404
vt 0.2091 0.2559
vt 0.1868 0.4012
vt 0.2319 0.1151
vt 0.3881 0.1572
vt 0.3353 0.3011
vt 0.2855 0.4369
vt 0.4168 0.0786
vt 0.0211 0.2122
vt 0.0881 0.0967
vt 0.2495 0.0337
vt 0.0267 0.0956
vt 0.0941 0.02
vt 0.0288 0.0364
vt 0.2979 0.8826
vt 0.2979 0.7525
vt 0.1331 0.8775
vt 0.1442 0.7548
vt 0.0809 0.8636
vt 0.2979 0.5811
vt 0.0434 0.7593
vt 0.0547 0.5795
vt 0.1585 0.5805
vt 0.0937 0.4555
vt 0.2979 0.4503
vt 0.0549 0.4776
vt 0.0262 0.5277
vt 0.02 0.5814
vt 0.0267 0.761
vt 0.0399 0.8222
vt 0.174 0.4521
vt 0.5942 0.3582
vt 0.5256 0.3639
vt 0.6001 0.3842
vt 0.5873 0.3221
vt 0.448 0.3282
vt 0.4301 0.2984
vt 0.4445 0.2745
vt 0.5803 0.2844
vt 0.4782 0.2573
vt 0.5723 0.2473
vt 0.6755 0.2238
vt 0.7319 0.208
vt 0.6149 0.1808
vt 0.7815 0.1781
vt 0.5773 0.234
vt 0.4465 0.1833
vt 0.451 0.2194
vt 0.8661 0.113
vt 0.4407 0.1381
vt 0.6515 0.1259
vt 0.9493 0.0468
vt 0.6892 0.0703
vt 0.4351 0.0929
vt 0.98 0.02
vt 0.7202 0.0265
vt 0.4301 0.0469
vt 0.0652 0.3564
vt 0.02 0.3404
vt 0.0774 0.2218
vt 0.2091 0.2559
vt 0.1868 0.4012
vt 0.2319 0.1151
vt 0.3881 0.1572
vt 0.3353 0.3011
vt 0.2855 0.4369
vt 0.4168 0.0786
vt 0.0211 0.2122
vt 0.0881 0.0967
vt 0.2495 0.0337
vt 0.0267 0.0956
vt 0.0941 0.02
vt 0.0288 0.0364
vt 0.2979 0.8826
vt 0.1331 0.8775
vt 0.2979 0.7525
vt 0.1442 0.7548
vt 0.0809 0.8636
vt 0.2979 0.5811
vt 0.0434 0.7593
vt 0.0547 0.5795
vt 0.1585 0.5805
vt 0.0937 0.4555
vt 0.2979 0.4503
vt 0.0549 0.4776
vt 0.0262 0.5277
vt 0.02 0.5814
vt 0.0267 0.761
vt 0.0399 0.8222
vt 0.174 0.4521
vt 0.5942 0.3582
vt 0.6001 0.3842
vt 0.5256 0.3639
vt 0.5873 0.3221
vt 0.448 0.3282
vt 0.4301 0.2984
vt 0.4445 0.2745
vt 0.5803 0.2844
vt 0.4782 0.2573
vt 0.5723 0.2473
vt 0.6755 0.2238
vt 0.6149 0.1808
vt 0.7319 0.208
vt 0.7815 0.1781
vt 0.5773 0.234
vt 0.4465 0.1833
vt 0.451 0.2194
vt 0.8661 0.113
vt 0.4407 0.1381
vt 0.6515 0.1259
vt 0.9493 0.0468
vt 0.6892 0.0703
vt 0.4351 0.0929
vt 0.98 0.02
vt 0.7202 0.0265
vt 0.4301 0.0469
vn -0.1264151 0.8970992 0.4233583
vn -0.1712363 0.8914497 0.4195181
vn -0.1858006 0.8893214 0.4178343
vn -0.06551117 0.903087 0.4244317
vn -0.04616372 0.9052941 0.4222694
vn -0.0844257 0.8987414 0.4302746
vn 0 0.9031365 0.4293536
vn 0 0.905952 0.4233805
vn 0 0.9073703 0.4203323
vn 0 0.8998196 0.4362622
vn -0.2484379 0.8782597 0.4085811
vn -0.2276225 0.8799555 0.4169729
vn -0.0911323 0.893765 0.43918
vn -0.3365306 0.8536141 0.3976057
vn -0.2409294 0.8725984 0.4248824
vn -0.3704359 0.8394507 0.3976176
vn 0 0.9599913 -0.2800297
vn 0 0.9645748 -0.2638094
vn -0.05306482 0.9655221 -0.2548553
vn -0.08403984 0.9645092 -0.2503183
vn -0.1490611 0.9601913 -0.2362485
vn 0 0.9656254 -0.2599376
vn -0.2702854 0.9288685 -0.2532766
vn -0.1902097 0.9489197 -0.2517373
vn -0.06921612 0.9642327 -0.2558602
vn -0.1192317 0.9624432 -0.2438994
vn 0 0.9657094 -0.2596252
vn -0.1813147 0.9572275 -0.2254784
vn -0.2414746 0.9430609 -0.2287493
vn -0.2810051 0.9255008 -0.253938
vn -0.3711157 0.8919087 -0.2584028
vn -0.3369393 0.9048097 -0.2603675
vn -0.06689359 0.9644526 -0.2556491
vn -0.787789 0.6158649 0.009949896
vn -0.8136323 0.5813609 0.004697711
vn -0.7565635 0.6537856 0.01326682
vn -0.8406779 0.5415334 -0.001499946
vn -0.8450645 0.5346637 0.0008424759
vn -0.880513 0.4738798 0.0116182
vn -0.8918594 0.4522328 0.008497662
vn -0.8645725 0.5022459 -0.01623194
vn -0.8819788 0.4711339 -0.01209517
vn -0.8733934 0.4866948 -0.01766744
vn -0.7786568 0.6268591 0.0272252
vn -0.7797775 0.6254944 0.0265274
vn -0.8049816 0.5931593 0.01291685
vn -0.7918816 0.6100649 0.02728526
vn -0.795333 0.606139 0.006411463
vn -0.8093027 0.5873798 -0.003739791
vn -0.8054206 0.5927025 -0.001129146
vn -0.827779 0.5607572 0.01825798
vn -0.8359565 0.5487906 -0.002371041
vn -0.840808 0.5412741 0.00801771
vn -0.8510849 0.5249717 0.007686475
vn -0.8524901 0.5227403 0.001814079
vn -0.8624231 0.5061882 0.0001003372
vn -0.8502277 0.5263668 0.007135876
vn -0.8398985 0.5427122 0.005845894
vn -0.867564 0.4973256 2.927684E-05
vn 0.126636 0.8970805 0.4233321
vn 0.186104 0.8892952 0.417755
vn 0.1711625 0.8914748 0.419495
vn 0.06552677 0.903085 0.4244335
vn 0.04616373 0.9052941 0.4222694
vn 0.08443041 0.8987439 0.4302685
vn 0 0.9031365 0.4293536
vn 0 0.905952 0.4233805
vn 0 0.9073703 0.4203323
vn 0 0.8998196 0.4362622
vn 0.2482509 0.8783283 0.4085472
vn 0.2276584 0.8799279 0.4170114
vn 0.09114223 0.8937582 0.4391916
vn 0.336586 0.8535454 0.3977061
vn 0.2409766 0.8725156 0.4250258
vn 0.3706073 0.839269 0.3978415
vn 0 0.9599913 -0.2800297
vn 0.05302727 0.9655178 -0.2548794
vn 0 0.9645748 -0.2638094
vn 0.08406347 0.9645056 -0.2503242
vn 0.1490479 0.9602004 -0.2362203
vn 0 0.9656254 -0.2599376
vn 0.2698018 0.9290197 -0.2532378
vn 0.1902191 0.9489129 -0.2517558
vn 0.06921611 0.9642327 -0.2558602
vn 0.1192317 0.9624432 -0.2438994
vn 0 0.9657094 -0.2596252
vn 0.1813147 0.9572275 -0.2254784
vn 0.2414746 0.9430609 -0.2287493
vn 0.280975 0.9254985 -0.2539794
vn 0.3701458 0.8923193 -0.2583763
vn 0.3366553 0.9049761 -0.2601566
vn 0.06689359 0.9644526 -0.2556491
vn 0.7879443 0.6156566 0.01052655
vn 0.7574033 0.6528026 0.01375139
vn 0.8136476 0.5813378 0.004901478
vn 0.8407166 0.5414742 -0.001130336
vn 0.8450645 0.5346637 0.0008424759
vn 0.880513 0.4738798 0.0116182
vn 0.8918599 0.4522296 0.008613936
vn 0.8647025 0.5020322 -0.01591662
vn 0.8817091 0.4716452 -0.0118291
vn 0.8729203 0.4875478 -0.0175296
vn 0.7786568 0.6268591 0.0272252
vn 0.8049816 0.5931593 0.01291684
vn 0.7797775 0.6254944 0.0265274
vn 0.7918816 0.6100649 0.02728526
vn 0.795271 0.6062207 0.006367053
vn 0.809067 0.5877034 -0.003908442
vn 0.8047324 0.5936354 -0.001617688
vn 0.8280972 0.5602875 0.01824405
vn 0.8362359 0.5483648 -0.00238909
vn 0.8408537 0.5412036 0.007976989
vn 0.8502511 0.5263175 0.007928576
vn 0.8524469 0.5228106 0.001852958
vn 0.8623899 0.5062447 1.265946E-05
vn 0.849367 0.5277514 0.00736499
vn 0.8398985 0.5427122 0.005845894
vn 0.867144 0.4980575 -7.517436E-05
g Glass_40_0
f 3/3/3 2/2/2 1/1/1
f 2/2/2 4/4/4 1/1/1
f 1/1/1 4/4/4 5/5/5
f 6/6/6 4/4/4 2/2/2
f 6/6/6 7/7/7 4/4/4
f 7/7/7 8/8/8 4/4/4
f 4/4/4 8/8/8 5/5/5
f 5/5/5 8/8/8 9/9/9
f 10/10/10 7/7/7 6/6/6
f 11/11/11 2/2/2 3/3/3
f 12/12/12 2/2/2 11/11/11
f 12/12/12 6/6/6 2/2/2
f 13/13/13 6/6/6 12/12/12
f 13/13/13 10/10/10 6/6/6
f 14/14/14 12/12/12 11/11/11
f 15/15/15 12/12/12 14/14/14
f 15/15/15 13/13/13 12/12/12
f 16/16/16 15/15/15 14/14/14
f 19/19/19 18/18/18 17/17/17
f 20/20/20 18/18/18 19/19/19
f 21/21/21 20/20/20 19/19/19
f 22/22/22 18/18/18 20/20/20
f 23/23/23 20/20/20 21/21/21
f 20/20/20 23/23/23 24/24/24
f 25/25/25 20/20/20 24/24/24
f 25/25/25 22/22/22 20/20/20
f 25/25/25 24/24/24 26/26/26
f 27/27/27 22/22/22 25/25/25
f 28/28/28 26/26/26 24/24/24
f 28/28/28 24/24/24 29/29/29
f 29/29/29 24/24/24 30/30/30
f 24/24/24 23/23/23 30/30/30
f 30/30/30 23/23/23 31/31/31
f 32/32/32 31/31/31 23/23/23
f 32/32/32 23/23/23 21/21/21
f 33/33/33 25/25/25 26/26/26
f 33/33/33 27/27/27 25/25/25
f 36/36/36 35/35/35 34/34/34
f 37/37/37 34/34/34 35/35/35
f 38/38/38 37/37/37 35/35/35
f 39/39/39 37/37/37 38/38/38
f 40/40/40 37/37/37 39/39/39
f 41/41/41 37/37/37 40/40/40
f 42/42/42 41/41/41 40/40/40
f 43/43/43 41/41/41 42/42/42
f 46/46/46 45/45/45 44/44/44
f 47/47/47 45/45/45 46/46/46
f 48/48/48 46/46/46 44/44/44
f 49/49/49 46/46/46 48/48/48
f 50/50/50 49/49/49 48/48/48
f 51/51/51 47/47/47 46/46/46
f 49/49/49 52/52/52 46/46/46
f 52/52/52 53/53/53 46/46/46
f 53/53/53 51/51/51 46/46/46
f 51/51/51 53/53/53 54/54/54
f 54/54/54 53/53/53 55/55/55
f 56/56/56 55/55/55 53/53/53
f 52/52/52 56/56/56 53/53/53
f 54/54/54 55/55/55 57/57/57
f 57/57/57 55/55/55 58/58/58
f 59/59/59 58/58/58 55/55/55
f 56/56/56 59/59/59 55/55/55
f 62/62/62 61/61/61 60/60/60
f 63/63/63 62/62/62 60/60/60
f 63/63/63 60/60/60 64/64/64
f 63/63/63 65/65/65 62/62/62
f 66/66/66 65/65/65 63/63/63
f 67/67/67 66/66/66 63/63/63
f 67/67/67 63/63/63 64/64/64
f 67/67/67 64/64/64 68/68/68
f 66/66/66 69/69/69 65/65/65
f 62/62/62 70/70/70 61/61/61
f 62/62/62 71/71/71 70/70/70
f 65/65/65 71/71/71 62/62/62
f 65/65/65 72/72/72 71/71/71
f 69/69/69 72/72/72 65/65/65
f 71/71/71 73/73/73 70/70/70
f 71/71/71 74/74/74 73/73/73
f 72/72/72 74/74/74 71/71/71
f 74/74/74 75/75/75 73/73/73
f 78/78/78 77/77/77 76/76/76
f 79/79/79 77/77/77 78/78/78
f 79/79/79 80/80/80 77/77/77
f 78/78/78 81/81/81 79/79/79
f 79/79/79 82/82/82 80/80/80
f 82/82/82 79/79/79 83/83/83
f 79/79/79 84/84/84 83/83/83
f 81/81/81 84/84/84 79/79/79
f 83/83/83 84/84/84 85/85/85
f 81/81/81 86/86/86 84/84/84
f 85/85/85 87/87/87 83/83/83
f 83/83/83 87/87/87 88/88/88
f 83/83/83 88/88/88 89/89/89
f 82/82/82 83/83/83 89/89/89
f 82/82/82 89/89/89 90/90/90
f 90/90/90 91/91/91 82/82/82
f 82/82/82 91/91/91 80/80/80
f 84/84/84 92/92/92 85/85/85
f 86/86/86 92/92/92 84/84/84
f 95/95/95 94/94/94 93/93/93
f 93/93/93 96/96/96 95/95/95
f 96/96/96 97/97/97 95/95/95
f 96/96/96 98/98/98 97/97/97
f 96/96/96 99/99/99 98/98/98
f 96/96/96 100/100/100 99/99/99
f 100/100/100 101/101/101 99/99/99
f 100/100/100 102/102/102 101/101/101
f 105/105/105 104/104/104 103/103/103
f 105/105/105 106/106/106 104/104/104
f 104/104/104 107/107/107 103/103/103
f 104/104/104 108/108/108 107/107/107
f 108/108/108 109/109/109 107/107/107
f 106/106/106 110/110/110 104/104/104
f 111/111/111 108/108/108 104/104/104
f 112/112/112 111/111/111 104/104/104
f 110/110/110 112/112/112 104/104/104
f 112/112/112 110/110/110 113/113/113
f 112/112/112 113/113/113 114/114/114
f 114/114/114 115/115/115 112/112/112
f 115/115/115 111/111/111 112/112/112
f 114/114/114 113/113/113 116/116/116
f 114/114/114 116/116/116 117/117/117
f 117/117/117 118/118/118 114/114/114
f 118/118/118 115/115/115 114/114/114
