g Taillights_40
v -0.3186 0.7992004 -2.1004
v -0.2562 0.8039004 -2.0858
v -0.2561 0.8825004 -2.0419
v -0.3153 0.9022003 -2.0415
v -0.5348 0.9434013 -1.9862
v -0.5192 0.7933003 -2.0533
v -0.4117 0.9022003 -2.0371
v -0.5806 0.9305003 -1.9742
v -0.3539 0.7988003 -2.097
v -0.3153 0.9022003 -2.0415
v -0.3186 0.7992004 -2.1004
v -0.6022 0.7945004 -2.0181
v -0.6511 0.8020003 -1.9929
v -0.6222 0.9109003 -1.9641
v -0.672 0.8247003 -1.9734
v -0.654 0.8867003 -1.964
v -0.6735 0.8598003 -1.964
v 0.3185 0.7992004 -2.1004
v 0.2561 0.8825004 -2.0419
v 0.2562 0.8039004 -2.0858
v 0.3153 0.9022003 -2.0415
v 0.5348 0.9434013 -1.9862
v 0.4117 0.9022003 -2.0371
v 0.5192 0.7933003 -2.0533
v 0.5806 0.9305003 -1.9742
v 0.3538 0.7988003 -2.097
v 0.3153 0.9022003 -2.0415
v 0.3185 0.7992004 -2.1004
v 0.6021 0.7945004 -2.0181
v 0.651 0.8020003 -1.9929
v 0.6222 0.9109003 -1.9641
v 0.6719 0.8247003 -1.9734
v 0.654 0.8867003 -1.964
v 0.6735 0.8598003 -1.964
vt 0.5764 0.0452
vt 0.5091 0.0652
vt 0.5202 0.163
vt 0.5874 0.1745
vt 0.8367 0.2147
vt 0.8021 0.0374
vt 0.6926 0.1651
vt 0.8888 0.2017
vt 0.6151 0.0423
vt 0.5874 0.1745
vt 0.5764 0.0452
vt 0.9005 0.0441
vt 0.9598 0.0566
vt 0.9362 0.1815
vt 0.9877 0.0851
vt 0.9704 0.1543
vt 0.9914 0.1248
vt 0.5764 0.0452
vt 0.5202 0.163
vt 0.5091 0.0652
vt 0.5874 0.1745
vt 0.8367 0.2147
vt 0.6926 0.1651
vt 0.8021 0.0374
vt 0.8888 0.2017
vt 0.6151 0.0423
vt 0.5874 0.1745
vt 0.5764 0.0452
vt 0.9005 0.0441
vt 0.9598 0.0566
vt 0.9362 0.1815
vt 0.9877 0.0851
vt 0.9704 0.1543
vt 0.9914 0.1248
vn 0.1617159 0.483012 -0.8605506
vn 0.1652711 0.4807562 -0.8611381
vn 0.1588677 0.4848115 -0.8600692
vn 0.1561032 0.4865515 -0.8595926
vn -0.2951081 0.3642042 -0.8833269
vn -0.2939144 0.3621034 -0.8845878
vn -0.183908 0.411853 -0.8924993
vn -0.3523041 0.3439106 -0.8704064
vn -0.1306945 0.4561689 -0.8802437
vn -0.04899744 0.4865001 -0.8723055
vn -0.08879891 0.4965923 -0.8634297
vn -0.3759138 0.3381894 -0.8627379
vn -0.3994657 0.3359732 -0.8529649
vn -0.3425887 0.3103432 -0.8867469
vn -0.3831521 0.3081046 -0.8707847
vn -0.17049 0.1959086 -0.9656878
vn -0.3204051 0.2322523 -0.9183678
vn -0.161889 0.4830419 -0.8605013
vn -0.158968 0.4848852 -0.8600091
vn -0.1655293 0.4807347 -0.8611006
vn -0.1561404 0.4866627 -0.8595229
vn 0.2951081 0.3642042 -0.8833269
vn 0.1838997 0.4117801 -0.8925346
vn 0.2940153 0.3620004 -0.8845963
vn 0.3523655 0.3437576 -0.870442
vn 0.13062 0.4561172 -0.8802815
vn 0.04899593 0.4864632 -0.8723261
vn 0.08880167 0.4965267 -0.8634672
vn 0.376154 0.3379477 -0.8627279
vn 0.3995993 0.3356915 -0.8530133
vn 0.3424472 0.3099902 -0.886925
vn 0.3831717 0.3076909 -0.8709224
vn 0.1702508 0.19558 -0.9657966
vn 0.3194057 0.2315291 -0.9188984
g Taillights_40_0
f 3/3/3 2/2/2 1/1/1
f 4/4/4 3/3/3 1/1/1
f 7/7/7 6/6/6 5/5/5
f 8/8/8 5/5/5 6/6/6
f 9/9/9 6/6/6 7/7/7
f 10/10/10 9/9/9 7/7/7
f 11/11/11 9/9/9 10/10/10
f 12/12/12 8/8/8 6/6/6
f 12/12/12 13/13/13 8/8/8
f 8/8/8 13/13/13 14/14/14
f 15/15/15 14/14/14 13/13/13
f 16/16/16 14/14/14 15/15/15
f 16/16/16 15/15/15 17/17/17
f 20/20/20 19/19/19 18/18/18
f 19/19/19 21/21/21 18/18/18
f 24/24/24 23/23/23 22/22/22
f 22/22/22 25/25/25 24/24/24
f 24/24/24 26/26/26 23/23/23
f 26/26/26 27/27/27 23/23/23
f 26/26/26 28/28/28 27/27/27
f 25/25/25 29/29/29 24/24/24
f 30/30/30 29/29/29 25/25/25
f 30/30/30 25/25/25 31/31/31
f 31/31/31 32/32/32 30/30/30
f 31/31/31 33/33/33 32/32/32
f 32/32/32 33/33/33 34/34/34
