g model_car_108_matte_mirror_LOD1
v 0.9862468 1.049607 -0.009566069
v 0.9475988 1.056166 0.000647068
v 0.9472974 1.021156 0.000729084
v 0.986335 1.017772 -0.00955379
v 0.9216927 1.056724 0.008001328
v 0.9210508 1.023279 0.008212566
v 0.9863268 1.055075 -0.009588718
v 0.9476768 1.062056 0.0006408691
v 0.948249 0.9871101 0.0008028746
v 0.9227058 0.9861073 0.008288383
v 0.9502096 0.9514995 0.0008993149
v 0.9259174 0.9506176 0.008251548
v 0.9871573 0.9885602 -0.009510756
v 0.9879552 0.9577258 -0.009412289
v 0.8997673 0.9863658 0.01654708
v 0.8974068 1.023537 0.01648557
v 1.028455 1.041398 -0.02158809
v 1.028549 1.046016 -0.02163327
v 1.054638 1.035297 -0.02974629
v 1.055007 1.031966 -0.02984273
v 0.8917711 0.9867718 0.01966643
v 0.8893942 1.023088 0.01960492
v 1.029142 1.015112 -0.02169478
v 1.05972 1.013461 -0.03119421
v 1.030003 0.9913883 -0.02169681
v 1.060561 0.9956048 -0.03123927
v 1.071059 0.9971921 -0.03461909
v 1.064529 0.9827542 -0.03231597
v 1.057901 0.9778221 -0.03009701
v 1.070339 1.012661 -0.03456783
v 1.061953 1.027218 -0.03202891
v 1.030762 0.9665792 -0.02159429
v 0.988234 0.9521987 -0.009430766
v 1.031107 0.9620428 -0.02163732
v 1.057866 0.9744811 -0.03002727
v 0.9506423 0.9452589 0.0008972883
v 0.9263522 0.9445677 0.008300781
v 0.9052922 0.9552116 0.01549101
v 0.9048676 0.959549 0.01550329
v 0.8990269 0.9655354 0.01757252
v 0.8977267 0.964395 0.01811802
v 0.8884836 0.9866405 0.02095234
v 0.8860984 1.023022 0.02089083
v 0.8949088 1.043465 0.01723623
v 0.9003456 1.048887 0.01518333
v 0.9004523 1.052804 0.01514435
v 0.9216374 1.06222 0.008048534
v 0.8935512 1.044568 0.01772225
v 1.063399 1.028147 -0.0324986
v 1.074537 1.012565 -0.03589272
v 1.075226 0.9974566 -0.03594804
v 1.066221 0.9818478 -0.03284717
v -0.9862468 1.049607 -0.009566069
v -0.986335 1.017772 -0.00955379
v -0.9472973 1.021156 0.000729084
v -0.9475989 1.056166 0.000647068
v -0.9216927 1.056724 0.008001328
v -0.9210508 1.023279 0.008212566
v -0.9863267 1.055075 -0.009588718
v -0.9476767 1.062056 0.0006408691
v -0.9482489 0.9871101 0.0008028746
v -0.9227058 0.9861073 0.008288383
v -0.9502096 0.9514995 0.0008993149
v -0.9259174 0.9506176 0.008251548
v -0.9871595 0.9885602 -0.009510756
v -0.9879551 0.9577258 -0.009412289
v -0.8997673 0.9863658 0.01654708
v -0.8974067 1.023537 0.01648557
v -1.028455 1.041398 -0.02158809
v -1.028549 1.046016 -0.02163327
v -1.054638 1.035297 -0.02974629
v -1.055007 1.031966 -0.02984273
v -0.8917711 0.9867718 0.01966643
v -0.8893942 1.023088 0.01960492
v -1.029142 1.015112 -0.02169478
v -1.05972 1.013461 -0.03119421
v -1.030003 0.9913883 -0.02169681
v -1.060561 0.9956048 -0.03123927
v -1.071059 0.9971921 -0.03461909
v -1.064529 0.9827542 -0.03231597
v -1.057901 0.9778221 -0.03009701
v -1.070341 1.012661 -0.03456783
v -1.061953 1.027218 -0.03202891
v -1.030762 0.9665792 -0.02159429
v -0.9882362 0.9521987 -0.009430766
v -1.031107 0.9620428 -0.02163732
v -1.057866 0.9744811 -0.03002727
v -0.9506423 0.9452589 0.0008972883
v -0.9263542 0.9445677 0.008300781
v -0.9052922 0.9552116 0.01549101
v -0.9048676 0.959549 0.01550329
v -0.8990269 0.9655354 0.01757252
v -0.8977267 0.964395 0.01811802
v -0.8884835 0.9866405 0.02095234
v -0.8860984 1.023022 0.02089083
v -0.8949088 1.043465 0.01723623
v -0.9003456 1.048887 0.01518333
v -0.9004523 1.052804 0.01514435
v -0.9216373 1.06222 0.008048534
v -0.8935511 1.044568 0.01772225
v -1.063399 1.028147 -0.0324986
v -1.074537 1.012565 -0.03589272
v -1.075226 0.9974566 -0.03594804
v -1.066221 0.9818478 -0.03284717
vn -0.2642544 -0.002540797 -0.9644497
vn -0.2663944 0.001025975 -0.9638636
vn -0.2656811 -0.00539422 -0.9640459
vn -0.2642544 -0.00539422 -0.964438
vn -0.2999221 0.002452701 -0.9539605
vn -0.3034889 -0.008960992 -0.9527928
vn -0.2642544 -0.000400722 -0.9644529
vn -0.2649677 0.002452701 -0.9642541
vn -0.2692479 -0.01395449 -0.9629698
vn -0.3091958 -0.02037469 -0.9507801
vn -0.273528 -0.01609457 -0.9617293
vn -0.3134759 -0.03321511 -0.9490151
vn -0.2649677 -0.01110107 -0.9641933
vn -0.2663944 -0.01110107 -0.9638001
vn -0.3505704 -0.02679491 -0.936153
vn -0.3448636 -0.01466784 -0.9385382
vn -0.2863684 -0.00539422 -0.9581044
vn -0.2842283 -0.002540797 -0.9587533
vn -0.2999221 -0.004680872 -0.9539522
vn -0.3006355 -0.003967524 -0.9537309
vn -0.3648376 -0.02893496 -0.9306214
vn -0.3626975 -0.01966134 -0.9316995
vn -0.2856551 -0.006820947 -0.9583082
vn -0.3006355 -0.008960992 -0.953697
vn -0.2842283 -0.01181442 -0.9586838
vn -0.3006355 -0.01324114 -0.9536472
vn -0.3034889 -0.01181442 -0.9527617
vn -0.305629 -0.01538122 -0.9520264
vn -0.2992088 -0.01752126 -0.9540268
vn -0.3020622 -0.008247644 -0.9532526
vn -0.3034889 -0.007534295 -0.9528052
vn -0.2828016 -0.01395449 -0.9590769
vn -0.2663944 -0.01252779 -0.9637827
vn -0.2806616 -0.01252779 -0.9597251
vn -0.2970687 -0.01538122 -0.9547322
vn -0.2763814 -0.01966134 -0.9608469
vn -0.3084824 -0.02679491 -0.9508526
vn -0.3434369 -0.03178838 -0.9386377
vn -0.3527105 -0.03749526 -0.9349809
vn -0.3634109 -0.03250176 -0.9310619
vn -0.3634109 -0.03250176 -0.9310619
vn -0.3634109 -0.02822161 -0.9312015
vn -0.3612708 -0.01966134 -0.9322537
vn -0.3541372 -0.01038772 -0.9351358
vn -0.3320232 -0.006107569 -0.9432514
vn -0.3270297 0.001025975 -0.9450135
vn -0.2935019 0.00316605 -0.9559532
vn -0.3527105 -0.007534295 -0.9357021
vn -0.3034889 -0.007534295 -0.9528052
vn -0.3020622 -0.00967437 -0.9532391
vn -0.3027756 -0.01181442 -0.9529886
vn -0.3049156 -0.01466784 -0.9522664
vn 0.2643425 -0.002540797 -0.9644256
vn 0.2643425 -0.00539422 -0.9644138
vn 0.2657692 -0.00539422 -0.9640216
vn 0.2657692 0.001025975 -0.9640361
vn 0.3000103 0.002452701 -0.9539328
vn 0.3028637 -0.008960992 -0.9529918
vn 0.2636291 -0.000400722 -0.964624
vn 0.2650558 0.002452701 -0.9642299
vn 0.269336 -0.01395449 -0.9629452
vn 0.3092839 -0.02037469 -0.9507515
vn 0.2736161 -0.01609457 -0.9617043
vn 0.313564 -0.03321511 -0.948986
vn 0.2650558 -0.01110107 -0.9641691
vn 0.2657692 -0.01110107 -0.9639727
vn 0.3506585 -0.02679491 -0.93612
vn 0.3449517 -0.01466784 -0.9385058
vn 0.2864565 -0.00539422 -0.958078
vn 0.2843164 -0.002540797 -0.9587271
vn 0.3000103 -0.004680872 -0.9539245
vn 0.3007236 -0.003967524 -0.9537031
vn 0.3649257 -0.02893496 -0.9305869
vn 0.3620722 -0.01966134 -0.9319426
vn 0.2850298 -0.006820947 -0.9584944
vn 0.3007236 -0.008960992 -0.9536693
vn 0.2843164 -0.01181442 -0.9586577
vn 0.3007236 -0.01324114 -0.9536194
vn 0.303577 -0.01181442 -0.9527336
vn 0.3050038 -0.01466784 -0.9522381
vn 0.2992969 -0.01752126 -0.9539992
vn 0.3021503 -0.008247644 -0.9532246
vn 0.303577 -0.007534295 -0.9527771
vn 0.2828897 -0.01395449 -0.9590509
vn 0.2664825 -0.01252779 -0.9637583
vn 0.2807496 -0.01252779 -0.9596993
vn 0.2971568 -0.01538122 -0.9547048
vn 0.2764695 -0.01966134 -0.9608215
vn 0.3085705 -0.02679491 -0.950824
vn 0.343525 -0.03178838 -0.9386054
vn 0.3527986 -0.03749526 -0.9349477
vn 0.3634989 -0.03250176 -0.9310275
vn 0.3634989 -0.03250176 -0.9310275
vn 0.3634989 -0.02822161 -0.9311671
vn 0.3613589 -0.01966134 -0.9322195
vn 0.3542253 -0.00967437 -0.9351101
vn 0.3321113 -0.006107569 -0.9432204
vn 0.3264044 0.001025975 -0.9452296
vn 0.2928767 0.00316605 -0.956145
vn 0.3527986 -0.007534295 -0.9356689
vn 0.3028637 -0.007534295 -0.9530041
vn 0.3021503 -0.00967437 -0.9532112
vn 0.3028637 -0.01181442 -0.9529607
vn 0.3050038 -0.01466784 -0.9522381
g model_car_108_matte_mirror_LOD1_0
f 3/3/3 2/2/2 1/1/1
f 4/4/4 3/3/3 1/1/1
f 5/5/5 2/2/2 3/3/3
f 6/6/6 5/5/5 3/3/3
f 1/1/1 2/2/2 7/7/7
f 2/2/2 8/8/8 7/7/7
f 6/6/6 3/3/3 9/9/9
f 9/9/9 3/3/3 4/4/4
f 10/10/10 6/6/6 9/9/9
f 10/10/10 9/9/9 11/11/11
f 12/12/12 10/10/10 11/11/11
f 11/11/11 9/9/9 13/13/13
f 13/13/13 9/9/9 4/4/4
f 14/14/14 11/11/11 13/13/13
f 10/10/10 15/15/15 6/6/6
f 10/10/10 12/12/12 15/15/15
f 15/15/15 16/16/16 6/6/6
f 17/17/17 1/1/1 7/7/7
f 18/18/18 17/17/17 7/7/7
f 17/17/17 18/18/18 19/19/19
f 20/20/20 17/17/17 19/19/19
f 15/15/15 21/21/21 16/16/16
f 21/21/21 22/22/22 16/16/16
f 23/23/23 17/17/17 20/20/20
f 24/24/24 23/23/23 20/20/20
f 23/23/23 24/24/24 25/25/25
f 24/24/24 26/26/26 25/25/25
f 27/27/27 26/26/26 24/24/24
f 27/27/27 28/28/28 26/26/26
f 28/28/28 29/29/29 26/26/26
f 30/30/30 27/27/27 24/24/24
f 30/30/30 24/24/24 20/20/20
f 23/23/23 25/25/25 4/4/4
f 25/25/25 13/13/13 4/4/4
f 31/31/31 30/30/30 20/20/20
f 31/31/31 20/20/20 19/19/19
f 25/25/25 32/32/32 13/13/13
f 26/26/26 29/29/29 32/32/32
f 25/25/25 26/26/26 32/32/32
f 32/32/32 14/14/14 13/13/13
f 14/14/14 32/32/32 33/33/33
f 32/32/32 34/34/34 33/33/33
f 32/32/32 29/29/29 35/35/35
f 34/34/34 32/32/32 35/35/35
f 29/29/29 28/28/28 35/35/35
f 11/11/11 14/14/14 33/33/33
f 36/36/36 11/11/11 33/33/33
f 11/11/11 36/36/36 37/37/37
f 12/12/12 11/11/11 37/37/37
f 12/12/12 37/37/37 38/38/38
f 39/39/39 12/12/12 38/38/38
f 12/12/12 39/39/39 15/15/15
f 39/39/39 40/40/40 15/15/15
f 40/40/40 39/39/39 38/38/38
f 40/40/40 21/21/21 15/15/15
f 21/21/21 40/40/40 41/41/41
f 41/41/41 40/40/40 38/38/38
f 42/42/42 21/21/21 41/41/41
f 22/22/22 21/21/21 42/42/42
f 43/43/43 22/22/22 42/42/42
f 44/44/44 22/22/22 43/43/43
f 16/16/16 22/22/22 44/44/44
f 45/45/45 16/16/16 44/44/44
f 6/6/6 16/16/16 45/45/45
f 5/5/5 6/6/6 45/45/45
f 5/5/5 45/45/45 46/46/46
f 45/45/45 44/44/44 46/46/46
f 47/47/47 5/5/5 46/46/46
f 2/2/2 5/5/5 47/47/47
f 8/8/8 2/2/2 47/47/47
f 48/48/48 44/44/44 43/43/43
f 44/44/44 48/48/48 46/46/46
f 23/23/23 4/4/4 1/1/1
f 17/17/17 23/23/23 1/1/1
f 30/30/30 31/31/31 49/49/49
f 50/50/50 30/30/30 49/49/49
f 27/27/27 30/30/30 50/50/50
f 51/51/51 27/27/27 50/50/50
f 28/28/28 27/27/27 51/51/51
f 52/52/52 28/28/28 51/51/51
f 28/28/28 52/52/52 35/35/35
f 49/49/49 31/31/31 19/19/19
f 55/55/55 54/54/54 53/53/53
f 56/56/56 55/55/55 53/53/53
f 56/56/56 57/57/57 55/55/55
f 57/57/57 58/58/58 55/55/55
f 56/56/56 53/53/53 59/59/59
f 60/60/60 56/56/56 59/59/59
f 55/55/55 58/58/58 61/61/61
f 55/55/55 61/61/61 54/54/54
f 58/58/58 62/62/62 61/61/61
f 61/61/61 62/62/62 63/63/63
f 62/62/62 64/64/64 63/63/63
f 61/61/61 63/63/63 65/65/65
f 61/61/61 65/65/65 54/54/54
f 63/63/63 66/66/66 65/65/65
f 67/67/67 62/62/62 58/58/58
f 64/64/64 62/62/62 67/67/67
f 68/68/68 67/67/67 58/58/58
f 53/53/53 69/69/69 59/59/59
f 69/69/69 70/70/70 59/59/59
f 70/70/70 69/69/69 71/71/71
f 69/69/69 72/72/72 71/71/71
f 73/73/73 67/67/67 68/68/68
f 74/74/74 73/73/73 68/68/68
f 69/69/69 75/75/75 72/72/72
f 75/75/75 69/69/69 53/53/53
f 75/75/75 76/76/76 72/72/72
f 76/76/76 75/75/75 77/77/77
f 78/78/78 76/76/76 77/77/77
f 78/78/78 79/79/79 76/76/76
f 80/80/80 79/79/79 78/78/78
f 81/81/81 80/80/80 78/78/78
f 79/79/79 82/82/82 76/76/76
f 76/76/76 82/82/82 72/72/72
f 77/77/77 75/75/75 54/54/54
f 54/54/54 75/75/75 53/53/53
f 65/65/65 77/77/77 54/54/54
f 82/82/82 83/83/83 72/72/72
f 72/72/72 83/83/83 71/71/71
f 84/84/84 77/77/77 65/65/65
f 78/78/78 77/77/77 84/84/84
f 81/81/81 78/78/78 84/84/84
f 66/66/66 84/84/84 65/65/65
f 84/84/84 66/66/66 85/85/85
f 86/86/86 84/84/84 85/85/85
f 84/84/84 86/86/86 87/87/87
f 81/81/81 84/84/84 87/87/87
f 80/80/80 81/81/81 87/87/87
f 66/66/66 63/63/63 85/85/85
f 63/63/63 88/88/88 85/85/85
f 88/88/88 63/63/63 89/89/89
f 63/63/63 64/64/64 89/89/89
f 89/89/89 64/64/64 90/90/90
f 64/64/64 91/91/91 90/90/90
f 91/91/91 64/64/64 67/67/67
f 92/92/92 91/91/91 67/67/67
f 91/91/91 92/92/92 90/90/90
f 73/73/73 92/92/92 67/67/67
f 92/92/92 73/73/73 93/93/93
f 92/92/92 93/93/93 90/90/90
f 73/73/73 94/94/94 93/93/93
f 73/73/73 74/74/74 94/94/94
f 74/74/74 95/95/95 94/94/94
f 74/74/74 96/96/96 95/95/95
f 74/74/74 68/68/68 96/96/96
f 68/68/68 97/97/97 96/96/96
f 68/68/68 58/58/58 97/97/97
f 58/58/58 57/57/57 97/97/97
f 97/97/97 57/57/57 98/98/98
f 96/96/96 97/97/97 98/98/98
f 57/57/57 99/99/99 98/98/98
f 57/57/57 56/56/56 99/99/99
f 56/56/56 60/60/60 99/99/99
f 96/96/96 100/100/100 95/95/95
f 100/100/100 96/96/96 98/98/98
f 82/82/82 102/102/102 101/101/101
f 83/83/83 82/82/82 101/101/101
f 82/82/82 79/79/79 102/102/102
f 79/79/79 103/103/103 102/102/102
f 79/79/79 80/80/80 103/103/103
f 80/80/80 104/104/104 103/103/103
f 104/104/104 80/80/80 87/87/87
f 83/83/83 101/101/101 71/71/71
