g model_car_25_body_roof_LOD1
v 0.4291264 1.107005 -1.208178
v 0.4331756 1.129761 -1.085075
v 0.405604 1.143643 -1.085209
v 0.4011514 1.117863 -1.208184
v 0.4236608 1.074661 -1.330569
v 0.3966386 1.083048 -1.331668
v 0.4101568 1.159816 -0.9827524
v 0.4358941 1.143608 -0.981625
v 0.4571329 1.085521 -1.208178
v 0.460999 1.105475 -1.085066
v 0.4523112 1.05772 -1.329204
v 0.4617602 1.118275 -0.9815562
v 0.4508002 1.027084 -1.432997
v 0.4174054 1.045204 -1.434442
v 0.4486655 0.9880229 -1.536624
v 0.4025879 1.006752 -1.538507
v 0.3939 1.049261 -1.435269
v 0.4366896 0.946813 -1.648141
v 0.3985215 0.9565223 -1.65092
v 0.4363062 1.155547 -0.8775398
v 0.4632425 1.128888 -0.8763551
v 0.4365809 1.159848 -0.8357203
v 0.4642211 1.13551 -0.8306181
v 0.409596 1.174491 -0.878527
v 0.4091123 1.180183 -0.8399841
v 0.489429 0.9135612 -1.642009
v 0.5166429 0.9330887 -1.532492
v 0.4497586 0.8825842 -1.744503
v 0.4210768 0.8713039 -1.783446
v 0.468814 1.010715 -1.432019
v 0.5186374 0.9623057 -1.428762
v 0.4762514 1.033934 -1.327747
v 0.5241345 0.9814583 -1.324205
v 0.4832938 1.057156 -1.208178
v 0.5350945 0.9933053 -1.208175
v 0.4891887 1.07295 -1.085052
v 0.5447266 0.9987739 -1.085023
v 0.4910601 1.082536 -0.9814447
v 0.5484296 1.000465 -0.9811842
v 0.4939332 1.090145 -0.8743978
v 0.5536463 1.000863 -0.8698822
v 0.4958361 1.095324 -0.8221906
v 0.5571117 1.00252 -0.8027289
v 0.5671302 0.950081 -1.208175
v 0.5790745 0.948155 -1.085
v 0.5538151 0.9463867 -1.321687
v 0.5838305 0.9442176 -0.9810069
v 0.5400078 0.9405118 -1.4272
v 0.5904064 0.9395159 -0.8667744
v 0.5947905 0.938646 -0.7893366
v 0.5957805 0.9372467 -0.762552
v 0.552762 1.006349 -0.7769601
v 0.5375669 1.007015 -0.7634219
v 0.4774389 1.095634 -0.7820052
v 0.490731 1.097024 -0.7960213
v 0.5746161 0.944661 -0.7504932
v 0.4479301 1.13011 -0.7892336
v 0.4593478 1.135896 -0.8041797
v 0.4346722 1.159542 -0.8091732
v 0.4067715 1.178543 -0.8131852
v 0.3994144 1.166035 -0.7967682
v 0.3723608 1.172825 -0.7981932
v 0.3723608 1.187608 -0.8150738
v 0.4224732 1.153839 -0.79421
v 0.3723608 1.191288 -0.8423135
v 0.3723608 1.186575 -0.8790679
v 0.3723608 1.171555 -0.9817137
v 0.3723608 1.152568 -1.085086
v 0.3723608 1.124656 -1.208178
v 0.3723608 1.088113 -1.332086
v 0.3723608 1.05305 -1.435581
v 0.3723608 1.010312 -1.53914
v 0.3723608 0.958557 -1.651818
v 0.3741894 0.8654863 -1.809318
v 0.3944838 0.864828 -1.805235
v 0.3435702 1.117863 -1.208184
v 0.3480829 1.083048 -1.331668
v 0.3210636 1.074661 -1.330569
v 0.3155951 1.107005 -1.208178
v 0.3391204 1.143643 -1.085209
v 0.311546 1.129761 -1.085075
v 0.3345675 1.159816 -0.9827524
v 0.3088275 1.143608 -0.981625
v 0.2875915 1.085521 -1.208178
v 0.2837255 1.105475 -1.085066
v 0.2924134 1.05772 -1.329204
v 0.2829614 1.118275 -0.9815562
v 0.2920699 1.025404 -1.432897
v 0.3273163 1.045204 -1.434442
v 0.2960562 0.9880229 -1.536624
v 0.3421336 1.006752 -1.538507
v 0.3508215 1.049261 -1.435269
v 0.3080348 0.946813 -1.648141
v 0.3462 0.9565223 -1.65092
v 0.3084154 1.155547 -0.8775398
v 0.281482 1.128888 -0.8763551
v 0.3081435 1.159848 -0.8357203
v 0.2805004 1.13551 -0.8306181
v 0.3351284 1.174491 -0.878527
v 0.3356092 1.180183 -0.8399841
v 0.2658204 0.9190725 -1.643136
v 0.2407414 0.9419483 -1.533288
v 0.294963 0.8825842 -1.744503
v 0.3212354 0.8722538 -1.78017
v 0.2759104 1.010715 -1.432019
v 0.2294866 0.9657739 -1.429011
v 0.2684703 1.033934 -1.327747
v 0.2205899 0.9814583 -1.324205
v 0.2614279 1.057156 -1.208178
v 0.20963 0.9933053 -1.208175
v 0.255533 1.07295 -1.085052
v 0.1999949 0.9987739 -1.085023
v 0.2536644 1.082536 -0.9814447
v 0.196292 1.000465 -0.9811842
v 0.2507885 1.090145 -0.8743978
v 0.1910782 1.000863 -0.8698822
v 0.2488854 1.095324 -0.8221906
v 0.1876099 1.00252 -0.8027289
v 0.1894299 0.9660543 -1.208175
v 0.1783412 0.9668614 -1.085009
v 0.201875 0.9593469 -1.322619
v 0.1739744 0.9650041 -0.9810727
v 0.2148008 0.9507962 -1.427935
v 0.167902 0.9621855 -0.8679219
v 0.1647485 0.9622341 -0.8105611
v 0.1650777 0.9628581 -0.7678746
v 0.1919595 1.006349 -0.7769601
v 0.2071546 1.007015 -0.7634219
v 0.2672856 1.095634 -0.7820052
v 0.2539905 1.097024 -0.7960213
v 0.1843019 0.9568886 -0.7539929
v 0.2967944 1.13011 -0.7892336
v 0.2853767 1.135896 -0.8041797
v 0.3100494 1.159542 -0.8091732
v 0.33795 1.178543 -0.8131852
v 0.3453072 1.166035 -0.7967682
v 0.3222483 1.153839 -0.79421
v 0.3723608 1.1655 -0.7979529
v 0.3481402 1.159545 -0.7967024
v 0.326455 1.148267 -0.7943387
v 0.3017135 1.125165 -0.7894939
v 0.2729143 1.091421 -0.7824172
v 0.2145662 1.00567 -0.7644349
v 0.1968443 0.9574381 -0.756411
v 0.2387038 0.9574381 -0.7542361
v 0.2382488 0.9524618 -0.7519526
v 0.3723608 0.9574381 -0.7542361
v 0.3723608 0.9504844 -0.7515377
v 0.4637891 0.9501668 -0.7514719
v 0.463274 0.9574381 -0.7542361
v 0.5628721 0.9574381 -0.7531517
v 0.5301583 1.00567 -0.7644349
v 0.4718072 1.091421 -0.7824172
v 0.4430081 1.125165 -0.7894939
v 0.4182667 1.148267 -0.7943387
v 0.3965814 1.159545 -0.7967024
v 0.3538691 0.8644103 -1.806551
vt 0.6278324 0.3141365
vt 0.6038538 0.3133281
vt 0.6034418 0.3189788
vt 0.6273194 0.320067
vt 0.6539096 0.3151003
vt 0.6536375 0.3211085
vt 0.5854793 0.3181161
vt 0.5855259 0.3130483
vt 0.6287418 0.3071178
vt 0.6044601 0.3064649
vt 0.6545703 0.3080117
vt 0.5856814 0.3068613
vt 0.6781913 0.3080428
vt 0.6772897 0.3164683
vt 0.7033436 0.3078795
vt 0.7022943 0.319554
vt 0.6771886 0.3217304
vt 0.7313018 0.3105844
vt 0.7310375 0.3201137
vt 0.56932 0.3139266
vt 0.5685116 0.3081749
vt 0.563506 0.3149371
vt 0.561594 0.3099704
vt 0.5696853 0.3186291
vt 0.5647419 0.3192354
vt 0.7331672 0.2955599
vt 0.7066469 0.2875696
vt 0.7591822 0.3060763
vt 0.7691001 0.3133592
vt 0.6790541 0.3026718
vt 0.681347 0.2869945
vt 0.6555108 0.3007987
vt 0.6572752 0.2852456
vt 0.6298066 0.2993296
vt 0.6318275 0.2821832
vt 0.6050897 0.2982726
vt 0.6058436 0.2798203
vt 0.5856503 0.298669
vt 0.5846709 0.2796493
vt 0.5669494 0.3001147
vt 0.561936 0.2813126
vt 0.558174 0.302462
vt 0.5483339 0.2840564
vt 0.6330556 0.2705242
vt 0.6061468 0.2669333
vt 0.6582779 0.2749702
vt 0.5837771 0.2662182
vt 0.6822953 0.2799757
vt 0.5588192 0.2671664
vt 0.5402348 0.2695216
vt 0.5330684 0.2704698
vt 0.5436003 0.2868079
vt 0.5408489 0.2902356
vt 0.551373 0.3070245
vt 0.553969 0.3045762
vt 0.5304645 0.2768745
vt 0.5550339 0.3133981
vt 0.5577465 0.3116415
vt 0.559985 0.3159553
vt 0.5615007 0.3198261
vt 0.5589591 0.3206033
vt 0.5595264 0.3236113
vt 0.5620526 0.3236969
vt 0.5577465 0.3176575
vt 0.5651538 0.3238134
vt 0.569732 0.3239844
vt 0.5849741 0.3246218
vt 0.6030143 0.3252669
vt 0.6269152 0.3259121
vt 0.6533733 0.3263628
vt 0.6769632 0.3265494
vt 0.7021621 0.3265572
vt 0.7311075 0.3263473
vt 0.775598 0.3250571
vt 0.7747664 0.3199893
vt 0.6270707 0.3317804
vt 0.6535132 0.3316249
vt 0.6536375 0.3376643
vt 0.6273272 0.3377809
vt 0.6030532 0.3315861
vt 0.6031154 0.337299
vt 0.5850052 0.3311741
vt 0.5846632 0.3362574
vt 0.6279334 0.3449162
vt 0.6032942 0.3442866
vt 0.6541272 0.3448462
vt 0.5843368 0.3425144
vt 0.6781291 0.3457323
vt 0.6772042 0.3366694
vt 0.703468 0.3453281
vt 0.7023332 0.3335759
vt 0.6771498 0.3313762
vt 0.7316515 0.3421724
vt 0.7311852 0.3326043
vt 0.568566 0.3340111
vt 0.567268 0.3397396
vt 0.562892 0.332511
vt 0.5605991 0.337299
vt 0.5692888 0.329332
vt 0.5644232 0.3283371
vt 0.7335169 0.3543599
vt 0.7064526 0.3621636
vt 0.759944 0.3457634
vt 0.7688903 0.3386669
vt 0.6788831 0.350629
vt 0.6809739 0.3654981
vt 0.65492 0.3521991
vt 0.6564046 0.3681486
vt 0.6286874 0.3528909
vt 0.6300554 0.3706436
vt 0.603403 0.3526732
vt 0.6029677 0.3718328
vt 0.5836216 0.35087
vt 0.5808623 0.3705348
vt 0.5648196 0.3478464
vt 0.5569149 0.3667573
vt 0.5561842 0.3445664
vt 0.5420302 0.3623502
vt 0.6305995 0.3782685
vt 0.6027346 0.3802739
vt 0.6569487 0.3747942
vt 0.5796421 0.3794034
vt 0.6816346 0.3704259
vt 0.554039 0.3761311
vt 0.5396596 0.3724701
vt 0.5284826 0.3686926
vt 0.5373278 0.3587126
vt 0.5350038 0.3545464
vt 0.5500283 0.3388535
vt 0.5522124 0.341776
vt 0.5237646 0.3625212
vt 0.554653 0.3332649
vt 0.5570159 0.3352548
vt 0.5595031 0.3312285
vt 0.5612442 0.3275132
vt 0.5587648 0.3265727
vt 0.5574201 0.3294175
vt 0.5586404 0.3235803
vt 0.557902 0.3262152
vt 0.5565573 0.3288656
vt 0.5537359 0.3325576
vt 0.54901 0.3378897
vt 0.5342887 0.352852
vt 0.524363 0.3585727
vt 0.5235624 0.3493155
vt 0.5221012 0.3494398
vt 0.5242931 0.3206655
vt 0.5225365 0.3205256
vt 0.5248371 0.3015526
vt 0.5266249 0.3020345
vt 0.5324 0.2813671
vt 0.5399005 0.2916503
vt 0.5502148 0.3077629
vt 0.5539535 0.3140277
vt 0.5568371 0.3181783
vt 0.5580808 0.3209142
vt 0.7754192 0.3301715
vn 0.4901017 0.8477464 -0.2027962
vn 0.5568138 0.8170949 -0.1493797
vn 0.3440563 0.9216706 -0.1793001
vn 0.2953745 0.9270797 -0.2308181
vn 0.4197836 0.8693827 -0.2606827
vn 0.2466927 0.9270797 -0.2822514
vn 0.3981472 0.9072464 -0.1355831
vn 0.6163138 0.7792313 -0.113824
vn 0.6631926 0.7287464 -0.1706001
vn 0.7046623 0.6998979 -0.1165932
vn 0.6091017 0.763004 -0.2163794
vn 0.7353138 0.6728525 -0.08113701
vn 0.5243593 0.8026707 -0.2841956
vn 0.3729048 0.8729888 -0.3143765
vn 0.5225562 0.7918524 -0.3160771
vn 0.266526 0.88561 -0.3803403
vn 0.1835867 0.9252767 -0.3319021
vn 0.4251927 0.8116857 -0.4004715
vn 0.20342 0.8693827 -0.4503266
vn 0.6379502 0.764807 -0.08994321
vn 0.746132 0.6602313 -0.08591686
vn 0.6378822 0.770134 0
vn 0.7443289 0.6656404 -0.05382678
vn 0.4251927 0.8964282 -0.125011
vn 0.4359744 0.899959 0
vn 0.506329 0.7792313 -0.3693638
vn 0.6181169 0.7467768 -0.245471
vn 0.4414199 0.7828373 -0.4385364
vn 0.2845563 0.8351251 -0.4707374
vn 0.6776168 0.701701 -0.2201162
vn 0.692041 0.6926858 -0.2031393
vn 0.7244956 0.6674435 -0.1721202
vn 0.746132 0.6476101 -0.1545581
vn 0.7569501 0.6385949 -0.1386472
vn 0.7821925 0.6115494 -0.1190887
vn 0.7839956 0.6151555 -0.08327451
vn 0.809238 0.5845041 -0.05906639
vn 0.8038289 0.5917161 -0.06108323
vn 0.8290713 0.5574586 -0.04336641
vn 0.8146471 0.5754889 -0.07185204
vn 0.8416925 0.5394283 -0.02389275
vn 0.8200562 0.5718828 -0.02139959
vn 0.8452986 0.5340192 -0.01714121
vn 0.7587532 0.644004 -0.09773648
vn 0.7966168 0.6043374 0.01334201
vn 0.7353138 0.6656404 -0.1274225
vn 0.811041 0.582701 0.05169155
vn 0.7226925 0.6692464 -0.1726986
vn 0.8253638 0.5646014 0
vn 0.8182532 0.5700797 0.07396494
vn 0.690238 0.6872768 0.226323
vn 0.7659653 0.5592616 0.3170546
vn 0.4684654 0.4655041 0.7508969
vn 0.4179805 0.4709131 0.7768739
vn 0.7353138 0.5917161 0.3304325
vn 0.4143745 0.4420647 0.7955329
vn 0.383723 0.5159889 0.7658408
vn 0.6667987 0.6728525 0.3203891
vn 0.565829 0.763004 0.3125099
vn 0.3711018 0.8747918 0.3114848
vn 0.1962079 0.6295797 0.7517526
vn -0.0003224015 0.6638374 0.7478769
vn -0.0003224015 0.9469131 0.3214895
vn 0.3152078 0.5754889 0.7546235
vn -0.0003224015 0.9992009 -0.03996829
vn -0.0003224015 0.9901857 -0.1397577
vn -0.0003224015 0.9883828 -0.1519849
vn -0.0003224015 0.9811706 -0.1931429
vn -0.0003224015 0.9685494 -0.248821
vn -0.0003224015 0.9559281 -0.2936005
vn -0.0003224015 0.9378979 -0.3469114
vn -0.0003224015 0.9180645 -0.3964308
vn 0.001480639 0.883807 -0.4678493
vn 0.09163213 0.8657767 -0.4919698
vn 0.08442003 0.8747918 -0.4770876
vn -0.2960193 0.9270797 -0.2299907
vn -0.2455345 0.9270797 -0.2832595
vn -0.4222314 0.8693827 -0.2566991
vn -0.4889434 0.8477464 -0.2055732
vn -0.3447011 0.9216706 -0.1780574
vn -0.5574586 0.8170949 -0.1469554
vn -0.398792 0.9072464 -0.1336747
vn -0.6169586 0.7792313 -0.1102759
vn -0.6638374 0.7287464 -0.1680736
vn -0.7053071 0.6998979 -0.1126266
vn -0.6079434 0.763004 -0.2196127
vn -0.7359585 0.6728525 -0.07506441
vn -0.5250041 0.8008676 -0.2880656
vn -0.3789586 0.8711857 -0.3121311
vn -0.519595 0.7918524 -0.3209218
vn -0.2707768 0.88561 -0.3773258
vn -0.1842315 0.9252767 -0.3315446
vn -0.4132162 0.8134888 -0.4092534
vn -0.2022617 0.8675798 -0.4543077
vn -0.6385949 0.764807 -0.08524495
vn -0.7467768 0.6602313 -0.08011924
vn -0.6367919 0.770216 -0.03554406
vn -0.7449737 0.6656404 -0.04401172
vn -0.4240344 0.8964282 -0.1288852
vn -0.4348525 0.9000342 -0.02901065
vn -0.5087767 0.763004 -0.3987118
vn -0.5845041 0.7666101 -0.265827
vn -0.4330495 0.7738221 -0.4622418
vn -0.2707768 0.829716 -0.4881098
vn -0.6818677 0.6962919 -0.2241297
vn -0.6926858 0.6890797 -0.2129685
vn -0.7251404 0.6656404 -0.1763356
vn -0.7431707 0.649413 -0.1611212
vn -0.7575949 0.6385949 -0.1350797
vn -0.7792313 0.6151555 -0.1199265
vn -0.7828373 0.6151555 -0.09353837
vn -0.8062767 0.58811 -0.0635957
vn -0.8044737 0.5917161 -0.05190472
vn -0.8261101 0.5610647 -0.05242689
vn -0.8152918 0.5754889 -0.06412353
vn -0.8369282 0.5448374 -0.05199393
vn -0.8188979 0.5718828 -0.04854164
vn -0.8421205 0.5392894 0
vn -0.7503827 0.6385949 -0.1706526
vn -0.7575949 0.6512161 -0.04435774
vn -0.7287464 0.6602313 -0.1817234
vn -0.7882465 0.6133525 -0.04966147
vn -0.7161252 0.6656404 -0.2099704
vn -0.8008676 0.5971252 -0.0453047
vn -0.8204549 0.5717113 0
vn -0.7071101 0.5772919 0.4083251
vn -0.7666101 0.5538525 0.3248944
vn -0.4240344 0.4366556 0.7934272
vn -0.4186253 0.4709131 0.7765267
vn -0.7359585 0.5917161 0.3289941
vn -0.1607921 0.3843678 0.9090695
vn -0.3843678 0.5159889 0.7655174
vn -0.6656404 0.6728525 0.3227885
vn -0.5664738 0.763004 0.3113395
vn -0.3699434 0.8747918 0.3128596
vn -0.1968526 0.6295797 0.751584
vn -0.3140495 0.5754889 0.7551063
vn -0.0003224015 0.03097391 0.9995201
vn 0.0645867 0.03818601 0.9971812
vn 0.1078594 0.05982238 0.9923646
vn 0.1331018 0.08145875 0.9877492
vn 0.1475261 0.09768599 0.9842223
vn 0.1583443 0.1030951 0.981987
vn 0.1150715 0.3122465 0.9430062
vn 0.001480639 0.4330495 0.9013689
vn 0.1006473 0.5250041 0.8451277
vn 0.001480639 0.3735495 0.927609
vn 0.1060564 0.4637011 0.8796211
vn 0.1331018 0.4240344 0.8958117
vn -0.002125382 0.3014284 0.9534864
vn -0.02917087 0.2293071 0.972917
vn -0.1409587 0.1139132 0.9834401
vn -0.1481708 0.09768599 0.9841254
vn -0.1337466 0.08145875 0.9876621
vn -0.1085042 0.05982238 0.9922944
vn -0.0634284 0.03818601 0.9972556
vn -0.1373526 0.882004 -0.4507807
g model_car_25_body_roof_LOD1_0
f 3/3/3 2/2/2 1/1/1
f 4/4/4 3/3/3 1/1/1
f 4/4/4 1/1/1 5/5/5
f 6/6/6 4/4/4 5/5/5
f 3/3/3 7/7/7 2/2/2
f 7/7/7 8/8/8 2/2/2
f 1/1/1 2/2/2 9/9/9
f 2/2/2 10/10/10 9/9/9
f 2/2/2 8/8/8 10/10/10
f 1/1/1 9/9/9 11/11/11
f 5/5/5 1/1/1 11/11/11
f 8/8/8 12/12/12 10/10/10
f 5/5/5 11/11/11 13/13/13
f 14/14/14 5/5/5 13/13/13
f 6/6/6 5/5/5 14/14/14
f 14/14/14 13/13/13 15/15/15
f 16/16/16 14/14/14 15/15/15
f 17/17/17 14/14/14 16/16/16
f 17/17/17 6/6/6 14/14/14
f 16/16/16 15/15/15 18/18/18
f 19/19/19 16/16/16 18/18/18
f 8/8/8 20/20/20 12/12/12
f 20/20/20 21/21/21 12/12/12
f 20/20/20 22/22/22 21/21/21
f 22/22/22 23/23/23 21/21/21
f 24/24/24 20/20/20 8/8/8
f 25/25/25 22/22/22 20/20/20
f 24/24/24 25/25/25 20/20/20
f 18/18/18 15/15/15 26/26/26
f 15/15/15 27/27/27 26/26/26
f 18/18/18 26/26/26 28/28/28
f 29/29/29 18/18/18 28/28/28
f 19/19/19 18/18/18 29/29/29
f 15/15/15 30/30/30 27/27/27
f 30/30/30 31/31/31 27/27/27
f 30/30/30 32/32/32 31/31/31
f 32/32/32 33/33/33 31/31/31
f 32/32/32 34/34/34 33/33/33
f 34/34/34 35/35/35 33/33/33
f 34/34/34 36/36/36 35/35/35
f 36/36/36 37/37/37 35/35/35
f 36/36/36 38/38/38 37/37/37
f 38/38/38 39/39/39 37/37/37
f 38/38/38 40/40/40 39/39/39
f 40/40/40 41/41/41 39/39/39
f 40/40/40 42/42/42 41/41/41
f 42/42/42 43/43/43 41/41/41
f 35/35/35 37/37/37 44/44/44
f 37/37/37 45/45/45 44/44/44
f 37/37/37 39/39/39 45/45/45
f 35/35/35 44/44/44 46/46/46
f 33/33/33 35/35/35 46/46/46
f 39/39/39 47/47/47 45/45/45
f 39/39/39 41/41/41 47/47/47
f 33/33/33 46/46/46 48/48/48
f 31/31/31 33/33/33 48/48/48
f 31/31/31 48/48/48 27/27/27
f 41/41/41 49/49/49 47/47/47
f 41/41/41 43/43/43 49/49/49
f 43/43/43 50/50/50 49/49/49
f 51/51/51 50/50/50 43/43/43
f 52/52/52 51/51/51 43/43/43
f 52/52/52 43/43/43 42/42/42
f 51/51/51 52/52/52 53/53/53
f 53/53/53 52/52/52 54/54/54
f 52/52/52 55/55/55 54/54/54
f 55/55/55 52/52/52 42/42/42
f 56/56/56 51/51/51 53/53/53
f 54/54/54 55/55/55 57/57/57
f 55/55/55 58/58/58 57/57/57
f 58/58/58 55/55/55 23/23/23
f 55/55/55 42/42/42 23/23/23
f 58/58/58 23/23/23 22/22/22
f 59/59/59 58/58/58 22/22/22
f 59/59/59 22/22/22 25/25/25
f 60/60/60 59/59/59 25/25/25
f 59/59/59 60/60/60 61/61/61
f 61/61/61 60/60/60 62/62/62
f 60/60/60 63/63/63 62/62/62
f 64/64/64 59/59/59 61/61/61
f 58/58/58 59/59/59 64/64/64
f 57/57/57 58/58/58 64/64/64
f 60/60/60 25/25/25 65/65/65
f 63/63/63 60/60/60 65/65/65
f 65/65/65 25/25/25 24/24/24
f 66/66/66 65/65/65 24/24/24
f 66/66/66 24/24/24 7/7/7
f 7/7/7 24/24/24 8/8/8
f 67/67/67 66/66/66 7/7/7
f 67/67/67 7/7/7 3/3/3
f 68/68/68 67/67/67 3/3/3
f 69/69/69 68/68/68 3/3/3
f 4/4/4 69/69/69 3/3/3
f 70/70/70 69/69/69 4/4/4
f 6/6/6 70/70/70 4/4/4
f 71/71/71 70/70/70 6/6/6
f 17/17/17 71/71/71 6/6/6
f 72/72/72 71/71/71 17/17/17
f 16/16/16 72/72/72 17/17/17
f 73/73/73 72/72/72 16/16/16
f 19/19/19 73/73/73 16/16/16
f 74/74/74 73/73/73 19/19/19
f 75/75/75 74/74/74 19/19/19
f 75/75/75 19/19/19 29/29/29
f 69/69/69 70/70/70 76/76/76
f 70/70/70 77/77/77 76/76/76
f 70/70/70 71/71/71 77/77/77
f 76/76/76 77/77/77 78/78/78
f 79/79/79 76/76/76 78/78/78
f 80/80/80 76/76/76 79/79/79
f 81/81/81 80/80/80 79/79/79
f 82/82/82 80/80/80 81/81/81
f 83/83/83 82/82/82 81/81/81
f 81/81/81 79/79/79 84/84/84
f 85/85/85 81/81/81 84/84/84
f 83/83/83 81/81/81 85/85/85
f 79/79/79 78/78/78 86/86/86
f 84/84/84 79/79/79 86/86/86
f 87/87/87 83/83/83 85/85/85
f 86/86/86 78/78/78 88/88/88
f 78/78/78 89/89/89 88/88/88
f 78/78/78 77/77/77 89/89/89
f 88/88/88 89/89/89 90/90/90
f 89/89/89 91/91/91 90/90/90
f 89/89/89 92/92/92 91/91/91
f 77/77/77 92/92/92 89/89/89
f 90/90/90 91/91/91 93/93/93
f 91/91/91 94/94/94 93/93/93
f 95/95/95 83/83/83 87/87/87
f 96/96/96 95/95/95 87/87/87
f 97/97/97 95/95/95 96/96/96
f 98/98/98 97/97/97 96/96/96
f 95/95/95 99/99/99 83/83/83
f 100/100/100 99/99/99 95/95/95
f 97/97/97 100/100/100 95/95/95
f 90/90/90 93/93/93 101/101/101
f 102/102/102 90/90/90 101/101/101
f 101/101/101 93/93/93 103/103/103
f 93/93/93 104/104/104 103/103/103
f 93/93/93 94/94/94 104/104/104
f 105/105/105 90/90/90 102/102/102
f 106/106/106 105/105/105 102/102/102
f 107/107/107 105/105/105 106/106/106
f 108/108/108 107/107/107 106/106/106
f 109/109/109 107/107/107 108/108/108
f 110/110/110 109/109/109 108/108/108
f 111/111/111 109/109/109 110/110/110
f 112/112/112 111/111/111 110/110/110
f 113/113/113 111/111/111 112/112/112
f 114/114/114 113/113/113 112/112/112
f 115/115/115 113/113/113 114/114/114
f 116/116/116 115/115/115 114/114/114
f 117/117/117 115/115/115 116/116/116
f 118/118/118 117/117/117 116/116/116
f 112/112/112 110/110/110 119/119/119
f 120/120/120 112/112/112 119/119/119
f 114/114/114 112/112/112 120/120/120
f 110/110/110 108/108/108 121/121/121
f 119/119/119 110/110/110 121/121/121
f 122/122/122 114/114/114 120/120/120
f 116/116/116 114/114/114 122/122/122
f 121/121/121 108/108/108 123/123/123
f 108/108/108 106/106/106 123/123/123
f 123/123/123 106/106/106 102/102/102
f 124/124/124 116/116/116 122/122/122
f 118/118/118 116/116/116 124/124/124
f 125/125/125 118/118/118 124/124/124
f 125/125/125 126/126/126 118/118/118
f 126/126/126 127/127/127 118/118/118
f 118/118/118 127/127/127 117/117/117
f 127/127/127 126/126/126 128/128/128
f 127/127/127 128/128/128 129/129/129
f 130/130/130 127/127/127 129/129/129
f 126/126/126 131/131/131 128/128/128
f 130/130/130 129/129/129 132/132/132
f 133/133/133 130/130/130 132/132/132
f 127/127/127 130/130/130 117/117/117
f 130/130/130 133/133/133 98/98/98
f 117/117/117 130/130/130 98/98/98
f 98/98/98 133/133/133 97/97/97
f 133/133/133 134/134/134 97/97/97
f 97/97/97 134/134/134 100/100/100
f 134/134/134 135/135/135 100/100/100
f 135/135/135 134/134/134 136/136/136
f 135/135/135 136/136/136 62/62/62
f 63/63/63 135/135/135 62/62/62
f 134/134/134 137/137/137 136/136/136
f 133/133/133 132/132/132 137/137/137
f 134/134/134 133/133/133 137/137/137
f 135/135/135 63/63/63 65/65/65
f 100/100/100 135/135/135 65/65/65
f 100/100/100 65/65/65 99/99/99
f 65/65/65 66/66/66 99/99/99
f 99/99/99 66/66/66 82/82/82
f 99/99/99 82/82/82 83/83/83
f 66/66/66 67/67/67 82/82/82
f 82/82/82 67/67/67 80/80/80
f 67/67/67 68/68/68 80/80/80
f 68/68/68 69/69/69 80/80/80
f 69/69/69 76/76/76 80/80/80
f 62/62/62 136/136/136 138/138/138
f 136/136/136 139/139/139 138/138/138
f 136/136/136 137/137/137 139/139/139
f 137/137/137 140/140/140 139/139/139
f 137/137/137 132/132/132 140/140/140
f 132/132/132 141/141/141 140/140/140
f 132/132/132 129/129/129 141/141/141
f 129/129/129 142/142/142 141/141/141
f 129/129/129 128/128/128 142/142/142
f 128/128/128 143/143/143 142/142/142
f 128/128/128 131/131/131 143/143/143
f 131/131/131 144/144/144 143/143/143
f 145/145/145 144/144/144 131/131/131
f 146/146/146 145/145/145 131/131/131
f 147/147/147 145/145/145 146/146/146
f 148/148/148 147/147/147 146/146/146
f 147/147/147 148/148/148 149/149/149
f 150/150/150 147/147/147 149/149/149
f 150/150/150 149/149/149 56/56/56
f 151/151/151 150/150/150 56/56/56
f 151/151/151 56/56/56 152/152/152
f 56/56/56 53/53/53 152/152/152
f 152/152/152 53/53/53 153/153/153
f 53/53/53 54/54/54 153/153/153
f 153/153/153 54/54/54 154/154/154
f 54/54/54 57/57/57 154/154/154
f 154/154/154 57/57/57 155/155/155
f 57/57/57 64/64/64 155/155/155
f 155/155/155 64/64/64 156/156/156
f 64/64/64 61/61/61 156/156/156
f 156/156/156 61/61/61 138/138/138
f 61/61/61 62/62/62 138/138/138
f 23/23/23 42/42/42 40/40/40
f 21/21/21 23/23/23 40/40/40
f 21/21/21 40/40/40 38/38/38
f 12/12/12 21/21/21 38/38/38
f 12/12/12 38/38/38 36/36/36
f 10/10/10 12/12/12 36/36/36
f 10/10/10 36/36/36 34/34/34
f 9/9/9 10/10/10 34/34/34
f 9/9/9 34/34/34 32/32/32
f 11/11/11 9/9/9 32/32/32
f 11/11/11 32/32/32 30/30/30
f 13/13/13 11/11/11 30/30/30
f 13/13/13 30/30/30 15/15/15
f 72/72/72 91/91/91 92/92/92
f 71/71/71 72/72/72 92/92/92
f 72/72/72 73/73/73 91/91/91
f 73/73/73 94/94/94 91/91/91
f 71/71/71 92/92/92 77/77/77
f 73/73/73 74/74/74 94/94/94
f 74/74/74 157/157/157 94/94/94
f 94/94/94 157/157/157 104/104/104
f 98/98/98 96/96/96 115/115/115
f 117/117/117 98/98/98 115/115/115
f 115/115/115 96/96/96 113/113/113
f 96/96/96 87/87/87 113/113/113
f 113/113/113 87/87/87 111/111/111
f 87/87/87 85/85/85 111/111/111
f 111/111/111 85/85/85 109/109/109
f 85/85/85 84/84/84 109/109/109
f 109/109/109 84/84/84 107/107/107
f 84/84/84 86/86/86 107/107/107
f 107/107/107 86/86/86 105/105/105
f 86/86/86 88/88/88 105/105/105
f 105/105/105 88/88/88 90/90/90
