g model_car_25_matte_backlight_LOD1
v 0.823033 0.6520708 -2.22018
v 0.8107479 0.6565034 -2.218184
v 0.8096404 0.6580994 -2.229936
v 0.8202467 0.6541643 -2.231449
v 0.8003755 0.6586826 -2.230123
v 0.8000143 0.657069 -2.218196
v 0.8335772 0.6416037 -2.225432
v 0.8293281 0.6450562 -2.235799
v 0.8379476 0.6297982 -2.231517
v 0.8330885 0.6348319 -2.240936
v 0.837453 0.6203141 -2.236548
v 0.8326622 0.6266298 -2.245283
v 0.833666 0.6114695 -2.241336
v 0.8293962 0.619029 -2.249461
v 0.8269563 0.6041293 -2.245413
v 0.8236104 0.6127517 -2.253079
v 0.7914422 0.6567078 -2.231642
v 0.7896537 0.6546764 -2.219762
v 0.783705 0.6523697 -2.234342
v 0.7806818 0.64956 -2.222729
v 0.7779193 0.6460924 -2.237957
v 0.7739723 0.6422195 -2.226803
v 0.7746533 0.6384916 -2.242138
v 0.7701851 0.6333721 -2.231591
v 0.7742269 0.6303105 -2.24647
v 0.7696906 0.623888 -2.236622
v 0.7766786 0.6223483 -2.250533
v 0.7725362 0.6146941 -2.241404
v 0.7817745 0.615387 -2.253929
v 0.7784433 0.6066875 -2.245466
v 0.7890111 0.6101046 -2.256325
v 0.7868348 0.6006532 -2.248413
v 0.797684 0.6070223 -2.257485
v 0.7968904 0.5971859 -2.249955
v 0.806937 0.6064417 -2.257296
v 0.807624 0.5966172 -2.249943
v 0.8158704 0.6084139 -2.25578
v 0.8179845 0.5990098 -2.24838
v 0.8119944 0.6210041 -2.263689
v 0.8056164 0.6195946 -2.264772
v 0.792819 0.6222091 -2.264079
v 0.787652 0.6259785 -2.262371
v 0.7990074 0.6200092 -2.264909
v 0.8175197 0.6240983 -2.261761
v 0.8216473 0.6285813 -2.259182
v 0.8239806 0.6340058 -2.256197
v 0.8242855 0.6398478 -2.253103
v 0.821594 0.6471527 -2.249431
v 0.8151034 0.6536639 -2.246322
v 0.8075382 0.6564708 -2.245242
v 0.8009322 0.6568854 -2.245375
v 0.7945541 0.6554759 -2.246459
v 0.7890289 0.6523817 -2.248386
v 0.7848983 0.6478987 -2.250968
v 0.782568 0.6424742 -2.253953
v 0.782263 0.6366322 -2.257044
v 0.7840159 0.63095 -2.259946
v 0.7940093 0.64622 -2.260209
v 0.7959872 0.6483636 -2.258975
v 0.7935889 0.6381097 -2.264506
v 0.792748 0.6408279 -2.26312
v 0.7953269 0.6357319 -2.265666
v 0.7977993 0.6339257 -2.266484
v 0.8007604 0.6328747 -2.266881
v 0.8039228 0.6326764 -2.266815
v 0.8069755 0.6333485 -2.266297
v 0.8096167 0.6348319 -2.265376
v 0.8115947 0.6369755 -2.264142
v 0.812711 0.6395724 -2.262712
v 0.8128561 0.6423647 -2.261234
v 0.811568 0.6458616 -2.259475
v 0.8084619 0.6489766 -2.257989
v 0.8048435 0.6503208 -2.25747
v 0.8016813 0.6505191 -2.257536
v 0.7986314 0.6498442 -2.258054
v 0.8024186 0.6425216 -2.264494
v 0.792896 0.6436231 -2.261636
v -0.7928958 0.6436231 -2.261636
v -0.7940092 0.64622 -2.260209
v -0.8024185 0.6425216 -2.264494
v -0.7927477 0.6408279 -2.26312
v -0.7986312 0.6498442 -2.258054
v -0.801681 0.6505191 -2.257536
v -0.8048434 0.6503208 -2.25747
v -0.7959871 0.6483636 -2.258975
v -0.7890289 0.6523817 -2.248386
v -0.7849011 0.6478987 -2.250968
v -0.783705 0.6523697 -2.234342
v -0.7779191 0.6460924 -2.237957
v -0.7806816 0.64956 -2.222729
v -0.7896535 0.6546764 -2.219762
v -0.7914419 0.6567078 -2.231642
v -0.773972 0.6422195 -2.226803
v -0.7746532 0.6384916 -2.242138
v -0.770185 0.6333721 -2.231591
v -0.7742267 0.6303105 -2.24647
v -0.7696905 0.623888 -2.236622
v -0.7766814 0.6223483 -2.250533
v -0.772536 0.6146941 -2.241404
v -0.800014 0.657069 -2.218196
v -0.8003752 0.6586826 -2.230123
v -0.8107476 0.6565034 -2.218184
v -0.8096402 0.6580994 -2.229936
v -0.8230329 0.6520708 -2.22018
v -0.8202465 0.6541643 -2.231449
v -0.83358 0.6416037 -2.225432
v -0.8293278 0.6450562 -2.235799
v -0.8379474 0.6297982 -2.231517
v -0.8330884 0.6348319 -2.240936
v -0.8374529 0.6203141 -2.236548
v -0.8326621 0.6266298 -2.245283
v -0.8336658 0.6114695 -2.241336
v -0.829396 0.619029 -2.249461
v -0.8269563 0.6041293 -2.245413
v -0.8236103 0.6127517 -2.253079
v -0.8179843 0.5990098 -2.24838
v -0.8158731 0.6084139 -2.25578
v -0.8076239 0.5966172 -2.249943
v -0.806937 0.6064417 -2.257296
v -0.7968903 0.5971859 -2.249955
v -0.7976837 0.6070223 -2.257485
v -0.7868347 0.6006532 -2.248413
v -0.789011 0.6101046 -2.256325
v -0.7784431 0.6066875 -2.245466
v -0.7817743 0.615387 -2.253929
v -0.8119943 0.6210041 -2.263689
v -0.8056164 0.6195946 -2.264772
v -0.7928188 0.6222091 -2.264079
v -0.787652 0.6259785 -2.262371
v -0.7990103 0.6200092 -2.264909
v -0.7840159 0.63095 -2.259946
v -0.7822628 0.6366322 -2.257044
v -0.782568 0.6424742 -2.253953
v -0.8069754 0.6333485 -2.266297
v -0.8039227 0.6326764 -2.266815
v -0.8096166 0.6348319 -2.265376
v -0.7977993 0.6339257 -2.266484
v -0.7935886 0.6381097 -2.264506
v -0.7953267 0.6357319 -2.265666
v -0.8007603 0.6328747 -2.266881
v -0.8115945 0.6369755 -2.264142
v -0.8175194 0.6240983 -2.261761
v -0.8216472 0.6285813 -2.259182
v -0.8239803 0.6340058 -2.256197
v -0.8242853 0.6398478 -2.253103
v -0.8215938 0.6471527 -2.249431
v -0.8151033 0.6536639 -2.246322
v -0.807538 0.6564708 -2.245242
v -0.8009319 0.6568854 -2.245375
v -0.794554 0.6554759 -2.246459
v -0.8084619 0.6489766 -2.257989
v -0.8115678 0.6458616 -2.259475
v -0.812856 0.6423647 -2.261234
v -0.8127108 0.6395724 -2.262712
vt -0.4217332 0.2324139
vt -0.447511 0.1835798
vt -0.4869093 0.2116717
vt -0.4683132 0.2442478
vt -0.5101094 0.1916249
vt -0.4812501 0.1526223
vt -0.4180283 0.2959714
vt -0.4645485 0.288262
vt -0.4364446 0.3479229
vt -0.4766221 0.3250585
vt -0.4624383 0.3814701
vt -0.495374 0.3480548
vt -0.4979158 0.4064807
vt -0.5203606 0.3646365
vt -0.5400477 0.4199331
vt -0.5494237 0.3730173
vt -0.5386089 0.1796232
vt -0.523382 0.1335347
vt -0.5696263 0.1770813
vt -0.5698901 0.1284271
vt -0.6000803 0.1844431
vt -0.6162903 0.1382107
vt -0.6267813 0.2012167
vt -0.6580505 0.1625738
vt -0.6467202 0.2259635
vt -0.6906626 0.2002335
vt -0.6583143 0.2555901
vt -0.7073043 0.2472093
vt -0.6596451 0.287147
vt -0.7078558 0.2956477
vt -0.6509526 0.3172772
vt -0.6933603 0.3409209
vt -0.6333877 0.3429831
vt -0.6658438 0.3788204
vt -0.6088687 0.361843
vt -0.6284 0.4059291
vt -0.5799135 0.3721302
vt -0.5849972 0.4199331
vt -0.5740386 0.325694
vt -0.5891816 0.319855
vt -0.6105713 0.2960074
vt -0.6146837 0.2803248
vt -0.6017708 0.3096278
vt -0.5578405 0.3265692
vt -0.5421699 0.3224447
vt -0.5284896 0.3137162
vt -0.5180826 0.3012229
vt -0.511704 0.2810442
vt -0.5142218 0.2573885
vt -0.5246649 0.2403871
vt -0.5372301 0.2300999
vt -0.5523852 0.2242129
vt -0.5686192 0.2233377
vt -0.5843018 0.2275581
vt -0.5978382 0.2364665
vt -0.6077777 0.2491396
vt -0.6136646 0.2641627
vt -0.5730794 0.2571727
vt -0.5673723 0.2556021
vt -0.5836783 0.2705052
vt -0.5816281 0.265038
vt -0.58405 0.2763442
vt -0.5825872 0.2820394
vt -0.5794219 0.2870151
vt -0.5748539 0.2907799
vt -0.5693506 0.29301
vt -0.5634156 0.2933576
vt -0.5576246 0.2918829
vt -0.552553 0.2886937
vt -0.5487163 0.2840536
vt -0.5462464 0.276608
vt -0.5472295 0.2678555
vt -0.5511861 0.2616448
vt -0.5558741 0.2579401
vt -0.5614374 0.2558178
vt -0.566485 0.274246
vt -0.5779832 0.2604339
vt -0.5779832 0.2604339
vt -0.5730794 0.2571727
vt -0.566485 0.274246
vt -0.5816281 0.265038
vt -0.5614374 0.2558178
vt -0.5558741 0.2579401
vt -0.5511861 0.2616448
vt -0.5673723 0.2556021
vt -0.5686192 0.2233377
vt -0.5843018 0.2275581
vt -0.5696263 0.1770813
vt -0.6000803 0.1844431
vt -0.5698901 0.1284271
vt -0.523382 0.1335347
vt -0.5386089 0.1796232
vt -0.6162903 0.1382107
vt -0.6267813 0.2012167
vt -0.6580505 0.1625738
vt -0.6467202 0.2259635
vt -0.6906626 0.2002335
vt -0.6583143 0.2555901
vt -0.7073043 0.2472093
vt -0.4812501 0.1526223
vt -0.5101094 0.1916249
vt -0.447511 0.1835798
vt -0.4869093 0.2116717
vt -0.4217332 0.2324139
vt -0.4683132 0.2442478
vt -0.4180283 0.2959714
vt -0.4645485 0.288262
vt -0.4364446 0.3479229
vt -0.4766221 0.3250585
vt -0.4624383 0.3814701
vt -0.495374 0.3480548
vt -0.4979158 0.4064807
vt -0.5203606 0.3646365
vt -0.5400477 0.4199331
vt -0.5494237 0.3730173
vt -0.5849972 0.4199331
vt -0.5799135 0.3721302
vt -0.6284 0.4059291
vt -0.6088687 0.361843
vt -0.6658438 0.3788204
vt -0.6333877 0.3429831
vt -0.6933603 0.3409209
vt -0.6509526 0.3172772
vt -0.7078558 0.2956477
vt -0.6596451 0.287147
vt -0.5740386 0.325694
vt -0.5891816 0.319855
vt -0.6105713 0.2960074
vt -0.6146837 0.2803248
vt -0.6017708 0.3096278
vt -0.6136646 0.2641627
vt -0.6077777 0.2491396
vt -0.5978382 0.2364665
vt -0.5693506 0.29301
vt -0.5748539 0.2907799
vt -0.5634156 0.2933576
vt -0.5825872 0.2820394
vt -0.5836783 0.2705052
vt -0.58405 0.2763442
vt -0.5794219 0.2870151
vt -0.5576246 0.2918829
vt -0.5578405 0.3265692
vt -0.5421699 0.3224447
vt -0.5284896 0.3137162
vt -0.5180826 0.3012229
vt -0.511704 0.2810442
vt -0.5142218 0.2573885
vt -0.5246649 0.2403871
vt -0.5372301 0.2300999
vt -0.5523852 0.2242129
vt -0.5472295 0.2678555
vt -0.5462464 0.276608
vt -0.5487163 0.2840536
vt -0.552553 0.2886937
vn 0.1167058 0.5348077 -0.8368754
vn -0.4630309 0.6857232 -0.5615924
vn 0.2178133 0.9759904 0
vn 0.5271225 0.845841 -0.08182208
vn -0.08022064 0.9967566 0.006399093
vn -0.5513716 0.5292864 -0.6448606
vn 0.164557 0.4777543 -0.8629437
vn 0.7590171 0.6157869 -0.2114228
vn 0.1700783 0.8532028 -0.4930705
vn 0.8639218 0.348924 -0.3631682
vn 0.3522813 0.7851067 -0.5094166
vn 0.8547196 0.07838017 -0.5131383
vn 0.1406314 0.3912539 -0.9094741
vn 0.7626979 -0.1424718 -0.6308674
vn 0.1130249 0.3802113 -0.9179677
vn 0.5988994 -0.3301961 -0.7295821
vn -0.3525223 0.9358034 0
vn -0.02132678 0.5881802 -0.8084486
vn -0.5900207 0.8016706 -0.09591558
vn -0.5329673 0.1777636 -0.827252
vn -0.7722237 0.6084251 -0.1830014
vn -0.08942282 0.5090416 -0.8560842
vn -0.8734475 0.37469 -0.3109613
vn -0.09310365 0.4630309 -0.8814387
vn -0.8863305 0.124391 -0.4460326
vn -0.08942282 -0.138791 -0.9862761
vn -0.8071919 -0.1148654 -0.5790054
vn 0.09830141 -0.138791 -0.9854308
vn -0.6470742 -0.317313 -0.6932586
vn -0.01580542 0.3765305 -0.9262694
vn -0.4225413 -0.4645477 -0.7782379
vn 0.414856 0.002922416 -0.9098824
vn -0.1593593 -0.5400055 -0.8264374
vn 0.5179203 0.1262315 -0.8460639
vn 0.1167058 -0.5400055 -0.8335309
vn 0.06333321 0.3710092 -0.926467
vn 0.3780473 -0.4663881 -0.7997264
vn 0.5823355 0.4133391 -0.7000259
vn 0.3412387 -0.3136322 -0.8861101
vn 0.1130249 -0.3780473 -0.918861
vn -0.3599666 -0.3062704 -0.8812619
vn -0.5550525 -0.1737592 -0.8134645
vn -0.1280718 -0.3762069 -0.9176415
vn 0.5326438 -0.1903231 -0.8246622
vn 0.6725167 -0.02468407 -0.7396702
vn 0.7479745 0.1704019 -0.6414806
vn 0.7516553 0.404137 -0.5212366
vn 0.6577932 0.6360316 -0.40345
vn 0.4608668 0.8347984 -0.3011866
vn 0.1976848 0.9489053 -0.2459663
vn -0.05445457 0.9709905 -0.2328352
vn -0.2863492 0.9231393 -0.2565501
vn -0.4924777 0.8108727 -0.3161505
vn -0.650755 0.6470742 -0.3972568
vn -0.7446172 0.442786 -0.4994855
vn -0.7593406 0.2237745 -0.6110048
vn -0.693085 0.008443713 -0.7208064
vn -0.3930944 0.6305103 -0.6692784
vn -0.2937109 0.7335746 -0.612864
vn -0.4391052 0.2035297 -0.8750784
vn -0.4851161 0.3618069 -0.7960893
vn -0.3378814 0.1041462 -0.9354089
vn -0.209051 0.01948631 -0.9777105
vn -0.06181628 -0.02836496 -0.9976844
vn 0.09278011 -0.02652454 -0.9953333
vn 0.2381744 0.0121246 -0.9711467
vn 0.359643 0.09310365 -0.9284334
vn 0.4479838 0.1961679 -0.8722549
vn 0.4884734 0.3249983 -0.8097962
vn 0.4976755 0.4667117 -0.7310946
vn 0.4387816 0.6157869 -0.654429
vn 0.3117917 0.7409363 -0.5948102
vn 0.1498336 0.8071919 -0.5709563
vn -0.01396501 0.8292771 -0.5586631
vn -0.1593593 0.7998301 -0.578685
vn 0.05781192 0.472233 -0.8795759
vn -0.4556691 0.50168 -0.7353114
vn 0.457186 0.50168 -0.7343692
vn 0.3927708 0.6305103 -0.6694683
vn -0.05813545 0.472233 -0.8795546
vn 0.4866329 0.3618069 -0.795163
vn 0.1590357 0.7998301 -0.578774
vn 0.01364148 0.8292771 -0.5586711
vn -0.1501572 0.8071919 -0.5708713
vn 0.2933874 0.7335746 -0.6130189
vn 0.4921542 0.8108727 -0.3166539
vn 0.6504315 0.6470742 -0.3977862
vn 0.5915376 0.8016706 -0.0860671
vn 0.7719001 0.6084251 -0.1843614
vn 0.06517363 0.5550525 -0.8292582
vn -0.4446265 0.7446172 -0.4978479
vn 0.3522391 0.9359101 0
vn -0.1354336 0.8936923 -0.427752
vn 0.873124 0.37469 -0.3118683
vn 0.04492885 0.901054 -0.4313735
vn 0.886007 0.124391 -0.4466749
vn 0.07621622 0.4225413 -0.9031334
vn 0.8068684 -0.1148654 -0.5794561
vn 0.04860973 0.3930944 -0.9182124
vn -0.0360502 0.6029038 -0.796999
vn 0.07989711 0.9967566 0.009630412
vn -0.08390152 0.5937017 -0.8002992
vn -0.2181213 0.9759217 0
vn -0.540329 0.2605831 -0.8000881
vn -0.527446 0.845841 -0.07971033
vn -0.4538286 0.07285887 -0.8881054
vn -0.7575002 0.6157869 -0.2167947
vn -0.1740827 0.4262221 -0.8877105
vn -0.8642454 0.348924 -0.3623976
vn -0.166721 0.4133391 -0.8951843
vn -0.8550432 0.07838017 -0.5125989
vn 0.04124796 -0.1019823 -0.9939306
vn -0.7630215 -0.1424718 -0.6304759
vn 0.2179296 -0.05413103 -0.9744622
vn -0.599223 -0.3301961 -0.7293164
vn -0.08574194 0.37469 -0.9231769
vn -0.3765305 -0.4663881 -0.8004417
vn 0.4829521 0.1704019 -0.8589066
vn -0.1170292 -0.5400055 -0.8334856
vn -0.03973109 0.3691687 -0.9285128
vn 0.1590357 -0.5400055 -0.8264996
vn -0.01396501 0.3710092 -0.9285242
vn 0.4222178 -0.4645477 -0.7784135
vn 0.4847925 0.6415529 -0.5944629
vn 0.6467506 -0.317313 -0.6935604
vn -0.3397217 -0.3136322 -0.8866928
vn -0.1133484 -0.3780473 -0.9188212
vn 0.359643 -0.3062704 -0.881394
vn 0.554729 -0.1737592 -0.8136851
vn 0.1295888 -0.3762069 -0.9174286
vn 0.6927615 0.01028413 -0.7210935
vn 0.7590171 0.2237745 -0.6114066
vn 0.7442936 0.442786 -0.4999675
vn -0.2384979 0.01028413 -0.9710886
vn -0.09310365 -0.02652454 -0.995303
vn -0.3599666 0.09310365 -0.928308
vn 0.2087274 0.01948631 -0.9777797
vn 0.4387816 0.2035297 -0.8752407
vn 0.3375578 0.1041462 -0.9355257
vn 0.06149274 -0.02836496 -0.9977044
vn -0.4483073 0.1961679 -0.8720887
vn -0.5329673 -0.1903231 -0.8244532
vn -0.6728403 -0.02468407 -0.7393758
vn -0.748298 0.1704019 -0.6411032
vn -0.7519789 0.404137 -0.5207697
vn -0.6581168 0.6360316 -0.4029221
vn -0.4611904 0.8347984 -0.300691
vn -0.1980084 0.9489053 -0.2457059
vn 0.05413103 0.9709905 -0.2329105
vn 0.2860256 0.9231393 -0.2569109
vn -0.3121153 0.7409363 -0.5946406
vn -0.4391052 0.6157869 -0.6542119
vn -0.497999 0.4667117 -0.7308742
vn -0.4887969 0.3249983 -0.8096009
g model_car_25_matte_backlight_LOD1_0
f 3/3/3 2/2/2 1/1/1
f 4/4/4 3/3/3 1/1/1
f 3/3/3 5/5/5 2/2/2
f 5/5/5 6/6/6 2/2/2
f 4/4/4 1/1/1 7/7/7
f 8/8/8 4/4/4 7/7/7
f 8/8/8 7/7/7 9/9/9
f 10/10/10 8/8/8 9/9/9
f 10/10/10 9/9/9 11/11/11
f 12/12/12 10/10/10 11/11/11
f 12/12/12 11/11/11 13/13/13
f 14/14/14 12/12/12 13/13/13
f 14/14/14 13/13/13 15/15/15
f 16/16/16 14/14/14 15/15/15
f 5/5/5 17/17/17 6/6/6
f 17/17/17 18/18/18 6/6/6
f 17/17/17 19/19/19 18/18/18
f 19/19/19 20/20/20 18/18/18
f 19/19/19 21/21/21 20/20/20
f 21/21/21 22/22/22 20/20/20
f 21/21/21 23/23/23 22/22/22
f 23/23/23 24/24/24 22/22/22
f 23/23/23 25/25/25 24/24/24
f 25/25/25 26/26/26 24/24/24
f 25/25/25 27/27/27 26/26/26
f 27/27/27 28/28/28 26/26/26
f 27/27/27 29/29/29 28/28/28
f 29/29/29 30/30/30 28/28/28
f 29/29/29 31/31/31 30/30/30
f 31/31/31 32/32/32 30/30/30
f 31/31/31 33/33/33 32/32/32
f 33/33/33 34/34/34 32/32/32
f 33/33/33 35/35/35 34/34/34
f 35/35/35 36/36/36 34/34/34
f 35/35/35 37/37/37 36/36/36
f 37/37/37 38/38/38 36/36/36
f 37/37/37 16/16/16 38/38/38
f 16/16/16 15/15/15 38/38/38
f 39/39/39 37/37/37 35/35/35
f 40/40/40 39/39/39 35/35/35
f 40/40/40 35/35/35 33/33/33
f 41/41/41 31/31/31 29/29/29
f 42/42/42 41/41/41 29/29/29
f 43/43/43 33/33/33 31/31/31
f 41/41/41 43/43/43 31/31/31
f 43/43/43 40/40/40 33/33/33
f 44/44/44 16/16/16 37/37/37
f 39/39/39 44/44/44 37/37/37
f 44/44/44 45/45/45 16/16/16
f 45/45/45 14/14/14 16/16/16
f 45/45/45 46/46/46 14/14/14
f 46/46/46 12/12/12 14/14/14
f 46/46/46 47/47/47 12/12/12
f 47/47/47 10/10/10 12/12/12
f 47/47/47 48/48/48 10/10/10
f 48/48/48 8/8/8 10/10/10
f 48/48/48 49/49/49 8/8/8
f 49/49/49 4/4/4 8/8/8
f 49/49/49 50/50/50 4/4/4
f 50/50/50 3/3/3 4/4/4
f 50/50/50 51/51/51 3/3/3
f 51/51/51 5/5/5 3/3/3
f 51/51/51 52/52/52 5/5/5
f 52/52/52 17/17/17 5/5/5
f 52/52/52 53/53/53 17/17/17
f 53/53/53 19/19/19 17/17/17
f 53/53/53 54/54/54 19/19/19
f 54/54/54 21/21/21 19/19/19
f 54/54/54 55/55/55 21/21/21
f 55/55/55 23/23/23 21/21/21
f 55/55/55 56/56/56 23/23/23
f 56/56/56 25/25/25 23/23/23
f 56/56/56 57/57/57 25/25/25
f 57/57/57 27/27/27 25/25/25
f 57/57/57 42/42/42 27/27/27
f 42/42/42 29/29/29 27/27/27
f 58/58/58 54/54/54 53/53/53
f 59/59/59 58/58/58 53/53/53
f 59/59/59 53/53/53 52/52/52
f 60/60/60 57/57/57 56/56/56
f 61/61/61 60/60/60 56/56/56
f 61/61/61 56/56/56 55/55/55
f 62/62/62 42/42/42 57/57/57
f 60/60/60 62/62/62 57/57/57
f 62/62/62 63/63/63 42/42/42
f 63/63/63 62/62/62 60/60/60
f 63/63/63 41/41/41 42/42/42
f 63/63/63 64/64/64 41/41/41
f 64/64/64 43/43/43 41/41/41
f 64/64/64 65/65/65 43/43/43
f 65/65/65 40/40/40 43/43/43
f 65/65/65 66/66/66 40/40/40
f 66/66/66 39/39/39 40/40/40
f 66/66/66 67/67/67 39/39/39
f 67/67/67 44/44/44 39/39/39
f 67/67/67 68/68/68 44/44/44
f 68/68/68 45/45/45 44/44/44
f 68/68/68 69/69/69 45/45/45
f 69/69/69 46/46/46 45/45/45
f 69/69/69 70/70/70 46/46/46
f 70/70/70 47/47/47 46/46/46
f 70/70/70 71/71/71 47/47/47
f 71/71/71 48/48/48 47/47/47
f 71/71/71 72/72/72 48/48/48
f 72/72/72 49/49/49 48/48/48
f 72/72/72 73/73/73 49/49/49
f 73/73/73 50/50/50 49/49/49
f 73/73/73 74/74/74 50/50/50
f 74/74/74 51/51/51 50/50/50
f 74/74/74 75/75/75 51/51/51
f 75/75/75 52/52/52 51/51/51
f 75/75/75 59/59/59 52/52/52
f 70/70/70 69/69/69 76/76/76
f 71/71/71 70/70/70 76/76/76
f 74/74/74 73/73/73 76/76/76
f 75/75/75 74/74/74 76/76/76
f 72/72/72 71/71/71 76/76/76
f 73/73/73 72/72/72 76/76/76
f 69/69/69 68/68/68 76/76/76
f 68/68/68 67/67/67 76/76/76
f 67/67/67 66/66/66 76/76/76
f 66/66/66 65/65/65 76/76/76
f 58/58/58 59/59/59 75/75/75
f 76/76/76 58/58/58 75/75/75
f 77/77/77 58/58/58 76/76/76
f 58/58/58 77/77/77 54/54/54
f 77/77/77 55/55/55 54/54/54
f 77/77/77 61/61/61 55/55/55
f 61/61/61 77/77/77 76/76/76
f 76/76/76 60/60/60 61/61/61
f 76/76/76 63/63/63 60/60/60
f 64/64/64 63/63/63 76/76/76
f 65/65/65 64/64/64 76/76/76
f 80/80/80 79/79/79 78/78/78
f 81/81/81 80/80/80 78/78/78
f 79/79/79 80/80/80 82/82/82
f 82/82/82 80/80/80 83/83/83
f 80/80/80 84/84/84 83/83/83
f 85/85/85 79/79/79 82/82/82
f 79/79/79 85/85/85 86/86/86
f 87/87/87 79/79/79 86/86/86
f 78/78/78 79/79/79 87/87/87
f 87/87/87 86/86/86 88/88/88
f 89/89/89 87/87/87 88/88/88
f 89/89/89 88/88/88 90/90/90
f 90/90/90 88/88/88 91/91/91
f 88/88/88 92/92/92 91/91/91
f 88/88/88 86/86/86 92/92/92
f 93/93/93 89/89/89 90/90/90
f 94/94/94 89/89/89 93/93/93
f 95/95/95 94/94/94 93/93/93
f 96/96/96 94/94/94 95/95/95
f 97/97/97 96/96/96 95/95/95
f 98/98/98 96/96/96 97/97/97
f 99/99/99 98/98/98 97/97/97
f 91/91/91 92/92/92 100/100/100
f 92/92/92 101/101/101 100/100/100
f 100/100/100 101/101/101 102/102/102
f 101/101/101 103/103/103 102/102/102
f 102/102/102 103/103/103 104/104/104
f 103/103/103 105/105/105 104/104/104
f 104/104/104 105/105/105 106/106/106
f 105/105/105 107/107/107 106/106/106
f 106/106/106 107/107/107 108/108/108
f 107/107/107 109/109/109 108/108/108
f 108/108/108 109/109/109 110/110/110
f 109/109/109 111/111/111 110/110/110
f 110/110/110 111/111/111 112/112/112
f 111/111/111 113/113/113 112/112/112
f 112/112/112 113/113/113 114/114/114
f 113/113/113 115/115/115 114/114/114
f 114/114/114 115/115/115 116/116/116
f 115/115/115 117/117/117 116/116/116
f 116/116/116 117/117/117 118/118/118
f 117/117/117 119/119/119 118/118/118
f 118/118/118 119/119/119 120/120/120
f 119/119/119 121/121/121 120/120/120
f 120/120/120 121/121/121 122/122/122
f 121/121/121 123/123/123 122/122/122
f 122/122/122 123/123/123 124/124/124
f 123/123/123 125/125/125 124/124/124
f 124/124/124 125/125/125 99/99/99
f 125/125/125 98/98/98 99/99/99
f 117/117/117 126/126/126 119/119/119
f 126/126/126 127/127/127 119/119/119
f 119/119/119 127/127/127 121/121/121
f 123/123/123 128/128/128 125/125/125
f 128/128/128 129/129/129 125/125/125
f 125/125/125 129/129/129 98/98/98
f 130/130/130 128/128/128 123/123/123
f 121/121/121 130/130/130 123/123/123
f 127/127/127 130/130/130 121/121/121
f 129/129/129 131/131/131 98/98/98
f 98/98/98 131/131/131 96/96/96
f 131/131/131 132/132/132 96/96/96
f 96/96/96 132/132/132 94/94/94
f 132/132/132 133/133/133 94/94/94
f 94/94/94 133/133/133 89/89/89
f 133/133/133 87/87/87 89/89/89
f 126/126/126 134/134/134 127/127/127
f 134/134/134 135/135/135 127/127/127
f 127/127/127 135/135/135 130/130/130
f 80/80/80 135/135/135 134/134/134
f 136/136/136 80/80/80 134/134/134
f 136/136/136 134/134/134 126/126/126
f 128/128/128 137/137/137 129/129/129
f 137/137/137 80/80/80 138/138/138
f 131/131/131 138/138/138 132/132/132
f 139/139/139 137/137/137 138/138/138
f 137/137/137 139/139/139 129/129/129
f 139/139/139 138/138/138 131/131/131
f 129/129/129 139/139/139 131/131/131
f 135/135/135 140/140/140 130/130/130
f 80/80/80 137/137/137 140/140/140
f 135/135/135 80/80/80 140/140/140
f 140/140/140 137/137/137 128/128/128
f 130/130/130 140/140/140 128/128/128
f 138/138/138 81/81/81 132/132/132
f 132/132/132 81/81/81 133/133/133
f 138/138/138 80/80/80 81/81/81
f 81/81/81 78/78/78 133/133/133
f 133/133/133 78/78/78 87/87/87
f 80/80/80 136/136/136 141/141/141
f 141/141/141 136/136/136 142/142/142
f 143/143/143 141/141/141 142/142/142
f 143/143/143 142/142/142 115/115/115
f 115/115/115 142/142/142 117/117/117
f 142/142/142 126/126/126 117/117/117
f 142/142/142 136/136/136 126/126/126
f 113/113/113 143/143/143 115/115/115
f 144/144/144 143/143/143 113/113/113
f 111/111/111 144/144/144 113/113/113
f 145/145/145 144/144/144 111/111/111
f 109/109/109 145/145/145 111/111/111
f 146/146/146 145/145/145 109/109/109
f 107/107/107 146/146/146 109/109/109
f 147/147/147 146/146/146 107/107/107
f 105/105/105 147/147/147 107/107/107
f 148/148/148 147/147/147 105/105/105
f 103/103/103 148/148/148 105/105/105
f 149/149/149 148/148/148 103/103/103
f 101/101/101 149/149/149 103/103/103
f 150/150/150 149/149/149 101/101/101
f 92/92/92 150/150/150 101/101/101
f 86/86/86 150/150/150 92/92/92
f 147/147/147 151/151/151 146/146/146
f 151/151/151 152/152/152 146/146/146
f 146/146/146 152/152/152 145/145/145
f 152/152/152 153/153/153 145/145/145
f 150/150/150 82/82/82 149/149/149
f 82/82/82 83/83/83 149/149/149
f 149/149/149 83/83/83 148/148/148
f 84/84/84 151/151/151 147/147/147
f 148/148/148 84/84/84 147/147/147
f 83/83/83 84/84/84 148/148/148
f 85/85/85 82/82/82 150/150/150
f 86/86/86 85/85/85 150/150/150
f 80/80/80 152/152/152 151/151/151
f 84/84/84 80/80/80 151/151/151
f 152/152/152 80/80/80 153/153/153
f 80/80/80 154/154/154 153/153/153
f 153/153/153 154/154/154 144/144/144
f 144/144/144 154/154/154 143/143/143
f 154/154/154 141/141/141 143/143/143
f 154/154/154 80/80/80 141/141/141
f 145/145/145 153/153/153 144/144/144
