g model_car_25_matte_mirror_LOD1
v -0.7980038 1.043532 -0.1168962
v -0.7530875 1.016853 -0.1097911
v -0.747281 1.032082 -0.1082031
v -0.7464795 1.048379 -0.106847
v -0.7507612 1.064151 -0.1058564
v -0.7597066 1.077855 -0.1053277
v -0.7724402 1.088149 -0.1053128
v -0.7877134 1.094026 -0.1058137
v -0.7770057 0.9953225 -0.1130375
v -0.7633296 1.004188 -0.111457
v -0.8090956 0.9920092 -0.1153453
v -0.8243707 0.9978863 -0.1158462
v -0.8371043 1.00818 -0.1158314
v -0.7927742 0.9911262 -0.114377
v -0.8460479 1.021884 -0.1153026
v -0.8503295 1.037656 -0.114312
v -0.8495281 1.053956 -0.1129559
v -0.8437215 1.069183 -0.1113661
v -0.8198053 1.090713 -0.1081215
v -0.8334813 1.081847 -0.1097001
v -0.8040348 1.094909 -0.1067821
v 0.798004 1.043532 -0.1168962
v 0.7877136 1.094026 -0.1058137
v 0.7724385 1.088149 -0.1053128
v 0.7597067 1.077855 -0.1053277
v 0.7507613 1.064151 -0.1058564
v 0.7464797 1.048379 -0.106847
v 0.7472811 1.032082 -0.1082031
v 0.7530876 1.016853 -0.1097911
v 0.8198054 1.090713 -0.1081215
v 0.8040349 1.094909 -0.1067821
v 0.8437217 1.069183 -0.1113661
v 0.8334795 1.081847 -0.1097001
v 0.8495282 1.053956 -0.1129559
v 0.8503296 1.037656 -0.114312
v 0.846048 1.021884 -0.1153026
v 0.8371044 1.00818 -0.1158314
v 0.8243709 0.9978863 -0.1158462
v 0.8090957 0.9920092 -0.1153453
v 0.7770039 0.9953225 -0.1130375
v 0.7633298 1.004188 -0.111457
v 0.7927743 0.9911262 -0.114377
vn 0.06341065 0.07961808 -0.9948065
vn 0.1619745 0.02181374 -0.9865538
vn 0.1805015 0.05405077 -0.9820884
vn 0.1767961 0.09073432 -0.9800563
vn 0.1723496 0.1277884 -0.9767117
vn 0.1475234 0.155579 -0.9767457
vn 0.1226972 0.182999 -0.9754264
vn 0.08638418 0.1907803 -0.9778244
vn 0.1097282 -0.02524495 -0.993641
vn 0.1434475 -0.01042332 -0.989603
vn 0.03932551 -0.03265576 -0.9986927
vn 0.003012508 -0.0248744 -0.9996861
vn -0.02181374 0.002916142 -0.9997578
vn 0.0756385 -0.04043712 -0.9963151
vn -0.0470105 0.03033617 -0.9984336
vn -0.05071591 0.06739025 -0.9964368
vn -0.05479185 0.1044443 -0.9930202
vn -0.03626482 0.1363108 -0.9900022
vn 0.01598144 0.18374 -0.9828449
vn -0.01773778 0.1685479 -0.9855338
vn 0.04970065 0.1985617 -0.9788274
vn -0.06331429 0.07961808 -0.9948127
vn -0.08628781 0.1907803 -0.977833
vn -0.1226008 0.182999 -0.9754385
vn -0.1477976 0.155579 -0.9767042
vn -0.1726238 0.1277884 -0.9766633
vn -0.1766998 0.09073432 -0.9800737
vn -0.1804052 0.05405077 -0.9821061
vn -0.1622487 0.02181374 -0.9865088
vn -0.01588507 0.18374 -0.9828466
vn -0.04997483 0.1985617 -0.9788135
vn 0.03636117 0.1363108 -0.9899986
vn 0.01783413 0.1685479 -0.9855321
vn 0.05488822 0.1044443 -0.9930149
vn 0.05081226 0.06739025 -0.9964319
vn 0.04673631 0.03033617 -0.9984465
vn 0.02191009 0.002916142 -0.9997557
vn -0.002916142 -0.0248744 -0.9996863
vn -0.03959969 -0.03265576 -0.9986818
vn -0.1096319 -0.02524495 -0.9936516
vn -0.1437217 -0.01042332 -0.9895632
vn -0.07591267 -0.04043712 -0.9962942
g model_car_25_matte_mirror_LOD1_0
f 3/3/3 2/2/2 1/1/1
f 4/4/4 3/3/3 1/1/1
f 5/5/5 4/4/4 1/1/1
f 6/6/6 5/5/5 1/1/1
f 6/6/6 1/1/1 7/7/7
f 1/1/1 8/8/8 7/7/7
f 1/1/1 2/2/2 9/9/9
f 2/2/2 10/10/10 9/9/9
f 1/1/1 9/9/9 11/11/11
f 1/1/1 11/11/11 12/12/12
f 13/13/13 1/1/1 12/12/12
f 9/9/9 14/14/14 11/11/11
f 13/13/13 15/15/15 1/1/1
f 15/15/15 16/16/16 1/1/1
f 16/16/16 17/17/17 1/1/1
f 17/17/17 18/18/18 1/1/1
f 19/19/19 1/1/1 18/18/18
f 1/1/1 19/19/19 8/8/8
f 20/20/20 19/19/19 18/18/18
f 19/19/19 21/21/21 8/8/8
f 24/24/24 23/23/23 22/22/22
f 25/25/25 24/24/24 22/22/22
f 25/25/25 22/22/22 26/26/26
f 22/22/22 27/27/27 26/26/26
f 27/27/27 22/22/22 28/28/28
f 22/22/22 29/29/29 28/28/28
f 30/30/30 22/22/22 23/23/23
f 31/31/31 30/30/30 23/23/23
f 22/22/22 30/30/30 32/32/32
f 30/30/30 33/33/33 32/32/32
f 22/22/22 32/32/32 34/34/34
f 35/35/35 22/22/22 34/34/34
f 22/22/22 35/35/35 36/36/36
f 37/37/37 22/22/22 36/36/36
f 37/37/37 38/38/38 22/22/22
f 38/38/38 39/39/39 22/22/22
f 29/29/29 22/22/22 40/40/40
f 40/40/40 22/22/22 39/39/39
f 41/41/41 29/29/29 40/40/40
f 42/42/42 40/40/40 39/39/39
