g model_car_42_matte_mirror_LOD1
v 0.9402834 0.8340734 0.3951953
v 0.9354256 0.8941692 0.3956491
v 0.9146875 0.8949316 0.403533
v 0.9236788 0.8307514 0.4041938
v 0.9443243 0.8363189 0.3923653
v 0.9448888 0.8910413 0.3919097
v 0.9495015 0.8865121 0.3906571
v 0.9486284 0.8428957 0.3904284
v 0.9517434 0.8593534 0.390775
v 0.9517271 0.875515 0.3907951
v 0.8906075 0.8243977 0.420675
v 0.826322 0.8979359 0.4275605
v -0.9402834 0.8340734 0.3951953
v -0.9236788 0.8307514 0.4041938
v -0.9146876 0.8949316 0.403533
v -0.9354256 0.8941692 0.3956491
v -0.9443243 0.8363189 0.3923653
v -0.9448889 0.8910413 0.3919097
v -0.9495016 0.8865121 0.3906571
v -0.9486284 0.8428957 0.3904284
v -0.9517434 0.8593534 0.390775
v -0.9517271 0.875515 0.3907951
v -0.8906075 0.8243977 0.420675
v -0.826322 0.8979359 0.4275605
vn -0.4212614 -0.03417897 -0.906295
vn -0.4212614 -0.03417897 -0.906295
vn -0.3553749 -0.08935893 -0.9304428
vn -0.3586693 -0.08606461 -0.9294887
vn -0.4154963 -0.0119423 -0.9095165
vn -0.4080842 -0.01029512 -0.9128863
vn -0.3026657 0.002882183 -0.9530924
vn -0.3125487 0.002882183 -0.9498973
vn 0.08771175 0.002882183 -0.9961417
vn 0.08771175 0.002882183 -0.9961417
vn -0.3109015 -0.1231258 -0.9424332
vn -0.3109015 -0.1231258 -0.9424332
vn 0.4212621 -0.03417897 -0.9062946
vn 0.35867 -0.08606461 -0.9294884
vn 0.3553756 -0.08935893 -0.9304425
vn 0.4212621 -0.03417897 -0.9062946
vn 0.4154971 -0.0119423 -0.9095161
vn 0.4080848 -0.01029512 -0.912886
vn 0.3026665 0.002882183 -0.9530922
vn 0.3125494 0.002882183 -0.9498972
vn -0.08771104 0.002882183 -0.9961418
vn -0.08771104 0.002882183 -0.9961418
vn 0.3109023 -0.1231258 -0.9424329
vn 0.3109023 -0.1231258 -0.9424329
g model_car_42_matte_mirror_LOD1_0
f 3/3/3 2/2/2 1/1/1
f 4/4/4 3/3/3 1/1/1
f 1/1/1 2/2/2 5/5/5
f 2/2/2 6/6/6 5/5/5
f 5/5/5 6/6/6 7/7/7
f 8/8/8 5/5/5 7/7/7
f 8/8/8 7/7/7 9/9/9
f 7/7/7 10/10/10 9/9/9
f 4/4/4 11/11/11 3/3/3
f 11/11/11 12/12/12 3/3/3
f 15/15/15 14/14/14 13/13/13
f 16/16/16 15/15/15 13/13/13
f 16/16/16 13/13/13 17/17/17
f 18/18/18 16/16/16 17/17/17
f 18/18/18 17/17/17 19/19/19
f 17/17/17 20/20/20 19/19/19
f 19/19/19 20/20/20 21/21/21
f 22/22/22 19/19/19 21/21/21
f 23/23/23 14/14/14 15/15/15
f 24/24/24 23/23/23 15/15/15
