g model_car_93_matte_mirror_LOD1
v 0.9478115 1.057101 0.4177148
v 0.8386505 1.077321 0.447181
v 0.8385463 0.9620289 0.4470433
v 0.9460315 0.9632759 0.4157913
v 0.8246206 1.076211 0.4511955
v 0.8246481 0.9644836 0.4511876
v 0.9656591 0.97242 0.4096918
v 0.9661056 1.048964 0.4118652
v 0.9784636 1.038541 0.4069009
v 0.979097 0.9838438 0.4052545
v 0.8126874 0.9697863 0.4548657
v 0.8126815 1.070917 0.4548657
v 0.8001956 0.9829804 0.458703
v 0.7943126 1.00002 0.4605087
v 0.9846633 1.025341 0.4044914
v 0.9851216 0.9956058 0.4035689
v 0.7943225 1.040705 0.4605048
v 0.8002055 1.057736 0.4586991
v -0.9478121 1.057101 0.4177148
v -0.946032 0.9632759 0.4157913
v -0.8385469 0.9620289 0.4470433
v -0.8386492 1.077321 0.447181
v -0.8246212 1.076211 0.4511955
v -0.8246468 0.9644836 0.4511876
v -0.9656597 0.97242 0.4096918
v -0.9661043 1.048964 0.4118652
v -0.9784644 1.038541 0.4069009
v -0.9790976 0.9838438 0.4052545
v -0.8126881 0.9697863 0.4548657
v -0.8126822 1.070917 0.4548657
v -0.8001943 0.9829804 0.458703
v -0.7943133 1.00002 0.4605087
v -0.9846621 1.025341 0.4044914
v -0.9851223 0.9956058 0.4035689
v -0.7943231 1.040705 0.4605048
v -0.8002061 1.057736 0.4586991
vn -0.2822877 0.01820156 -0.9591571
vn -0.2750071 0.006287903 -0.9614217
vn -0.2743452 0.006287903 -0.9616107
vn -0.2822877 0.01820156 -0.9591571
vn -0.2862589 0.000331074 -0.9581522
vn -0.285597 0.000331074 -0.9583498
vn -0.3140574 0.02680588 -0.9490255
vn -0.3140574 0.02680588 -0.9490255
vn -0.3385466 0.02680588 -0.9405677
vn -0.3378847 0.026144 -0.9408244
vn -0.2935394 -0.0003308058 -0.9559469
vn -0.2935394 -0.0003308058 -0.9559469
vn -0.2935394 -0.0003308058 -0.9559469
vn -0.2935394 -0.0003308058 -0.9559469
vn -0.3147193 0.02482027 -0.9488602
vn -0.3147193 0.02482027 -0.9488602
vn -0.2935394 -0.0003308058 -0.9559469
vn -0.2935394 0.000331074 -0.9559469
vn 0.2822873 0.01820156 -0.9591572
vn 0.2822873 0.01820156 -0.9591572
vn 0.2743449 0.006287903 -0.9616108
vn 0.2750068 0.006287903 -0.9614217
vn 0.2862585 0.000331074 -0.9581524
vn 0.2855967 0.000331074 -0.9583498
vn 0.3140571 0.02680588 -0.9490256
vn 0.3140571 0.02680588 -0.9490256
vn 0.3385463 0.02680588 -0.9405679
vn 0.3378844 0.026144 -0.9408244
vn 0.2935391 -0.0003308058 -0.955947
vn 0.2935391 -0.0003308058 -0.955947
vn 0.2935391 -0.0003308058 -0.955947
vn 0.2935391 -0.0003308058 -0.955947
vn 0.314719 0.02482027 -0.9488603
vn 0.314719 0.02482027 -0.9488603
vn 0.2935391 -0.0003308058 -0.955947
vn 0.2935391 0.000331074 -0.955947
g model_car_93_matte_mirror_LOD1_0
f 3/3/3 2/2/2 1/1/1
f 4/4/4 3/3/3 1/1/1
f 5/5/5 2/2/2 3/3/3
f 6/6/6 5/5/5 3/3/3
f 7/7/7 4/4/4 1/1/1
f 8/8/8 7/7/7 1/1/1
f 8/8/8 9/9/9 7/7/7
f 9/9/9 10/10/10 7/7/7
f 6/6/6 11/11/11 5/5/5
f 11/11/11 12/12/12 5/5/5
f 11/11/11 13/13/13 12/12/12
f 13/13/13 14/14/14 12/12/12
f 9/9/9 15/15/15 10/10/10
f 15/15/15 16/16/16 10/10/10
f 12/12/12 14/14/14 17/17/17
f 12/12/12 17/17/17 18/18/18
f 21/21/21 20/20/20 19/19/19
f 22/22/22 21/21/21 19/19/19
f 22/22/22 23/23/23 21/21/21
f 23/23/23 24/24/24 21/21/21
f 20/20/20 25/25/25 19/19/19
f 25/25/25 26/26/26 19/19/19
f 27/27/27 26/26/26 25/25/25
f 28/28/28 27/27/27 25/25/25
f 29/29/29 24/24/24 23/23/23
f 30/30/30 29/29/29 23/23/23
f 31/31/31 29/29/29 30/30/30
f 32/32/32 31/31/31 30/30/30
f 33/33/33 27/27/27 28/28/28
f 34/34/34 33/33/33 28/28/28
f 32/32/32 30/30/30 35/35/35
f 35/35/35 30/30/30 36/36/36
