g Brake_Back_43
v 0.776876 0.212553 -0.003722965
v 0.776876 0.150794 -0.152821
v 0.776876 0.150794 0.145374
v 0.776876 -0.147401 0.145374
v 0.776876 0.001696966 0.207133
v 0.776876 -0.147401 -0.152821
v 0.776876 -0.209159 -0.003723034
v 0.776876 0.001697035 -0.214579
v -0.776876 0.212553 -0.003722965
v -0.776876 0.150794 0.145374
v -0.776876 0.150794 -0.152821
v -0.776876 -0.147401 0.145374
v -0.776876 0.001696966 0.207133
v -0.776876 -0.147401 -0.152821
v -0.776876 -0.209159 -0.003723034
v -0.776876 0.001697035 -0.214579
vt 0.389688 0.483411
vt 0.446617 0.54034
vt 0.389696 0.402901
vt 0.528319 0.345489
vt 0.447801 0.345489
vt 0.584077 0.48341
vt 0.584085 0.4029
vt 0.527156 0.540389
vt 0.389688 0.483411
vt 0.389696 0.402901
vt 0.446618 0.54034
vt 0.528319 0.345489
vt 0.447801 0.345489
vt 0.584077 0.48341
vt 0.584085 0.4029
vt 0.527156 0.540389
vn 1 0 0
vn 1 0 0
vn 1 0 0
vn 1 0 0
vn 1 0 0
vn 1 0 0
vn 1 0 0
vn 1 0 0
vn -1 0 0
vn -1 0 0
vn -1 0 0
vn -1 0 0
vn -1 0 0
vn -1 0 0
vn -1 0 0
vn -1 0 0
g Brake_Back_43_0
f 3/3/3 2/2/2 1/1/1
f 4/4/4 2/2/2 3/3/3
f 5/5/5 4/4/4 3/3/3
f 6/6/6 2/2/2 4/4/4
f 7/7/7 6/6/6 4/4/4
f 8/8/8 2/2/2 6/6/6
f 11/11/11 10/10/10 9/9/9
f 11/11/11 12/12/12 10/10/10
f 12/12/12 13/13/13 10/10/10
f 11/11/11 14/14/14 12/12/12
f 14/14/14 15/15/15 12/12/12
f 11/11/11 16/16/16 14/14/14
