g Brake_R_43
v 0.013107 0.187929 -0.004377969
v 0.013107 0.130865 0.133385
v 0.013107 0.130865 -0.142142
v 0.013107 -0.144662 0.133385
v 0.013107 -0.006899031 0.190449
v 0.013107 -0.144662 -0.142142
v 0.013107 -0.201726 -0.004379033
v 0.020639 -0.006898968 -0.199206
vt 1.389688 0.483411
vt 1.389696 0.402901
vt 1.446617 0.54034
vt 1.528319 0.345489
vt 1.447801 0.345489
vt 1.584077 0.48341
vt 1.584085 0.4029
vt 1.527156 0.540389
vn -1 0 0
vn -1 0 0
vn -0.9997584 0 -0.02197756
vn -1 0 0
vn -1 0 0
vn -0.9997584 0 -0.02197765
vn -1 0 0
vn -0.9914012 0 -0.1308572
g Brake_R_43_0
f 3/3/3 2/2/2 1/1/1
f 3/3/3 4/4/4 2/2/2
f 4/4/4 5/5/5 2/2/2
f 3/3/3 6/6/6 4/4/4
f 6/6/6 7/7/7 4/4/4
f 3/3/3 8/8/8 6/6/6
