g Glass_43
v -0.697165 1.158503 -0.4623988
v -0.850035 0.7973471 -0.2428209
v -0.700417 1.155893 -0.5974798
v -0.851538 0.8020501 -0.4680689
v -0.700819 1.136648 -0.09287281
v -0.703909 1.127111 -0.02683582
v -0.708007 1.116509 0.004416182
v -0.715529 1.098176 0.03070018
v -0.774321 0.95723 0.1716072
v -0.838083 0.8048069 0.3123871
v -0.8336 0.8151339 0.3132251
v -0.842025 0.8314631 -0.6728329
v -0.841577 0.8328411 -0.6823029
v -0.700417 1.155893 -0.5974798
v -0.840889 0.8347591 -0.6913779
v -0.839923 0.8373261 -0.7005779
v -0.837228 0.8443771 -0.7232699
v -0.824119 0.8787781 -0.8366669
v -0.806639 0.9233962 -0.9532508
v -0.846014 0.8228481 -0.6894289
v -0.811891 0.9115622 -0.9615109
v -0.837873 0.8049389 0.3221051
v -0.838083 0.8048069 0.3123871
v -0.8336 0.8151339 0.3132251
v -0.848736 0.8122461 -0.5705669
v -0.700417 1.155893 -0.5974798
v -0.851538 0.8020501 -0.4680689
v -0.842025 0.8314631 -0.6728329
v 0.700819 1.136648 -0.09287281
v 0.697165 1.158503 -0.4623988
v 0.850035 0.7973471 -0.2428209
v 0.703909 1.127111 -0.02683582
v 0.708007 1.116509 0.004416182
v 0.715529 1.098176 0.03070018
v 0.774321 0.95723 0.1716072
v 0.838083 0.8048069 0.3123871
v 0.700417 1.155893 -0.5974798
v 0.851538 0.8020501 -0.4680689
v 0.8336 0.8151339 0.3132251
v 0.842025 0.8314631 -0.6728329
v 0.700417 1.155893 -0.5974798
v 0.841577 0.8328411 -0.6823029
v 0.840889 0.8347591 -0.6913779
v 0.839923 0.8373261 -0.7005779
v 0.837228 0.8443771 -0.7232699
v 0.824119 0.8787781 -0.8366669
v 0.806639 0.9233962 -0.9532508
v 0.846014 0.8228481 -0.6894289
v 0.811891 0.9115622 -0.9615109
v 0.837873 0.8049389 0.3221051
v 0.8336 0.8151339 0.3132251
v 0.838083 0.8048069 0.3123871
v 0.848736 0.8122461 -0.5705669
v 0.851538 0.8020501 -0.4680689
v 0.700417 1.155893 -0.5974798
v 0.842025 0.8314631 -0.6728329
v 0.729638 1.095566 -0.7953988
v 0.700417 1.155893 -0.5974798
v 0.719267 1.118302 -0.7616448
v 0.748895 1.053079 -0.8505668
v 0.770923 1.00387 -0.8969708
v 0.711071 1.135743 -0.7204318
v 0.705848 1.146144 -0.6745768
v 0.806639 0.9233962 -0.9532508
v 0.705848 1.146144 -0.6745768
v 0.700417 1.155893 -0.5974798
v 0.703004 1.151051 -0.6287538
v -0.729638 1.095566 -0.7953988
v -0.719267 1.118302 -0.7616448
v -0.700417 1.155893 -0.5974798
v -0.748895 1.053079 -0.8505668
v -0.770923 1.00387 -0.8969708
v -0.711071 1.135743 -0.7204318
v -0.705848 1.146144 -0.6745768
v -0.806639 0.9233962 -0.9532508
v -0.705848 1.146144 -0.6745768
v -0.703004 1.151051 -0.6287538
v -0.700417 1.155893 -0.5974798
v 0.664352 1.10235 0.1057972
v 0.675143 1.086853 0.1206262
v 0.644656 1.111187 0.09975818
v 0.732122 0.9459879 0.2558231
v 0.634174 0.9570099 0.2671182
v 0.706446 0.839663 0.3764671
v 0.771951 0.8475429 0.3529291
v 0.319651 0.847675 0.4159512
v 0.350411 0.966476 0.2944211
v 0.530795 1.124864 0.1107042
v 0 0.968307 0.3032832
v 0 0.847675 0.4159512
v 0 1.139385 0.1434992
v 0.393614 1.133334 0.1237312
v -0.319651 0.847675 0.4159512
v -0.350411 0.966476 0.2944211
v -0.393614 1.133334 0.1237312
v -0.530795 1.124864 0.1107042
v -0.634174 0.9570099 0.2671182
v -0.706446 0.839663 0.3764671
v -0.644656 1.111187 0.09975818
v -0.732122 0.9459879 0.2558231
v -0.771951 0.8475429 0.3529291
v -0.768889 0.8382879 0.3628151
v -0.776224 0.838131 0.3617522
v -0.706446 0.839663 0.3764671
v 0.319651 0.789398 0.4215521
v 0 0.789398 0.4215521
v 0 0.847675 0.4159512
v 0.319651 0.847675 0.4159512
v -0.319651 0.789398 0.4215521
v -0.319651 0.847675 0.4159512
v 0.768889 0.8382879 0.3628151
v 0.776224 0.838131 0.3617522
v 0.706446 0.839663 0.3764671
vt 0.394315 0.978134
vt 0.557423 0.68254
vt 0.292824 0.975998
vt 0.388234 0.68639
vt 0.671802 0.960246
vt 0.721362 0.95244
vt 0.744786 0.943763
vt 0.764438 0.928758
vt 0.869572 0.813399
vt 0.974552 0.688646
vt 0.975235 0.697097
vt 0.23456 0.710464
vt 0.227452 0.711592
vt 0.292824 0.975998
vt 0.220645 0.713162
vt 0.213747 0.715263
vt 0.196736 0.721033
vt 0.111725 0.749189
vt 0.024371 0.785707
vt 0.222048 0.703413
vt 0.018106 0.776022
vt 0.981853 0.688753
vt 0.974552 0.688646
vt 0.975235 0.697097
vt 0.311286 0.694735
vt 0.292824 0.975998
vt 0.388234 0.68639
vt 0.23456 0.710464
vt 0.329349 0.635763
vt 0.606838 0.653651
vt 0.443729 0.358056
vt 0.279789 0.627957
vt 0.256365 0.619279
vt 0.236713 0.604274
vt 0.13158 0.488914
vt 0.0266 0.36416
vt 0.708329 0.651515
vt 0.612919 0.361906
vt 0.025917 0.372612
vt 0.766594 0.38598
vt 0.708329 0.651515
vt 0.7737 0.387108
vt 0.780507 0.388678
vt 0.787404 0.390779
vt 0.804415 0.396549
vt 0.889427 0.424705
vt 0.97678 0.461222
vt 0.779104 0.37893
vt 0.983046 0.451536
vt 0.019298 0.364268
vt 0.025917 0.372612
vt 0.0266 0.36416
vt 0.689867 0.370252
vt 0.612919 0.361906
vt 0.708329 0.651515
vt 0.766594 0.38598
vt 0.85732 0.602138
vt 0.708329 0.651515
vt 0.831847 0.620746
vt 0.898979 0.567364
vt 0.93409 0.527087
vt 0.800797 0.635022
vt 0.766296 0.643536
vt 0.97678 0.461222
vt 0.766296 0.643536
vt 0.708329 0.651515
vt 0.732045 0.648976
vt 0.143834 0.926622
vt 0.169307 0.945231
vt 0.292824 0.975998
vt 0.102173 0.891848
vt 0.067061 0.851571
vt 0.200357 0.959506
vt 0.234857 0.968019
vt 0.024371 0.785707
vt 0.234857 0.968019
vt 0.26911 0.973459
vt 0.292824 0.975998
vt 0.915765 0.308516
vt 0.922319 0.29507
vt 0.903513 0.315217
vt 0.956392 0.17303
vt 0.894587 0.173584
vt 0.93851 0.073172
vt 0.980043 0.086562
vt 0.69649 0.062294
vt 0.716969 0.16793
vt 0.831774 0.317227
vt 0.498557 0.167471
vt 0.497374 0.064634
vt 0.500235 0.313313
vt 0.745777 0.316292
vt 0.298257 0.066876
vt 0.280215 0.172954
vt 0.254827 0.321939
vt 0.168876 0.324852
vt 0.102775 0.182694
vt 0.056554 0.083319
vt 0.09711 0.324492
vt 0.040975 0.183561
vt 0.015341 0.097662
vt 0.017165 0.089208
vt 0.012569 0.089663
vt 0.056554 0.083319
vt 0.696062 0.025826
vt 0.496955 0.028165
vt 0.497374 0.064634
vt 0.69649 0.062294
vt 0.297846 0.030408
vt 0.298257 0.066876
vt 0.978025 0.078152
vt 0.98263 0.078501
vt 0.93851 0.073172
vn -0.9176283 0.397178 0.01441663
vn -0.9176283 0.3971781 0.01441705
vn -0.9176281 0.3971785 0.01441714
vn -0.9176281 0.3971785 0.01441879
vn -0.9176286 0.3971771 0.01442089
vn -0.9176276 0.3971798 0.0144182
vn -0.917628 0.3971788 0.01441709
vn -0.9176287 0.3971771 0.01441866
vn -0.9176277 0.3971795 0.01441746
vn -0.9176285 0.3971772 0.01442858
vn -0.9176254 0.3971845 0.01442308
vn -0.9176273 0.3971811 0.01440217
vn -0.9176269 0.3971825 0.01438743
vn -0.9176281 0.3971785 0.01441714
vn -0.917634 0.3971633 0.01446346
vn -0.9176317 0.3971692 0.014447
vn -0.9176279 0.3971789 0.01442101
vn -0.9176284 0.397178 0.0144166
vn -0.9176294 0.3971755 0.01442108
vn -0.9176232 0.3971913 0.01437267
vn -0.9176298 0.3971745 0.01442261
vn -0.9176319 0.3971689 0.0144415
vn -0.9176285 0.3971772 0.01442858
vn -0.9176254 0.3971845 0.01442308
vn -0.9176275 0.3971799 0.01442117
vn -0.9176281 0.3971785 0.01441714
vn -0.9176281 0.3971785 0.01441879
vn -0.9176273 0.3971811 0.01440217
vn 0.9176286 0.3971771 0.01442088
vn 0.9176282 0.3971784 0.01441673
vn 0.9176282 0.3971782 0.01441706
vn 0.9176276 0.3971798 0.0144182
vn 0.917628 0.3971788 0.01441709
vn 0.9176287 0.3971771 0.01441866
vn 0.9176277 0.3971794 0.01441746
vn 0.9176285 0.3971772 0.01442858
vn 0.917628 0.3971787 0.01441722
vn 0.9176281 0.3971785 0.01441879
vn 0.9176254 0.3971845 0.01442308
vn 0.9176273 0.3971811 0.01440217
vn 0.917628 0.3971787 0.01441722
vn 0.9176269 0.3971825 0.01438743
vn 0.9176267 0.3971821 0.01440777
vn 0.9176317 0.3971692 0.014447
vn 0.9176279 0.3971789 0.01442101
vn 0.9176284 0.397178 0.0144166
vn 0.9176294 0.3971755 0.01442107
vn 0.9176232 0.3971913 0.01437267
vn 0.9176298 0.3971745 0.01442261
vn 0.9176319 0.3971689 0.0144415
vn 0.9176254 0.3971845 0.01442308
vn 0.9176285 0.3971772 0.01442858
vn 0.9176275 0.3971799 0.01442117
vn 0.9176281 0.3971785 0.01441879
vn 0.917628 0.3971787 0.01441722
vn 0.9176273 0.3971811 0.01440217
vn 0.9176211 0.3971949 0.01441355
vn 0.9176283 0.397178 0.01441813
vn 0.9176373 0.3971569 0.01442207
vn 0.9176322 0.3971691 0.01442098
vn 0.9176279 0.3971789 0.01441961
vn 0.9176553 0.3971151 0.01443466
vn 0.9175822 0.3972854 0.01439897
vn 0.9176294 0.3971755 0.01442107
vn -0.9177235 -0.3969575 -0.0144305
vn -0.9177235 -0.3969575 -0.0144305
vn -0.9177235 -0.3969575 -0.0144305
vn -0.9176211 0.3971949 0.01441355
vn -0.9176373 0.3971569 0.01442207
vn -0.9176285 0.3971777 0.01441899
vn -0.9176322 0.3971691 0.01442098
vn -0.9176279 0.3971789 0.01441961
vn -0.9176553 0.3971151 0.01443466
vn -0.9175822 0.3972854 0.01439897
vn -0.9176294 0.3971755 0.01442108
vn 0.9177235 -0.3969575 -0.0144305
vn 0.9177235 -0.3969575 -0.0144305
vn 0.9177235 -0.3969575 -0.0144305
vn 0.1203093 0.7287988 0.6740756
vn 0.08812167 0.709762 0.6989082
vn 0.1391463 0.7209464 0.6788775
vn 0.1562447 0.7224937 0.6734912
vn 0.1234187 0.7149218 0.6882257
vn 0.1267721 0.7176794 0.6847372
vn 0.1503773 0.6980435 0.7000871
vn 0.03332555 0.526174 0.8497236
vn 0.06250666 0.7040658 0.7073785
vn 0.1187793 0.7103325 0.6937718
vn 0 0.6873017 0.7263721
vn 0 0.4109948 0.9116377
vn 0 0.6927513 0.7211766
vn 0.08248606 0.7021349 0.7072501
vn -0.03332555 0.5261741 0.8497236
vn -0.06250666 0.7040658 0.7073785
vn -0.08248611 0.7021349 0.70725
vn -0.1187793 0.7103325 0.6937717
vn -0.1234187 0.7149218 0.6882257
vn -0.1267942 0.7176833 0.684729
vn -0.1531896 0.7219993 0.6747222
vn -0.1582 0.7228414 0.6726612
vn -0.1541197 0.7247616 0.6715413
vn -0.1479351 0.6987149 0.6999378
vn -0.1162457 0.7068558 0.6977406
vn -0.1685131 0.6930016 0.7009651
vn 0 0.09566844 0.9954133
vn 0 0.09566844 0.9954132
vn 0 0.4109948 0.9116377
vn 0.03332555 0.526174 0.8497236
vn 0 0.09566844 0.9954133
vn -0.03332555 0.5261741 0.8497236
vn 0.1479285 0.6987067 0.6999472
vn 0.1162457 0.7068558 0.6977406
vn 0.1685131 0.6930016 0.7009651
g Glass_43_0
f 3/3/3 2/2/2 1/1/1
f 3/3/3 4/4/4 2/2/2
f 5/5/5 1/1/1 2/2/2
f 2/2/2 6/6/6 5/5/5
f 2/2/2 7/7/7 6/6/6
f 2/2/2 8/8/8 7/7/7
f 2/2/2 9/9/9 8/8/8
f 2/2/2 10/10/10 9/9/9
f 10/10/10 11/11/11 9/9/9
f 14/14/14 13/13/13 12/12/12
f 14/14/14 15/15/15 13/13/13
f 14/14/14 16/16/16 15/15/15
f 14/14/14 17/17/17 16/16/16
f 14/14/14 18/18/18 17/17/17
f 14/14/14 19/19/19 18/18/18
f 15/15/15 20/20/20 13/13/13
f 19/19/19 21/21/21 18/18/18
f 24/24/24 23/23/23 22/22/22
f 27/27/27 26/26/26 25/25/25
f 25/25/25 26/26/26 28/28/28
f 31/31/31 30/30/30 29/29/29
f 32/32/32 31/31/31 29/29/29
f 33/33/33 31/31/31 32/32/32
f 34/34/34 31/31/31 33/33/33
f 35/35/35 31/31/31 34/34/34
f 36/36/36 31/31/31 35/35/35
f 37/37/37 30/30/30 31/31/31
f 38/38/38 37/37/37 31/31/31
f 39/39/39 36/36/36 35/35/35
f 42/42/42 41/41/41 40/40/40
f 43/43/43 41/41/41 42/42/42
f 44/44/44 41/41/41 43/43/43
f 45/45/45 41/41/41 44/44/44
f 46/46/46 41/41/41 45/45/45
f 47/47/47 41/41/41 46/46/46
f 48/48/48 43/43/43 42/42/42
f 49/49/49 47/47/47 46/46/46
f 52/52/52 51/51/51 50/50/50
f 55/55/55 54/54/54 53/53/53
f 55/55/55 53/53/53 56/56/56
f 59/59/59 58/58/58 57/57/57
f 57/57/57 58/58/58 60/60/60
f 60/60/60 58/58/58 61/61/61
f 62/62/62 58/58/58 59/59/59
f 63/63/63 58/58/58 62/62/62
f 61/61/61 58/58/58 64/64/64
f 67/67/67 66/66/66 65/65/65
f 70/70/70 69/69/69 68/68/68
f 70/70/70 68/68/68 71/71/71
f 70/70/70 71/71/71 72/72/72
f 70/70/70 73/73/73 69/69/69
f 70/70/70 74/74/74 73/73/73
f 70/70/70 72/72/72 75/75/75
f 78/78/78 77/77/77 76/76/76
f 81/81/81 80/80/80 79/79/79
f 82/82/82 80/80/80 81/81/81
f 81/81/81 83/83/83 82/82/82
f 82/82/82 83/83/83 84/84/84
f 85/85/85 82/82/82 84/84/84
f 84/84/84 83/83/83 86/86/86
f 83/83/83 87/87/87 86/86/86
f 88/88/88 87/87/87 83/83/83
f 88/88/88 83/83/83 81/81/81
f 87/87/87 89/89/89 86/86/86
f 89/89/89 90/90/90 86/86/86
f 91/91/91 89/89/89 87/87/87
f 92/92/92 87/87/87 88/88/88
f 92/92/92 91/91/91 87/87/87
f 90/90/90 89/89/89 93/93/93
f 89/89/89 94/94/94 93/93/93
f 89/89/89 91/91/91 94/94/94
f 91/91/91 95/95/95 94/94/94
f 95/95/95 96/96/96 94/94/94
f 94/94/94 97/97/97 93/93/93
f 97/97/97 94/94/94 96/96/96
f 97/97/97 98/98/98 93/93/93
f 96/96/96 99/99/99 97/97/97
f 97/97/97 100/100/100 98/98/98
f 100/100/100 97/97/97 99/99/99
f 100/100/100 101/101/101 98/98/98
f 101/101/101 103/103/103 102/102/102
f 101/101/101 102/102/102 104/104/104
f 107/107/107 106/106/106 105/105/105
f 108/108/108 107/107/107 105/105/105
f 106/106/106 107/107/107 109/109/109
f 107/107/107 110/110/110 109/109/109
f 112/112/112 85/85/85 111/111/111
f 111/111/111 85/85/85 113/113/113
