g Glass_14
v 0.6711 1.1287 -0.05069982
v 0.6613 1.1543 -0.1785998
v 0.7694 0.8757001 -0.2459999
v 0.6514 1.1691 -0.3083998
v 0.7611 0.8911 -0.4908999
v 0.771 0.8642 0.1091001
v 0.6415 1.1724 -0.5253997
v 0.7517 0.9119001 -0.7177998
v 0.6324 1.1578 -0.7381998
v 0.6252 1.1225 -0.9686998
v 0.7361 0.9334002 -0.9125998
v 0.7148 0.9577002 -1.0566
v 0.7072 0.9670002 -1.0734
v 0.633 1.0593 -1.1472
v 0.6217 1.0793 -1.1377
v 0.6966 1.0803 0.09670018
v 0.7713 0.8615999 0.3049001
v 0.7266 1.0022 0.2690001
v 0.6967 1.0801 0.09720018
v 0.771 0.8642 0.1091001
v 0.6967 1.0801 0.09720018
v 0.6966 1.0803 0.09670018
v 0.3831 1.0567 0.3233002
v 0.2259 1.0623 0.3433002
v 0.2181 1.143 0.1646002
v 0.2952 0.8819999 0.6875002
v 0.5637 0.8756999 0.6622002
v 0.6655 0.8726999 0.6417001
v -0.0007 1.059 0.3594002
v -0.0007 1.1444 0.1721002
v 0.398 1.1345 0.1523002
v 0.6191 1.056 0.2860002
v 0.6765 1.0507 0.2769001
v 0.5996 1.1274 0.1277002
v 0.3837 1.1951 0.0129002
v 0.2116 1.2038 0.02350019
v -0.0007 1.2063 0.0302002
v 0.7161 0.8791999 0.6144002
v 0.6407 1.1211 0.1238002
v 0.5831 1.1837 -0.01949981
v 0.6103 1.1705 -0.00599981
v -0.0007 0.8882999 0.6984002
v -0.2966 0.8819999 0.6875002
v -0.213 1.2052 0.0249002
v -0.2195 1.143 0.1646002
v -0.3994 1.1345 0.1523002
v -0.3845 1.0567 0.3233002
v -0.2273 1.0623 0.3433002
v -0.5651 0.8756999 0.6622002
v -0.3851 1.1951 0.0129002
v -0.601 1.1274 0.1277002
v -0.5845 1.1837 -0.01949981
v -0.6205 1.056 0.2860002
v -0.6669 0.8726999 0.6417001
v -0.6779 1.0507 0.2769001
v -0.6421 1.1211 0.1238002
v -0.6117 1.1705 -0.00599981
v -0.7175 0.8791999 0.6144002
v 0.6765 1.0507 0.2769001
v 0.7301 0.9001999 0.5898002
v 0.7161 0.8791999 0.6144002
v 0.1789 0.9915004 -1.8986
v 0.2696 0.9910004 -1.8929
v 0.3581 1.1617 -1.1611
v 0.4803 1.0734 -1.4957
v 0.4633 1.0427 -1.6235
v 0.1877 1.1728 -1.1595
v -0.0007 0.9925004 -1.898
v 0.3372 0.9936003 -1.8694
v 0.4503 1.0194 -1.7297
v 0.4191 1.0054 -1.7997
v 0.4964 1.11 -1.3425
v 0.5149 1.1448 -1.1744
v -0.0007 1.1743 -1.1565
v -0.1891 1.1728 -1.1595
v -0.1802 0.9915004 -1.8986
v -0.3595 1.1617 -1.1611
v -0.2709 0.9910004 -1.8929
v -0.4817 1.0734 -1.4957
v -0.4978 1.11 -1.3425
v -0.5163 1.1448 -1.1744
v -0.4647 1.0427 -1.6235
v -0.3386 0.9936003 -1.8694
v -0.4517 1.0194 -1.7297
v -0.4205 1.0054 -1.7997
v -0.6725 1.1287 -0.04629982
v -0.7724 0.8642 0.1135001
v -0.7708 0.8757001 -0.2459999
v -0.698 1.0803 0.09670018
v -0.6627 1.1543 -0.1785998
v -0.6528 1.1691 -0.3083998
v -0.7625 0.8911 -0.4908999
v -0.6429 1.1724 -0.5253997
v -0.7531 0.9119001 -0.7177998
v -0.6338 1.1578 -0.7381998
v -0.6266 1.1225 -0.9686998
v -0.7375 0.9334002 -0.9125998
v -0.7162 0.9577002 -1.0566
v -0.7086 0.9670002 -1.0734
v -0.6344 1.0593 -1.1472
v -0.6231 1.0793 -1.1377
v -0.6981 1.0801 0.09720018
v -0.728 1.0022 0.2690001
v -0.7727 0.8615999 0.3049001
v -0.7724 0.8642 0.1135001
v -0.698 1.0803 0.09670018
v -0.6981 1.0801 0.09720018
v -0.6779 1.0507 0.2769001
v -0.7175 0.8791999 0.6144002
v -0.7315 0.9001999 0.5898002
vt 0.6552 0.4661
vt 0.6439 0.5255
vt 0.782 0.5536
vt 0.6372 0.5856
vt 0.7766 0.6669
vt 0.7836 0.3894
vt 0.6365 0.686
vt 0.7685 0.7719
vt 0.6432 0.7844
vt 0.6593 0.891
vt 0.7589 0.8622
vt 0.7464 0.9292
vt 0.7412 0.9372
vt 0.6887 0.9735
vt 0.678 0.9694
vt 0.6785 0.3974
vt 0.7827 0.299
vt 0.7151 0.3171
vt 0.6787 0.3974
vt 0.7836 0.3894
vt 0.6787 0.3974
vt 0.6785 0.3974
vt 0.5156 0.2216
vt 0.4455 0.2117
vt 0.4386 0.302
vt 0.4836 0.0336
vt 0.6033 0.0475
vt 0.6487 0.0572
vt 0.3448 0.2004
vt 0.3412 0.2954
vt 0.519 0.3086
vt 0.6205 0.2411
vt 0.6464 0.2448
vt 0.6089 0.321
vt 0.51 0.3786
vt 0.4331 0.3729
vt 0.3384 0.3669
vt 0.671 0.0707
vt 0.6276 0.3222
vt 0.5993 0.3936
vt 0.6122 0.3861
vt 0.3517 0.0253
vt 0.2195 0.0234
vt 0.2435 0.3652
vt 0.2434 0.2944
vt 0.1628 0.2948
vt 0.173 0.2083
vt 0.2436 0.2039
vt 0.0991 0.0278
vt 0.1663 0.3652
vt 0.0722 0.3001
vt 0.0761 0.3732
vt 0.0668 0.2195
vt 0.0531 0.034
vt 0.0408 0.2213
vt 0.0535 0.2998
vt 0.0638 0.3647
vt 0.0298 0.0457
vt 0.6464 0.2448
vt 0.6774 0.0856
vt 0.671 0.0707
vt 0.3341 0.7622
vt 0.3746 0.7597
vt 0.4143 0.4126
vt 0.4689 0.5724
vt 0.4613 0.6331
vt 0.3381 0.4106
vt 0.254 0.7618
vt 0.4049 0.7489
vt 0.4555 0.6833
vt 0.4415 0.7163
vt 0.4761 0.4997
vt 0.4846 0.4203
vt 0.254 0.4091
vt 0.1699 0.4106
vt 0.1738 0.7622
vt 0.0937 0.4126
vt 0.1334 0.7597
vt 0.0391 0.5724
vt 0.0319 0.4997
vt 0.0234 0.4203
vt 0.0467 0.6331
vt 0.1031 0.7489
vt 0.0525 0.6833
vt 0.0665 0.7163
vt 0.9602 0.4642
vt 0.8318 0.3875
vt 0.8333 0.5536
vt 0.9368 0.3975
vt 0.9714 0.5255
vt 0.9781 0.5857
vt 0.8388 0.6669
vt 0.9789 0.686
vt 0.8469 0.772
vt 0.9721 0.7844
vt 0.9561 0.891
vt 0.8565 0.8623
vt 0.869 0.9292
vt 0.8742 0.9372
vt 0.9267 0.9735
vt 0.9374 0.9694
vt 0.9368 0.3975
vt 0.9003 0.3171
vt 0.8326 0.299
vt 0.8318 0.3875
vt 0.9368 0.3975
vt 0.9368 0.3975
vt 0.0408 0.2213
vt 0.0298 0.0457
vt 0.0223 0.0601
vn 0.9363955 0.3507921 -0.01041248
vn 0.9310862 0.3645478 -0.01353972
vn 0.9308856 0.3652788 -0.004854799
vn 0.9264596 0.3754704 -0.026356
vn 0.9234817 0.3834696 -0.01151619
vn 0.9439226 0.3300001 -0.01049104
vn 0.9150407 0.4015689 -0.03798648
vn 0.9009384 0.4320778 -0.04023552
vn 0.89938 0.4296381 -0.08078771
vn 0.8667772 0.4913161 -0.08547384
vn 0.86554 0.5002205 -0.02489832
vn 0.8594646 0.5060118 -0.07261279
vn 0.8416865 0.5260007 -0.1220127
vn 0.8267689 0.5406786 -0.1553057
vn 0.8266443 0.5408499 -0.1553726
vn 0.9449362 0.3219653 -0.05859938
vn 0.9528042 0.3035745 0.00257166
vn 0.9491894 0.3146051 -0.007951513
vn 0.9453625 0.3228317 -0.04549083
vn 0.9439226 0.3300001 -0.01049104
vn 0.9453625 0.3228317 -0.04549083
vn 0.9449362 0.3219653 -0.05859938
vn 0.07706569 0.8992409 0.4306121
vn 0.05126305 0.8999417 0.4329863
vn 0.04668246 0.9140341 0.4029421
vn 0.05109749 0.8921105 0.4489185
vn 0.09222966 0.8979103 0.4304077
vn 0.1101633 0.8941869 0.4339284
vn 0 0.8996366 0.4366394
vn 0.001245665 0.913563 0.4066954
vn 0.07392894 0.9121848 0.403055
vn 0.1115342 0.8996866 0.4220475
vn 0.1496145 0.8977135 0.4143983
vn 0.130239 0.919847 0.3700261
vn 0.08132988 0.9207649 0.381546
vn 0.04546681 0.9177922 0.3944493
vn 0.004359272 0.9165779 0.3998324
vn 0.1220268 0.89055 0.4382126
vn 0.1807635 0.916854 0.3559543
vn 0.1698724 0.9299788 0.3260103
vn 0.3056903 0.9114642 0.2752936
vn 0 0.8931591 0.4497409
vn -0.05109749 0.8921105 0.4489185
vn -0.04634393 0.9150676 0.400629
vn -0.04690273 0.9116015 0.4083905
vn -0.07535889 0.9115967 0.4041194
vn -0.07706569 0.8992409 0.430612
vn -0.05126305 0.8999417 0.4329863
vn -0.09222966 0.8979103 0.4304077
vn -0.08664661 0.9205498 0.3808943
vn -0.130239 0.9198469 0.3700264
vn -0.1698725 0.9299788 0.3260102
vn -0.1115342 0.8996866 0.4220475
vn -0.1101634 0.8941869 0.4339284
vn -0.1496146 0.8977136 0.4143981
vn -0.1807636 0.9168537 0.3559546
vn -0.3056906 0.911464 0.2752939
vn -0.1220268 0.8905499 0.4382126
vn -0.4010602 0.7968 0.451952
vn -0.4010602 0.7968 0.451952
vn -0.4010602 0.7968 0.451952
vn 0.01496237 0.9719697 -0.2346297
vn 0.03154504 0.9733279 -0.2272395
vn 0.0655932 0.9709961 -0.2299215
vn 0.06188752 0.9699587 -0.235266
vn 0.07432273 0.9681819 -0.2389558
vn 0.03231042 0.9706275 -0.2384076
vn 0 0.9712008 -0.2382624
vn 0.03799384 0.9760484 -0.2142101
vn 0.04847974 0.9744713 -0.2192155
vn 0.04108807 0.9760728 -0.2135263
vn 0.05993635 0.9710892 -0.2310702
vn 0.08702501 0.973577 -0.2111265
vn 0 0.9712343 -0.2381258
vn -0.03231288 0.9706265 -0.2384117
vn -0.01496302 0.9719691 -0.2346318
vn -0.06559066 0.9709953 -0.229926
vn -0.03152762 0.9733297 -0.2272342
vn -0.06187021 0.9699587 -0.2352704
vn -0.05993637 0.9710892 -0.2310703
vn -0.08702501 0.973577 -0.2111265
vn -0.0742743 0.9681879 -0.2389467
vn -0.0379376 0.9760563 -0.2141838
vn -0.0484798 0.9744713 -0.2192156
vn -0.04108799 0.976073 -0.2135259
vn -0.9364817 0.3505491 -0.01083035
vn -0.9440473 0.3296418 -0.01053415
vn -0.9308847 0.3652801 -0.004910838
vn -0.9452468 0.3207506 -0.06022856
vn -0.9310879 0.3645444 -0.01352277
vn -0.9264595 0.3754705 -0.026356
vn -0.9234817 0.3834696 -0.01151619
vn -0.9150407 0.4015687 -0.03798638
vn -0.9009384 0.4320776 -0.04023553
vn -0.8993803 0.4296378 -0.08078756
vn -0.8667773 0.4913159 -0.08547392
vn -0.86554 0.5002205 -0.02489837
vn -0.8594653 0.5060106 -0.07261262
vn -0.8416873 0.5259994 -0.122013
vn -0.8267683 0.5406795 -0.155306
vn -0.8266427 0.5408524 -0.1553723
vn -0.945633 0.3219434 -0.04616022
vn -0.9492015 0.3145637 -0.008136713
vn -0.9527998 0.3035879 0.002630973
vn -0.9440473 0.3296418 -0.01053415
vn -0.9452468 0.3207506 -0.06022856
vn -0.945633 0.3219434 -0.04616022
vn 0.4010595 0.7967997 0.4519531
vn 0.4010595 0.7967997 0.4519531
vn 0.4010595 0.7967997 0.4519531
g Glass_14_0
f 3/3/3 2/2/2 1/1/1
f 3/3/3 4/4/4 2/2/2
f 4/4/4 3/3/3 5/5/5
f 6/6/6 3/3/3 1/1/1
f 7/7/7 4/4/4 5/5/5
f 7/7/7 5/5/5 8/8/8
f 9/9/9 7/7/7 8/8/8
f 10/10/10 9/9/9 8/8/8
f 11/11/11 10/10/10 8/8/8
f 11/11/11 12/12/12 10/10/10
f 12/12/12 13/13/13 10/10/10
f 13/13/13 14/14/14 10/10/10
f 14/14/14 15/15/15 10/10/10
f 1/1/1 16/16/16 6/6/6
f 18/18/18 17/17/17 6/6/6
f 19/19/19 18/18/18 6/6/6
f 22/22/22 21/21/21 20/20/20
f 25/25/25 24/24/24 23/23/23
f 26/26/26 23/23/23 24/24/24
f 26/26/26 27/27/27 23/23/23
f 23/23/23 27/27/27 28/28/28
f 26/26/26 24/24/24 29/29/29
f 30/30/30 29/29/29 24/24/24
f 25/25/25 30/30/30 24/24/24
f 31/31/31 25/25/25 23/23/23
f 31/31/31 23/23/23 32/32/32
f 32/32/32 23/23/23 28/28/28
f 32/32/32 28/28/28 33/33/33
f 34/34/34 32/32/32 33/33/33
f 34/34/34 31/31/31 32/32/32
f 35/35/35 31/31/31 34/34/34
f 31/31/31 35/35/35 36/36/36
f 25/25/25 31/31/31 36/36/36
f 25/25/25 36/36/36 30/30/30
f 36/36/36 37/37/37 30/30/30
f 28/28/28 38/38/38 33/33/33
f 39/39/39 34/34/34 33/33/33
f 40/40/40 34/34/34 39/39/39
f 40/40/40 35/35/35 34/34/34
f 41/41/41 40/40/40 39/39/39
f 42/42/42 26/26/26 29/29/29
f 43/43/43 42/42/42 29/29/29
f 37/37/37 44/44/44 30/30/30
f 44/44/44 45/45/45 30/30/30
f 46/46/46 45/45/45 44/44/44
f 45/45/45 46/46/46 47/47/47
f 47/47/47 43/43/43 48/48/48
f 48/48/48 45/45/45 47/47/47
f 49/49/49 43/43/43 47/47/47
f 30/30/30 45/45/45 48/48/48
f 50/50/50 46/46/46 44/44/44
f 46/46/46 50/50/50 51/51/51
f 50/50/50 52/52/52 51/51/51
f 46/46/46 51/51/51 53/53/53
f 47/47/47 46/46/46 53/53/53
f 47/47/47 53/53/53 54/54/54
f 49/49/49 47/47/47 54/54/54
f 54/54/54 53/53/53 55/55/55
f 53/53/53 51/51/51 55/55/55
f 51/51/51 56/56/56 55/55/55
f 51/51/51 52/52/52 56/56/56
f 52/52/52 57/57/57 56/56/56
f 58/58/58 54/54/54 55/55/55
f 29/29/29 30/30/30 48/48/48
f 48/48/48 43/43/43 29/29/29
f 61/61/61 60/60/60 59/59/59
f 64/64/64 63/63/63 62/62/62
f 65/65/65 63/63/63 64/64/64
f 63/63/63 65/65/65 66/66/66
f 67/67/67 64/64/64 62/62/62
f 67/67/67 62/62/62 68/68/68
f 69/69/69 63/63/63 66/66/66
f 66/66/66 70/70/70 69/69/69
f 70/70/70 71/71/71 69/69/69
f 72/72/72 65/65/65 64/64/64
f 72/72/72 64/64/64 73/73/73
f 74/74/74 67/67/67 68/68/68
f 75/75/75 74/74/74 68/68/68
f 76/76/76 75/75/75 68/68/68
f 77/77/77 75/75/75 76/76/76
f 78/78/78 77/77/77 76/76/76
f 78/78/78 79/79/79 77/77/77
f 79/79/79 80/80/80 77/77/77
f 77/77/77 80/80/80 81/81/81
f 79/79/79 78/78/78 82/82/82
f 78/78/78 83/83/83 82/82/82
f 84/84/84 82/82/82 83/83/83
f 85/85/85 84/84/84 83/83/83
f 88/88/88 87/87/87 86/86/86
f 89/89/89 86/86/86 87/87/87
f 90/90/90 88/88/88 86/86/86
f 91/91/91 88/88/88 90/90/90
f 88/88/88 91/91/91 92/92/92
f 91/91/91 93/93/93 92/92/92
f 92/92/92 93/93/93 94/94/94
f 93/93/93 95/95/95 94/94/94
f 95/95/95 96/96/96 94/94/94
f 96/96/96 97/97/97 94/94/94
f 98/98/98 97/97/97 96/96/96
f 99/99/99 98/98/98 96/96/96
f 100/100/100 99/99/99 96/96/96
f 101/101/101 100/100/100 96/96/96
f 103/103/103 102/102/102 87/87/87
f 104/104/104 103/103/103 87/87/87
f 107/107/107 106/106/106 105/105/105
f 110/110/110 109/109/109 108/108/108
