g ref_14
v 0.5451 0.5584997 2.0357
v 0.6338 0.6574997 1.8626
v 0.684 0.5833997 1.9341
v 0.4478 0.5733997 2.0685
v 0.7597 0.6065997 1.8521
v 0.5295 0.6766996 1.8754
v 0.6184 0.6888997 1.8147
v 0.7283 0.6807997 1.7783
v 0.8075 0.7044997 1.6954
v 0.8114 0.6305997 1.7713
v 0.6923 0.6975997 1.7642
v 0.4745 0.5491997 2.084
v 0.4478 0.5733997 2.0685
v 0.4745 0.5491997 2.084
v 0.4478 0.5733997 2.0679
v -0.5465 0.5584997 2.0357
v -0.6854 0.5833997 1.9341
v -0.6352 0.6574997 1.8626
v -0.4492 0.5733997 2.0685
v -0.5309 0.6766996 1.8754
v -0.6198 0.6888997 1.8147
v -0.4759 0.5491997 2.084
v -0.7297 0.6807997 1.7783
v -0.6937 0.6975997 1.7642
v -0.761 0.6065997 1.8521
v -0.8088 0.7044997 1.6954
v -0.8128 0.6305997 1.7713
v -0.4492 0.5733997 2.0685
v -0.4492 0.5733997 2.0679
v -0.4759 0.5491997 2.084
vt 0.1125 0.8097
vt 0.1993 0.8598
vt 0.1911 0.8079
vt 0.0707 0.83
vt 0.2423 0.8163
vt 0.161 0.8883
vt 0.2099 0.885
vt 0.2576 0.8643
vt 0.3102 0.8723
vt 0.2855 0.83
vt 0.2504 0.8819
vt 0.0737 0.8124
vt 0.0707 0.83
vt 0.0737 0.8124
vt 0.0707 0.83
vt 0.5667 0.8134
vt 0.4883 0.8084
vt 0.4779 0.8599
vt 0.6077 0.8354
vt 0.5151 0.89
vt 0.4664 0.8847
vt 0.6054 0.8177
vt 0.4196 0.8621
vt 0.426 0.8799
vt 0.4368 0.8148
vt 0.3667 0.8679
vt 0.3931 0.8267
vt 0.6077 0.8354
vt 0.6077 0.8355
vt 0.6054 0.8177
vn 0.3087663 0.7474326 0.5882245
vn 0.2711855 0.8004726 0.534511
vn 0.3177778 0.7610132 0.565576
vn 0.2968147 0.754867 0.5848735
vn 0.3868473 0.726297 0.5681917
vn 0.2159477 0.8262232 0.5203094
vn 0.2191987 0.8479277 0.4826702
vn 0.297415 0.7970969 0.525529
vn 0.406156 0.7338868 0.5444699
vn 0.5838596 0.5964721 0.5507531
vn 0.2190797 0.8585412 0.4635849
vn 0.3153002 0.7335192 0.6021091
vn -0.6717292 -0.7407967 0
vn -0.6717292 -0.7407967 0
vn -0.6717292 -0.7407967 0
vn -0.3087662 0.7474328 0.5882241
vn -0.3178886 0.7610195 0.5655053
vn -0.2712544 0.8004492 0.5345112
vn -0.2968147 0.7548676 0.5848725
vn -0.2159478 0.826223 0.5203097
vn -0.2191986 0.847928 0.4826697
vn -0.3153004 0.7335207 0.6021072
vn -0.2976875 0.7969922 0.5255337
vn -0.2191104 0.8585628 0.4635305
vn -0.3869651 0.726235 0.5681908
vn -0.406122 0.733941 0.5444223
vn -0.5826507 0.5974361 0.5509885
vn 0.6717292 -0.7407967 0
vn 0.6717292 -0.7407967 0
vn 0.6717292 -0.7407967 0
g ref_14_0
f 3/3/3 2/2/2 1/1/1
f 4/4/4 1/1/1 2/2/2
f 2/2/2 3/3/3 5/5/5
f 2/2/2 6/6/6 4/4/4
f 6/6/6 2/2/2 7/7/7
f 7/7/7 2/2/2 8/8/8
f 8/8/8 2/2/2 5/5/5
f 8/8/8 5/5/5 9/9/9
f 5/5/5 10/10/10 9/9/9
f 11/11/11 8/8/8 9/9/9
f 11/11/11 7/7/7 8/8/8
f 1/1/1 4/4/4 12/12/12
f 15/15/15 14/14/14 13/13/13
f 18/18/18 17/17/17 16/16/16
f 16/16/16 19/19/19 18/18/18
f 20/20/20 18/18/18 19/19/19
f 18/18/18 20/20/20 21/21/21
f 16/16/16 22/22/22 19/19/19
f 18/18/18 21/21/21 23/23/23
f 21/21/21 24/24/24 23/23/23
f 18/18/18 23/23/23 25/25/25
f 17/17/17 18/18/18 25/25/25
f 25/25/25 23/23/23 26/26/26
f 23/23/23 24/24/24 26/26/26
f 27/27/27 25/25/25 26/26/26
f 30/30/30 29/29/29 28/28/28
