g Taillight_14
v 0.7452 0.7275004 -2.1936
v 0.8071 0.7178004 -2.1337
v 0.8096 0.7249004 -2.1411
v 0.7399 0.7178004 -2.1887
v 0.6473 0.7272003 -2.2518
v 0.6487 0.7178004 -2.2445
v 0.563 0.7279004 -2.2845
v 0.5586 0.7178004 -2.2808
v 0.4046 0.7178004 -2.3123
v 0.4189 0.7278004 -2.3143
v 0.4054 0.7416003 -2.3142
v 0.3886 0.7353004 -2.3121
v 0.4172 0.8476003 -2.2827
v 0.4299 0.8350003 -2.2937
v 0.4515 0.8515003 -2.2857
v 0.4421 0.8638003 -2.2756
v 0.5673 0.8621004 -2.249
v 0.566 0.8519003 -2.2634
v 0.6311 0.8600004 -2.2337
v 0.6299 0.8506004 -2.2429
v 0.729 0.8419003 -2.2004
v 0.7275 0.8502004 -2.194
v 0.7893 0.8275003 -2.1581
v 0.7893 0.8353004 -2.1515
v 0.8096 0.7249004 -2.1411
v 0.8037 0.8115003 -2.1189
v 0.8039 0.8085003 -2.1314
v 0.8071 0.7178004 -2.1337
v 0.7893 0.8275003 -2.1581
v 0.7893 0.8353004 -2.1515
v 0.7893 0.8275003 -2.1581
v 0.8096 0.7249004 -2.1411
v 0.8039 0.8085003 -2.1314
v 0.7452 0.7275004 -2.1936
v 0.729 0.8419003 -2.2004
v 0.6299 0.8506004 -2.2429
v 0.6473 0.7272003 -2.2518
v 0.563 0.7279004 -2.2845
v 0.566 0.8519003 -2.2634
v 0.4299 0.8350003 -2.2937
v 0.4515 0.8515003 -2.2857
v 0.4189 0.7278004 -2.3143
v 0.4054 0.7416003 -2.3142
v -0.8104 0.7249004 -2.1411
v -0.8079 0.7178004 -2.1337
v -0.746 0.7275004 -2.1936
v -0.7407 0.7178004 -2.1887
v -0.6481 0.7272003 -2.2518
v -0.6495 0.7178004 -2.2445
v -0.5638 0.7279004 -2.2845
v -0.5593 0.7178004 -2.2808
v -0.4054 0.7178004 -2.3123
v -0.4197 0.7278004 -2.3143
v -0.4062 0.7416003 -2.3142
v -0.3894 0.7353004 -2.3121
v -0.418 0.8476003 -2.2827
v -0.4307 0.8350003 -2.2937
v -0.4523 0.8515003 -2.2857
v -0.4429 0.8638003 -2.2756
v -0.568 0.8621004 -2.249
v -0.5667 0.8519003 -2.2634
v -0.6319 0.8600004 -2.2337
v -0.6307 0.8506004 -2.2429
v -0.7297 0.8419003 -2.2004
v -0.7282 0.8502004 -2.194
v -0.7901 0.8275003 -2.1581
v -0.7901 0.8353004 -2.1515
v -0.8047 0.8085003 -2.1314
v -0.8045 0.8115003 -2.1189
v -0.8104 0.7249004 -2.1411
v -0.8079 0.7178004 -2.1337
v -0.7901 0.8275003 -2.1581
v -0.7901 0.8353004 -2.1515
v -0.8047 0.8085003 -2.1314
v -0.8104 0.7249004 -2.1411
v -0.7901 0.8275003 -2.1581
v -0.746 0.7275004 -2.1936
v -0.7297 0.8419003 -2.2004
v -0.6307 0.8506004 -2.2429
v -0.6481 0.7272003 -2.2518
v -0.5638 0.7279004 -2.2845
v -0.5667 0.8519003 -2.2634
v -0.4307 0.8350003 -2.2937
v -0.4523 0.8515003 -2.2857
v -0.4197 0.7278004 -2.3143
v -0.4062 0.7416003 -2.3142
vt 0.598 0.5694
vt 0.5022 0.5604
vt 0.5142 0.5693
vt 0.5988 0.5564
vt 0.7231 0.5682
vt 0.7182 0.5564
vt 0.8156 0.5672
vt 0.8188 0.5551
vt 0.976 0.5566
vt 0.9616 0.5677
vt 0.9745 0.5828
vt 0.9921 0.5769
vt 0.957 0.7011
vt 0.9443 0.683
vt 0.9215 0.7007
vt 0.9293 0.7189
vt 0.7977 0.7136
vt 0.803 0.6954
vt 0.7276 0.7064
vt 0.7322 0.693
vt 0.6212 0.683
vt 0.6191 0.6942
vt 0.5465 0.6693
vt 0.5414 0.679
vt 0.5142 0.5693
vt 0.5022 0.6639
vt 0.5142 0.659
vt 0.5022 0.5604
vt 0.5465 0.6693
vt 0.5414 0.679
vt 0.5465 0.6693
vt 0.5142 0.5693
vt 0.5142 0.659
vt 0.598 0.5694
vt 0.6212 0.683
vt 0.7322 0.693
vt 0.7231 0.5682
vt 0.8156 0.5672
vt 0.803 0.6954
vt 0.9443 0.683
vt 0.9215 0.7007
vt 0.9616 0.5677
vt 0.9745 0.5828
vt 0.5142 0.5693
vt 0.5022 0.5604
vt 0.598 0.5694
vt 0.5988 0.5564
vt 0.7231 0.5682
vt 0.7182 0.5564
vt 0.8156 0.5672
vt 0.8188 0.5551
vt 0.976 0.5566
vt 0.9616 0.5677
vt 0.9745 0.5828
vt 0.9921 0.5769
vt 0.957 0.7011
vt 0.9443 0.683
vt 0.9215 0.7007
vt 0.9293 0.7189
vt 0.7977 0.7136
vt 0.803 0.6954
vt 0.7276 0.7064
vt 0.7322 0.693
vt 0.6212 0.683
vt 0.6191 0.6942
vt 0.5465 0.6693
vt 0.5414 0.679
vt 0.5142 0.659
vt 0.5022 0.6639
vt 0.5142 0.5693
vt 0.5022 0.5604
vt 0.5465 0.6693
vt 0.5414 0.679
vt 0.5142 0.659
vt 0.5142 0.5693
vt 0.5465 0.6693
vt 0.598 0.5694
vt 0.6212 0.683
vt 0.7322 0.693
vt 0.7231 0.5682
vt 0.8156 0.5672
vt 0.803 0.6954
vt 0.9443 0.683
vt 0.9215 0.7007
vt 0.9616 0.5677
vt 0.9745 0.5828
vn 0.4647038 -0.5939471 -0.656717
vn 0.4299113 -0.7089595 -0.5590642
vn 0.4196936 -0.7216277 -0.5505549
vn 0.4619012 -0.5854926 -0.6662175
vn 0.35406 -0.5424232 -0.7618521
vn 0.3945141 -0.5227681 -0.7556932
vn 0.271455 -0.4385352 -0.8567374
vn 0.2465092 -0.4262246 -0.8703825
vn -0.01217361 -0.1829609 -0.9830449
vn 0.08705582 -0.3136175 -0.9455503
vn -0.1746158 0.1221378 -0.9770321
vn -0.1602536 0.1000245 -0.9819949
vn -0.2478489 0.4713537 -0.8464021
vn -0.316702 0.422282 -0.8493396
vn 0.01977322 0.6500186 -0.759661
vn -0.007268791 0.6312693 -0.7755296
vn 0.1442747 0.7971718 -0.586261
vn 0.1375793 0.7963092 -0.5890361
vn 0.3006405 0.656482 -0.6918429
vn 0.2862815 0.6512654 -0.7027776
vn 0.4557198 0.5945345 -0.6624563
vn 0.4630489 0.5908335 -0.6606826
vn 0.5624986 0.5366182 -0.6289963
vn 0.5627195 0.5339627 -0.6310551
vn 0.9570791 -0.009050991 0.2896855
vn 0.9711981 0.2327441 -0.05103306
vn 0.9485661 0.3109473 -0.05944785
vn 0.9513215 -0.01410641 0.3078772
vn 0.9352184 0.2642094 -0.2357115
vn 0.9415825 0.2175401 -0.2570968
vn 0.7020839 0.0458966 -0.7106137
vn 0.6952766 0.01851453 -0.7185038
vn 0.9028963 0.1097837 -0.4156029
vn 0.5454885 0.039251 -0.8371987
vn 0.471879 0.01442097 -0.8815454
vn 0.3842293 0.1071822 -0.9169949
vn 0.4390883 0.1260724 -0.8895545
vn 0.2675854 0.146585 -0.9523187
vn 0.2521555 0.1587353 -0.9545788
vn 0.193449 0.1753344 -0.9653162
vn 0.1856974 0.2211044 -0.9574076
vn 0.1868418 0.1668659 -0.9681146
vn 0.1661811 0.1696172 -0.9713979
vn -0.4196978 -0.7216239 -0.5505568
vn -0.4299147 -0.7089564 -0.5590655
vn -0.464703 -0.5939499 -0.656715
vn -0.4619005 -0.5854955 -0.6662154
vn -0.3540605 -0.5424259 -0.7618499
vn -0.3944789 -0.5228573 -0.7556498
vn -0.2713692 -0.4406416 -0.8556832
vn -0.2457989 -0.4280852 -0.86967
vn 0.01217242 -0.1830137 -0.983035
vn -0.08705253 -0.3136169 -0.9455508
vn 0.1746245 0.1221378 -0.9770305
vn 0.1602587 0.1000242 -0.981994
vn 0.2478498 0.4713548 -0.8464013
vn 0.3167016 0.4222828 -0.8493394
vn -0.01982803 0.650045 -0.7596369
vn 0.007212402 0.6312957 -0.7755087
vn -0.1441708 0.797186 -0.5862674
vn -0.1375209 0.7963267 -0.5890261
vn -0.3006912 0.6564532 -0.6918483
vn -0.2861998 0.6512854 -0.7027923
vn -0.4555657 0.5945617 -0.6625378
vn -0.4628542 0.5908772 -0.6607799
vn -0.5618765 0.5368818 -0.6293271
vn -0.5620962 0.534236 -0.6313791
vn -0.9485661 0.3109479 -0.05944519
vn -0.971198 0.2327449 -0.05103141
vn -0.9570787 -0.009050976 0.2896869
vn -0.9513211 -0.01410647 0.3078788
vn -0.9352186 0.2642095 -0.2357108
vn -0.9415825 0.2175401 -0.2570968
vn -0.9028952 0.1097835 -0.4156054
vn -0.6952763 0.01851486 -0.7185041
vn -0.7018585 0.04608241 -0.7108242
vn -0.5454705 0.03942472 -0.8372022
vn -0.4717934 0.01481859 -0.8815846
vn -0.3841667 0.1073696 -0.9169993
vn -0.4390886 0.1260729 -0.8895543
vn -0.2675788 0.1466687 -0.9523076
vn -0.2519549 0.1589345 -0.9545987
vn -0.1935202 0.175335 -0.9653018
vn -0.1858623 0.220893 -0.9574244
vn -0.186843 0.1668656 -0.9681144
vn -0.1661855 0.1696164 -0.9713973
g Taillight_14_0
f 3/3/3 2/2/2 1/1/1
f 1/1/1 2/2/2 4/4/4
f 1/1/1 4/4/4 5/5/5
f 6/6/6 5/5/5 4/4/4
f 5/5/5 6/6/6 7/7/7
f 8/8/8 7/7/7 6/6/6
f 8/8/8 9/9/9 7/7/7
f 10/10/10 7/7/7 9/9/9
f 10/10/10 9/9/9 11/11/11
f 12/12/12 11/11/11 9/9/9
f 12/12/12 13/13/13 11/11/11
f 14/14/14 11/11/11 13/13/13
f 14/14/14 13/13/13 15/15/15
f 16/16/16 15/15/15 13/13/13
f 16/16/16 17/17/17 15/15/15
f 18/18/18 15/15/15 17/17/17
f 17/17/17 19/19/19 18/18/18
f 20/20/20 18/18/18 19/19/19
f 20/20/20 19/19/19 21/21/21
f 22/22/22 21/21/21 19/19/19
f 21/21/21 22/22/22 23/23/23
f 24/24/24 23/23/23 22/22/22
f 27/27/27 26/26/26 25/25/25
f 28/28/28 25/25/25 26/26/26
f 27/27/27 29/29/29 26/26/26
f 30/30/30 26/26/26 29/29/29
f 33/33/33 32/32/32 31/31/31
f 34/34/34 31/31/31 32/32/32
f 35/35/35 31/31/31 34/34/34
f 34/34/34 36/36/36 35/35/35
f 37/37/37 36/36/36 34/34/34
f 37/37/37 38/38/38 36/36/36
f 39/39/39 36/36/36 38/38/38
f 39/39/39 38/38/38 40/40/40
f 41/41/41 39/39/39 40/40/40
f 38/38/38 42/42/42 40/40/40
f 42/42/42 43/43/43 40/40/40
f 46/46/46 45/45/45 44/44/44
f 45/45/45 46/46/46 47/47/47
f 48/48/48 47/47/47 46/46/46
f 47/47/47 48/48/48 49/49/49
f 50/50/50 49/49/49 48/48/48
f 49/49/49 50/50/50 51/51/51
f 50/50/50 52/52/52 51/51/51
f 52/52/52 50/50/50 53/53/53
f 54/54/54 52/52/52 53/53/53
f 52/52/52 54/54/54 55/55/55
f 54/54/54 56/56/56 55/55/55
f 56/56/56 54/54/54 57/57/57
f 58/58/58 56/56/56 57/57/57
f 56/56/56 58/58/58 59/59/59
f 58/58/58 60/60/60 59/59/59
f 60/60/60 58/58/58 61/61/61
f 61/61/61 62/62/62 60/60/60
f 62/62/62 61/61/61 63/63/63
f 64/64/64 62/62/62 63/63/63
f 62/62/62 64/64/64 65/65/65
f 66/66/66 65/65/65 64/64/64
f 65/65/65 66/66/66 67/67/67
f 70/70/70 69/69/69 68/68/68
f 69/69/69 70/70/70 71/71/71
f 69/69/69 72/72/72 68/68/68
f 72/72/72 69/69/69 73/73/73
f 76/76/76 75/75/75 74/74/74
f 75/75/75 76/76/76 77/77/77
f 77/77/77 76/76/76 78/78/78
f 79/79/79 77/77/77 78/78/78
f 77/77/77 79/79/79 80/80/80
f 79/79/79 81/81/81 80/80/80
f 81/81/81 79/79/79 82/82/82
f 83/83/83 81/81/81 82/82/82
f 83/83/83 82/82/82 84/84/84
f 83/83/83 85/85/85 81/81/81
f 83/83/83 86/86/86 85/85/85
