g model_car_97_body_roof_LOD1
v 0.3968794 1.263059 0.0713048
v 0.3913323 1.29223 -0.09031957
v 0.5061462 1.258537 0.02190322
v 0.2146234 1.273278 0.08815777
v 0.4017183 1.248559 0.1329859
v 0.2257608 1.259619 0.1554745
v 2.384186E-07 1.265539 0.1682941
v 2.384186E-07 1.27856 0.101882
v 2.384186E-07 1.30353 -0.05917019
v 0.1796089 1.299435 -0.07050627
v 0.2854555 1.310607 -0.2518467
v 0.134079 1.314628 -0.2467142
v 2.384186E-07 1.318068 -0.2434645
v 2.384186E-07 1.322198 -0.3752177
v 0.1150106 1.319018 -0.3762067
v 0.2429355 1.31541 -0.3776426
v 0.1069112 1.317418 -0.4648548
v 0.2261236 1.313995 -0.4652823
v 0.2067723 1.306766 -0.6090345
v 0.09729826 1.310003 -0.6095549
v 0.1836489 1.290315 -0.8055847
v 0.08635086 1.294106 -0.8073273
v 0.1697909 1.273576 -0.9371674
v 0.07983422 1.278806 -0.9399421
v 2.384186E-07 1.282509 -0.9419394
v 2.384186E-07 1.297207 -0.8085818
v 2.384186E-07 1.312911 -0.6099263
v 2.384186E-07 1.320467 -0.4645438
v 0.3625084 1.291025 -0.6078448
v 0.2067723 1.306766 -0.6090345
v 0.1836489 1.290315 -0.8055847
v 0.3438784 1.27349 -0.8014951
v 0.1697909 1.273576 -0.9371674
v 0.3319399 1.256758 -0.9303485
v 0.3779104 1.299012 -0.4659819
v 0.2261236 1.313995 -0.4652823
v 0.2429355 1.31541 -0.3776426
v 0.3903088 1.300638 -0.3796529
v 0.4176319 1.296151 -0.2561738
v 0.2854555 1.310607 -0.2518467
v 0.4762124 1.281103 -0.1035407
v 0.3913323 1.29223 -0.09031957
v 0.5280474 1.260578 -0.009988904
v 0.5061462 1.258537 0.02190322
v 0.5292416 1.286495 -0.3815551
v 0.5422381 1.282274 -0.2602527
v 0.561762 1.267781 -0.1080427
v 0.5789583 1.24672 0.009126961
v 0.5210083 1.284673 -0.4666426
v 0.509331 1.275962 -0.6067154
v 0.4949353 1.257423 -0.7976193
v 0.5920952 1.226546 0.09343064
v 0.4844306 1.240769 -0.9239636
v 0.5334542 1.280538 -0.3816113
v 0.5460168 1.276325 -0.2603758
v 0.5643553 1.261849 -0.1081787
v 0.5821735 1.240378 0.01012236
v 0.5137813 1.269979 -0.6066809
v 0.5253462 1.278709 -0.4666621
v 0.4995151 1.252649 -0.7975026
v 0.5974976 1.221795 0.09652269
v 0.4019514 1.244096 0.1373281
v 0.5974976 1.220314 0.09697175
v 0.4019514 1.240382 0.1386777
v 0.2262509 1.255272 0.159847
v 0.2262509 1.250349 0.1617062
v 2.384186E-07 1.261219 0.172686
v 2.384186E-07 1.255611 0.1748258
v 0.4890535 1.235997 -0.9237692
v 0.3319399 1.252398 -0.9303485
v 0.3319399 1.256758 -0.9303485
v 0.1695965 1.268001 -0.9368716
v 0.1697909 1.273576 -0.9371674
v 0.07983422 1.278806 -0.9399421
v 2.384186E-07 1.282509 -0.9419394
v 2.384186E-07 1.27815 -0.9419394
v 0.07983422 1.274444 -0.9399421
v 0.1695965 1.268001 -0.9368716
v 0.1697909 1.273576 -0.9371674
v -0.3968811 1.263059 0.0713048
v -0.5061457 1.258537 0.02190322
v -0.3913318 1.29223 -0.09031957
v -0.214623 1.273278 0.08815777
v -0.4017178 1.248559 0.1329859
v -0.2257603 1.259619 0.1554745
v 2.384186E-07 1.265539 0.1682941
v 2.384186E-07 1.27856 0.101882
v 2.384186E-07 1.30353 -0.05917019
v -0.1796085 1.299435 -0.07050627
v -0.2854551 1.310607 -0.2518467
v -0.1340806 1.314628 -0.2467142
v 2.384186E-07 1.318068 -0.2434645
v 2.384186E-07 1.322198 -0.3752177
v -0.1150101 1.319018 -0.3762067
v -0.2429351 1.31541 -0.3776426
v -0.1069108 1.317418 -0.4648548
v -0.2261231 1.313995 -0.4652823
v -0.2067719 1.306766 -0.6090345
v -0.09729779 1.310003 -0.6095549
v -0.1836485 1.290315 -0.8055847
v -0.08635259 1.294106 -0.8073273
v -0.1697904 1.273576 -0.9371674
v -0.07983375 1.278806 -0.9399421
v 2.384186E-07 1.282509 -0.9419394
v 2.384186E-07 1.297207 -0.8085818
v 2.384186E-07 1.312911 -0.6099263
v 2.384186E-07 1.320467 -0.4645438
v -0.3625079 1.291025 -0.6078448
v -0.3438779 1.27349 -0.8014951
v -0.1836485 1.290315 -0.8055847
v -0.2067719 1.306766 -0.6090345
v -0.1697904 1.273576 -0.9371674
v -0.3319395 1.256758 -0.9303485
v -0.377912 1.299012 -0.4659819
v -0.2261231 1.313995 -0.4652823
v -0.2429351 1.31541 -0.3776426
v -0.3903084 1.300638 -0.3796529
v -0.4176315 1.296151 -0.2561738
v -0.2854551 1.310607 -0.2518467
v -0.476212 1.281103 -0.1035407
v -0.3913318 1.29223 -0.09031957
v -0.528047 1.260578 -0.009988904
v -0.5061457 1.258537 0.02190322
v -0.5292432 1.286495 -0.3815551
v -0.5422376 1.282274 -0.2602527
v -0.5617616 1.267781 -0.1080427
v -0.5789578 1.24672 0.009126961
v -0.52101 1.284673 -0.4666426
v -0.5093306 1.275962 -0.6067154
v -0.4949349 1.257423 -0.7976193
v -0.5920948 1.226546 0.09343064
v -0.4844301 1.240769 -0.9239636
v -0.5334538 1.280538 -0.3816113
v -0.5460163 1.276325 -0.2603758
v -0.5643548 1.261849 -0.1081787
v -0.582173 1.240378 0.01012236
v -0.5137808 1.269979 -0.6066809
v -0.5253479 1.278709 -0.4666621
v -0.4995147 1.252649 -0.7975026
v -0.5974972 1.221795 0.09652269
v -0.401951 1.244096 0.1373281
v -0.5974972 1.220314 0.09697175
v -0.401951 1.240382 0.1386777
v -0.2262505 1.255272 0.159847
v -0.2262505 1.250349 0.1617062
v 2.384186E-07 1.261219 0.172686
v 2.384186E-07 1.255611 0.1748258
v -0.4890531 1.235997 -0.9237692
v -0.3319395 1.252398 -0.9303485
v -0.3319395 1.256758 -0.9303485
v -0.1695961 1.268001 -0.9368716
v -0.1697904 1.273576 -0.9371674
v -0.07983375 1.278806 -0.9399421
v -0.07983375 1.274444 -0.9399421
v 2.384186E-07 1.27815 -0.9419394
v 2.384186E-07 1.282509 -0.9419394
v -0.1695961 1.268001 -0.9368716
v -0.1697904 1.273576 -0.9371674
vt 0.05450789 0.8643288
vt 0.1046628 0.8657352
vt 0.06922343 0.8308646
vt 0.04988536 0.9203782
vt 0.03519049 0.8627052
vt 0.02879961 0.9168209
vt 0.02431152 0.9866551
vt 0.04551102 0.986955
vt 0.0966587 0.9870274
vt 0.09956457 0.93104
vt 0.1551073 0.8972242
vt 0.1547246 0.9441941
vt 0.1547557 0.9861174
vt 0.1961929 0.9849488
vt 0.1952519 0.948951
vt 0.1943108 0.9091994
vt 0.222987 0.9504091
vt 0.2215806 0.9133565
vt 0.2663064 0.9171621
vt 0.2682919 0.9511641
vt 0.3276712 0.9203265
vt 0.3303806 0.9505643
vt 0.3691085 0.9211952
vt 0.3722109 0.9492716
vt 0.3747858 0.9742457
vt 0.3326764 0.9775859
vt 0.2700396 0.9815983
vt 0.2242797 0.983863
vt 0.2636384 0.8691375
vt 0.2663064 0.9171621
vt 0.3276712 0.9203265
vt 0.3229142 0.8712057
vt 0.3691085 0.9211952
vt 0.3631519 0.8709265
vt 0.2200088 0.8664074
vt 0.2215806 0.9133565
vt 0.1943108 0.9091994
vt 0.1933801 0.8635843
vt 0.15519 0.8563144
vt 0.1551073 0.8972242
vt 0.1078893 0.8395202
vt 0.1046628 0.8657352
vt 0.07875805 0.8241015
vt 0.06922343 0.8308646
vt 0.1925425 0.8207819
vt 0.155159 0.8178244
vt 0.1082202 0.8131191
vt 0.07230513 0.8086
vt 0.2186644 0.8223952
vt 0.2614771 0.8242462
vt 0.3188915 0.8261594
vt 0.04645208 0.8048875
vt 0.354972 0.8293341
vt 0.1925735 0.8186206
vt 0.1551486 0.8157355
vt 0.1081375 0.811237
vt 0.07178806 0.8066145
vt 0.2615598 0.8220643
vt 0.2187265 0.8202132
vt 0.3190156 0.8242359
vt 0.04515942 0.8028709
vt 0.03334975 0.8624674
vt 0.04464236 0.8027365
vt 0.03221221 0.862271
vt 0.02694853 0.9165727
vt 0.02540769 0.9164175
vt 0.02243976 0.9866034
vt 0.02065073 0.9865207
vt 0.355727 0.8275658
vt 0.3643826 0.8706059
vt 0.3631519 0.8709265
vt 0.3707424 0.9209366
vt 0.3691085 0.9211952
vt 0.3722109 0.9492716
vt 0.3747858 0.9742457
vt 0.3760888 0.9740698
vt 0.3735035 0.9490751
vt 0.3707424 0.9209366
vt 0.3691085 0.9211952
vt 1.054504 0.8643288
vt 1.069219 0.8308646
vt 1.104659 0.8657352
vt 1.049881 0.9203782
vt 1.035197 0.8627052
vt 1.028796 0.9168209
vt 1.024307 0.9866551
vt 1.045507 0.986955
vt 1.096665 0.9870274
vt 1.09956 0.93104
vt 1.155114 0.8972242
vt 1.154731 0.9441941
vt 1.154752 0.9861174
vt 1.196199 0.9849488
vt 1.195248 0.948951
vt 1.194317 0.9091994
vt 1.222983 0.9504091
vt 1.221577 0.9133565
vt 1.266302 0.9171621
vt 1.268288 0.9511641
vt 1.327677 0.9203265
vt 1.330387 0.9505643
vt 1.369105 0.9211952
vt 1.372217 0.9492716
vt 1.374792 0.9742457
vt 1.332683 0.9775859
vt 1.270036 0.9815983
vt 1.224276 0.983863
vt 1.263634 0.8691375
vt 1.322921 0.8712057
vt 1.327677 0.9203265
vt 1.266302 0.9171621
vt 1.369105 0.9211952
vt 1.363148 0.8709265
vt 1.220005 0.8664074
vt 1.221577 0.9133565
vt 1.194317 0.9091994
vt 1.193376 0.8635843
vt 1.155196 0.8563144
vt 1.155114 0.8972242
vt 1.107896 0.8395202
vt 1.104659 0.8657352
vt 1.078754 0.8241015
vt 1.069219 0.8308646
vt 1.192538 0.8207819
vt 1.155155 0.8178244
vt 1.108216 0.8131191
vt 1.072301 0.8086
vt 1.21866 0.8223952
vt 1.261473 0.8242462
vt 1.318898 0.8261594
vt 1.046448 0.8048875
vt 1.354978 0.8293341
vt 1.19258 0.8186206
vt 1.155155 0.8157355
vt 1.108133 0.811237
vt 1.071784 0.8066145
vt 1.261556 0.8220643
vt 1.218733 0.8202132
vt 1.319022 0.8242359
vt 1.045155 0.8028709
vt 1.033346 0.8624674
vt 1.044649 0.8027365
vt 1.032208 0.862271
vt 1.026955 0.9165727
vt 1.025404 0.9164175
vt 1.022436 0.9866034
vt 1.020647 0.9865207
vt 1.355733 0.8275658
vt 1.364378 0.8706059
vt 1.363148 0.8709265
vt 1.370738 0.9209366
vt 1.369105 0.9211952
vt 1.372217 0.9492716
vt 1.3735 0.9490751
vt 1.376085 0.9740698
vt 1.374792 0.9742457
vt 1.370738 0.9209366
vt 1.369105 0.9211952
vn 0.09080428 0.9777478 0.1891133
vn 0.0556789 0.98884 0.1381858
vn 0.1425681 0.9666555 0.212724
vn 0.05013275 0.9832939 0.1749853
vn 0.1166862 0.9685043 0.219963
vn 0.0575276 0.9777478 0.201742
vn 0.0002176762 0.9814452 0.1917427
vn 0.0002176762 0.9851426 0.1717383
vn 0.0002176762 0.9925374 0.1219406
vn 0.03904051 0.9925374 0.1155224
vn 0.03349441 0.9962349 0.07996342
vn 0.02979702 0.9980836 0.0542333
vn 0.0002176762 0.9980836 0.06187942
vn 0.0002176762 0.9999323 0.01163452
vn 0.02793924 0.9996096 0
vn 0.02793924 0.9996096 0
vn 0.02794826 0.9980836 -0.05520872
vn 0.02794826 0.9980836 -0.05520872
vn 0.03164572 0.9962349 -0.08071276
vn 0.03164572 0.9962349 -0.08071276
vn 0.0408892 0.9943862 -0.09759184
vn 0.03904051 0.9943862 -0.09834595
vn 0.05013275 0.9906887 -0.1265805
vn 0.04643536 0.9925374 -0.1127533
vn 0.0002176762 0.9943862 -0.1058112
vn 0.0002176762 0.9962349 -0.08669467
vn 0.0002176762 0.9980836 -0.06187942
vn 0.0002176762 0.9999323 -0.01163452
vn 0.1018965 0.9906887 -0.09029409
vn 0.1018965 0.9906887 -0.09029409
vn 0.1055939 0.9869913 -0.1212359
vn 0.1055939 0.9869913 -0.1212359
vn 0.1074427 0.9851426 -0.1339783
vn 0.1074427 0.9851426 -0.1339783
vn 0.1000478 0.9943862 -0.03444546
vn 0.09819913 0.9943862 -0.03940811
vn 0.1018965 0.9943862 -0.02851642
vn 0.1018965 0.9943862 -0.02851642
vn 0.1148375 0.9925374 0.04101127
vn 0.1092505 0.9940142 0
vn 0.1351733 0.9869913 0.08704256
vn 0.124081 0.9906887 0.05603386
vn 0.1684499 0.9740504 0.1511637
vn 0.1629038 0.9722017 0.1681849
vn 0.1406304 0.9900622 0
vn 0.1610478 0.9869466 0
vn 0.2072728 0.9758991 0.06825641
vn 0.2756749 0.9500172 0.1465287
vn 0.137022 0.98884 -0.05848429
vn 0.1351733 0.9869913 -0.08704256
vn 0.1351733 0.9832939 -0.1219071
vn 0.2128189 0.9537146 0.2124537
vn 0.1388707 0.970353 -0.197813
vn 0.8210432 0.567335 -0.06339623
vn 0.8580173 0.5100251 -0.06066833
vn 0.891294 0.4490179 -0.06307103
vn 0.8480533 0.5299108 0
vn 0.778523 0.6172501 -0.1135973
vn 0.8044048 0.5858221 -0.09871874
vn 0.7433975 0.656073 -0.130109
vn -0.265996 0.2567525 0.9291524
vn 0.1758448 0.3343982 0.9258814
vn -0.2696934 0.9611094 -0.05944912
vn 0.1776935 0.3343982 0.9255285
vn 0.09265298 0.3510364 0.9317665
vn 0.09265298 0.3510364 0.9317665
vn 0.0002176762 0.3547338 0.9349673
vn 0.0002176762 0.3547338 0.9349673
vn 0.6528109 0.611704 -0.4468289
vn 0.03904051 -0.01500738 -0.9991249
vn 0.03904051 -0.01685607 -0.9990954
vn 0.03719181 -0.02979702 -0.9988638
vn 0.03719181 -0.02979702 -0.9988638
vn 0.02794826 -0.01685607 -0.9994673
vn 0.0002176762 -0.0002176762 -0.9999999
vn 0.0002176762 -0.0002176762 -0.9999999
vn 0.02794826 -0.01685607 -0.9994673
vn 0.02979702 -0.02979702 -0.9991117
vn 0.02979702 -0.02979702 -0.9991117
vn -0.09036887 0.9777478 0.1893217
vn -0.1421326 0.9666555 0.2130152
vn -0.05524349 0.98884 0.1383605
vn -0.04969734 0.9832939 0.1751094
vn -0.1162508 0.9685043 0.2201935
vn -0.05709219 0.9777478 0.2018656
vn 0.0002176762 0.9814452 0.1917427
vn 0.0002176762 0.9851426 0.1717383
vn 0.0002176762 0.9925374 0.1219406
vn -0.03860515 0.9925374 0.1156686
vn -0.0349077 0.9962349 0.0793566
vn -0.02936161 0.9980836 0.05447017
vn 0.0002176762 0.9980836 0.06187942
vn 0.0002176762 0.9999323 0.01163452
vn -0.02750436 0.9996216 0
vn -0.02750436 0.9996216 0
vn -0.02936161 0.9980836 -0.05447017
vn -0.02936161 0.9980836 -0.05447017
vn -0.0312103 0.9962349 -0.08088243
vn -0.0312103 0.9962349 -0.08088243
vn -0.04045385 0.9943862 -0.09777306
vn -0.03860515 0.9943862 -0.09851763
vn -0.0515461 0.9906887 -0.1260116
vn -0.04599994 0.9925374 -0.1129316
vn 0.0002176762 0.9943862 -0.1058112
vn 0.0002176762 0.9962349 -0.08669467
vn 0.0002176762 0.9980836 -0.06187942
vn 0.0002176762 0.9999323 -0.01163452
vn -0.1033098 0.9906887 -0.08867347
vn -0.1051586 0.9869913 -0.1216136
vn -0.1051586 0.9869913 -0.1216136
vn -0.1014611 0.9906887 -0.0907829
vn -0.1070073 0.9851426 -0.1343264
vn -0.108856 0.9851426 -0.1328325
vn -0.09961241 0.9943862 -0.03568548
vn -0.09961241 0.9943862 -0.03568548
vn -0.1014611 0.9943862 -0.0300283
vn -0.1033098 0.9943862 -0.02287247
vn -0.1144021 0.9925374 0.04221092
vn -0.1106461 0.9938599 0
vn -0.1347378 0.9869913 0.08771514
vn -0.1236457 0.9906887 0.0569884
vn -0.1680145 0.9740504 0.1516475
vn -0.1624684 0.9722017 0.1686056
vn -0.1402038 0.9901226 0
vn -0.162424 0.9867211 0
vn -0.2068374 0.9758991 0.06956466
vn -0.2752395 0.9500172 0.1473449
vn -0.1365865 0.98884 -0.05949422
vn -0.1365865 0.9869913 -0.08480751
vn -0.1347378 0.9832939 -0.1223883
vn -0.2123835 0.9537146 0.2128889
vn -0.1384352 0.970353 -0.198118
vn -0.8206078 0.567335 -0.06880306
vn -0.8575819 0.5100251 -0.06654119
vn -0.8908587 0.4490179 -0.06894801
vn -0.8479311 0.5301063 0
vn -0.7799362 0.6172501 -0.10345
vn -0.8039694 0.5858221 -0.1022041
vn -0.7429621 0.656073 -0.1325727
vn 0.2664314 0.2567525 0.9290277
vn -0.1754093 0.3343982 0.9259641
vn 0.2701288 0.9611094 -0.05743846
vn -0.1772581 0.3343982 0.9256119
vn -0.09221762 0.3510364 0.9318097
vn -0.09406632 0.3510364 0.9316249
vn 0.0002176762 0.3547338 0.9349673
vn 0.0002176762 0.3547338 0.9349673
vn -0.6523756 0.611704 -0.4474644
vn -0.04045385 -0.01500738 -0.9990687
vn -0.04045385 -0.01685607 -0.9990392
vn -0.03860515 -0.02979702 -0.9988102
vn -0.03860515 -0.02979702 -0.9988102
vn -0.02751291 -0.01685607 -0.9994793
vn -0.02751291 -0.01685607 -0.9994793
vn 0.0002176762 -0.0002176762 -0.9999999
vn 0.0002176762 -0.0002176762 -0.9999999
vn -0.0312103 -0.02979702 -0.9990686
vn -0.0312103 -0.02979702 -0.9990686
g model_car_97_body_roof_LOD1_0
f 3/3/3 2/2/2 1/1/1
f 1/1/1 2/2/2 4/4/4
f 5/5/5 1/1/1 4/4/4
f 6/6/6 5/5/5 4/4/4
f 7/7/7 6/6/6 4/4/4
f 8/8/8 7/7/7 4/4/4
f 9/9/9 8/8/8 4/4/4
f 10/10/10 9/9/9 4/4/4
f 2/2/2 10/10/10 4/4/4
f 2/2/2 11/11/11 10/10/10
f 11/11/11 12/12/12 10/10/10
f 13/13/13 9/9/9 10/10/10
f 12/12/12 13/13/13 10/10/10
f 14/14/14 13/13/13 12/12/12
f 15/15/15 14/14/14 12/12/12
f 16/16/16 15/15/15 12/12/12
f 11/11/11 16/16/16 12/12/12
f 15/15/15 16/16/16 17/17/17
f 14/14/14 15/15/15 17/17/17
f 16/16/16 18/18/18 17/17/17
f 18/18/18 19/19/19 17/17/17
f 19/19/19 20/20/20 17/17/17
f 19/19/19 21/21/21 20/20/20
f 21/21/21 22/22/22 20/20/20
f 21/21/21 23/23/23 22/22/22
f 23/23/23 24/24/24 22/22/22
f 24/24/24 25/25/25 22/22/22
f 25/25/25 26/26/26 22/22/22
f 22/22/22 26/26/26 20/20/20
f 26/26/26 27/27/27 20/20/20
f 20/20/20 27/27/27 17/17/17
f 27/27/27 28/28/28 17/17/17
f 28/28/28 14/14/14 17/17/17
f 31/31/31 30/30/30 29/29/29
f 32/32/32 31/31/31 29/29/29
f 33/33/33 31/31/31 32/32/32
f 34/34/34 33/33/33 32/32/32
f 29/29/29 30/30/30 35/35/35
f 30/30/30 36/36/36 35/35/35
f 36/36/36 37/37/37 35/35/35
f 37/37/37 38/38/38 35/35/35
f 38/38/38 37/37/37 39/39/39
f 37/37/37 40/40/40 39/39/39
f 39/39/39 40/40/40 41/41/41
f 40/40/40 42/42/42 41/41/41
f 41/41/41 42/42/42 43/43/43
f 42/42/42 44/44/44 43/43/43
f 45/45/45 38/38/38 39/39/39
f 38/38/38 45/45/45 35/35/35
f 46/46/46 45/45/45 39/39/39
f 46/46/46 39/39/39 41/41/41
f 47/47/47 41/41/41 43/43/43
f 47/47/47 46/46/46 41/41/41
f 48/48/48 47/47/47 43/43/43
f 45/45/45 49/49/49 35/35/35
f 49/49/49 50/50/50 35/35/35
f 50/50/50 29/29/29 35/35/35
f 50/50/50 51/51/51 29/29/29
f 51/51/51 32/32/32 29/29/29
f 52/52/52 48/48/48 43/43/43
f 44/44/44 52/52/52 43/43/43
f 51/51/51 53/53/53 32/32/32
f 53/53/53 34/34/34 32/32/32
f 54/54/54 45/45/45 46/46/46
f 45/45/45 54/54/54 49/49/49
f 55/55/55 54/54/54 46/46/46
f 55/55/55 46/46/46 47/47/47
f 56/56/56 47/47/47 48/48/48
f 56/56/56 55/55/55 47/47/47
f 57/57/57 56/56/56 48/48/48
f 58/58/58 50/50/50 49/49/49
f 59/59/59 58/58/58 49/49/49
f 54/54/54 59/59/59 49/49/49
f 60/60/60 51/51/51 50/50/50
f 58/58/58 60/60/60 50/50/50
f 61/61/61 57/57/57 48/48/48
f 61/61/61 52/52/52 62/62/62
f 63/63/63 61/61/61 62/62/62
f 64/64/64 63/63/63 62/62/62
f 64/64/64 62/62/62 65/65/65
f 66/66/66 64/64/64 65/65/65
f 52/52/52 5/5/5 62/62/62
f 62/62/62 5/5/5 65/65/65
f 66/66/66 65/65/65 67/67/67
f 68/68/68 66/66/66 67/67/67
f 65/65/65 6/6/6 67/67/67
f 5/5/5 6/6/6 65/65/65
f 6/6/6 7/7/7 67/67/67
f 52/52/52 61/61/61 48/48/48
f 5/5/5 52/52/52 1/1/1
f 52/52/52 3/3/3 1/1/1
f 60/60/60 69/69/69 51/51/51
f 69/69/69 53/53/53 51/51/51
f 69/69/69 70/70/70 53/53/53
f 70/70/70 71/71/71 53/53/53
f 70/70/70 72/72/72 71/71/71
f 72/72/72 73/73/73 71/71/71
f 76/76/76 75/75/75 74/74/74
f 77/77/77 76/76/76 74/74/74
f 77/77/77 74/74/74 78/78/78
f 74/74/74 79/79/79 78/78/78
f 82/82/82 81/81/81 80/80/80
f 82/82/82 80/80/80 83/83/83
f 80/80/80 84/84/84 83/83/83
f 84/84/84 85/85/85 83/83/83
f 85/85/85 86/86/86 83/83/83
f 86/86/86 87/87/87 83/83/83
f 87/87/87 88/88/88 83/83/83
f 88/88/88 89/89/89 83/83/83
f 89/89/89 82/82/82 83/83/83
f 90/90/90 82/82/82 89/89/89
f 91/91/91 90/90/90 89/89/89
f 92/92/92 91/91/91 89/89/89
f 88/88/88 92/92/92 89/89/89
f 92/92/92 93/93/93 91/91/91
f 93/93/93 94/94/94 91/91/91
f 95/95/95 90/90/90 91/91/91
f 94/94/94 95/95/95 91/91/91
f 95/95/95 94/94/94 96/96/96
f 94/94/94 93/93/93 96/96/96
f 97/97/97 95/95/95 96/96/96
f 98/98/98 97/97/97 96/96/96
f 99/99/99 98/98/98 96/96/96
f 100/100/100 98/98/98 99/99/99
f 101/101/101 100/100/100 99/99/99
f 102/102/102 100/100/100 101/101/101
f 103/103/103 102/102/102 101/101/101
f 104/104/104 103/103/103 101/101/101
f 105/105/105 104/104/104 101/101/101
f 105/105/105 101/101/101 99/99/99
f 106/106/106 105/105/105 99/99/99
f 106/106/106 99/99/99 96/96/96
f 107/107/107 106/106/106 96/96/96
f 93/93/93 107/107/107 96/96/96
f 110/110/110 109/109/109 108/108/108
f 111/111/111 110/110/110 108/108/108
f 110/110/110 112/112/112 109/109/109
f 112/112/112 113/113/113 109/109/109
f 111/111/111 108/108/108 114/114/114
f 115/115/115 111/111/111 114/114/114
f 116/116/116 115/115/115 114/114/114
f 117/117/117 116/116/116 114/114/114
f 116/116/116 117/117/117 118/118/118
f 119/119/119 116/116/116 118/118/118
f 119/119/119 118/118/118 120/120/120
f 121/121/121 119/119/119 120/120/120
f 121/121/121 120/120/120 122/122/122
f 123/123/123 121/121/121 122/122/122
f 117/117/117 124/124/124 118/118/118
f 124/124/124 117/117/117 114/114/114
f 124/124/124 125/125/125 118/118/118
f 118/118/118 125/125/125 120/120/120
f 120/120/120 126/126/126 122/122/122
f 125/125/125 126/126/126 120/120/120
f 126/126/126 127/127/127 122/122/122
f 128/128/128 124/124/124 114/114/114
f 129/129/129 128/128/128 114/114/114
f 108/108/108 129/129/129 114/114/114
f 130/130/130 129/129/129 108/108/108
f 109/109/109 130/130/130 108/108/108
f 131/131/131 123/123/123 122/122/122
f 127/127/127 131/131/131 122/122/122
f 132/132/132 130/130/130 109/109/109
f 113/113/113 132/132/132 109/109/109
f 124/124/124 133/133/133 125/125/125
f 133/133/133 124/124/124 128/128/128
f 133/133/133 134/134/134 125/125/125
f 125/125/125 134/134/134 126/126/126
f 126/126/126 135/135/135 127/127/127
f 134/134/134 135/135/135 126/126/126
f 135/135/135 136/136/136 127/127/127
f 129/129/129 137/137/137 128/128/128
f 137/137/137 138/138/138 128/128/128
f 138/138/138 133/133/133 128/128/128
f 139/139/139 137/137/137 129/129/129
f 130/130/130 139/139/139 129/129/129
f 140/140/140 131/131/131 127/127/127
f 131/131/131 140/140/140 141/141/141
f 140/140/140 142/142/142 141/141/141
f 142/142/142 143/143/143 141/141/141
f 141/141/141 143/143/143 144/144/144
f 143/143/143 145/145/145 144/144/144
f 84/84/84 131/131/131 141/141/141
f 84/84/84 141/141/141 144/144/144
f 144/144/144 145/145/145 146/146/146
f 145/145/145 147/147/147 146/146/146
f 85/85/85 144/144/144 146/146/146
f 85/85/85 84/84/84 144/144/144
f 86/86/86 85/85/85 146/146/146
f 136/136/136 140/140/140 127/127/127
f 148/148/148 139/139/139 130/130/130
f 132/132/132 148/148/148 130/130/130
f 149/149/149 148/148/148 132/132/132
f 150/150/150 149/149/149 132/132/132
f 151/151/151 149/149/149 150/150/150
f 152/152/152 151/151/151 150/150/150
f 131/131/131 84/84/84 80/80/80
f 81/81/81 131/131/131 80/80/80
f 155/155/155 154/154/154 153/153/153
f 156/156/156 155/155/155 153/153/153
f 153/153/153 154/154/154 157/157/157
f 158/158/158 153/153/153 157/157/157
