g model_car_97_matte_mirror_LOD1
v 1.021677 1.01475 0.1961925
v 1.006039 0.9994094 0.2005365
v 1.025095 1.002697 0.1951798
v 1.021653 0.9853628 0.1960207
v 0.8304808 0.9775095 0.264571
v 0.8356317 0.9671257 0.2629571
v 0.8325679 1.042007 0.2647766
v 0.8277066 1.020788 0.2661906
v 0.842788 1.057706 0.2609599
v 0.8470701 0.9540375 0.258709
v 0.855179 1.06642 0.2562842
v 0.8601282 0.9464979 0.2536798
v 0.8651913 1.06919 0.2525673
v 0.8703043 0.9441211 0.249845
v 0.8275868 0.9882009 0.2654657
v 0.8261527 1.003484 0.2661088
v 0.9927707 1.04123 0.2059851
v 0.9977799 0.9590547 0.2032708
v 1.006039 0.9994094 0.2005365
v 1.003079 1.035266 0.2019825
v 1.012164 1.028518 0.1989647
v 1.008705 0.9671077 0.1992342
v 1.006039 0.9994094 0.2005365
v 1.008705 0.9671077 0.1992342
v 1.021653 0.9853628 0.1960207
v 1.021677 1.01475 0.1961925
v 1.012164 1.028518 0.1989647
v -1.021677 1.01475 0.1961925
v -1.025094 1.002697 0.1951798
v -1.006038 0.9994094 0.2005365
v -1.021653 0.9853628 0.1960207
v -0.8304806 0.9775095 0.264571
v -0.8277063 1.020788 0.2661906
v -0.8325677 1.042007 0.2647766
v -0.8356316 0.9671257 0.2629571
v -0.8427877 1.057706 0.2609599
v -0.8470719 0.9540375 0.258709
v -0.8551788 1.06642 0.2562842
v -0.860128 0.9464979 0.2536798
v -0.8651931 1.06919 0.2525673
v -0.8703061 0.9441211 0.249845
v -0.8275865 0.9882009 0.2654657
v -0.8261526 1.003484 0.2661088
v -0.9927704 1.04123 0.2059851
v -0.9977796 0.9590547 0.2032708
v -1.006038 0.9994094 0.2005365
v -1.003078 1.035266 0.2019825
v -1.012166 1.028518 0.1989647
v -1.008705 0.9671077 0.1992342
v -1.006038 0.9994094 0.2005365
v -1.021653 0.9853628 0.1960207
v -1.008705 0.9671077 0.1992342
v -1.012166 1.028518 0.1989647
v -1.021677 1.01475 0.1961925
vn -0.27133 0.003821701 -0.9624788
vn -0.27133 0.003821701 -0.9624788
vn -0.27133 0.003821701 -0.9624788
vn -0.2657714 0.01424411 -0.9639308
vn -0.3005128 0.01285443 -0.9536912
vn -0.3470662 0.007295817 -0.9378123
vn -0.347761 0.007295817 -0.9375548
vn -0.3012076 0.01285443 -0.953472
vn -0.3554041 0.005906165 -0.9346941
vn -0.3554041 0.005906165 -0.9346941
vn -0.3533196 0.005906165 -0.9354841
vn -0.3526248 0.005906165 -0.9357462
vn -0.3463713 0.006601006 -0.9380743
vn -0.3463713 0.007295817 -0.9380692
vn -0.2122698 0.02258202 -0.9769502
vn -0.2122698 0.02258202 -0.9769502
vn -0.3470662 0.007990658 -0.9378066
vn -0.3470662 0.007990658 -0.9378066
vn -0.27133 0.003821701 -0.9624788
vn -0.3512351 0.009380311 -0.9362403
vn -0.2963438 0.01076996 -0.9550206
vn -0.3262214 0.01146477 -0.9452239
vn -0.27133 0.003821701 -0.9624788
vn -0.3262214 0.01146477 -0.9452239
vn -0.2657714 0.01424411 -0.9639308
vn -0.27133 0.003821701 -0.9624788
vn -0.2963438 0.01076996 -0.9550206
vn 0.2713298 0.003821701 -0.9624789
vn 0.2713298 0.003821701 -0.9624789
vn 0.2713298 0.003821701 -0.9624789
vn 0.2657712 0.01424411 -0.9639309
vn 0.3005125 0.01285443 -0.9536912
vn 0.3012073 0.01285443 -0.953472
vn 0.3477607 0.007295817 -0.937555
vn 0.3470659 0.007295817 -0.9378124
vn 0.354709 0.005906165 -0.9349581
vn 0.3554038 0.005906165 -0.9346942
vn 0.3526245 0.005906165 -0.9357463
vn 0.3526245 0.005906165 -0.9357463
vn 0.3463711 0.006601006 -0.9380744
vn 0.3463711 0.007295817 -0.9380692
vn 0.2122695 0.02258202 -0.9769502
vn 0.2122695 0.02258202 -0.9769502
vn 0.3470659 0.007990658 -0.9378067
vn 0.3470659 0.007990658 -0.9378067
vn 0.2713298 0.003821701 -0.9624789
vn 0.3512349 0.009380311 -0.9362404
vn 0.2963435 0.01076996 -0.9550207
vn 0.3262211 0.01146477 -0.945224
vn 0.2713298 0.003821701 -0.9624789
vn 0.2657712 0.01424411 -0.9639309
vn 0.3262211 0.01146477 -0.945224
vn 0.2963435 0.01076996 -0.9550207
vn 0.2713298 0.003821701 -0.9624789
g model_car_97_matte_mirror_LOD1_0
f 3/3/3 2/2/2 1/1/1
f 3/3/3 4/4/4 2/2/2
f 7/7/7 6/6/6 5/5/5
f 8/8/8 7/7/7 5/5/5
f 7/7/7 9/9/9 6/6/6
f 9/9/9 10/10/10 6/6/6
f 9/9/9 11/11/11 10/10/10
f 11/11/11 12/12/12 10/10/10
f 12/12/12 11/11/11 13/13/13
f 14/14/14 12/12/12 13/13/13
f 5/5/5 15/15/15 8/8/8
f 15/15/15 16/16/16 8/8/8
f 14/14/14 13/13/13 17/17/17
f 18/18/18 14/14/14 17/17/17
f 18/18/18 17/17/17 19/19/19
f 17/17/17 20/20/20 19/19/19
f 19/19/19 20/20/20 21/21/21
f 19/19/19 22/22/22 18/18/18
f 25/25/25 24/24/24 23/23/23
f 27/27/27 26/26/26 23/23/23
f 30/30/30 29/29/29 28/28/28
f 31/31/31 29/29/29 30/30/30
f 34/34/34 33/33/33 32/32/32
f 35/35/35 34/34/34 32/32/32
f 36/36/36 34/34/34 35/35/35
f 37/37/37 36/36/36 35/35/35
f 38/38/38 36/36/36 37/37/37
f 39/39/39 38/38/38 37/37/37
f 38/38/38 39/39/39 40/40/40
f 39/39/39 41/41/41 40/40/40
f 42/42/42 32/32/32 33/33/33
f 43/43/43 42/42/42 33/33/33
f 40/40/40 41/41/41 44/44/44
f 41/41/41 45/45/45 44/44/44
f 44/44/44 45/45/45 46/46/46
f 47/47/47 44/44/44 46/46/46
f 47/47/47 46/46/46 48/48/48
f 49/49/49 46/46/46 45/45/45
f 52/52/52 51/51/51 50/50/50
f 54/54/54 53/53/53 50/50/50
