g Taillights_45
v 0.4403 0.6779994 -2.145
v 0.4964 0.6784993 -2.1335
v 0.4048 0.8104994 -2.1376
v 0.3925 0.7882994 -2.141401
v 0.5044 0.8064994 -2.115
v 0.5959 0.6741993 -2.0853
v 0.6236 0.7948993 -2.0575
v 0.6755 0.6650994 -2.0325
v 0.6637 0.6190994 -2.0487
v 0.7385 0.6097993 -1.9791
v 0.746 0.6537993 -1.9659
v 0.7036 0.7750993 -1.9941
v 0.7783 0.6023993 -1.9325
v 0.7974 0.6386993 -1.911
v 0.802 0.7113993 -1.8991
v 0.764 0.7530993 -1.9336
v 0.7887 0.7402993 -1.9118
v -0.4403 0.6779994 -2.145
v -0.4048 0.8104994 -2.1376
v -0.4964 0.6784993 -2.1335
v -0.3925 0.7882994 -2.141401
v -0.5044 0.8064994 -2.115
v -0.596 0.6741993 -2.0853
v -0.6236 0.7948993 -2.0575
v -0.6755 0.6650994 -2.0325
v -0.6637 0.6190994 -2.0487
v -0.7385 0.6097993 -1.9791
v -0.746 0.6537993 -1.9659
v -0.7036 0.7750993 -1.9941
v -0.7783 0.6023993 -1.9325
v -0.7974 0.6386993 -1.911
v -0.802 0.7113993 -1.8991
v -0.764 0.7530993 -1.9336
v -0.7887 0.7402993 -1.9118
vt 0.9429 0.8417
vt 0.8882 0.8433
vt 0.9772 0.9722
vt 0.9891 0.9501
vt 0.8796 0.9706
vt 0.7825 0.8444
vt 0.7528 0.9656
vt 0.6909 0.8411
vt 0.7062 0.7943
vt 0.6083 0.7928
vt 0.5977 0.8373
vt 0.6543 0.953
vt 0.5494 0.7906
vt 0.5249 0.8285
vt 0.5193 0.9009
vt 0.5712 0.9381
vt 0.5389 0.9279
vt 0.9429 0.8417
vt 0.9772 0.9722
vt 0.8882 0.8433
vt 0.9891 0.9501
vt 0.8796 0.9706
vt 0.7825 0.8444
vt 0.7528 0.9656
vt 0.6909 0.8411
vt 0.7062 0.7943
vt 0.6083 0.7928
vt 0.5977 0.8373
vt 0.6543 0.953
vt 0.5494 0.7906
vt 0.5249 0.8285
vt 0.5193 0.9009
vt 0.5712 0.9381
vt 0.5389 0.9279
vn 0.1941534 0.1064846 -0.9751746
vn 0.3192019 0.1096229 -0.9413251
vn 0.1880053 0.1101469 -0.9759722
vn 0.1384203 0.09215517 -0.9860767
vn 0.3367025 0.1148614 -0.9345792
vn 0.5003108 0.09464341 -0.8606577
vn 0.5320989 0.09552877 -0.8412758
vn 0.6346946 0.09392396 -0.767034
vn 0.6218757 0.1133636 -0.7748673
vn 0.7227237 0.07942975 -0.6865577
vn 0.7202144 0.07288656 -0.6899121
vn 0.6756691 0.09385878 -0.7312057
vn 0.743338 0.03297879 -0.6681024
vn 0.7353424 0.0444424 -0.6762369
vn 0.7416678 0.05429039 -0.6685668
vn 0.7049105 0.1006054 -0.7021252
vn 0.7167189 0.07950649 -0.6928151
vn -0.1941534 0.1064846 -0.9751746
vn -0.1880053 0.1101469 -0.9759722
vn -0.3190257 0.1096427 -0.9413826
vn -0.1384203 0.09215517 -0.9860767
vn -0.3366169 0.1149688 -0.9345968
vn -0.5005181 0.09480805 -0.860519
vn -0.5321975 0.09575842 -0.8411874
vn -0.6348623 0.09392089 -0.7668955
vn -0.6221188 0.1132389 -0.7746903
vn -0.7227237 0.07942975 -0.6865577
vn -0.7202144 0.07288656 -0.6899121
vn -0.6756691 0.09385878 -0.7312057
vn -0.743338 0.03297879 -0.6681024
vn -0.7353424 0.0444424 -0.6762369
vn -0.7416678 0.05429039 -0.6685668
vn -0.7049105 0.1006054 -0.7021252
vn -0.7167189 0.07950649 -0.6928151
g Taillights_45_0
f 3/3/3 2/2/2 1/1/1
f 4/4/4 3/3/3 1/1/1
f 5/5/5 2/2/2 3/3/3
f 5/5/5 6/6/6 2/2/2
f 7/7/7 6/6/6 5/5/5
f 7/7/7 8/8/8 6/6/6
f 8/8/8 9/9/9 6/6/6
f 8/8/8 10/10/10 9/9/9
f 11/11/11 10/10/10 8/8/8
f 12/12/12 11/11/11 8/8/8
f 12/12/12 8/8/8 7/7/7
f 10/10/10 11/11/11 13/13/13
f 13/13/13 11/11/11 14/14/14
f 15/15/15 14/14/14 11/11/11
f 16/16/16 11/11/11 12/12/12
f 17/17/17 15/15/15 11/11/11
f 16/16/16 17/17/17 11/11/11
f 20/20/20 19/19/19 18/18/18
f 19/19/19 21/21/21 18/18/18
f 20/20/20 22/22/22 19/19/19
f 23/23/23 22/22/22 20/20/20
f 23/23/23 24/24/24 22/22/22
f 25/25/25 24/24/24 23/23/23
f 26/26/26 25/25/25 23/23/23
f 27/27/27 25/25/25 26/26/26
f 27/27/27 28/28/28 25/25/25
f 28/28/28 29/29/29 25/25/25
f 25/25/25 29/29/29 24/24/24
f 28/28/28 27/27/27 30/30/30
f 28/28/28 30/30/30 31/31/31
f 31/31/31 32/32/32 28/28/28
f 28/28/28 33/33/33 29/29/29
f 32/32/32 34/34/34 28/28/28
f 34/34/34 33/33/33 28/28/28
