g Glass_9
v 0.8128 0.7927999 0.5504001
v 0.7123 0.9430999 0.5869002
v 0.6249 1.0897 0.3373002
v 0.798 0.7897999 0.8112001
v 0.8077 0.8202999 0.2345001
v 0.5925 1.1236 0.2327002
v 0.577 1.1423 0.08250019
v 0.5734 1.1405 -0.05519981
v 0.7992 0.8448 -0.01359986
v 0.5914 1.1086 -0.3143998
v 0.7611 0.8932 -0.2889999
v 0.411 1.0332 0.6857002
v 0.5714 1.0144 0.6260002
v 0.7354 0.7571998 1.0235
v 0.6548 1.0018 0.5718002
v 0.6078 0.7555998 1.1678
v 0.4785 0.7585998 1.2552
v 0.332 0.7620997 1.3123
v 0.1865 1.0385 0.7245002
v 0.1553 1.1763 0.4146002
v 0.1611 0.7670997 1.3453
v 0.564 1.1287 0.3542002
v 0.4686 1.1479 0.3717002
v 0.3077 1.1672 0.3988002
v 0.7818 0.7944999 0.9029001
v -0.0023 1.178 0.4212002
v 0 1.0405 0.7344002
v -0.0023 0.7685997 1.3539
v -0.1919 1.0385 0.7245002
v -0.1607 1.1763 0.4146002
v -0.1665 0.7670997 1.3453
v -0.3374 0.7620997 1.3123
v -0.4164 1.0332 0.6857002
v -0.3131 1.1672 0.3988002
v -0.4839 0.7585998 1.2552
v -0.6132 0.7555998 1.1678
v -0.7408 0.7571998 1.0235
v -0.5768 1.0144 0.6260002
v -0.474 1.1479 0.3717002
v -0.5694 1.1287 0.3542002
v -0.6602 1.0018 0.5718002
v -0.7872 0.7944999 0.9029001
v -0.1887 0.9385002 -1.6003
v -0.1902 0.9856002 -1.3815
v -0.3287 0.9878002 -1.329
v -0.1811 1.0443 -1.1179
v -0.2626 0.9392002 -1.5876
v -0.3867 0.9403002 -1.5474
v -0.4466 0.9693002 -1.365
v -0.2935 1.1475 -0.6307998
v -0.1639 1.1543 -0.6235998
v 0.0023 1.1719 -0.5301998
v 0.0023 1.159 -0.6276998
v 0.0023 1.0544 -1.1143
v 0.0023 0.9864002 -1.4179
v 0.0023 0.9419003 -1.6168
v 0.1684 1.1543 -0.6235998
v 0.1856 1.0443 -1.1179
v 0.298 1.1475 -0.6307998
v 0.2882 1.1647 -0.5293998
v 0.4041 1.1513 -0.5278998
v 0.4468 0.9693002 -1.365
v 0.1947 0.9856002 -1.3815
v 0.1932 0.9385002 -1.6003
v 0.3332 0.9878002 -1.329
v 0.387 0.9403002 -1.5474
v 0.2671 0.9392002 -1.5876
v -0.2836 1.1647 -0.5293998
v -0.3996 1.1513 -0.5278998
v -0.8128 0.7927999 0.5504001
v -0.6249 1.0897 0.3373002
v -0.7123 0.9430999 0.5869002
v -0.798 0.7897999 0.8112001
v -0.8077 0.8202999 0.2345001
v -0.5925 1.1236 0.2327002
v -0.577 1.1423 0.08250019
v -0.5734 1.1405 -0.05519981
v -0.7992 0.8448 -0.01359986
v -0.5914 1.1086 -0.3143998
v -0.7611 0.8932 -0.2889999
vt 0.4201 0.8636
vt 0.4983 0.8786
vt 0.5708 0.7702
vt 0.4238 0.9763
vt 0.4298 0.727
vt 0.5903 0.7248
vt 0.6002 0.66
vt 0.6001 0.6007
vt 0.4396 0.6197
vt 0.5837 0.4889
vt 0.4654 0.5006
vt 0.1902 0.1513
vt 0.1192 0.1294
vt 0.038 0.3298
vt 0.0808 0.1095
vt 0.0971 0.3882
vt 0.1546 0.4232
vt 0.2184 0.4464
vt 0.2874 0.1676
vt 0.3037 0.0216
vt 0.2923 0.4601
vt 0.1239 0.0023
vt 0.1666 0.0067
vt 0.2373 0.0155
vt 0.018 0.2753
vt 0.3721 0.0254
vt 0.368 0.1729
vt 0.3628 0.4647
vt 0.4511 0.1711
vt 0.4408 0.0245
vt 0.4338 0.4631
vt 0.5083 0.4525
vt 0.5487 0.1588
vt 0.507 0.0213
vt 0.5731 0.432
vt 0.6321 0.3994
vt 0.6937 0.3432
vt 0.6204 0.1399
vt 0.5778 0.0154
vt 0.6205 0.0127
vt 0.6594 0.1215
vt 0.7158 0.2896
vt 0.1343 0.4919
vt 0.1337 0.5884
vt 0.0737 0.6109
vt 0.1378 0.7049
vt 0.1022 0.4973
vt 0.0486 0.5144
vt 0.0225 0.5942
vt 0.0898 0.9199
vt 0.1457 0.9234
vt 0.2175 0.9643
vt 0.2174 0.9219
vt 0.2171 0.7073
vt 0.217 0.5731
vt 0.217 0.4852
vt 0.289 0.9232
vt 0.2964 0.7048
vt 0.345 0.9196
vt 0.3409 0.9639
vt 0.3913 0.9634
vt 0.4114 0.5938
vt 0.3003 0.5883
vt 0.2996 0.4918
vt 0.3604 0.6107
vt 0.3853 0.5142
vt 0.3317 0.4972
vt 0.094 0.9643
vt 0.0437 0.9638
vt 0.4201 0.8636
vt 0.5708 0.7702
vt 0.4983 0.8786
vt 0.4238 0.9763
vt 0.4298 0.727
vt 0.5903 0.7248
vt 0.6002 0.66
vt 0.6001 0.6007
vt 0.4396 0.6197
vt 0.5837 0.4889
vt 0.4654 0.5006
vn 0.8347647 0.5489841 0.04224115
vn 0.83502 0.5488188 0.03923635
vn 0.8235198 0.5668384 -0.02256514
vn 0.8360625 0.5459973 0.05372591
vn 0.8177276 0.5754474 0.01348411
vn 0.815207 0.5782154 -0.03323519
vn 0.8177978 0.5750445 -0.02303543
vn 0.8027871 0.5961201 -0.01317426
vn 0.7917293 0.6106735 0.01557533
vn 0.7918805 0.6105662 -0.01158698
vn 0.7855023 0.6188588 9.147634E-05
vn 0.1834964 0.8982478 0.3993493
vn 0.3071313 0.8668965 0.3926335
vn 0.3584245 0.8575136 0.369056
vn 0.367315 0.8533957 0.3698588
vn 0.3209498 0.8714916 0.3708014
vn 0.2214261 0.8884063 0.4021252
vn 0.1319796 0.904494 0.4055515
vn 0.06249982 0.9136513 0.4016654
vn 0.05925675 0.9147952 0.3995478
vn 0.06359399 0.9133726 0.4021271
vn 0.2691904 0.8903777 0.3671021
vn 0.2157803 0.9041589 0.3686942
vn 0.1279801 0.9154666 0.3814996
vn 0.3498711 0.8484982 0.3970403
vn 5.41329E-05 0.9150283 0.4033898
vn 0.0005052617 0.9157189 0.4018191
vn 0 0.9156851 0.4018965
vn -0.06213237 0.9136457 0.4017351
vn -0.05918605 0.9147964 0.3995554
vn -0.06344975 0.9134193 0.4020439
vn -0.1319796 0.904494 0.4055515
vn -0.1834963 0.8982478 0.3993493
vn -0.1279801 0.9154668 0.3814991
vn -0.2214261 0.8884063 0.4021252
vn -0.3209498 0.8714916 0.3708014
vn -0.3584244 0.8575136 0.369056
vn -0.3071312 0.8668965 0.3926334
vn -0.2157805 0.9041589 0.3686943
vn -0.2691907 0.8903775 0.3671027
vn -0.367315 0.8533956 0.3698588
vn -0.3498709 0.8484985 0.39704
vn -0.03858477 0.9776713 -0.2065671
vn -0.05531231 0.9754383 -0.2132152
vn -0.073759 0.9751016 -0.2091328
vn -0.05383486 0.9746903 -0.2169807
vn -0.03428597 0.9805894 -0.1930514
vn -0.0661035 0.9785204 -0.1952644
vn -0.09580211 0.9751845 -0.1995924
vn -0.09112962 0.9778132 -0.1886178
vn -0.04094099 0.9862414 -0.1601616
vn 0 0.9908063 -0.1352878
vn 0 0.9852207 -0.1712895
vn 1.342562E-05 0.9764705 -0.2156509
vn 1.137736E-05 0.9763682 -0.216114
vn 0 0.9758743 -0.2183331
vn 0.04094543 0.9862375 -0.1601845
vn 0.05384827 0.9746897 -0.21698
vn 0.09151638 0.9777281 -0.1888716
vn 0.06760159 0.9847181 -0.1605
vn 0.1397078 0.9736931 -0.1800095
vn 0.09895033 0.9747889 -0.1999884
vn 0.05532392 0.9754376 -0.2132152
vn 0.03859532 0.9776707 -0.2065679
vn 0.07556165 0.974932 -0.2092798
vn 0.06812481 0.9782393 -0.1959766
vn 0.03492544 0.9805366 -0.1932051
vn -0.06752828 0.9847326 -0.160442
vn -0.1393444 0.9738138 -0.1796384
vn -0.8347647 0.5489841 0.04224117
vn -0.8235198 0.5668384 -0.0225651
vn -0.8350201 0.5488188 0.03923634
vn -0.8360625 0.5459973 0.05372587
vn -0.8177276 0.5754474 0.01348416
vn -0.815207 0.5782154 -0.03323519
vn -0.8177978 0.5750445 -0.02303543
vn -0.8027872 0.5961201 -0.01317426
vn -0.7917293 0.6106735 0.01557533
vn -0.7918805 0.6105662 -0.01158698
vn -0.7855023 0.6188588 9.147634E-05
g Glass_9_0
f 3/3/3 2/2/2 1/1/1
f 1/1/1 2/2/2 4/4/4
f 1/1/1 5/5/5 3/3/3
f 5/5/5 6/6/6 3/3/3
f 7/7/7 6/6/6 5/5/5
f 8/8/8 7/7/7 5/5/5
f 9/9/9 8/8/8 5/5/5
f 8/8/8 9/9/9 10/10/10
f 9/9/9 11/11/11 10/10/10
f 14/14/14 13/13/13 12/12/12
f 15/15/15 13/13/13 14/14/14
f 16/16/16 14/14/14 12/12/12
f 17/17/17 16/16/16 12/12/12
f 18/18/18 17/17/17 12/12/12
f 19/19/19 18/18/18 12/12/12
f 20/20/20 19/19/19 12/12/12
f 18/18/18 19/19/19 21/21/21
f 15/15/15 22/22/22 13/13/13
f 22/22/22 23/23/23 13/13/13
f 13/13/13 23/23/23 12/12/12
f 23/23/23 24/24/24 12/12/12
f 24/24/24 20/20/20 12/12/12
f 25/25/25 15/15/15 14/14/14
f 20/20/20 26/26/26 19/19/19
f 26/26/26 27/27/27 19/19/19
f 19/19/19 27/27/27 21/21/21
f 21/21/21 27/27/27 28/28/28
f 27/27/27 26/26/26 29/29/29
f 26/26/26 30/30/30 29/29/29
f 29/29/29 31/31/31 27/27/27
f 28/28/28 27/27/27 31/31/31
f 29/29/29 32/32/32 31/31/31
f 32/32/32 29/29/29 33/33/33
f 29/29/29 30/30/30 33/33/33
f 30/30/30 34/34/34 33/33/33
f 35/35/35 32/32/32 33/33/33
f 36/36/36 35/35/35 33/33/33
f 37/37/37 36/36/36 33/33/33
f 38/38/38 37/37/37 33/33/33
f 39/39/39 38/38/38 33/33/33
f 34/34/34 39/39/39 33/33/33
f 39/39/39 40/40/40 38/38/38
f 40/40/40 41/41/41 38/38/38
f 38/38/38 41/41/41 37/37/37
f 41/41/41 42/42/42 37/37/37
f 45/45/45 44/44/44 43/43/43
f 44/44/44 45/45/45 46/46/46
f 43/43/43 47/47/47 45/45/45
f 47/47/47 48/48/48 45/45/45
f 45/45/45 48/48/48 49/49/49
f 45/45/45 49/49/49 50/50/50
f 46/46/46 45/45/45 50/50/50
f 51/51/51 46/46/46 50/50/50
f 51/51/51 50/50/50 52/52/52
f 53/53/53 51/51/51 52/52/52
f 53/53/53 54/54/54 51/51/51
f 54/54/54 46/46/46 51/51/51
f 44/44/44 46/46/46 54/54/54
f 55/55/55 44/44/44 54/54/54
f 43/43/43 44/44/44 55/55/55
f 56/56/56 43/43/43 55/55/55
f 57/57/57 53/53/53 52/52/52
f 54/54/54 53/53/53 57/57/57
f 58/58/58 54/54/54 57/57/57
f 58/58/58 57/57/57 59/59/59
f 59/59/59 57/57/57 52/52/52
f 60/60/60 59/59/59 52/52/52
f 59/59/59 60/60/60 61/61/61
f 61/61/61 62/62/62 59/59/59
f 58/58/58 63/63/63 54/54/54
f 63/63/63 55/55/55 54/54/54
f 63/63/63 64/64/64 55/55/55
f 64/64/64 56/56/56 55/55/55
f 63/63/63 65/65/65 64/64/64
f 65/65/65 63/63/63 58/58/58
f 62/62/62 65/65/65 59/59/59
f 59/59/59 65/65/65 58/58/58
f 62/62/62 66/66/66 65/65/65
f 66/66/66 67/67/67 65/65/65
f 65/65/65 67/67/67 64/64/64
f 50/50/50 68/68/68 52/52/52
f 69/69/69 68/68/68 50/50/50
f 49/49/49 69/69/69 50/50/50
f 72/72/72 71/71/71 70/70/70
f 70/70/70 73/73/73 72/72/72
f 70/70/70 71/71/71 74/74/74
f 75/75/75 74/74/74 71/71/71
f 75/75/75 76/76/76 74/74/74
f 76/76/76 77/77/77 74/74/74
f 77/77/77 78/78/78 74/74/74
f 78/78/78 77/77/77 79/79/79
f 80/80/80 78/78/78 79/79/79
