g ref_9
v 0.7429 0.5975997 1.9715
v 0.6001 0.5790997 2.0881
v 0.6951 0.6763997 1.8807
v 0.6224 0.6393997 1.9732
v 0.5856 0.6252997 2.0083
v 0.5385 0.6072996 2.0534
v 0.4558 0.5735996 2.1239
v 0.7819 0.6569997 1.85
v 0.6946 0.5322996 2.1179
v 0.5759 0.5215986 2.1721
v 0.4993 0.5165986 2.2014
v 0.4821 0.5431986 2.174
v 0.3822 0.5436987 2.1867
v 0.4249 0.5114986 2.2273
v -0.7429 0.5975997 1.9715
v -0.6951 0.6763997 1.8807
v -0.6001 0.5790997 2.0881
v -0.6224 0.6393997 1.9732
v -0.5856 0.6252997 2.0083
v -0.5385 0.6072996 2.0534
v -0.4558 0.5735996 2.1239
v -0.7819 0.6569997 1.85
v -0.6946 0.5322996 2.1179
v -0.5759 0.5215986 2.1721
v -0.4993 0.5165986 2.2014
v -0.4821 0.5431986 2.174
v -0.3822 0.5436987 2.1867
v -0.4249 0.5114986 2.2273
vt 0.692 0.0681
vt 0.7458 0.1272
vt 0.7242 0.0224
vt 0.7472 0.0704
vt 0.7598 0.0894
vt 0.7758 0.1138
vt 0.8042 0.1539
vt 0.6864 0.0076
vt 0.7003 0.14
vt 0.7467 0.1723
vt 0.7771 0.1907
vt 0.788 0.1764
vt 0.8293 0.1898
vt 0.8066 0.2077
vt 0.692 0.0681
vt 0.7242 0.0224
vt 0.7458 0.1272
vt 0.7472 0.0704
vt 0.7598 0.0894
vt 0.7758 0.1138
vt 0.8042 0.1539
vt 0.6864 0.0076
vt 0.7003 0.14
vt 0.7467 0.1723
vt 0.7771 0.1907
vt 0.788 0.1764
vt 0.8293 0.1898
vt 0.8066 0.2077
vn 0.3185098 0.8027051 0.5041984
vn 0.1865608 0.8303453 0.5250922
vn 0.3253317 0.7990866 0.5055887
vn 0.1702919 0.8585509 0.4836228
vn 0.1257729 0.8682931 0.4798419
vn 0.110168 0.8579956 0.5017036
vn 0.0804984 0.8665078 0.4926298
vn 0.3535363 0.7905843 0.4999885
vn 0.2442038 0.8213534 0.5155027
vn 0.1820902 0.7861474 0.590606
vn 0.1548208 0.777144 0.6099818
vn 0.1191913 0.806155 0.5795754
vn 0.09567372 0.8332747 0.5445181
vn 0.1273042 0.8379485 0.5306938
vn -0.3185098 0.8027051 0.5041984
vn -0.3253317 0.7990866 0.5055887
vn -0.1865608 0.8303453 0.5250921
vn -0.1702919 0.8585509 0.4836228
vn -0.1257729 0.8682931 0.4798419
vn -0.110168 0.8579956 0.5017036
vn -0.0804984 0.8665078 0.4926298
vn -0.3535363 0.7905843 0.4999885
vn -0.2442038 0.8213534 0.5155027
vn -0.1820902 0.7861474 0.590606
vn -0.1548208 0.777144 0.6099818
vn -0.1191913 0.806155 0.5795754
vn -0.09567372 0.8332747 0.5445181
vn -0.1273042 0.8379485 0.5306938
g ref_9_0
f 3/3/3 2/2/2 1/1/1
f 2/2/2 3/3/3 4/4/4
f 2/2/2 4/4/4 5/5/5
f 5/5/5 6/6/6 2/2/2
f 2/2/2 6/6/6 7/7/7
f 8/8/8 3/3/3 1/1/1
f 9/9/9 1/1/1 2/2/2
f 2/2/2 10/10/10 9/9/9
f 11/11/11 10/10/10 2/2/2
f 12/12/12 11/11/11 2/2/2
f 12/12/12 2/2/2 7/7/7
f 12/12/12 7/7/7 13/13/13
f 12/12/12 13/13/13 11/11/11
f 13/13/13 14/14/14 11/11/11
f 17/17/17 16/16/16 15/15/15
f 16/16/16 17/17/17 18/18/18
f 18/18/18 17/17/17 19/19/19
f 20/20/20 19/19/19 17/17/17
f 20/20/20 17/17/17 21/21/21
f 16/16/16 22/22/22 15/15/15
f 15/15/15 23/23/23 17/17/17
f 24/24/24 17/17/17 23/23/23
f 24/24/24 25/25/25 17/17/17
f 25/25/25 26/26/26 17/17/17
f 17/17/17 26/26/26 21/21/21
f 21/21/21 26/26/26 27/27/27
f 27/27/27 26/26/26 25/25/25
f 28/28/28 27/27/27 25/25/25
