g Glass_29
v 0 1.1498 -0.4713998
v 0.3045 0.9434001 -0.4567999
v 0.2942 1.1172 -0.4700998
v 0 0.9437001 -0.4584998
v -0.3045 0.9434001 -0.4567999
v -0.2942 1.1172 -0.4700998
v 0.4336 1.109 0.4740002
v 0.2258 1.0368 0.7726002
v 0.2146 1.1236 0.4864002
v 0.4221 1.0244 0.7628002
v 0.5658 1.0065 0.7230002
v 0.4573 0.9067998 1.0476
v 0.6766 0.8595998 0.9555001
v 0.2612 0.9137998 1.0951
v 0.0001 1.0464 0.7784002
v 0 1.1282 0.4921002
v 0.5119 1.0889 0.5088002
v 0.5969 0.9935999 0.7144002
v 0.2595 0.8391998 1.2581
v 0.4929 0.8428998 1.1808
v 0 0.8461998 1.2774
v 0.0001 0.9130998 1.1164
v -0.261 0.9137998 1.0951
v -0.2256 1.0368 0.7726002
v -0.2145 1.1236 0.4864002
v -0.4335 1.109 0.4740002
v -0.4219 1.0244 0.7628002
v -0.5656 1.0065 0.7230002
v -0.4571 0.9067998 1.0476
v -0.5118 1.0889 0.5088002
v -0.5968 0.9935999 0.7144002
v -0.2594 0.8391998 1.2581
v -0.4929 0.8428998 1.1808
v -0.6766 0.8595998 0.9555001
v 0.6241 1.0145 -0.1663998
v 0.5298 1.1104 -0.3768998
v 0.6399 0.9902 -0.3252999
v 0.7443 0.8494 -0.2566999
v 0.5063 1.1209 -0.1833998
v 0.6881 0.9324 -0.1492998
v 0.6793 0.9436 0.1140002
v 0.6076 1.0332 0.04460017
v 0.5069 1.1201 -0.007499817
v 0.5922 1.0509 0.2490002
v 0.5158 1.1154 0.1608002
v 0.6631 0.9524 0.4099002
v 0.6474 0.9555999 0.6313002
v 0.7145 0.8694999 0.6096001
v 0.7125 0.8700999 0.8036001
v 0.5764 1.0634 0.4117002
v 0.5473 1.0936 0.3094002
v 0.7292 0.8652 0.1791001
v -0.624 1.0145 -0.1663998
v -0.5297 1.1104 -0.3768998
v -0.5062 1.1209 -0.1833998
v -0.6076 1.0332 0.04460017
v -0.6792 0.9436 0.1140002
v -0.6631 0.9524 0.4099002
v -0.6399 0.9902 -0.3252999
v -0.7443 0.8494 -0.2566999
v -0.6881 0.9324 -0.1492998
v -0.5068 1.1201 -0.007499817
v -0.5921 1.0509 0.2490002
v -0.6473 0.9555999 0.6313002
v -0.7125 0.8700999 0.8036001
v -0.7145 0.8694999 0.6096001
v -0.7291 0.8652 0.1791001
v -0.5763 1.0634 0.4117002
v -0.5157 1.1154 0.1608002
v -0.5472 1.0936 0.3094002
v -0.3255 1.031 -1.1173
v -0.448 0.9796002 -1.2751
v -0.3372 0.9711002 -1.2704
v -0.4454 1.0139 -1.1103
v -0.3088 1.0706 -0.9322998
v -0.44 1.0484 -0.9325998
v -0.1533 1.0746 -0.9322998
v -0.2951 1.1018 -0.7584998
v -0.425 1.0816 -0.7587999
v -0.1162 1.1058 -0.7584998
v 0 1.1058 -0.7584998
v 0 1.1414 -0.5619998
v 0.1162 1.1058 -0.7584998
v 0.2951 1.1018 -0.7584998
v -0.2162 1.1307 -0.5774998
v -0.3562 1.1132 -0.6295998
v 0.3089 1.0706 -0.9322998
v 0.4401 1.0484 -0.9325998
v 0.1534 1.0746 -0.9322998
v 0 1.0746 -0.9322998
v -0.1596 1.0299 -1.1173
v 0.425 1.0816 -0.7587999
v 0.2163 1.1307 -0.5774998
v 0.4454 1.0139 -1.1103
v 0.3256 1.026 -1.1173
v 0.1598 1.0299 -1.1173
v 0.0001 1.0299 -1.1173
v 0.448 0.9796002 -1.2751
v 0.3373 0.9711002 -1.2704
v 0.168 0.9636002 -1.2696
v 0 0.9605002 -1.2688
v -0.168 0.9636002 -1.2696
v 0.3562 1.1132 -0.6295998
vt 0.6516 0.5999
vt 0.554 0.7435
vt 0.6363 0.7386
vt 0.5542 0.5999
vt 0.554 0.4563
vt 0.6363 0.4611
vt 0.1452 0.0235
vt 0.2442 0.1677
vt 0.2491 0.0266
vt 0.1516 0.1652
vt 0.0825 0.1504
vt 0.1341 0.3103
vt 0.024 0.2776
vt 0.2274 0.3302
vt 0.3505 0.1687
vt 0.3505 0.0284
vt 0.1081 0.0422
vt 0.0662 0.1485
vt 0.2278 0.4148
vt 0.1166 0.3801
vt 0.3505 0.422
vt 0.3505 0.3398
vt 0.4736 0.3302
vt 0.4568 0.1677
vt 0.452 0.0266
vt 0.5559 0.0235
vt 0.5495 0.1652
vt 0.6185 0.1504
vt 0.5669 0.3103
vt 0.593 0.0422
vt 0.6349 0.1485
vt 0.4733 0.4148
vt 0.5845 0.3801
vt 0.6771 0.2776
vt 0.834 0.1373
vt 0.7722 0.0368
vt 0.8486 0.0626
vt 0.9309 0.0961
vt 0.7593 0.128
vt 0.8829 0.1461
vt 0.8744 0.2701
vt 0.8208 0.2366
vt 0.7584 0.211
vt 0.8084 0.3328
vt 0.7618 0.2906
vt 0.8645 0.4095
vt 0.8573 0.514
vt 0.909 0.5045
vt 0.9069 0.596
vt 0.798 0.4095
vt 0.7788 0.3609
vt 0.9177 0.3015
vt 0.8235 0.8617
vt 0.8927 0.9572
vt 0.8986 0.8653
vt 0.8291 0.7617
vt 0.7731 0.7324
vt 0.7723 0.5926
vt 0.8145 0.9373
vt 0.73 0.9102
vt 0.774 0.8567
vt 0.8932 0.7825
vt 0.8341 0.6649
vt 0.7715 0.4879
vt 0.7158 0.4099
vt 0.7207 0.5013
vt 0.7275 0.7044
vt 0.8387 0.5876
vt 0.8838 0.7034
vt 0.8615 0.6345
vt 0.3992 0.55
vt 0.4581 0.4719
vt 0.4057 0.4728
vt 0.4562 0.5513
vt 0.3912 0.6389
vt 0.4539 0.6368
vt 0.3179 0.6391
vt 0.3846 0.7221
vt 0.4467 0.7205
vt 0.3002 0.7223
vt 0.2454 0.7221
vt 0.2451 0.8165
vt 0.1906 0.7219
vt 0.1062 0.7212
vt 0.3474 0.8087
vt 0.4137 0.7831
vt 0.1002 0.6379
vt 0.0375 0.6354
vt 0.1734 0.6386
vt 0.2457 0.6389
vt 0.3212 0.5495
vt 0.0441 0.7191
vt 0.1428 0.808
vt 0.0356 0.5499
vt 0.0925 0.5483
vt 0.1706 0.549
vt 0.2459 0.5492
vt 0.0342 0.4705
vt 0.0867 0.4717
vt 0.1667 0.4706
vt 0.2462 0.4705
vt 0.3256 0.4711
vt 0.0767 0.782
vn 0 -0.06715774 -0.9977424
vn -0.0002963346 -0.07099481 -0.9974766
vn -0.004075832 -0.07654078 -0.9970582
vn 0 -0.06246858 -0.9980469
vn 0.000296352 -0.07099482 -0.9974766
vn 0.004075832 -0.07654079 -0.9970582
vn 0.103472 0.948961 0.2979374
vn 0.06025757 0.9466912 0.3164567
vn 0.05387743 0.9561506 0.2878772
vn 0.1406605 0.9367236 0.3205674
vn 0.3244184 0.8958855 0.3035488
vn 0.2175687 0.9024917 0.3717159
vn 0.3458074 0.864623 0.3644781
vn 0.08152728 0.9187769 0.3862671
vn 0 0.9484487 0.3169308
vn -1.155141E-05 0.9590397 0.2832716
vn 0.1107832 0.9366018 0.3324217
vn 0.4332066 0.8556961 0.2830478
vn 0.08658688 0.9064528 0.4133351
vn 0.1998886 0.9031881 0.3798629
vn -1.677884E-05 0.9180686 0.3964213
vn 0 0.9267316 0.375724
vn -0.08151727 0.9187896 0.386239
vn -0.0602579 0.9466875 0.3164675
vn -0.05389009 0.9561449 0.2878936
vn -0.1034727 0.9489475 0.2979798
vn -0.1406573 0.9367177 0.3205862
vn -0.3238289 0.8960187 0.303785
vn -0.2173664 0.9025806 0.3716184
vn -0.1107495 0.9365862 0.3324768
vn -0.4321147 0.8560798 0.2835565
vn -0.08659165 0.9064786 0.4132778
vn -0.1997934 0.9033017 0.3796429
vn -0.3454507 0.8648095 0.364374
vn 0.7419996 0.6703628 -0.007098359
vn 0.706354 0.707833 0.006042808
vn 0.7720967 0.6351787 -0.02036287
vn 0.8139204 0.580815 -0.01369239
vn 0.665846 0.7458947 0.01703391
vn 0.8071225 0.5901407 -0.01694706
vn 0.8070005 0.5903564 0.01515181
vn 0.722659 0.6912044 -0.000711332
vn 0.6543707 0.7561589 -0.004756326
vn 0.7286947 0.6848004 0.007240037
vn 0.6582493 0.752692 -0.0127498
vn 0.7961707 0.6041478 0.03343081
vn 0.7574676 0.6514553 0.04299854
vn 0.8396371 0.5430578 0.00988767
vn 0.7927594 0.6088997 0.02781363
vn 0.7862424 0.6174624 0.02373268
vn 0.8916135 0.4351538 -0.1251657
vn 0.8363726 0.5478432 0.01867761
vn -0.7418351 0.6705449 -0.007090726
vn -0.7061538 0.7080312 0.006223349
vn -0.6657892 0.7459477 0.01693834
vn -0.7227303 0.6911298 -0.0007636598
vn -0.8071879 0.5901014 0.01510192
vn -0.7960147 0.6043519 0.03345818
vn -0.7718589 0.6354809 -0.01994703
vn -0.8138332 0.580941 -0.01352627
vn -0.8069459 0.5903818 -0.01695996
vn -0.6540207 0.7564621 -0.004690323
vn -0.7283431 0.6851729 0.007383346
vn -0.7567869 0.6522291 0.04325152
vn -0.7923434 0.6094336 0.02797735
vn -0.839668 0.5430106 0.009852559
vn -0.8364013 0.5478017 0.01860733
vn -0.7862416 0.6174634 0.02373259
vn -0.6582494 0.7526919 -0.01275133
vn -0.891619 0.4351417 -0.1251695
vn -0.05430863 0.9630494 -0.2637926
vn -0.009346697 0.9529026 -0.3031325
vn 0.05692673 0.9249901 -0.3757031
vn -0.1524141 0.9689891 -0.1944996
vn -0.09291212 0.9787444 -0.1828299
vn -0.1613605 0.971207 -0.1752708
vn -0.009791653 0.979607 -0.2006845
vn -0.09683748 0.9849809 -0.1429513
vn -0.1372427 0.9778838 -0.1578223
vn -0.01246597 0.9849257 -0.1725282
vn 0 0.9841244 -0.1774803
vn 0 0.9868532 -0.1616191
vn 0.01246394 0.9849262 -0.1725252
vn 0.09681533 0.9849817 -0.1429609
vn -0.05680439 0.9880981 -0.1429524
vn -0.04133641 0.9753956 -0.2165519
vn 0.08948547 0.9772912 -0.1920788
vn 0.1613604 0.9712059 -0.1752764
vn 0.0130551 0.9789077 -0.2038855
vn 0 0.9785796 -0.2058687
vn 0.007645085 0.9492785 -0.3143434
vn 0.1372607 0.9778878 -0.1577812
vn 0.05680487 0.988094 -0.1429807
vn 0.1208024 0.9713845 -0.204497
vn 0.04925747 0.9633972 -0.2635139
vn 0.003226176 0.9505666 -0.3105038
vn 0 0.9464927 -0.3227251
vn -0.006404169 0.9580097 -0.2866641
vn -0.05011715 0.9334595 -0.3551643
vn -0.02647115 0.9142289 -0.4043325
vn 0 0.9091502 -0.4164683
vn 0.02649627 0.9142164 -0.4043592
vn 0.04137364 0.9753982 -0.2165329
g Glass_29_0
f 3/3/3 2/2/2 1/1/1
f 1/1/1 2/2/2 4/4/4
f 4/4/4 5/5/5 1/1/1
f 1/1/1 5/5/5 6/6/6
f 9/9/9 8/8/8 7/7/7
f 7/7/7 8/8/8 10/10/10
f 10/10/10 11/11/11 7/7/7
f 10/10/10 12/12/12 11/11/11
f 12/12/12 13/13/13 11/11/11
f 8/8/8 14/14/14 10/10/10
f 10/10/10 14/14/14 12/12/12
f 8/8/8 15/15/15 14/14/14
f 15/15/15 8/8/8 16/16/16
f 16/16/16 8/8/8 9/9/9
f 7/7/7 11/11/11 17/17/17
f 17/17/17 11/11/11 18/18/18
f 11/11/11 13/13/13 18/18/18
f 19/19/19 12/12/12 14/14/14
f 20/20/20 12/12/12 19/19/19
f 20/20/20 13/13/13 12/12/12
f 14/14/14 21/21/21 19/19/19
f 22/22/22 21/21/21 14/14/14
f 14/14/14 15/15/15 22/22/22
f 22/22/22 23/23/23 21/21/21
f 22/22/22 15/15/15 23/23/23
f 16/16/16 24/24/24 15/15/15
f 23/23/23 15/15/15 24/24/24
f 25/25/25 24/24/24 16/16/16
f 25/25/25 26/26/26 24/24/24
f 24/24/24 27/27/27 23/23/23
f 24/24/24 26/26/26 27/27/27
f 27/27/27 26/26/26 28/28/28
f 27/27/27 28/28/28 29/29/29
f 23/23/23 27/27/27 29/29/29
f 28/28/28 26/26/26 30/30/30
f 28/28/28 30/30/30 31/31/31
f 21/21/21 23/23/23 32/32/32
f 29/29/29 32/32/32 23/23/23
f 33/33/33 32/32/32 29/29/29
f 29/29/29 34/34/34 33/33/33
f 29/29/29 28/28/28 34/34/34
f 34/34/34 28/28/28 31/31/31
f 37/37/37 36/36/36 35/35/35
f 37/37/37 35/35/35 38/38/38
f 35/35/35 36/36/36 39/39/39
f 38/38/38 35/35/35 40/40/40
f 40/40/40 41/41/41 38/38/38
f 40/40/40 35/35/35 41/41/41
f 39/39/39 42/42/42 35/35/35
f 41/41/41 35/35/35 42/42/42
f 43/43/43 42/42/42 39/39/39
f 43/43/43 44/44/44 42/42/42
f 45/45/45 44/44/44 43/43/43
f 44/44/44 46/46/46 42/42/42
f 42/42/42 46/46/46 41/41/41
f 46/46/46 44/44/44 47/47/47
f 46/46/46 48/48/48 41/41/41
f 48/48/48 46/46/46 49/49/49
f 49/49/49 46/46/46 47/47/47
f 47/47/47 44/44/44 50/50/50
f 45/45/45 50/50/50 44/44/44
f 51/51/51 50/50/50 45/45/45
f 41/41/41 48/48/48 52/52/52
f 38/38/38 41/41/41 52/52/52
f 55/55/55 54/54/54 53/53/53
f 53/53/53 56/56/56 55/55/55
f 56/56/56 53/53/53 57/57/57
f 57/57/57 58/58/58 56/56/56
f 53/53/53 54/54/54 59/59/59
f 59/59/59 60/60/60 53/53/53
f 61/61/61 60/60/60 57/57/57
f 53/53/53 60/60/60 61/61/61
f 57/57/57 53/53/53 61/61/61
f 55/55/55 56/56/56 62/62/62
f 56/56/56 63/63/63 62/62/62
f 56/56/56 58/58/58 63/63/63
f 58/58/58 64/64/64 63/63/63
f 58/58/58 65/65/65 64/64/64
f 66/66/66 65/65/65 58/58/58
f 57/57/57 66/66/66 58/58/58
f 67/67/67 66/66/66 57/57/57
f 57/57/57 60/60/60 67/67/67
f 63/63/63 64/64/64 68/68/68
f 63/63/63 68/68/68 69/69/69
f 62/62/62 63/63/63 69/69/69
f 69/69/69 68/68/68 70/70/70
f 73/73/73 72/72/72 71/71/71
f 71/71/71 72/72/72 74/74/74
f 74/74/74 75/75/75 71/71/71
f 76/76/76 75/75/75 74/74/74
f 75/75/75 77/77/77 71/71/71
f 76/76/76 78/78/78 75/75/75
f 79/79/79 78/78/78 76/76/76
f 78/78/78 80/80/80 75/75/75
f 75/75/75 80/80/80 77/77/77
f 80/80/80 81/81/81 77/77/77
f 80/80/80 82/82/82 81/81/81
f 78/78/78 82/82/82 80/80/80
f 81/81/81 82/82/82 83/83/83
f 83/83/83 82/82/82 84/84/84
f 85/85/85 82/82/82 78/78/78
f 79/79/79 85/85/85 78/78/78
f 86/86/86 85/85/85 79/79/79
f 87/87/87 83/83/83 84/84/84
f 87/87/87 84/84/84 88/88/88
f 89/89/89 83/83/83 87/87/87
f 89/89/89 81/81/81 83/83/83
f 90/90/90 81/81/81 89/89/89
f 77/77/77 81/81/81 90/90/90
f 77/77/77 90/90/90 91/91/91
f 88/88/88 84/84/84 92/92/92
f 84/84/84 93/93/93 92/92/92
f 84/84/84 82/82/82 93/93/93
f 94/94/94 87/87/87 88/88/88
f 95/95/95 87/87/87 94/94/94
f 95/95/95 89/89/89 87/87/87
f 96/96/96 89/89/89 95/95/95
f 96/96/96 90/90/90 89/89/89
f 97/97/97 90/90/90 96/96/96
f 91/91/91 90/90/90 97/97/97
f 98/98/98 95/95/95 94/94/94
f 99/99/99 95/95/95 98/98/98
f 99/99/99 96/96/96 95/95/95
f 100/100/100 96/96/96 99/99/99
f 100/100/100 97/97/97 96/96/96
f 101/101/101 97/97/97 100/100/100
f 101/101/101 102/102/102 97/97/97
f 97/97/97 102/102/102 91/91/91
f 102/102/102 73/73/73 91/91/91
f 92/92/92 93/93/93 103/103/103
f 91/91/91 73/73/73 71/71/71
f 71/71/71 77/77/77 91/91/91
