g ref_29
v 0.662 0.6460997 2.0066
v 0.422 0.5353987 2.1736
v 0.5061 0.6410996 2.0509
v 0.3521 0.5873997 2.1129
v 0.6284 0.5559996 2.0634
v 0.8102 0.6148997 1.936
v 0.3914 0.6214997 2.0407
v 0.4258 0.6493997 1.9688
v 0.6324 0.6841997 1.9013
v 0.8313 0.7189997 1.8163
v 0.8351 0.6653997 1.8709
v -0.8351 0.6653997 1.8709
v -0.8313 0.7189997 1.8163
v -0.662 0.6460997 2.0066
v -0.6324 0.6841997 1.9013
v -0.5061 0.6410996 2.0509
v -0.422 0.5353987 2.1736
v -0.3521 0.5873997 2.1129
v -0.3914 0.6214997 2.0407
v -0.6284 0.5559996 2.0634
v -0.8102 0.6148997 1.936
v -0.4258 0.6493997 1.9688
vt 0.1776 0.9279
vt 0.3159 0.975
vt 0.2514 0.9175
vt 0.3335 0.9262
vt 0.2052 0.9717
vt 0.1012 0.9438
vt 0.3021 0.8967
vt 0.273 0.8681
vt 0.1684 0.8741
vt 0.0635 0.8766
vt 0.075 0.9117
vt 0.6484 0.8889
vt 0.6603 0.8539
vt 0.5457 0.9042
vt 0.5553 0.8505
vt 0.472 0.893
vt 0.4069 0.9499
vt 0.3898 0.901
vt 0.4215 0.8718
vt 0.5176 0.9477
vt 0.6219 0.9207
vt 0.4508 0.8434
vn 0.2793088 0.7069986 0.6497228
vn 0.1033276 0.6976568 0.7089418
vn 0.01200992 0.8745247 0.4848323
vn -0.06369913 0.8272194 0.5582567
vn 0.4217875 0.3657341 0.8296589
vn 0.4476972 0.5727628 0.686666
vn -0.1869593 0.931119 0.313151
vn -0.1447155 0.9602689 0.2386236
vn -0.008131383 0.9492426 0.3144397
vn 0.2747818 0.7905426 0.5473002
vn 0.4211289 0.6524979 0.6299975
vn -0.4211289 0.6524979 0.6299975
vn -0.2747818 0.7905426 0.5473002
vn -0.2793087 0.7069985 0.6497228
vn 0.008131385 0.9492425 0.3144398
vn -0.01200992 0.8745247 0.4848323
vn -0.1033276 0.6976568 0.7089418
vn 0.06369913 0.8272194 0.5582567
vn 0.1869593 0.931119 0.313151
vn -0.4217875 0.3657341 0.8296589
vn -0.4476972 0.5727628 0.686666
vn 0.1447155 0.9602689 0.2386236
g ref_29_0
f 3/3/3 2/2/2 1/1/1
f 2/2/2 3/3/3 4/4/4
f 1/1/1 2/2/2 5/5/5
f 5/5/5 6/6/6 1/1/1
f 3/3/3 7/7/7 4/4/4
f 8/8/8 7/7/7 3/3/3
f 3/3/3 9/9/9 8/8/8
f 1/1/1 9/9/9 3/3/3
f 10/10/10 9/9/9 1/1/1
f 10/10/10 1/1/1 11/11/11
f 11/11/11 1/1/1 6/6/6
f 14/14/14 13/13/13 12/12/12
f 15/15/15 13/13/13 14/14/14
f 16/16/16 15/15/15 14/14/14
f 17/17/17 16/16/16 14/14/14
f 16/16/16 17/17/17 18/18/18
f 19/19/19 16/16/16 18/18/18
f 17/17/17 14/14/14 20/20/20
f 21/21/21 20/20/20 14/14/14
f 14/14/14 12/12/12 21/21/21
f 19/19/19 22/22/22 16/16/16
f 22/22/22 15/15/15 16/16/16
