g model_car_77_matte_mirror_LOD1
v 1.001902 0.9843611 0.2076682
v 0.9853961 0.8943702 0.2078804
v 1.00961 0.9146904 0.2011647
v 0.9525866 0.8899392 0.2191905
v 0.9693261 0.9954435 0.218671
v 0.9148985 0.8869482 0.2317169
v 0.929293 1.003264 0.231495
v 0.8806314 0.8887638 0.2431244
v 0.8941931 1.007863 0.2430407
v 0.9996856 0.9017378 0.2036537
v 0.9910454 0.8961546 0.2064364
v 1.006308 0.9076089 0.2017913
v 1.020263 0.9692892 0.2011745
v 1.018282 0.974018 0.2020288
v 1.019922 0.9719669 0.2014275
v 0.836607 1.00516 0.2615919
v 0.8454905 1.014244 0.2590212
v 0.8384616 1.010743 0.2611696
v 0.8413261 1.013475 0.2603347
v 0.8258418 0.8969876 0.2616074
v 0.8301249 0.8914396 0.26
v 0.8268771 0.8931695 0.2611365
v -1.001902 0.9843611 0.2076682
v -1.00961 0.9146904 0.2011647
v -0.9853963 0.8943702 0.2078804
v -0.9525867 0.8899392 0.2191905
v -0.9693261 0.9954435 0.218671
v -0.9148985 0.8869482 0.2317169
v -0.9292932 1.003264 0.231495
v -0.8806314 0.8887638 0.2431244
v -0.8941932 1.007863 0.2430407
v -0.9996856 0.9017378 0.2036537
v -0.9910456 0.8961546 0.2064364
v -1.006308 0.9076089 0.2017913
v -1.020263 0.9692892 0.2011745
v -1.018282 0.974018 0.2020288
v -1.019922 0.9719669 0.2014275
v -0.8366071 1.00516 0.2615919
v -0.8454906 1.014244 0.2590212
v -0.8384616 1.010743 0.2611696
v -0.8413262 1.013475 0.2603347
v -0.8258419 0.8969876 0.2616074
v -0.830125 0.8914396 0.26
v -0.8268771 0.8931695 0.2611365
vn -0.3090598 0.05251786 -0.9495915
vn -0.3084232 0.03787652 -0.9504949
vn -0.3084232 0.05570078 -0.9496171
vn -0.3122427 0.04424232 -0.9489716
vn -0.3122427 0.0448789 -0.9489417
vn -0.3096963 0.03787652 -0.9500808
vn -0.3090598 0.03787652 -0.9502881
vn -0.3122427 0.03405702 -0.9493917
vn -0.3096963 0.0346936 -0.9502023
vn -0.3065135 0.04742521 -0.9506841
vn -0.1849266 -0.1944753 -0.963318
vn -0.3256108 0.06843236 -0.9430242
vn -0.2912355 0.05506417 -0.9550653
vn -0.2969647 0.04806179 -0.9536781
vn -0.28296 0.05442759 -0.9575862
vn -0.3084232 0.03214729 -0.9507059
vn -0.30715 0.03151071 -0.9511393
vn -0.3052403 0.02960098 -0.9518152
vn -0.3052403 0.02960098 -0.9518152
vn -0.3154256 0.03151071 -0.948427
vn -0.3154256 0.03151071 -0.948427
vn -0.3154256 0.03151071 -0.948427
vn 0.3090598 0.05251786 -0.9495914
vn 0.3084232 0.05570078 -0.949617
vn 0.3084232 0.03787652 -0.9504949
vn 0.3122427 0.04424232 -0.9489716
vn 0.3122427 0.0448789 -0.9489417
vn 0.3096964 0.03787652 -0.9500808
vn 0.3090598 0.03787652 -0.9502881
vn 0.3122427 0.03405702 -0.9493917
vn 0.3096964 0.0346936 -0.9502023
vn 0.3065135 0.04742521 -0.9506841
vn 0.1849266 -0.1944753 -0.963318
vn 0.3256109 0.06843236 -0.9430241
vn 0.2912356 0.05506417 -0.9550653
vn 0.2969648 0.04806179 -0.9536781
vn 0.28296 0.05442759 -0.9575862
vn 0.3084232 0.03214729 -0.9507059
vn 0.3071501 0.03151071 -0.9511393
vn 0.3052403 0.02960098 -0.9518152
vn 0.3052403 0.02960098 -0.9518152
vn 0.3154256 0.03151071 -0.948427
vn 0.3154256 0.03151071 -0.948427
vn 0.3154256 0.03151071 -0.948427
g model_car_77_matte_mirror_LOD1_0
f 3/3/3 2/2/2 1/1/1
f 1/1/1 2/2/2 4/4/4
f 5/5/5 1/1/1 4/4/4
f 5/5/5 4/4/4 6/6/6
f 7/7/7 5/5/5 6/6/6
f 7/7/7 6/6/6 8/8/8
f 9/9/9 7/7/7 8/8/8
f 2/2/2 3/3/3 10/10/10
f 2/2/2 10/10/10 11/11/11
f 12/12/12 10/10/10 3/3/3
f 13/13/13 3/3/3 1/1/1
f 14/14/14 13/13/13 1/1/1
f 13/13/13 14/14/14 15/15/15
f 8/8/8 16/16/16 9/9/9
f 17/17/17 9/9/9 16/16/16
f 18/18/18 17/17/17 16/16/16
f 17/17/17 18/18/18 19/19/19
f 8/8/8 20/20/20 16/16/16
f 20/20/20 8/8/8 21/21/21
f 22/22/22 20/20/20 21/21/21
f 25/25/25 24/24/24 23/23/23
f 25/25/25 23/23/23 26/26/26
f 23/23/23 27/27/27 26/26/26
f 26/26/26 27/27/27 28/28/28
f 27/27/27 29/29/29 28/28/28
f 28/28/28 29/29/29 30/30/30
f 29/29/29 31/31/31 30/30/30
f 24/24/24 25/25/25 32/32/32
f 32/32/32 25/25/25 33/33/33
f 32/32/32 34/34/34 24/24/24
f 24/24/24 35/35/35 23/23/23
f 35/35/35 36/36/36 23/23/23
f 36/36/36 35/35/35 37/37/37
f 38/38/38 30/30/30 31/31/31
f 31/31/31 39/39/39 38/38/38
f 39/39/39 40/40/40 38/38/38
f 40/40/40 39/39/39 41/41/41
f 42/42/42 30/30/30 38/38/38
f 30/30/30 42/42/42 43/43/43
f 42/42/42 44/44/44 43/43/43
