g Taillights_28
v 0.661 0.8890004 -2.0501
v 0.6319 0.8310003 -2.0997
v 0.7084 0.8503004 -2.0464
v 0.7283 0.9169003 -1.9501
v 0.6466 0.9433003 -1.9701
v 0.6902 0.9628013 -1.8931
v 0.5891 0.8527004 -2.11
v 0.5821 0.9084004 -2.0514
v 0.5167 0.8757004 -2.0994
v 0.5244 0.9180003 -2.042
v 0.7768 0.8625003 -1.9411
v 0.7666 0.9308003 -1.851
v 0.8143 0.8729003 -1.8339
v 0.7921 0.9393003 -1.7161
v 0.5343 0.8324013 -2.1272
v 0.7251 0.9771003 -1.7759
v 0.8348 0.8085003 -1.8382
v 0.5751 0.9521003 -1.9623
v 0.6344 0.9702003 -1.8848
v 0.6743 0.9754003 -1.8376
v 0.8394 0.8353003 -1.7743
v 0.8347 0.8802003 -1.7208
v 0.7937 0.8040003 -1.9514
v 0.731 0.8018004 -2.0465
v 0.6465 0.8032004 -2.0978
v 0.5802 0.8164003 -2.1195
v -0.6613 0.8890004 -2.0501
v -0.7087 0.8503004 -2.0464
v -0.6321 0.8310003 -2.0997
v -0.7286 0.9169003 -1.9501
v -0.6468 0.9433003 -1.9701
v -0.6904 0.9628013 -1.8931
v -0.5894 0.8527004 -2.11
v -0.5823 0.9084004 -2.0514
v -0.517 0.8757004 -2.0994
v -0.5247 0.9180003 -2.042
v -0.777 0.8625003 -1.9411
v -0.7669 0.9308003 -1.851
v -0.8145 0.8729003 -1.8339
v -0.7923 0.9393003 -1.7161
v -0.5346 0.8324013 -2.1272
v -0.7253 0.9771003 -1.7759
v -0.8351 0.8085003 -1.8382
v -0.5753 0.9521003 -1.9623
v -0.6347 0.9702003 -1.8848
v -0.6745 0.9754003 -1.8376
v -0.8397 0.8353003 -1.7743
v -0.8349 0.8802003 -1.7208
v -0.7939 0.8040003 -1.9514
v -0.7313 0.8018004 -2.0465
v -0.6468 0.8032004 -2.0978
v -0.5805 0.8164003 -2.1195
vt 0.1541 0.138
vt 0.0919 0.1775
vt 0.1771 0.1886
vt 0.2609 0.1245
vt 0.2066 0.0672
vt 0.2861 0.0536
vt 0.0653 0.14
vt 0.1096 0.0792
vt 0.0296 0.0767
vt 0.0808 0.0316
vt 0.2885 0.1851
vt 0.3527 0.1046
vt 0.3886 0.1656
vt 0.4724 0.0695
vt 0.0094 0.1214
vt 0.3941 0.0237
vt 0.398 0.2289
vt 0.1711 0.0097
vt 0.263 0.0054
vt 0.3209 0.0111
vt 0.4516 0.1919
vt 0.4896 0.1372
vt 0.2877 0.2431
vt 0.1824 0.2386
vt 0.0942 0.208
vt 0.0392 0.1654
vt 0.1541 0.138
vt 0.1771 0.1886
vt 0.0919 0.1775
vt 0.2609 0.1245
vt 0.2066 0.0672
vt 0.2861 0.0536
vt 0.0653 0.14
vt 0.1096 0.0792
vt 0.0296 0.0767
vt 0.0808 0.0316
vt 0.2885 0.1851
vt 0.3527 0.1046
vt 0.3886 0.1656
vt 0.4724 0.0695
vt 0.0094 0.1214
vt 0.3941 0.0237
vt 0.398 0.2289
vt 0.1711 0.0097
vt 0.263 0.0054
vt 0.3209 0.0111
vt 0.4516 0.1919
vt 0.4896 0.1372
vt 0.2877 0.2431
vt 0.1824 0.2386
vt 0.0942 0.208
vt 0.0392 0.1654
vn 0.3759658 0.6687561 -0.6414163
vn 0.4087568 0.2774237 -0.8694561
vn 0.6032985 0.4276378 -0.6731691
vn 0.564199 0.700851 -0.4364486
vn 0.2127603 0.8853884 -0.4133044
vn 0.2983922 0.910072 -0.2876302
vn 0.2402374 0.4738532 -0.8472008
vn 0.1261849 0.8139908 -0.5670064
vn 0.08020798 0.6963629 -0.7131937
vn 0.05296621 0.8496059 -0.5247518
vn 0.7917951 0.436827 -0.4268988
vn 0.6591696 0.7039171 -0.2645681
vn 0.8585086 0.4445997 -0.2555271
vn 0.7289299 0.6613342 -0.1769133
vn 0.1123911 0.4480911 -0.8868949
vn 0.5054232 0.8415329 -0.1907085
vn 0.9088523 0.3098588 -0.2792402
vn 0.0722082 0.922594 -0.3789543
vn 0.09003571 0.9623196 -0.2565827
vn 0.1515203 0.9724156 -0.1773399
vn 0.9289138 0.3171678 -0.191112
vn 0.8399289 0.5103924 -0.1844426
vn 0.8358951 0.3254165 -0.4420221
vn 0.6846272 0.3179659 -0.6558836
vn 0.4564868 0.180192 -0.8712925
vn 0.2713843 0.1727503 -0.946841
vn -0.375881 0.6687454 -0.6414772
vn -0.6033478 0.4275032 -0.6732106
vn -0.4088077 0.2776384 -0.8693637
vn -0.5643457 0.7007896 -0.4363577
vn -0.2125553 0.8854726 -0.4132294
vn -0.2981334 0.9101828 -0.2875479
vn -0.2404843 0.4737809 -0.8471712
vn -0.1261288 0.814036 -0.5669541
vn -0.08027302 0.6963822 -0.7131676
vn -0.05304422 0.8496238 -0.5247149
vn -0.7919831 0.4365397 -0.4268442
vn -0.6593861 0.7037692 -0.2644218
vn -0.8583487 0.4449293 -0.2554907
vn -0.7289902 0.6613418 -0.176636
vn -0.1123911 0.4480914 -0.8868948
vn -0.505079 0.8418028 -0.190429
vn -0.9084009 0.3109095 -0.2795407
vn -0.07220814 0.9225941 -0.378954
vn -0.09015569 0.9623064 -0.2565901
vn -0.1515976 0.9724084 -0.177314
vn -0.928275 0.3189242 -0.1912927
vn -0.8396323 0.5108876 -0.184422
vn -0.8358763 0.3254374 -0.4420421
vn -0.6847397 0.3181736 -0.6556655
vn -0.4565728 0.1819048 -0.8708914
vn -0.2716159 0.1728708 -0.9467525
g Taillights_28_0
f 3/3/3 2/2/2 1/1/1
f 1/1/1 4/4/4 3/3/3
f 1/1/1 5/5/5 4/4/4
f 5/5/5 6/6/6 4/4/4
f 1/1/1 2/2/2 7/7/7
f 7/7/7 8/8/8 1/1/1
f 1/1/1 8/8/8 5/5/5
f 9/9/9 8/8/8 7/7/7
f 8/8/8 9/9/9 10/10/10
f 10/10/10 5/5/5 8/8/8
f 3/3/3 4/4/4 11/11/11
f 12/12/12 11/11/11 4/4/4
f 4/4/4 6/6/6 12/12/12
f 13/13/13 11/11/11 12/12/12
f 12/12/12 14/14/14 13/13/13
f 15/15/15 9/9/9 7/7/7
f 14/14/14 12/12/12 16/16/16
f 16/16/16 12/12/12 6/6/6
f 13/13/13 17/17/17 11/11/11
f 18/18/18 5/5/5 10/10/10
f 18/18/18 19/19/19 5/5/5
f 5/5/5 19/19/19 6/6/6
f 19/19/19 20/20/20 6/6/6
f 6/6/6 20/20/20 16/16/16
f 17/17/17 13/13/13 21/21/21
f 13/13/13 14/14/14 22/22/22
f 21/21/21 13/13/13 22/22/22
f 11/11/11 17/17/17 23/23/23
f 23/23/23 3/3/3 11/11/11
f 24/24/24 3/3/3 23/23/23
f 24/24/24 2/2/2 3/3/3
f 25/25/25 2/2/2 24/24/24
f 26/26/26 2/2/2 25/25/25
f 26/26/26 7/7/7 2/2/2
f 15/15/15 7/7/7 26/26/26
f 29/29/29 28/28/28 27/27/27
f 30/30/30 27/27/27 28/28/28
f 27/27/27 30/30/30 31/31/31
f 32/32/32 31/31/31 30/30/30
f 29/29/29 27/27/27 33/33/33
f 34/34/34 33/33/33 27/27/27
f 27/27/27 31/31/31 34/34/34
f 34/34/34 35/35/35 33/33/33
f 35/35/35 34/34/34 36/36/36
f 31/31/31 36/36/36 34/34/34
f 30/30/30 28/28/28 37/37/37
f 37/37/37 38/38/38 30/30/30
f 32/32/32 30/30/30 38/38/38
f 37/37/37 39/39/39 38/38/38
f 40/40/40 38/38/38 39/39/39
f 35/35/35 41/41/41 33/33/33
f 38/38/38 40/40/40 42/42/42
f 38/38/38 42/42/42 32/32/32
f 43/43/43 39/39/39 37/37/37
f 31/31/31 44/44/44 36/36/36
f 45/45/45 44/44/44 31/31/31
f 45/45/45 31/31/31 32/32/32
f 46/46/46 45/45/45 32/32/32
f 46/46/46 32/32/32 42/42/42
f 39/39/39 43/43/43 47/47/47
f 40/40/40 39/39/39 48/48/48
f 39/39/39 47/47/47 48/48/48
f 43/43/43 37/37/37 49/49/49
f 28/28/28 49/49/49 37/37/37
f 28/28/28 50/50/50 49/49/49
f 29/29/29 50/50/50 28/28/28
f 29/29/29 51/51/51 50/50/50
f 29/29/29 52/52/52 51/51/51
f 33/33/33 52/52/52 29/29/29
f 33/33/33 41/41/41 52/52/52
