g ref_50
v 0.6528 0.6900007 1.7203
v 0.7341 0.6887007 1.726
v 0.704 0.6530007 1.7994
v 0.7143 0.7134007 1.6625
v 0.7936 0.6659007 1.7184
v 0.786 0.7266008 1.6217
v 0.6113 0.6601007 1.7856
v 0.6666 0.6109007 1.8803
v 0.5583 0.5795007 1.9251
v 0.6292 0.5682007 1.9532
v 0.5154 0.4800007 2.0958
v 0.6207 0.5031006 2.0193
v 0.7546 0.5691007 1.8768
v 0.7111 0.5341007 1.9406
v 0.7824 0.6095007 1.812
v -0.6528 0.6900007 1.7203
v -0.7041 0.6530007 1.7994
v -0.7341 0.6887007 1.726
v -0.7143 0.7134007 1.6625
v -0.7936 0.6659007 1.7184
v -0.786 0.7266008 1.6217
v -0.6113 0.6601007 1.7856
v -0.6666 0.6109007 1.8803
v -0.5583 0.5795007 1.9251
v -0.6292 0.5682007 1.9532
v -0.5154 0.4800007 2.0958
v -0.6207 0.5031006 2.0193
v -0.7547 0.5691007 1.8768
v -0.7111 0.5341007 1.9406
v -0.7824 0.6095007 1.812
vt 0.4673 0.2701
vt 0.4683 0.2007
vt 0.4154 0.1672
vt 0.5263 0.2619
vt 0.525 0.1692
vt 0.5802 0.2544
vt 0.3623 0.2276
vt 0.3631 0.1071
vt 0.2383 0.1432
vt 0.2407 0.0762
vt 0.1022 0.0272
vt 0.2828 0.0219
vt 0.3777 0.0423
vt 0.3343 0.033
vt 0.4582 0.0985
vt 0.4673 0.2701
vt 0.4154 0.1672
vt 0.4683 0.2007
vt 0.5263 0.2619
vt 0.525 0.1692
vt 0.5802 0.2544
vt 0.3623 0.2276
vt 0.3631 0.1071
vt 0.2383 0.1432
vt 0.2407 0.0762
vt 0.1022 0.0272
vt 0.2828 0.0219
vt 0.3777 0.0423
vt 0.3343 0.033
vt 0.4582 0.0985
vn -0.005995183 0.9129913 0.4079351
vn 0.1782703 0.8724881 0.4549552
vn 0.1760546 0.8493113 0.4976696
vn 0.01475327 0.9334213 0.358479
vn 0.3619502 0.7884807 0.4972829
vn 0.194502 0.8868824 0.4190567
vn -0.0116778 0.8924966 0.4509027
vn 0.1639138 0.8203203 0.5479113
vn -0.0545244 0.8711681 0.4879478
vn 0.1728103 0.7857894 0.5938616
vn 0.1503577 0.7826276 0.6040585
vn 0.3568965 0.642202 0.6783815
vn 0.365776 0.7057538 0.6067285
vn 0.3763877 0.6660368 0.6439931
vn 0.3503297 0.7589083 0.5489328
vn 0.00599139 0.9129908 0.407936
vn -0.1762868 0.8492104 0.4977596
vn -0.178216 0.8725659 0.4548273
vn -0.01475327 0.9334213 0.358479
vn -0.3620616 0.7884957 0.4971779
vn -0.194502 0.8868824 0.4190567
vn 0.01168082 0.892496 0.450904
vn -0.1637674 0.8203784 0.5478681
vn 0.0545244 0.8711681 0.4879478
vn -0.1727652 0.7857811 0.5938857
vn -0.1503577 0.7826276 0.6040585
vn -0.3568965 0.642202 0.6783815
vn -0.3655644 0.7059966 0.6065736
vn -0.376336 0.66582 0.6442475
vn -0.3504875 0.7588449 0.5489198
g ref_50_0
f 3/3/3 2/2/2 1/1/1
f 2/2/2 4/4/4 1/1/1
f 5/5/5 2/2/2 3/3/3
f 5/5/5 6/6/6 2/2/2
f 6/6/6 4/4/4 2/2/2
f 7/7/7 3/3/3 1/1/1
f 8/8/8 3/3/3 7/7/7
f 9/9/9 8/8/8 7/7/7
f 9/9/9 10/10/10 8/8/8
f 9/9/9 11/11/11 10/10/10
f 12/12/12 10/10/10 11/11/11
f 13/13/13 8/8/8 10/10/10
f 14/14/14 13/13/13 10/10/10
f 12/12/12 14/14/14 10/10/10
f 15/15/15 8/8/8 13/13/13
f 15/15/15 5/5/5 3/3/3
f 3/3/3 8/8/8 15/15/15
f 18/18/18 17/17/17 16/16/16
f 19/19/19 18/18/18 16/16/16
f 18/18/18 20/20/20 17/17/17
f 21/21/21 20/20/20 18/18/18
f 19/19/19 21/21/21 18/18/18
f 17/17/17 22/22/22 16/16/16
f 17/17/17 23/23/23 22/22/22
f 23/23/23 24/24/24 22/22/22
f 25/25/25 24/24/24 23/23/23
f 26/26/26 24/24/24 25/25/25
f 25/25/25 27/27/27 26/26/26
f 23/23/23 28/28/28 25/25/25
f 28/28/28 29/29/29 25/25/25
f 29/29/29 27/27/27 25/25/25
f 23/23/23 30/30/30 28/28/28
f 20/20/20 30/30/30 17/17/17
f 23/23/23 17/17/17 30/30/30
