g Taillights_50
v 0.768 0.6588993 -2.001
v 0.8445 0.7174993 -1.9047
v 0.7516 0.7574993 -1.9832
v 0.8437 0.6755993 -1.9172
v 0.8524 0.6950993 -1.9019
v 0.684 0.6462994 -2.0755
v 0.6961 0.7770994 -2.026401
v 0.6452 0.7927994 -2.0663
v 0.614 0.7524993 -2.102401
v 0.6224 0.6414993 -2.1181
v 0.5318 0.7208993 -2.1595
v 0.5074 0.6392993 -2.1751
v 0.4519 0.7080994 -2.1908
v 0.4291 0.6366994 -2.2056
v 0.4162 0.6676993 -2.2043
v 0.2333 0.6704994 -2.2529
v 0.2344 0.6392993 -2.2597
v 0 0.6702994 -2.2751
v 0 0.6393993 -2.281
v 0.4162 0.6676993 -2.2043
v 0.4133 0.6670994 -2.195
v 0.2321 0.6697993 -2.2373
v 0.2333 0.6704994 -2.2529
v 0 0.6702994 -2.2751
v 0 0.6694993 -2.2556
v 0.4519 0.7080994 -2.1908
v 0.4498 0.7077994 -2.1808
v -0.768 0.6588993 -2.001
v -0.7516 0.7574993 -1.9832
v -0.8445 0.7174993 -1.9047
v -0.8437 0.6755993 -1.9172
v -0.8524 0.6950993 -1.9019
v -0.684 0.6462994 -2.0755
v -0.6961 0.7770994 -2.026401
v -0.6452 0.7927994 -2.0663
v -0.614 0.7524993 -2.102401
v -0.6224 0.6414993 -2.1181
v -0.5318 0.7208993 -2.1595
v -0.5074 0.6392993 -2.1751
v -0.4519 0.7080994 -2.1908
v -0.4291 0.6366994 -2.2056
v -0.4162 0.6676993 -2.2043
v -0.2333 0.6704994 -2.2529
v -0.2344 0.6392993 -2.2597
v 0 0.6702994 -2.2751
v 0 0.6393993 -2.281
v -0.4162 0.6676993 -2.2043
v -0.2321 0.6697993 -2.2373
v -0.4133 0.6670994 -2.195
v -0.2333 0.6704994 -2.2529
v 0 0.6702994 -2.2751
v 0 0.6694993 -2.2556
v -0.4519 0.7080994 -2.1908
v -0.4498 0.7077994 -2.1808
vt 0.0737 0.597
vt 0.0176 0.6349
vt 0.0819 0.6493
vt 0.0186 0.6123
vt 0.0118 0.6236
vt 0.1292 0.5853
vt 0.1188 0.6564
vt 0.1524 0.6616
vt 0.1731 0.6383
vt 0.1666 0.5802
vt 0.2216 0.6186
vt 0.2314 0.5756
vt 0.2642 0.6099
vt 0.2738 0.5722
vt 0.2815 0.5882
vt 0.3775 0.5861
vt 0.3762 0.5696
vt 0.4965 0.586
vt 0.4958 0.5697
vt 0.2828 0.5905
vt 0.289 0.6022
vt 0.3773 0.6022
vt 0.3772 0.5899
vt 0.4967 0.5901
vt 0.4966 0.6029
vt 0.2658 0.6111
vt 0.277 0.6173
vt 0.0737 0.597
vt 0.0819 0.6493
vt 0.0176 0.6349
vt 0.0186 0.6123
vt 0.0118 0.6236
vt 0.1292 0.5853
vt 0.1188 0.6564
vt 0.1524 0.6616
vt 0.1731 0.6383
vt 0.1666 0.5802
vt 0.2216 0.6186
vt 0.2314 0.5756
vt 0.2642 0.6099
vt 0.2738 0.5722
vt 0.2815 0.5882
vt 0.3775 0.5861
vt 0.3762 0.5696
vt 0.4965 0.586
vt 0.4958 0.5697
vt 0.2828 0.5905
vt 0.3773 0.6022
vt 0.289 0.6022
vt 0.3772 0.5899
vt 0.4967 0.5901
vt 0.4966 0.6029
vt 0.2658 0.6111
vt 0.277 0.6173
vn 0.654974 0.2335798 -0.7186443
vn 0.7084484 0.2042312 -0.6755667
vn 0.6565448 0.2303884 -0.7182409
vn 0.7156928 0.1870814 -0.6728925
vn 0.7391741 0.1795437 -0.6491423
vn 0.605792 0.2006479 -0.7699067
vn 0.6444541 0.2157496 -0.7335742
vn 0.6284669 0.213422 -0.7479842
vn 0.5711336 0.1830955 -0.8001765
vn 0.5207458 0.1313782 -0.8435422
vn 0.4391106 0.08587673 -0.8943194
vn 0.3903677 0.06110829 -0.9186288
vn 0.3343738 0.08454887 -0.9386403
vn 0.2879809 0.1204432 -0.9500318
vn 0.2365247 0.1387596 -0.9616662
vn 0.1783865 0.2122647 -0.9607924
vn 0.1789049 0.2143266 -0.9602381
vn 0 0.18998 -0.9817879
vn 0 0.187547 -0.9822556
vn -0.3926346 0.9174762 -0.06383982
vn -0.3792316 0.9236271 -0.05564348
vn -0.0007287287 0.998987 0.04499324
vn -0.001169945 0.998998 0.04473856
vn 0 0.9991532 0.04114435
vn 0 0.9991596 0.04098859
vn -0.7145466 0.6865284 -0.1345435
vn -0.7152793 0.6867147 -0.1296084
vn -0.654974 0.2335797 -0.7186442
vn -0.6565448 0.2303884 -0.7182409
vn -0.7084484 0.2042312 -0.6755667
vn -0.7156928 0.1870814 -0.6728925
vn -0.7391741 0.1795437 -0.6491423
vn -0.605792 0.2006479 -0.7699067
vn -0.6444541 0.2157496 -0.7335742
vn -0.6284669 0.213422 -0.7479842
vn -0.5711336 0.1830955 -0.8001765
vn -0.5207458 0.1313782 -0.8435422
vn -0.4391106 0.08587672 -0.8943193
vn -0.3903677 0.06110829 -0.9186288
vn -0.3343739 0.08454888 -0.9386403
vn -0.2879809 0.1204432 -0.9500318
vn -0.2365247 0.1387596 -0.9616662
vn -0.1783865 0.2122647 -0.9607924
vn -0.1789049 0.2143266 -0.9602381
vn 0 0.18998 -0.9817879
vn 0 0.187547 -0.9822556
vn 0.3926346 0.9174762 -0.06383982
vn 0.0007287286 0.998987 0.04499324
vn 0.3792316 0.9236271 -0.05564348
vn 0.001169945 0.998998 0.04473856
vn 0 0.9991532 0.04114435
vn 0 0.9991596 0.04098859
vn 0.7145466 0.6865284 -0.1345435
vn 0.7152793 0.6867147 -0.1296084
g Taillights_50_0
f 3/3/3 2/2/2 1/1/1
f 2/2/2 4/4/4 1/1/1
f 5/5/5 4/4/4 2/2/2
f 1/1/1 6/6/6 3/3/3
f 6/6/6 7/7/7 3/3/3
f 8/8/8 7/7/7 6/6/6
f 9/9/9 8/8/8 6/6/6
f 10/10/10 9/9/9 6/6/6
f 11/11/11 9/9/9 10/10/10
f 10/10/10 12/12/12 11/11/11
f 12/12/12 13/13/13 11/11/11
f 14/14/14 13/13/13 12/12/12
f 15/15/15 13/13/13 14/14/14
f 16/16/16 15/15/15 14/14/14
f 17/17/17 16/16/16 14/14/14
f 18/18/18 16/16/16 17/17/17
f 19/19/19 18/18/18 17/17/17
f 22/22/22 21/21/21 20/20/20
f 23/23/23 22/22/22 20/20/20
f 23/23/23 24/24/24 22/22/22
f 24/24/24 25/25/25 22/22/22
f 20/20/20 21/21/21 26/26/26
f 21/21/21 27/27/27 26/26/26
f 30/30/30 29/29/29 28/28/28
f 31/31/31 30/30/30 28/28/28
f 31/31/31 32/32/32 30/30/30
f 33/33/33 28/28/28 29/29/29
f 34/34/34 33/33/33 29/29/29
f 34/34/34 35/35/35 33/33/33
f 35/35/35 36/36/36 33/33/33
f 36/36/36 37/37/37 33/33/33
f 36/36/36 38/38/38 37/37/37
f 39/39/39 37/37/37 38/38/38
f 40/40/40 39/39/39 38/38/38
f 40/40/40 41/41/41 39/39/39
f 40/40/40 42/42/42 41/41/41
f 42/42/42 43/43/43 41/41/41
f 43/43/43 44/44/44 41/41/41
f 43/43/43 45/45/45 44/44/44
f 45/45/45 46/46/46 44/44/44
f 49/49/49 48/48/48 47/47/47
f 48/48/48 50/50/50 47/47/47
f 51/51/51 50/50/50 48/48/48
f 52/52/52 51/51/51 48/48/48
f 49/49/49 47/47/47 53/53/53
f 54/54/54 49/49/49 53/53/53
