g Glass_4
v 0 0.7720338 1.44783
v 0 0.8811738 1.186458
v 0.193773 0.7738248 1.441388
v 0.186032 0.8822558 1.180757
v 0.361044 0.7769378 1.409094
v 0 0.9855079 0.9021372
v 0.410719 0.8862318 1.128572
v 0.513819 0.7828398 1.346748
v 0.173423 0.9857389 0.8973792
v 0 1.056175 0.6766912
v 0.610597 0.8918708 1.031183
v 0.649056 0.7896748 1.259875
v 0.775643 0.8001278 1.152822
v 0.719842 0.9082098 0.9146581
v 0.554882 0.9844829 0.7954982
v 0.371944 0.9871219 0.8595422
v 0.16173 1.055609 0.6728312
v 0 1.113609 0.4481612
v 0.147615 1.112271 0.4452312
v 0.335959 1.054572 0.6483482
v 0.503096 1.050182 0.6020272
v 0.674894 0.9855589 0.7218632
v 0.295237 1.108877 0.4342532
v 0.444332 1.099825 0.4128112
v 0.63008 1.050604 0.5302192
v 0.593427 1.088717 0.3833202
v 0.227681 1.054766 -0.9908618
v 0 1.060525 -0.9980998
v 0 0.9745482 -0.9849068
v 0.409107 0.9734122 -0.9680768
v 0.407596 1.041722 -0.9784758
v 0.697327 0.8475631 -0.3728299
v 0.742567 0.812604 0.01598713
v 0.587839 1.069914 -0.03677282
v 0.577199 1.057606 -0.2958428
v 0.573771 1.025708 -0.5542158
v 0.57857 0.9819641 -0.8174848
v 0.615132 1.06491 0.1638202
v 0.79085 0.7776439 0.4048041
v 0.651044 1.035143 0.3626712
v 0.684995 1.001467 0.4961522
v 0.810597 0.7592479 0.7413981
v 0.727701 0.9436059 0.6711951
v 0.759378 0.8874549 0.8106241
v 0.807683 0.7712349 0.8883591
v 0.817715 0.7871668 1.048943
v 0.616224 0.8967262 -0.9932369
v 0 0.7720338 1.44783
v -0.193773 0.7738248 1.441388
v 0 0.8811738 1.186458
v -0.186031 0.8822558 1.180757
v -0.361043 0.7769378 1.409094
v 0 0.9855079 0.9021372
v -0.410718 0.8862328 1.128572
v -0.513818 0.7828398 1.346749
v -0.173423 0.9857389 0.8973792
v 0 1.056175 0.6766912
v -0.610597 0.8918708 1.031184
v -0.649055 0.7896748 1.259875
v -0.775642 0.8001278 1.152823
v -0.719842 0.9082098 0.9146581
v -0.554882 0.9844829 0.7954982
v -0.371944 0.9871219 0.8595422
v -0.16173 1.055609 0.6728312
v 0 1.113609 0.4481612
v -0.147615 1.112271 0.4452322
v -0.335958 1.054572 0.6483482
v -0.503096 1.050182 0.6020272
v -0.674893 0.9855599 0.7218632
v -0.295237 1.108877 0.4342542
v -0.444332 1.099825 0.4128122
v -0.63008 1.050604 0.5302202
v -0.593426 1.088717 0.3833202
v -0.227681 1.054766 -0.9908618
v 0 0.9745482 -0.9849068
v 0 1.060525 -0.9980998
v -0.409107 0.9734122 -0.9680768
v -0.407596 1.041722 -0.9784758
v -0.697328 0.8475631 -0.3728299
v -0.587839 1.069914 -0.03677183
v -0.742566 0.812604 0.01598813
v -0.577199 1.057606 -0.2958428
v -0.573771 1.025709 -0.5542158
v -0.57857 0.9819651 -0.8174848
v -0.615132 1.06491 0.1638202
v -0.790849 0.7776449 0.4048041
v -0.651044 1.035143 0.3626712
v -0.684995 1.001467 0.4961522
v -0.810596 0.7592489 0.7413981
v -0.727701 0.9436059 0.6711962
v -0.759377 0.8874549 0.8106241
v -0.807682 0.7712359 0.8883591
v -0.817714 0.7871678 1.048943
v -0.616224 0.8967262 -0.9932369
vt 0.4257 0.02
vt 0.4257 0.16
vt 0.5272 0.0232
vt 0.5216 0.1628
vt 0.6147 0.0392
vt 0.4257 0.2984
vt 0.6374 0.1882
vt 0.6945 0.07
vt 0.5151 0.3007
vt 0.4257 0.4082
vt 0.7404 0.2356
vt 0.7651 0.113
vt 0.8314 0.1661
vt 0.8023 0.284
vt 0.7117 0.3503
vt 0.6174 0.3192
vt 0.5091 0.41
vt 0.4257 0.5146
vt 0.503 0.516
vt 0.5989 0.422
vt 0.685 0.4445
vt 0.7789 0.3793
vt 0.5803 0.5214
vt 0.6583 0.532
vt 0.7555 0.474
vt 0.7364 0.5467
vt 0.1122 0.9822
vt 0.2414 0.9873
vt 0.2414 0.9113
vt 0.0092 0.9111
vt 0.0101 0.9708
vt 0.6644 0.7658
vt 0.4835 0.7597
vt 0.5128 0.8849
vt 0.6345 0.8696
vt 0.7553 0.8437
vt 0.8781 0.8112
vt 0.4182 0.8888
vt 0.3026 0.7537
vt 0.3237 0.8792
vt 0.2598 0.8653
vt 0.1463 0.7548
vt 0.1757 0.8396
vt 0.1084 0.8137
vt 0.0787 0.766
vt 0.0245 0.7759
vt 0.9423 0.7713
vt 0.4257 0.02
vt 0.5272 0.0232
vt 0.4257 0.16
vt 0.5216 0.1628
vt 0.6147 0.0392
vt 0.4257 0.2984
vt 0.6374 0.1882
vt 0.6945 0.07
vt 0.5151 0.3007
vt 0.4257 0.4082
vt 0.7404 0.2356
vt 0.7651 0.113
vt 0.8314 0.1661
vt 0.8023 0.284
vt 0.7117 0.3503
vt 0.6174 0.3192
vt 0.5091 0.41
vt 0.4257 0.5146
vt 0.503 0.516
vt 0.5989 0.422
vt 0.685 0.4445
vt 0.7789 0.3793
vt 0.5803 0.5214
vt 0.6583 0.532
vt 0.7555 0.474
vt 0.7364 0.5467
vt 0.1122 0.9822
vt 0.2414 0.9113
vt 0.2414 0.9873
vt 0.0092 0.9111
vt 0.0101 0.9708
vt 0.6644 0.7658
vt 0.5128 0.8849
vt 0.4835 0.7597
vt 0.6345 0.8696
vt 0.7553 0.8437
vt 0.8781 0.8112
vt 0.4182 0.8888
vt 0.3026 0.7537
vt 0.3237 0.8792
vt 0.2598 0.8653
vt 0.1463 0.7548
vt 0.1757 0.8396
vt 0.1084 0.8137
vt 0.0787 0.766
vt 0.0245 0.7759
vt 0.9423 0.7713
vn 0 0.9227821 0.3853222
vn 0 0.9310229 0.3649606
vn 0.02944103 0.9230129 0.3836411
vn 0.03538401 0.9314204 0.3622211
vn 0.08209772 0.9218993 0.3786314
vn 0 0.9468496 0.3216765
vn 0.1060057 0.928995 0.3545858
vn 0.1453277 0.9159729 0.3739966
vn 0.0318487 0.9466857 0.3205804
vn 0 0.9625335 0.2711627
vn 0.187875 0.9191587 0.346194
vn 0.2075837 0.905629 0.3697907
vn 0.235927 0.9024244 0.3605117
vn 0.2114145 0.9197461 0.3307129
vn 0.1511654 0.9392744 0.3080789
vn 0.08916238 0.9447383 0.3154672
vn 0.02739502 0.9625802 0.2696089
vn 0 0.9702962 0.2419198
vn 0.02651981 0.9704622 0.2397913
vn 0.07193179 0.9615935 0.2648844
vn 0.1205728 0.9586139 0.2579178
vn 0.1732643 0.9383582 0.2991044
vn 0.0638123 0.9703042 0.233319
vn 0.10337 0.9692717 0.2232198
vn 0.1345829 0.9598045 0.2462981
vn 0.1160756 0.968066 0.222204
vn 0.0403723 -0.1777606 -0.9832453
vn 0 -0.1516731 -0.9884307
vn 0 -0.1592842 -0.9872328
vn 0.05241071 -0.1592284 -0.9858496
vn 0.05715704 -0.149016 -0.9871815
vn 0.8555497 0.5135159 -0.0658491
vn 0.866558 0.4942298 -0.06938492
vn 0.8605748 0.5034266 -0.07728247
vn 0.8556826 0.5133526 -0.06539465
vn 0.8524221 0.5178681 -0.07203633
vn 0.851236 0.5200736 -0.0701483
vn 0.8714654 0.4827259 -0.08674002
vn 0.8875582 0.4566644 -0.06081313
vn 0.8812615 0.462709 -0.09632548
vn 0.8943591 0.4403102 -0.07904901
vn 0.9170715 0.3968595 -0.03850345
vn 0.9205748 0.3806769 -0.08733365
vn 0.9252325 0.3766844 -0.04531905
vn 0.9359531 0.34628 -0.0638892
vn 0.9397373 0.3294558 -0.09139345
vn 0.851079 0.5203471 -0.07002358
vn 0 0.9227821 0.3853222
vn -0.02944121 0.9230128 0.3836413
vn 0 0.9310229 0.3649606
vn -0.03538252 0.9314201 0.3622217
vn -0.08209671 0.9218986 0.3786332
vn 0 0.9468496 0.3216765
vn -0.106005 0.928995 0.3545861
vn -0.1453284 0.9159721 0.3739985
vn -0.03184822 0.9466859 0.3205799
vn 0 0.9625335 0.2711627
vn -0.1878764 0.9191586 0.3461935
vn -0.2075855 0.905628 0.369792
vn -0.2359273 0.9024238 0.3605129
vn -0.211415 0.919746 0.3307129
vn -0.1511635 0.9392745 0.3080794
vn -0.08916241 0.9447388 0.3154657
vn -0.02739497 0.9625801 0.2696093
vn 0 0.9702962 0.2419198
vn -0.02651913 0.9704619 0.2397924
vn -0.07193168 0.9615934 0.264885
vn -0.1205713 0.9586139 0.2579184
vn -0.17326 0.9383583 0.2991065
vn -0.06381246 0.9703039 0.2333202
vn -0.1033703 0.9692716 0.2232199
vn -0.1345818 0.9598047 0.2462978
vn -0.1160774 0.9680665 0.2222009
vn -0.0403723 -0.1777606 -0.9832453
vn 0 -0.1592842 -0.9872328
vn 0 -0.1516731 -0.9884307
vn -0.05241071 -0.1592284 -0.9858496
vn -0.05715704 -0.149016 -0.9871815
vn -0.8555493 0.5135168 -0.06584761
vn -0.8605756 0.5034255 -0.07728113
vn -0.8665592 0.4942277 -0.06938395
vn -0.8556812 0.513355 -0.0653939
vn -0.8524216 0.5178689 -0.0720356
vn -0.8512369 0.5200718 -0.07014965
vn -0.8714666 0.4827235 -0.08674098
vn -0.8875589 0.4566626 -0.06081376
vn -0.8812622 0.4627074 -0.09632608
vn -0.8943599 0.4403084 -0.07904942
vn -0.9170715 0.3968597 -0.03850193
vn -0.9205757 0.3806748 -0.08733238
vn -0.9252318 0.3766863 -0.04531577
vn -0.9359517 0.3462841 -0.06388959
vn -0.9397356 0.3294605 -0.0913937
vn -0.8510802 0.520345 -0.07002534
g Glass_4_0
f 3/3/3 2/2/2 1/1/1
f 4/4/4 2/2/2 3/3/3
f 5/5/5 4/4/4 3/3/3
f 6/6/6 2/2/2 4/4/4
f 7/7/7 4/4/4 5/5/5
f 8/8/8 7/7/7 5/5/5
f 9/9/9 4/4/4 7/7/7
f 9/9/9 6/6/6 4/4/4
f 10/10/10 6/6/6 9/9/9
f 8/8/8 11/11/11 7/7/7
f 12/12/12 11/11/11 8/8/8
f 13/13/13 11/11/11 12/12/12
f 14/14/14 11/11/11 13/13/13
f 15/15/15 11/11/11 14/14/14
f 11/11/11 15/15/15 16/16/16
f 16/16/16 9/9/9 7/7/7
f 7/7/7 11/11/11 16/16/16
f 17/17/17 9/9/9 16/16/16
f 17/17/17 10/10/10 9/9/9
f 18/18/18 10/10/10 17/17/17
f 19/19/19 18/18/18 17/17/17
f 19/19/19 17/17/17 20/20/20
f 20/20/20 17/17/17 16/16/16
f 16/16/16 15/15/15 20/20/20
f 15/15/15 21/21/21 20/20/20
f 21/21/21 15/15/15 22/22/22
f 22/22/22 15/15/15 14/14/14
f 23/23/23 19/19/19 20/20/20
f 20/20/20 21/21/21 23/23/23
f 23/23/23 21/21/21 24/24/24
f 24/24/24 21/21/21 25/25/25
f 25/25/25 21/21/21 22/22/22
f 26/26/26 24/24/24 25/25/25
f 29/29/29 28/28/28 27/27/27
f 30/30/30 29/29/29 27/27/27
f 30/30/30 27/27/27 31/31/31
f 34/34/34 33/33/33 32/32/32
f 35/35/35 34/34/34 32/32/32
f 32/32/32 36/36/36 35/35/35
f 32/32/32 37/37/37 36/36/36
f 33/33/33 34/34/34 38/38/38
f 39/39/39 33/33/33 38/38/38
f 40/40/40 39/39/39 38/38/38
f 41/41/41 39/39/39 40/40/40
f 42/42/42 39/39/39 41/41/41
f 43/43/43 42/42/42 41/41/41
f 44/44/44 42/42/42 43/43/43
f 45/45/45 42/42/42 44/44/44
f 46/46/46 45/45/45 44/44/44
f 47/47/47 37/37/37 32/32/32
f 50/50/50 49/49/49 48/48/48
f 50/50/50 51/51/51 49/49/49
f 51/51/51 52/52/52 49/49/49
f 50/50/50 53/53/53 51/51/51
f 51/51/51 54/54/54 52/52/52
f 54/54/54 55/55/55 52/52/52
f 51/51/51 56/56/56 54/54/54
f 53/53/53 56/56/56 51/51/51
f 53/53/53 57/57/57 56/56/56
f 58/58/58 55/55/55 54/54/54
f 58/58/58 59/59/59 55/55/55
f 58/58/58 60/60/60 59/59/59
f 58/58/58 61/61/61 60/60/60
f 58/58/58 62/62/62 61/61/61
f 62/62/62 58/58/58 63/63/63
f 56/56/56 63/63/63 54/54/54
f 58/58/58 54/54/54 63/63/63
f 56/56/56 64/64/64 63/63/63
f 57/57/57 64/64/64 56/56/56
f 57/57/57 65/65/65 64/64/64
f 65/65/65 66/66/66 64/64/64
f 64/64/64 66/66/66 67/67/67
f 64/64/64 67/67/67 63/63/63
f 62/62/62 63/63/63 67/67/67
f 68/68/68 62/62/62 67/67/67
f 62/62/62 68/68/68 69/69/69
f 62/62/62 69/69/69 61/61/61
f 66/66/66 70/70/70 67/67/67
f 68/68/68 67/67/67 70/70/70
f 68/68/68 70/70/70 71/71/71
f 68/68/68 71/71/71 72/72/72
f 68/68/68 72/72/72 69/69/69
f 71/71/71 73/73/73 72/72/72
f 76/76/76 75/75/75 74/74/74
f 75/75/75 77/77/77 74/74/74
f 74/74/74 77/77/77 78/78/78
f 81/81/81 80/80/80 79/79/79
f 80/80/80 82/82/82 79/79/79
f 83/83/83 79/79/79 82/82/82
f 84/84/84 79/79/79 83/83/83
f 80/80/80 81/81/81 85/85/85
f 81/81/81 86/86/86 85/85/85
f 86/86/86 87/87/87 85/85/85
f 86/86/86 88/88/88 87/87/87
f 86/86/86 89/89/89 88/88/88
f 89/89/89 90/90/90 88/88/88
f 89/89/89 91/91/91 90/90/90
f 89/89/89 92/92/92 91/91/91
f 92/92/92 93/93/93 91/91/91
f 84/84/84 94/94/94 79/79/79
