g ref_4
v 0.505449 0.4903557 2.095815
v 0.449152 0.5248976 2.053316
v 0.629465 0.6297577 1.853647
v 0.743696 0.5051577 1.998832
v 0.797588 0.6301907 1.806557
v -0.505447 0.4903557 2.095815
v -0.629464 0.6297577 1.853648
v -0.449151 0.5248976 2.053316
v -0.743695 0.5051587 1.998833
v -0.797587 0.6301907 1.806558
vt 0.9637 0.3489
vt 0.9177 0.3318
vt 0.8019 0.4622
vt 0.9487 0.496
vt 0.8073 0.5609
vt 0.9637 0.3489
vt 0.8019 0.4622
vt 0.9177 0.3318
vt 0.9487 0.496
vt 0.8073 0.5609
vn 0.1350745 0.8272418 0.5453676
vn 0.1080173 0.8366754 0.5369419
vn 0.1597208 0.8120906 0.5612468
vn 0.1695457 0.8098391 0.5616181
vn 0.1572864 0.8071725 0.5689759
vn -0.135072 0.8272414 0.5453689
vn -0.1597179 0.8120921 0.5612456
vn -0.1080171 0.8366743 0.5369436
vn -0.1695414 0.8098406 0.5616173
vn -0.1572853 0.8071752 0.5689725
g ref_4_0
f 3/3/3 2/2/2 1/1/1
f 4/4/4 3/3/3 1/1/1
f 5/5/5 3/3/3 4/4/4
f 8/8/8 7/7/7 6/6/6
f 7/7/7 9/9/9 6/6/6
f 7/7/7 10/10/10 9/9/9
