g model_car_30_matte_exhaust_LOD1
v 0.7847312 0.867641 -0.4037883
v 0.7759559 0.8678751 -0.4039157
v 0.7767555 0.8611307 -0.4100181
v 0.785507 0.8610528 -0.4097059
v 0.7795813 0.8515733 -0.4100181
v 0.7882977 0.851653 -0.4097059
v 0.7896103 0.8455473 -0.4039491
v 0.7809337 0.8453115 -0.4040766
v 0.7883057 0.852478 -0.4039061
v 0.7906186 0.8427948 -0.3987834
v 0.7819707 0.8424523 -0.3987817
v 0.7753776 0.8702533 -0.3987834
v 0.7841689 0.8699125 -0.3987834
v 0.7861378 0.8601687 -0.4038345
v 0.7863193 0.8595984 -0.3987834
v 0.7852983 0.8712903 -0.3753421
v 0.787412 0.8599743 -0.3753437
v 0.7884698 0.8531072 -0.3987834
v 0.7829503 0.8410633 -0.3751955
v 0.7915998 0.8414153 -0.3753469
v 0.7765213 0.8716408 -0.3751907
v 0.7864388 0.8726826 -0.3516667
v 0.7776762 0.8730441 -0.3513656
v 0.7781238 0.8710817 -0.3493075
v 0.78688 0.8707503 -0.3496197
v 0.7798887 0.860508 -0.3493075
v 0.7886131 0.8603885 -0.3496197
v 0.7819166 0.8521786 -0.3493075
v 0.7906043 0.8522997 -0.3496197
v 0.7885175 0.860355 -0.3516698
v 0.7905151 0.8523331 -0.351673
v 0.7925906 0.840023 -0.3516762
v 0.7923469 0.8418725 -0.3496197
v 0.7839411 0.8396615 -0.3513751
v 0.7836927 0.8415395 -0.3493075
v 0.7894861 0.8527218 -0.3753453
v 0.7932612 0.8540072 -0.2671739
v 0.7857252 0.8492205 -0.259281
v 0.7843712 0.8567343 -0.2593192
v 0.7929187 0.8567343 -0.2667103
v 0.7830157 0.8642497 -0.2593575
v 0.7921749 0.8595171 -0.2672217
v 0.7836863 0.856739 -0.2600138
v 0.7849558 0.8498371 -0.2599771
v 0.7899878 0.8433634 -0.3860831
v 0.7972419 0.8501636 -0.3858903
v 0.7824167 0.8636428 -0.2600488
v 0.7967083 0.8533956 -0.4019182
v 0.7967848 0.8567343 -0.4019373
v 0.7886434 0.8496348 -0.4087056
v 0.7870361 0.8567343 -0.4087518
v 0.7970412 0.8567343 -0.3859286
v 0.7878852 0.8501253 -0.4080525
v 0.7863703 0.8567295 -0.4080955
v 0.7891945 0.8440436 -0.3861054
v 0.7950373 0.8603901 -0.4019692
v 0.7854289 0.8638339 -0.4087964
v 0.7944846 0.8634851 -0.3859668
v 0.7848061 0.8701068 -0.3862296
v 0.7848554 0.8633322 -0.4081385
v 0.784247 0.8694155 -0.3862455
v -0.7847316 0.867641 -0.4037883
v -0.7855058 0.8610528 -0.4097059
v -0.7767543 0.8611307 -0.4100181
v -0.7759563 0.8678751 -0.4039157
v -0.7795817 0.8515733 -0.4100181
v -0.7882981 0.851653 -0.4097059
v -0.7896106 0.8455473 -0.4039491
v -0.7809341 0.8453115 -0.4040766
v -0.7883061 0.852478 -0.4039061
v -0.790619 0.8427948 -0.3987834
v -0.7819711 0.8424523 -0.3987817
v -0.775378 0.8702533 -0.3987834
v -0.7841693 0.8699125 -0.3987834
v -0.7861382 0.8601687 -0.4038345
v -0.7863181 0.8595984 -0.3987834
v -0.7852987 0.8712903 -0.3753421
v -0.7874124 0.8599743 -0.3753437
v -0.7884686 0.8531072 -0.3987834
v -0.7829508 0.8410633 -0.3751955
v -0.7916002 0.8414153 -0.3753469
v -0.7765201 0.8716408 -0.3751907
v -0.7864392 0.8726826 -0.3516667
v -0.777675 0.8730441 -0.3513656
v -0.7781225 0.8710817 -0.3493075
v -0.7868804 0.8707503 -0.3496197
v -0.7798876 0.860508 -0.3493075
v -0.7886136 0.8603885 -0.3496197
v -0.7819169 0.8521786 -0.3493075
v -0.7906046 0.8522997 -0.3496197
v -0.788518 0.860355 -0.3516698
v -0.7905154 0.8523331 -0.351673
v -0.792591 0.840023 -0.3516762
v -0.7923473 0.8418725 -0.3496197
v -0.7839415 0.8396615 -0.3513751
v -0.783693 0.8415395 -0.3493075
v -0.7894864 0.8527218 -0.3753453
v -0.79326 0.8540072 -0.2671739
v -0.7929176 0.8567343 -0.2667103
v -0.7843716 0.8567343 -0.2593192
v -0.7857256 0.8492205 -0.259281
v -0.783016 0.8642497 -0.2593575
v -0.7921753 0.8595171 -0.2672217
v -0.7836866 0.856739 -0.2600138
v -0.7849562 0.8498371 -0.2599771
v -0.7899866 0.8433634 -0.3860831
v -0.7972423 0.8501636 -0.3858903
v -0.7824171 0.8636428 -0.2600488
v -0.7967087 0.8533956 -0.4019182
v -0.7967851 0.8567343 -0.4019373
v -0.7886437 0.8496348 -0.4087056
v -0.7870365 0.8567343 -0.4087518
v -0.7970417 0.8567343 -0.3859286
v -0.7878855 0.8501253 -0.4080525
v -0.7863706 0.8567295 -0.4080955
v -0.7891949 0.8440436 -0.3861054
v -0.7950377 0.8603901 -0.4019692
v -0.7854292 0.8638339 -0.4087964
v -0.794485 0.8634851 -0.3859668
v -0.7848065 0.8701068 -0.3862296
v -0.7848558 0.8633322 -0.4081385
v -0.7842474 0.8694155 -0.3862455
vn 0.6191032 0.6639661 -0.4193571
vn 0.03216726 0.8141124 -0.5798157
vn 0.03411722 0.4085221 -0.9121106
vn 0.5703543 0.375373 -0.7306101
vn 0.03606719 -0.3090606 -0.9503582
vn 0.6639521 -0.164764 -0.7293973
vn 0.712701 -0.4865063 -0.5053404
vn 0.03216726 -0.7809493 -0.6237655
vn 0.9700947 0.2388762 -0.04306228
vn 0.7400002 -0.6269029 -0.2437054
vn 0.03606719 -0.9564451 -0.2896755
vn 0.03606719 0.9701086 -0.2399758
vn 0.5957037 0.7809632 -0.187706
vn 0.9700947 0.2388762 -0.04306228
vn 0.9681448 0.2466761 -0.04297196
vn 0.6522524 0.7556138 -0.06012158
vn 0.9720447 0.2291265 -0.05128526
vn 0.9681448 0.2466761 -0.04297196
vn 0.03996706 -0.9973941 -0.06006405
vn 0.7809493 -0.6210531 -0.06641702
vn 0.03801709 0.997408 -0.06108933
vn 0.5879039 0.7751133 0.2314483
vn 0.04971683 0.9486592 0.3123684
vn 0.04971683 0.4455713 0.8938649
vn 0.6327528 0.3714731 0.6794348
vn 0.03606719 0.006831765 0.999326
vn 0.712701 0.1472285 0.6858433
vn 0.03606719 0.006831765 0.999326
vn 0.7263506 0.1491784 0.6709401
vn 0.9759446 0.2096269 -0.05990625
vn 0.9777865 0.2096037 0
vn 0.712701 -0.6581023 0.2428141
vn 0.6776018 -0.2349624 0.6968849
vn 0.0516668 -0.9388955 0.3403026
vn 0.04776686 -0.3734091 0.9264362
vn 0.9720447 0.2291265 -0.05128526
vn 0.8998964 -0.3129605 0.3037139
vn 0.04776686 -0.6620021 0.7479783
vn -0.02633131 0.004881859 0.9996414
vn 0.8803969 0.1686779 0.4432258
vn -0.1257789 0.6639661 0.7371083
vn 0.7906991 0.5313692 0.3040423
vn -0.706865 -0.125765 0.6960784
vn -0.7673136 -0.4962561 0.4061523
vn 0.008767843 -0.9954441 -0.09494277
vn 0.8998964 -0.4338576 -0.04420345
vn -0.8511615 0.332474 0.4061837
vn 0.8608974 -0.293461 -0.4156157
vn 0.8842968 0.1823276 -0.4298556
vn 0.02046752 -0.6035036 -0.7970976
vn -0.06728041 -0.01851761 -0.9975622
vn 0.9798445 0.1979272 0.02700969
vn -0.7283145 -0.4826065 -0.4864658
vn -0.6912653 -0.1628141 -0.7040197
vn -0.6425165 -0.7614498 -0.08583027
vn 0.7458501 0.5255194 -0.4093129
vn -0.1472285 0.5898678 -0.7939645
vn 0.7575498 0.6503164 -0.05662931
vn -0.1511283 0.9837583 -0.09684908
vn -0.8219123 0.2778753 -0.4972379
vn -0.7614636 0.6425165 -0.08570692
vn -0.6191171 0.6639661 -0.4193364
vn -0.5703683 0.375373 -0.7305991
vn -0.03413117 0.4085221 -0.9121101
vn -0.03218114 0.8141124 -0.5798149
vn -0.03608108 -0.3090606 -0.9503577
vn -0.6639661 -0.164764 -0.7293846
vn -0.7127149 -0.4865063 -0.5053207
vn -0.03218114 -0.7809493 -0.6237648
vn -0.9701086 0.2388762 -0.04274832
vn -0.7400142 -0.6269029 -0.243663
vn -0.03608108 -0.9564451 -0.2896739
vn -0.03608108 0.9701086 -0.2399738
vn -0.5957177 0.7809632 -0.1876619
vn -0.9701086 0.2388762 -0.04274832
vn -0.9681587 0.2466761 -0.04265663
vn -0.6522663 0.7556138 -0.0599707
vn -0.9720587 0.2291265 -0.05102017
vn -0.9681587 0.2466761 -0.04265663
vn -0.03998101 -0.9973941 -0.06005462
vn -0.7809632 -0.6210531 -0.06625348
vn -0.0380311 0.997408 -0.06108055
vn -0.5879178 0.7751133 0.231413
vn -0.04973078 0.9486592 0.3123661
vn -0.04973078 0.4455713 0.8938641
vn -0.6327667 0.3714731 0.6794218
vn -0.03608108 0.006831765 0.9993255
vn -0.7127149 0.1472285 0.6858289
vn -0.03608108 0.006831765 0.9993255
vn -0.7263645 0.1491784 0.6709251
vn -0.9759586 0.2096269 -0.05967747
vn -0.977787 0.2096009 0
vn -0.7127149 -0.6581023 0.2427733
vn -0.6776156 -0.2349624 0.6968714
vn -0.05168068 -0.9388955 0.3403005
vn -0.04778087 -0.3734091 0.9264354
vn -0.9720587 0.2291265 -0.05102017
vn -0.8999103 -0.3129605 0.3036727
vn -0.8804108 0.1686779 0.4431981
vn 0.02631742 0.004881859 0.9996417
vn -0.04778087 -0.6620021 0.7479774
vn 0.125765 0.6639661 0.7371107
vn -0.790713 0.5313692 0.3040062
vn 0.7068511 -0.125765 0.6960925
vn 0.7672996 -0.4962561 0.4061787
vn -0.008781791 -0.9954441 -0.09494151
vn -0.8999103 -0.4338576 -0.04392004
vn 0.8511476 0.332474 0.4062128
vn -0.8609113 -0.293461 -0.4155869
vn -0.8823608 0.1823276 -0.4338156
vn -0.02048147 -0.6035036 -0.7970972
vn 0.0672664 -0.01851761 -0.9975632
vn -0.9798584 0.1979272 0.02650177
vn 0.7283006 -0.4826065 -0.4864866
vn 0.6912514 -0.1628141 -0.7040334
vn 0.6425026 -0.7614498 -0.08593404
vn -0.745864 0.5255194 -0.4092875
vn 0.1472145 0.5898678 -0.7939672
vn -0.7575638 0.6503164 -0.05644165
vn 0.1511144 0.9837583 -0.09687093
vn 0.8218983 0.2778753 -0.497261
vn 0.7614498 0.6425165 -0.08583027
g model_car_30_matte_exhaust_LOD1_0
f 3/3/3 2/2/2 1/1/1
f 4/4/4 3/3/3 1/1/1
f 3/3/3 4/4/4 5/5/5
f 4/4/4 6/6/6 5/5/5
f 6/6/6 7/7/7 5/5/5
f 7/7/7 8/8/8 5/5/5
f 9/9/9 7/7/7 6/6/6
f 9/9/9 6/6/6 4/4/4
f 7/7/7 10/10/10 8/8/8
f 10/10/10 11/11/11 8/8/8
f 2/2/2 12/12/12 1/1/1
f 12/12/12 13/13/13 1/1/1
f 1/1/1 13/13/13 14/14/14
f 1/1/1 14/14/14 4/4/4
f 14/14/14 9/9/9 4/4/4
f 13/13/13 15/15/15 14/14/14
f 14/14/14 15/15/15 9/9/9
f 15/15/15 13/13/13 16/16/16
f 13/13/13 12/12/12 16/16/16
f 17/17/17 15/15/15 16/16/16
f 18/18/18 10/10/10 7/7/7
f 9/9/9 18/18/18 7/7/7
f 15/15/15 18/18/18 9/9/9
f 11/11/11 10/10/10 19/19/19
f 10/10/10 20/20/20 19/19/19
f 20/20/20 10/10/10 18/18/18
f 12/12/12 21/21/21 16/16/16
f 16/16/16 21/21/21 22/22/22
f 17/17/17 16/16/16 22/22/22
f 21/21/21 23/23/23 22/22/22
f 23/23/23 24/24/24 22/22/22
f 24/24/24 25/25/25 22/22/22
f 25/25/25 24/24/24 26/26/26
f 27/27/27 25/25/25 26/26/26
f 22/22/22 25/25/25 27/27/27
f 27/27/27 26/26/26 28/28/28
f 29/29/29 27/27/27 28/28/28
f 27/27/27 29/29/29 30/30/30
f 30/30/30 22/22/22 27/27/27
f 30/30/30 17/17/17 22/22/22
f 29/29/29 31/31/31 30/30/30
f 30/30/30 31/31/31 17/17/17
f 32/32/32 31/31/31 29/29/29
f 33/33/33 32/32/32 29/29/29
f 33/33/33 29/29/29 28/28/28
f 32/32/32 33/33/33 34/34/34
f 20/20/20 32/32/32 34/34/34
f 19/19/19 20/20/20 34/34/34
f 33/33/33 35/35/35 34/34/34
f 35/35/35 33/33/33 28/28/28
f 32/32/32 20/20/20 36/36/36
f 31/31/31 32/32/32 36/36/36
f 31/31/31 36/36/36 17/17/17
f 36/36/36 20/20/20 18/18/18
f 36/36/36 18/18/18 15/15/15
f 17/17/17 36/36/36 15/15/15
f 39/39/39 38/38/38 37/37/37
f 40/40/40 39/39/39 37/37/37
f 41/41/41 39/39/39 40/40/40
f 42/42/42 41/41/41 40/40/40
f 38/38/38 39/39/39 43/43/43
f 44/44/44 38/38/38 43/43/43
f 37/37/37 38/38/38 45/45/45
f 38/38/38 44/44/44 45/45/45
f 46/46/46 37/37/37 45/45/45
f 39/39/39 41/41/41 47/47/47
f 43/43/43 39/39/39 47/47/47
f 46/46/46 45/45/45 48/48/48
f 46/46/46 48/48/48 49/49/49
f 48/48/48 50/50/50 49/49/49
f 45/45/45 50/50/50 48/48/48
f 50/50/50 51/51/51 49/49/49
f 52/52/52 46/46/46 49/49/49
f 37/37/37 46/46/46 52/52/52
f 40/40/40 37/37/37 52/52/52
f 50/50/50 53/53/53 51/51/51
f 53/53/53 54/54/54 51/51/51
f 50/50/50 45/45/45 55/55/55
f 53/53/53 50/50/50 55/55/55
f 44/44/44 55/55/55 45/45/45
f 49/49/49 51/51/51 56/56/56
f 52/52/52 49/49/49 56/56/56
f 51/51/51 57/57/57 56/56/56
f 51/51/51 54/54/54 57/57/57
f 56/56/56 57/57/57 58/58/58
f 58/58/58 52/52/52 56/56/56
f 57/57/57 59/59/59 58/58/58
f 59/59/59 57/57/57 60/60/60
f 54/54/54 60/60/60 57/57/57
f 61/61/61 59/59/59 60/60/60
f 42/42/42 58/58/58 59/59/59
f 41/41/41 42/42/42 59/59/59
f 41/41/41 59/59/59 61/61/61
f 47/47/47 41/41/41 61/61/61
f 40/40/40 52/52/52 58/58/58
f 42/42/42 40/40/40 58/58/58
f 64/64/64 63/63/63 62/62/62
f 65/65/65 64/64/64 62/62/62
f 63/63/63 64/64/64 66/66/66
f 67/67/67 63/63/63 66/66/66
f 68/68/68 67/67/67 66/66/66
f 69/69/69 68/68/68 66/66/66
f 68/68/68 70/70/70 67/67/67
f 67/67/67 70/70/70 63/63/63
f 71/71/71 68/68/68 69/69/69
f 72/72/72 71/71/71 69/69/69
f 73/73/73 65/65/65 62/62/62
f 74/74/74 73/73/73 62/62/62
f 74/74/74 62/62/62 75/75/75
f 75/75/75 62/62/62 63/63/63
f 70/70/70 75/75/75 63/63/63
f 76/76/76 74/74/74 75/75/75
f 76/76/76 75/75/75 70/70/70
f 74/74/74 76/76/76 77/77/77
f 73/73/73 74/74/74 77/77/77
f 76/76/76 78/78/78 77/77/77
f 79/79/79 70/70/70 68/68/68
f 71/71/71 79/79/79 68/68/68
f 79/79/79 76/76/76 70/70/70
f 71/71/71 72/72/72 80/80/80
f 81/81/81 71/71/71 80/80/80
f 71/71/71 81/81/81 79/79/79
f 82/82/82 73/73/73 77/77/77
f 82/82/82 77/77/77 83/83/83
f 77/77/77 78/78/78 83/83/83
f 84/84/84 82/82/82 83/83/83
f 85/85/85 84/84/84 83/83/83
f 86/86/86 85/85/85 83/83/83
f 85/85/85 86/86/86 87/87/87
f 86/86/86 88/88/88 87/87/87
f 86/86/86 83/83/83 88/88/88
f 87/87/87 88/88/88 89/89/89
f 88/88/88 90/90/90 89/89/89
f 90/90/90 88/88/88 91/91/91
f 83/83/83 91/91/91 88/88/88
f 78/78/78 91/91/91 83/83/83
f 92/92/92 90/90/90 91/91/91
f 92/92/92 91/91/91 78/78/78
f 92/92/92 93/93/93 90/90/90
f 93/93/93 94/94/94 90/90/90
f 90/90/90 94/94/94 89/89/89
f 94/94/94 93/93/93 95/95/95
f 81/81/81 80/80/80 95/95/95
f 93/93/93 81/81/81 95/95/95
f 96/96/96 94/94/94 95/95/95
f 94/94/94 96/96/96 89/89/89
f 93/93/93 92/92/92 97/97/97
f 97/97/97 92/92/92 78/78/78
f 81/81/81 93/93/93 97/97/97
f 81/81/81 97/97/97 79/79/79
f 97/97/97 78/78/78 76/76/76
f 79/79/79 97/97/97 76/76/76
f 100/100/100 99/99/99 98/98/98
f 101/101/101 100/100/100 98/98/98
f 100/100/100 102/102/102 99/99/99
f 102/102/102 103/103/103 99/99/99
f 100/100/100 101/101/101 104/104/104
f 101/101/101 105/105/105 104/104/104
f 101/101/101 98/98/98 106/106/106
f 105/105/105 101/101/101 106/106/106
f 98/98/98 107/107/107 106/106/106
f 100/100/100 104/104/104 108/108/108
f 102/102/102 100/100/100 108/108/108
f 106/106/106 107/107/107 109/109/109
f 109/109/109 107/107/107 110/110/110
f 111/111/111 109/109/109 110/110/110
f 111/111/111 106/106/106 109/109/109
f 112/112/112 111/111/111 110/110/110
f 107/107/107 113/113/113 110/110/110
f 98/98/98 99/99/99 113/113/113
f 107/107/107 98/98/98 113/113/113
f 114/114/114 111/111/111 112/112/112
f 115/115/115 114/114/114 112/112/112
f 111/111/111 114/114/114 116/116/116
f 106/106/106 111/111/111 116/116/116
f 116/116/116 105/105/105 106/106/106
f 112/112/112 110/110/110 117/117/117
f 110/110/110 113/113/113 117/117/117
f 118/118/118 112/112/112 117/117/117
f 115/115/115 112/112/112 118/118/118
f 118/118/118 117/117/117 119/119/119
f 113/113/113 119/119/119 117/117/117
f 120/120/120 118/118/118 119/119/119
f 118/118/118 120/120/120 121/121/121
f 121/121/121 115/115/115 118/118/118
f 120/120/120 122/122/122 121/121/121
f 119/119/119 103/103/103 120/120/120
f 103/103/103 102/102/102 120/120/120
f 120/120/120 102/102/102 122/122/122
f 102/102/102 108/108/108 122/122/122
f 99/99/99 103/103/103 119/119/119
f 113/113/113 99/99/99 119/119/119
