g model_car_32_matte_mirror_LOD1
v 0.6998711 0.9715622 0.4044343
v 0.6915116 0.9564741 0.4039292
v 0.6901239 0.9415411 0.401076
v 0.694851 0.9277615 0.396392
v 0.7155523 0.9842557 0.4019052
v 0.7056205 0.9158904 0.3900668
v 0.7363812 0.9917584 0.396461
v 0.7220913 0.9073568 0.38254
v 0.7586461 0.9932634 0.3891893
v 0.7426581 0.9034536 0.3746442
v 0.7792113 0.9893518 0.3812918
v 0.7649196 0.9049674 0.367376
v 0.795682 0.9808164 0.3737651
v 0.7857451 0.9124717 0.3619335
v 0.8064533 0.9689452 0.3674398
v 0.8014245 0.9251583 0.3594045
v 0.8111821 0.9551674 0.3627558
v 0.8097891 0.9402378 0.3599061
v 0.7959027 0.9809853 0.373903
v 0.8067309 0.9690521 0.3675449
v 0.7969163 0.981756 0.3745391
v 0.7801026 0.9904689 0.3822228
v 0.7793716 0.9895535 0.3814591
v 0.7592064 0.9944426 0.3902479
v 0.7587461 0.9934755 0.389379
v 0.7365984 0.9929134 0.3976298
v 0.7364191 0.9919652 0.3966696
v 0.7153713 0.9852677 0.4031776
v 0.7155195 0.9844367 0.4021328
v 0.8080014 0.9695401 0.3680294
v 0.8114907 0.9551812 0.36283
v 0.8129044 0.9552466 0.3631713
v 0.8100874 0.9401447 0.3599595
v 0.8114562 0.9397224 0.3602079
v 0.801671 0.9249721 0.3594545
v 0.8028019 0.9241205 0.3596889
v 0.7859175 0.9122252 0.3619973
v 0.7867122 0.911103 0.3622852
v 0.7650213 0.9046966 0.3674588
v 0.7654902 0.9034554 0.3678312
v 0.7426978 0.9031796 0.374746
v 0.742884 0.9019176 0.3752114
v 0.7220723 0.907093 0.3826641
v 0.7219896 0.9058828 0.383233
v 0.7055413 0.9156576 0.3902202
v 0.705174 0.9145957 0.3909184
v 0.6947148 0.9275909 0.3965765
v 0.6940907 0.9268116 0.3974264
v 0.6899549 0.9414635 0.4012932
v 0.6891878 0.9411049 0.4022846
v 0.6913548 0.9565035 0.4041653
v 0.6906325 0.9566327 0.4052514
v 0.6997643 0.9716846 0.404674
v 0.6992798 0.9722431 0.4057738
v 0.7050258 0.9144561 0.3908564
v 0.6938993 0.9267203 0.3973902
v 0.6889722 0.9410825 0.4022724
v 0.6904238 0.956693 0.4052549
v 0.7218878 0.905719 0.3831503
v 0.7428288 0.9017453 0.3751097
v 0.7654817 0.9032847 0.3677157
v 0.7867588 0.9109529 0.3621542
v 0.8029054 0.9240171 0.3595476
v 0.811601 0.9396914 0.3600681
v 0.8130561 0.9552967 0.3630472
v 0.8081272 0.9696607 0.3679312
v 0.7969991 0.981925 0.3744649
v 0.7801387 0.9906637 0.3821711
v 0.7591978 0.994646 0.3902133
v 0.7365415 0.9931135 0.3976108
v 0.7152592 0.985447 0.4031741
v 0.6991109 0.9723759 0.4057807
v -0.6998711 0.9715622 0.4044343
v -0.694851 0.9277615 0.396392
v -0.6901239 0.9415411 0.401076
v -0.6915117 0.9564741 0.4039292
v -0.7155523 0.9842557 0.4019052
v -0.7056206 0.9158904 0.3900668
v -0.7363812 0.9917584 0.396461
v -0.7220913 0.9073568 0.38254
v -0.7586462 0.9932634 0.3891893
v -0.7426582 0.9034536 0.3746442
v -0.7792113 0.9893518 0.3812918
v -0.7649197 0.9049674 0.367376
v -0.795682 0.9808164 0.3737651
v -0.7857451 0.9124717 0.3619335
v -0.8064533 0.9689452 0.3674398
v -0.8014246 0.9251583 0.3594045
v -0.8111822 0.9551674 0.3627558
v -0.8097892 0.9402378 0.3599061
v -0.7959027 0.9809853 0.373903
v -0.8067309 0.9690521 0.3675449
v -0.7969164 0.981756 0.3745391
v -0.7801026 0.9904689 0.3822228
v -0.7793717 0.9895535 0.3814591
v -0.7592065 0.9944426 0.3902479
v -0.7587462 0.9934755 0.389379
v -0.7365984 0.9929134 0.3976298
v -0.7364191 0.9919652 0.3966696
v -0.7153713 0.9852677 0.4031776
v -0.7155196 0.9844367 0.4021328
v -0.8080015 0.9695401 0.3680294
v -0.8114907 0.9551812 0.36283
v -0.8129044 0.9552466 0.3631713
v -0.8100874 0.9401447 0.3599595
v -0.8114563 0.9397224 0.3602079
v -0.8016711 0.9249721 0.3594545
v -0.8028037 0.9241205 0.3596889
v -0.7859175 0.9122252 0.3619973
v -0.7867122 0.911103 0.3622852
v -0.7650214 0.9046966 0.3674588
v -0.7654902 0.9034554 0.3678312
v -0.7426978 0.9031796 0.374746
v -0.742884 0.9019176 0.3752114
v -0.7220723 0.907093 0.3826641
v -0.7219896 0.9058828 0.383233
v -0.7055413 0.9156576 0.3902202
v -0.7051758 0.9145957 0.3909184
v -0.6947148 0.9275909 0.3965765
v -0.6940925 0.9268116 0.3974264
v -0.6899549 0.9414635 0.4012932
v -0.6891878 0.9411049 0.4022846
v -0.6913548 0.9565035 0.4041653
v -0.6906325 0.9566327 0.4052514
v -0.6997643 0.9716846 0.404674
v -0.6992798 0.9722431 0.4057738
v -0.7050259 0.9144561 0.3908564
v -0.6938993 0.9267203 0.3973902
v -0.6889723 0.9410825 0.4022724
v -0.6904239 0.956693 0.4052549
v -0.7218879 0.905719 0.3831503
v -0.7428288 0.9017453 0.3751097
v -0.7654817 0.9032847 0.3677157
v -0.7867588 0.9109529 0.3621542
v -0.8029054 0.9240171 0.3595476
v -0.8116011 0.9396914 0.3600681
v -0.8130561 0.9552967 0.3630472
v -0.808129 0.9696607 0.3679312
v -0.7969992 0.981925 0.3744649
v -0.7801388 0.9906637 0.3821711
v -0.7591979 0.994646 0.3902133
v -0.7365416 0.9931135 0.3976108
v -0.7152593 0.985447 0.4031741
v -0.6991109 0.9723759 0.4057807
vn -0.3168812 0.2057942 -0.9258699
vn -0.3168812 0.2057942 -0.9258699
vn -0.3168812 0.2057942 -0.9258699
vn -0.3168812 0.2057942 -0.9258699
vn -0.3168812 0.2057942 -0.9258699
vn -0.3168812 0.2057942 -0.9258699
vn -0.3168812 0.2057942 -0.9258699
vn -0.3168812 0.2057942 -0.9258699
vn -0.3168812 0.2057942 -0.9258699
vn -0.3168812 0.2057942 -0.9258699
vn -0.3168812 0.2057942 -0.9258699
vn -0.3168812 0.2057942 -0.9258699
vn -0.3168812 0.2057942 -0.9258699
vn -0.3168812 0.2057942 -0.9258699
vn -0.3168812 0.2057942 -0.9258699
vn -0.3168812 0.2057942 -0.9258699
vn -0.3168812 0.2057942 -0.9258699
vn -0.3168812 0.2057942 -0.9258699
vn 0.04610705 0.5985099 -0.7997875
vn 0.1556294 0.463954 -0.8720815
vn -0.2949767 0.2355217 -0.9260228
vn -0.2981058 0.2527324 -0.9204669
vn -0.07749665 0.6751755 -0.733575
vn -0.3074936 0.2652493 -0.9138329
vn -0.202665 0.704903 -0.6797343
vn -0.3231395 0.2668138 -0.9079599
vn -0.337221 0.7002093 -0.6292766
vn -0.3403502 0.2589908 -0.9039279
vn -0.4952461 0.6438835 -0.5832199
vn -0.2981058 0.2183111 -0.9292326
vn 0.2135198 0.2715076 -0.9384524
vn -0.3027997 0.2089235 -0.9298728
vn 0.1931798 0.052463 -0.9797598
vn -0.3043643 0.202665 -0.9307466
vn 0.09304518 -0.1462417 -0.9848635
vn -0.2996705 0.1917128 -0.9345822
vn -0.052463 -0.2823623 -0.9578722
vn -0.2996705 0.171373 -0.9385248
vn -0.1995358 -0.3496403 -0.9153891
vn -0.3074936 0.1494685 -0.9397377
vn -0.3325272 -0.3699802 -0.8674908
vn -0.3231395 0.1353871 -0.9366168
vn -0.4655186 -0.3496403 -0.8130462
vn -0.3419148 0.1369516 -0.9296981
vn -0.6047684 -0.2807977 -0.7452569
vn -0.3591255 0.1479039 -0.9214951
vn -0.7299367 -0.1431125 -0.6683646
vn -0.3716424 0.1666791 -0.9132907
vn -0.8003439 0.06497985 -0.5960095
vn -0.3779007 0.1932774 -0.9054474
vn -0.7768748 0.3027997 -0.552067
vn -0.3732069 0.2214403 -0.9009333
vn -0.6595294 0.5124567 -0.5499173
vn -0.3575609 0.2433448 -0.9016283
vn -0.08219051 0.4749062 -0.8761899
vn -0.01021868 0.3841591 -0.9232103
vn 0.02889639 0.2574261 -0.9658659
vn 0.01481497 0.111918 -0.993607
vn -0.1666791 0.5265381 -0.833652
vn -0.2496032 0.546878 -0.7991388
vn -0.3403502 0.5437487 -0.7671369
vn -0.4451787 0.5077629 -0.7375586
vn -0.554701 0.4217097 -0.7172641
vn -0.6344959 0.2824599 -0.719466
vn -0.6517065 0.1213056 -0.748708
vn -0.6047684 -0.01950878 -0.7961624
vn -0.5187151 -0.1118205 -0.847603
vn -0.4264034 -0.1587586 -0.8904919
vn -0.337221 -0.17284 -0.9254233
vn -0.2464739 -0.1603232 -0.9557965
vn -0.1479039 -0.1118205 -0.98266
vn -0.05089843 -0.01950878 -0.9985133
vn 0.3167836 0.2057942 -0.9259033
vn 0.3167836 0.2057942 -0.9259033
vn 0.3167836 0.2057942 -0.9259033
vn 0.3167836 0.2057942 -0.9259033
vn 0.3167836 0.2057942 -0.9259033
vn 0.3167836 0.2057942 -0.9259033
vn 0.3167836 0.2057942 -0.9259033
vn 0.3167836 0.2057942 -0.9259033
vn 0.3167836 0.2057942 -0.9259033
vn 0.3167836 0.2057942 -0.9259033
vn 0.3167836 0.2057942 -0.9259033
vn 0.3167836 0.2057942 -0.9259033
vn 0.3167836 0.2057942 -0.9259033
vn 0.3167836 0.2057942 -0.9259033
vn 0.3167836 0.2057942 -0.9259033
vn 0.3167836 0.2057942 -0.9259033
vn 0.3167836 0.2057942 -0.9259033
vn 0.3167836 0.2057942 -0.9259033
vn -0.04620457 0.5985099 -0.7997819
vn -0.1557269 0.463954 -0.8720641
vn 0.2948791 0.2355217 -0.9260539
vn 0.2980084 0.2527324 -0.9204984
vn 0.07739913 0.6751755 -0.7335852
vn 0.307396 0.2652493 -0.9138657
vn 0.2025675 0.704903 -0.6797633
vn 0.323042 0.2668138 -0.9079946
vn 0.3371235 0.7002093 -0.6293288
vn 0.3402527 0.2589908 -0.9039645
vn 0.4951485 0.6438835 -0.5833027
vn 0.2980084 0.2183111 -0.9292638
vn -0.2136172 0.2715076 -0.9384302
vn 0.3027022 0.2089235 -0.9299045
vn -0.1932774 0.052463 -0.9797405
vn 0.3042668 0.202665 -0.9307785
vn -0.09314275 -0.1462417 -0.9848542
vn 0.3011376 0.1917128 -0.9341105
vn 0.05236548 -0.2823623 -0.9578775
vn 0.2995729 0.171373 -0.938556
vn 0.1994383 -0.3496403 -0.9154103
vn 0.307396 0.1494685 -0.9397696
vn 0.3324296 -0.3699802 -0.8675282
vn 0.323042 0.1353871 -0.9366505
vn 0.465421 -0.3496403 -0.813102
vn 0.3418173 0.1369516 -0.9297339
vn 0.6046708 -0.2807977 -0.7453361
vn 0.3590279 0.1479039 -0.9215332
vn 0.7298391 -0.1431125 -0.6684711
vn 0.3731094 0.1666791 -0.9126924
vn 0.8002464 0.06341523 -0.5963089
vn 0.3778032 0.1932774 -0.9054881
vn 0.7767773 0.3027997 -0.5522041
vn 0.3731094 0.2214403 -0.9009737
vn 0.6594319 0.5124567 -0.5500343
vn 0.3590279 0.2433448 -0.9010451
vn 0.08209294 0.4749062 -0.8761991
vn 0.01012117 0.3841591 -0.9232115
vn -0.02899396 0.2574261 -0.9658629
vn -0.01491249 0.111918 -0.9936056
vn 0.1665816 0.5265381 -0.8336715
vn 0.2495056 0.546878 -0.7991692
vn 0.3402527 0.5437487 -0.7671801
vn 0.4450812 0.5077629 -0.7376175
vn 0.5546035 0.4217097 -0.7173395
vn 0.6343983 0.2824599 -0.7195522
vn 0.6516089 0.1213056 -0.7487929
vn 0.6046708 -0.01950878 -0.7962365
vn 0.5201822 -0.1118205 -0.8467035
vn 0.4263059 -0.1587586 -0.8905386
vn 0.3371235 -0.17284 -0.9254588
vn 0.2463764 -0.1603232 -0.9558217
vn 0.1478063 -0.1118205 -0.9826747
vn 0.05080086 -0.01950878 -0.9985183
g model_car_32_matte_mirror_LOD1_0
f 3/3/3 2/2/2 1/1/1
f 4/4/4 3/3/3 1/1/1
f 4/4/4 1/1/1 5/5/5
f 6/6/6 4/4/4 5/5/5
f 6/6/6 5/5/5 7/7/7
f 8/8/8 6/6/6 7/7/7
f 8/8/8 7/7/7 9/9/9
f 10/10/10 8/8/8 9/9/9
f 10/10/10 9/9/9 11/11/11
f 12/12/12 10/10/10 11/11/11
f 12/12/12 11/11/11 13/13/13
f 14/14/14 12/12/12 13/13/13
f 14/14/14 13/13/13 15/15/15
f 16/16/16 14/14/14 15/15/15
f 16/16/16 15/15/15 17/17/17
f 18/18/18 16/16/16 17/17/17
f 13/13/13 19/19/19 15/15/15
f 19/19/19 20/20/20 15/15/15
f 15/15/15 20/20/20 17/17/17
f 19/19/19 21/21/21 20/20/20
f 22/22/22 21/21/21 19/19/19
f 23/23/23 22/22/22 19/19/19
f 23/23/23 19/19/19 13/13/13
f 11/11/11 23/23/23 13/13/13
f 24/24/24 22/22/22 23/23/23
f 25/25/25 24/24/24 23/23/23
f 25/25/25 23/23/23 11/11/11
f 26/26/26 24/24/24 25/25/25
f 27/27/27 26/26/26 25/25/25
f 28/28/28 26/26/26 27/27/27
f 29/29/29 28/28/28 27/27/27
f 21/21/21 30/30/30 20/20/20
f 20/20/20 30/30/30 31/31/31
f 20/20/20 31/31/31 17/17/17
f 17/17/17 31/31/31 18/18/18
f 30/30/30 32/32/32 31/31/31
f 31/31/31 32/32/32 33/33/33
f 31/31/31 33/33/33 18/18/18
f 32/32/32 34/34/34 33/33/33
f 33/33/33 34/34/34 35/35/35
f 34/34/34 36/36/36 35/35/35
f 35/35/35 36/36/36 37/37/37
f 36/36/36 38/38/38 37/37/37
f 37/37/37 38/38/38 39/39/39
f 38/38/38 40/40/40 39/39/39
f 39/39/39 40/40/40 41/41/41
f 40/40/40 42/42/42 41/41/41
f 41/41/41 42/42/42 43/43/43
f 42/42/42 44/44/44 43/43/43
f 43/43/43 44/44/44 45/45/45
f 44/44/44 46/46/46 45/45/45
f 45/45/45 46/46/46 47/47/47
f 46/46/46 48/48/48 47/47/47
f 47/47/47 48/48/48 49/49/49
f 48/48/48 50/50/50 49/49/49
f 49/49/49 50/50/50 51/51/51
f 50/50/50 52/52/52 51/51/51
f 51/51/51 52/52/52 53/53/53
f 52/52/52 54/54/54 53/53/53
f 48/48/48 46/46/46 55/55/55
f 56/56/56 48/48/48 55/55/55
f 50/50/50 48/48/48 56/56/56
f 52/52/52 50/50/50 57/57/57
f 57/57/57 50/50/50 56/56/56
f 58/58/58 52/52/52 57/57/57
f 54/54/54 52/52/52 58/58/58
f 46/46/46 44/44/44 59/59/59
f 55/55/55 46/46/46 59/59/59
f 59/59/59 44/44/44 60/60/60
f 44/44/44 42/42/42 60/60/60
f 60/60/60 42/42/42 61/61/61
f 42/42/42 40/40/40 61/61/61
f 61/61/61 40/40/40 62/62/62
f 40/40/40 38/38/38 62/62/62
f 62/62/62 38/38/38 63/63/63
f 38/38/38 36/36/36 63/63/63
f 63/63/63 36/36/36 64/64/64
f 36/36/36 34/34/34 64/64/64
f 64/64/64 34/34/34 65/65/65
f 34/34/34 32/32/32 65/65/65
f 65/65/65 32/32/32 66/66/66
f 32/32/32 30/30/30 66/66/66
f 66/66/66 30/30/30 67/67/67
f 30/30/30 21/21/21 67/67/67
f 67/67/67 21/21/21 68/68/68
f 21/21/21 22/22/22 68/68/68
f 68/68/68 22/22/22 69/69/69
f 22/22/22 24/24/24 69/69/69
f 69/69/69 24/24/24 70/70/70
f 24/24/24 26/26/26 70/70/70
f 70/70/70 26/26/26 71/71/71
f 26/26/26 28/28/28 71/71/71
f 71/71/71 28/28/28 72/72/72
f 28/28/28 54/54/54 72/72/72
f 72/72/72 54/54/54 58/58/58
f 54/54/54 28/28/28 29/29/29
f 53/53/53 54/54/54 29/29/29
f 53/53/53 29/29/29 5/5/5
f 1/1/1 53/53/53 5/5/5
f 5/5/5 29/29/29 7/7/7
f 29/29/29 27/27/27 7/7/7
f 7/7/7 27/27/27 9/9/9
f 27/27/27 25/25/25 9/9/9
f 9/9/9 25/25/25 11/11/11
f 51/51/51 53/53/53 1/1/1
f 2/2/2 51/51/51 1/1/1
f 49/49/49 51/51/51 2/2/2
f 3/3/3 49/49/49 2/2/2
f 47/47/47 49/49/49 3/3/3
f 4/4/4 47/47/47 3/3/3
f 45/45/45 47/47/47 4/4/4
f 6/6/6 45/45/45 4/4/4
f 43/43/43 45/45/45 6/6/6
f 8/8/8 43/43/43 6/6/6
f 41/41/41 43/43/43 8/8/8
f 10/10/10 41/41/41 8/8/8
f 39/39/39 41/41/41 10/10/10
f 12/12/12 39/39/39 10/10/10
f 37/37/37 39/39/39 12/12/12
f 14/14/14 37/37/37 12/12/12
f 35/35/35 37/37/37 14/14/14
f 16/16/16 35/35/35 14/14/14
f 33/33/33 35/35/35 16/16/16
f 18/18/18 33/33/33 16/16/16
f 75/75/75 74/74/74 73/73/73
f 76/76/76 75/75/75 73/73/73
f 73/73/73 74/74/74 77/77/77
f 74/74/74 78/78/78 77/77/77
f 77/77/77 78/78/78 79/79/79
f 78/78/78 80/80/80 79/79/79
f 79/79/79 80/80/80 81/81/81
f 80/80/80 82/82/82 81/81/81
f 81/81/81 82/82/82 83/83/83
f 82/82/82 84/84/84 83/83/83
f 83/83/83 84/84/84 85/85/85
f 84/84/84 86/86/86 85/85/85
f 85/85/85 86/86/86 87/87/87
f 86/86/86 88/88/88 87/87/87
f 87/87/87 88/88/88 89/89/89
f 88/88/88 90/90/90 89/89/89
f 91/91/91 85/85/85 87/87/87
f 92/92/92 91/91/91 87/87/87
f 92/92/92 87/87/87 89/89/89
f 93/93/93 91/91/91 92/92/92
f 93/93/93 94/94/94 91/91/91
f 94/94/94 95/95/95 91/91/91
f 95/95/95 83/83/83 85/85/85
f 91/91/91 95/95/95 85/85/85
f 94/94/94 96/96/96 95/95/95
f 96/96/96 97/97/97 95/95/95
f 95/95/95 97/97/97 83/83/83
f 96/96/96 98/98/98 97/97/97
f 98/98/98 99/99/99 97/97/97
f 98/98/98 100/100/100 99/99/99
f 100/100/100 101/101/101 99/99/99
f 102/102/102 93/93/93 92/92/92
f 102/102/102 92/92/92 103/103/103
f 103/103/103 92/92/92 89/89/89
f 103/103/103 89/89/89 90/90/90
f 104/104/104 102/102/102 103/103/103
f 104/104/104 103/103/103 105/105/105
f 105/105/105 103/103/103 90/90/90
f 106/106/106 104/104/104 105/105/105
f 106/106/106 105/105/105 107/107/107
f 108/108/108 106/106/106 107/107/107
f 108/108/108 107/107/107 109/109/109
f 110/110/110 108/108/108 109/109/109
f 110/110/110 109/109/109 111/111/111
f 112/112/112 110/110/110 111/111/111
f 112/112/112 111/111/111 113/113/113
f 114/114/114 112/112/112 113/113/113
f 114/114/114 113/113/113 115/115/115
f 116/116/116 114/114/114 115/115/115
f 116/116/116 115/115/115 117/117/117
f 118/118/118 116/116/116 117/117/117
f 118/118/118 117/117/117 119/119/119
f 120/120/120 118/118/118 119/119/119
f 120/120/120 119/119/119 121/121/121
f 122/122/122 120/120/120 121/121/121
f 122/122/122 121/121/121 123/123/123
f 124/124/124 122/122/122 123/123/123
f 124/124/124 123/123/123 125/125/125
f 126/126/126 124/124/124 125/125/125
f 118/118/118 120/120/120 127/127/127
f 120/120/120 128/128/128 127/127/127
f 120/120/120 122/122/122 128/128/128
f 122/122/122 124/124/124 129/129/129
f 122/122/122 129/129/129 128/128/128
f 124/124/124 130/130/130 129/129/129
f 124/124/124 126/126/126 130/130/130
f 118/118/118 127/127/127 131/131/131
f 116/116/116 118/118/118 131/131/131
f 116/116/116 131/131/131 132/132/132
f 114/114/114 116/116/116 132/132/132
f 114/114/114 132/132/132 133/133/133
f 112/112/112 114/114/114 133/133/133
f 112/112/112 133/133/133 134/134/134
f 110/110/110 112/112/112 134/134/134
f 110/110/110 134/134/134 135/135/135
f 108/108/108 110/110/110 135/135/135
f 108/108/108 135/135/135 136/136/136
f 106/106/106 108/108/108 136/136/136
f 106/106/106 136/136/136 137/137/137
f 104/104/104 106/106/106 137/137/137
f 104/104/104 137/137/137 138/138/138
f 102/102/102 104/104/104 138/138/138
f 102/102/102 138/138/138 139/139/139
f 93/93/93 102/102/102 139/139/139
f 93/93/93 139/139/139 140/140/140
f 94/94/94 93/93/93 140/140/140
f 94/94/94 140/140/140 141/141/141
f 96/96/96 94/94/94 141/141/141
f 96/96/96 141/141/141 142/142/142
f 98/98/98 96/96/96 142/142/142
f 98/98/98 142/142/142 143/143/143
f 100/100/100 98/98/98 143/143/143
f 100/100/100 143/143/143 144/144/144
f 126/126/126 100/100/100 144/144/144
f 126/126/126 144/144/144 130/130/130
f 100/100/100 126/126/126 101/101/101
f 126/126/126 125/125/125 101/101/101
f 101/101/101 125/125/125 77/77/77
f 125/125/125 73/73/73 77/77/77
f 101/101/101 77/77/77 79/79/79
f 99/99/99 101/101/101 79/79/79
f 99/99/99 79/79/79 81/81/81
f 97/97/97 99/99/99 81/81/81
f 97/97/97 81/81/81 83/83/83
f 125/125/125 123/123/123 73/73/73
f 123/123/123 76/76/76 73/73/73
f 123/123/123 121/121/121 76/76/76
f 121/121/121 75/75/75 76/76/76
f 121/121/121 119/119/119 75/75/75
f 119/119/119 74/74/74 75/75/75
f 119/119/119 117/117/117 74/74/74
f 117/117/117 78/78/78 74/74/74
f 117/117/117 115/115/115 78/78/78
f 115/115/115 80/80/80 78/78/78
f 115/115/115 113/113/113 80/80/80
f 113/113/113 82/82/82 80/80/80
f 113/113/113 111/111/111 82/82/82
f 111/111/111 84/84/84 82/82/82
f 111/111/111 109/109/109 84/84/84
f 109/109/109 86/86/86 84/84/84
f 109/109/109 107/107/107 86/86/86
f 107/107/107 88/88/88 86/86/86
f 107/107/107 105/105/105 88/88/88
f 105/105/105 90/90/90 88/88/88
