g ref_46
v 0.6428 0.679401 1.7636
v 0.6885 0.694401 1.7235
v 0.704 0.650501 1.8299
v 0.7893 0.7037009 1.6702
v 0.6179 0.601101 1.9212
v 0.6776 0.5708011 1.9536
v 0.6115 0.5453011 2.0055
v 0.6421 0.5181012 2.0191
v 0.7006 0.5149012 1.9927
v 0.7875 0.514001 1.9324
v 0.8628 0.564201 1.833
v 0.8966 0.508401 1.8371
v 0.9123 0.521201 1.813
v 0.9141 0.5613009 1.7722
v 0.8602 0.677201 1.691
v 0.8635 0.622301 1.7692
v 0.8707 0.6996009 1.627
v 0.9154 0.6095009 1.7153
v 0.919 0.6610009 1.6446
v 0.9089 0.6845009 1.6155
v -0.6428 0.679401 1.7636
v -0.704 0.650501 1.8299
v -0.6886 0.694401 1.7235
v -0.7893 0.7037009 1.6702
v -0.618 0.601101 1.9212
v -0.6776 0.5708011 1.9536
v -0.6115 0.5453011 2.0055
v -0.6421 0.5181012 2.0191
v -0.7006 0.5149012 1.9927
v -0.7875 0.514001 1.9324
v -0.8628 0.564201 1.833
v -0.8966 0.508401 1.8371
v -0.9123 0.521201 1.813
v -0.9141 0.5613009 1.7722
v -0.8602 0.677201 1.691
v -0.8635 0.622301 1.7692
v -0.8708 0.6996009 1.627
v -0.9154 0.6095009 1.7153
v -0.919 0.6610009 1.6446
v -0.9089 0.6845009 1.6155
vt 0 1
vt 0.0871 1
vt 0.0871 0.8185
vt 0.4899 1
vt 0 0.6344
vt 0.0871 0.3225
vt 0 0.1948
vt 0 0
vt 0.0871 0
vt 0.5436 0
vt 0.5436 0.3225
vt 1 0
vt 1 0.1948
vt 1 0.4502
vt 0.5615 0.7679
vt 0.5526 0.5466
vt 0.8338 1
vt 1 0.6159
vt 1 0.8185
vt 1 1
vt 0 1
vt 0.0871 0.8185
vt 0.0871 1
vt 0.4899 1
vt 0 0.6344
vt 0.0871 0.3225
vt 0 0.1948
vt 0 0
vt 0.0871 0
vt 0.5436 0
vt 0.5436 0.3225
vt 1 0
vt 1 0.1948
vt 1 0.4502
vt 0.5615 0.7679
vt 0.5526 0.5466
vt 0.8338 1
vt 1 0.6159
vt 1 0.8185
vt 1 1
vn 0.0009167895 0.9170052 0.3988741
vn 0.08147434 0.9254636 0.3699716
vn 0.1579626 0.8585862 0.487727
vn 0.197232 0.900882 0.3866667
vn 0.08690283 0.8399287 0.5356937
vn 0.2847757 0.7335652 0.6170777
vn 0.2262075 0.728863 0.6462111
vn 0.311568 0.6507374 0.6924349
vn 0.3996057 0.630112 0.6657884
vn 0.4718933 0.5927186 0.6526879
vn 0.5578721 0.5568372 0.6153952
vn 0.6230617 0.4256286 0.6562274
vn 0.6524466 0.4772755 0.5886608
vn 0.6557377 0.549811 0.5174127
vn 0.4008764 0.8029749 0.4410548
vn 0.5071241 0.6808734 0.5284284
vn 0.3671263 0.8575282 0.3603663
vn 0.6187542 0.6251799 0.4757031
vn 0.5492054 0.7040817 0.4501581
vn 0.4884224 0.7803546 0.3905002
vn -0.0008842684 0.9169948 0.3988981
vn -0.1579534 0.8585836 0.4877346
vn -0.08156737 0.9254351 0.3700225
vn -0.1972328 0.900839 0.3867664
vn -0.08703222 0.8398799 0.5357492
vn -0.2848261 0.7335327 0.6170931
vn -0.2262908 0.7287794 0.6462762
vn -0.311568 0.6507374 0.6924349
vn -0.3996057 0.630112 0.6657884
vn -0.4718933 0.5927185 0.6526878
vn -0.557872 0.5568372 0.6153952
vn -0.6230617 0.4256286 0.6562274
vn -0.6524466 0.4772755 0.5886608
vn -0.6557377 0.5498109 0.5174127
vn -0.4008802 0.8029124 0.4411651
vn -0.5071241 0.6808734 0.5284283
vn -0.3678474 0.8570049 0.360875
vn -0.6187543 0.6251798 0.4757031
vn -0.5492054 0.7040817 0.4501581
vn -0.4888585 0.77996 0.3907426
g ref_46_0
f 3/3/3 2/2/2 1/1/1
f 4/4/4 2/2/2 3/3/3
f 5/5/5 3/3/3 1/1/1
f 6/6/6 3/3/3 5/5/5
f 7/7/7 6/6/6 5/5/5
f 8/8/8 6/6/6 7/7/7
f 9/9/9 6/6/6 8/8/8
f 10/10/10 6/6/6 9/9/9
f 11/11/11 6/6/6 10/10/10
f 12/12/12 11/11/11 10/10/10
f 13/13/13 11/11/11 12/12/12
f 13/13/13 14/14/14 11/11/11
f 15/15/15 4/4/4 3/3/3
f 16/16/16 15/15/15 3/3/3
f 6/6/6 16/16/16 3/3/3
f 11/11/11 14/14/14 16/16/16
f 11/11/11 16/16/16 6/6/6
f 17/17/17 4/4/4 15/15/15
f 15/15/15 16/16/16 18/18/18
f 14/14/14 18/18/18 16/16/16
f 19/19/19 15/15/15 18/18/18
f 20/20/20 17/17/17 15/15/15
f 19/19/19 20/20/20 15/15/15
f 23/23/23 22/22/22 21/21/21
f 23/23/23 24/24/24 22/22/22
f 22/22/22 25/25/25 21/21/21
f 22/22/22 26/26/26 25/25/25
f 26/26/26 27/27/27 25/25/25
f 26/26/26 28/28/28 27/27/27
f 26/26/26 29/29/29 28/28/28
f 26/26/26 30/30/30 29/29/29
f 26/26/26 31/31/31 30/30/30
f 31/31/31 32/32/32 30/30/30
f 31/31/31 33/33/33 32/32/32
f 34/34/34 33/33/33 31/31/31
f 24/24/24 35/35/35 22/22/22
f 35/35/35 36/36/36 22/22/22
f 36/36/36 26/26/26 22/22/22
f 34/34/34 31/31/31 36/36/36
f 36/36/36 31/31/31 26/26/26
f 24/24/24 37/37/37 35/35/35
f 36/36/36 35/35/35 38/38/38
f 38/38/38 34/34/34 36/36/36
f 35/35/35 39/39/39 38/38/38
f 37/37/37 40/40/40 35/35/35
f 40/40/40 39/39/39 35/35/35
