g Glass_6
v 4E-06 1.044608 -1.950637
v 0.336816 1.041933 -1.9242
v 3E-06 1.170256 -1.621307
v 0.365253 1.161017 -1.597048
v 0.673407 1.027042 -1.833007
v 3E-06 1.270844 -1.322945
v 0.379902 1.253818 -1.308771
v 3E-06 1.336021 -1.015616
v 0.623186 1.142656 -1.562685
v 0.382433 1.329151 -0.9985317
v 0.60161 1.236789 -1.285801
v 0.558434 1.311288 -0.9863977
v -0.336809 1.041933 -1.924201
v -0.379896 1.253818 -1.308771
v -0.365246 1.161017 -1.597048
v -0.6733999 1.027042 -1.833008
v -0.623179 1.142656 -1.562685
v -0.382427 1.32915 -0.9985317
v -0.6016039 1.236789 -1.285801
v -0.5584279 1.311288 -0.9863987
v 0.628854 1.201083 0.06219019
v 0.601313 1.270311 -0.1011148
v 0.667898 1.148512 -0.08353081
v 0.650806 1.140384 0.1893032
v 0.58837 1.300472 -0.2197348
v 0.678264 1.154861 -0.4754698
v 0.5766519 1.324734 -0.5571848
v 0.716058 1.002137 -0.07401784
v 0.708138 0.9943849 0.1903092
v 0.5817819 1.314191 -0.7467648
v 0.6092659 1.266321 -0.7844437
v 0.6630009 1.176243 -0.7807398
v 0.735754 1.020478 -0.7443528
v 0.727563 1.013399 -0.4580488
v 0.500887 0.9738639 0.6738191
v 0.294025 0.9986308 0.699339
v 0.253759 1.158885 0.3438962
v 0.46126 1.153005 0.3077572
v 0.688675 0.9324449 0.6216021
v 0.213492 1.325635 -0.06840378
v 0.421633 1.318122 -0.09718378
v 0.630392 1.155669 0.2047732
v 0.5679979 1.298489 -0.1045428
v 3E-06 1.171203 0.3570572
v 2E-06 1.015405 0.7119971
v 3E-06 1.326685 -0.05937578
v -0.29402 0.9986308 0.6993381
v -0.253754 1.158885 0.3438962
v -0.500882 0.9738639 0.6738181
v -0.461255 1.153005 0.3077572
v -0.6886699 0.9324449 0.6216011
v -0.213487 1.325635 -0.06840479
v -0.421628 1.318122 -0.09718378
v -0.630387 1.155669 0.2047722
v -0.5679919 1.298489 -0.1045428
v -0.628849 1.201083 0.06219019
v -0.667892 1.148511 -0.0835318
v -0.6013069 1.27031 -0.1011148
v -0.650801 1.140384 0.1893022
v -0.5883639 1.300472 -0.2197358
v -0.678259 1.154861 -0.4754708
v -0.576647 1.324734 -0.5571848
v -0.716052 1.002137 -0.07401883
v -0.7081329 0.9943849 0.1903082
v -0.581777 1.314191 -0.7467657
v -0.6092609 1.26632 -0.7844447
v -0.6629949 1.176243 -0.7807407
v -0.7357479 1.020478 -0.7443538
v -0.7275569 1.013398 -0.4580498
vt 0.280436 0.516787
vt 0.150441 0.526113
vt 0.280436 0.652561
vt 0.139704 0.660331
vt 0.019484 0.557384
vt 0.280436 0.77356
vt 0.134134 0.776967
vt 0.280436 0.894471
vt 0.039675 0.670703
vt 0.132856 0.90002
vt 0.048216 0.783589
vt 0.06447 0.902727
vt 0.41043 0.526113
vt 0.426737 0.776967
vt 0.421167 0.660331
vt 0.541387 0.557384
vt 0.521196 0.670703
vt 0.428016 0.900019
vt 0.512655 0.783589
vt 0.496401 0.902726
vt 0.644696 0.648633
vt 0.707406 0.677925
vt 0.701257 0.624377
vt 0.595907 0.623328
vt 0.753044 0.690982
vt 0.852225 0.626108
vt 0.882969 0.702643
vt 0.697799 0.565003
vt 0.595849 0.562871
vt 0.956081 0.698763
vt 0.970798 0.677597
vt 0.969718 0.637147
vt 0.9563 0.570767
vt 0.845891 0.568365
vt 0.49155 0.176632
vt 0.410901 0.169542
vt 0.391874 0.319373
vt 0.471796 0.333147
vt 0.567192 0.190257
vt 0.3727 0.490351
vt 0.453043 0.501265
vt 0.537683 0.371615
vt 0.510063 0.50232
vt 0.294123 0.314352
vt 0.29733 0.165121
vt 0.290445 0.485473
vt 0.183673 0.164659
vt 0.196246 0.315169
vt 0.102793 0.168278
vt 0.115806 0.325496
vt 0.026636 0.178641
vt 0.208056 0.486812
vt 0.127319 0.494264
vt 0.048328 0.361098
vt 0.070307 0.492868
vt 0.896441 0.828812
vt 0.83988 0.804556
vt 0.833732 0.858104
vt 0.94523 0.803507
vt 0.788094 0.87116
vt 0.688913 0.806286
vt 0.658168 0.882822
vt 0.843338 0.745182
vt 0.945288 0.74305
vt 0.585057 0.878942
vt 0.57034 0.857776
vt 0.571419 0.817326
vt 0.584838 0.750946
vt 0.695246 0.748544
vn 0 0.9343091 -0.3564638
vn 0.08108615 0.9330648 -0.3504499
vn 0 0.941933 -0.3358008
vn 0.08381576 0.9391698 -0.3330691
vn 0.1270384 0.9246197 -0.3590816
vn 0 0.9649636 -0.2623837
vn 0.07480413 0.9597539 -0.270697
vn 0 0.9754494 -0.2202236
vn 0.1112229 0.9329868 -0.342294
vn 0.06917987 0.9701245 -0.2325351
vn 0.1043449 0.9562381 -0.2733513
vn 0.1137024 0.9678357 -0.2244234
vn -0.08108586 0.933065 -0.3504494
vn -0.07480459 0.9597542 -0.2706959
vn -0.0838157 0.9391699 -0.3330688
vn -0.1270382 0.9246202 -0.3590806
vn -0.1112228 0.932987 -0.3422934
vn -0.06917887 0.9701249 -0.2325337
vn -0.1043438 0.9562383 -0.2733507
vn -0.1136954 0.9678358 -0.2244266
vn 0.8801994 0.4699509 0.06629609
vn 0.8744975 0.4835452 0.03792217
vn 0.9137931 0.4039029 0.04294888
vn 0.9190277 0.388083 0.06913535
vn 0.8704566 0.4916195 0.02481038
vn 0.9040484 0.4270951 0.01692021
vn 0.8583133 0.5131256 -0.0005960457
vn 0.9479524 0.3164842 0.03498513
vn 0.9354048 0.348658 0.05878212
vn 0.8622193 0.5064516 -0.009199358
vn 0.861406 0.5078343 -0.009166593
vn 0.8809307 0.4731196 -0.01090672
vn 0.9183975 0.3956567 -0.001379589
vn 0.9422503 0.3328919 0.03670721
vn 0.2203135 0.8899371 0.3993417
vn 0.1142618 0.9107765 0.396775
vn 0.08116237 0.9184694 0.3870746
vn 0.1664988 0.9022034 0.3978783
vn 0.2868152 0.8691159 0.4029573
vn 0.05290655 0.9271645 0.3709001
vn 0.1216159 0.9192483 0.3744223
vn 0.2123811 0.8967887 0.3881551
vn 0.1416459 0.9093055 0.3912799
vn 0 0.9260573 0.3773828
vn 0 0.9156719 0.4019265
vn 0 0.9307813 0.3655764
vn -0.1142621 0.9107761 0.3967757
vn -0.08116242 0.9184693 0.3870748
vn -0.2203137 0.8899367 0.3993426
vn -0.1664996 0.9022033 0.3978784
vn -0.286816 0.8691154 0.4029577
vn -0.05290673 0.9271649 0.3708993
vn -0.1216156 0.919248 0.3744231
vn -0.212383 0.8967884 0.3881547
vn -0.1416468 0.9093049 0.3912809
vn -0.8802041 0.469943 0.0662898
vn -0.9137932 0.4039028 0.04294745
vn -0.8744979 0.4835446 0.03792198
vn -0.9190289 0.388081 0.06913039
vn -0.8704563 0.4916199 0.02481389
vn -0.9040498 0.4270921 0.01692079
vn -0.858313 0.513126 -0.0005949038
vn -0.9479523 0.3164845 0.03498459
vn -0.9354049 0.3486586 0.05877787
vn -0.8622215 0.5064479 -0.00920212
vn -0.8614087 0.5078297 -0.009170064
vn -0.8809319 0.4731173 -0.01090973
vn -0.9183986 0.3956539 -0.001381622
vn -0.9422533 0.3328834 0.036707
g Glass_6_0
f 3/3/3 2/2/2 1/1/1
f 4/4/4 2/2/2 3/3/3
f 2/2/2 4/4/4 5/5/5
f 3/3/3 6/6/6 4/4/4
f 6/6/6 7/7/7 4/4/4
f 7/7/7 6/6/6 8/8/8
f 9/9/9 4/4/4 7/7/7
f 9/9/9 5/5/5 4/4/4
f 10/10/10 7/7/7 8/8/8
f 11/11/11 9/9/9 7/7/7
f 7/7/7 10/10/10 11/11/11
f 11/11/11 10/10/10 12/12/12
f 13/13/13 3/3/3 1/1/1
f 6/6/6 14/14/14 8/8/8
f 14/14/14 6/6/6 15/15/15
f 6/6/6 3/3/3 15/15/15
f 13/13/13 15/15/15 3/3/3
f 15/15/15 13/13/13 16/16/16
f 15/15/15 17/17/17 14/14/14
f 16/16/16 17/17/17 15/15/15
f 14/14/14 18/18/18 8/8/8
f 17/17/17 19/19/19 14/14/14
f 18/18/18 14/14/14 19/19/19
f 18/18/18 19/19/19 20/20/20
f 23/23/23 22/22/22 21/21/21
f 24/24/24 23/23/23 21/21/21
f 22/22/22 23/23/23 25/25/25
f 23/23/23 26/26/26 25/25/25
f 25/25/25 26/26/26 27/27/27
f 28/28/28 26/26/26 23/23/23
f 29/29/29 28/28/28 23/23/23
f 24/24/24 29/29/29 23/23/23
f 27/27/27 26/26/26 30/30/30
f 30/30/30 26/26/26 31/31/31
f 31/31/31 26/26/26 32/32/32
f 33/33/33 32/32/32 26/26/26
f 34/34/34 26/26/26 28/28/28
f 33/33/33 26/26/26 34/34/34
f 37/37/37 36/36/36 35/35/35
f 38/38/38 37/37/37 35/35/35
f 38/38/38 35/35/35 39/39/39
f 40/40/40 37/37/37 38/38/38
f 41/41/41 40/40/40 38/38/38
f 38/38/38 42/42/42 41/41/41
f 42/42/42 38/38/38 39/39/39
f 41/41/41 42/42/42 43/43/43
f 37/37/37 44/44/44 36/36/36
f 44/44/44 45/45/45 36/36/36
f 46/46/46 44/44/44 37/37/37
f 40/40/40 46/46/46 37/37/37
f 45/45/45 44/44/44 47/47/47
f 44/44/44 46/46/46 48/48/48
f 44/44/44 48/48/48 47/47/47
f 47/47/47 48/48/48 49/49/49
f 48/48/48 50/50/50 49/49/49
f 49/49/49 50/50/50 51/51/51
f 48/48/48 52/52/52 50/50/50
f 46/46/46 52/52/52 48/48/48
f 52/52/52 53/53/53 50/50/50
f 54/54/54 50/50/50 53/53/53
f 50/50/50 54/54/54 51/51/51
f 54/54/54 53/53/53 55/55/55
f 58/58/58 57/57/57 56/56/56
f 57/57/57 59/59/59 56/56/56
f 57/57/57 58/58/58 60/60/60
f 61/61/61 57/57/57 60/60/60
f 61/61/61 60/60/60 62/62/62
f 61/61/61 63/63/63 57/57/57
f 63/63/63 64/64/64 57/57/57
f 64/64/64 59/59/59 57/57/57
f 61/61/61 62/62/62 65/65/65
f 61/61/61 65/65/65 66/66/66
f 61/61/61 66/66/66 67/67/67
f 67/67/67 68/68/68 61/61/61
f 61/61/61 69/69/69 63/63/63
f 61/61/61 68/68/68 69/69/69
