g Glass_11
v 0.1504271 1.01955 -0.4108427
v 0.1561514 1.062034 -0.1014359
v -0.1561525 1.062115 -0.1008466
v -0.1561524 1.077445 0.1136434
v 0.1561514 1.077363 0.113054
v -0.1504282 1.076556 0.2916446
v 0.1504274 1.076474 0.2910553
v -0.1504284 1.01955 -0.4108427
v 0.1468875 1.009154 0.618109
v 0.1565467 0.7092043 1.252014
v -3.075145E-07 1.011195 0.6325646
v 0.3460727 0.7129737 1.181469
v 0.4988566 0.7154344 1.078338
v -8.617367E-08 0.7083469 1.276834
v -0.1565469 0.7092043 1.252014
v -0.1468881 1.009154 0.618109
v -0.3460729 0.7129737 1.18147
v -0.28449 1.004999 0.5749379
v -0.4940418 0.7154344 1.070664
v -0.3836544 0.999612 0.5081659
v -0.627551 0.7318888 0.8780942
v -0.4439478 0.9957104 0.4348622
v -0.6891636 0.7413856 0.73378
v -0.4823748 0.9908416 0.3471382
v -0.7235139 0.7413856 0.5967346
v -0.5090103 0.9881169 0.2338293
v -0.7430985 0.7415946 0.4679172
v 0.2844893 1.004999 0.5749378
v 0.3836535 0.999612 0.5081657
v 0.6324086 0.7318888 0.8871738
v 0.6942905 0.7413856 0.73742
v 0.443947 0.9957104 0.4348619
v 0.482374 0.9908416 0.3471379
v 0.725986 0.7413856 0.5967342
v 0.7513881 0.7415946 0.4679168
v 0.5090095 0.9881169 0.233829
v 0.506941 0.9902859 0.2190122
v 0.522599 0.9790202 -0.08419007
v 0.7310847 0.778818 0.08136195
v 0.664652 0.8215414 -0.3156862
v 0.7558993 0.7415946 0.4530999
v 0.5323141 0.9550893 -0.4062757
v -0.5069414 0.9902859 0.2190125
v -0.7558997 0.7415946 0.4531004
v -0.7310854 0.778818 0.08136241
v -0.5225998 0.9790202 -0.08418977
v -0.6646528 0.8215414 -0.3156857
v -0.5323147 0.9550893 -0.4062753
vt 0.6547846 0.2972083
vt 0.6514282 0.4786327
vt 0.8345515 0.4789783
vt 0.8345516 0.6047471
vt 0.6514282 0.6044016
vt 0.8311949 0.7091205
vt 0.6547847 0.7087748
vt 0.8311948 0.2972082
vt 0.210434 0.5867094
vt 0.6216519 0.5927495
vt 0.2176778 0.5004626
vt 0.5832199 0.7045395
vt 0.527739 0.7972885
vt 0.6351076 0.5007907
vt 0.6218142 0.4094362
vt 0.2106 0.4147111
vt 0.5835696 0.2971715
vt 0.1888236 0.3329808
vt 0.5242618 0.2075195
vt 0.1548184 0.2726434
vt 0.4175954 0.120612
vt 0.1165341 0.2321828
vt 0.3377114 0.07504103
vt 0.06996115 0.2006815
vt 0.2625984 0.04049219
vt 0.008256972 0.1721186
vt 0.191438 0.01417446
vt 0.1886819 0.6680743
vt 0.1543118 0.7291314
vt 0.4215865 0.8826053
vt 0.3389824 0.9289445
vt 0.1159824 0.7695007
vt 0.06979822 0.8002416
vt 0.2615079 0.9625878
vt 0.190287 0.9916844
vt 0.007784203 0.8287567
vt 0.5916498 0.2266974
vt 0.7663448 0.1918446
vt 0.6475108 0.03684729
vt 0.8841097 0.05081362
vt 0.4280033 0.0406009
vt 0.9515193 0.1529298
vt 0.6035219 0.7763739
vt 0.4469415 0.9684538
vt 0.666436 0.9640048
vt 0.7793971 0.8046764
vt 0.9023482 0.9412094
vt 0.9658959 0.8366464
vn 0 0.9907044 -0.1360324
vn 6.464615E-05 0.9946228 -0.103564
vn 6.422843E-05 0.9946311 -0.1034849
vn 0.0001980672 0.9994379 -0.03352276
vn 0.0002012458 0.999435 -0.03361047
vn 0.0002742703 0.9999875 0.004991826
vn 0.000281217 0.9999874 0.005004341
vn 0 0.9907043 -0.136033
vn 0.119363 0.8960042 0.4277019
vn 0.09449538 0.9007881 0.4238532
vn 0 0.9043399 0.426813
vn 0.1871978 0.8951956 0.4044524
vn 0.2874669 0.8806987 0.3764738
vn 0 0.9050013 0.4254088
vn -0.09449498 0.9007881 0.4238532
vn -0.1093819 0.9002229 0.4214668
vn -0.1936427 0.8905371 0.4116385
vn -0.2422361 0.8850818 0.3974316
vn -0.3183678 0.8685072 0.3799172
vn -0.387491 0.854892 0.3449787
vn -0.4361284 0.8388629 0.3257315
vn -0.5232943 0.8143272 0.2510661
vn -0.5502371 0.8008694 0.2363202
vn -0.6201077 0.7684332 0.1580406
vn -0.6402438 0.7551662 0.1407548
vn -0.6486191 0.7504688 0.1268463
vn -0.6705474 0.7346623 0.103138
vn 0.2340978 0.8824893 0.4079349
vn 0.3952532 0.8527165 0.3415399
vn 0.4287827 0.846217 0.3163259
vn 0.5387799 0.8110042 0.2280097
vn 0.5184081 0.8156909 0.2567126
vn 0.6177288 0.7708914 0.1553629
vn 0.6363723 0.7590304 0.1374885
vn 0.642329 0.7555693 0.128563
vn 0.6409883 0.7560282 0.132497
vn 0.6915944 0.7220898 0.01683841
vn 0.7047833 0.7090863 -0.02184399
vn 0.69729 0.7167881 0.001216571
vn 0.7156515 0.6975608 -0.03538099
vn 0.6943094 0.7192187 0.02567089
vn 0.7200329 0.6933 -0.02979363
vn -0.6915944 0.7220899 0.01683914
vn -0.6943094 0.7192187 0.02567135
vn -0.6972899 0.7167882 0.001217074
vn -0.7047833 0.7090863 -0.02184378
vn -0.7156516 0.6975607 -0.03538134
vn -0.7200332 0.6932997 -0.02979424
g Glass_11_0
f 3/3/3 2/2/2 1/1/1
f 3/3/3 4/4/4 2/2/2
f 4/4/4 5/5/5 2/2/2
f 4/4/4 6/6/6 5/5/5
f 6/6/6 7/7/7 5/5/5
f 8/8/8 3/3/3 1/1/1
f 11/11/11 10/10/10 9/9/9
f 12/12/12 9/9/9 10/10/10
f 13/13/13 9/9/9 12/12/12
f 14/14/14 10/10/10 11/11/11
f 15/15/15 14/14/14 11/11/11
f 15/15/15 11/11/11 16/16/16
f 16/16/16 17/17/17 15/15/15
f 16/16/16 18/18/18 17/17/17
f 18/18/18 19/19/19 17/17/17
f 20/20/20 19/19/19 18/18/18
f 20/20/20 21/21/21 19/19/19
f 22/22/22 21/21/21 20/20/20
f 22/22/22 23/23/23 21/21/21
f 24/24/24 23/23/23 22/22/22
f 24/24/24 25/25/25 23/23/23
f 26/26/26 25/25/25 24/24/24
f 26/26/26 27/27/27 25/25/25
f 13/13/13 29/29/29 28/28/28
f 30/30/30 29/29/29 13/13/13
f 30/30/30 31/31/31 29/29/29
f 31/31/31 32/32/32 29/29/29
f 31/31/31 33/33/33 32/32/32
f 34/34/34 33/33/33 31/31/31
f 34/34/34 35/35/35 33/33/33
f 35/35/35 36/36/36 33/33/33
f 28/28/28 9/9/9 13/13/13
f 39/39/39 38/38/38 37/37/37
f 40/40/40 38/38/38 39/39/39
f 41/41/41 39/39/39 37/37/37
f 42/42/42 38/38/38 40/40/40
f 45/45/45 44/44/44 43/43/43
f 46/46/46 45/45/45 43/43/43
f 45/45/45 46/46/46 47/47/47
f 48/48/48 47/47/47 46/46/46
