g ref_11
v 0.5427904 0.5410427 1.85194
v 0.6277844 0.6222108 1.686006
v 0.7624854 0.6377423 1.638999
v 0.6666111 0.4772887 1.924222
v 0.856819 0.6162657 1.650332
v 0.7900247 0.5159469 1.841217
v -0.5427901 0.5410428 1.85194
v -0.6666105 0.4772887 1.924222
v -0.7624852 0.6377423 1.639
v -0.856819 0.6162657 1.650333
v -0.6277846 0.6222108 1.686006
v -0.7900244 0.5159468 1.841217
vt 0.961386 0.7977377
vt 0.992752 0.6827388
vt 0.950713 0.6098922
vt 0.8695611 0.7926213
vt 0.9003188 0.5830407
vt 0.8488352 0.7049785
vt 0.9528598 0.1862015
vt 0.8612899 0.1947445
vt 0.9492111 0.3743147
vt 0.8998548 0.4030299
vt 0.9884996 0.2999486
vt 0.8438526 0.2831002
vn 0.1186498 0.8522821 0.5094481
vn 0.05965009 0.8842908 0.4631108
vn 0.117655 0.8525172 0.5092855
vn 0.1140824 0.8519136 0.5111051
vn 0.1156812 0.8510536 0.5121773
vn 0.04616708 0.8775112 0.4773287
vn -0.1186507 0.8522821 0.5094479
vn -0.1140836 0.8519134 0.5111052
vn -0.1176543 0.8525171 0.5092857
vn -0.1156808 0.8510533 0.5121779
vn -0.0596487 0.8842911 0.4631104
vn -0.04616986 0.8775108 0.477329
g ref_11_0
f 3/3/3 2/2/2 1/1/1
f 4/4/4 3/3/3 1/1/1
f 4/4/4 5/5/5 3/3/3
f 6/6/6 5/5/5 4/4/4
f 9/9/9 8/8/8 7/7/7
f 10/10/10 8/8/8 9/9/9
f 11/11/11 9/9/9 7/7/7
f 12/12/12 8/8/8 10/10/10
