g Taillights_11
v 0.7980798 0.7420516 -1.870301
v 0.806717 0.6765208 -1.912155
v 0.8264687 0.69915 -1.888692
v 0.7448144 0.7456543 -1.887705
v 0.7747974 0.6399508 -1.94439
v 0.6444566 0.7484098 -1.914346
v 0.6292446 0.639609 -1.986163
v 0.5808141 0.7491562 -1.928885
v 0.574112 0.6390489 -1.996907
v 0.5183531 0.7057492 -1.971615
v -0.7980803 0.7420516 -1.8703
v -0.8264693 0.69915 -1.888692
v -0.8067176 0.6765208 -1.912154
v -0.7448149 0.7456543 -1.887704
v -0.774798 0.6399508 -1.944389
v -0.6444573 0.7484098 -1.914346
v -0.629245 0.639609 -1.986163
v -0.5808148 0.7491562 -1.928885
v -0.5741125 0.6390489 -1.996907
v -0.5183538 0.7057492 -1.971615
vt 0.04780697 0.4677916
vt 0.04861234 0.3500881
vt 0.01170481 0.3939309
vt 0.1321734 0.4678389
vt 0.1052375 0.2839155
vt 0.2872672 0.4680526
vt 0.3312695 0.2760386
vt 0.3853073 0.4679469
vt 0.4156535 0.2756491
vt 0.490133 0.3893487
vt 0.04780697 0.4677916
vt 0.01170481 0.3939309
vt 0.04861234 0.3500881
vt 0.1321734 0.4678389
vt 0.1052375 0.2839155
vt 0.2872672 0.4680526
vt 0.3312695 0.2760386
vt 0.3853073 0.4679469
vt 0.4156535 0.2756491
vt 0.490133 0.3893487
vn 0.2976093 0.5414353 -0.7863055
vn 0.2697992 0.5242011 -0.8077261
vn 0.3099668 0.5404449 -0.7822019
vn 0.2540042 0.520247 -0.815368
vn 0.2389209 0.511315 -0.8255143
vn 0.2182964 0.5155355 -0.8285951
vn 0.1974653 0.5137833 -0.8348857
vn 0.1977819 0.5138736 -0.8347552
vn 0.1809934 0.5088974 -0.8415847
vn 0.2222671 0.5025992 -0.8354588
vn -0.2976098 0.541436 -0.786305
vn -0.3099699 0.5404435 -0.7822017
vn -0.2698013 0.524202 -0.8077248
vn -0.254006 0.5202484 -0.8153666
vn -0.238922 0.5113156 -0.8255135
vn -0.2182945 0.5155353 -0.8285957
vn -0.1974659 0.5137823 -0.8348863
vn -0.1977804 0.5138737 -0.8347555
vn -0.1809967 0.5088973 -0.841584
vn -0.2222673 0.5026007 -0.8354578
g Taillights_11_0
f 3/3/3 2/2/2 1/1/1
f 1/1/1 2/2/2 4/4/4
f 2/2/2 5/5/5 4/4/4
f 6/6/6 4/4/4 5/5/5
f 7/7/7 6/6/6 5/5/5
f 8/8/8 6/6/6 7/7/7
f 9/9/9 8/8/8 7/7/7
f 10/10/10 8/8/8 9/9/9
f 13/13/13 12/12/12 11/11/11
f 13/13/13 11/11/11 14/14/14
f 15/15/15 13/13/13 14/14/14
f 14/14/14 16/16/16 15/15/15
f 16/16/16 17/17/17 15/15/15
f 18/18/18 17/17/17 16/16/16
f 19/19/19 17/17/17 18/18/18
f 18/18/18 20/20/20 19/19/19
