g model_car_72_glass_LOD1
v 5.960464E-08 1.157937 -0.07874912
v -0.2285639 1.157937 -0.07874912
v -0.167098 1.153418 -0.4003471
v 5.960464E-08 1.153552 -0.3910603
v -0.1141909 1.146597 -0.6996021
v 5.960464E-08 1.146731 -0.6989436
v 5.960464E-08 1.141968 0.08944392
v -0.1401907 1.137664 0.09048533
v 5.960464E-08 1.120418 0.2316024
v -0.0719465 1.116116 0.2326438
v 0.1670955 1.153418 -0.4003498
v 0.228564 1.157937 -0.07874912
v 0.1141911 1.146595 -0.6996021
v 0.1401908 1.137664 0.09048533
v 0.07194668 1.116116 0.2326438
v -0.1100467 1.058998 0.4225051
v -0.23784 1.05193 0.4143293
v -0.2229902 1.105375 0.2796025
v -0.06256604 1.110847 0.2877007
v 5.960464E-08 1.063889 0.4271204
v 5.960464E-08 1.111744 0.2889991
v -0.3438203 1.092922 0.2736808
v -0.3615131 1.044472 0.396583
v -0.1182413 1.006331 0.5612718
v 5.960464E-08 1.007766 0.5769166
v 5.960464E-08 0.9506775 0.7238322
v -0.1260557 0.9490659 0.7050338
v -0.2483904 1.001023 0.5439992
v -0.2603275 0.946105 0.6776686
v -0.3644954 0.9942604 0.5147548
v -0.3738384 0.9412515 0.640856
v -0.4796635 0.9864995 0.4734473
v -0.4872638 0.9359242 0.5845034
v -0.5740896 0.9796168 0.4158044
v -0.5856118 0.934441 0.5139596
v -0.6562439 0.9370297 0.4544107
v -0.6386876 0.9817933 0.3665649
v -0.5628593 1.022822 0.3163321
v -0.6174504 1.020758 0.2762722
v -0.5917262 1.04958 0.1849194
v -0.5564369 1.052974 0.2239192
v -0.4739801 1.031282 0.3647122
v -0.4725318 1.060957 0.2903188
v -0.397544 1.080396 0.2744571
v -0.6694393 0.8920226 0.533671
v -0.5966494 0.8877767 0.6078877
v -0.6067179 0.8362268 0.7145776
v -0.6715622 0.8620955 0.6068223
v -0.4996239 0.8292183 0.8196317
v -0.494607 0.8855414 0.6954659
v -0.3833716 0.8877473 0.7621279
v -0.272112 0.8898757 0.8059115
v -0.2856232 0.8335203 0.9253122
v -0.1526097 0.8306665 0.9635811
v -0.1335194 0.8901138 0.8411099
v 5.960464E-08 0.8318954 0.9810035
v 5.960464E-08 0.8919932 0.8611585
v -0.3947251 0.8345724 0.8774513
v -0.4085763 0.7867866 0.9888018
v -0.4842145 0.7900418 0.9247366
v -0.3088442 0.7830279 1.031723
v 5.960464E-08 0.7789186 1.08447
v -0.1654999 0.7799278 1.065147
v 0.1335169 0.8901138 0.8411099
v 0.1526072 0.8306665 0.9635811
v 0.2721122 0.8898757 0.8059115
v 0.2856234 0.833523 0.9253122
v 0.3833717 0.8877473 0.7621279
v 0.3947252 0.8345724 0.8774513
v 0.1260559 0.9490659 0.7050338
v 0.1182415 1.006331 0.5612718
v 0.2483905 1.001023 0.5439992
v 0.2603276 0.946105 0.6776659
v 0.3644956 0.9942604 0.5147548
v 0.3738386 0.9412515 0.640856
v 0.4796637 0.9864995 0.4734473
v 0.4872639 0.9359242 0.5845034
v 0.5740898 0.9796168 0.4158044
v 0.5856119 0.934441 0.5139596
v 0.6562441 0.9370297 0.4544107
v 0.6386878 0.9817933 0.3665649
v 0.1100469 1.058998 0.4225051
v 0.06256616 1.110847 0.2877007
v 0.2229903 1.105375 0.2796025
v 0.2378401 1.05193 0.4143293
v 0.3438205 1.092922 0.2736808
v 0.3615133 1.044472 0.396583
v 0.5628594 1.022822 0.3163321
v 0.6174505 1.020758 0.2762722
v 0.5917264 1.04958 0.1849194
v 0.5564371 1.052974 0.2239192
v 0.4739802 1.031282 0.3647122
v 0.4725319 1.060957 0.2903188
v 0.3975442 1.080396 0.2744545
v -0.7279763 0.829834 0.4745904
v -0.7259899 0.8440814 0.4383723
v -0.7139002 0.8753257 0.4187572
v -0.7006085 0.9136722 0.3636067
v -0.7192196 0.8685446 0.3471507
v -0.6990291 0.9066583 0.1962274
v -0.6789402 0.9590461 0.285128
v -0.6555532 0.997754 0.2069545
v -0.6743009 0.9376562 0.01760709
v -0.6315639 1.023556 0.1157838
v -0.6207137 1.039824 0.03108084
v -0.6105756 1.049467 -0.05998814
v -0.7198836 0.8362938 0.01504779
v -0.7095928 0.8495079 -0.298021
v -0.6546564 0.9503402 -0.2933655
v -0.7252885 0.8293494 0.1795545
v -0.7316359 0.822373 0.3347771
v -0.7340186 0.8148236 0.4578079
v -0.7350787 0.8124651 0.499059
v -0.5993291 1.056382 -0.1674891
v -0.5918708 1.051807 -0.2695555
v -0.5938599 1.038933 -0.3899787
v -0.5998057 1.024241 -0.4907602
v -0.659186 0.9323609 -0.5737417
v -0.606833 1.007614 -0.573458
v -0.6074487 1.006181 -0.5796983
v -0.6592878 0.9317452 -0.579982
v -0.7015991 0.8571109 -0.5740255
v -0.7011842 0.8573116 -0.5803568
v -0.6555345 0.8111399 0.7162588
v -0.6709411 0.8278369 0.6832985
v -0.6362435 0.8049746 0.7479875
v -0.5912443 0.7990984 0.8073144
v -0.6712998 0.8374316 0.6615499
v -0.5792029 0.614899 1.768363
v -0.6778854 0.6389098 1.660733
v -0.6486704 0.6641707 1.660648
v -0.5354406 0.6324152 1.78416
v -0.4738756 0.5834059 1.879109
v -0.4402757 0.5942855 1.895632
v -0.4229629 0.5942855 1.882442
v -0.5181305 0.6324152 1.768494
v -0.3513296 0.5607363 1.970443
v -0.3686396 0.5607363 1.98363
v -0.2729098 0.5207541 2.058853
v -0.2902198 0.5207541 2.072043
v -0.413288 0.5459749 1.924011
v -0.4306006 0.5459749 1.937201
v -0.5195547 0.5664893 1.820456
v -0.5324368 0.5637774 1.833202
v -0.6156085 0.5839601 1.718288
v -0.6329185 0.5839601 1.731476
v -0.6963814 0.5976266 1.637373
v -0.7136915 0.5976266 1.650563
v -0.7103611 0.6795292 1.564104
v -0.7276711 0.6795292 1.577294
v -0.6190138 0.6642189 1.655454
v 0.7279765 0.829834 0.4745904
v 0.7139004 0.8753257 0.4187572
v 0.7259901 0.8440814 0.4383723
v 0.7006087 0.9136722 0.3636067
v 0.7192198 0.8685446 0.3471507
v 0.6990292 0.9066583 0.1962274
v 0.6789404 0.9590461 0.285128
v 0.6555534 0.997754 0.2069545
v 0.674301 0.9376562 0.01760709
v 0.631564 1.023556 0.1157838
v 0.6207138 1.039824 0.03108084
v 0.6105731 1.049467 -0.05998814
v 0.7198837 0.8362938 0.01504779
v 0.709593 0.8495079 -0.298021
v 0.6546566 0.9503402 -0.2933655
v 0.7252887 0.8293494 0.1795545
v 0.7316361 0.822373 0.3347771
v 0.7340187 0.8148236 0.4578079
v 0.7350788 0.8124651 0.499059
v 0.5993293 1.056382 -0.1674891
v 0.591871 1.051807 -0.2695555
v 0.59386 1.038933 -0.3899787
v 0.5998058 1.024241 -0.4907602
v 0.6591862 0.9323609 -0.5737417
v 0.6068332 1.007614 -0.573458
v 0.6074489 1.006181 -0.5796983
v 0.6592879 0.9317452 -0.579982
v 0.7015992 0.8571109 -0.5740255
v 0.7011843 0.8573116 -0.5803568
v 0.4085765 0.7867866 0.9888018
v 0.499624 0.8292183 0.8196317
v 0.4842148 0.7900418 0.9247366
v 0.4946072 0.8855414 0.6954659
v 0.5966495 0.8877767 0.6078877
v 0.6694394 0.8920226 0.533671
v 0.6067181 0.8362268 0.7145776
v 0.6715623 0.8620955 0.6068223
v 0.3088444 0.7830279 1.031723
v 0.6713 0.8374316 0.6615499
v 0.6709412 0.8278369 0.6832985
v 0.6555346 0.8111399 0.7162588
v 0.6362436 0.8049746 0.7479875
v 0.5912418 0.7990984 0.8073144
v 0.1654973 0.7799278 1.065144
v 0.579203 0.614899 1.768363
v 0.5354407 0.6324152 1.78416
v 0.6486706 0.6641707 1.660648
v 0.6778856 0.6389098 1.660733
v 0.4738759 0.5834059 1.879109
v 0.4402758 0.5942855 1.895632
v 0.4229631 0.5942855 1.882442
v 0.5181307 0.6324152 1.768494
v 0.3513297 0.5607363 1.970443
v 0.3686397 0.5607363 1.98363
v 0.2729099 0.5207541 2.058853
v 0.2902199 0.5207541 2.072043
v 0.4132881 0.5459749 1.924011
v 0.4305981 0.5459749 1.937201
v 0.5195549 0.5664893 1.820456
v 0.532437 0.5637774 1.833202
v 0.6156086 0.5839601 1.718288
v 0.6329187 0.5839601 1.731476
v 0.6963789 0.5976266 1.637373
v 0.7136916 0.5976266 1.650563
v 0.7103586 0.6795292 1.564104
v 0.7276713 0.6795292 1.577294
v 0.6190139 0.6642189 1.655454
vn 0.0005107522 0.9978931 0.06487805
vn -0.00532788 0.9978931 0.06466086
vn 0.0005107522 0.9998393 -0.01792065
vn 0.0005107522 0.9998393 -0.01792065
vn 0.0005107522 0.9998393 -0.01792065
vn 0.0005107522 0.9998393 -0.01792065
vn 0.0005107522 0.9901083 0.1403046
vn -0.02478993 0.9901083 0.1380982
vn 0.0005107522 0.9881622 0.1534122
vn -0.03841341 0.9862159 0.1609426
vn 0.0005107522 0.9998393 -0.01792065
vn 0.006349325 0.9978931 0.06456862
vn 0.0005107522 0.9998393 -0.01792065
vn 0.02581143 0.9901083 0.1379109
vn 0.03943485 0.9862159 0.1606954
vn -0.05982172 0.9356146 0.3479176
vn -0.0948534 0.929776 0.3556959
vn -0.08512235 0.9317222 0.3530552
vn -0.05203688 0.9375608 0.3439068
vn 0.0005107522 0.9395069 0.3425297
vn 0.0005107522 0.9414531 0.3371436
vn -0.1590782 0.9258835 0.3426862
vn -0.1688092 0.9200449 0.3535828
vn -0.07344508 0.929776 0.360725
vn 0.0005107522 0.9336684 0.3581384
vn 0.0005107522 0.9258835 0.3778088
vn -0.08122993 0.9219911 0.3785949
vn -0.1123693 0.9239373 0.3656678
vn -0.1279389 0.9161525 0.3798635
vn -0.1746478 0.9122601 0.3705128
vn -0.1921637 0.9044752 0.3807856
vn -0.2466575 0.8947442 0.3722808
vn -0.260281 0.8869594 0.3815191
vn -0.2758505 0.8889055 0.3657232
vn -0.3011513 0.8713897 0.3872826
vn -0.3069899 0.8674973 0.3914148
vn -0.2680658 0.8908517 0.3667749
vn -0.2777967 0.9083676 0.3125655
vn -0.2680658 0.9161525 0.2980022
vn -0.2758505 0.9278297 0.2510746
vn -0.2836354 0.9161525 0.2832235
vn -0.2408189 0.9064214 0.3469964
vn -0.2408189 0.9142063 0.3259343
vn -0.1999485 0.9200449 0.336954
vn -0.3206134 0.8636049 0.3890934
vn -0.3147748 0.8655511 0.3895358
vn -0.3439678 0.8480352 0.4031407
vn -0.3050437 0.8713897 0.3842242
vn -0.289474 0.8791746 0.3784929
vn -0.2777967 0.8791746 0.3871447
vn -0.2077334 0.8966904 0.3908877
vn -0.1357237 0.9064214 0.3999741
vn -0.1279389 0.9044752 0.406886
vn -0.07928371 0.8986366 0.4314701
vn -0.08512235 0.9083676 0.4094171
vn 0.0005107522 0.8966904 0.4426581
vn 0.0005107522 0.9103138 0.4139185
vn -0.2077334 0.8986366 0.3863925
vn -0.2018948 0.9044752 0.3757168
vn -0.2953126 0.8791746 0.3739551
vn -0.1182078 0.9064214 0.4054961
vn 0.0005107522 0.8927979 0.4504571
vn -0.07149887 0.8966904 0.4368458
vn 0.08614379 0.9083676 0.4092034
vn 0.07835895 0.8986366 0.431639
vn 0.1347989 0.9064214 0.4002867
vn 0.1289604 0.9044752 0.4065634
vn 0.2087548 0.8966904 0.3903432
vn 0.2068086 0.8986366 0.3868883
vn 0.08225137 0.9219911 0.3783742
vn 0.07252038 0.929776 0.360912
vn 0.1133907 0.9239373 0.3653524
vn 0.1270142 0.9161525 0.3801737
vn 0.1737231 0.9122601 0.3709472
vn 0.1931852 0.9044752 0.3802685
vn 0.2457327 0.8947442 0.3728919
vn 0.2613024 0.8869594 0.3808202
vn 0.276872 0.8889055 0.3649505
vn 0.3002265 0.8713897 0.388
vn 0.3060651 0.8674973 0.3921384
vn 0.267141 0.8908517 0.3674492
vn 0.06084311 0.9356146 0.3477405
vn 0.05111212 0.9375608 0.3440454
vn 0.08614379 0.9317222 0.3528074
vn 0.09392864 0.929776 0.3559412
vn 0.1600996 0.9258835 0.3422102
vn 0.1678845 0.9200449 0.3540229
vn 0.276872 0.9083676 0.3133849
vn 0.267141 0.9161525 0.2988316
vn 0.276872 0.9278297 0.2499477
vn 0.2846568 0.9161525 0.2821969
vn 0.2418403 0.9064214 0.3462852
vn 0.2418403 0.9142063 0.3251771
vn 0.1990238 0.9200449 0.337501
vn -0.9219911 0.3809457 0.06937418
vn -0.9356146 0.3498064 0.04754776
vn -0.9142063 0.3984616 0.0738597
vn -0.9238143 0.3828409 0
vn -0.9425907 0.3339503 0
vn -0.9161525 0.3965154 -0.0586531
vn -0.9102714 0.414012 0
vn -0.8908517 0.4510092 -0.0545336
vn -0.8908517 0.4529554 -0.03485123
vn -0.883067 0.4665788 -0.04996853
vn -0.883067 0.4685251 -0.02601816
vn -0.8772284 0.478256 -0.04173216
vn -0.9103138 0.4101388 -0.05581084
vn -0.8850132 0.4646326 -0.02946348
vn -0.8616587 0.5074492 -0.006295799
vn -0.9395069 0.3420216 -0.0186556
vn -0.9589351 0.2836254 0
vn -0.9531304 0.3011513 0.02916152
vn -0.9395069 0.3381292 0.05473087
vn -0.8558201 0.5132878 -0.06409121
vn -0.8421966 0.5366422 -0.05215418
vn -0.8383042 0.5424808 -0.05441242
vn -0.826627 0.5619429 -0.03013135
vn -0.8441428 0.534696 -0.03902777
vn -0.8205813 0.5715297 0
vn -0.8188422 0.571674 -0.05183003
vn -0.846089 0.5308036 -0.04879516
vn -0.8729663 0.4877805 0
vn -0.8713897 0.4899333 -0.02540324
vn -0.3867843 0.7838105 0.4858384
vn -0.345914 0.8285732 0.4402385
vn -0.402354 0.8013263 0.4427047
vn -0.375107 0.8402504 0.3915022
vn -0.3050437 0.8674973 0.3929335
vn -0.5775126 0.4763098 0.6630296
vn -0.5872436 0.5074492 0.6305873
vn -0.2427651 0.8752822 0.4182658
vn -0.203841 0.873336 0.4424174
vn -0.5872436 0.4432243 0.6772719
vn -0.1824327 0.8655511 0.4664114
vn 0.1659383 0.9628614 0.2129845
vn 0.1211755 0.9745387 0.1886555
vn 0.1834541 0.9531304 0.2405973
vn -0.3147748 0.7487787 0.5833073
vn 0.5902113 -0.2262707 0.7748885
vn -0.478256 0.2992051 0.8256801
vn -0.05787551 -0.9911298 -0.1196336
vn -0.6942849 -0.323581 0.6428559
vn -0.03646719 -0.9891835 -0.1420777
vn -0.6164367 -0.6116195 0.4959106
vn -0.05398309 -0.9911298 -0.1214398
vn -0.6242216 -0.5941037 0.5073345
vn -0.2933664 -0.8763036 -0.3821364
vn -0.8752822 -0.399483 0.27257
vn -0.5697278 0.4860408 -0.6627025
vn -0.7156932 0.6203291 0.3208971
vn 0.06473553 0.9862159 0.1522741
vn 0.9210663 0.3809457 0.080729
vn 0.9152277 0.3984616 0.05988815
vn 0.936636 0.3498064 0.01866798
vn 0.9230126 0.3828919 0.03796838
vn 0.9424746 0.3342367 -0.00523481
vn 0.9171739 0.3965154 -0.03959277
vn 0.9093891 0.4140313 -0.03986974
vn 0.889927 0.4510092 -0.06797508
vn 0.891603 0.4528181 0
vn 0.8840884 0.4665788 -0.0263041
vn 0.8821422 0.4685251 -0.0480568
vn 0.8782272 0.4782437 0
vn 0.9113353 0.4101388 -0.03541344
vn 0.8856182 0.4644142 0
vn 0.8607339 0.5074492 -0.04040362
vn 0.9385822 0.3420216 -0.04565887
vn 0.9580442 0.2836354 -0.04125778
vn 0.9536285 0.3009861 0
vn 0.9405284 0.3381292 0.0327873
vn 0.8568415 0.5132878 -0.0485622
vn 0.8412719 0.5366422 -0.06539688
vn 0.8393257 0.5424808 -0.03531231
vn 0.8257022 0.5619429 -0.04935627
vn 0.8450788 0.5346419 0
vn 0.8198636 0.571674 -0.0318194
vn 0.8198636 0.571674 -0.0318194
vn 0.8471105 0.5308036 -0.02552175
vn 0.8724112 0.487987 -0.02770082
vn 0.870465 0.4899333 -0.04749884
vn 0.20097 0.9044752 0.3762122
vn 0.2904955 0.8791746 0.3777094
vn 0.2943879 0.8791746 0.3746836
vn 0.2788182 0.8791746 0.3864097
vn 0.3138499 0.8655511 0.3902813
vn 0.3196886 0.8636049 0.3898536
vn 0.3449892 0.8480352 0.4022669
vn 0.3060651 0.8713897 0.3834111
vn 0.1192293 0.9064214 0.405197
vn 0.3060651 0.8674973 0.3921384
vn 0.3469355 0.8285732 0.439434
vn 0.3858596 0.7838105 0.4865732
vn 0.4014292 0.8013263 0.4435434
vn 0.3761286 0.8402504 0.3905209
vn 0.07057416 0.8966904 0.4369963
vn 0.5765878 0.4763098 0.6638339
vn 0.2029162 0.873336 0.4428423
vn 0.2418403 0.8752822 0.4188011
vn 0.5863189 0.5074492 0.6314472
vn 0.5863189 0.4432243 0.6780726
vn 0.1815079 0.8655511 0.4667721
vn -0.166863 0.9628614 0.2122609
vn -0.1221002 0.9745387 0.1880582
vn -0.1843789 0.9531304 0.2398894
vn 0.3157961 0.7487787 0.5827549
vn -0.591136 -0.2262707 0.7741833
vn 0.4792775 0.2992051 0.8250875
vn 0.05695069 -0.9911298 -0.1200767
vn 0.6933602 -0.323581 0.6438532
vn 0.03748864 -0.9891835 -0.1418114
vn 0.6174581 -0.6116195 0.4946383
vn 0.05500448 -0.9911298 -0.1209807
vn 0.6232967 -0.5941037 0.5084703
vn 0.2924417 -0.8763036 -0.3828446
vn 0.8763036 -0.399483 0.2692683
vn 0.5707492 0.4860408 -0.661823
vn 0.7167146 0.6203291 0.3186093
vn -0.06566024 0.9862159 0.1518776
g model_car_72_glass_LOD1_0
f 3/3/3 2/2/2 1/1/1
f 4/4/4 3/3/3 1/1/1
f 3/3/3 4/4/4 5/5/5
f 4/4/4 6/6/6 5/5/5
f 1/1/1 2/2/2 7/7/7
f 2/2/2 8/8/8 7/7/7
f 7/7/7 8/8/8 9/9/9
f 8/8/8 10/10/10 9/9/9
f 11/11/11 4/4/4 1/1/1
f 12/12/12 11/11/11 1/1/1
f 12/12/12 1/1/1 7/7/7
f 4/4/4 11/11/11 13/13/13
f 6/6/6 4/4/4 13/13/13
f 14/14/14 7/7/7 9/9/9
f 14/14/14 12/12/12 7/7/7
f 15/15/15 14/14/14 9/9/9
f 18/18/18 17/17/17 16/16/16
f 19/19/19 18/18/18 16/16/16
f 19/19/19 16/16/16 20/20/20
f 21/21/21 19/19/19 20/20/20
f 18/18/18 22/22/22 17/17/17
f 22/22/22 23/23/23 17/17/17
f 20/20/20 16/16/16 24/24/24
f 25/25/25 20/20/20 24/24/24
f 25/25/25 24/24/24 26/26/26
f 24/24/24 27/27/27 26/26/26
f 24/24/24 28/28/28 27/27/27
f 16/16/16 17/17/17 28/28/28
f 24/24/24 16/16/16 28/28/28
f 28/28/28 29/29/29 27/27/27
f 28/28/28 30/30/30 29/29/29
f 17/17/17 23/23/23 30/30/30
f 28/28/28 17/17/17 30/30/30
f 30/30/30 31/31/31 29/29/29
f 30/30/30 32/32/32 31/31/31
f 30/30/30 23/23/23 32/32/32
f 32/32/32 33/33/33 31/31/31
f 33/33/33 32/32/32 34/34/34
f 35/35/35 33/33/33 34/34/34
f 36/36/36 35/35/35 34/34/34
f 37/37/37 36/36/36 34/34/34
f 37/37/37 34/34/34 38/38/38
f 39/39/39 37/37/37 38/38/38
f 39/39/39 38/38/38 40/40/40
f 38/38/38 41/41/41 40/40/40
f 38/38/38 42/42/42 41/41/41
f 34/34/34 32/32/32 42/42/42
f 38/38/38 34/34/34 42/42/42
f 42/42/42 43/43/43 41/41/41
f 43/43/43 42/42/42 44/44/44
f 42/42/42 23/23/23 44/44/44
f 23/23/23 42/42/42 32/32/32
f 44/44/44 23/23/23 22/22/22
f 36/36/36 45/45/45 35/35/35
f 45/45/45 46/46/46 35/35/35
f 35/35/35 46/46/46 33/33/33
f 46/46/46 45/45/45 47/47/47
f 45/45/45 48/48/48 47/47/47
f 47/47/47 49/49/49 46/46/46
f 49/49/49 50/50/50 46/46/46
f 46/46/46 50/50/50 33/33/33
f 31/31/31 33/33/33 50/50/50
f 51/51/51 31/31/31 50/50/50
f 29/29/29 31/31/31 51/51/51
f 52/52/52 29/29/29 51/51/51
f 52/52/52 51/51/51 53/53/53
f 52/52/52 53/53/53 54/54/54
f 55/55/55 52/52/52 54/54/54
f 55/55/55 54/54/54 56/56/56
f 57/57/57 55/55/55 56/56/56
f 51/51/51 58/58/58 53/53/53
f 50/50/50 49/49/49 58/58/58
f 51/51/51 50/50/50 58/58/58
f 58/58/58 49/49/49 59/59/59
f 49/49/49 60/60/60 59/59/59
f 57/57/57 26/26/26 55/55/55
f 26/26/26 27/27/27 55/55/55
f 27/27/27 29/29/29 52/52/52
f 55/55/55 27/27/27 52/52/52
f 58/58/58 59/59/59 61/61/61
f 53/53/53 58/58/58 61/61/61
f 53/53/53 61/61/61 54/54/54
f 56/56/56 54/54/54 62/62/62
f 54/54/54 63/63/63 62/62/62
f 61/61/61 63/63/63 54/54/54
f 64/64/64 57/57/57 56/56/56
f 26/26/26 57/57/57 64/64/64
f 65/65/65 64/64/64 56/56/56
f 65/65/65 56/56/56 62/62/62
f 66/66/66 64/64/64 65/65/65
f 67/67/67 66/66/66 65/65/65
f 68/68/68 66/66/66 67/67/67
f 69/69/69 68/68/68 67/67/67
f 70/70/70 26/26/26 64/64/64
f 70/70/70 64/64/64 66/66/66
f 70/70/70 71/71/71 26/26/26
f 71/71/71 25/25/25 26/26/26
f 72/72/72 71/71/71 70/70/70
f 73/73/73 72/72/72 70/70/70
f 73/73/73 70/70/70 66/66/66
f 73/73/73 66/66/66 68/68/68
f 74/74/74 72/72/72 73/73/73
f 75/75/75 74/74/74 73/73/73
f 75/75/75 73/73/73 68/68/68
f 76/76/76 74/74/74 75/75/75
f 77/77/77 76/76/76 75/75/75
f 76/76/76 77/77/77 78/78/78
f 77/77/77 79/79/79 78/78/78
f 79/79/79 80/80/80 78/78/78
f 80/80/80 81/81/81 78/78/78
f 20/20/20 25/25/25 71/71/71
f 82/82/82 20/20/20 71/71/71
f 82/82/82 71/71/71 72/72/72
f 82/82/82 83/83/83 20/20/20
f 84/84/84 83/83/83 82/82/82
f 85/85/85 84/84/84 82/82/82
f 85/85/85 82/82/82 72/72/72
f 85/85/85 72/72/72 74/74/74
f 83/83/83 21/21/21 20/20/20
f 86/86/86 84/84/84 85/85/85
f 87/87/87 86/86/86 85/85/85
f 87/87/87 85/85/85 74/74/74
f 87/87/87 74/74/74 76/76/76
f 78/78/78 81/81/81 88/88/88
f 81/81/81 89/89/89 88/88/88
f 88/88/88 89/89/89 90/90/90
f 91/91/91 88/88/88 90/90/90
f 92/92/92 88/88/88 91/91/91
f 93/93/93 92/92/92 91/91/91
f 92/92/92 93/93/93 94/94/94
f 87/87/87 92/92/92 94/94/94
f 87/87/87 94/94/94 86/86/86
f 78/78/78 88/88/88 92/92/92
f 76/76/76 78/78/78 92/92/92
f 92/92/92 87/87/87 76/76/76
f 97/97/97 96/96/96 95/95/95
f 97/97/97 98/98/98 96/96/96
f 98/98/98 99/99/99 96/96/96
f 99/99/99 98/98/98 100/100/100
f 98/98/98 101/101/101 100/100/100
f 101/101/101 102/102/102 100/100/100
f 100/100/100 102/102/102 103/103/103
f 102/102/102 104/104/104 103/103/103
f 105/105/105 103/103/103 104/104/104
f 105/105/105 106/106/106 103/103/103
f 100/100/100 103/103/103 107/107/107
f 107/107/107 103/103/103 108/108/108
f 103/103/103 109/109/109 108/108/108
f 103/103/103 106/106/106 109/109/109
f 110/110/110 100/100/100 107/107/107
f 99/99/99 100/100/100 110/110/110
f 111/111/111 99/99/99 110/110/110
f 99/99/99 111/111/111 112/112/112
f 96/96/96 99/99/99 112/112/112
f 96/96/96 112/112/112 113/113/113
f 95/95/95 96/96/96 113/113/113
f 106/106/106 114/114/114 109/109/109
f 109/109/109 114/114/114 115/115/115
f 116/116/116 109/109/109 115/115/115
f 116/116/116 117/117/117 109/109/109
f 117/117/117 118/118/118 109/109/109
f 108/108/108 109/109/109 118/118/118
f 118/118/118 117/117/117 119/119/119
f 119/119/119 120/120/120 118/118/118
f 120/120/120 121/121/121 118/118/118
f 118/118/118 121/121/121 122/122/122
f 121/121/121 123/123/123 122/122/122
f 122/122/122 108/108/108 118/118/118
f 47/47/47 125/125/125 124/124/124
f 126/126/126 47/47/47 124/124/124
f 47/47/47 126/126/126 127/127/127
f 128/128/128 125/125/125 47/47/47
f 48/48/48 128/128/128 47/47/47
f 47/47/47 127/127/127 60/60/60
f 49/49/49 47/47/47 60/60/60
f 131/131/131 130/130/130 129/129/129
f 132/132/132 131/131/131 129/129/129
f 129/129/129 133/133/133 132/132/132
f 133/133/133 134/134/134 132/132/132
f 134/134/134 135/135/135 132/132/132
f 135/135/135 136/136/136 132/132/132
f 132/132/132 136/136/136 131/131/131
f 137/137/137 135/135/135 134/134/134
f 138/138/138 137/137/137 134/134/134
f 134/134/134 133/133/133 138/138/138
f 139/139/139 137/137/137 138/138/138
f 140/140/140 139/139/139 138/138/138
f 141/141/141 139/139/139 140/140/140
f 142/142/142 141/141/141 140/140/140
f 142/142/142 140/140/140 138/138/138
f 138/138/138 133/133/133 142/142/142
f 143/143/143 141/141/141 142/142/142
f 144/144/144 143/143/143 142/142/142
f 142/142/142 133/133/133 144/144/144
f 145/145/145 143/143/143 144/144/144
f 146/146/146 145/145/145 144/144/144
f 146/146/146 144/144/144 133/133/133
f 147/147/147 145/145/145 146/146/146
f 148/148/148 147/147/147 146/146/146
f 149/149/149 147/147/147 148/148/148
f 150/150/150 149/149/149 148/148/148
f 151/151/151 149/149/149 150/150/150
f 131/131/131 151/151/151 150/150/150
f 136/136/136 151/151/151 131/131/131
f 148/148/148 146/146/146 130/130/130
f 150/150/150 130/130/130 131/131/131
f 130/130/130 150/150/150 148/148/148
f 146/146/146 129/129/129 130/130/130
f 129/129/129 146/146/146 133/133/133
f 154/154/154 153/153/153 152/152/152
f 155/155/155 153/153/153 154/154/154
f 156/156/156 155/155/155 154/154/154
f 155/155/155 156/156/156 157/157/157
f 158/158/158 155/155/155 157/157/157
f 159/159/159 158/158/158 157/157/157
f 159/159/159 157/157/157 160/160/160
f 161/161/161 159/159/159 160/160/160
f 160/160/160 162/162/162 161/161/161
f 163/163/163 162/162/162 160/160/160
f 160/160/160 157/157/157 164/164/164
f 160/160/160 164/164/164 165/165/165
f 166/166/166 160/160/160 165/165/165
f 163/163/163 160/160/160 166/166/166
f 157/157/157 167/167/167 164/164/164
f 157/157/157 156/156/156 167/167/167
f 156/156/156 168/168/168 167/167/167
f 156/156/156 154/154/154 169/169/169
f 168/168/168 156/156/156 169/169/169
f 169/169/169 154/154/154 170/170/170
f 154/154/154 152/152/152 170/170/170
f 171/171/171 163/163/163 166/166/166
f 171/171/171 166/166/166 172/172/172
f 166/166/166 173/173/173 172/172/172
f 174/174/174 173/173/173 166/166/166
f 175/175/175 174/174/174 166/166/166
f 166/166/166 165/165/165 175/175/175
f 174/174/174 175/175/175 176/176/176
f 177/177/177 176/176/176 175/175/175
f 178/178/178 177/177/177 175/175/175
f 178/178/178 175/175/175 179/179/179
f 180/180/180 178/178/178 179/179/179
f 165/165/165 179/179/179 175/175/175
f 182/182/182 69/69/69 181/181/181
f 183/183/183 182/182/182 181/181/181
f 182/182/182 184/184/184 69/69/69
f 184/184/184 68/68/68 69/69/69
f 75/75/75 68/68/68 184/184/184
f 77/77/77 75/75/75 184/184/184
f 184/184/184 185/185/185 77/77/77
f 184/184/184 182/182/182 185/185/185
f 185/185/185 79/79/79 77/77/77
f 185/185/185 186/186/186 79/79/79
f 186/186/186 185/185/185 187/187/187
f 182/182/182 187/187/187 185/185/185
f 187/187/187 182/182/182 183/183/183
f 188/188/188 186/186/186 187/187/187
f 186/186/186 80/80/80 79/79/79
f 181/181/181 69/69/69 189/189/189
f 69/69/69 67/67/67 189/189/189
f 190/190/190 188/188/188 187/187/187
f 191/191/191 190/190/190 187/187/187
f 191/191/191 187/187/187 192/192/192
f 187/187/187 193/193/193 192/192/192
f 193/193/193 187/187/187 194/194/194
f 189/189/189 67/67/67 65/65/65
f 195/195/195 189/189/189 65/65/65
f 195/195/195 65/65/65 62/62/62
f 194/194/194 187/187/187 183/183/183
f 198/198/198 197/197/197 196/196/196
f 199/199/199 198/198/198 196/196/196
f 200/200/200 196/196/196 197/197/197
f 201/201/201 200/200/200 197/197/197
f 202/202/202 201/201/201 197/197/197
f 203/203/203 202/202/202 197/197/197
f 203/203/203 197/197/197 198/198/198
f 202/202/202 204/204/204 201/201/201
f 204/204/204 205/205/205 201/201/201
f 200/200/200 201/201/201 205/205/205
f 204/204/204 206/206/206 205/205/205
f 206/206/206 207/207/207 205/205/205
f 206/206/206 208/208/208 207/207/207
f 208/208/208 209/209/209 207/207/207
f 207/207/207 209/209/209 205/205/205
f 200/200/200 205/205/205 209/209/209
f 208/208/208 210/210/210 209/209/209
f 210/210/210 211/211/211 209/209/209
f 200/200/200 209/209/209 211/211/211
f 210/210/210 212/212/212 211/211/211
f 212/212/212 213/213/213 211/211/211
f 211/211/211 213/213/213 200/200/200
f 212/212/212 214/214/214 213/213/213
f 214/214/214 215/215/215 213/213/213
f 214/214/214 216/216/216 215/215/215
f 216/216/216 217/217/217 215/215/215
f 216/216/216 218/218/218 217/217/217
f 218/218/218 198/198/198 217/217/217
f 218/218/218 203/203/203 198/198/198
f 213/213/213 215/215/215 199/199/199
f 199/199/199 217/217/217 198/198/198
f 217/217/217 199/199/199 215/215/215
f 196/196/196 213/213/213 199/199/199
f 213/213/213 196/196/196 200/200/200
