g model_car_72_matte_exhaust_LOD1
v -0.1626348 0.1501617 -1.891595
v -0.09824133 0.3188195 -2.285319
v -9.536743E-07 0.3174396 -2.285496
v -9.536743E-07 0.1511943 -1.892262
v -0.1009235 0.320122 -2.285054
v -0.1659503 0.1502345 -1.891089
v -0.1926007 0.4347343 -2.261525
v -0.1683576 0.1503513 -1.890365
v -0.3842614 0.4340911 -2.257182
v -0.386539 0.415947 -2.234874
v -9.536743E-07 0.4143541 -2.235147
v -9.536743E-07 0.432646 -2.257434
v 0.1626358 0.1501617 -1.891595
v -9.536743E-07 0.1511943 -1.892262
v -9.536743E-07 0.3174396 -2.285496
v 0.09824204 0.3188195 -2.285319
v 0.1009245 0.320122 -2.285054
v 0.1659513 0.1502345 -1.891089
v 0.1926014 0.4347343 -2.261525
v 0.1683586 0.1503513 -1.890365
v 0.3842622 0.4340911 -2.257182
v -9.536743E-07 0.432646 -2.257434
v -9.536743E-07 0.4143541 -2.235147
v 0.3865399 0.415947 -2.234874
vt 0.2059376 0.07545644
vt 0.2157055 0.09651264
vt 0.2209527 0.09497883
vt 0.2144004 0.07221392
vt 0.2155441 0.096553
vt 0.2057627 0.0754968
vt 0.209059 0.09620319
vt 0.2056281 0.07552371
vt 0.06940194 0.02349539
vt 0.06618633 0.01741398
vt 0.05526132 0.1098729
vt 0.06237872 0.109994
vt 0.2059376 0.07545644
vt 0.2144004 0.07221392
vt 0.2209527 0.09497883
vt 0.2157055 0.09651264
vt 0.2155441 0.096553
vt 0.2057627 0.0754968
vt 0.209059 0.09620319
vt 0.2056281 0.07552371
vt 0.06940194 0.02349539
vt 0.06237872 0.109994
vt 0.05526132 0.1098729
vt 0.06618633 0.01741398
vn 0.2877813 0.9408072 0.1790633
vn 0.5353191 0.7515136 0.3855656
vn -0.2928406 0.7242117 0.6243091
vn 0.2386377 0.8934839 0.3804453
vn 0.5425997 0.4020485 0.7375247
vn 0.4388522 0.8971242 0.05076423
vn 0.9211869 0.1854528 0.3420846
vn 0.8916193 0.4527859 0
vn 0.3514858 -0.9011655 -0.2536897
vn 0.3587664 -0.7464544 -0.5604396
vn 0.0002005696 -0.7737563 -0.6334834
vn -0.1636113 -0.8574823 -0.4878067
vn -0.3984082 0.8625417 0.3119179
vn 0.2386377 0.8934839 0.3804453
vn -0.2928406 0.7242117 0.6243091
vn -0.3565452 0.645946 0.6750031
vn -0.1909132 0.6605071 0.7261423
vn -0.6605071 0.7496935 -0.04110925
vn -0.8716422 0.1781723 0.4566119
vn -0.9389871 0.3347036 0.07922565
vn -0.4548322 -0.8119791 -0.365811
vn -0.1636113 -0.8574823 -0.4878067
vn 0.0002005696 -0.7737563 -0.6334834
vn -0.3583653 -0.7464544 -0.5606961
g model_car_72_matte_exhaust_LOD1_0
f 3/3/3 2/2/2 1/1/1
f 4/4/4 3/3/3 1/1/1
f 2/2/2 5/5/5 1/1/1
f 5/5/5 6/6/6 1/1/1
f 5/5/5 7/7/7 6/6/6
f 7/7/7 8/8/8 6/6/6
f 11/11/11 10/10/10 9/9/9
f 12/12/12 11/11/11 9/9/9
f 15/15/15 14/14/14 13/13/13
f 16/16/16 15/15/15 13/13/13
f 17/17/17 16/16/16 13/13/13
f 18/18/18 17/17/17 13/13/13
f 19/19/19 17/17/17 18/18/18
f 20/20/20 19/19/19 18/18/18
f 23/23/23 22/22/22 21/21/21
f 24/24/24 23/23/23 21/21/21
