g model_car_89_matte_backlight_LOD1
v 0.7966502 0.7563709 -1.716864
v 0.7954096 0.758536 -1.721287
v 0.7547398 0.7567991 -1.784142
v 0.7543471 0.7549394 -1.783875
v 0.7028384 0.75744 -1.850667
v 0.7032801 0.7554466 -1.84854
v 0.6271296 0.7578734 -1.915815
v 0.6264424 0.7560819 -1.914296
v 0.572886 0.7603439 -1.951358
v 0.5712881 0.7588114 -1.950164
v 0.4613011 0.7769417 -1.997932
v 0.4578135 0.7756437 -1.996555
v 0.8092479 0.788514 -1.667123
v 0.811901 0.7880641 -1.661361
v 0.8155004 0.8245949 -1.604085
v 0.8136297 0.8223342 -1.612838
v 0.6109108 0.8117408 -1.893777
v 0.4833416 0.8161172 -1.963964
v 0.4613011 0.7769417 -1.997932
v 0.572886 0.7603439 -1.951358
v 0.637205 0.8530568 -1.839345
v 0.5086077 0.8582457 -1.924835
v 0.6109108 0.8117408 -1.893777
v 0.572886 0.7603439 -1.951358
v 0.6271296 0.7578734 -1.915815
v 0.6318988 0.8095158 -1.880427
v 0.7028384 0.75744 -1.850667
v 0.7102962 0.8038305 -1.80925
v 0.637205 0.8530568 -1.839345
v 0.7111714 0.8443719 -1.76816
v 0.7607496 0.7988268 -1.740764
v 0.7606677 0.8353409 -1.695107
v 0.8136297 0.8223342 -1.612838
v 0.8092479 0.788514 -1.667123
v 0.7954096 0.758536 -1.721287
v 0.7547398 0.7567991 -1.784142
v 0.507708 0.8612915 -1.919632
v 0.5086077 0.8582457 -1.924835
v 0.637205 0.8530568 -1.839345
v 0.6372677 0.8577141 -1.835291
v 0.761603 0.8387576 -1.689269
v 0.7606677 0.8353409 -1.695107
v 0.8136297 0.8223342 -1.612838
v 0.8155004 0.8245949 -1.604085
v 0.7116622 0.8482004 -1.763607
v 0.7111714 0.8443719 -1.76816
v 0.6372677 0.8577141 -1.835291
v 0.637205 0.8530568 -1.839345
v 0.4578135 0.7756437 -1.996555
v 0.4613011 0.7769417 -1.997932
v 0.4833416 0.8161172 -1.963964
v 0.4807293 0.8163217 -1.962653
v 0.5086077 0.8582457 -1.924835
v 0.507708 0.8612915 -1.919632
v -0.7966508 0.7563709 -1.716864
v -0.7543477 0.7549394 -1.783875
v -0.7547404 0.7567991 -1.784142
v -0.7954074 0.758536 -1.721287
v -0.702839 0.75744 -1.850667
v -0.7032808 0.7554466 -1.84854
v -0.6271275 0.7578734 -1.915815
v -0.626443 0.7560819 -1.914296
v -0.5728866 0.7603439 -1.951358
v -0.5712887 0.7588114 -1.950164
v -0.4612991 0.7769417 -1.997932
v -0.4578141 0.7756437 -1.996555
v -0.8092486 0.788514 -1.667123
v -0.8119017 0.7880641 -1.661361
v -0.8155011 0.8245949 -1.604085
v -0.8136305 0.8223342 -1.612838
v -0.6109115 0.8117408 -1.893777
v -0.5728866 0.7603439 -1.951358
v -0.4612991 0.7769417 -1.997932
v -0.4833423 0.8161172 -1.963964
v -0.6372057 0.8530568 -1.839345
v -0.5086056 0.8582457 -1.924835
v -0.6109115 0.8117408 -1.893777
v -0.6318992 0.8095158 -1.880427
v -0.6271275 0.7578734 -1.915815
v -0.5728866 0.7603439 -1.951358
v -0.702839 0.75744 -1.850667
v -0.7102968 0.8038305 -1.80925
v -0.6372057 0.8530568 -1.839345
v -0.711172 0.8443719 -1.76816
v -0.7607502 0.7988268 -1.740764
v -0.7606684 0.8353409 -1.695107
v -0.8136305 0.8223342 -1.612838
v -0.8092486 0.788514 -1.667123
v -0.7954074 0.758536 -1.721287
v -0.7547404 0.7567991 -1.784142
v -0.5077087 0.8612915 -1.919632
v -0.6372684 0.8577141 -1.835291
v -0.6372057 0.8530568 -1.839345
v -0.5086056 0.8582457 -1.924835
v -0.7616037 0.8387576 -1.689269
v -0.8155011 0.8245949 -1.604085
v -0.8136305 0.8223342 -1.612838
v -0.7606684 0.8353409 -1.695107
v -0.7116629 0.8482004 -1.763607
v -0.711172 0.8443719 -1.76816
v -0.6372684 0.8577141 -1.835291
v -0.6372057 0.8530568 -1.839345
v -0.4578141 0.7756437 -1.996555
v -0.4807299 0.8163217 -1.962653
v -0.4833423 0.8161172 -1.963964
v -0.4612991 0.7769417 -1.997932
v -0.5086056 0.8582457 -1.924835
v -0.5077087 0.8612915 -1.919632
vt 0.4131118 0.3137927
vt 0.4196755 0.317067
vt 0.5223902 0.3001955
vt 0.5222235 0.2969818
vt 0.6395813 0.2951325
vt 0.6370347 0.2914944
vt 0.7713398 0.2916005
vt 0.7709154 0.2876745
vt 0.8543786 0.2981642
vt 0.8557732 0.2945868
vt 0.9850761 0.3326955
vt 0.990518 0.3300124
vt 0.3470355 0.3831888
vt 0.3378949 0.3841438
vt 0.270333 0.4709419
vt 0.2823538 0.4633777
vt 0.7700666 0.3878425
vt 0.958685 0.3996662
vt 0.9850761 0.3326955
vt 0.8543786 0.2981642
vt 0.6966686 0.4718211
vt 0.9055693 0.4700627
vt 0.7700666 0.3878425
vt 0.8543786 0.2981642
vt 0.7713398 0.2916005
vt 0.7370208 0.3843863
vt 0.6395813 0.2951325
vt 0.5928019 0.3811575
vt 0.6966686 0.4718211
vt 0.5515705 0.4653029
vt 0.4730944 0.3856899
vt 0.4244201 0.4673342
vt 0.2823538 0.4633777
vt 0.3470355 0.3831888
vt 0.4196755 0.317067
vt 0.5223902 0.3001955
vt 0.9043869 0.4795065
vt 0.9055693 0.4700627
vt 0.6966686 0.4718211
vt 0.6930609 0.4813104
vt 0.4171743 0.4753985
vt 0.4244201 0.4673342
vt 0.2823538 0.4633777
vt 0.270333 0.4709419
vt 0.5465227 0.4735643
vt 0.5515705 0.4653029
vt 0.6930609 0.4813104
vt 0.6966686 0.4718211
vt 0.990518 0.3300124
vt 0.9850761 0.3326955
vt 0.958685 0.3996662
vt 0.9620047 0.4020916
vt 0.9055693 0.4700627
vt 0.9043869 0.4795065
vt 1.413109 0.3137927
vt 1.522236 0.2969818
vt 1.522388 0.3001955
vt 1.419673 0.317067
vt 1.639594 0.2951325
vt 1.637032 0.2914944
vt 1.771337 0.2916005
vt 1.770913 0.2876745
vt 1.854376 0.2981642
vt 1.855771 0.2945868
vt 1.985074 0.3326955
vt 1.990515 0.3300124
vt 1.347033 0.3831888
vt 1.337892 0.3841438
vt 1.270331 0.4709419
vt 1.282351 0.4633777
vt 1.770079 0.3878425
vt 1.854376 0.2981642
vt 1.985074 0.3326955
vt 1.958682 0.3996662
vt 1.696681 0.4718211
vt 1.905567 0.4700627
vt 1.770079 0.3878425
vt 1.737018 0.3843863
vt 1.771337 0.2916005
vt 1.854376 0.2981642
vt 1.639594 0.2951325
vt 1.592799 0.3811575
vt 1.696681 0.4718211
vt 1.551568 0.4653029
vt 1.473107 0.3856899
vt 1.424418 0.4673342
vt 1.282351 0.4633777
vt 1.347033 0.3831888
vt 1.419673 0.317067
vt 1.522388 0.3001955
vt 1.904384 0.4795065
vt 1.693058 0.4813104
vt 1.696681 0.4718211
vt 1.905567 0.4700627
vt 1.417172 0.4753985
vt 1.270331 0.4709419
vt 1.282351 0.4633777
vt 1.424418 0.4673342
vt 1.546535 0.4735643
vt 1.551568 0.4653029
vt 1.693058 0.4813104
vt 1.696681 0.4718211
vt 1.990515 0.3300124
vt 1.962017 0.4020916
vt 1.958682 0.3996662
vt 1.985074 0.3326955
vt 1.905567 0.4700627
vt 1.904384 0.4795065
vn 0.9330262 0.05563521 -0.3554811
vn 0.8637105 -0.2307482 -0.4480619
vn 0.7560886 -0.3766761 -0.5352057
vn 0.7560886 -0.3766761 -0.5352057
vn 0.5663824 -0.5627342 -0.602114
vn 0.6630596 -0.4532883 -0.5957195
vn 0.4423437 -0.6667078 -0.5998606
vn 0.4587606 -0.6557632 -0.5995943
vn 0.2234519 -0.7670332 -0.6014394
vn 0.1869699 -0.7743296 -0.6045296
vn 0.132247 -0.7870983 -0.602484
vn 0.132247 -0.7870983 -0.602484
vn 0.9257298 0.1942667 -0.3244762
vn 0.8783032 0.3547873 -0.3204831
vn 0.8564141 0.4058621 -0.3191096
vn 0.8564141 0.4058621 -0.3191096
vn 0.4459919 0.5171322 -0.7305242
vn 0.4277509 0.5043634 -0.7500978
vn 0.4149822 0.495243 -0.7632327
vn 0.4149822 0.495243 -0.7632327
vn 0.4569365 0.5244285 -0.7184593
vn 0.4569365 0.5244285 -0.7184593
vn 0.5043631 0.4624091 -0.7292432
vn 0.5061871 0.4532887 -0.733692
vn 0.5609101 0.4478164 -0.6963048
vn 0.5827993 0.478826 -0.6565596
vn 0.6375222 0.4350477 -0.635845
vn 0.6630596 0.4770019 -0.5769065
vn 0.6010402 0.5353731 -0.5934023
vn 0.6776524 0.5226045 -0.5173701
vn 0.7396718 0.4824742 -0.4691528
vn 0.7396718 0.5244285 -0.421735
vn 0.7451441 0.5299008 -0.4049265
vn 0.7487922 0.5226045 -0.4076699
vn 0.7688574 0.4368718 -0.4669062
vn 0.7396718 0.4076862 -0.5354229
vn 0.3967412 0.7232553 -0.5652418
vn 0.3967412 0.7232553 -0.5652418
vn 0.4605847 0.6776528 -0.5732786
vn 0.5134835 0.6375226 -0.5743689
vn 0.7305512 0.5645587 -0.3841462
vn 0.7433199 0.515308 -0.4265362
vn 0.7232549 0.5846238 -0.3675832
vn 0.7232549 0.5846238 -0.3675832
vn 0.7031898 0.5116599 -0.4936885
vn 0.652115 0.5299008 -0.5421726
vn 0.5134835 0.6375226 -0.5743689
vn 0.4605847 0.6776528 -0.5732786
vn -0.385797 0.7141348 -0.5840994
vn -0.385797 0.7141348 -0.5840994
vn -0.3693801 0.7305516 -0.574328
vn -0.3712043 0.7305516 -0.5731508
vn -0.3566115 0.7451445 -0.5635494
vn -0.3566115 0.7451445 -0.5635494
vn -0.9330266 0.05563521 -0.3554802
vn -0.7560891 -0.3766761 -0.5352049
vn -0.7579131 -0.3785002 -0.5313241
vn -0.8637109 -0.2307482 -0.4480611
vn -0.5663828 -0.5627342 -0.6021136
vn -0.6630601 -0.4532883 -0.595719
vn -0.4423441 -0.6667078 -0.5998603
vn -0.458761 -0.6557632 -0.599594
vn -0.2234522 -0.7670332 -0.6014392
vn -0.1869704 -0.7743296 -0.6045294
vn -0.1322473 -0.7870983 -0.602484
vn -0.1322473 -0.7870983 -0.602484
vn -0.9257302 0.1942667 -0.324475
vn -0.8783036 0.3547873 -0.3204819
vn -0.8564144 0.4058621 -0.3191085
vn -0.8564144 0.4058621 -0.3191085
vn -0.4459922 0.5171322 -0.730524
vn -0.4149826 0.495243 -0.7632325
vn -0.4149826 0.495243 -0.7632325
vn -0.4277513 0.5043634 -0.7500976
vn -0.4569368 0.5244285 -0.7184591
vn -0.4569368 0.5244285 -0.7184591
vn -0.5043634 0.4624091 -0.7292429
vn -0.5827997 0.478826 -0.6565593
vn -0.5609105 0.4478164 -0.6963045
vn -0.5061876 0.4532887 -0.7336918
vn -0.6375226 0.4350477 -0.6358446
vn -0.6630601 0.4770019 -0.576906
vn -0.6010406 0.5353731 -0.5934019
vn -0.6776528 0.5226045 -0.5173695
vn -0.7396722 0.4824742 -0.4691521
vn -0.7396722 0.5244285 -0.4217342
vn -0.7451445 0.5299008 -0.4049257
vn -0.7487926 0.5226045 -0.4076692
vn -0.7688577 0.4368718 -0.4669057
vn -0.7396722 0.4076862 -0.5354223
vn -0.3967416 0.7232553 -0.5652415
vn -0.5134839 0.6375226 -0.5743686
vn -0.4605851 0.6776528 -0.5732782
vn -0.3967416 0.7232553 -0.5652415
vn -0.7305516 0.5645587 -0.3841455
vn -0.7232553 0.5846238 -0.3675824
vn -0.7232553 0.5846238 -0.3675824
vn -0.7433203 0.515308 -0.4265354
vn -0.7031902 0.5116599 -0.4936879
vn -0.6521155 0.5299008 -0.5421721
vn -0.5134839 0.6375226 -0.5743686
vn -0.4605851 0.6776528 -0.5732782
vn 0.3857967 0.7141348 -0.5840997
vn 0.3712038 0.7305516 -0.573151
vn 0.3693798 0.7305516 -0.5743282
vn 0.3857967 0.7141348 -0.5840997
vn 0.3566111 0.7451445 -0.5635496
vn 0.3566111 0.7451445 -0.5635496
g model_car_89_matte_backlight_LOD1_0
f 3/3/3 2/2/2 1/1/1
f 4/4/4 3/3/3 1/1/1
f 5/5/5 3/3/3 4/4/4
f 6/6/6 5/5/5 4/4/4
f 7/7/7 5/5/5 6/6/6
f 8/8/8 7/7/7 6/6/6
f 9/9/9 7/7/7 8/8/8
f 10/10/10 9/9/9 8/8/8
f 11/11/11 9/9/9 10/10/10
f 12/12/12 11/11/11 10/10/10
f 2/2/2 13/13/13 1/1/1
f 13/13/13 14/14/14 1/1/1
f 14/14/14 13/13/13 15/15/15
f 13/13/13 16/16/16 15/15/15
f 19/19/19 18/18/18 17/17/17
f 20/20/20 19/19/19 17/17/17
f 17/17/17 18/18/18 21/21/21
f 18/18/18 22/22/22 21/21/21
f 25/25/25 24/24/24 23/23/23
f 26/26/26 25/25/25 23/23/23
f 25/25/25 26/26/26 27/27/27
f 26/26/26 28/28/28 27/27/27
f 29/29/29 26/26/26 23/23/23
f 28/28/28 26/26/26 29/29/29
f 30/30/30 28/28/28 29/29/29
f 31/31/31 28/28/28 30/30/30
f 32/32/32 31/31/31 30/30/30
f 31/31/31 32/32/32 33/33/33
f 34/34/34 31/31/31 33/33/33
f 35/35/35 31/31/31 34/34/34
f 35/35/35 36/36/36 31/31/31
f 28/28/28 31/31/31 36/36/36
f 27/27/27 28/28/28 36/36/36
f 39/39/39 38/38/38 37/37/37
f 40/40/40 39/39/39 37/37/37
f 43/43/43 42/42/42 41/41/41
f 44/44/44 43/43/43 41/41/41
f 41/41/41 42/42/42 45/45/45
f 42/42/42 46/46/46 45/45/45
f 45/45/45 46/46/46 47/47/47
f 46/46/46 48/48/48 47/47/47
f 51/51/51 50/50/50 49/49/49
f 52/52/52 51/51/51 49/49/49
f 53/53/53 51/51/51 52/52/52
f 54/54/54 53/53/53 52/52/52
f 57/57/57 56/56/56 55/55/55
f 58/58/58 57/57/57 55/55/55
f 57/57/57 59/59/59 56/56/56
f 59/59/59 60/60/60 56/56/56
f 59/59/59 61/61/61 60/60/60
f 61/61/61 62/62/62 60/60/60
f 61/61/61 63/63/63 62/62/62
f 63/63/63 64/64/64 62/62/62
f 63/63/63 65/65/65 64/64/64
f 65/65/65 66/66/66 64/64/64
f 67/67/67 58/58/58 55/55/55
f 68/68/68 67/67/67 55/55/55
f 67/67/67 68/68/68 69/69/69
f 70/70/70 67/67/67 69/69/69
f 73/73/73 72/72/72 71/71/71
f 74/74/74 73/73/73 71/71/71
f 74/74/74 71/71/71 75/75/75
f 76/76/76 74/74/74 75/75/75
f 79/79/79 78/78/78 77/77/77
f 80/80/80 79/79/79 77/77/77
f 78/78/78 79/79/79 81/81/81
f 82/82/82 78/78/78 81/81/81
f 78/78/78 83/83/83 77/77/77
f 78/78/78 82/82/82 83/83/83
f 82/82/82 84/84/84 83/83/83
f 82/82/82 85/85/85 84/84/84
f 85/85/85 86/86/86 84/84/84
f 86/86/86 85/85/85 87/87/87
f 85/85/85 88/88/88 87/87/87
f 85/85/85 89/89/89 88/88/88
f 90/90/90 89/89/89 85/85/85
f 82/82/82 81/81/81 90/90/90
f 85/85/85 82/82/82 90/90/90
f 93/93/93 92/92/92 91/91/91
f 94/94/94 93/93/93 91/91/91
f 97/97/97 96/96/96 95/95/95
f 98/98/98 97/97/97 95/95/95
f 98/98/98 95/95/95 99/99/99
f 100/100/100 98/98/98 99/99/99
f 100/100/100 99/99/99 101/101/101
f 102/102/102 100/100/100 101/101/101
f 105/105/105 104/104/104 103/103/103
f 106/106/106 105/105/105 103/103/103
f 105/105/105 107/107/107 104/104/104
f 107/107/107 108/108/108 104/104/104
