g Taillights_49
v 0.4979 0.8153993 -1.7982
v 0.5499 0.8143993 -1.7977
v 0.5614 0.8328993 -1.7684
v 0.6521 0.8307993 -1.742
v 0.8025 0.8064993 -1.707
v 0.6173 0.7744993 -1.8201
v 0.7403 0.8287993 -1.7164
v 0.819 0.7742993 -1.7214
v 0.5298 0.7836993 -1.8399
v 0.5281 0.7478993 -1.8731
v 0.4312 0.7504993 -1.9001
v 0.7736 0.8231993 -1.7071
v 0.8182 0.7417993 -1.7461
v 0.4394 0.7136993 -1.9355
v 0.515 0.7089993 -1.9055
v 0.6288 0.7109993 -1.8537
v 0.6227 0.7453993 -1.8355
v 0.8024 0.7211993 -1.7653
v 0.4479 0.7823993 -1.852
v 0.4707 0.7974993 -1.8275
v 0.745 0.7132993 -1.7965
v -0.4979 0.8153993 -1.7982
v -0.5614 0.8328993 -1.7684
v -0.5499 0.8143993 -1.7977
v -0.6521 0.8307993 -1.742
v -0.8025 0.8064993 -1.707
v -0.6173 0.7744993 -1.8201
v -0.7403 0.8287993 -1.7164
v -0.819 0.7742993 -1.7214
v -0.5298 0.7836993 -1.8399
v -0.5281 0.7478993 -1.8731
v -0.4312 0.7504993 -1.9001
v -0.7736 0.8231993 -1.7071
v -0.8182 0.7417993 -1.7461
v -0.4393 0.7136993 -1.9355
v -0.515 0.7089993 -1.9055
v -0.6288 0.7109993 -1.8537
v -0.6227 0.7453993 -1.8355
v -0.8024 0.7211993 -1.7653
v -0.4479 0.7823993 -1.852
v -0.4707 0.7974993 -1.8275
v -0.745 0.7132993 -1.7965
vt 0.3733 0.9603
vt 0.3204 0.9438
vt 0.297 0.9738
vt 0.1939 0.966
vt 0.0365 0.9239
vt 0.2635 0.8803
vt 0.0998 0.9546
vt 0.0273 0.8853
vt 0.358 0.899
vt 0.3739 0.8511
vt 0.4762 0.8628
vt 0.0537 0.9461
vt 0.0342 0.8448
vt 0.4855 0.8101
vt 0.4199 0.8061
vt 0.2661 0.8069
vt 0.265 0.8464
vt 0.057 0.8213
vt 0.4517 0.9109
vt 0.4137 0.9368
vt 0.1299 0.8118
vt 0.3733 0.9603
vt 0.297 0.9738
vt 0.3204 0.9438
vt 0.1939 0.966
vt 0.0365 0.9239
vt 0.2635 0.8803
vt 0.0998 0.9546
vt 0.0273 0.8853
vt 0.358 0.899
vt 0.3739 0.8511
vt 0.4762 0.8628
vt 0.0537 0.9461
vt 0.0342 0.8448
vt 0.4855 0.8101
vt 0.4199 0.8061
vt 0.2661 0.8069
vt 0.265 0.8464
vt 0.057 0.8213
vt 0.4517 0.9109
vt 0.4137 0.9368
vt 0.1299 0.8118
vn 0.0439939 0.8182876 -0.573123
vn 0.1238853 0.7934324 -0.5959174
vn 0.1431955 0.8105096 -0.5679519
vn 0.2631883 0.6704028 -0.6937521
vn 0.3398979 0.5560103 -0.7584997
vn 0.298632 0.6259418 -0.7204276
vn 0.2702029 0.3809271 -0.8842426
vn 0.3692053 0.5441348 -0.7533955
vn 0.1571412 0.7400316 -0.6539571
vn 0.2806462 0.5972801 -0.7513283
vn 0.1758744 0.7288224 -0.6617297
vn 0.3095964 0.5310347 -0.7887663
vn 0.369484 0.5242166 -0.7672539
vn 0.2475892 0.6570315 -0.7120458
vn 0.3417665 0.5308298 -0.7755098
vn 0.3566602 0.4916441 -0.7944052
vn 0.3541865 0.485644 -0.7991882
vn 0.3761509 0.4599894 -0.8043135
vn 0.07105058 0.8193016 -0.5689434
vn 0.07167865 0.81879 -0.5696008
vn 0.3768476 0.4566525 -0.8058873
vn -0.0439939 0.8182876 -0.573123
vn -0.1431955 0.8105096 -0.5679519
vn -0.1238853 0.7934324 -0.5959173
vn -0.2631888 0.6704036 -0.6937512
vn -0.3398979 0.5560103 -0.7584998
vn -0.298632 0.6259417 -0.7204276
vn -0.2702015 0.380926 -0.8842435
vn -0.3692053 0.5441348 -0.7533955
vn -0.1571412 0.7400316 -0.6539571
vn -0.2806122 0.597261 -0.7513561
vn -0.1759399 0.7286393 -0.6619139
vn -0.3095964 0.5310347 -0.7887663
vn -0.369484 0.5242166 -0.7672539
vn -0.2475279 0.6568355 -0.7122478
vn -0.3414942 0.5309533 -0.7755452
vn -0.3566601 0.4916441 -0.7944052
vn -0.3541865 0.4856441 -0.7991882
vn -0.3761509 0.4599894 -0.8043135
vn -0.07105058 0.8193016 -0.5689434
vn -0.07167865 0.81879 -0.5696008
vn -0.3768476 0.4566525 -0.8058873
g Taillights_49_0
f 3/3/3 2/2/2 1/1/1
f 3/3/3 4/4/4 2/2/2
f 2/2/2 4/4/4 5/5/5
f 5/5/5 6/6/6 2/2/2
f 7/7/7 5/5/5 4/4/4
f 8/8/8 6/6/6 5/5/5
f 2/2/2 6/6/6 9/9/9
f 1/1/1 2/2/2 9/9/9
f 10/10/10 9/9/9 6/6/6
f 10/10/10 11/11/11 9/9/9
f 12/12/12 5/5/5 7/7/7
f 8/8/8 13/13/13 6/6/6
f 11/11/11 10/10/10 14/14/14
f 14/14/14 10/10/10 15/15/15
f 10/10/10 16/16/16 15/15/15
f 16/16/16 10/10/10 17/17/17
f 17/17/17 10/10/10 6/6/6
f 17/17/17 6/6/6 13/13/13
f 18/18/18 17/17/17 13/13/13
f 11/11/11 19/19/19 9/9/9
f 20/20/20 9/9/9 19/19/19
f 21/21/21 17/17/17 18/18/18
f 16/16/16 17/17/17 21/21/21
f 1/1/1 9/9/9 20/20/20
f 24/24/24 23/23/23 22/22/22
f 25/25/25 23/23/23 24/24/24
f 24/24/24 26/26/26 25/25/25
f 27/27/27 26/26/26 24/24/24
f 28/28/28 25/25/25 26/26/26
f 27/27/27 29/29/29 26/26/26
f 27/27/27 24/24/24 30/30/30
f 24/24/24 22/22/22 30/30/30
f 30/30/30 31/31/31 27/27/27
f 32/32/32 31/31/31 30/30/30
f 26/26/26 33/33/33 28/28/28
f 34/34/34 29/29/29 27/27/27
f 31/31/31 32/32/32 35/35/35
f 31/31/31 35/35/35 36/36/36
f 37/37/37 31/31/31 36/36/36
f 31/31/31 37/37/37 38/38/38
f 31/31/31 38/38/38 27/27/27
f 27/27/27 38/38/38 34/34/34
f 38/38/38 39/39/39 34/34/34
f 40/40/40 32/32/32 30/30/30
f 30/30/30 41/41/41 40/40/40
f 38/38/38 42/42/42 39/39/39
f 38/38/38 37/37/37 42/42/42
f 30/30/30 22/22/22 41/41/41
