g Glass_36
v -5.293956E-23 1.0855 -1.44
v -0.1878 1.0808 -1.4225
v -0.1916 0.9987003 -1.7063
v -0.3619 0.9956003 -1.6283
v -2.646978E-23 1.1593 -1.1786
v -5.293956E-23 1.0043 -1.7271
v -0.3658 1.0643 -1.3685
v -0.4425 0.9930002 -1.546
v -0.1859 1.1524 -1.174
v 1.323489E-23 1.2447 -0.8575998
v -0.4582 1.0444 -1.3302
v -0.372 1.1267 -1.1474
v -0.1831 1.2406 -0.8592998
v -0.4826 1.0011 -1.457
v -0.5066 1.0348 -1.3066
v -0.4666 1.1013 -1.1276
v -0.374 1.2174 -0.8627998
v -0.5131 1.0903 -1.114
v -0.5063 1.1579 -0.9100997
v -0.4749 1.1873 -0.8701998
v -0.1779 0.9949999 0.7247002
v 5.293956E-23 0.9968999 0.7268002
v -0.1967 0.8765998 0.9709002
v -0.171 1.1046 0.4909002
v 7.940934E-23 0.8827998 0.9829002
v -0.4179 0.8687998 0.9479001
v -0.3953 0.9949999 0.6930002
v -0.3865 1.0981 0.4748002
v -0.372 1.2 0.2447002
v -0.5506 0.9994999 0.6409002
v -0.5655 0.8678998 0.9009001
v -0.679 0.8616999 0.8479001
v -0.6251 1.009 0.5822002
v -0.5439 1.0932 0.4410002
v -0.5301 1.1797 0.2357002
v -0.7157 0.8668999 0.8134001
v -0.1642 1.2125 0.2522002
v 5.9557E-23 1.1055 0.4936002
v 3.970467E-23 1.2145 0.2532002
v -0.5652 1.1624 0.2645002
v -0.597 1.0925 0.4159002
v -0.6224 1.0929 0.4082002
v -0.6562 1.0208 0.5423002
v -0.7465 0.8705999 0.4188001
v -0.7419 0.8802999 0.1762002
v -0.6922 1.0167 0.4271002
v -0.6626 1.071 0.3289002
v -0.6317 1.1224 0.2144002
v -0.7403 0.8838 0.08900014
v -0.6114 1.1499 0.1330002
v -0.7373 0.8901 -0.06519986
v -0.5862 1.1794 -0.03609981
v -0.7317 0.9030001 -0.3223999
v -0.5759 1.1861 -0.3196998
v -0.7236 0.9213001 -0.6862998
v -0.5814 1.1655 -0.5750998
v -0.591 1.132 -0.6995997
v -0.6024 1.1024 -0.7807998
v -0.7135 0.9266001 -0.8064998
v -0.6168 1.0688 -0.8662998
v -0.685 0.9421002 -1.0122
v -0.6418 1.0016 -1.0328
v -5.293956E-23 1.0855 -1.44
v -5.293956E-23 1.0043 -1.7271
v 0.1916 0.9987003 -1.7063
v 0.1878 1.0808 -1.4225
v 0.3619 0.9956003 -1.6283
v 0.3658 1.0643 -1.3685
v 0.4425 0.9930002 -1.546
v 0.4582 1.0444 -1.3302
v 0.4826 1.0011 -1.457
v 0.5066 1.0348 -1.3066
v 0.4666 1.1013 -1.1276
v 0.5131 1.0903 -1.114
v 0.372 1.1267 -1.1474
v 0.1859 1.1524 -1.174
v -2.646978E-23 1.1593 -1.1786
v 0.5063 1.1579 -0.9100997
v 0.4749 1.1873 -0.8701998
v 0.374 1.2174 -0.8627998
v 0.1831 1.2406 -0.8592998
v 1.323489E-23 1.2447 -0.8575998
v 5.293956E-23 0.9968999 0.7268002
v 0.1967 0.8765998 0.9709002
v 7.940934E-23 0.8827998 0.9829002
v 0.1779 0.9949999 0.7247002
v 0.4179 0.8687998 0.9479001
v 0.3953 0.9949999 0.6930002
v 0.5655 0.8678998 0.9009001
v 0.5506 0.9994999 0.6409002
v 0.679 0.8616999 0.8479001
v 0.6251 1.009 0.5822002
v 0.171 1.1046 0.4909002
v 5.9557E-23 1.1055 0.4936002
v 0.3865 1.0981 0.4748002
v 0.5439 1.0932 0.4410002
v 0.597 1.0925 0.4159002
v 0.1642 1.2125 0.2522002
v 3.970467E-23 1.2145 0.2532002
v 0.372 1.2 0.2447002
v 0.5301 1.1797 0.2357002
v 0.5652 1.1624 0.2645002
v 0.6224 1.0929 0.4082002
v 0.6562 1.0208 0.5423002
v 0.7157 0.8668999 0.8134001
v 0.7465 0.8705999 0.4188001
v 0.6922 1.0167 0.4271002
v 0.7419 0.8802999 0.1762002
v 0.6626 1.071 0.3289002
v 0.6317 1.1224 0.2144002
v 0.7403 0.8838 0.08900014
v 0.6114 1.1499 0.1330002
v 0.7373 0.8901 -0.06519986
v 0.5862 1.1794 -0.03609981
v 0.7317 0.9030001 -0.3223999
v 0.5759 1.1861 -0.3196998
v 0.7236 0.9213001 -0.6862998
v 0.5814 1.1655 -0.5750998
v 0.591 1.132 -0.6995997
v 0.6024 1.1024 -0.7807998
v 0.7135 0.9266001 -0.8064998
v 0.6168 1.0688 -0.8662998
v 0.685 0.9421002 -1.0122
v 0.6418 1.0016 -1.0328
vt 0.6003 0.2329
vt 0.7364 0.2407
vt 0.7357 0.048
vt 0.8607 0.0942
vt 0.6035 0.41
vt 0.5969 0.0383
vt 0.8672 0.2694
vt 0.922 0.1444
vt 0.738 0.4094
vt 0.6073 0.6267
vt 0.937 0.2888
vt 0.8743 0.4192
vt 0.7396 0.6225
vt 0.9537 0.2013
vt 0.9737 0.3013
vt 0.9455 0.4259
vt 0.8782 0.6141
vt 0.9805 0.4318
vt 0.9774 0.5718
vt 0.953 0.6027
vt 0.4225 0.2179
vt 0.5509 0.226
vt 0.4211 0.0395
vt 0.4159 0.386
vt 0.5635 0.0438
vt 0.2603 0.04
vt 0.2642 0.2259
vt 0.2598 0.3831
vt 0.2587 0.5473
vt 0.1495 0.2502
vt 0.1511 0.0601
vt 0.0652 0.0838
vt 0.0921 0.2837
vt 0.1444 0.3939
vt 0.1438 0.5395
vt 0.0364 0.1037
vt 0.409 0.5566
vt 0.5394 0.3932
vt 0.5275 0.5648
vt 0.1198 0.516
vt 0.1044 0.406
vt 0.0857 0.4094
vt 0.0675 0.3089
vt 0.9741 0.7367
vt 0.8156 0.741
vt 0.9777 0.8389
vt 0.9127 0.8784
vt 0.837 0.9166
vt 0.7586 0.7424
vt 0.7832 0.9381
vt 0.6578 0.7448
vt 0.6721 0.9613
vt 0.4898 0.7503
vt 0.4868 0.9647
vt 0.2519 0.7581
vt 0.3203 0.9477
vt 0.2393 0.9241
vt 0.1866 0.9025
vt 0.1732 0.7632
vt 0.1312 0.8775
vt 0.038 0.7801
vt 0.0231 0.8291
vt 0.6003 0.2329
vt 0.5969 0.0383
vt 0.7357 0.048
vt 0.7364 0.2407
vt 0.8607 0.0942
vt 0.8672 0.2694
vt 0.922 0.1444
vt 0.937 0.2888
vt 0.9537 0.2013
vt 0.9737 0.3013
vt 0.9455 0.4259
vt 0.9805 0.4318
vt 0.8743 0.4192
vt 0.738 0.4094
vt 0.6035 0.41
vt 0.9774 0.5718
vt 0.953 0.6027
vt 0.8782 0.6141
vt 0.7396 0.6225
vt 0.6073 0.6267
vt 0.5509 0.226
vt 0.4211 0.0395
vt 0.5635 0.0438
vt 0.4225 0.2179
vt 0.2603 0.04
vt 0.2642 0.2259
vt 0.1511 0.0601
vt 0.1495 0.2502
vt 0.0652 0.0838
vt 0.0921 0.2837
vt 0.4159 0.386
vt 0.5394 0.3932
vt 0.2598 0.3831
vt 0.1444 0.3939
vt 0.1044 0.406
vt 0.409 0.5566
vt 0.5275 0.5648
vt 0.2587 0.5473
vt 0.1438 0.5395
vt 0.1198 0.516
vt 0.0857 0.4094
vt 0.0675 0.3089
vt 0.0364 0.1037
vt 0.9741 0.7367
vt 0.9777 0.8389
vt 0.8156 0.741
vt 0.9127 0.8784
vt 0.837 0.9166
vt 0.7586 0.7424
vt 0.7832 0.9381
vt 0.6578 0.7448
vt 0.6721 0.9613
vt 0.4898 0.7503
vt 0.4868 0.9647
vt 0.2519 0.7581
vt 0.3203 0.9477
vt 0.2393 0.9241
vt 0.1866 0.9025
vt 0.1732 0.7632
vt 0.1312 0.8775
vt 0.038 0.7801
vt 0.0231 0.8291
vn 0 0.9618271 -0.2736579
vn -0.1055131 0.9568362 -0.2707978
vn -0.09135993 0.957463 -0.2737115
vn -0.1891971 0.9462758 -0.262234
vn 0 0.9639868 -0.2659502
vn 0 0.9622539 -0.2721531
vn -0.2345965 0.9369131 -0.2591493
vn -0.2960671 0.9227338 -0.2467927
vn -0.1042702 0.9574437 -0.269127
vn 0 0.9640965 -0.265552
vn -0.3077467 0.9158119 -0.2580321
vn -0.2325725 0.9320756 -0.2777503
vn -0.07372255 0.9573073 -0.2795134
vn -0.3466078 0.9060661 -0.2427081
vn -0.308582 0.9137363 -0.2643162
vn -0.3014108 0.9106442 -0.2826282
vn -0.1818843 0.9343637 -0.3064027
vn -0.2985129 0.9113108 -0.2835537
vn -0.4108598 0.8612353 -0.2991122
vn -0.2991951 0.9020734 -0.31104
vn -0.03952532 0.9025686 0.428728
vn 0 0.9061844 0.4228829
vn -0.05799228 0.9048492 0.421764
vn -0.03639276 0.9088045 0.415632
vn 0 0.9134434 0.4069657
vn -0.104232 0.896342 0.430937
vn -0.09246694 0.897504 0.4312035
vn -0.08918215 0.9085644 0.4081142
vn -0.1004832 0.9109069 0.4001897
vn -0.1728009 0.8869402 0.428342
vn -0.1819044 0.8837672 0.4311221
vn -0.2556332 0.8678085 0.4260986
vn -0.2218521 0.8773221 0.4255439
vn -0.1562603 0.903957 0.3980507
vn -0.1331399 0.9133767 0.3847294
vn -0.272584 0.8636644 0.4240068
vn -0.0407573 0.9107072 0.4110369
vn 0 0.9088246 0.4171783
vn 0 0.9107556 0.4129457
vn -0.1460133 0.9143213 0.3777522
vn -0.1583304 0.8993942 0.4074574
vn -0.1139383 0.8991428 0.4225639
vn -0.2013555 0.8834339 0.4230843
vn -0.9372753 0.348569 -0.003834612
vn -0.9147707 0.4036816 -0.01534935
vn -0.9233641 0.3830872 -0.02535632
vn -0.9074279 0.4172426 -0.04983087
vn -0.8999431 0.4320779 -0.05840516
vn -0.903366 0.4288169 -0.006776399
vn -0.8904226 0.4520971 -0.05249589
vn -0.890609 0.4547284 -0.006142645
vn -0.8820125 0.4702968 -0.0295789
vn -0.8790638 0.4767023 -0.00136986
vn -0.8727276 0.4880174 -0.01362538
vn -0.8544243 0.5181966 -0.03783417
vn -0.8555067 0.5162647 -0.03973824
vn -0.8460749 0.5276986 -0.07544194
vn -0.84278 0.5339192 -0.06820627
vn -0.8401585 0.5389272 -0.06075546
vn -0.8367124 0.5422599 -0.07659382
vn -0.8297372 0.5507781 -0.09044152
vn -0.8215163 0.5608063 -0.1029919
vn 0 0.9618271 -0.2736579
vn 0 0.9622539 -0.2721531
vn 0.09135993 0.957463 -0.2737115
vn 0.1055131 0.9568362 -0.2707978
vn 0.1891971 0.9462758 -0.2622341
vn 0.2345966 0.9369131 -0.2591492
vn 0.2960671 0.9227338 -0.2467928
vn 0.3077467 0.915812 -0.258032
vn 0.3466078 0.9060661 -0.2427081
vn 0.308582 0.9137363 -0.2643163
vn 0.3014108 0.9106442 -0.2826282
vn 0.2985128 0.9113108 -0.2835539
vn 0.2325725 0.9320756 -0.2777503
vn 0.1042702 0.9574437 -0.269127
vn 0 0.9639868 -0.2659502
vn 0.4108601 0.861235 -0.2991125
vn 0.2991952 0.9020734 -0.31104
vn 0.1818843 0.9343637 -0.3064027
vn 0.07372255 0.9573073 -0.2795134
vn 0 0.9640965 -0.265552
vn 0 0.9061844 0.4228829
vn 0.05799223 0.9048492 0.421764
vn 0 0.9134434 0.4069657
vn 0.03952532 0.9025686 0.428728
vn 0.104232 0.8963419 0.4309372
vn 0.09246695 0.8975039 0.4312036
vn 0.1819044 0.8837672 0.4311221
vn 0.1728009 0.8869402 0.428342
vn 0.2556333 0.8678085 0.4260987
vn 0.221852 0.8773221 0.4255438
vn 0.03639276 0.9088045 0.415632
vn 0 0.9088246 0.4171783
vn 0.08918216 0.9085644 0.4081141
vn 0.1562602 0.9039571 0.3980507
vn 0.1583303 0.8993943 0.4074574
vn 0.0407573 0.9107072 0.4110369
vn 0 0.9107556 0.4129457
vn 0.1004832 0.9109068 0.4001898
vn 0.1331399 0.9133767 0.3847294
vn 0.1460133 0.9143213 0.3777522
vn 0.1139383 0.8991429 0.4225637
vn 0.2013554 0.8834342 0.423084
vn 0.2725844 0.863664 0.4240073
vn 0.9372753 0.348569 -0.003834612
vn 0.9233641 0.3830872 -0.02535632
vn 0.9147707 0.4036816 -0.01534935
vn 0.9074279 0.4172426 -0.04983087
vn 0.8999431 0.4320779 -0.05840515
vn 0.903366 0.428817 -0.006776399
vn 0.8904226 0.4520971 -0.05249589
vn 0.890609 0.4547284 -0.006142645
vn 0.8820125 0.4702968 -0.0295789
vn 0.8790638 0.4767023 -0.00136986
vn 0.8727276 0.4880173 -0.01362538
vn 0.8544243 0.5181965 -0.03783417
vn 0.8555067 0.5162647 -0.03973824
vn 0.8460749 0.5276986 -0.07544194
vn 0.8427801 0.5339192 -0.06820627
vn 0.8401585 0.5389272 -0.06075545
vn 0.8367124 0.5422599 -0.07659382
vn 0.8297372 0.5507781 -0.09044152
vn 0.8215163 0.5608063 -0.1029919
g Glass_36_0
f 3/3/3 2/2/2 1/1/1
f 4/4/4 2/2/2 3/3/3
f 1/1/1 2/2/2 5/5/5
f 6/6/6 3/3/3 1/1/1
f 7/7/7 2/2/2 4/4/4
f 8/8/8 7/7/7 4/4/4
f 9/9/9 2/2/2 7/7/7
f 9/9/9 5/5/5 2/2/2
f 10/10/10 5/5/5 9/9/9
f 11/11/11 7/7/7 8/8/8
f 12/12/12 7/7/7 11/11/11
f 12/12/12 9/9/9 7/7/7
f 13/13/13 9/9/9 12/12/12
f 13/13/13 10/10/10 9/9/9
f 8/8/8 14/14/14 11/11/11
f 14/14/14 15/15/15 11/11/11
f 16/16/16 11/11/11 15/15/15
f 16/16/16 12/12/12 11/11/11
f 17/17/17 12/12/12 16/16/16
f 17/17/17 13/13/13 12/12/12
f 18/18/18 16/16/16 15/15/15
f 19/19/19 16/16/16 18/18/18
f 20/20/20 16/16/16 19/19/19
f 20/20/20 17/17/17 16/16/16
f 23/23/23 22/22/22 21/21/21
f 24/24/24 21/21/21 22/22/22
f 25/25/25 22/22/22 23/23/23
f 23/23/23 21/21/21 26/26/26
f 26/26/26 21/21/21 27/27/27
f 28/28/28 27/27/27 21/21/21
f 24/24/24 28/28/28 21/21/21
f 29/29/29 28/28/28 24/24/24
f 28/28/28 30/30/30 27/27/27
f 31/31/31 27/27/27 30/30/30
f 26/26/26 27/27/27 31/31/31
f 31/31/31 30/30/30 32/32/32
f 32/32/32 30/30/30 33/33/33
f 34/34/34 33/33/33 30/30/30
f 34/34/34 30/30/30 28/28/28
f 35/35/35 34/34/34 28/28/28
f 29/29/29 35/35/35 28/28/28
f 33/33/33 36/36/36 32/32/32
f 37/37/37 29/29/29 24/24/24
f 37/37/37 24/24/24 38/38/38
f 39/39/39 37/37/37 38/38/38
f 35/35/35 40/40/40 34/34/34
f 40/40/40 41/41/41 34/34/34
f 41/41/41 33/33/33 34/34/34
f 40/40/40 42/42/42 41/41/41
f 41/41/41 43/43/43 33/33/33
f 42/42/42 43/43/43 41/41/41
f 43/43/43 36/36/36 33/33/33
f 38/38/38 24/24/24 22/22/22
f 46/46/46 45/45/45 44/44/44
f 47/47/47 45/45/45 46/46/46
f 48/48/48 45/45/45 47/47/47
f 49/49/49 45/45/45 48/48/48
f 50/50/50 49/49/49 48/48/48
f 51/51/51 49/49/49 50/50/50
f 50/50/50 52/52/52 51/51/51
f 52/52/52 53/53/53 51/51/51
f 54/54/54 53/53/53 52/52/52
f 55/55/55 53/53/53 54/54/54
f 56/56/56 55/55/55 54/54/54
f 56/56/56 57/57/57 55/55/55
f 57/57/57 58/58/58 55/55/55
f 58/58/58 59/59/59 55/55/55
f 58/58/58 60/60/60 59/59/59
f 59/59/59 60/60/60 61/61/61
f 61/61/61 60/60/60 62/62/62
f 65/65/65 64/64/64 63/63/63
f 66/66/66 65/65/65 63/63/63
f 65/65/65 66/66/66 67/67/67
f 68/68/68 67/67/67 66/66/66
f 67/67/67 68/68/68 69/69/69
f 70/70/70 69/69/69 68/68/68
f 71/71/71 69/69/69 70/70/70
f 72/72/72 71/71/71 70/70/70
f 70/70/70 73/73/73 72/72/72
f 73/73/73 74/74/74 72/72/72
f 75/75/75 73/73/73 70/70/70
f 68/68/68 75/75/75 70/70/70
f 76/76/76 75/75/75 68/68/68
f 66/66/66 76/76/76 68/68/68
f 77/77/77 76/76/76 66/66/66
f 63/63/63 77/77/77 66/66/66
f 74/74/74 73/73/73 78/78/78
f 79/79/79 78/78/78 73/73/73
f 80/80/80 79/79/79 73/73/73
f 75/75/75 80/80/80 73/73/73
f 81/81/81 80/80/80 75/75/75
f 76/76/76 81/81/81 75/75/75
f 82/82/82 81/81/81 76/76/76
f 77/77/77 82/82/82 76/76/76
f 85/85/85 84/84/84 83/83/83
f 86/86/86 83/83/83 84/84/84
f 84/84/84 87/87/87 86/86/86
f 88/88/88 86/86/86 87/87/87
f 87/87/87 89/89/89 88/88/88
f 90/90/90 88/88/88 89/89/89
f 89/89/89 91/91/91 90/90/90
f 92/92/92 90/90/90 91/91/91
f 86/86/86 93/93/93 83/83/83
f 93/93/93 94/94/94 83/83/83
f 95/95/95 93/93/93 86/86/86
f 88/88/88 95/95/95 86/86/86
f 88/88/88 90/90/90 95/95/95
f 96/96/96 95/95/95 90/90/90
f 90/90/90 92/92/92 96/96/96
f 97/97/97 96/96/96 92/92/92
f 93/93/93 98/98/98 94/94/94
f 98/98/98 99/99/99 94/94/94
f 100/100/100 98/98/98 93/93/93
f 95/95/95 100/100/100 93/93/93
f 101/101/101 100/100/100 95/95/95
f 96/96/96 101/101/101 95/95/95
f 102/102/102 101/101/101 96/96/96
f 97/97/97 102/102/102 96/96/96
f 103/103/103 102/102/102 97/97/97
f 103/103/103 97/97/97 104/104/104
f 92/92/92 104/104/104 97/97/97
f 104/104/104 92/92/92 105/105/105
f 91/91/91 105/105/105 92/92/92
f 108/108/108 107/107/107 106/106/106
f 108/108/108 109/109/109 107/107/107
f 108/108/108 110/110/110 109/109/109
f 108/108/108 111/111/111 110/110/110
f 111/111/111 112/112/112 110/110/110
f 111/111/111 113/113/113 112/112/112
f 114/114/114 112/112/112 113/113/113
f 115/115/115 114/114/114 113/113/113
f 115/115/115 116/116/116 114/114/114
f 115/115/115 117/117/117 116/116/116
f 117/117/117 118/118/118 116/116/116
f 119/119/119 118/118/118 117/117/117
f 120/120/120 119/119/119 117/117/117
f 121/121/121 120/120/120 117/117/117
f 122/122/122 120/120/120 121/121/121
f 122/122/122 121/121/121 123/123/123
f 122/122/122 123/123/123 124/124/124
