g ref_36
v -0.764 0.6414997 1.7844
v -0.7755 0.5447997 1.8069
v -0.7969 0.6133997 1.7524
v -0.811 0.5462997 1.7698
v -0.7089 0.6613997 1.8395
v -0.7087 0.5453997 1.8704
v -0.6123 0.6548997 1.9218
v -0.6109 0.5453997 1.947
v -0.5143 0.5468997 1.9935
v -0.3801 0.6118997 2.0572
v -0.401 0.5507997 2.04
v 0.7755 0.5447997 1.8069
v 0.7969 0.6133997 1.7524
v 0.811 0.5462997 1.7698
v 0.764 0.6414997 1.7844
v 0.7089 0.6613997 1.8395
v 0.7087 0.5453997 1.8704
v 0.6123 0.6548997 1.9218
v 0.6109 0.5453997 1.947
v 0.5143 0.5468997 1.9935
v 0.3801 0.6118997 2.0572
v 0.401 0.5507997 2.04
vt 0.137 0.6759
vt 0.1388 0.6113
vt 0.1046 0.6592
vt 0.1035 0.6133
vt 0.1911 0.6868
vt 0.2025 0.6102
vt 0.2792 0.6814
vt 0.2891 0.6097
vt 0.3651 0.6131
vt 0.4694 0.658
vt 0.4524 0.6178
vt 0.1388 0.6113
vt 0.1046 0.6592
vt 0.1035 0.6133
vt 0.137 0.6759
vt 0.1911 0.6868
vt 0.2025 0.6102
vt 0.2792 0.6814
vt 0.2891 0.6097
vt 0.3651 0.6131
vt 0.4694 0.658
vt 0.4524 0.6178
vn -0.7459663 0.2338108 0.6235918
vn -0.7073714 0.2425533 0.663923
vn -0.7467461 0.2550565 0.6142609
vn -0.6794308 0.3146555 0.6628466
vn -0.6695536 0.2072575 0.7132617
vn -0.645376 0.1872289 0.7405642
vn -0.5500833 0.1802797 0.8154187
vn -0.5133587 0.1862277 0.8377244
vn -0.4561907 0.1215801 0.8815374
vn -0.4232498 -0.01394201 0.9059058
vn -0.3725343 -0.1311892 0.9186988
vn 0.7073712 0.2425532 0.6639231
vn 0.7467452 0.2550567 0.6142618
vn 0.679431 0.3146552 0.6628466
vn 0.7459658 0.2338109 0.6235924
vn 0.6695536 0.2072575 0.7132617
vn 0.645376 0.1872289 0.7405642
vn 0.5500833 0.1802797 0.8154187
vn 0.5133587 0.1862277 0.8377244
vn 0.4561907 0.1215801 0.8815374
vn 0.4232498 -0.01394201 0.9059058
vn 0.3725343 -0.1311892 0.9186988
g ref_36_0
f 3/3/3 2/2/2 1/1/1
f 4/4/4 2/2/2 3/3/3
f 1/1/1 2/2/2 5/5/5
f 2/2/2 6/6/6 5/5/5
f 5/5/5 6/6/6 7/7/7
f 6/6/6 8/8/8 7/7/7
f 9/9/9 7/7/7 8/8/8
f 7/7/7 9/9/9 10/10/10
f 9/9/9 11/11/11 10/10/10
f 14/14/14 13/13/13 12/12/12
f 15/15/15 12/12/12 13/13/13
f 12/12/12 15/15/15 16/16/16
f 17/17/17 12/12/12 16/16/16
f 17/17/17 16/16/16 18/18/18
f 19/19/19 17/17/17 18/18/18
f 18/18/18 20/20/20 19/19/19
f 20/20/20 18/18/18 21/21/21
f 22/22/22 20/20/20 21/21/21
