g Taillights_36
v -0.6869 0.8413004 -1.8914
v -0.7608 0.7992003 -1.7757
v -0.7163 0.7537004 -1.8917
v -0.6282 0.7603003 -1.9784
v -0.7842 0.7508003 -1.7678
v -0.6117 0.8673003 -1.9779
v -0.5233 0.7605003 -2.0219
v -0.517 0.8842003 -2.031
v -0.4363 0.8886003 -2.0507
v -0.4157 0.8294003 -2.0513
v -0.3918 0.7605003 -2.052
v -0.3831 0.8046003 -2.0574
v -0.1971 0.8031003 -2.0822
v -0.3831 0.8046003 -2.0574
v -0.1958 0.7606003 -2.0793
v -1.058791E-22 0.8017003 -2.0887
v -0.3918 0.7605003 -2.052
v -5.293956E-23 0.7608003 -2.0857
v 0.6869 0.8413004 -1.8914
v 0.7163 0.7537004 -1.8917
v 0.7608 0.7992003 -1.7757
v 0.6282 0.7603003 -1.9784
v 0.7842 0.7508003 -1.7678
v 0.6117 0.8673003 -1.9779
v 0.5233 0.7605003 -2.0219
v 0.517 0.8842003 -2.031
v 0.4363 0.8886003 -2.0507
v 0.4157 0.8294003 -2.0513
v 0.3918 0.7605003 -2.052
v 0.3831 0.8046003 -2.0574
v 0.1971 0.8031003 -2.0822
v 0.1958 0.7606003 -2.0793
v 0.3831 0.8046003 -2.0574
v -1.058791E-22 0.8017003 -2.0887
v 0.3918 0.7605003 -2.052
v -5.293956E-23 0.7608003 -2.0857
vt 0.3488 0.1689
vt 0.4747 0.1398
vt 0.3685 0.0905
vt 0.2545 0.098
vt 0.4953 0.0964
vt 0.2437 0.1912
vt 0.1461 0.1029
vt 0.1416 0.2102
vt 0.0617 0.2164
vt 0.0406 0.1657
vt 0.016 0.1067
vt 0.0079 0.1452
vt 0.2534 0.0622
vt 0.4349 0.0595
vt 0.2516 0.0254
vt 0.0624 0.064
vt 0.443 0.021
vt 0.0619 0.0286
vt 0.3488 0.1689
vt 0.3685 0.0905
vt 0.4747 0.1398
vt 0.2545 0.098
vt 0.4953 0.0964
vt 0.2437 0.1912
vt 0.1461 0.1029
vt 0.1416 0.2102
vt 0.0617 0.2164
vt 0.0406 0.1657
vt 0.016 0.1067
vt 0.0079 0.1452
vt 0.2534 0.0622
vt 0.2516 0.0254
vt 0.4349 0.0595
vt 0.0624 0.064
vt 0.443 0.021
vt 0.0619 0.0286
vn -0.7779886 0.2233222 -0.5872487
vn -0.8376718 0.3161637 -0.445361
vn -0.7888514 0.2729818 -0.5506308
vn -0.5918354 0.1246817 -0.7963576
vn -0.8313984 0.3288426 -0.4479277
vn -0.5834404 0.0555755 -0.8102522
vn -0.3373264 -0.0247278 -0.9410629
vn -0.3469711 -0.0512207 -0.9364762
vn -0.2279389 -0.06363079 -0.9715941
vn -0.2247311 -0.06820623 -0.9720308
vn -0.1882552 -0.07962894 -0.9788867
vn -0.1896805 -0.08101635 -0.9784976
vn -0.08400366 -0.07039654 -0.9939757
vn -0.1896805 -0.08101635 -0.9784976
vn -0.08254221 -0.07224701 -0.9939654
vn 0 -0.0726019 -0.997361
vn -0.1882552 -0.07962894 -0.9788867
vn 0 -0.07315369 -0.9973207
vn 0.7779885 0.2233222 -0.5872488
vn 0.7888514 0.2729819 -0.5506308
vn 0.8376718 0.3161637 -0.445361
vn 0.5918354 0.1246817 -0.7963575
vn 0.8313984 0.3288426 -0.4479277
vn 0.5834404 0.0555755 -0.8102522
vn 0.3373265 -0.02472781 -0.9410629
vn 0.3469711 -0.0512207 -0.9364762
vn 0.2279389 -0.06363079 -0.9715941
vn 0.2247311 -0.06820623 -0.9720308
vn 0.1882553 -0.07962894 -0.9788867
vn 0.1896805 -0.08101635 -0.9784976
vn 0.08400366 -0.07039654 -0.9939757
vn 0.08254221 -0.07224701 -0.9939654
vn 0.1896805 -0.08101635 -0.9784976
vn 0 -0.0726019 -0.997361
vn 0.1882553 -0.07962894 -0.9788867
vn 0 -0.07315369 -0.9973207
g Taillights_36_0
f 3/3/3 2/2/2 1/1/1
f 4/4/4 3/3/3 1/1/1
f 5/5/5 2/2/2 3/3/3
f 6/6/6 4/4/4 1/1/1
f 7/7/7 4/4/4 6/6/6
f 8/8/8 7/7/7 6/6/6
f 8/8/8 9/9/9 7/7/7
f 10/10/10 7/7/7 9/9/9
f 11/11/11 7/7/7 10/10/10
f 11/11/11 10/10/10 12/12/12
f 15/15/15 14/14/14 13/13/13
f 15/15/15 13/13/13 16/16/16
f 17/17/17 14/14/14 15/15/15
f 18/18/18 15/15/15 16/16/16
f 21/21/21 20/20/20 19/19/19
f 20/20/20 22/22/22 19/19/19
f 21/21/21 23/23/23 20/20/20
f 22/22/22 24/24/24 19/19/19
f 22/22/22 25/25/25 24/24/24
f 25/25/25 26/26/26 24/24/24
f 27/27/27 26/26/26 25/25/25
f 25/25/25 28/28/28 27/27/27
f 25/25/25 29/29/29 28/28/28
f 28/28/28 29/29/29 30/30/30
f 33/33/33 32/32/32 31/31/31
f 31/31/31 32/32/32 34/34/34
f 33/33/33 35/35/35 32/32/32
f 32/32/32 36/36/36 34/34/34
