g model_car_86_matte_detail_LOD1
v 0.1004831 0.6421088 2.036891
v 0.1007864 0.594697 2.045868
v 8.34465E-07 0.5956067 2.048105
v 8.34465E-07 0.6424824 2.039576
v 0.2010439 0.6419111 2.028364
v 0.2016152 0.5942231 2.03702
v 0.2943755 0.6412505 2.017223
v 0.2972726 0.594142 2.026713
v 0.3858038 0.6402406 2.000569
v 0.3902712 0.5878226 2.016557
v 0.2009329 0.658021 2.025873
v 0.100429 0.6583134 2.034389
v 8.34465E-07 0.6586058 2.037088
v 0.3846558 0.6574876 1.997414
v 0.4214811 0.657382 1.984164
v 0.4229242 0.6404815 1.98699
v 0.4565491 0.6589956 1.965168
v 0.4389961 0.6401485 1.979236
v 0.2938259 0.6577502 2.014559
v 0.4233601 0.6233563 1.992538
v 0.703198 0.3607601 1.78181
v 0.697986 0.4472984 1.787908
v 0.7366307 0.4311562 1.740074
v 0.7416884 0.3564117 1.736007
v 0.7084073 0.2742243 1.775715
v 0.7467434 0.2816674 1.731943
v 0.7672882 0.3375537 1.701033
v 0.7560763 0.4089813 1.715299
v 0.7676781 0.3868092 1.69949
v 0.7877816 0.3363191 1.653259
v 0.7883366 0.309222 1.653784
v 0.7779776 0.2949289 1.67646
v 0.7668983 0.2882981 1.702574
v 0.6700712 0.2667813 1.819488
v 0.6647076 0.3581121 1.827614
v 0.6232064 0.2597119 1.865384
v 0.6197543 0.3542051 1.869415
v 0.5668598 0.2526453 1.911277
v 0.5630313 0.3476636 1.907898
v 0.6163022 0.4486955 1.873447
v 0.5638869 0.447951 1.911155
v 0.5125871 0.2477473 1.943922
v 0.5103886 0.3455436 1.943529
v 0.4583117 0.2426381 1.976529
v 0.4552279 0.3433803 1.97505
v 0.5087749 0.4452814 1.943927
v 0.4536304 0.4428798 1.976667
v 0.4127763 0.3414959 1.994666
v 0.4115579 0.4409899 1.996497
v 0.3712589 0.3395925 2.009672
v 0.3725558 0.4399447 2.014659
v 0.2873603 0.3407973 2.02596
v 0.2881482 0.4385883 2.029415
v 0.1954935 0.3417964 2.037064
v 0.195618 0.4379981 2.039855
v 0.09750211 0.3426656 2.045108
v 0.09753734 0.4368609 2.048695
v 8.34465E-07 0.3435103 2.047439
v 8.34465E-07 0.4368068 2.050723
v 0.3708338 0.2361888 2.009173
v 0.2867186 0.2336221 2.024306
v 0.09763747 0.233151 2.043519
v 0.1955422 0.2328422 2.035074
v 0.4140083 0.239936 1.993118
v 8.34465E-07 0.2330832 2.045132
v 0.659344 0.4494401 1.835742
v -0.1004814 0.6421088 2.036891
v 8.34465E-07 0.6424824 2.039576
v 8.34465E-07 0.5956067 2.048105
v -0.1007847 0.594697 2.045868
v -0.2010449 0.6419111 2.028364
v -0.2016135 0.5942231 2.03702
v -0.2943739 0.6412505 2.017223
v -0.2972736 0.594142 2.026713
v -0.385802 0.6402406 2.000569
v -0.3902695 0.5878226 2.016557
v -0.2009339 0.658021 2.025873
v -0.1004273 0.6583134 2.034389
v 8.34465E-07 0.6586058 2.037088
v -0.3846568 0.6574876 1.997414
v -0.4214821 0.657382 1.984164
v -0.4229225 0.6404815 1.98699
v -0.4565474 0.6589956 1.965168
v -0.4389971 0.6401485 1.979236
v -0.2938269 0.6577502 2.014559
v -0.4233584 0.6233563 1.992538
v -0.7031963 0.3607601 1.78181
v -0.7416867 0.3564117 1.736007
v -0.736629 0.4311562 1.740074
v -0.697987 0.4472984 1.787908
v -0.7084084 0.2742243 1.775715
v -0.7467444 0.2816674 1.731943
v -0.7672892 0.3375537 1.701033
v -0.7560773 0.4089813 1.715299
v -0.7676791 0.3868092 1.69949
v -0.7877799 0.3363191 1.653259
v -0.7883376 0.309222 1.653784
v -0.7779785 0.2949289 1.67646
v -0.7668966 0.2882981 1.702574
v -0.6700722 0.2667813 1.819488
v -0.6647086 0.3581121 1.827614
v -0.6232047 0.2597119 1.865384
v -0.6197553 0.3542051 1.869415
v -0.5668581 0.2526453 1.911277
v -0.5630296 0.3476636 1.907898
v -0.6163032 0.4486955 1.873447
v -0.5638878 0.447951 1.911155
v -0.5125854 0.2477473 1.943922
v -0.5103868 0.3455436 1.943529
v -0.45831 0.2426381 1.976529
v -0.4552288 0.3433803 1.97505
v -0.5087732 0.4452814 1.943927
v -0.4536287 0.4428798 1.976667
v -0.4127773 0.3414959 1.994666
v -0.4115589 0.4409899 1.996497
v -0.3712572 0.3395925 2.009672
v -0.3725541 0.4399447 2.014659
v -0.2873613 0.3407973 2.02596
v -0.2881492 0.4385883 2.029415
v -0.1954917 0.3417964 2.037064
v -0.1956163 0.4379981 2.039855
v -0.09750313 0.3426656 2.045108
v -0.09753829 0.4368609 2.048695
v 8.34465E-07 0.3435103 2.047439
v 8.34465E-07 0.4368068 2.050723
v -0.3708321 0.2361888 2.009173
v -0.2867169 0.2336221 2.024306
v -0.09763849 0.233151 2.043519
v -0.1955432 0.2328422 2.035074
v -0.4140066 0.239936 1.993118
v 8.34465E-07 0.2330832 2.045132
v -0.6593423 0.4494401 1.835742
vn 0.05465084 0.1747419 0.9830964
vn 0.05465084 0.1819105 0.9817952
vn 0.0008869171 0.1819105 0.9833147
vn 0.0008869171 0.1747419 0.9846139
vn 0.0994541 0.1783262 0.9789324
vn 0.09766197 0.1872868 0.9774384
vn 0.1352968 0.2087924 0.9685559
vn 0.1317125 0.2249215 0.9654337
vn 0.1998135 0.244635 0.9488036
vn 0.1747236 0.2625564 0.9489656
vn 0.1012462 0.1550285 0.9827082
vn 0.05465084 0.1532363 0.9866772
vn 0.0008869171 0.1532363 0.9881892
vn 0.2266954 0.1801183 0.9571659
vn 0.3861951 0.1962475 0.9012992
vn 0.3593131 0.2535957 0.8980998
vn 0.4489197 0.2087924 0.8688365
vn 0.4471276 0.2159609 0.868008
vn 0.1496338 0.1657812 0.9747442
vn 0.330639 0.3001911 0.894742
vn 0.7661269 0.0009052157 0.6426888
vn 0.7715032 0.0009052157 0.6362248
vn 0.7786717 0.00986588 0.627354
vn 0.7804639 0.01165801 0.6250921
vn 0.7589583 0.0009052157 0.6511386
vn 0.7786717 0.01165801 0.6273232
vn 0.8539413 0.01345015 0.5201955
vn 0.8037616 0.01524228 0.5947562
vn 0.8682783 0.008073747 0.4960116
vn 0.9166659 0.008073747 0.3995729
vn 0.9148737 0.008073747 0.4036593
vn 0.9166659 0.008073747 0.3995729
vn 0.8378121 0.01703435 0.545693
vn 0.7249079 -0.01163971 0.6887475
vn 0.7231157 -0.01163971 0.6906289
vn 0.6406777 0.004489481 0.7677968
vn 0.631717 -0.008055449 0.7751572
vn 0.5672003 0.02599502 0.8231695
vn 0.561824 0.004489481 0.8272446
vn 0.61738 -0.02060038 0.7863953
vn 0.5546554 -0.01880825 0.8318675
vn 0.5206049 0.02778715 0.8533454
vn 0.5206049 0.00986588 0.8537407
vn 0.4525039 0.01524228 0.8916321
vn 0.4614646 0.006281614 0.8871364
vn 0.5206049 -0.006263316 0.8537747
vn 0.4704252 -0.004471183 0.8824285
vn 0.3844029 -0.009847581 0.9231129
vn 0.4041164 -0.02060038 0.9144756
vn 0.2446167 -0.02418464 0.9693182
vn 0.2517853 -0.04031378 0.9669431
vn 0.1478417 -0.02597678 0.9886699
vn 0.1478417 -0.03852171 0.9882606
vn 0.1012462 -0.02418464 0.9945674
vn 0.1012462 -0.03314531 0.9943091
vn 0.05285871 -0.02597678 0.9982641
vn 0.05465084 -0.03493744 0.9978941
vn 0.0008869171 -0.02597678 0.9996622
vn 0.0008869171 -0.03672957 0.9993249
vn 0.2356561 -0.009847581 0.9717866
vn 0.1496338 -0.01343185 0.9886502
vn 0.05285871 -0.01701611 0.998457
vn 0.1012462 -0.01701611 0.9947159
vn 0.3646895 -0.0008869171 0.9311287
vn 0.0008869171 -0.01701611 0.9998548
vn 0.7195314 -0.01163971 0.6943623
vn -0.05466914 0.1747419 0.9830954
vn 0.0008869171 0.1747419 0.9846139
vn 0.0008869171 0.1819105 0.9833147
vn -0.05466914 0.1819105 0.9817942
vn -0.09947246 0.1783262 0.9789305
vn -0.09768027 0.1872868 0.9774365
vn -0.135315 0.2087924 0.9685534
vn -0.1317307 0.2249215 0.9654312
vn -0.1998318 0.244635 0.9487998
vn -0.1747419 0.2625564 0.9489623
vn -0.1012645 0.1550285 0.9827063
vn -0.05466914 0.1532363 0.9866762
vn 0.0008869171 0.1532363 0.9881892
vn -0.2267137 0.1801183 0.9571616
vn -0.3862134 0.1962475 0.9012914
vn -0.3593314 0.2535957 0.8980925
vn -0.448938 0.2087924 0.868827
vn -0.4471458 0.2159609 0.8679986
vn -0.1496521 0.1657812 0.9747415
vn -0.3306573 0.3001911 0.8947352
vn -0.7661452 0.0009052157 0.6426669
vn -0.7804821 0.01165801 0.6250694
vn -0.77869 0.00986588 0.6273313
vn -0.7715215 0.0009052157 0.6362026
vn -0.7589766 0.0009052157 0.6511173
vn -0.77869 0.01165801 0.6273005
vn -0.8539595 0.01345015 0.5201656
vn -0.8037799 0.01524228 0.5947315
vn -0.8682966 0.008073747 0.4959797
vn -0.9166841 0.008073747 0.3995311
vn -0.914892 0.008073747 0.4036179
vn -0.9166841 0.008073747 0.3995311
vn -0.8378304 0.01703435 0.5456648
vn -0.7249261 -0.01163971 0.6887283
vn -0.723134 -0.01163971 0.6906097
vn -0.640696 0.004489481 0.7677816
vn -0.6317353 -0.008055449 0.7751423
vn -0.5672186 0.02599502 0.823157
vn -0.5618421 0.004489481 0.8272323
vn -0.6173982 -0.02060038 0.786381
vn -0.5546736 -0.01880825 0.8318554
vn -0.5206231 0.02778715 0.8533343
vn -0.5206231 0.00986588 0.8537296
vn -0.4525222 0.01524228 0.8916228
vn -0.4614828 0.006281614 0.8871269
vn -0.5206231 -0.006263316 0.8537636
vn -0.4704435 -0.004471183 0.8824188
vn -0.3844212 -0.009847581 0.9231053
vn -0.4041347 -0.02060038 0.9144675
vn -0.244635 -0.02418464 0.9693136
vn -0.2518036 -0.04031378 0.9669384
vn -0.14786 -0.02597678 0.9886671
vn -0.14786 -0.03852171 0.9882578
vn -0.1012645 -0.02418464 0.9945655
vn -0.09947246 -0.03314531 0.9944881
vn -0.05287701 -0.02597678 0.9982631
vn -0.05466914 -0.03493744 0.9978931
vn 0.0008869171 -0.02597678 0.9996622
vn 0.0008869171 -0.03672957 0.9993249
vn -0.2356743 -0.009847581 0.9717822
vn -0.1496521 -0.01343185 0.9886475
vn -0.05287701 -0.01701611 0.9984561
vn -0.1012645 -0.01701611 0.994714
vn -0.3647078 -0.0008869171 0.9311216
vn 0.0008869171 -0.01701611 0.9998548
vn -0.7195497 -0.01163971 0.6943434
g model_car_86_matte_detail_LOD1_0
f 3/3/3 2/2/2 1/1/1
f 4/4/4 3/3/3 1/1/1
f 1/1/1 2/2/2 5/5/5
f 2/2/2 6/6/6 5/5/5
f 5/5/5 6/6/6 7/7/7
f 6/6/6 8/8/8 7/7/7
f 7/7/7 8/8/8 9/9/9
f 8/8/8 10/10/10 9/9/9
f 1/1/1 5/5/5 11/11/11
f 12/12/12 1/1/1 11/11/11
f 4/4/4 1/1/1 12/12/12
f 13/13/13 4/4/4 12/12/12
f 7/7/7 9/9/9 14/14/14
f 15/15/15 14/14/14 9/9/9
f 16/16/16 15/15/15 9/9/9
f 17/17/17 15/15/15 16/16/16
f 18/18/18 17/17/17 16/16/16
f 19/19/19 7/7/7 14/14/14
f 5/5/5 7/7/7 19/19/19
f 11/11/11 5/5/5 19/19/19
f 18/18/18 16/16/16 20/20/20
f 9/9/9 10/10/10 20/20/20
f 16/16/16 9/9/9 20/20/20
f 23/23/23 22/22/22 21/21/21
f 24/24/24 23/23/23 21/21/21
f 24/24/24 21/21/21 25/25/25
f 26/26/26 24/24/24 25/25/25
f 23/23/23 24/24/24 27/27/27
f 27/27/27 24/24/24 26/26/26
f 28/28/28 23/23/23 27/27/27
f 29/29/29 28/28/28 27/27/27
f 29/29/29 27/27/27 30/30/30
f 31/31/31 30/30/30 27/27/27
f 32/32/32 31/31/31 27/27/27
f 32/32/32 27/27/27 33/33/33
f 33/33/33 27/27/27 26/26/26
f 25/25/25 21/21/21 34/34/34
f 21/21/21 35/35/35 34/34/34
f 21/21/21 22/22/22 35/35/35
f 36/36/36 34/34/34 35/35/35
f 37/37/37 36/36/36 35/35/35
f 38/38/38 36/36/36 37/37/37
f 39/39/39 38/38/38 37/37/37
f 39/39/39 37/37/37 40/40/40
f 41/41/41 39/39/39 40/40/40
f 42/42/42 38/38/38 39/39/39
f 43/43/43 42/42/42 39/39/39
f 43/43/43 39/39/39 41/41/41
f 44/44/44 42/42/42 43/43/43
f 45/45/45 44/44/44 43/43/43
f 45/45/45 43/43/43 46/46/46
f 46/46/46 43/43/43 41/41/41
f 47/47/47 45/45/45 46/46/46
f 45/45/45 47/47/47 48/48/48
f 47/47/47 49/49/49 48/48/48
f 48/48/48 49/49/49 50/50/50
f 49/49/49 51/51/51 50/50/50
f 52/52/52 50/50/50 51/51/51
f 53/53/53 52/52/52 51/51/51
f 54/54/54 52/52/52 53/53/53
f 55/55/55 54/54/54 53/53/53
f 56/56/56 54/54/54 55/55/55
f 57/57/57 56/56/56 55/55/55
f 58/58/58 56/56/56 57/57/57
f 59/59/59 58/58/58 57/57/57
f 50/50/50 52/52/52 60/60/60
f 50/50/50 60/60/60 48/48/48
f 52/52/52 61/61/61 60/60/60
f 56/56/56 62/62/62 54/54/54
f 62/62/62 63/63/63 54/54/54
f 63/63/63 61/61/61 52/52/52
f 54/54/54 63/63/63 52/52/52
f 60/60/60 64/64/64 48/48/48
f 65/65/65 62/62/62 56/56/56
f 58/58/58 65/65/65 56/56/56
f 45/45/45 48/48/48 64/64/64
f 44/44/44 45/45/45 64/64/64
f 37/37/37 35/35/35 66/66/66
f 40/40/40 37/37/37 66/66/66
f 22/22/22 66/66/66 35/35/35
f 69/69/69 68/68/68 67/67/67
f 70/70/70 69/69/69 67/67/67
f 70/70/70 67/67/67 71/71/71
f 72/72/72 70/70/70 71/71/71
f 72/72/72 71/71/71 73/73/73
f 74/74/74 72/72/72 73/73/73
f 74/74/74 73/73/73 75/75/75
f 76/76/76 74/74/74 75/75/75
f 71/71/71 67/67/67 77/77/77
f 67/67/67 78/78/78 77/77/77
f 67/67/67 68/68/68 78/78/78
f 68/68/68 79/79/79 78/78/78
f 75/75/75 73/73/73 80/80/80
f 80/80/80 81/81/81 75/75/75
f 81/81/81 82/82/82 75/75/75
f 81/81/81 83/83/83 82/82/82
f 83/83/83 84/84/84 82/82/82
f 73/73/73 85/85/85 80/80/80
f 71/71/71 77/77/77 85/85/85
f 73/73/73 71/71/71 85/85/85
f 82/82/82 84/84/84 86/86/86
f 75/75/75 82/82/82 86/86/86
f 76/76/76 75/75/75 86/86/86
f 89/89/89 88/88/88 87/87/87
f 90/90/90 89/89/89 87/87/87
f 87/87/87 88/88/88 91/91/91
f 88/88/88 92/92/92 91/91/91
f 88/88/88 89/89/89 93/93/93
f 88/88/88 93/93/93 92/92/92
f 89/89/89 94/94/94 93/93/93
f 94/94/94 95/95/95 93/93/93
f 93/93/93 95/95/95 96/96/96
f 96/96/96 97/97/97 93/93/93
f 97/97/97 98/98/98 93/93/93
f 93/93/93 98/98/98 99/99/99
f 93/93/93 99/99/99 92/92/92
f 87/87/87 91/91/91 100/100/100
f 101/101/101 87/87/87 100/100/100
f 90/90/90 87/87/87 101/101/101
f 100/100/100 102/102/102 101/101/101
f 102/102/102 103/103/103 101/101/101
f 102/102/102 104/104/104 103/103/103
f 104/104/104 105/105/105 103/103/103
f 103/103/103 105/105/105 106/106/106
f 105/105/105 107/107/107 106/106/106
f 104/104/104 108/108/108 105/105/105
f 108/108/108 109/109/109 105/105/105
f 105/105/105 109/109/109 107/107/107
f 108/108/108 110/110/110 109/109/109
f 110/110/110 111/111/111 109/109/109
f 109/109/109 111/111/111 112/112/112
f 109/109/109 112/112/112 107/107/107
f 111/111/111 113/113/113 112/112/112
f 113/113/113 111/111/111 114/114/114
f 115/115/115 113/113/113 114/114/114
f 115/115/115 114/114/114 116/116/116
f 117/117/117 115/115/115 116/116/116
f 116/116/116 118/118/118 117/117/117
f 118/118/118 119/119/119 117/117/117
f 118/118/118 120/120/120 119/119/119
f 120/120/120 121/121/121 119/119/119
f 120/120/120 122/122/122 121/121/121
f 122/122/122 123/123/123 121/121/121
f 122/122/122 124/124/124 123/123/123
f 124/124/124 125/125/125 123/123/123
f 118/118/118 116/116/116 126/126/126
f 126/126/126 116/116/116 114/114/114
f 127/127/127 118/118/118 126/126/126
f 128/128/128 122/122/122 120/120/120
f 129/129/129 128/128/128 120/120/120
f 129/129/129 120/120/120 118/118/118
f 127/127/127 129/129/129 118/118/118
f 130/130/130 126/126/126 114/114/114
f 131/131/131 124/124/124 122/122/122
f 128/128/128 131/131/131 122/122/122
f 111/111/111 110/110/110 130/130/130
f 114/114/114 111/111/111 130/130/130
f 103/103/103 106/106/106 132/132/132
f 101/101/101 103/103/103 132/132/132
f 132/132/132 90/90/90 101/101/101
