g model_car_117_matte_mirror_LOD1
v 0.9300735 0.9565953 1.423518
v 0.9319887 0.9914879 1.423198
v 0.9191284 0.9785146 1.429995
v 0.9388965 0.9458765 1.418702
v 0.9416947 0.9989899 1.418215
v 0.9534651 1.00635 1.412323
v 0.9605125 0.9310166 1.407554
v 0.9746312 1.014143 1.401984
v 0.9779082 0.9254707 1.399018
v 0.9963554 1.01667 1.391616
v 0.9994087 0.9223355 1.388739
v 1.018101 1.013794 1.381523
v 1.019706 0.9247271 1.379512
v 1.042867 1.007209 1.370515
v 1.034308 0.9294912 1.373124
v 1.063937 1.000354 1.361709
v 1.048706 0.9366659 1.367003
v 1.063725 0.9473802 1.360838
v 1.079622 0.9964443 1.355564
v 1.077283 0.9637269 1.355713
v 1.092929 0.9934825 1.350603
v -0.9300734 0.9565953 1.423518
v -0.9191283 0.9785146 1.429995
v -0.9319886 0.9914879 1.423198
v -0.9388963 0.9458765 1.418702
v -0.9416946 0.9989899 1.418215
v -0.9534651 1.00635 1.412323
v -0.9605123 0.9310166 1.407554
v -0.9746312 1.014143 1.401984
v -0.977908 0.9254707 1.399018
v -0.9963554 1.01667 1.391616
v -0.9994086 0.9223355 1.388739
v -1.018101 1.013794 1.381523
v -1.019706 0.9247271 1.379512
v -1.042867 1.007209 1.370515
v -1.034308 0.9294912 1.373124
v -1.063937 1.000354 1.361709
v -1.048706 0.9366659 1.367003
v -1.063725 0.9473802 1.360838
v -1.079621 0.9964443 1.355564
v -1.077283 0.9637269 1.355713
v -1.092929 0.9934825 1.350603
vn -0.4685307 0.01742277 -0.8832754
vn -0.4694724 0.01742277 -0.8827752
vn -0.4817155 0.01836452 -0.8761352
vn -0.4553459 0.01553923 -0.890179
vn -0.4562877 0.01553923 -0.8896967
vn -0.4449864 0.01459748 -0.8954183
vn -0.4440447 0.01459748 -0.8958857
vn -0.434627 0.01459748 -0.9004923
vn -0.434627 0.01459748 -0.9004923
vn -0.4242675 0.01365569 -0.9054339
vn -0.4242675 0.01365569 -0.9054339
vn -0.4110827 0.01365569 -0.9114957
vn -0.4110827 0.01365569 -0.9114957
vn -0.3969562 0.01365569 -0.917736
vn -0.3978979 0.01365569 -0.9173281
vn -0.3790625 0.01648101 -0.9252243
vn -0.3884802 0.01459748 -0.9213414
vn -0.3837714 0.01742277 -0.9232638
vn -0.35646 0.01930633 -0.9341111
vn -0.3630524 0.01930633 -0.9315687
vn -0.3451588 0.02024809 -0.9383259
vn 0.4685306 0.01742277 -0.8832754
vn 0.4817154 0.01836452 -0.8761353
vn 0.4694724 0.01742277 -0.8827752
vn 0.4553458 0.01553923 -0.890179
vn 0.4562876 0.01553923 -0.8896967
vn 0.4449864 0.01459748 -0.8954183
vn 0.4440446 0.01459748 -0.8958858
vn 0.4346269 0.01459748 -0.9004923
vn 0.4346269 0.01459748 -0.9004923
vn 0.4242674 0.01365569 -0.905434
vn 0.4242674 0.01365569 -0.905434
vn 0.4110827 0.01365569 -0.9114958
vn 0.4110827 0.01365569 -0.9114958
vn 0.3969561 0.01365569 -0.917736
vn 0.3978979 0.01365569 -0.9173281
vn 0.3790625 0.01648101 -0.9252243
vn 0.3884802 0.01459748 -0.9213415
vn 0.3837713 0.01742277 -0.9232638
vn 0.35646 0.01930633 -0.9341111
vn 0.3630524 0.01930633 -0.9315687
vn 0.3451588 0.02024809 -0.9383259
g model_car_117_matte_mirror_LOD1_0
f 3/3/3 2/2/2 1/1/1
f 4/4/4 1/1/1 2/2/2
f 5/5/5 4/4/4 2/2/2
f 4/4/4 5/5/5 6/6/6
f 7/7/7 4/4/4 6/6/6
f 7/7/7 6/6/6 8/8/8
f 9/9/9 7/7/7 8/8/8
f 9/9/9 8/8/8 10/10/10
f 11/11/11 9/9/9 10/10/10
f 11/11/11 10/10/10 12/12/12
f 13/13/13 11/11/11 12/12/12
f 13/13/13 12/12/12 14/14/14
f 15/15/15 13/13/13 14/14/14
f 15/15/15 14/14/14 16/16/16
f 17/17/17 15/15/15 16/16/16
f 16/16/16 18/18/18 17/17/17
f 18/18/18 16/16/16 19/19/19
f 20/20/20 18/18/18 19/19/19
f 21/21/21 20/20/20 19/19/19
f 24/24/24 23/23/23 22/22/22
f 22/22/22 25/25/25 24/24/24
f 25/25/25 26/26/26 24/24/24
f 26/26/26 25/25/25 27/27/27
f 25/25/25 28/28/28 27/27/27
f 27/27/27 28/28/28 29/29/29
f 28/28/28 30/30/30 29/29/29
f 29/29/29 30/30/30 31/31/31
f 30/30/30 32/32/32 31/31/31
f 31/31/31 32/32/32 33/33/33
f 32/32/32 34/34/34 33/33/33
f 33/33/33 34/34/34 35/35/35
f 34/34/34 36/36/36 35/35/35
f 35/35/35 36/36/36 37/37/37
f 36/36/36 38/38/38 37/37/37
f 39/39/39 37/37/37 38/38/38
f 37/37/37 39/39/39 40/40/40
f 39/39/39 41/41/41 40/40/40
f 41/41/41 42/42/42 40/40/40
