g Glass_20
v 0.3499 0.9595999 0.5794002
v 0.475 0.8664999 0.7243001
v 0.236 0.8738999 0.7758001
v 0 0.9655999 0.6145002
v 0.7085 0.9570999 0.5075002
v 0.3362 1.0413 0.4210002
v 0 1.0493 0.4439002
v 0 0.8772999 0.7862001
v 0 1.1111 0.3056002
v 0.3234 1.1075 0.2791002
v 0.6726 1.032 0.3630002
v 0.2053 1.1693 0.1543002
v 0.4115 1.1657 0.1243002
v 0.6386 1.0996 0.2206002
v 0 1.1693 0.1704002
v 0.7343 0.8747999 0.6399001
v 0.607 1.1565 0.07000019
v 0.2911 1.1524 -0.9757998
v 0.3771 1.1914 -0.8244998
v 0.1871 1.2017 -0.8378998
v 0 1.1604 -0.9992998
v 0.5657 1.1718 -0.8011998
v 0.3017 1.0879 -1.1514
v 0.5825 1.1356 -0.9266998
v 0 1.2061 -0.8419998
v 0 1.0977 -1.1774
v 0.31 1.0201 -1.3152
v 0.6025 1.0761 -1.0829
v 0 1.0237 -1.3619
v 0.2099 0.9196002 -1.5853
v 0.4198 0.9120002 -1.5319
v 0.6391 0.9071003 -1.4274
v 0.6207 1.0074 -1.2279
v 0 0.9256002 -1.6015
v 0.8015 0.8457999 0.2522002
v 0.7268 0.9851999 0.2601002
v 0.7967 0.8527 0.1234001
v 0.7031 1.0303 0.1740002
v 0.6766 1.0787 0.03780017
v 0.6604 1.1083 -0.07519982
v 0.7862 0.8693001 -0.1988999
v 0.6461 1.133 -0.1945998
v 0.6383 1.1482 -0.3175998
v 0.7749 0.8865001 -0.4944999
v 0.6351 1.1521 -0.4630998
v 0.6417 1.1345 -0.6377998
v 0.7714 0.8925001 -0.5973999
v 0.645 1.1298 -0.6627998
v 0.7592 0.9113002 -0.9469999
v 0.7197 0.9809002 -1.005
v 0.7549 0.9177002 -1.0908
v 0.6868 1.0462 -0.8808998
v 0.7689 0.8922001 -0.6241999
v 0.6575 1.1046 -0.7545998
v 0.6475 1.1243 -0.6850998
v -0.3499 0.9595999 0.5794002
v -0.2359 0.8738999 0.7758001
v -0.475 0.8664999 0.7243001
v 0 0.9655999 0.6145002
v -0.7085 0.9570999 0.5075002
v -0.3362 1.0413 0.4210002
v 0 1.0493 0.4439002
v 0 0.8772999 0.7862001
v 0 1.1111 0.3056002
v -0.3234 1.1075 0.2791002
v -0.6726 1.032 0.3630002
v -0.2053 1.1693 0.1543002
v -0.4115 1.1657 0.1243002
v -0.6386 1.0996 0.2206002
v 0 1.1693 0.1704002
v -0.7343 0.8747999 0.6399001
v -0.607 1.1565 0.07000019
v -0.2911 1.1524 -0.9757998
v -0.1871 1.2017 -0.8378998
v -0.3771 1.1914 -0.8244998
v 0 1.1604 -0.9992998
v -0.5657 1.1718 -0.8011998
v -0.3017 1.0879 -1.1514
v -0.5825 1.1356 -0.9266998
v 0 1.2061 -0.8419998
v 0 1.0977 -1.1774
v -0.31 1.0201 -1.3152
v -0.6025 1.0761 -1.0829
v 0 1.0237 -1.3619
v -0.2099 0.9196002 -1.5853
v -0.4198 0.9120002 -1.5319
v -0.6391 0.9071003 -1.4274
v -0.6207 1.0074 -1.2279
v 0 0.9256002 -1.6015
v -0.8015 0.8457999 0.2522002
v -0.7967 0.8527 0.1234001
v -0.7268 0.9851999 0.2601002
v -0.7031 1.0303 0.1740002
v -0.6766 1.0787 0.03780017
v -0.6604 1.1083 -0.07519982
v -0.7862 0.8693001 -0.1988999
v -0.6461 1.133 -0.1945998
v -0.6383 1.1482 -0.3175998
v -0.7749 0.8865001 -0.4944999
v -0.6351 1.1521 -0.4630998
v -0.6417 1.1345 -0.6377998
v -0.7714 0.8925001 -0.5973999
v -0.645 1.1298 -0.6627998
v -0.7592 0.9113002 -0.9469999
v -0.7549 0.9177002 -1.0908
v -0.7197 0.9809002 -1.005
v -0.6868 1.0462 -0.8808998
v -0.7689 0.8922001 -0.6241999
v -0.6575 1.1046 -0.7545998
v -0.6475 1.1243 -0.6850998
vt 0.5029 0.104
vt 0.5599 0.0381
vt 0.4512 0.0147
vt 0.3439 0.0881
vt 0.666 0.1367
vt 0.4967 0.176
vt 0.3439 0.1656
vt 0.3439 0.01
vt 0.3439 0.2285
vt 0.4909 0.2406
vt 0.6497 0.2024
vt 0.4372 0.2973
vt 0.531 0.3109
vt 0.6342 0.2672
vt 0.3439 0.29
vt 0.6778 0.0765
vt 0.6198 0.3356
vt 0.4329 0.4461
vt 0.472 0.3773
vt 0.3857 0.3834
vt 0.3006 0.4568
vt 0.5578 0.3667
vt 0.4378 0.5259
vt 0.5654 0.4238
vt 0.3006 0.3852
vt 0.3006 0.5377
vt 0.4416 0.6004
vt 0.5745 0.4948
vt 0.3006 0.6216
vt 0.396 0.7232
vt 0.4915 0.6989
vt 0.5912 0.6514
vt 0.5828 0.5607
vt 0.3006 0.7306
vt 0.463 0.77
vt 0.4642 0.8335
vt 0.5216 0.7687
vt 0.5048 0.851
vt 0.5683 0.8682
vt 0.6205 0.8776
vt 0.6683 0.765
vt 0.6755 0.8847
vt 0.7318 0.8873
vt 0.8029 0.7625
vt 0.7979 0.884
vt 0.8765 0.8699
vt 0.8497 0.7616
vt 0.8876 0.867
vt 0.6845 0.4284
vt 0.6675 0.3909
vt 0.6223 0.4083
vt 0.7298 0.3773
vt 0.8237 0.4758
vt 0.7922 0.367
vt 0.8251 0.3667
vt 0.5029 0.104
vt 0.4512 0.0147
vt 0.5599 0.0381
vt 0.3439 0.0881
vt 0.666 0.1367
vt 0.4967 0.176
vt 0.3439 0.1656
vt 0.3439 0.01
vt 0.3439 0.2285
vt 0.4909 0.2406
vt 0.6497 0.2024
vt 0.4372 0.2973
vt 0.531 0.3109
vt 0.6342 0.2672
vt 0.3439 0.29
vt 0.6778 0.0765
vt 0.6198 0.3356
vt 0.4329 0.4461
vt 0.3857 0.3834
vt 0.472 0.3773
vt 0.3006 0.4568
vt 0.5578 0.3667
vt 0.4378 0.5259
vt 0.5654 0.4238
vt 0.3006 0.3852
vt 0.3006 0.5377
vt 0.4416 0.6004
vt 0.5745 0.4948
vt 0.3006 0.6216
vt 0.396 0.7232
vt 0.4915 0.6989
vt 0.5912 0.6514
vt 0.5828 0.5607
vt 0.3006 0.7306
vt 0.463 0.77
vt 0.5216 0.7687
vt 0.4642 0.8335
vt 0.5048 0.851
vt 0.5683 0.8682
vt 0.6205 0.8776
vt 0.6683 0.765
vt 0.6755 0.8847
vt 0.7318 0.8873
vt 0.8029 0.7625
vt 0.7979 0.884
vt 0.8765 0.8699
vt 0.8497 0.7616
vt 0.8876 0.867
vt 0.6845 0.4284
vt 0.6223 0.4083
vt 0.6675 0.3909
vt 0.7298 0.3773
vt 0.8237 0.4758
vt 0.7922 0.367
vt 0.8251 0.3667
vn 0.08600204 0.8878428 0.4520385
vn 0.1160463 0.8733996 0.4729763
vn 0.07282443 0.8932218 0.4436794
vn 0 0.8967914 0.4424536
vn 0.1111599 0.8769041 0.4676351
vn 0.07300963 0.8982952 0.4332843
vn 0 0.904229 0.4270479
vn 0 0.8892939 0.4573362
vn 0 0.913678 0.4064388
vn 0.07107586 0.9107729 0.4067442
vn 0.09908139 0.9000149 0.4244479
vn 0.05023373 0.91513 0.400017
vn 0.09772499 0.9200511 0.3794152
vn 0.1085992 0.9176806 0.3821891
vn 0 0.9185109 0.3953957
vn 0.1366227 0.8530472 0.5036316
vn 0.1344307 0.9359643 0.3254217
vn 0.08119846 0.9447964 -0.3174373
vn 0.1162627 0.9438089 -0.3093669
vn 0.05243972 0.9548974 -0.2922686
vn 0 0.9495815 -0.3135203
vn 0.1106649 0.9535994 -0.2800028
vn 0.088132 0.9294452 -0.3582796
vn 0.1063599 0.9475906 -0.3012632
vn 0 0.9602932 -0.2789926
vn 0 0.9350896 -0.3544113
vn 0.1120011 0.917062 -0.3826917
vn 0.1273773 0.9211409 -0.3677967
vn 0 0.9277768 -0.3731356
vn 0.08543459 0.9215074 -0.378847
vn 0.1641462 0.9134086 -0.3724792
vn 0.172424 0.8998976 -0.4005673
vn 0.1542537 0.8948783 -0.4188063
vn 0 0.9254363 -0.3789031
vn 0.881221 0.4726448 -0.00752033
vn 0.8835651 0.4683036 -0.002114134
vn 0.8832609 0.468857 -0.004825372
vn 0.8842931 0.4669223 -0.003074103
vn 0.8837638 0.4679109 -0.00458071
vn 0.8834543 0.4684743 -0.006339356
vn 0.8839498 0.4675535 -0.005157013
vn 0.8830808 0.4692129 -0.002749876
vn 0.8840699 0.4673399 -0.003719336
vn 0.8835301 0.4683278 -0.006607926
vn 0.8843728 0.4666746 -0.009985144
vn 0.8816152 0.4719103 0.007441374
vn 0.8814642 0.4722497 -0.001025103
vn 0.8792241 0.4756636 0.02663158
vn 0.8770659 0.4803143 -0.007318687
vn 0.8739851 0.4857982 -0.01225616
vn 0.8711919 0.4909247 -0.004201407
vn 0.8826003 0.4700851 -0.006055636
vn 0.88474 0.466076 -0.002867561
vn 0.8869764 0.461781 -0.005573777
vn 0.8864909 0.4627319 -0.003610529
vn -0.08599801 0.8878372 0.4520501
vn -0.07280608 0.8932133 0.4436996
vn -0.1160292 0.873395 0.4729888
vn 0 0.8967914 0.4424536
vn -0.1111599 0.8769041 0.4676351
vn -0.07300964 0.8982952 0.4332844
vn 0 0.904229 0.4270479
vn 0 0.8892939 0.4573362
vn 0 0.913678 0.4064388
vn -0.07107587 0.9107729 0.4067442
vn -0.09908139 0.9000149 0.4244479
vn -0.05023372 0.91513 0.4000169
vn -0.09772499 0.9200511 0.3794152
vn -0.1085992 0.9176806 0.3821891
vn 0 0.9185109 0.3953957
vn -0.1366227 0.8530472 0.5036316
vn -0.1344307 0.9359643 0.3254217
vn -0.08119846 0.9447964 -0.3174373
vn -0.05243972 0.9548974 -0.2922686
vn -0.1162627 0.9438089 -0.3093669
vn 0 0.9495815 -0.3135203
vn -0.1106649 0.9535994 -0.2800028
vn -0.088132 0.9294452 -0.3582796
vn -0.1063599 0.9475906 -0.3012632
vn 0 0.9602932 -0.2789926
vn 0 0.9350896 -0.3544113
vn -0.1120011 0.917062 -0.3826917
vn -0.1273773 0.9211409 -0.3677967
vn 0 0.9277768 -0.3731356
vn -0.0854346 0.9215074 -0.378847
vn -0.1641462 0.9134086 -0.3724792
vn -0.172424 0.8998976 -0.4005673
vn -0.1542537 0.8948783 -0.4188063
vn 0 0.9254363 -0.3789031
vn -0.881221 0.4726448 -0.00752033
vn -0.8832609 0.4688569 -0.004825372
vn -0.8835651 0.4683036 -0.002114134
vn -0.8842931 0.4669223 -0.003074103
vn -0.8837638 0.4679109 -0.00458071
vn -0.8834543 0.4684743 -0.006339356
vn -0.8839497 0.4675535 -0.005157013
vn -0.8830808 0.4692129 -0.002749876
vn -0.8840699 0.4673399 -0.003719336
vn -0.8835301 0.4683278 -0.006607926
vn -0.8843728 0.4666746 -0.009985144
vn -0.8816152 0.4719103 0.007441374
vn -0.8814642 0.4722497 -0.001025103
vn -0.8792241 0.4756636 0.02663158
vn -0.8770659 0.4803143 -0.007318687
vn -0.8711919 0.4909247 -0.004201407
vn -0.8739851 0.4857982 -0.01225616
vn -0.8826003 0.4700851 -0.006055636
vn -0.88474 0.466076 -0.002867561
vn -0.8869764 0.461781 -0.005573777
vn -0.8864909 0.4627319 -0.003610529
g Glass_20_0
f 3/3/3 2/2/2 1/1/1
f 4/4/4 3/3/3 1/1/1
f 1/1/1 2/2/2 5/5/5
f 5/5/5 6/6/6 1/1/1
f 1/1/1 6/6/6 7/7/7
f 1/1/1 7/7/7 4/4/4
f 8/8/8 3/3/3 4/4/4
f 7/7/7 6/6/6 9/9/9
f 9/9/9 6/6/6 10/10/10
f 11/11/11 10/10/10 6/6/6
f 11/11/11 6/6/6 5/5/5
f 10/10/10 12/12/12 9/9/9
f 10/10/10 13/13/13 12/12/12
f 14/14/14 13/13/13 10/10/10
f 14/14/14 10/10/10 11/11/11
f 12/12/12 15/15/15 9/9/9
f 16/16/16 5/5/5 2/2/2
f 17/17/17 13/13/13 14/14/14
f 20/20/20 19/19/19 18/18/18
f 21/21/21 20/20/20 18/18/18
f 22/22/22 18/18/18 19/19/19
f 21/21/21 18/18/18 23/23/23
f 24/24/24 23/23/23 18/18/18
f 24/24/24 18/18/18 22/22/22
f 25/25/25 20/20/20 21/21/21
f 26/26/26 21/21/21 23/23/23
f 26/26/26 23/23/23 27/27/27
f 28/28/28 27/27/27 23/23/23
f 28/28/28 23/23/23 24/24/24
f 29/29/29 26/26/26 27/27/27
f 29/29/29 27/27/27 30/30/30
f 30/30/30 27/27/27 31/31/31
f 32/32/32 31/31/31 27/27/27
f 33/33/33 27/27/27 28/28/28
f 33/33/33 32/32/32 27/27/27
f 34/34/34 29/29/29 30/30/30
f 37/37/37 36/36/36 35/35/35
f 38/38/38 36/36/36 37/37/37
f 39/39/39 38/38/38 37/37/37
f 40/40/40 39/39/39 37/37/37
f 41/41/41 40/40/40 37/37/37
f 42/42/42 40/40/40 41/41/41
f 43/43/43 42/42/42 41/41/41
f 44/44/44 43/43/43 41/41/41
f 45/45/45 43/43/43 44/44/44
f 45/45/45 44/44/44 46/46/46
f 44/44/44 47/47/47 46/46/46
f 46/46/46 47/47/47 48/48/48
f 51/51/51 50/50/50 49/49/49
f 50/50/50 52/52/52 49/49/49
f 49/49/49 52/52/52 53/53/53
f 52/52/52 54/54/54 53/53/53
f 54/54/54 55/55/55 53/53/53
f 58/58/58 57/57/57 56/56/56
f 57/57/57 59/59/59 56/56/56
f 56/56/56 60/60/60 58/58/58
f 61/61/61 60/60/60 56/56/56
f 56/56/56 62/62/62 61/61/61
f 56/56/56 59/59/59 62/62/62
f 57/57/57 63/63/63 59/59/59
f 61/61/61 62/62/62 64/64/64
f 61/61/61 64/64/64 65/65/65
f 65/65/65 66/66/66 61/61/61
f 61/61/61 66/66/66 60/60/60
f 67/67/67 65/65/65 64/64/64
f 68/68/68 65/65/65 67/67/67
f 68/68/68 69/69/69 65/65/65
f 65/65/65 69/69/69 66/66/66
f 70/70/70 67/67/67 64/64/64
f 60/60/60 71/71/71 58/58/58
f 68/68/68 72/72/72 69/69/69
f 75/75/75 74/74/74 73/73/73
f 74/74/74 76/76/76 73/73/73
f 73/73/73 77/77/77 75/75/75
f 73/73/73 76/76/76 78/78/78
f 78/78/78 79/79/79 73/73/73
f 73/73/73 79/79/79 77/77/77
f 74/74/74 80/80/80 76/76/76
f 76/76/76 81/81/81 78/78/78
f 78/78/78 81/81/81 82/82/82
f 82/82/82 83/83/83 78/78/78
f 78/78/78 83/83/83 79/79/79
f 81/81/81 84/84/84 82/82/82
f 82/82/82 84/84/84 85/85/85
f 82/82/82 85/85/85 86/86/86
f 86/86/86 87/87/87 82/82/82
f 82/82/82 88/88/88 83/83/83
f 87/87/87 88/88/88 82/82/82
f 84/84/84 89/89/89 85/85/85
f 92/92/92 91/91/91 90/90/90
f 92/92/92 93/93/93 91/91/91
f 93/93/93 94/94/94 91/91/91
f 94/94/94 95/95/95 91/91/91
f 95/95/95 96/96/96 91/91/91
f 95/95/95 97/97/97 96/96/96
f 97/97/97 98/98/98 96/96/96
f 98/98/98 99/99/99 96/96/96
f 98/98/98 100/100/100 99/99/99
f 99/99/99 100/100/100 101/101/101
f 102/102/102 99/99/99 101/101/101
f 102/102/102 101/101/101 103/103/103
f 106/106/106 105/105/105 104/104/104
f 107/107/107 106/106/106 104/104/104
f 107/107/107 104/104/104 108/108/108
f 109/109/109 107/107/107 108/108/108
f 110/110/110 109/109/109 108/108/108
