g ref_20
v 0.7028 0.5497996 2.0656
v 0.7278 0.6792997 1.9802
v 0.7598 0.5567997 2.0246
v 0.7846 0.6335997 1.9391
v 0.6225 0.5483996 2.1108
v 0.7278 0.6792997 1.9802
v 0.7028 0.5497996 2.0656
v 0.4462 0.5450987 2.1678
v 0.507 0.6719996 2.0739
v 0.7846 0.6335997 1.9391
v 0.8006 0.5687987 1.9587
v 0.7598 0.5567997 2.0246
v 0.8202 0.5779997 1.9093
v -0.7027 0.5497996 2.0656
v -0.7598 0.5567997 2.0246
v -0.7278 0.6792997 1.9802
v -0.7846 0.6335997 1.9391
v -0.6225 0.5483996 2.1108
v -0.7027 0.5497996 2.0656
v -0.7278 0.6792997 1.9802
v -0.4462 0.5450987 2.1678
v -0.507 0.6719996 2.0739
v -0.7846 0.6335997 1.9391
v -0.7598 0.5567997 2.0246
v -0.8006 0.5687987 1.9587
v -0.8202 0.5779997 1.9093
vt 0.78 0.1485
vt 0.7088 0.1455
vt 0.7623 0.1748
vt 0.7098 0.1832
vt 0.5431 0.9191
vt 0.5932 0.9768
vt 0.5796 0.9184
vt 0.463 0.9206
vt 0.4927 0.9772
vt 0.7611 0.1144
vt 0.7354 0.0973
vt 0.7088 0.1122
vt 0.7554 0.0863
vt 0.78 0.1485
vt 0.7623 0.1748
vt 0.7088 0.1455
vt 0.7098 0.1832
vt 0.5431 0.9191
vt 0.5796 0.9184
vt 0.5932 0.9768
vt 0.463 0.9206
vt 0.4927 0.9772
vt 0.7611 0.1144
vt 0.7088 0.1122
vt 0.7354 0.0973
vt 0.7554 0.0863
vn 0.4576211 0.4262432 0.7803202
vn 0.5303221 0.4491278 0.7190568
vn 0.6142468 0.3982819 0.6812285
vn 0.7728558 0.3688324 0.5163881
vn 0.2891788 0.54946 0.7838809
vn 0.5303221 0.4491278 0.7190568
vn 0.4576211 0.4262432 0.7803202
vn 0.295006 0.5102602 0.8078403
vn 0.3360093 0.4508904 0.8269193
vn 0.7728558 0.3688324 0.5163881
vn 0.8038499 0.3450345 0.4845375
vn 0.6142468 0.3982819 0.6812285
vn 0.8539492 0.3320324 0.4006559
vn -0.4577571 0.4259259 0.7804137
vn -0.6139597 0.3982958 0.6814792
vn -0.5303122 0.4490481 0.7191139
vn -0.7728558 0.3688324 0.5163881
vn -0.2893047 0.5493733 0.7838953
vn -0.4577571 0.4259259 0.7804137
vn -0.5303122 0.4490481 0.7191139
vn -0.295006 0.5102602 0.8078403
vn -0.3360093 0.4508904 0.8269193
vn -0.7728558 0.3688324 0.5163881
vn -0.6139597 0.3982958 0.6814792
vn -0.8038499 0.3450345 0.4845375
vn -0.8539492 0.3320324 0.4006559
g ref_20_0
f 3/3/3 2/2/2 1/1/1
f 4/4/4 2/2/2 3/3/3
f 7/7/7 6/6/6 5/5/5
f 5/5/5 6/6/6 8/8/8
f 9/9/9 8/8/8 6/6/6
f 12/12/12 11/11/11 10/10/10
f 13/13/13 10/10/10 11/11/11
f 16/16/16 15/15/15 14/14/14
f 16/16/16 17/17/17 15/15/15
f 20/20/20 19/19/19 18/18/18
f 20/20/20 18/18/18 21/21/21
f 21/21/21 22/22/22 20/20/20
f 25/25/25 24/24/24 23/23/23
f 23/23/23 26/26/26 25/25/25
