g model_car_81_matte_mirror_LOD1
v 0.8373581 0.9561248 0.7196956
v 0.8322861 1.038825 0.7253007
v 0.8133793 0.9956421 0.7295502
v 0.8658639 0.9491642 0.7097758
v 0.8596902 1.050639 0.7166382
v 0.9258757 0.9561937 0.6881384
v 0.9197138 1.055591 0.6948984
v 0.9736699 0.9666466 0.6716239
v 0.9682497 1.051481 0.6774514
v 0.9990102 0.980202 0.663713
v 0.9952052 1.040928 0.6678563
v 1.007383 1.010459 0.6641792
v -0.8373584 0.9561248 0.7196956
v -0.8133795 0.9956421 0.7295502
v -0.8322864 1.038825 0.7253007
v -0.865864 0.9491642 0.7097758
v -0.8596903 1.050639 0.7166382
v -0.9258759 0.9561937 0.6881384
v -0.919714 1.055591 0.6948984
v -0.9736701 0.9666466 0.6716239
v -0.9682499 1.051481 0.6774514
v -0.9990104 0.980202 0.663713
v -0.9952053 1.040928 0.6678563
v -1.007384 1.010459 0.6641792
vn -0.3185282 0.04472354 -0.9468578
vn -0.3178636 0.04472354 -0.947081
vn -0.3158699 0.04472354 -0.9477479
vn -0.3371363 0.04339439 -0.9404553
vn -0.3371363 0.04339439 -0.9404553
vn -0.3397946 0.04272982 -0.9395285
vn -0.3397946 0.04272982 -0.9395285
vn -0.3311551 0.04339439 -0.942578
vn -0.3311551 0.04339439 -0.942578
vn -0.3152053 0.04472354 -0.9479691
vn -0.3152053 0.04472354 -0.9479691
vn -0.1537137 0.05801502 -0.9864108
vn 0.318134 0.04472354 -0.9469903
vn 0.3154758 0.04472354 -0.9478791
vn 0.318134 0.04472354 -0.9469903
vn 0.3367421 0.04339439 -0.9405964
vn 0.3367421 0.04339439 -0.9405964
vn 0.3394004 0.04272982 -0.939671
vn 0.340065 0.04272982 -0.9394307
vn 0.3314255 0.04339439 -0.9424829
vn 0.3314255 0.04339439 -0.9424829
vn 0.3154758 0.04472354 -0.9478791
vn 0.3154758 0.04472354 -0.9478791
vn 0.1533196 0.05801502 -0.9864722
g model_car_81_matte_mirror_LOD1_0
f 3/3/3 2/2/2 1/1/1
f 1/1/1 2/2/2 4/4/4
f 2/2/2 5/5/5 4/4/4
f 4/4/4 5/5/5 6/6/6
f 5/5/5 7/7/7 6/6/6
f 6/6/6 7/7/7 8/8/8
f 7/7/7 9/9/9 8/8/8
f 8/8/8 9/9/9 10/10/10
f 9/9/9 11/11/11 10/10/10
f 10/10/10 11/11/11 12/12/12
f 15/15/15 14/14/14 13/13/13
f 15/15/15 13/13/13 16/16/16
f 17/17/17 15/15/15 16/16/16
f 17/17/17 16/16/16 18/18/18
f 19/19/19 17/17/17 18/18/18
f 19/19/19 18/18/18 20/20/20
f 21/21/21 19/19/19 20/20/20
f 21/21/21 20/20/20 22/22/22
f 23/23/23 21/21/21 22/22/22
f 23/23/23 22/22/22 24/24/24
