g Glass_59
v -2.91034E-16 1.2681 0.0425993
v 0.105 1.2681 0.0381993
v -3.296254E-16 0.9238003 0.5606995
v 0.2704 0.9229003 0.5290995
v 0.2266 1.2681 0.0235993
v 0.3451 1.2681 -0.0036007
v 0.5421 0.9078003 0.4320995
v 0.4551 1.2681 -0.0528007
v 0.651 0.9064002 0.3748995
v 0.5767 1.267 -0.1448007
v 0.7144 0.9130001 0.3086995
v 0.6115 1.131999 -1.106101
v 0.7094 0.9463996 -0.7996005
v 0.5945 1.2487 -0.6702007
v 0.7267 0.9116997 -0.4563005
v 0.5837 1.2619 -0.1781007
v 0.6896 0.9730995 -0.9635006
v 0.6692 0.9972995 -1.036801
v 0.7204 0.9122001 0.2364995
v 0.5084 1.190699 -1.111101
v 0.3741 1.203099 -1.115701
v 0.5101 1.078199 -1.428101
v 0.3999 1.087699 -1.434701
v 0.2123 1.207799 -1.126401
v 0.51 0.9972991 -1.622901
v 0.2108 1.090899 -1.442401
v -1.763022E-17 1.212599 -1.133201
v 0.4376 0.974499 -1.696201
v 7.815983E-17 1.096499 -1.448501
v 0.2094 0.9763991 -1.706401
v 1.628255E-16 0.977199 -1.710501
v 0.0968 1.252999 -0.9631007
v 0.2112 1.253399 -0.9598007
v 0.3253 1.252599 -0.9574007
v 0.4389 1.245899 -0.9542007
v 0.4909 1.233599 -0.9693007
v 0.4917 0.9795991 -1.675301
v -6.441508E-17 1.254199 -0.9641007
v 0.5088 1.215999 -1.021601
v -2.91034E-16 1.2681 0.0425993
v -3.296254E-16 0.9238003 0.5606995
v -0.105 1.2681 0.0381993
v -0.2704 0.9229003 0.5290995
v -0.2266 1.2681 0.0235993
v -0.3451 1.2681 -0.0036007
v -0.5421 0.9078003 0.4320995
v -0.4551 1.2681 -0.0528007
v -0.651 0.9064002 0.3748995
v -0.5767 1.267 -0.1448007
v -0.7144 0.9130001 0.3086995
v -0.6115 1.131999 -1.106101
v -0.5945 1.2531 -0.6702007
v -0.7094 0.9463996 -0.7996005
v -0.7267 0.9116997 -0.4563005
v -0.5837 1.2619 -0.1781007
v -0.6896 0.9730995 -0.9635006
v -0.6693 0.9972995 -1.036801
v -0.7204 0.9122001 0.2364995
v -0.5084 1.190699 -1.111101
v -0.5102 1.078199 -1.428101
v -0.3741 1.203099 -1.115701
v -0.3999 1.087699 -1.434701
v -0.2123 1.207799 -1.126401
v -0.51 0.9972991 -1.622901
v -0.2108 1.090899 -1.442401
v -1.763022E-17 1.212599 -1.133201
v -0.4377 0.974499 -1.696201
v 7.815983E-17 1.096499 -1.448501
v -0.2094 0.9763991 -1.706401
v 1.628255E-16 0.977199 -1.710501
v -0.0968 1.252999 -0.9631007
v -0.2112 1.253399 -0.9598007
v -0.3253 1.252599 -0.9574007
v -0.4389 1.245899 -0.9542007
v -0.4909 1.233599 -0.9693007
v -0.5089 1.215999 -1.021601
v -0.4917 0.9795991 -1.675301
v -6.441508E-17 1.254199 -0.9641007
vt 0.2974 0.4417
vt 0.3119 0.3696
vt 0.7208 0.5422
vt 0.7471 0.3536
vt 0.3233 0.2847
vt 0.327 0.1998
vt 0.7429 0.1516
vt 0.3175 0.116
vt 0.7297 0.0665
vt 0.2873 0.0137
vt 0.7011 0.0089
vt 0.0878 0
vt 0.244 0.2229
vt 0.0048 0.3204
vt 0.2748 0.4741
vt 0 0.681
vt 0.2188 0.1027
vt 0.196 0.0489
vt 0.2784 0.9817
vt 0.4453 0.9833
vt 0.445 0.8815
vt 0.7196 0.9844
vt 0.7208 0.9267
vt 0.4499 0.7414
vt 0.8917 0.9844
vt 0.7266 0.7398
vt 0.4582 0.5683
vt 0.954 0.9251
vt 0.7295 0.6461
vt 0.9603 0.7387
vt 0.9647 0.6453
vt 0.3203 0.6475
vt 0.3163 0.7408
vt 0.3121 0.834
vt 0.3095 0.927
vt 0.3245 0.9697
vt 0.9367 0.9693
vt 0.3189 0.5685
vt 0.3695 0.9842
vt 0.2974 0.4417
vt 0.7208 0.5422
vt 0.3119 0.3696
vt 0.7471 0.3536
vt 0.3233 0.2847
vt 0.327 0.1998
vt 0.7429 0.1516
vt 0.3175 0.116
vt 0.7297 0.0665
vt 0.2873 0.0137
vt 0.7011 0.0089
vt 0.0878 0
vt 0.0048 0.3204
vt 0.244 0.2229
vt 0.2748 0.4741
vt 0 0.681
vt 0.2188 0.1027
vt 0.196 0.0489
vt 0.2784 0.9817
vt 0.4453 0.9833
vt 0.7196 0.9844
vt 0.445 0.8815
vt 0.7208 0.9267
vt 0.4499 0.7414
vt 0.8917 0.9844
vt 0.7266 0.7398
vt 0.4582 0.5683
vt 0.954 0.9251
vt 0.7295 0.6461
vt 0.9603 0.7387
vt 0.9647 0.6453
vt 0.3203 0.6475
vt 0.3163 0.7408
vt 0.3121 0.834
vt 0.3095 0.927
vt 0.3245 0.9697
vt 0.3695 0.9842
vt 0.9367 0.9693
vt 0.3189 0.5685
vn 0 0.8328658 0.553475
vn 0.04846806 0.8294284 0.5565065
vn 0 0.8291412 0.5590392
vn 0.141886 0.8181818 0.5571775
vn 0.09823669 0.8257656 0.5553924
vn 0.1997636 0.8098635 0.5515575
vn 0.2640366 0.7959946 0.544681
vn 0.3188173 0.7930675 0.5190371
vn 0.3437536 0.7866914 0.5127866
vn 0.382259 0.7838984 0.4892661
vn 0.4175122 0.7734289 0.4769605
vn 0.9236343 0.3756154 -0.07624116
vn 0.926319 0.3746869 -0.03927882
vn 0.9288015 0.3700118 -0.02046977
vn 0.9298807 0.3678466 0.003269711
vn 0.9282437 0.3718629 0.009031088
vn 0.9167643 0.3945094 -0.06249427
vn 0.9344577 0.3210094 -0.1540835
vn 0.9280149 0.3724536 0.008170058
vn 0.104273 0.9452599 -0.3092102
vn 0.06855373 0.9489032 -0.308031
vn 0.1010798 0.9288823 -0.3563152
vn 0.06666595 0.9294151 -0.3629644
vn 0.03532377 0.9528217 -0.3014679
vn 0.09023438 0.9225339 -0.3752185
vn 0.03219183 0.927795 -0.371699
vn 0 0.9549772 -0.2966793
vn 0.05221217 0.9225256 -0.3823876
vn 0 0.9267874 -0.3755865
vn 0.02334248 0.9149324 -0.4029316
vn 0 0.9100922 -0.4144059
vn 0.01660188 0.9681865 -0.2496783
vn 0.01669251 0.9621973 -0.2718412
vn 0.03417808 0.9568213 -0.2886603
vn 0.09840586 0.954906 -0.2801263
vn 0.1468485 0.9516556 -0.2697908
vn 0.03946299 0.9424133 -0.3321142
vn 0 0.9710476 -0.2388863
vn 0.1477602 0.9515553 -0.269647
vn 0 0.8328658 0.553475
vn 0 0.8291412 0.5590392
vn -0.04846806 0.8294283 0.5565065
vn -0.1418861 0.8181818 0.5571775
vn -0.09823669 0.8257656 0.5553924
vn -0.1997636 0.8098635 0.5515575
vn -0.2640366 0.7959946 0.544681
vn -0.3188173 0.7930675 0.5190371
vn -0.3437536 0.7866914 0.5127866
vn -0.382259 0.7838984 0.4892661
vn -0.4175122 0.7734289 0.4769605
vn -0.924368 0.3735404 -0.0775334
vn -0.9301403 0.3666451 -0.02025842
vn -0.9276779 0.3711644 -0.04062995
vn -0.9307556 0.365616 0.004373824
vn -0.9285867 0.3709716 0.01032947
vn -0.9166827 0.3947481 -0.06218405
vn -0.9342275 0.3225582 -0.1522337
vn -0.9280149 0.3724536 0.008170058
vn -0.1042374 0.9452696 -0.3091925
vn -0.1010003 0.9288819 -0.3563386
vn -0.06854937 0.9489051 -0.3080261
vn -0.06662781 0.9294157 -0.3629701
vn -0.03532377 0.9528217 -0.3014679
vn -0.09030642 0.9225289 -0.3752135
vn -0.03219035 0.9277956 -0.3716976
vn 0 0.9549772 -0.2966793
vn -0.05224647 0.9225299 -0.3823727
vn 0 0.9267874 -0.3755865
vn -0.02333704 0.9149326 -0.4029313
vn 0 0.9100922 -0.4144059
vn -0.01660188 0.9681865 -0.2496783
vn -0.01669251 0.9621973 -0.2718412
vn -0.03417808 0.9568213 -0.2886603
vn -0.09840584 0.954906 -0.2801263
vn -0.1467357 0.951668 -0.2698086
vn -0.1465022 0.9516934 -0.2698458
vn -0.03954694 0.9423994 -0.3321435
vn 0 0.9710476 -0.2388863
g Glass_59_0
f 3/3/3 2/2/2 1/1/1
f 3/3/3 4/4/4 2/2/2
f 4/4/4 5/5/5 2/2/2
f 4/4/4 6/6/6 5/5/5
f 7/7/7 6/6/6 4/4/4
f 7/7/7 8/8/8 6/6/6
f 9/9/9 8/8/8 7/7/7
f 9/9/9 10/10/10 8/8/8
f 9/9/9 11/11/11 10/10/10
f 14/14/14 13/13/13 12/12/12
f 15/15/15 13/13/13 14/14/14
f 14/14/14 16/16/16 15/15/15
f 13/13/13 17/17/17 12/12/12
f 17/17/17 18/18/18 12/12/12
f 16/16/16 19/19/19 15/15/15
f 22/22/22 21/21/21 20/20/20
f 22/22/22 23/23/23 21/21/21
f 23/23/23 24/24/24 21/21/21
f 25/25/25 23/23/23 22/22/22
f 23/23/23 26/26/26 24/24/24
f 26/26/26 27/27/27 24/24/24
f 28/28/28 26/26/26 23/23/23
f 25/25/25 28/28/28 23/23/23
f 26/26/26 29/29/29 27/27/27
f 28/28/28 30/30/30 26/26/26
f 29/29/29 26/26/26 30/30/30
f 31/31/31 29/29/29 30/30/30
f 24/24/24 27/27/27 32/32/32
f 33/33/33 24/24/24 32/32/32
f 21/21/21 24/24/24 33/33/33
f 34/34/34 21/21/21 33/33/33
f 35/35/35 21/21/21 34/34/34
f 20/20/20 21/21/21 35/35/35
f 36/36/36 20/20/20 35/35/35
f 25/25/25 37/37/37 28/28/28
f 32/32/32 27/27/27 38/38/38
f 36/36/36 39/39/39 20/20/20
f 42/42/42 41/41/41 40/40/40
f 43/43/43 41/41/41 42/42/42
f 44/44/44 43/43/43 42/42/42
f 45/45/45 43/43/43 44/44/44
f 45/45/45 46/46/46 43/43/43
f 47/47/47 46/46/46 45/45/45
f 47/47/47 48/48/48 46/46/46
f 49/49/49 48/48/48 47/47/47
f 50/50/50 48/48/48 49/49/49
f 53/53/53 52/52/52 51/51/51
f 53/53/53 54/54/54 52/52/52
f 55/55/55 52/52/52 54/54/54
f 56/56/56 53/53/53 51/51/51
f 57/57/57 56/56/56 51/51/51
f 58/58/58 55/55/55 54/54/54
f 61/61/61 60/60/60 59/59/59
f 62/62/62 60/60/60 61/61/61
f 63/63/63 62/62/62 61/61/61
f 62/62/62 64/64/64 60/60/60
f 65/65/65 62/62/62 63/63/63
f 66/66/66 65/65/65 63/63/63
f 65/65/65 67/67/67 62/62/62
f 67/67/67 64/64/64 62/62/62
f 68/68/68 65/65/65 66/66/66
f 69/69/69 67/67/67 65/65/65
f 65/65/65 68/68/68 69/69/69
f 68/68/68 70/70/70 69/69/69
f 66/66/66 63/63/63 71/71/71
f 63/63/63 72/72/72 71/71/71
f 63/63/63 61/61/61 72/72/72
f 61/61/61 73/73/73 72/72/72
f 61/61/61 74/74/74 73/73/73
f 61/61/61 59/59/59 74/74/74
f 59/59/59 75/75/75 74/74/74
f 76/76/76 75/75/75 59/59/59
f 77/77/77 64/64/64 67/67/67
f 66/66/66 71/71/71 78/78/78
