g Taillights_59
v -0.5626 0.7945989 -1.9893
v -0.4107 0.6686988 -1.9892
v -0.4355 0.7955989 -1.9893
v -0.7312 0.7528989 -1.9893
v -0.7471 0.7307988 -1.9893
v -0.7657 0.6738989 -1.9892
v -0.6422 0.7936988 -1.9893
v -0.679 0.7901989 -1.9893
v -0.7087 0.7770989 -1.9893
v 0.5626 0.7945989 -1.9893
v 0.4355 0.7955989 -1.9893
v 0.4106 0.6686988 -1.9892
v 0.7312 0.7528989 -1.9893
v 0.7471 0.7307988 -1.9893
v 0.7656 0.6738989 -1.9892
v 0.6422 0.7936988 -1.9893
v 0.679 0.7901989 -1.9893
v 0.7087 0.7770989 -1.9893
vt 0.5676 0.7052
vt 0.2572 0.3865
vt 0.3112 0.7126
vt 0.9066 0.5913
vt 0.9379 0.5336
vt 0.9736 0.3863
vt 0.7282 0.6997
vt 0.8023 0.6895
vt 0.8619 0.6545
vt 0.5676 0.7052
vt 0.3112 0.7126
vt 0.2572 0.3865
vt 0.9066 0.5913
vt 0.9379 0.5336
vt 0.9736 0.3863
vt 0.7282 0.6997
vt 0.8023 0.6895
vt 0.8619 0.6545
vn 0.0001072915 -0.0006072286 -0.9999998
vn 6.125568E-05 -0.0008178711 -0.9999996
vn 0 -0.0007878795 -0.9999997
vn 0.0001913878 -0.0002228195 -0.9999999
vn 8.858255E-05 -0.001127289 -0.9999993
vn -2.569637E-05 -0.001749379 -0.9999985
vn 0 0 -1
vn 0 0 -1
vn -1.757253E-05 0 -1
vn -0.0001082244 -0.0006071445 -0.9999998
vn 0 -0.0007878751 -0.9999997
vn -6.15917E-05 -0.000817864 -0.9999996
vn -0.0001916675 -0.0002227622 -0.9999999
vn -8.86132E-05 -0.00112698 -0.9999993
vn 2.569709E-05 -0.001749428 -0.9999985
vn 0 0 -1
vn 0 0 -1
vn 1.757253E-05 0 -1
g Taillights_59_0
f 3/3/3 2/2/2 1/1/1
f 1/1/1 2/2/2 4/4/4
f 5/5/5 4/4/4 2/2/2
f 5/5/5 2/2/2 6/6/6
f 1/1/1 4/4/4 7/7/7
f 8/8/8 7/7/7 4/4/4
f 9/9/9 8/8/8 4/4/4
f 12/12/12 11/11/11 10/10/10
f 10/10/10 13/13/13 12/12/12
f 13/13/13 14/14/14 12/12/12
f 12/12/12 14/14/14 15/15/15
f 10/10/10 16/16/16 13/13/13
f 16/16/16 17/17/17 13/13/13
f 17/17/17 18/18/18 13/13/13
