g Glass_53
v 0.6739 0.9350992 -1.123101
v 0.7003 0.9292001 -0.4680999
v 0.554 1.2334 -0.9707008
v 0.5749 1.2289 -0.4717008
v 0.6483 0.9924992 -1.172601
v 0.2171 0.8774998 1.0032
v 0.2079 0.9825999 0.9035002
v 0.4174 0.9734999 0.8577002
v 0 0.9898998 0.9211002
v 0.188 1.1813 0.6958992
v 0.3767 1.175 0.6530992
v 0.5074 1.1682 0.5988992
v 0.4364 0.8658998 0.9572001
v 0 1.1856 0.7130992
v 0.5641 0.9647999 0.7981002
v 0.5836 1.1603 0.5333992
v 0.5397 1.2768 0.4240992
v 0.5905 0.8561999 0.8952001
v 0.6599 0.9582999 0.7231002
v 0.699 0.8543999 0.8206001
v 0.4712 1.277 0.4787992
v 0.3508 1.2825 0.5296993
v 0.1755 1.2859 0.5718992
v 0 1.2869 0.5903993
v -0.1755 1.2859 0.5718992
v -0.1881 1.1813 0.6958992
v -0.3508 1.2825 0.5296993
v -0.2079 0.9825999 0.9035002
v -0.2172 0.8774998 1.0032
v -0.3767 1.175 0.6530992
v -0.4713 1.277 0.4787992
v -0.4175 0.9734999 0.8577002
v -0.4365 0.8658998 0.9572001
v -0.5075 1.1682 0.5988992
v -0.5397 1.2768 0.4240992
v -0.5837 1.1603 0.5333992
v -0.5641 0.9647999 0.7981002
v -0.5905 0.8561999 0.8952001
v -0.6599 0.9582999 0.7231002
v -0.6991 0.8543999 0.8206001
v 0 0.8876998 1.0194
v 0.7245 0.8647999 0.7097001
v 0.5666 1.2764 -0.3858008
v 0.7131 0.9054 -0.3631999
v 0.5684 1.2789 0.3608992
v 0.3477 0.9293993 -1.457
v 0.1631 1.017499 -1.399601
v 0.1709 0.9293993 -1.475801
v 0.3279 1.017499 -1.3829
v 0.4881 0.9309992 -1.4185
v 0.1497 1.156999 -1.274501
v 0.4658 1.017199 -1.3456
v 0.295 1.156999 -1.261201
v 0.1376 1.266399 -1.170501
v 0.5245 1.006399 -1.320601
v 0.4289 1.153799 -1.225701
v 0.4771 1.147899 -1.204601
v 0.2672 1.266399 -1.159901
v 0 1.266399 -1.176801
v 0 1.156999 -1.280201
v 0 1.017499 -1.4044
v 0 0.9293993 -1.480101
v 0.3979 1.260699 -1.126001
v 0.4396 1.2592 -1.111801
v 0.5397 0.9299992 -1.3936
v -0.1497 1.156999 -1.274501
v -0.1709 0.9293993 -1.475801
v -0.1632 1.017499 -1.399601
v -0.3477 0.9293993 -1.457
v -0.3279 1.017499 -1.3829
v -0.4881 0.9309992 -1.4185
v -0.4658 1.017199 -1.3456
v -0.295 1.156999 -1.261201
v -0.1377 1.266399 -1.170501
v -0.5246 1.006399 -1.320601
v -0.429 1.153799 -1.225701
v -0.4772 1.147899 -1.204601
v -0.2673 1.266399 -1.159901
v -0.398 1.260699 -1.126001
v -0.4396 1.2592 -1.111801
v -0.5397 0.9299992 -1.3936
v -0.6739 0.9350992 -1.123101
v -0.5541 1.2334 -0.9707008
v -0.7004 0.9292001 -0.4680999
v -0.575 1.2289 -0.4717008
v -0.6484 0.9924992 -1.172601
v -0.7245 0.8647999 0.7097001
v -0.7132 0.9054 -0.3631999
v -0.5667 1.2764 -0.3858008
v -0.5684 1.2789 0.3608992
vt 0.375 0.3639
vt 0.0659 0.3639
vt 0.3068 0.5171
vt 0.0713 0.517
vt 0.3991 0.3929
vt 0.4587 0.3447
vt 0.4538 0.2764
vt 0.5541 0.2635
vt 0.3555 0.28
vt 0.4443 0.1411
vt 0.5345 0.1284
vt 0.599 0.1117
vt 0.564 0.3325
vt 0.3555 0.1458
vt 0.6267 0.2456
vt 0.6416 0.0908
vt 0.6196 0.0156
vt 0.6406 0.3142
vt 0.6789 0.2213
vt 0.6977 0.2888
vt 0.5831 0.0351
vt 0.5232 0.0511
vt 0.4389 0.0645
vt 0.3555 0.0706
vt 0.2722 0.0645
vt 0.2668 0.1411
vt 0.1879 0.051
vt 0.2573 0.2764
vt 0.2524 0.3447
vt 0.1766 0.1284
vt 0.128 0.0351
vt 0.157 0.2635
vt 0.147 0.3325
vt 0.1121 0.1117
vt 0.0915 0.0156
vt 0.0695 0.0908
vt 0.0844 0.2455
vt 0.0705 0.3142
vt 0.0322 0.2213
vt 0.0134 0.2887
vt 0.3555 0.347
vt 0.5505 1.041
vt 0.6896 0.5019
vt 0.5045 0.5368
vt 0.7361 0.8509
vt 0.4225 0.9425
vt 0.335 0.8935
vt 0.3388 0.9485
vt 0.4129 0.8882
vt 0.49 0.9296
vt 0.3287 0.8052
vt 0.4792 0.8764
vt 0.3973 0.801
vt 0.3231 0.734
vt 0.5094 0.872
vt 0.4618 0.7908
vt 0.4862 0.7858
vt 0.3844 0.7307
vt 0.2581 0.7359
vt 0.2581 0.807
vt 0.2581 0.895
vt 0.2581 0.9498
vt 0.4476 0.7218
vt 0.468 0.7177
vt 0.5159 0.9219
vt 0.1875 0.8052
vt 0.1774 0.9485
vt 0.1811 0.8935
vt 0.0937 0.9425
vt 0.1033 0.8882
vt 0.0262 0.9296
vt 0.037 0.8764
vt 0.1189 0.801
vt 0.193 0.734
vt 0.0067 0.872
vt 0.0544 0.7908
vt 0.0299 0.7858
vt 0.1317 0.7307
vt 0.0686 0.7218
vt 0.0482 0.7177
vt 0.0002 0.9219
vt 0.3885 0.6971
vt 0.3203 0.5438
vt 0.0794 0.6969
vt 0.0848 0.5438
vt 0.4125 0.6681
vt 0.7525 0.4597
vt 0.7847 0.9649
vt 0.973 0.9709
vt 0.9652 0.6189
vn 0.9216894 0.3866355 -0.03164794
vn 0.9217809 0.386165 -0.03459034
vn 0.9215605 0.3867761 -0.0336222
vn 0.9220827 0.3853939 -0.03514476
vn 0.9221272 0.3857546 -0.0295793
vn 0.1349581 0.6882685 0.7127922
vn 0.1327183 0.7049116 0.6967679
vn 0.2446368 0.6976356 0.6733925
vn 1.026906E-05 0.7097999 0.7044033
vn 0.1252405 0.7435383 0.6568605
vn 0.233869 0.7359773 0.6353288
vn 0.4045138 0.7103198 0.5760333
vn 0.2472001 0.68106 0.6892383
vn 1.570559E-05 0.7486877 0.6629229
vn 0.4021879 0.6802325 0.6128039
vn 0.5142844 0.6775374 0.5257895
vn 0.460403 0.713396 0.5282946
vn 0.3766124 0.6773693 0.6319287
vn 0.4672913 0.6821636 0.5623981
vn 0.4118193 0.701165 0.5820417
vn 0.3648153 0.7420955 0.5623202
vn 0.2290203 0.7575722 0.6112561
vn 0.1211147 0.7654222 0.6320286
vn 0 0.7711502 0.6366532
vn -0.1210775 0.7654655 0.6319833
vn -0.1252715 0.7435405 0.6568519
vn -0.2289253 0.757594 0.6112648
vn -0.1326719 0.7049445 0.6967434
vn -0.1349414 0.6883107 0.7127547
vn -0.2337797 0.7360005 0.6353347
vn -0.364987 0.7420714 0.5622407
vn -0.2446813 0.6976444 0.6733673
vn -0.2472877 0.6810546 0.6892122
vn -0.4044979 0.7103215 0.5760423
vn -0.46064 0.713403 0.5280784
vn -0.5142453 0.6776075 0.5257373
vn -0.402285 0.6801724 0.612807
vn -0.376606 0.6774178 0.6318805
vn -0.4672387 0.6821552 0.562452
vn -0.4114345 0.7014024 0.5820278
vn 1.951191E-05 0.6932212 0.7207249
vn 0.9340705 0.3570884 -0.0004674103
vn 0.9317418 0.3631151 0.002132656
vn 0.930019 0.3674894 0.004024535
vn 0.9366689 0.3501993 -0.003430391
vn 0.1370598 0.6562418 -0.7419981
vn 0.05011917 0.6616753 -0.7481135
vn 0.0508665 0.6552386 -0.7537075
vn 0.1348853 0.6632915 -0.7361048
vn 0.2723449 0.6692671 -0.6913103
vn 0.04893004 0.6790649 -0.7324457
vn 0.2977138 0.6663212 -0.6836538
vn 0.1333833 0.6814393 -0.7196175
vn 0.04746783 0.6897451 -0.7224947
vn 0.3819147 0.6624375 -0.6444515
vn 0.2861215 0.6832755 -0.6717657
vn 0.3551571 0.6730707 -0.6487213
vn 0.1283804 0.6927401 -0.7096686
vn 0 0.6889158 -0.7248414
vn 0 0.6769691 -0.7360114
vn 0 0.6589669 -0.7521719
vn 0 0.6517177 -0.7584616
vn 0.2448112 0.6871895 -0.683987
vn 0.2611503 0.6685491 -0.6963065
vn 0.3269319 0.6860618 -0.6499499
vn -0.04892548 0.6790612 -0.7324495
vn -0.05084906 0.6552079 -0.7537353
vn -0.05014143 0.6616731 -0.7481139
vn -0.1370743 0.6562326 -0.7420037
vn -0.134903 0.6632957 -0.7360977
vn -0.2722885 0.6691912 -0.6914059
vn -0.29741 0.6662922 -0.6838144
vn -0.1333214 0.6813933 -0.7196726
vn -0.04746318 0.6897212 -0.7225177
vn -0.3815217 0.6623968 -0.644726
vn -0.2860627 0.6832377 -0.6718292
vn -0.3552194 0.6730787 -0.6486788
vn -0.1283827 0.6927032 -0.7097042
vn -0.2450138 0.6872404 -0.6838633
vn -0.2616718 0.6686869 -0.6959783
vn -0.3270206 0.6858359 -0.6501434
vn -0.921882 0.3862074 -0.03126261
vn -0.9216427 0.38658 -0.03362295
vn -0.9218103 0.3860902 -0.03464421
vn -0.9220828 0.3853935 -0.03514495
vn -0.922434 0.3850909 -0.0286439
vn -0.9340487 0.3571454 -0.0003575507
vn -0.9300168 0.3674941 0.004111348
vn -0.9317312 0.3631418 0.002229169
vn -0.936635 0.3502914 -0.003305227
g Glass_53_0
f 3/3/3 2/2/2 1/1/1
f 4/4/4 2/2/2 3/3/3
f 5/5/5 3/3/3 1/1/1
f 8/8/8 7/7/7 6/6/6
f 6/6/6 7/7/7 9/9/9
f 9/9/9 7/7/7 10/10/10
f 7/7/7 8/8/8 11/11/11
f 7/7/7 11/11/11 10/10/10
f 12/12/12 11/11/11 8/8/8
f 8/8/8 6/6/6 13/13/13
f 9/9/9 10/10/10 14/14/14
f 13/13/13 15/15/15 8/8/8
f 12/12/12 8/8/8 15/15/15
f 16/16/16 12/12/12 15/15/15
f 12/12/12 16/16/16 17/17/17
f 13/13/13 18/18/18 15/15/15
f 16/16/16 15/15/15 19/19/19
f 18/18/18 19/19/19 15/15/15
f 18/18/18 20/20/20 19/19/19
f 12/12/12 17/17/17 21/21/21
f 21/21/21 11/11/11 12/12/12
f 21/21/21 22/22/22 11/11/11
f 22/22/22 10/10/10 11/11/11
f 22/22/22 23/23/23 10/10/10
f 23/23/23 14/14/14 10/10/10
f 23/23/23 24/24/24 14/14/14
f 14/14/14 24/24/24 25/25/25
f 14/14/14 25/25/25 26/26/26
f 26/26/26 25/25/25 27/27/27
f 26/26/26 9/9/9 14/14/14
f 26/26/26 28/28/28 9/9/9
f 9/9/9 28/28/28 29/29/29
f 28/28/28 26/26/26 30/30/30
f 26/26/26 27/27/27 30/30/30
f 30/30/30 27/27/27 31/31/31
f 32/32/32 29/29/29 28/28/28
f 28/28/28 30/30/30 32/32/32
f 32/32/32 33/33/33 29/29/29
f 32/32/32 30/30/30 34/34/34
f 30/30/30 31/31/31 34/34/34
f 35/35/35 34/34/34 31/31/31
f 35/35/35 36/36/36 34/34/34
f 37/37/37 34/34/34 36/36/36
f 37/37/37 33/33/33 32/32/32
f 32/32/32 34/34/34 37/37/37
f 37/37/37 38/38/38 33/33/33
f 37/37/37 36/36/36 39/39/39
f 39/39/39 38/38/38 37/37/37
f 39/39/39 40/40/40 38/38/38
f 9/9/9 29/29/29 41/41/41
f 6/6/6 9/9/9 41/41/41
f 44/44/44 43/43/43 42/42/42
f 42/42/42 43/43/43 45/45/45
f 48/48/48 47/47/47 46/46/46
f 46/46/46 47/47/47 49/49/49
f 46/46/46 49/49/49 50/50/50
f 47/47/47 51/51/51 49/49/49
f 50/50/50 49/49/49 52/52/52
f 49/49/49 53/53/53 52/52/52
f 49/49/49 51/51/51 53/53/53
f 51/51/51 54/54/54 53/53/53
f 52/52/52 55/55/55 50/50/50
f 56/56/56 55/55/55 52/52/52
f 52/52/52 53/53/53 56/56/56
f 57/57/57 55/55/55 56/56/56
f 53/53/53 58/58/58 56/56/56
f 53/53/53 54/54/54 58/58/58
f 51/51/51 59/59/59 54/54/54
f 60/60/60 59/59/59 51/51/51
f 47/47/47 60/60/60 51/51/51
f 61/61/61 60/60/60 47/47/47
f 48/48/48 61/61/61 47/47/47
f 62/62/62 61/61/61 48/48/48
f 56/56/56 58/58/58 63/63/63
f 63/63/63 57/57/57 56/56/56
f 64/64/64 57/57/57 63/63/63
f 50/50/50 55/55/55 65/65/65
f 59/59/59 60/60/60 66/66/66
f 61/61/61 62/62/62 67/67/67
f 60/60/60 61/61/61 68/68/68
f 61/61/61 67/67/67 68/68/68
f 60/60/60 68/68/68 66/66/66
f 68/68/68 67/67/67 69/69/69
f 66/66/66 68/68/68 70/70/70
f 68/68/68 69/69/69 70/70/70
f 70/70/70 69/69/69 71/71/71
f 70/70/70 71/71/71 72/72/72
f 73/73/73 70/70/70 72/72/72
f 66/66/66 70/70/70 73/73/73
f 74/74/74 66/66/66 73/73/73
f 59/59/59 66/66/66 74/74/74
f 75/75/75 72/72/72 71/71/71
f 75/75/75 76/76/76 72/72/72
f 73/73/73 72/72/72 76/76/76
f 75/75/75 77/77/77 76/76/76
f 78/78/78 73/73/73 76/76/76
f 74/74/74 73/73/73 78/78/78
f 78/78/78 76/76/76 79/79/79
f 77/77/77 79/79/79 76/76/76
f 77/77/77 80/80/80 79/79/79
f 75/75/75 71/71/71 81/81/81
f 84/84/84 83/83/83 82/82/82
f 84/84/84 85/85/85 83/83/83
f 83/83/83 86/86/86 82/82/82
f 89/89/89 88/88/88 87/87/87
f 89/89/89 87/87/87 90/90/90
