g Taillights_53
v 0.6649 0.7729992 -1.4577
v 0.6311 0.8039992 -1.4688
v 0.6335 0.7787992 -1.4718
v 0.6055 0.8018993 -1.4732
v 0.6729 0.7971992 -1.4518
v 0.6519 0.8297992 -1.4476
v 0.6159 0.8445992 -1.4539
v 0.684 0.8324993 -1.4264
v 0.6899 0.7849993 -1.4373
v 0.6472 0.8630992 -1.4276
v 0.5951 0.8331993 -1.4623
v 0.6995 0.8109992 -1.4171
v 0.6856 0.8444992 -1.4036
v 0.6595 0.8714992 -1.4068
v 0.6038 0.8630992 -1.4417
v 0.6267 0.8766992 -1.421901
v 0.6418 0.7436993 -1.4877
v 0.6181 0.7098992 -1.5142
v 0.6627 0.7238992 -1.4923
v 0.6591 0.6694992 -1.5084
v 0.7036 0.6923993 -1.4816
v 0.6032 0.6667992 -1.5296
v 0.631 0.6216992 -1.5273
v 0.5819 0.6481993 -1.5335
v 0.5789 0.6804993 -1.528
v 0.5867 0.7073992 -1.519
v 0.6138 0.7357993 -1.5014
v 0.6772 0.7367992 -1.474
v 0.7034 0.7152992 -1.4673
v 0.7244 0.6811993 -1.4652
v 0.678 0.6135992 -1.509
v 0.7094 0.6446992 -1.4892
v 0.7264 0.6483992 -1.4716
v 0.717 0.6211993 -1.4814
v 0.6936 0.5979992 -1.4963
v 0.6663 0.5887992 -1.5099
v 0.6367 0.5916992 -1.522
v 0.5983 0.6166992 -1.5332
v -0.6649 0.7729992 -1.4577
v -0.6335 0.7787992 -1.4718
v -0.6311 0.8039992 -1.4688
v -0.6055 0.8018993 -1.4732
v -0.673 0.7971992 -1.4518
v -0.6519 0.8297992 -1.4476
v -0.616 0.8445992 -1.4539
v -0.684 0.8324993 -1.4264
v -0.69 0.7849993 -1.4373
v -0.6472 0.8630992 -1.4276
v -0.5951 0.8331993 -1.4623
v -0.6995 0.8109992 -1.4171
v -0.6856 0.8444992 -1.4036
v -0.6595 0.8714992 -1.4068
v -0.6038 0.8630992 -1.4417
v -0.6268 0.8766992 -1.421901
v -0.6419 0.7436993 -1.4877
v -0.6627 0.7238992 -1.4923
v -0.6181 0.7098992 -1.5142
v -0.6592 0.6694992 -1.5084
v -0.7036 0.6923993 -1.4816
v -0.6032 0.6667992 -1.5296
v -0.6311 0.6216992 -1.5273
v -0.5819 0.6481993 -1.5335
v -0.579 0.6804993 -1.528
v -0.5867 0.7073992 -1.519
v -0.6138 0.7357993 -1.5014
v -0.6772 0.7367992 -1.474
v -0.7035 0.7152992 -1.4673
v -0.7245 0.6811993 -1.4652
v -0.678 0.6135992 -1.509
v -0.7094 0.6446992 -1.4892
v -0.7265 0.6483992 -1.4716
v -0.717 0.6211993 -1.4814
v -0.6936 0.5979992 -1.4963
v -0.6663 0.5887992 -1.5099
v -0.6368 0.5916992 -1.522
v -0.5983 0.6166992 -1.5332
vt 0.1074 0.0452
vt 0.1663 0.0907
vt 0.164 0.048
vt 0.2113 0.0827
vt 0.0999 0.0899
vt 0.1323 0.1372
vt 0.1859 0.1534
vt 0.0779 0.1518
vt 0.0596 0.0754
vt 0.1342 0.1953
vt 0.2255 0.137
vt 0.0372 0.1269
vt 0.0548 0.1877
vt 0.1028 0.2265
vt 0.2065 0.1932
vt 0.1636 0.2262
vt 0.4244 0.2114
vt 0.4418 0.1589
vt 0.3975 0.1916
vt 0.3858 0.1312
vt 0.3445 0.1755
vt 0.4447 0.1071
vt 0.3997 0.0718
vt 0.4593 0.0803
vt 0.4738 0.1142
vt 0.4738 0.147
vt 0.4531 0.1898
vt 0.382 0.2199
vt 0.3456 0.2081
vt 0.3111 0.181
vt 0.347 0.0839
vt 0.324 0.1293
vt 0.2972 0.1464
vt 0.2986 0.1118
vt 0.3175 0.0764
vt 0.3451 0.0541
vt 0.3791 0.0444
vt 0.4299 0.054
vt 0.1074 0.0452
vt 0.164 0.048
vt 0.1663 0.0907
vt 0.2113 0.0827
vt 0.0999 0.0899
vt 0.1323 0.1372
vt 0.1859 0.1534
vt 0.0779 0.1518
vt 0.0596 0.0754
vt 0.1342 0.1953
vt 0.2255 0.137
vt 0.0372 0.1269
vt 0.0548 0.1877
vt 0.1028 0.2265
vt 0.2065 0.1932
vt 0.1636 0.2262
vt 0.4244 0.2114
vt 0.3975 0.1916
vt 0.4418 0.1589
vt 0.3858 0.1312
vt 0.3445 0.1755
vt 0.4447 0.1071
vt 0.3997 0.0718
vt 0.4593 0.0803
vt 0.4738 0.1142
vt 0.4738 0.147
vt 0.4531 0.1898
vt 0.382 0.2199
vt 0.3456 0.2081
vt 0.3111 0.181
vt 0.347 0.0839
vt 0.324 0.1293
vt 0.2972 0.1464
vt 0.2986 0.1118
vt 0.3175 0.0764
vt 0.3451 0.0541
vt 0.3791 0.0444
vt 0.4299 0.054
vn 0.4810045 0.06935058 -0.8739709
vn 0.2744954 0.272091 -0.92229
vn 0.3466604 0.1433688 -0.9269692
vn 0.1448 0.3053483 -0.9411671
vn 0.5577182 0.1962819 -0.8064886
vn 0.4022038 0.4484432 -0.7982047
vn 0.1952525 0.5203576 -0.8313268
vn 0.6755973 0.4677105 -0.5699256
vn 0.702333 0.1521603 -0.695396
vn 0.3884119 0.6429344 -0.66013
vn 0.1256137 0.4296927 -0.8941954
vn 0.7680326 0.3105022 -0.5601021
vn 0.7365284 0.5758944 -0.3547839
vn 0.5222124 0.674883 -0.5213705
vn 0.1852362 0.6225605 -0.7603328
vn 0.2755686 0.6885391 -0.6708024
vn 0.3041638 0.5024342 -0.809348
vn 0.232246 0.3485765 -0.9080508
vn 0.4000688 0.4148298 -0.8172278
vn 0.383889 0.1913679 -0.9033313
vn 0.571486 0.3012879 -0.7633016
vn 0.1853224 0.1781266 -0.9663987
vn 0.2822114 0.01033865 -0.9592965
vn 0.1117164 0.09285605 -0.9893923
vn 0.08468948 0.2524042 -0.9639086
vn 0.1167862 0.3310513 -0.9363579
vn 0.2254167 0.4614715 -0.8580393
vn 0.4895 0.4867663 -0.7234972
vn 0.5900477 0.4313386 -0.6824887
vn 0.6775706 0.2407564 -0.6949349
vn 0.4530838 -0.03234775 -0.8908808
vn 0.587685 0.09101167 -0.8039547
vn 0.6959544 0.1261497 -0.7069185
vn 0.6320068 -0.05093017 -0.7732875
vn 0.5534737 -0.1177492 -0.824501
vn 0.3955491 -0.1432958 -0.9071975
vn 0.3191154 -0.1057533 -0.941797
vn 0.1746976 0.0190871 -0.9844371
vn -0.4800421 0.06820991 -0.8745896
vn -0.3466604 0.1433688 -0.9269692
vn -0.2743359 0.2719274 -0.9223856
vn -0.1447121 0.3051776 -0.9412359
vn -0.5576333 0.1961266 -0.806585
vn -0.4022364 0.4486562 -0.7980686
vn -0.1955613 0.5202617 -0.8313144
vn -0.6755698 0.4681268 -0.5696163
vn -0.7024851 0.152698 -0.6951244
vn -0.3889402 0.6425816 -0.6601624
vn -0.1249972 0.4297602 -0.8942494
vn -0.7683132 0.3113154 -0.5592653
vn -0.7365284 0.5758944 -0.3547839
vn -0.5225653 0.6745583 -0.5214371
vn -0.1838841 0.6227704 -0.760489
vn -0.2761752 0.6883247 -0.670773
vn -0.3045479 0.5018623 -0.8095584
vn -0.4003211 0.4146083 -0.8172166
vn -0.2320581 0.3486581 -0.9080675
vn -0.3840549 0.191524 -0.9032277
vn -0.5703775 0.3009318 -0.7642705
vn -0.1850989 0.1781665 -0.9664342
vn -0.2822364 0.01030773 -0.9592895
vn -0.1116554 0.09278945 -0.9894055
vn -0.08489423 0.2524548 -0.9638774
vn -0.1167387 0.3314171 -0.9362344
vn -0.2247881 0.4614557 -0.8582126
vn -0.4893984 0.4862482 -0.7239143
vn -0.5880862 0.4302396 -0.6848711
vn -0.6756987 0.2405428 -0.6968288
vn -0.453379 -0.03261251 -0.890721
vn -0.5869286 0.09065659 -0.8045472
vn -0.6940297 0.1258323 -0.7088646
vn -0.6313699 -0.05130161 -0.7737831
vn -0.5534737 -0.1177492 -0.824501
vn -0.3960713 -0.1433537 -0.9069604
vn -0.3197112 -0.1056073 -0.9416113
vn -0.1741972 0.01898012 -0.9845278
g Taillights_53_0
f 3/3/3 2/2/2 1/1/1
f 4/4/4 2/2/2 3/3/3
f 1/1/1 2/2/2 5/5/5
f 2/2/2 6/6/6 5/5/5
f 7/7/7 6/6/6 2/2/2
f 4/4/4 7/7/7 2/2/2
f 5/5/5 6/6/6 8/8/8
f 1/1/1 5/5/5 9/9/9
f 8/8/8 6/6/6 10/10/10
f 10/10/10 6/6/6 7/7/7
f 11/11/11 7/7/7 4/4/4
f 9/9/9 5/5/5 12/12/12
f 12/12/12 5/5/5 8/8/8
f 12/12/12 8/8/8 13/13/13
f 13/13/13 8/8/8 14/14/14
f 14/14/14 8/8/8 10/10/10
f 15/15/15 7/7/7 11/11/11
f 14/14/14 10/10/10 16/16/16
f 10/10/10 7/7/7 16/16/16
f 16/16/16 7/7/7 15/15/15
f 19/19/19 18/18/18 17/17/17
f 18/18/18 19/19/19 20/20/20
f 19/19/19 21/21/21 20/20/20
f 22/22/22 18/18/18 20/20/20
f 23/23/23 22/22/22 20/20/20
f 22/22/22 23/23/23 24/24/24
f 25/25/25 22/22/22 24/24/24
f 25/25/25 18/18/18 22/22/22
f 26/26/26 18/18/18 25/25/25
f 27/27/27 18/18/18 26/26/26
f 17/17/17 18/18/18 27/27/27
f 28/28/28 19/19/19 17/17/17
f 28/28/28 21/21/21 19/19/19
f 29/29/29 21/21/21 28/28/28
f 30/30/30 21/21/21 29/29/29
f 31/31/31 23/23/23 20/20/20
f 32/32/32 31/31/31 20/20/20
f 21/21/21 32/32/32 20/20/20
f 32/32/32 21/21/21 33/33/33
f 33/33/33 21/21/21 30/30/30
f 34/34/34 32/32/32 33/33/33
f 34/34/34 31/31/31 32/32/32
f 35/35/35 31/31/31 34/34/34
f 36/36/36 31/31/31 35/35/35
f 36/36/36 23/23/23 31/31/31
f 37/37/37 23/23/23 36/36/36
f 38/38/38 23/23/23 37/37/37
f 24/24/24 23/23/23 38/38/38
f 41/41/41 40/40/40 39/39/39
f 41/41/41 42/42/42 40/40/40
f 41/41/41 39/39/39 43/43/43
f 44/44/44 41/41/41 43/43/43
f 44/44/44 45/45/45 41/41/41
f 45/45/45 42/42/42 41/41/41
f 44/44/44 43/43/43 46/46/46
f 43/43/43 39/39/39 47/47/47
f 44/44/44 46/46/46 48/48/48
f 44/44/44 48/48/48 45/45/45
f 45/45/45 49/49/49 42/42/42
f 43/43/43 47/47/47 50/50/50
f 43/43/43 50/50/50 46/46/46
f 46/46/46 50/50/50 51/51/51
f 46/46/46 51/51/51 52/52/52
f 46/46/46 52/52/52 48/48/48
f 45/45/45 53/53/53 49/49/49
f 48/48/48 52/52/52 54/54/54
f 45/45/45 48/48/48 54/54/54
f 45/45/45 54/54/54 53/53/53
f 57/57/57 56/56/56 55/55/55
f 56/56/56 57/57/57 58/58/58
f 59/59/59 56/56/56 58/58/58
f 57/57/57 60/60/60 58/58/58
f 60/60/60 61/61/61 58/58/58
f 61/61/61 60/60/60 62/62/62
f 60/60/60 63/63/63 62/62/62
f 57/57/57 63/63/63 60/60/60
f 57/57/57 64/64/64 63/63/63
f 57/57/57 65/65/65 64/64/64
f 57/57/57 55/55/55 65/65/65
f 56/56/56 66/66/66 55/55/55
f 59/59/59 66/66/66 56/56/56
f 59/59/59 67/67/67 66/66/66
f 59/59/59 68/68/68 67/67/67
f 61/61/61 69/69/69 58/58/58
f 69/69/69 70/70/70 58/58/58
f 70/70/70 59/59/59 58/58/58
f 59/59/59 70/70/70 71/71/71
f 59/59/59 71/71/71 68/68/68
f 70/70/70 72/72/72 71/71/71
f 69/69/69 72/72/72 70/70/70
f 69/69/69 73/73/73 72/72/72
f 69/69/69 74/74/74 73/73/73
f 61/61/61 74/74/74 69/69/69
f 61/61/61 75/75/75 74/74/74
f 61/61/61 76/76/76 75/75/75
f 61/61/61 62/62/62 76/76/76
