g model_car_83_matte_mirror_LOD1
v 0.9008359 0.9913019 0.7084761
v 0.9007911 1.089447 0.7084924
v 0.883552 1.086176 0.7141939
v 0.8835602 0.9945768 0.7141919
v 0.861164 1.060829 0.7215899
v 0.8611497 1.019948 0.7215941
v 0.9568253 1.087703 0.687958
v 0.9567825 0.991506 0.6879743
v 1.016756 0.9976846 0.6663796
v 1.016842 1.082969 0.6663511
v 1.048732 1.065931 0.6558025
v 1.048769 1.016816 0.6557902
v -0.9008365 0.9913019 0.7084761
v -0.8835608 0.9945768 0.7141919
v -0.8835526 1.086176 0.7141939
v -0.9007916 1.089447 0.7084924
v -0.8611646 1.060829 0.7215899
v -0.8611503 1.019948 0.7215941
v -0.9568259 1.087703 0.687958
v -0.9567829 0.991506 0.6879743
v -1.016757 0.9976846 0.6663796
v -1.016841 1.082969 0.6663511
v -1.048733 1.065931 0.6558025
v -1.04877 1.016816 0.6557902
vn -0.3301622 0.0003338456 -0.9439242
vn -0.3301622 0.0003338456 -0.9439242
vn -0.3141381 0.0003338456 -0.9493772
vn -0.3141381 0.0003338456 -0.9493772
vn -0.3134704 0.0003338456 -0.9495979
vn -0.3134704 0.0003338456 -0.9495979
vn -0.3415126 0.0003338456 -0.9398772
vn -0.3415126 0.0003338456 -0.9398772
vn -0.3294945 0.0003338456 -0.9441574
vn -0.3288268 0.0003338456 -0.9443902
vn -0.3141381 0.0003338456 -0.9493772
vn -0.3141381 0.0003338456 -0.9493772
vn 0.3301621 0.0003338456 -0.9439242
vn 0.3141381 0.0003338456 -0.9493772
vn 0.3141381 0.0003338456 -0.9493772
vn 0.3301621 0.0003338456 -0.9439242
vn 0.3134704 0.0003338456 -0.9495979
vn 0.3134704 0.0003338456 -0.9495979
vn 0.3415125 0.0003338456 -0.9398772
vn 0.3415125 0.0003338456 -0.9398772
vn 0.3294945 0.0003338456 -0.9441574
vn 0.3288268 0.0003338456 -0.9443902
vn 0.3141381 0.0003338456 -0.9493772
vn 0.3141381 0.0003338456 -0.9493772
g model_car_83_matte_mirror_LOD1_0
f 3/3/3 2/2/2 1/1/1
f 4/4/4 3/3/3 1/1/1
f 5/5/5 3/3/3 4/4/4
f 6/6/6 5/5/5 4/4/4
f 1/1/1 2/2/2 7/7/7
f 8/8/8 1/1/1 7/7/7
f 8/8/8 7/7/7 9/9/9
f 7/7/7 10/10/10 9/9/9
f 9/9/9 10/10/10 11/11/11
f 12/12/12 9/9/9 11/11/11
f 15/15/15 14/14/14 13/13/13
f 16/16/16 15/15/15 13/13/13
f 15/15/15 17/17/17 14/14/14
f 17/17/17 18/18/18 14/14/14
f 16/16/16 13/13/13 19/19/19
f 13/13/13 20/20/20 19/19/19
f 19/19/19 20/20/20 21/21/21
f 22/22/22 19/19/19 21/21/21
f 22/22/22 21/21/21 23/23/23
f 21/21/21 24/24/24 23/23/23
