g model_car_83_matte_backlight_LOD1
v 0.876753 0.9066517 -2.027758
v 0.8824958 0.9076095 -2.053555
v 0.8854781 0.8804572 -2.075276
v 0.883235 0.8701282 -2.058526
v 0.8787839 0.8550014 -2.114592
v 0.8800148 0.8423297 -2.109778
v 0.8630401 0.9436703 -2.01402
v 0.8718424 0.9319725 -2.049284
v 0.8565196 0.9543045 -2.018487
v 0.8647884 0.9443388 -2.052526
v 0.8530359 0.959877 -2.025647
v 0.8587112 0.9545133 -2.0603
v 0.8369836 0.9739883 -2.068225
v 0.8449246 0.963428 -2.087205
v 0.8174443 0.9869394 -2.118426
v 0.8227758 0.9753702 -2.134449
v 0.7957487 0.9893336 -2.170205
v 0.8010095 0.9800172 -2.179672
v 0.8686608 0.8467166 -2.139125
v 0.8703191 0.8331451 -2.134038
v 0.843353 0.8336046 -2.179644
v 0.8471901 0.8192844 -2.175128
v 0.8102263 0.8211646 -2.234826
v 0.8147737 0.8096178 -2.227084
v 0.7761388 0.8127928 -2.282405
v 0.7770835 0.8008025 -2.278641
v 0.7377673 0.8072813 -2.319793
v 0.7379087 0.7955482 -2.315274
v 0.6813092 0.8047779 -2.347642
v 0.6748947 0.7927554 -2.346357
v 0.6127452 0.8051572 -2.369875
v 0.6055015 0.7924373 -2.369422
v 0.5871706 0.807802 -2.376151
v 0.5698231 0.7961299 -2.378176
v 0.5981615 0.8746402 -2.356946
v 0.5804379 0.8707292 -2.35674
v 0.6105824 0.941649 -2.335842
v 0.5959536 0.9455214 -2.333187
v 0.6200756 0.9461865 -2.332998
v 0.6065524 0.9505861 -2.32909
v 0.6290193 0.9524083 -2.32899
v 0.6165341 0.9575279 -2.32462
v 0.6205994 0.8794127 -2.349307
v 0.5981615 0.8746402 -2.356946
v 0.6127452 0.8051572 -2.369875
v 0.6772118 0.885628 -2.329771
v 0.6813092 0.8047779 -2.347642
v 0.5871706 0.807802 -2.376151
v 0.7256228 0.8918014 -2.302294
v 0.7377673 0.8072813 -2.319793
v 0.6777323 0.9481823 -2.314079
v 0.6404053 0.9687274 -2.32113
v 0.677366 0.9771826 -2.304354
v 0.7140695 0.9818459 -2.282221
v 0.7189672 0.9512064 -2.290898
v 0.7460136 0.9828935 -2.258662
v 0.753884 0.9525466 -2.266201
v 0.7743648 0.9823985 -2.227556
v 0.7825115 0.9542336 -2.230278
v 0.762863 0.8974864 -2.27286
v 0.7933769 0.8985019 -2.231619
v 0.7761388 0.8127928 -2.282405
v 0.8102263 0.8211646 -2.234826
v 0.8112805 0.9540763 -2.182529
v 0.8265904 0.9020596 -2.182816
v 0.8356756 0.9525979 -2.137914
v 0.8227758 0.9753702 -2.134449
v 0.8449246 0.963428 -2.087205
v 0.8561885 0.946733 -2.094147
v 0.8010095 0.9800172 -2.179672
v 0.8587112 0.9545133 -2.0603
v 0.8524157 0.905061 -2.139546
v 0.8691686 0.9058967 -2.099288
v 0.8787839 0.8550014 -2.114592
v 0.8686608 0.8467166 -2.139125
v 0.8824958 0.9076095 -2.053555
v 0.8718424 0.9319725 -2.049284
v 0.8854781 0.8804572 -2.075276
v 0.8647884 0.9443388 -2.052526
v 0.843353 0.8336046 -2.179644
v 0.6699873 0.9849117 -2.298081
v 0.677366 0.9771826 -2.304354
v 0.7140695 0.9818459 -2.282221
v 0.7096475 0.9903202 -2.274817
v 0.7460136 0.9828935 -2.258662
v 0.7405407 0.9916186 -2.251251
v 0.7743648 0.9823985 -2.227556
v 0.7706786 0.9914515 -2.218185
v 0.6324579 0.9769835 -2.315955
v -0.876755 0.9066517 -2.027758
v -0.8832338 0.8701282 -2.058526
v -0.8854802 0.8804572 -2.075276
v -0.8824944 0.9076095 -2.053555
v -0.8787827 0.8550014 -2.114592
v -0.8800168 0.8423297 -2.109778
v -0.8630388 0.9436703 -2.01402
v -0.8718412 0.9319725 -2.049284
v -0.8565216 0.9543045 -2.018487
v -0.8647904 0.9443388 -2.052526
v -0.8530347 0.959877 -2.025647
v -0.8587132 0.9545133 -2.0603
v -0.8369823 0.9739883 -2.068225
v -0.8449233 0.963428 -2.087205
v -0.8174462 0.9869394 -2.118426
v -0.8227746 0.9753702 -2.134449
v -0.7957475 0.9893336 -2.170205
v -0.8010082 0.9800172 -2.179672
v -0.8686595 0.8467166 -2.139125
v -0.8703179 0.8331451 -2.134038
v -0.8433518 0.8336046 -2.179644
v -0.847192 0.8192844 -2.175128
v -0.810225 0.8211646 -2.234826
v -0.8147724 0.8096178 -2.227084
v -0.7761407 0.8127928 -2.282405
v -0.7770855 0.8008025 -2.278641
v -0.737766 0.8072813 -2.319793
v -0.7379074 0.7955482 -2.315274
v -0.681308 0.8047779 -2.347642
v -0.6748934 0.7927554 -2.346357
v -0.6127439 0.8051572 -2.369875
v -0.6055036 0.7924373 -2.369422
v -0.5871725 0.807802 -2.376151
v -0.5698252 0.7961299 -2.378176
v -0.5981634 0.8746402 -2.356946
v -0.5804367 0.8707292 -2.35674
v -0.6105812 0.941649 -2.335842
v -0.5959556 0.9455214 -2.333187
v -0.6200776 0.9461865 -2.332998
v -0.6065512 0.9505861 -2.32909
v -0.6290212 0.9524083 -2.32899
v -0.6165328 0.9575279 -2.32462
v -0.6206014 0.8794127 -2.349307
v -0.5981634 0.8746402 -2.356946
v -0.6127439 0.8051572 -2.369875
v -0.6772106 0.885628 -2.329771
v -0.681308 0.8047779 -2.347642
v -0.5871725 0.807802 -2.376151
v -0.7256248 0.8918014 -2.302294
v -0.737766 0.8072813 -2.319793
v -0.677731 0.9481823 -2.314079
v -0.6404073 0.9687274 -2.32113
v -0.6773648 0.9771826 -2.304354
v -0.7140684 0.9818459 -2.282221
v -0.718966 0.9512064 -2.290898
v -0.7460155 0.9828935 -2.258662
v -0.753886 0.9525466 -2.266201
v -0.7743635 0.9823985 -2.227556
v -0.7825103 0.9542336 -2.230278
v -0.7628617 0.8974864 -2.27286
v -0.7933788 0.8985019 -2.231619
v -0.7761407 0.8127928 -2.282405
v -0.810225 0.8211646 -2.234826
v -0.8112793 0.9540763 -2.182529
v -0.8265891 0.9020596 -2.182816
v -0.8356743 0.9525979 -2.137914
v -0.8227746 0.9753702 -2.134449
v -0.8449233 0.963428 -2.087205
v -0.8561904 0.946733 -2.094147
v -0.8010082 0.9800172 -2.179672
v -0.8587132 0.9545133 -2.0603
v -0.8524177 0.905061 -2.139546
v -0.8691707 0.9058967 -2.099288
v -0.8787827 0.8550014 -2.114592
v -0.8686595 0.8467166 -2.139125
v -0.8824944 0.9076095 -2.053555
v -0.8718412 0.9319725 -2.049284
v -0.8854802 0.8804572 -2.075276
v -0.8647904 0.9443388 -2.052526
v -0.8433518 0.8336046 -2.179644
v -0.6699893 0.9849117 -2.298081
v -0.7096462 0.9903202 -2.274817
v -0.7140684 0.9818459 -2.282221
v -0.6773648 0.9771826 -2.304354
v -0.7460155 0.9828935 -2.258662
v -0.7405427 0.9916186 -2.251251
v -0.7743635 0.9823985 -2.227556
v -0.7706807 0.9914515 -2.218185
v -0.6324565 0.9769835 -2.315955
vt 0.9709309 0.3113638
vt 0.9352617 0.3198104
vt 0.9138792 0.3613881
vt 0.9396964 0.3716495
vt 0.8648511 0.40373
vt 0.873939 0.4205958
vt 0.9760207 0.2518287
vt 0.9330238 0.2834043
vt 0.9655409 0.2363002
vt 0.9239087 0.2655151
vt 0.9534647 0.2298459
vt 0.9095263 0.2524154
vt 0.8875708 0.216637
vt 0.8675256 0.2422496
vt 0.8099963 0.2084771
vt 0.7939629 0.2321383
vt 0.7313166 0.2127617
vt 0.7239208 0.2312923
vt 0.8291409 0.4185626
vt 0.8380787 0.4371887
vt 0.7630832 0.4403681
vt 0.7721984 0.4603996
vt 0.6727775 0.4602495
vt 0.6855633 0.4763784
vt 0.5912595 0.4716025
vt 0.5957489 0.4886593
vt 0.5171374 0.4759827
vt 0.5201667 0.4933534
vt 0.4304751 0.4722302
vt 0.4213326 0.488632
vt 0.3313817 0.4609045
vt 0.3192919 0.4778658
vt 0.2955897 0.4523351
vt 0.2687081 0.4646842
vt 0.3288028 0.3600236
vt 0.303122 0.3601736
vt 0.3665188 0.2670434
vt 0.3476198 0.2561816
vt 0.3812423 0.2627314
vt 0.3644174 0.2502868
vt 0.3960612 0.2556767
vt 0.3810649 0.2420858
vt 0.3626981 0.3574309
vt 0.3288028 0.3600236
vt 0.3313817 0.4609045
vt 0.4464812 0.3592321
vt 0.4304751 0.4722302
vt 0.2955897 0.4523351
vt 0.5250518 0.3573081
vt 0.5171374 0.4759827
vt 0.4657623 0.2718602
vt 0.4182215 0.2350448
vt 0.4759008 0.2305691
vt 0.5360364 0.2291636
vt 0.5316971 0.2736887
vt 0.5909184 0.231688
vt 0.5902634 0.2758311
vt 0.6482294 0.2329434
vt 0.652787 0.273061
vt 0.5907956 0.3527505
vt 0.6615337 0.3506764
vt 0.5912595 0.4716025
vt 0.6727775 0.4602495
vt 0.7294335 0.2698407
vt 0.743079 0.3437036
vt 0.7995849 0.2682715
vt 0.7939629 0.2321383
vt 0.8675256 0.2422496
vt 0.8662293 0.2715873
vt 0.7239208 0.2312923
vt 0.9095263 0.2524154
vt 0.8124661 0.3364169
vt 0.8718376 0.3298534
vt 0.8648511 0.40373
vt 0.8291409 0.4185626
vt 0.9352617 0.3198104
vt 0.9330238 0.2834043
vt 0.9138792 0.3613881
vt 0.9239087 0.2655151
vt 0.7630832 0.4403681
vt 0.4724212 0.2137306
vt 0.4759008 0.2305691
vt 0.5360364 0.2291636
vt 0.5378922 0.2121613
vt 0.5909184 0.231688
vt 0.5929243 0.214099
vt 0.6482294 0.2329434
vt 0.6554478 0.2156819
vt 0.4113169 0.2186429
vt 1.970925 0.3113638
vt 1.93969 0.3716495
vt 1.913873 0.3613881
vt 1.935256 0.3198104
vt 1.864845 0.40373
vt 1.873933 0.4205958
vt 1.976015 0.2518287
vt 1.933018 0.2834043
vt 1.965535 0.2363002
vt 1.923903 0.2655151
vt 1.953459 0.2298459
vt 1.909534 0.2524154
vt 1.887565 0.216637
vt 1.86752 0.2422496
vt 1.80999 0.2084771
vt 1.793957 0.2321383
vt 1.731324 0.2127617
vt 1.723915 0.2312923
vt 1.829149 0.4185626
vt 1.838086 0.4371887
vt 1.763077 0.4403681
vt 1.772206 0.4603996
vt 1.672772 0.4602495
vt 1.685557 0.4763784
vt 1.591267 0.4716025
vt 1.595757 0.4886593
vt 1.517145 0.4759827
vt 1.520174 0.4933534
vt 1.430483 0.4722302
vt 1.42134 0.488632
vt 1.331389 0.4609045
vt 1.319286 0.4778658
vt 1.295584 0.4523351
vt 1.268702 0.4646842
vt 1.328797 0.3600236
vt 1.303116 0.3601736
vt 1.366513 0.2670434
vt 1.347614 0.2561816
vt 1.381236 0.2627314
vt 1.364411 0.2502868
vt 1.396055 0.2556767
vt 1.381073 0.2420858
vt 1.362692 0.3574309
vt 1.328797 0.3600236
vt 1.331389 0.4609045
vt 1.446475 0.3592321
vt 1.430483 0.4722302
vt 1.295584 0.4523351
vt 1.525046 0.3573081
vt 1.517145 0.4759827
vt 1.46577 0.2718602
vt 1.418229 0.2350448
vt 1.475895 0.2305691
vt 1.53603 0.2291636
vt 1.531705 0.2736887
vt 1.590912 0.231688
vt 1.590271 0.2758311
vt 1.648223 0.2329434
vt 1.652781 0.273061
vt 1.590803 0.3527505
vt 1.661528 0.3506764
vt 1.591267 0.4716025
vt 1.672772 0.4602495
vt 1.729427 0.2698407
vt 1.743073 0.3437036
vt 1.799579 0.2682715
vt 1.793957 0.2321383
vt 1.86752 0.2422496
vt 1.866237 0.2715873
vt 1.723915 0.2312923
vt 1.909534 0.2524154
vt 1.812474 0.3364169
vt 1.871832 0.3298534
vt 1.864845 0.40373
vt 1.829149 0.4185626
vt 1.935256 0.3198104
vt 1.933018 0.2834043
vt 1.913873 0.3613881
vt 1.923903 0.2655151
vt 1.763077 0.4403681
vt 1.472415 0.2137306
vt 1.537886 0.2121613
vt 1.53603 0.2291636
vt 1.475895 0.2305691
vt 1.590912 0.231688
vt 1.592932 0.214099
vt 1.648223 0.2329434
vt 1.655442 0.2156819
vt 1.411311 0.2186429
vn 0.9602587 0.2212982 0.1700895
vn 0.9758568 0.1218603 0.1812557
vn 0.9973042 -0.05751801 0.0455632
vn 0.9953544 -0.03997016 0.08758985
vn 0.9758568 -0.06726688 -0.2077949
vn 0.9739071 -0.06531709 -0.2173447
vn 0.8861676 0.4533201 0.09595697
vn 0.9076151 0.4026263 0.118857
vn 0.8452226 0.5332605 0.03510026
vn 0.8432729 0.5352101 0.04940667
vn 0.8003781 0.5976026 0.04760273
vn 0.7340861 0.6775429 -0.04531226
vn 0.6970406 0.7145884 -0.05914304
vn 0.7145884 0.6911913 -0.1077868
vn 0.7223875 0.6677941 -0.1794641
vn 0.7087392 0.6697439 -0.2216572
vn 0.685342 0.6697439 -0.2859187
vn 0.6794927 0.6677941 -0.3038761
vn 0.8959165 -0.02047253 -0.4437506
vn 0.899816 -0.02047253 -0.4357889
vn 0.8549714 0.0126735 -0.5185203
vn 0.8569212 0.008773923 -0.5153728
vn 0.8276747 -0.04971898 -0.5590014
vn 0.8393734 -0.01267344 -0.5434076
vn 0.7496842 -0.156956 -0.6429139
vn 0.7633325 -0.1452574 -0.629463
vn 0.5547078 -0.2739418 -0.7856559
vn 0.5800548 -0.264193 -0.7705444
vn 0.3850784 -0.2895399 -0.8762884
vn 0.3499826 -0.2661428 -0.8981538
vn 0.2739418 -0.2057001 -0.939491
vn 0.2505447 -0.1862025 -0.9500295
vn 0.0770157 0.05946779 -0.9952548
vn 0.05946779 0.08676445 -0.9944524
vn -0.08091521 0.3031883 -0.9494891
vn -0.08091521 0.297339 -0.9513371
vn 0.2388461 0.2427456 -0.9402272
vn -0.05751801 0.4260234 -0.9028819
vn 0.2524944 0.2349465 -0.9386409
vn -0.02242231 0.5956528 -0.802929
vn 0.2953892 0.2407959 -0.9245337
vn -0.06531703 0.5410595 -0.8384439
vn 0.2739418 0.231047 -0.9335808
vn 0.2524944 0.2329968 -0.9391268
vn 0.2797911 0.2271475 -0.9328027
vn 0.3733798 0.2251977 -0.8999297
vn 0.3675305 0.2271475 -0.9018455
vn 0.2622432 0.2290972 -0.9374129
vn 0.5293609 0.2154489 -0.8205845
vn 0.5332604 0.223248 -0.8159618
vn 0.3870281 0.2524945 -0.8868234
vn 0.3226859 0.2739419 -0.9059965
vn 0.4026262 0.2895399 -0.8683655
vn 0.5059637 0.3109874 -0.8045419
vn 0.511813 0.2602935 -0.8187153
vn 0.6385477 0.3148868 -0.702213
vn 0.6619449 0.2544441 -0.7050441
vn 0.7711316 0.3168366 -0.5522415
vn 0.7886795 0.2563939 -0.5587905
vn 0.6970406 0.1998508 -0.6886175
vn 0.8003781 0.1920518 -0.5679005
vn 0.7048396 0.2057 -0.6788878
vn 0.7984283 0.190102 -0.571291
vn 0.825725 0.3148868 -0.4680007
vn 0.8218254 0.2193484 -0.5258224
vn 0.833524 0.4045759 -0.3762392
vn 0.8062273 0.4884158 -0.3338375
vn 0.7828302 0.5761552 -0.2349939
vn 0.8510719 0.4513704 -0.268219
vn 0.8179259 0.3772793 -0.4343472
vn 0.8705696 0.4611192 -0.1716907
vn 0.8530217 0.2661427 -0.4489121
vn 0.8920169 0.3109874 -0.3280132
vn 0.8861676 0.2641929 -0.3806691
vn 0.8491222 0.2271475 -0.4768601
vn 0.9037156 0.346083 -0.2520412
vn 0.8939667 0.3948271 -0.2119789
vn 0.9056653 0.2953892 -0.3041638
vn 0.8822681 0.445521 -0.1520327
vn 0.8159761 0.1920518 -0.5452514
vn 0.2232479 0.7048396 -0.6733212
vn 0.2349465 0.7106889 -0.6631149
vn 0.3343845 0.726287 -0.6005782
vn 0.3421835 0.726287 -0.5961691
vn 0.4591694 0.718488 -0.5224351
vn 0.4650187 0.718488 -0.5172356
vn 0.5800548 0.6989903 -0.418269
vn 0.6171002 0.685342 -0.3866442
vn 0.04191995 0.5878538 -0.8078803
vn -0.9602587 0.2212982 0.1700891
vn -0.9953544 -0.03997016 0.08758985
vn -0.9973042 -0.05751801 0.0455632
vn -0.9758568 0.1218603 0.1812557
vn -0.9758568 -0.06726688 -0.2077949
vn -0.973907 -0.06531709 -0.217345
vn -0.8861676 0.4533201 0.09595697
vn -0.9076151 0.4026263 0.118857
vn -0.8452226 0.5332605 0.03510026
vn -0.8432728 0.5352101 0.04940727
vn -0.8003781 0.5976026 0.04760273
vn -0.734086 0.6775429 -0.04531292
vn -0.6970406 0.7145884 -0.05914304
vn -0.7145884 0.6911913 -0.1077868
vn -0.7223876 0.6677941 -0.1794638
vn -0.7087392 0.6697439 -0.2216572
vn -0.685342 0.6697439 -0.2859187
vn -0.6794927 0.6677941 -0.3038761
vn -0.8959165 -0.02047253 -0.4437506
vn -0.899816 -0.02047253 -0.4357889
vn -0.8549714 0.0126735 -0.5185203
vn -0.8569212 0.008773923 -0.5153728
vn -0.8276747 -0.04971898 -0.5590014
vn -0.8393734 -0.01267344 -0.5434076
vn -0.7496842 -0.156956 -0.6429139
vn -0.7633325 -0.1452574 -0.6294631
vn -0.5547078 -0.2739418 -0.7856559
vn -0.5800548 -0.264193 -0.7705444
vn -0.3850783 -0.2895399 -0.8762884
vn -0.3499826 -0.2661428 -0.8981538
vn -0.2739419 -0.2057001 -0.939491
vn -0.2505447 -0.1862025 -0.9500295
vn -0.07701564 0.05946779 -0.9952548
vn -0.05946779 0.08676445 -0.9944524
vn 0.08091521 0.3031883 -0.9494891
vn 0.08091521 0.297339 -0.9513371
vn -0.2388461 0.2427456 -0.9402272
vn 0.05751801 0.4260234 -0.9028819
vn -0.2524945 0.2349465 -0.9386409
vn 0.02242231 0.5956528 -0.802929
vn -0.2953892 0.2407959 -0.9245337
vn 0.06531709 0.5410595 -0.8384439
vn -0.2739419 0.231047 -0.9335808
vn -0.2524945 0.2329968 -0.9391268
vn -0.2797911 0.2271475 -0.9328027
vn -0.3733798 0.2251977 -0.8999297
vn -0.3675305 0.2271475 -0.9018455
vn -0.2622433 0.2290972 -0.9374129
vn -0.5293609 0.2154489 -0.8205845
vn -0.5332605 0.223248 -0.8159618
vn -0.3870281 0.2524945 -0.8868234
vn -0.322686 0.2739419 -0.9059965
vn -0.4026263 0.2895399 -0.8683655
vn -0.5059637 0.3109874 -0.8045419
vn -0.511813 0.2602935 -0.8187153
vn -0.6385477 0.3148868 -0.702213
vn -0.6619449 0.2544441 -0.7050441
vn -0.7711316 0.3168366 -0.5522414
vn -0.7886795 0.2563939 -0.5587905
vn -0.6970406 0.1998508 -0.6886175
vn -0.8003781 0.1920518 -0.5679005
vn -0.7048396 0.2057 -0.6788878
vn -0.7984283 0.190102 -0.571291
vn -0.825725 0.3148868 -0.4680007
vn -0.8218255 0.2193484 -0.5258223
vn -0.833524 0.4045759 -0.3762394
vn -0.8062273 0.4884158 -0.3338375
vn -0.7828301 0.5761552 -0.234994
vn -0.851072 0.4513704 -0.2682188
vn -0.8179259 0.3772793 -0.4343472
vn -0.8705696 0.4611192 -0.1716907
vn -0.8530216 0.2661427 -0.4489122
vn -0.892017 0.3109874 -0.328013
vn -0.8861676 0.2641929 -0.3806691
vn -0.8491222 0.2271475 -0.4768601
vn -0.9037155 0.346083 -0.2520413
vn -0.8939667 0.3948271 -0.2119791
vn -0.9056653 0.2953892 -0.3041638
vn -0.8822682 0.445521 -0.1520325
vn -0.8159761 0.1920518 -0.5452514
vn -0.223248 0.7048396 -0.6733212
vn -0.3421836 0.726287 -0.5961691
vn -0.3343844 0.726287 -0.6005782
vn -0.2349465 0.7106889 -0.6631149
vn -0.4591694 0.718488 -0.5224351
vn -0.4650186 0.718488 -0.5172356
vn -0.5800548 0.6989903 -0.418269
vn -0.6171002 0.685342 -0.3866442
vn -0.04191995 0.5878538 -0.8078803
g model_car_83_matte_backlight_LOD1_0
f 3/3/3 2/2/2 1/1/1
f 4/4/4 3/3/3 1/1/1
f 5/5/5 3/3/3 4/4/4
f 6/6/6 5/5/5 4/4/4
f 1/1/1 2/2/2 7/7/7
f 2/2/2 8/8/8 7/7/7
f 7/7/7 8/8/8 9/9/9
f 8/8/8 10/10/10 9/9/9
f 9/9/9 10/10/10 11/11/11
f 10/10/10 12/12/12 11/11/11
f 11/11/11 12/12/12 13/13/13
f 12/12/12 14/14/14 13/13/13
f 13/13/13 14/14/14 15/15/15
f 14/14/14 16/16/16 15/15/15
f 15/15/15 16/16/16 17/17/17
f 16/16/16 18/18/18 17/17/17
f 19/19/19 5/5/5 6/6/6
f 20/20/20 19/19/19 6/6/6
f 21/21/21 19/19/19 20/20/20
f 22/22/22 21/21/21 20/20/20
f 23/23/23 21/21/21 22/22/22
f 24/24/24 23/23/23 22/22/22
f 25/25/25 23/23/23 24/24/24
f 26/26/26 25/25/25 24/24/24
f 27/27/27 25/25/25 26/26/26
f 28/28/28 27/27/27 26/26/26
f 29/29/29 27/27/27 28/28/28
f 30/30/30 29/29/29 28/28/28
f 31/31/31 29/29/29 30/30/30
f 32/32/32 31/31/31 30/30/30
f 33/33/33 31/31/31 32/32/32
f 34/34/34 33/33/33 32/32/32
f 35/35/35 33/33/33 34/34/34
f 36/36/36 35/35/35 34/34/34
f 37/37/37 35/35/35 36/36/36
f 38/38/38 37/37/37 36/36/36
f 39/39/39 37/37/37 38/38/38
f 40/40/40 39/39/39 38/38/38
f 41/41/41 39/39/39 40/40/40
f 42/42/42 41/41/41 40/40/40
f 39/39/39 43/43/43 37/37/37
f 39/39/39 41/41/41 43/43/43
f 43/43/43 44/44/44 37/37/37
f 44/44/44 43/43/43 45/45/45
f 45/45/45 43/43/43 46/46/46
f 46/46/46 43/43/43 41/41/41
f 47/47/47 45/45/45 46/46/46
f 48/48/48 44/44/44 45/45/45
f 46/46/46 49/49/49 47/47/47
f 49/49/49 50/50/50 47/47/47
f 51/51/51 46/46/46 41/41/41
f 41/41/41 52/52/52 51/51/51
f 52/52/52 41/41/41 42/42/42
f 52/52/52 53/53/53 51/51/51
f 53/53/53 54/54/54 51/51/51
f 54/54/54 55/55/55 51/51/51
f 55/55/55 49/49/49 46/46/46
f 51/51/51 55/55/55 46/46/46
f 55/55/55 54/54/54 56/56/56
f 57/57/57 55/55/55 56/56/56
f 49/49/49 55/55/55 57/57/57
f 57/57/57 56/56/56 58/58/58
f 59/59/59 57/57/57 58/58/58
f 60/60/60 57/57/57 59/59/59
f 50/50/50 49/49/49 60/60/60
f 60/60/60 49/49/49 57/57/57
f 61/61/61 60/60/60 59/59/59
f 62/62/62 60/60/60 61/61/61
f 62/62/62 50/50/50 60/60/60
f 63/63/63 62/62/62 61/61/61
f 61/61/61 59/59/59 64/64/64
f 65/65/65 61/61/61 64/64/64
f 63/63/63 61/61/61 65/65/65
f 65/65/65 64/64/64 66/66/66
f 67/67/67 66/66/66 64/64/64
f 67/67/67 68/68/68 66/66/66
f 68/68/68 69/69/69 66/66/66
f 70/70/70 67/67/67 64/64/64
f 59/59/59 58/58/58 70/70/70
f 64/64/64 59/59/59 70/70/70
f 68/68/68 71/71/71 69/69/69
f 72/72/72 65/65/65 66/66/66
f 66/66/66 69/69/69 73/73/73
f 72/72/72 66/66/66 73/73/73
f 72/72/72 73/73/73 74/74/74
f 75/75/75 72/72/72 74/74/74
f 73/73/73 69/69/69 76/76/76
f 69/69/69 77/77/77 76/76/76
f 74/74/74 73/73/73 78/78/78
f 76/76/76 78/78/78 73/73/73
f 69/69/69 71/71/71 79/79/79
f 69/69/69 79/79/79 77/77/77
f 80/80/80 65/65/65 72/72/72
f 75/75/75 80/80/80 72/72/72
f 80/80/80 63/63/63 65/65/65
f 83/83/83 82/82/82 81/81/81
f 84/84/84 83/83/83 81/81/81
f 85/85/85 83/83/83 84/84/84
f 86/86/86 85/85/85 84/84/84
f 87/87/87 85/85/85 86/86/86
f 88/88/88 87/87/87 86/86/86
f 18/18/18 87/87/87 88/88/88
f 17/17/17 18/18/18 88/88/88
f 81/81/81 82/82/82 89/89/89
f 82/82/82 52/52/52 89/89/89
f 89/89/89 52/52/52 42/42/42
f 92/92/92 91/91/91 90/90/90
f 93/93/93 92/92/92 90/90/90
f 92/92/92 94/94/94 91/91/91
f 94/94/94 95/95/95 91/91/91
f 93/93/93 90/90/90 96/96/96
f 97/97/97 93/93/93 96/96/96
f 97/97/97 96/96/96 98/98/98
f 99/99/99 97/97/97 98/98/98
f 99/99/99 98/98/98 100/100/100
f 101/101/101 99/99/99 100/100/100
f 101/101/101 100/100/100 102/102/102
f 103/103/103 101/101/101 102/102/102
f 103/103/103 102/102/102 104/104/104
f 105/105/105 103/103/103 104/104/104
f 105/105/105 104/104/104 106/106/106
f 107/107/107 105/105/105 106/106/106
f 94/94/94 108/108/108 95/95/95
f 108/108/108 109/109/109 95/95/95
f 108/108/108 110/110/110 109/109/109
f 110/110/110 111/111/111 109/109/109
f 110/110/110 112/112/112 111/111/111
f 112/112/112 113/113/113 111/111/111
f 112/112/112 114/114/114 113/113/113
f 114/114/114 115/115/115 113/113/113
f 114/114/114 116/116/116 115/115/115
f 116/116/116 117/117/117 115/115/115
f 116/116/116 118/118/118 117/117/117
f 118/118/118 119/119/119 117/117/117
f 118/118/118 120/120/120 119/119/119
f 120/120/120 121/121/121 119/119/119
f 120/120/120 122/122/122 121/121/121
f 122/122/122 123/123/123 121/121/121
f 122/122/122 124/124/124 123/123/123
f 124/124/124 125/125/125 123/123/123
f 124/124/124 126/126/126 125/125/125
f 126/126/126 127/127/127 125/125/125
f 126/126/126 128/128/128 127/127/127
f 128/128/128 129/129/129 127/127/127
f 128/128/128 130/130/130 129/129/129
f 130/130/130 131/131/131 129/129/129
f 132/132/132 128/128/128 126/126/126
f 130/130/130 128/128/128 132/132/132
f 133/133/133 132/132/132 126/126/126
f 132/132/132 133/133/133 134/134/134
f 132/132/132 134/134/134 135/135/135
f 132/132/132 135/135/135 130/130/130
f 134/134/134 136/136/136 135/135/135
f 133/133/133 137/137/137 134/134/134
f 138/138/138 135/135/135 136/136/136
f 139/139/139 138/138/138 136/136/136
f 135/135/135 140/140/140 130/130/130
f 141/141/141 130/130/130 140/140/140
f 130/130/130 141/141/141 131/131/131
f 142/142/142 141/141/141 140/140/140
f 143/143/143 142/142/142 140/140/140
f 144/144/144 143/143/143 140/140/140
f 144/144/144 140/140/140 135/135/135
f 138/138/138 144/144/144 135/135/135
f 143/143/143 144/144/144 145/145/145
f 144/144/144 146/146/146 145/145/145
f 144/144/144 138/138/138 146/146/146
f 145/145/145 146/146/146 147/147/147
f 146/146/146 148/148/148 147/147/147
f 146/146/146 149/149/149 148/148/148
f 138/138/138 139/139/139 149/149/149
f 138/138/138 149/149/149 146/146/146
f 149/149/149 150/150/150 148/148/148
f 149/149/149 151/151/151 150/150/150
f 139/139/139 151/151/151 149/149/149
f 151/151/151 152/152/152 150/150/150
f 148/148/148 150/150/150 153/153/153
f 150/150/150 154/154/154 153/153/153
f 150/150/150 152/152/152 154/154/154
f 153/153/153 154/154/154 155/155/155
f 155/155/155 156/156/156 153/153/153
f 157/157/157 156/156/156 155/155/155
f 158/158/158 157/157/157 155/155/155
f 156/156/156 159/159/159 153/153/153
f 148/148/148 153/153/153 159/159/159
f 147/147/147 148/148/148 159/159/159
f 160/160/160 157/157/157 158/158/158
f 154/154/154 161/161/161 155/155/155
f 155/155/155 161/161/161 162/162/162
f 158/158/158 155/155/155 162/162/162
f 162/162/162 161/161/161 163/163/163
f 161/161/161 164/164/164 163/163/163
f 158/158/158 162/162/162 165/165/165
f 166/166/166 158/158/158 165/165/165
f 162/162/162 163/163/163 167/167/167
f 167/167/167 165/165/165 162/162/162
f 160/160/160 158/158/158 168/168/168
f 168/168/168 158/158/158 166/166/166
f 169/169/169 164/164/164 161/161/161
f 154/154/154 169/169/169 161/161/161
f 152/152/152 169/169/169 154/154/154
f 172/172/172 171/171/171 170/170/170
f 173/173/173 172/172/172 170/170/170
f 172/172/172 174/174/174 171/171/171
f 174/174/174 175/175/175 171/171/171
f 174/174/174 176/176/176 175/175/175
f 176/176/176 177/177/177 175/175/175
f 176/176/176 107/107/107 177/177/177
f 107/107/107 106/106/106 177/177/177
f 173/173/173 170/170/170 178/178/178
f 141/141/141 173/173/173 178/178/178
f 141/141/141 178/178/178 131/131/131
