g Glass_10
v 0.4651 1.1105 0.5869002
v 0.4955 1.0488 0.7203002
v 0.4075 1.0587 0.7384002
v 0.4963 1.0937 0.6113002
v 0.5289 1.0401 0.7107002
v 0.5649 0.9858999 0.8204002
v 0.3991 1.1156 0.5864002
v 0.2358 1.118 0.5886002
v 0.2377 1.0576 0.7593002
v 0 1.1216 0.5956002
v 0.4075 1.0587 0.7384002
v 0.3991 1.1156 0.5864002
v 0.4159 0.9969999 0.8852002
v 0.5255 0.9945999 0.8548002
v 0.4955 1.0488 0.7203002
v 0.5649 0.9858999 0.8204002
v 0.605 0.9100998 0.9830001
v 0.569 0.9052998 1.046
v 0.6377 0.8414998 1.1434
v 0.6045 0.8225998 1.1987
v -0.2358 1.118 0.5886002
v -0.2377 1.0576 0.7593002
v -0.4075 1.0587 0.7384002
v -0.3991 1.1156 0.5864002
v -0.4159 0.9969999 0.8852002
v -0.5255 0.9945999 0.8548002
v -0.4955 1.0488 0.7203002
v -0.5649 0.9858999 0.8204002
v -0.605 0.9100998 0.9830001
v -0.569 0.9052998 1.046
v -0.6377 0.8414998 1.1434
v -0.6045 0.8225998 1.1987
v 0 0.9923998 0.9226002
v 0.2395 0.9935999 0.9135002
v 0.2425 0.8818998 1.1703
v 0.4298 0.8955998 1.1267
v 0 0.8800998 1.1806
v 0.2449 0.7966998 1.3715
v 0.4412 0.7956998 1.3176
v 0.563 0.8079998 1.2556
v -0.2425 0.8818998 1.1703
v -0.2395 0.9935999 0.9135002
v -0.2449 0.7966998 1.3715
v -0.4298 0.8955998 1.1267
v -0.4412 0.7956998 1.3176
v -0.563 0.8079998 1.2556
v 0.2395 0.9935999 0.9135002
v 0.4159 0.9969999 0.8852002
v 0.4298 0.8955998 1.1267
v 0.569 0.9052998 1.046
v 0.5255 0.9945999 0.8548002
v 0.563 0.8079998 1.2556
v 0.6045 0.8225998 1.1987
v 0.2377 1.0576 0.7593002
v 0 1.0581 0.7674002
v 0.2425 0.8818998 1.1703
v 0.4412 0.7956998 1.3176
v -0.2395 0.9935999 0.9135002
v -0.2377 1.0576 0.7593002
v -0.4159 0.9969999 0.8852002
v -0.4298 0.8955998 1.1267
v -0.569 0.9052998 1.046
v -0.5255 0.9945999 0.8548002
v -0.563 0.8079998 1.2556
v -0.6045 0.8225998 1.1987
v -0.2425 0.8818998 1.1703
v -0.4412 0.7956998 1.3176
v 0 1.1216 0.5956002
v 0.2377 1.0576 0.7593002
v 0 1.0581 0.7674002
v -0.2377 1.0576 0.7593002
v 0.2395 0.9935999 0.9135002
v 0 0.9923998 0.9226002
v -0.2395 0.9935999 0.9135002
v 0.2425 0.8818998 1.1703
v 0 0.8800998 1.1806
v -0.2425 0.8818998 1.1703
v 0.2449 0.7966998 1.3715
v 0 0.7910998 1.3831
v -0.2449 0.7966998 1.3715
v 0.7255 0.8277 0.5160001
v 0.6929 0.8972999 0.5231001
v 0.7002 0.8410999 0.2712002
v 0.7737 0.8029998 0.9935001
v 0.6544 0.9667999 0.5422002
v 0.6554 0.9359999 0.2625001
v 0.6483 0.8698 -0.2065998
v 0.6755 0.9447999 0.7394002
v 0.5909 1.0595 0.4875002
v 0.5995 1.0319 0.2537002
v 0.6036 0.9532 -0.1853998
v 0.5583 1.0375 -0.1640998
v 0.5424 1.1115 0.2463002
v 0.5199 1.1193 -0.01079982
v 0.5208 1.1075 -0.1462998
v 0.6331 0.8877001 -0.3066998
v 0.5208 1.0981 -0.2502998
v 0.5144 1.0602 -0.4767998
v 0.6028 0.9128001 -0.5432999
v 0.5288 1.0116 -0.6833998
v 0.5846 0.9280001 -0.6800998
v 0.5669 0.9427001 -0.8129998
v 0.545 0.9665001 -0.8276998
v -0.4651 1.1105 0.5869002
v -0.4075 1.0587 0.7384002
v -0.4955 1.0488 0.7203002
v -0.4963 1.0937 0.6113002
v -0.5289 1.0401 0.7107002
v -0.5649 0.9858999 0.8204002
v -0.3991 1.1156 0.5864002
v -0.7255 0.8277 0.5160001
v -0.7002 0.8410999 0.2712002
v -0.6929 0.8972999 0.5231001
v -0.7737 0.8029998 0.9935001
v -0.6544 0.9667999 0.5422002
v -0.6554 0.9359999 0.2625001
v -0.6483 0.8698 -0.2065998
v -0.6755 0.9447999 0.7394002
v -0.5909 1.0595 0.4875002
v -0.5995 1.0319 0.2537002
v -0.6036 0.9532 -0.1853998
v -0.5583 1.0375 -0.1640998
v -0.5424 1.1115 0.2463002
v -0.5199 1.1193 -0.01079982
v -0.5208 1.1075 -0.1462998
v -0.6331 0.8877001 -0.3066998
v -0.5144 1.0602 -0.4767998
v -0.5208 1.0981 -0.2502998
v -0.6028 0.9128001 -0.5432999
v -0.5288 1.0116 -0.6833998
v -0.5846 0.9280001 -0.6800998
v -0.5669 0.9427001 -0.8129998
v -0.545 0.9665001 -0.8276998
vt 0.969 0.95
vt 0.9624 0.9395
vt 0.9676 0.9479
vt 0.9667 0.9463
vt 0.9603 0.936
vt 0.9561 0.9293
vt 0.9725 0.9558
vt 0.9844 0.9749
vt 0.9817 0.9705
vt 1 1
vt 0.9676 0.9479
vt 0.9725 0.9558
vt 0.9644 0.9426
vt 0.9582 0.9326
vt 0.9624 0.9395
vt 0.9561 0.9293
vt 0.9484 0.917
vt 0.9504 0.9201
vt 0.9422 0.9069
vt 0.9441 0.9099
vt 0.9844 0.9749
vt 0.9817 0.9705
vt 0.9676 0.9479
vt 0.9725 0.9558
vt 0.9644 0.9426
vt 0.9582 0.9326
vt 0.9624 0.9395
vt 0.9561 0.9293
vt 0.9484 0.917
vt 0.9504 0.9201
vt 0.9422 0.9069
vt 0.9441 0.9099
vt 1 1
vt 0.9798 0.9675
vt 0.9761 0.9615
vt 0.9578 0.932
vt 1 1
vt 0.973 0.9565
vt 0.9524 0.9233
vt 0.9462 0.9134
vt 0.9761 0.9615
vt 0.9798 0.9675
vt 0.973 0.9565
vt 0.9578 0.932
vt 0.9524 0.9233
vt 0.9462 0.9134
vt 0.9798 0.9675
vt 0.9644 0.9426
vt 0.9578 0.932
vt 0.9504 0.9201
vt 0.9582 0.9326
vt 0.9462 0.9134
vt 0.9441 0.9099
vt 0.9817 0.9705
vt 1 1
vt 0.9761 0.9615
vt 0.9524 0.9233
vt 0.9798 0.9675
vt 0.9817 0.9705
vt 0.9644 0.9426
vt 0.9578 0.932
vt 0.9504 0.9201
vt 0.9582 0.9326
vt 0.9462 0.9134
vt 0.9441 0.9099
vt 0.9761 0.9615
vt 0.9524 0.9233
vt 1 1
vt 0.9817 0.9705
vt 1 1
vt 0.9817 0.9705
vt 0.9798 0.9675
vt 1 1
vt 0.9798 0.9675
vt 0.9761 0.9615
vt 1 1
vt 0.9761 0.9615
vt 0.973 0.9565
vt 1 1
vt 0.973 0.9565
vt 1 1
vt 1 1
vt 1 1
vt 1 1
vt 1 1
vt 1 1
vt 1 1
vt 1 1
vt 1 1
vt 1 1
vt 1 1
vt 1 1
vt 1 1
vt 1 1
vt 1 1
vt 1 1
vt 1 1
vt 1 1
vt 1 1
vt 1 1
vt 1 1
vt 1 1
vt 1 1
vt 0.969 0.95
vt 0.9676 0.9479
vt 0.9624 0.9395
vt 0.9667 0.9463
vt 0.9603 0.936
vt 0.9561 0.9293
vt 0.9725 0.9558
vt 1 1
vt 1 1
vt 1 1
vt 1 1
vt 1 1
vt 1 1
vt 1 1
vt 1 1
vt 1 1
vt 1 1
vt 1 1
vt 1 1
vt 1 1
vt 1 1
vt 1 1
vt 1 1
vt 1 1
vt 1 1
vt 1 1
vt 1 1
vt 1 1
vt 1 1
vt 1 1
vn 0.1272068 0.9235464 0.3617741
vn 0.2545283 0.9019483 0.3488617
vn 0.09313274 0.9274007 0.3622903
vn 0.2110919 0.9032429 0.3736207
vn 0.3281772 0.8794477 0.3447773
vn 0.41878 0.8650131 0.2763616
vn 0.04301311 0.936443 0.348173
vn 0.02560885 0.9410904 0.337184
vn 0.02823749 0.9323125 0.3605495
vn 0 0.9400005 0.3411731
vn 0.09313274 0.9274007 0.3622903
vn 0.04301311 0.936443 0.348173
vn 0.08793859 0.9189975 0.3843312
vn 0.285226 0.8986452 0.3332911
vn 0.2545283 0.9019483 0.3488617
vn 0.41878 0.8650131 0.2763616
vn 0.414727 0.8591304 0.2998273
vn 0.2757735 0.8929252 0.3558561
vn 0.240633 0.8809985 0.4073542
vn 0.2471956 0.874939 0.4163846
vn -0.02560885 0.9410904 0.337184
vn -0.02823749 0.9323125 0.3605495
vn -0.09313275 0.9274006 0.3622903
vn -0.04301311 0.936443 0.348173
vn -0.08793862 0.9189975 0.3843313
vn -0.285226 0.8986452 0.3332911
vn -0.2545283 0.9019483 0.3488617
vn -0.41878 0.8650131 0.2763615
vn -0.414727 0.8591304 0.2998273
vn -0.2757735 0.8929252 0.3558561
vn -0.240633 0.8809985 0.4073542
vn -0.2471956 0.874939 0.4163846
vn 0 0.9189013 0.3944876
vn 0.02587114 0.9206868 0.3894438
vn 0.03202995 0.9139196 0.4046295
vn 0.09982119 0.9029908 0.4179035
vn 0 0.9174705 0.3978039
vn 0.05263264 0.9184316 0.3920628
vn 0.1042193 0.8948212 0.4340891
vn 0.1794488 0.8826908 0.4343443
vn -0.03202995 0.9139196 0.4046295
vn -0.02587113 0.9206868 0.3894438
vn -0.05263264 0.9184316 0.3920628
vn -0.09982119 0.9029908 0.4179035
vn -0.1042193 0.8948212 0.4340891
vn -0.1794488 0.8826908 0.4343443
vn 0.02587114 0.9206868 0.3894438
vn 0.08793859 0.9189975 0.3843312
vn 0.09982119 0.9029908 0.4179035
vn 0.2757735 0.8929252 0.3558561
vn 0.285226 0.8986452 0.3332911
vn 0.1794488 0.8826908 0.4343443
vn 0.2471956 0.874939 0.4163846
vn 0.02823749 0.9323125 0.3605495
vn 0 0.9300365 0.3674671
vn 0.03202995 0.9139196 0.4046295
vn 0.1042193 0.8948212 0.4340891
vn -0.02587113 0.9206868 0.3894438
vn -0.02823749 0.9323125 0.3605495
vn -0.08793862 0.9189975 0.3843313
vn -0.09982119 0.9029908 0.4179035
vn -0.2757735 0.8929252 0.3558561
vn -0.285226 0.8986452 0.3332911
vn -0.1794488 0.8826908 0.4343443
vn -0.2471956 0.874939 0.4163846
vn -0.03202995 0.9139196 0.4046295
vn -0.1042193 0.8948212 0.4340891
vn 0 0.9400005 0.3411731
vn 0.02823749 0.9323125 0.3605495
vn 0 0.9300365 0.3674671
vn -0.02823749 0.9323125 0.3605495
vn 0.02587114 0.9206868 0.3894438
vn 0 0.9189013 0.3944876
vn -0.02587113 0.9206868 0.3894438
vn 0.03202995 0.9139196 0.4046295
vn 0 0.9174705 0.3978039
vn -0.03202995 0.9139196 0.4046295
vn 0.05263264 0.9184316 0.3920628
vn 0 0.9154817 0.4023595
vn -0.05263264 0.9184316 0.3920628
vn 0.900686 0.4289293 -0.06916856
vn 0.8847877 0.4621559 -0.05968837
vn 0.9041615 0.4213799 -0.07022026
vn 0.8721725 0.4866832 -0.04954328
vn 0.8503448 0.5247304 -0.03964543
vn 0.8837447 0.4630339 -0.06778624
vn 0.8752109 0.4769864 -0.08055958
vn 0.8454688 0.5331252 -0.03098675
vn 0.8307734 0.555604 -0.03346501
vn 0.8398355 0.5395015 -0.06012013
vn 0.8692018 0.4878125 -0.08079163
vn 0.8663839 0.4951025 -0.06521118
vn 0.8174524 0.5731278 -0.05741198
vn 0.8594888 0.508097 -0.05582427
vn 0.8770847 0.4789933 -0.03588791
vn 0.8571024 0.5085097 -0.0824222
vn 0.8650489 0.4902581 -0.1064769
vn 0.8514915 0.5189621 -0.07510318
vn 0.8419105 0.5365504 -0.05744759
vn 0.8302564 0.5541642 -0.05980308
vn 0.8316294 0.5531335 -0.04935399
vn 0.7878941 0.6088875 -0.09208071
vn 0.7648306 0.6343506 -0.1123985
vn -0.1272068 0.9235464 0.3617741
vn -0.09313275 0.9274006 0.3622903
vn -0.2545283 0.9019483 0.3488617
vn -0.2110919 0.9032429 0.3736207
vn -0.3281772 0.8794477 0.3447773
vn -0.41878 0.8650131 0.2763615
vn -0.04301311 0.936443 0.348173
vn -0.900686 0.4289293 -0.06916856
vn -0.9041615 0.4213799 -0.07022025
vn -0.8847877 0.4621559 -0.05968836
vn -0.8721725 0.4866832 -0.04954329
vn -0.8503448 0.5247303 -0.03964543
vn -0.8837447 0.4630339 -0.06778624
vn -0.8752109 0.4769864 -0.08055958
vn -0.8454688 0.5331252 -0.03098675
vn -0.8307734 0.5556039 -0.03346501
vn -0.8398355 0.5395015 -0.06012014
vn -0.8692018 0.4878125 -0.08079163
vn -0.8663839 0.4951025 -0.06521118
vn -0.8174524 0.5731279 -0.05741199
vn -0.8594888 0.508097 -0.05582427
vn -0.8770847 0.4789933 -0.03588791
vn -0.8571024 0.5085097 -0.0824222
vn -0.8514915 0.5189621 -0.07510318
vn -0.8650489 0.4902581 -0.1064769
vn -0.8419105 0.5365505 -0.05744759
vn -0.8302564 0.5541642 -0.05980307
vn -0.8316294 0.5531335 -0.04935399
vn -0.7878941 0.6088875 -0.09208071
vn -0.7648306 0.6343506 -0.1123985
g Glass_10_0
f 3/3/3 2/2/2 1/1/1
f 1/1/1 2/2/2 4/4/4
f 2/2/2 5/5/5 4/4/4
f 6/6/6 5/5/5 2/2/2
f 7/7/7 3/3/3 1/1/1
f 10/10/10 9/9/9 8/8/8
f 9/9/9 11/11/11 8/8/8
f 8/8/8 11/11/11 12/12/12
f 13/13/13 11/11/11 9/9/9
f 13/13/13 14/14/14 11/11/11
f 14/14/14 15/15/15 11/11/11
f 14/14/14 16/16/16 15/15/15
f 17/17/17 16/16/16 14/14/14
f 18/18/18 17/17/17 14/14/14
f 19/19/19 17/17/17 18/18/18
f 20/20/20 19/19/19 18/18/18
f 22/22/22 10/10/10 21/21/21
f 23/23/23 22/22/22 21/21/21
f 23/23/23 21/21/21 24/24/24
f 23/23/23 25/25/25 22/22/22
f 26/26/26 25/25/25 23/23/23
f 27/27/27 26/26/26 23/23/23
f 28/28/28 26/26/26 27/27/27
f 28/28/28 29/29/29 26/26/26
f 29/29/29 30/30/30 26/26/26
f 29/29/29 31/31/31 30/30/30
f 31/31/31 32/32/32 30/30/30
f 35/35/35 34/34/34 33/33/33
f 35/35/35 36/36/36 34/34/34
f 38/38/38 35/35/35 37/37/37
f 38/38/38 39/39/39 35/35/35
f 39/39/39 40/40/40 36/36/36
f 42/42/42 41/41/41 33/33/33
f 41/41/41 43/43/43 37/37/37
f 44/44/44 41/41/41 42/42/42
f 45/45/45 43/43/43 41/41/41
f 46/46/46 45/45/45 44/44/44
f 49/49/49 48/48/48 47/47/47
f 49/49/49 50/50/50 48/48/48
f 50/50/50 51/51/51 48/48/48
f 52/52/52 50/50/50 49/49/49
f 53/53/53 50/50/50 52/52/52
f 47/47/47 48/48/48 54/54/54
f 47/47/47 54/54/54 55/55/55
f 57/57/57 49/49/49 56/56/56
f 59/59/59 58/58/58 55/55/55
f 60/60/60 58/58/58 59/59/59
f 60/60/60 61/61/61 58/58/58
f 62/62/62 61/61/61 60/60/60
f 63/63/63 62/62/62 60/60/60
f 62/62/62 64/64/64 61/61/61
f 62/62/62 65/65/65 64/64/64
f 61/61/61 67/67/67 66/66/66
f 70/70/70 69/69/69 68/68/68
f 71/71/71 70/70/70 68/68/68
f 73/73/73 72/72/72 70/70/70
f 74/74/74 73/73/73 70/70/70
f 76/76/76 75/75/75 73/73/73
f 77/77/77 76/76/76 73/73/73
f 79/79/79 78/78/78 76/76/76
f 80/80/80 79/79/79 76/76/76
f 83/83/83 82/82/82 81/81/81
f 82/82/82 84/84/84 81/81/81
f 85/85/85 84/84/84 82/82/82
f 85/85/85 82/82/82 86/86/86
f 86/86/86 82/82/82 83/83/83
f 87/87/87 86/86/86 83/83/83
f 88/88/88 84/84/84 85/85/85
f 89/89/89 88/88/88 85/85/85
f 89/89/89 85/85/85 90/90/90
f 90/90/90 85/85/85 86/86/86
f 90/90/90 86/86/86 91/91/91
f 91/91/91 86/86/86 87/87/87
f 92/92/92 90/90/90 91/91/91
f 93/93/93 90/90/90 92/92/92
f 93/93/93 89/89/89 90/90/90
f 94/94/94 93/93/93 92/92/92
f 95/95/95 94/94/94 92/92/92
f 98/98/98 97/97/97 96/96/96
f 99/99/99 98/98/98 96/96/96
f 100/100/100 98/98/98 99/99/99
f 101/101/101 100/100/100 99/99/99
f 102/102/102 100/100/100 101/101/101
f 103/103/103 100/100/100 102/102/102
f 106/106/106 105/105/105 104/104/104
f 106/106/106 104/104/104 107/107/107
f 108/108/108 106/106/106 107/107/107
f 108/108/108 109/109/109 106/106/106
f 105/105/105 110/110/110 104/104/104
f 113/113/113 112/112/112 111/111/111
f 114/114/114 113/113/113 111/111/111
f 114/114/114 115/115/115 113/113/113
f 113/113/113 115/115/115 116/116/116
f 113/113/113 116/116/116 112/112/112
f 116/116/116 117/117/117 112/112/112
f 114/114/114 118/118/118 115/115/115
f 118/118/118 119/119/119 115/115/115
f 115/115/115 119/119/119 120/120/120
f 115/115/115 120/120/120 116/116/116
f 116/116/116 120/120/120 121/121/121
f 116/116/116 121/121/121 117/117/117
f 120/120/120 122/122/122 121/121/121
f 120/120/120 123/123/123 122/122/122
f 119/119/119 123/123/123 120/120/120
f 123/123/123 124/124/124 122/122/122
f 124/124/124 125/125/125 122/122/122
f 128/128/128 127/127/127 126/126/126
f 127/127/127 129/129/129 126/126/126
f 127/127/127 130/130/130 129/129/129
f 130/130/130 131/131/131 129/129/129
f 130/130/130 132/132/132 131/131/131
f 130/130/130 133/133/133 132/132/132
