g ref_10
v 0.5465 0.6747996 2.0364
v 0.5893 0.6940997 2.0343
v 0.4919 0.5825986 2.2242
v 0.5926 0.7419997 1.8902
v 0.6389 0.7528997 1.8592
v 0.7088 0.6940997 2.0343
v 0.5927 0.5850986 2.1823
v 0.8433 0.7387997 1.7362
v 0.4919 0.5825986 2.2242
v 0.7088 0.6940997 2.0343
v 0.7905 0.6447997 1.9834
v 0.7477 0.6219996 2.0523
v 0.8433 0.7387997 1.7362
v 0.6914 0.5913997 2.1155
v 0.5927 0.5850986 2.1823
v -0.5465 0.6747996 2.0364
v -0.4919 0.5825986 2.2242
v -0.5893 0.6940997 2.0343
v -0.5926 0.7419997 1.8902
v -0.6389 0.7528997 1.8592
v -0.7088 0.6940997 2.0343
v -0.5927 0.5850986 2.1823
v -0.8433 0.7387997 1.7362
v -0.4919 0.5825986 2.2242
v -0.7088 0.6940997 2.0343
v -0.7477 0.6219996 2.0523
v -0.7905 0.6447997 1.9834
v -0.8433 0.7387997 1.7362
v -0.6914 0.5913997 2.1155
v -0.5927 0.5850986 2.1823
vt 0 0.5
vt 0.25 0.5
vt 0 0.25
vt 0.25 0.75
vt 0.5 0.75
vt 0.5 0.5
vt 0.25 0.25
vt 0.75 0.75
vt 0 0.25
vt 0.5 0.5
vt 0.75 0.5
vt 0.75 0.25
vt 0.75 0.75
vt 0.5 0.25
vt 0.25 0.25
vt 0 0.5
vt 0 0.25
vt 0.25 0.5
vt 0.25 0.75
vt 0.5 0.75
vt 0.5 0.5
vt 0.25 0.25
vt 0.75 0.75
vt 0 0.25
vt 0.5 0.5
vt 0.75 0.25
vt 0.75 0.5
vt 0.75 0.75
vt 0.5 0.25
vt 0.25 0.25
vn -0.3788858 0.8734893 0.3057157
vn -0.154292 0.899688 0.408357
vn -0.3767863 0.870133 0.3176485
vn -0.05431138 0.9479174 0.3138518
vn 0.1151005 0.9551461 0.2728514
vn 0.05601134 0.9168724 0.3952312
vn 0.168451 0.7955274 0.5820313
vn 0.2074869 0.9493505 0.2359719
vn 0.2195796 0.7879404 0.5752692
vn 0.5980694 0.5440547 0.5884876
vn 0.6495401 0.6153863 0.4465392
vn 0.5920281 0.4808722 0.6467339
vn 0.6413149 0.6616139 0.3885644
vn 0.4816822 0.4918516 0.7253028
vn 0.463281 0.5000124 0.7316819
vn 0.3788858 0.8734893 0.3057157
vn 0.3767863 0.870133 0.3176485
vn 0.154292 0.899688 0.408357
vn 0.05431138 0.9479174 0.3138518
vn -0.1151005 0.9551461 0.2728514
vn -0.05601134 0.9168724 0.3952312
vn -0.168451 0.7955274 0.5820313
vn -0.2074869 0.9493505 0.2359719
vn -0.2195796 0.7879404 0.5752692
vn -0.5980694 0.5440547 0.5884876
vn -0.5920281 0.4808722 0.6467339
vn -0.6495401 0.6153863 0.4465392
vn -0.6413149 0.6616139 0.3885644
vn -0.4816822 0.4918516 0.7253028
vn -0.463281 0.5000124 0.7316819
g ref_10_0
f 3/3/3 2/2/2 1/1/1
f 2/2/2 4/4/4 1/1/1
f 2/2/2 5/5/5 4/4/4
f 6/6/6 5/5/5 2/2/2
f 7/7/7 6/6/6 2/2/2
f 6/6/6 8/8/8 5/5/5
f 7/7/7 2/2/2 9/9/9
f 12/12/12 11/11/11 10/10/10
f 11/11/11 13/13/13 10/10/10
f 14/14/14 12/12/12 10/10/10
f 14/14/14 10/10/10 15/15/15
f 18/18/18 17/17/17 16/16/16
f 19/19/19 18/18/18 16/16/16
f 20/20/20 18/18/18 19/19/19
f 20/20/20 21/21/21 18/18/18
f 21/21/21 22/22/22 18/18/18
f 23/23/23 21/21/21 20/20/20
f 18/18/18 22/22/22 24/24/24
f 27/27/27 26/26/26 25/25/25
f 28/28/28 27/27/27 25/25/25
f 26/26/26 29/29/29 25/25/25
f 25/25/25 29/29/29 30/30/30
