g Taillights_10
v 0.2582 0.8371013 -1.9466
v 0.257 0.8719003 -1.936
v 0.1462 0.8414013 -1.9568
v 0.1465 0.8741013 -1.9452
v 0 0.8421013 -1.9615
v 0 0.8757003 -1.949
v 0.7776 0.7957003 -1.7863
v 0.7578 0.8212003 -1.7935
v 0.7834 0.7784003 -1.7886
v 0.7282 0.7730003 -1.833
v 0.7838 0.7562003 -1.7983
v 0.7785 0.7330003 -1.8129
v 0.7701 0.7186003 -1.826
v 0.7567 0.7060003 -1.8398
v 0.7224 0.7431003 -1.8488
v 0.7684 0.8118003 -1.7879
v 0.7288 0.6911003 -1.8646
v 0.7056 0.7259003 -1.8645
v 0.6743 0.7131003 -1.8813
v 0.6723 0.6702003 -1.8947
v 0.6495 0.7060003 -1.8942
v 0.6063 0.6580003 -1.9203
v 0.5916 0.6978003 -1.9155
v 0.5211 0.6561003 -1.9382
v 0.5153 0.6976003 -1.9319
v 0.4765 0.6584003 -1.9474
v 0.4236 0.7013013 -1.9498
v 0.3913 0.8259003 -1.9295
v 0.5065 0.8171003 -1.9121
v 0.402 0.8592003 -1.9217
v 0.4961 0.8539003 -1.9075
v 0.569 0.8476003 -1.8874
v 0.5828 0.8116013 -1.8914
v 0.6371 0.8407003 -1.8597
v 0.6513 0.8049003 -1.8642
v 0.6903 0.8347003 -1.8345
v 0.6986 0.7994003 -1.8427
v 0.7166 0.7956003 -1.8321
v 0.7418 0.8268003 -1.8058
v 0.7221 0.7882003 -1.8315
v -0.257 0.8719003 -1.936
v -0.1462 0.8414013 -1.9568
v -0.1465 0.8741013 -1.9452
v -0.2582 0.8371013 -1.9466
v 0 0.8421013 -1.9615
v 0 0.8757003 -1.949
v -0.7776 0.7957003 -1.7863
v -0.7578 0.8212003 -1.7935
v -0.7684 0.8118003 -1.7879
v -0.7834 0.7784003 -1.7886
v -0.7282 0.7730003 -1.833
v -0.7221 0.7882003 -1.8315
v -0.7838 0.7562003 -1.7983
v -0.7785 0.7330003 -1.8129
v -0.7701 0.7186003 -1.826
v -0.7418 0.8268003 -1.8058
v -0.7166 0.7956003 -1.8321
v -0.6903 0.8347003 -1.8345
v -0.6986 0.7994003 -1.8427
v -0.6513 0.8049003 -1.8642
v -0.6371 0.8407003 -1.8597
v -0.5828 0.8116013 -1.8914
v -0.569 0.8476003 -1.8874
v -0.5065 0.8171003 -1.9121
v -0.4961 0.8539003 -1.9075
v -0.402 0.8592003 -1.9217
v -0.3913 0.8259003 -1.9295
v -0.7567 0.7060003 -1.8398
v -0.7224 0.7431003 -1.8488
v -0.7288 0.6911003 -1.8646
v -0.7056 0.7259003 -1.8645
v -0.6743 0.7131003 -1.8813
v -0.6723 0.6702003 -1.8947
v -0.6495 0.7060003 -1.8942
v -0.6063 0.6580003 -1.9203
v -0.5916 0.6978003 -1.9155
v -0.5211 0.6561003 -1.9382
v -0.5153 0.6976003 -1.9319
v -0.4765 0.6584003 -1.9474
v -0.4236 0.7013013 -1.9498
vt 0.1417 0.6269
vt 0.1414 0.671
vt 0.2925 0.6259
vt 0.2921 0.6713
vt 0.4856 0.6241
vt 0.4856 0.6715
vt 0.0142 0.7062
vt 0.042 0.7308
vt 0.0072 0.6867
vt 0.0843 0.6667
vt 0.0087 0.6595
vt 0.0183 0.6296
vt 0.0316 0.6096
vt 0.0515 0.5928
vt 0.0936 0.6289
vt 0.0254 0.7237
vt 0.0894 0.5684
vt 0.1169 0.6061
vt 0.16 0.5863
vt 0.1629 0.5391
vt 0.1911 0.5769
vt 0.2421 0.5201
vt 0.2603 0.5629
vt 0.3409 0.5137
vt 0.3487 0.5597
vt 0.3904 0.5153
vt 0.4474 0.5599
vt 0.4881 0.6969
vt 0.3607 0.6906
vt 0.4775 0.7335
vt 0.3735 0.7309
vt 0.2866 0.7281
vt 0.2703 0.69
vt 0.2029 0.7281
vt 0.1868 0.6899
vt 0.1316 0.7293
vt 0.1227 0.6913
vt 0.0978 0.6903
vt 0.0659 0.731
vt 0.0879 0.6804
vt 0.1414 0.671
vt 0.2925 0.6259
vt 0.2921 0.6713
vt 0.1417 0.6269
vt 0.4856 0.6241
vt 0.4856 0.6715
vt 0.0142 0.7062
vt 0.042 0.7308
vt 0.0254 0.7237
vt 0.0072 0.6867
vt 0.0843 0.6667
vt 0.0879 0.6804
vt 0.0087 0.6595
vt 0.0183 0.6296
vt 0.0316 0.6096
vt 0.0659 0.731
vt 0.0978 0.6903
vt 0.1316 0.7293
vt 0.1227 0.6913
vt 0.1868 0.6899
vt 0.2029 0.7281
vt 0.2703 0.69
vt 0.2866 0.7281
vt 0.3607 0.6906
vt 0.3735 0.7309
vt 0.4775 0.7335
vt 0.4881 0.6969
vt 0.0515 0.5928
vt 0.0936 0.6289
vt 0.0894 0.5684
vt 0.1169 0.6061
vt 0.16 0.5863
vt 0.1629 0.5391
vt 0.1911 0.5769
vt 0.2421 0.5201
vt 0.2603 0.5629
vt 0.3409 0.5137
vt 0.3487 0.5597
vt 0.3904 0.5153
vt 0.4474 0.5599
vn 0.09786481 0.2930751 -0.9510675
vn 0.0954181 0.3005426 -0.9489834
vn 0.05954453 0.3293732 -0.9423205
vn 0.05829488 0.3343977 -0.9406274
vn 0 0.3465224 -0.9380417
vn 0 0.3486859 -0.9372396
vn 0.6505708 0.3092694 -0.693621
vn 0.6101579 0.2450048 -0.7534454
vn 0.5876784 0.303754 -0.7499116
vn 0.5604807 0.3065645 -0.7693371
vn 0.5696878 0.339016 -0.7486815
vn 0.5706262 0.3425068 -0.7463745
vn 0.5485952 0.3233288 -0.7710394
vn 0.5336763 0.3057663 -0.7884774
vn 0.5209806 0.3085526 -0.7958483
vn 0.6366123 0.292885 -0.7134026
vn 0.4521211 0.2850522 -0.8451815
vn 0.418674 0.281591 -0.8633763
vn 0.3801338 0.257838 -0.8882667
vn 0.3555026 0.2416946 -0.9028851
vn 0.3439889 0.2349716 -0.9090984
vn 0.2633114 0.2081209 -0.941994
vn 0.2468386 0.2027168 -0.9476163
vn 0.2055647 0.1773494 -0.9624398
vn 0.2039811 0.1781321 -0.9626322
vn 0.1994478 0.1832173 -0.9626276
vn 0.1954735 0.1871746 -0.9626816
vn 0.1601478 0.1760441 -0.9712678
vn 0.2281634 0.1871594 -0.9554647
vn 0.1594564 0.1742272 -0.9717091
vn 0.204865 0.1781989 -0.962432
vn 0.315414 0.221016 -0.9228575
vn 0.3419218 0.235289 -0.9097959
vn 0.4018758 0.2663933 -0.8760881
vn 0.4120087 0.2774917 -0.8678982
vn 0.4642466 0.2926339 -0.8359668
vn 0.4855857 0.3045251 -0.8194333
vn 0.5016513 0.2956023 -0.8129976
vn 0.5911428 0.2148426 -0.7774271
vn 0.5388547 0.28697 -0.7920125
vn -0.09541976 0.3005425 -0.9489833
vn -0.05954507 0.329373 -0.9423205
vn -0.05829534 0.3343975 -0.9406275
vn -0.09786665 0.2930751 -0.9510673
vn 0 0.3465224 -0.9380417
vn 0 0.3486859 -0.9372396
vn -0.6505626 0.3092712 -0.6936279
vn -0.6101577 0.2450049 -0.7534456
vn -0.6366162 0.2928848 -0.7133991
vn -0.5876774 0.3037543 -0.7499124
vn -0.5604807 0.3065645 -0.7693371
vn -0.5388547 0.28697 -0.7920125
vn -0.5696878 0.339016 -0.7486815
vn -0.5706262 0.3425068 -0.7463745
vn -0.5485952 0.3233288 -0.7710394
vn -0.5911428 0.2148426 -0.7774271
vn -0.5016514 0.2956022 -0.8129976
vn -0.4642468 0.292634 -0.8359667
vn -0.4855854 0.3045252 -0.8194335
vn -0.41201 0.2774915 -0.8678976
vn -0.4018772 0.2663932 -0.8760875
vn -0.3419213 0.2352892 -0.9097961
vn -0.3154135 0.2210163 -0.9228576
vn -0.2281641 0.1871593 -0.9554645
vn -0.2048663 0.1781986 -0.9624318
vn -0.1594567 0.1742271 -0.9717091
vn -0.1601478 0.1760441 -0.9712678
vn -0.5336763 0.3057663 -0.7884774
vn -0.5209807 0.3085525 -0.7958483
vn -0.4521203 0.2850524 -0.8451819
vn -0.418672 0.2815914 -0.8633772
vn -0.3801329 0.2578382 -0.8882671
vn -0.3555026 0.2416946 -0.9028851
vn -0.3439889 0.2349716 -0.9090984
vn -0.2633114 0.2081209 -0.941994
vn -0.2468386 0.2027168 -0.9476163
vn -0.2055647 0.1773494 -0.9624398
vn -0.2039811 0.1781321 -0.9626322
vn -0.1994478 0.1832173 -0.9626276
vn -0.1954735 0.1871746 -0.9626816
g Taillights_10_0
f 3/3/3 2/2/2 1/1/1
f 4/4/4 2/2/2 3/3/3
f 4/4/4 3/3/3 5/5/5
f 6/6/6 4/4/4 5/5/5
f 9/9/9 8/8/8 7/7/7
f 8/8/8 9/9/9 10/10/10
f 9/9/9 11/11/11 10/10/10
f 12/12/12 10/10/10 11/11/11
f 13/13/13 10/10/10 12/12/12
f 14/14/14 10/10/10 13/13/13
f 10/10/10 14/14/14 15/15/15
f 16/16/16 7/7/7 8/8/8
f 17/17/17 15/15/15 14/14/14
f 18/18/18 15/15/15 17/17/17
f 18/18/18 17/17/17 19/19/19
f 19/19/19 17/17/17 20/20/20
f 21/21/21 19/19/19 20/20/20
f 21/21/21 20/20/20 22/22/22
f 23/23/23 21/21/21 22/22/22
f 23/23/23 22/22/22 24/24/24
f 25/25/25 23/23/23 24/24/24
f 25/25/25 24/24/24 26/26/26
f 27/27/27 25/25/25 26/26/26
f 30/30/30 29/29/29 28/28/28
f 31/31/31 29/29/29 30/30/30
f 31/31/31 32/32/32 29/29/29
f 33/33/33 29/29/29 32/32/32
f 32/32/32 34/34/34 33/33/33
f 35/35/35 33/33/33 34/34/34
f 34/34/34 36/36/36 35/35/35
f 37/37/37 35/35/35 36/36/36
f 36/36/36 38/38/38 37/37/37
f 36/36/36 39/39/39 38/38/38
f 38/38/38 39/39/39 40/40/40
f 39/39/39 8/8/8 40/40/40
f 40/40/40 8/8/8 10/10/10
f 43/43/43 42/42/42 41/41/41
f 44/44/44 41/41/41 42/42/42
f 42/42/42 43/43/43 45/45/45
f 43/43/43 46/46/46 45/45/45
f 49/49/49 48/48/48 47/47/47
f 50/50/50 47/47/47 48/48/48
f 50/50/50 48/48/48 51/51/51
f 48/48/48 52/52/52 51/51/51
f 53/53/53 50/50/50 51/51/51
f 51/51/51 54/54/54 53/53/53
f 51/51/51 55/55/55 54/54/54
f 48/48/48 56/56/56 52/52/52
f 56/56/56 57/57/57 52/52/52
f 56/56/56 58/58/58 57/57/57
f 57/57/57 58/58/58 59/59/59
f 59/59/59 58/58/58 60/60/60
f 61/61/61 60/60/60 58/58/58
f 60/60/60 61/61/61 62/62/62
f 63/63/63 62/62/62 61/61/61
f 62/62/62 63/63/63 64/64/64
f 65/65/65 64/64/64 63/63/63
f 65/65/65 66/66/66 64/64/64
f 67/67/67 64/64/64 66/66/66
f 51/51/51 68/68/68 55/55/55
f 68/68/68 51/51/51 69/69/69
f 69/69/69 70/70/70 68/68/68
f 69/69/69 71/71/71 70/70/70
f 71/71/71 72/72/72 70/70/70
f 73/73/73 70/70/70 72/72/72
f 72/72/72 74/74/74 73/73/73
f 73/73/73 74/74/74 75/75/75
f 74/74/74 76/76/76 75/75/75
f 75/75/75 76/76/76 77/77/77
f 76/76/76 78/78/78 77/77/77
f 77/77/77 78/78/78 79/79/79
f 78/78/78 80/80/80 79/79/79
