g model_car_102_matte_mirror_LOD1
v 0.9305375 0.9279375 0.3051686
v 0.9523448 0.9276705 0.3032312
v 0.9245045 0.9510759 0.3084834
v 0.9515578 0.9757863 0.3087343
v 0.9977121 0.9301119 0.3001314
v 0.9977342 0.9755734 0.3052751
v 1.039526 0.9446393 0.2987161
v 1.039955 0.9753808 0.302127
v 0.9221394 0.9759189 0.311007
v 0.9977483 1.002115 0.3082765
v 1.040172 0.9908439 0.3038436
v 1.052228 0.9753245 0.3011373
v 0.9511001 1.003727 0.3119305
v 1.052596 0.9612647 0.2993444
v 0.9273313 0.9947206 0.313629
v -0.9305375 0.9279375 0.3051686
v -0.9245044 0.9510759 0.3084834
v -0.9523448 0.9276705 0.3032312
v -0.9515578 0.9757863 0.3087343
v -0.9977101 0.9301119 0.3001314
v -0.9977342 0.9755734 0.3052751
v -1.039526 0.9446393 0.2987161
v -1.039955 0.9753808 0.302127
v -0.9221414 0.9759189 0.311007
v -0.9977483 1.002115 0.3082765
v -1.040172 0.9908439 0.3038436
v -1.052228 0.9753245 0.3011373
v -0.9511 1.003727 0.3119305
v -1.052596 0.9612647 0.2993444
v -0.9273312 0.9947206 0.313629
vn -0.08655199 0.1191289 -0.9890991
vn -0.07695741 0.1110963 -0.9908255
vn -0.08677512 0.1061874 -0.9905525
vn -0.0791887 0.1131044 -0.9904224
vn -0.07338733 0.1119888 -0.9909959
vn -0.07338733 0.1119888 -0.9909959
vn -0.07383359 0.1119888 -0.9909627
vn -0.07494924 0.1119888 -0.990879
vn -0.09012205 0.1148895 -0.9892818
vn -0.07361046 0.1119888 -0.9909793
vn -0.07383359 0.1117656 -0.9909879
vn -0.08789077 0.1144432 -0.9895343
vn -0.08008122 0.1180133 -0.9897777
vn -0.08945268 0.1151126 -0.9893166
vn -0.0957003 0.1325167 -0.9865499
vn 0.08637355 0.1191289 -0.9891147
vn 0.08681981 0.1061874 -0.9905486
vn 0.07700211 0.1110963 -0.990822
vn 0.07901028 0.1131044 -0.9904367
vn 0.07343203 0.1119888 -0.9909925
vn 0.07343203 0.1119888 -0.9909925
vn 0.07387829 0.1119888 -0.9909594
vn 0.07499394 0.1119888 -0.9908756
vn 0.08994363 0.1148895 -0.989298
vn 0.07365516 0.1119888 -0.990976
vn 0.07387829 0.1117656 -0.9909846
vn 0.08771233 0.1144432 -0.9895501
vn 0.0799028 0.1180133 -0.9897921
vn 0.08927424 0.1151126 -0.9893327
vn 0.095745 0.1325167 -0.9865456
g model_car_102_matte_mirror_LOD1_0
f 3/3/3 2/2/2 1/1/1
f 4/4/4 2/2/2 3/3/3
f 5/5/5 2/2/2 4/4/4
f 6/6/6 5/5/5 4/4/4
f 7/7/7 5/5/5 6/6/6
f 8/8/8 7/7/7 6/6/6
f 9/9/9 4/4/4 3/3/3
f 8/8/8 6/6/6 10/10/10
f 11/11/11 8/8/8 10/10/10
f 11/11/11 12/12/12 8/8/8
f 8/8/8 12/12/12 7/7/7
f 6/6/6 4/4/4 13/13/13
f 10/10/10 6/6/6 13/13/13
f 13/13/13 4/4/4 9/9/9
f 12/12/12 14/14/14 7/7/7
f 15/15/15 13/13/13 9/9/9
f 18/18/18 17/17/17 16/16/16
f 18/18/18 19/19/19 17/17/17
f 18/18/18 20/20/20 19/19/19
f 20/20/20 21/21/21 19/19/19
f 20/20/20 22/22/22 21/21/21
f 22/22/22 23/23/23 21/21/21
f 19/19/19 24/24/24 17/17/17
f 21/21/21 23/23/23 25/25/25
f 23/23/23 26/26/26 25/25/25
f 27/27/27 26/26/26 23/23/23
f 27/27/27 23/23/23 22/22/22
f 21/21/21 25/25/25 28/28/28
f 19/19/19 21/21/21 28/28/28
f 19/19/19 28/28/28 24/24/24
f 29/29/29 27/27/27 22/22/22
f 28/28/28 30/30/30 24/24/24
