g Glass_55
v 0.6793 1.279 -0.4250007
v 0.8196 0.9663996 -0.7442005
v 0.8163 0.9700999 -0.09720054
v 0.6713 1.2885 -0.6065007
v 0.6684 1.2818 -0.7885007
v 0.8121 0.9662995 -0.9755005
v 0.695 1.2456 -0.2680007
v 0.716 1.197 -0.1701007
v 0.7363 1.1507 -0.09700064
v 0.67 1.259899 -0.9794007
v 0.6719 1.221199 -1.126601
v 0.7975 0.9660993 -1.1825
v 0.688 1.167399 -1.285501
v 0.7067 1.109299 -1.425101
v 0.7873 0.9658993 -1.2835
v 0.7751 0.9685992 -1.3948
v 0.7191 1.084099 -1.448501
v 0.7394 1.047299 -1.449501
v 0.4719 1.3508 -0.2239008
v 0.6186 1.3144 -0.2421007
v 0.6711 1.1448 0.09379937
v 0.4917 1.1605 0.1494994
v 0.6587 1.2928 -0.2255007
v 0.7295 1.1398 0.03639937
v 0.3092 1.165 0.1899994
v 0.2797 1.3688 -0.2071008
v 0.1343 1.1706 0.2106994
v 0.1399 1.3743 -0.2007008
v -2.671434E-16 1.3763 -0.1989008
v 0.7386 1.1283 0.02389938
v 0.6811 1.2637 -0.1930007
v 0.8116 0.9623002 0.3308995
v 0.7302 0.9538003 0.3937995
v 0.5137 0.9525002 0.4784995
v 0.324 0.9525003 0.5141994
v 0.1461 0.9524003 0.5346994
v -3.398627E-16 0.9521003 0.5457994
v -3.160162E-16 1.1753 0.2174993
v 0.2534 1.120099 -1.809201
v 0.3662 1.026299 -2.0093
v 0.3963 1.110599 -1.811401
v 0.2343 1.027399 -2.025501
v 0.4189 1.042199 -1.961601
v 0.442 1.102999 -1.811001
v 0.4576 1.097899 -1.811401
v 0.4913 1.210799 -1.520901
v 0.4728 1.091599 -1.814201
v 0.5167 1.201899 -1.526201
v 0.54 1.191099 -1.537401
v 0.5733 1.287199 -1.245401
v 0.5433 1.308499 -1.204801
v 0.4897 1.324199 -1.198401
v 0.5756 1.269099 -1.290901
v 0.4399 1.220099 -1.525301
v 0.2887 1.342899 -1.202401
v 0.2755 1.231199 -1.524301
v 0.1443 1.348999 -1.206901
v 0.1269 1.241299 -1.523501
v -3.301258E-17 1.351099 -1.205601
v 0.1163 1.129199 -1.807001
v 6.130676E-17 1.251899 -1.522101
v 1.518143E-16 1.137599 -1.806701
v 2.276646E-16 1.029299 -2.032701
v -0.6793 1.279 -0.4250007
v -0.8163 0.9700999 -0.09720054
v -0.8196 0.9663996 -0.7442005
v -0.6713 1.2885 -0.6065007
v -0.6684 1.2818 -0.7885007
v -0.8121 0.9662995 -0.9755005
v -0.695 1.2456 -0.2680007
v -0.716 1.197 -0.1701007
v -0.7363 1.1507 -0.09700064
v -0.67 1.259899 -0.9794007
v -0.6719 1.221199 -1.126601
v -0.7975 0.9660993 -1.1825
v -0.688 1.167399 -1.285501
v -0.7067 1.109299 -1.425101
v -0.7873 0.9658993 -1.2835
v -0.7751 0.9685992 -1.3948
v -0.7191 1.084099 -1.448501
v -0.7394 1.047299 -1.449501
v -0.4719 1.3508 -0.2239008
v -0.6711 1.1448 0.09379937
v -0.6186 1.3144 -0.2421007
v -0.4917 1.1605 0.1494994
v -0.6587 1.2928 -0.2255007
v -0.7295 1.1398 0.03639937
v -0.3092 1.165 0.1899994
v -0.2797 1.3688 -0.2071008
v -0.1343 1.1706 0.2106994
v -0.1399 1.3743 -0.2007008
v -2.671434E-16 1.3763 -0.1989008
v -0.7386 1.1283 0.02389938
v -0.6811 1.2637 -0.1930007
v -0.8116 0.9623002 0.3308995
v -0.7302 0.9538003 0.3937995
v -0.5137 0.9525002 0.4784995
v -0.324 0.9525003 0.5141994
v -0.1461 0.9524003 0.5346994
v -3.398627E-16 0.9521003 0.5457994
v -3.160162E-16 1.1753 0.2174993
v -0.2534 1.120099 -1.809201
v -0.3963 1.110599 -1.811401
v -0.3662 1.026299 -2.0093
v -0.2343 1.027399 -2.025501
v -0.4189 1.042199 -1.961601
v -0.442 1.102999 -1.811001
v -0.4576 1.097899 -1.811401
v -0.4913 1.210799 -1.520901
v -0.4728 1.091599 -1.814201
v -0.5167 1.201899 -1.526201
v -0.54 1.191099 -1.537401
v -0.5733 1.287199 -1.245401
v -0.5433 1.308499 -1.204801
v -0.4897 1.324199 -1.198401
v -0.5756 1.269099 -1.290901
v -0.4399 1.220099 -1.525301
v -0.2887 1.342899 -1.202401
v -0.2755 1.231199 -1.524301
v -0.1443 1.348999 -1.206901
v -0.1269 1.241299 -1.523501
v -3.301258E-17 1.351099 -1.205601
v 6.130676E-17 1.251899 -1.522101
v -0.1163 1.129199 -1.807001
v 1.518143E-16 1.137599 -1.806701
v 2.276646E-16 1.029299 -2.032701
vt 0.7454 0.7407
vt 0.5333 0.974
vt 0.9689 0.9654
vt 0.623 0.7341
vt 0.5005 0.7389
vt 0.3776 0.9738
vt 0.8514 0.7641
vt 0.9177 0.799
vt 0.9674 0.8324
vt 0.372 0.7543
vt 0.2728 0.7796
vt 0.2379 0.9716
vt 0.1661 0.8184
vt 0.0725 0.8603
vt 0.1695 0.9696
vt 0.0942 0.9653
vt 0.0571 0.8794
vt 0.0566 0.9077
vt 0.3902 0.5896
vt 0.4925 0.5818
vt 0.5073 0.3264
vt 0.382 0.3075
vt 0.5194 0.5632
vt 0.554 0.356
vt 0.2571 0.2938
vt 0.2598 0.5948
vt 0.1386 0.2917
vt 0.1655 0.5997
vt 0.0712 0.603
vt 0.5663 0.3599
vt 0.5347 0.5339
vt 0.592 0.1205
vt 0.5322 0.0849
vt 0.3807 0.0452
vt 0.2512 0.0328
vt 0.1306 0.0287
vt 0.0318 0.0284
vt 0.0481 0.2955
vt 0.8071 0.1908
vt 0.7279 0.0438
vt 0.7107 0.189
vt 0.8166 0.0322
vt 0.693 0.0783
vt 0.6796 0.1879
vt 0.6686 0.1865
vt 0.6501 0.3969
vt 0.6578 0.1834
vt 0.6324 0.3917
vt 0.616 0.3824
vt 0.5967 0.5899
vt 0.6179 0.6201
vt 0.6551 0.627
vt 0.5942 0.5569
vt 0.6853 0.3957
vt 0.7911 0.6264
vt 0.7963 0.3969
vt 0.8883 0.6234
vt 0.8965 0.3981
vt 0.9855 0.6231
vt 0.8996 0.1926
vt 0.9822 0.3999
vt 0.9782 0.1934
vt 0.9743 0.0247
vt 0.7454 0.7407
vt 0.9689 0.9654
vt 0.5333 0.974
vt 0.623 0.7341
vt 0.5005 0.7389
vt 0.3776 0.9738
vt 0.8514 0.7641
vt 0.9177 0.799
vt 0.9674 0.8324
vt 0.372 0.7543
vt 0.2728 0.7796
vt 0.2379 0.9716
vt 0.1661 0.8184
vt 0.0725 0.8603
vt 0.1695 0.9696
vt 0.0942 0.9653
vt 0.0571 0.8794
vt 0.0566 0.9077
vt 0.3902 0.5896
vt 0.5073 0.3264
vt 0.4925 0.5818
vt 0.382 0.3075
vt 0.5194 0.5632
vt 0.554 0.356
vt 0.2571 0.2938
vt 0.2598 0.5948
vt 0.1386 0.2917
vt 0.1655 0.5997
vt 0.0712 0.603
vt 0.5663 0.3599
vt 0.5347 0.5339
vt 0.592 0.1205
vt 0.5322 0.0849
vt 0.3807 0.0452
vt 0.2512 0.0328
vt 0.1306 0.0287
vt 0.0318 0.0284
vt 0.0481 0.2955
vt 0.8071 0.1908
vt 0.7107 0.189
vt 0.7279 0.0438
vt 0.8166 0.0322
vt 0.693 0.0783
vt 0.6796 0.1879
vt 0.6686 0.1865
vt 0.6501 0.3969
vt 0.6578 0.1834
vt 0.6324 0.3917
vt 0.616 0.3824
vt 0.5967 0.5899
vt 0.6179 0.6201
vt 0.6551 0.627
vt 0.5942 0.5569
vt 0.6853 0.3957
vt 0.7911 0.6264
vt 0.7963 0.3969
vt 0.8883 0.6234
vt 0.8965 0.3981
vt 0.9855 0.6231
vt 0.9822 0.3999
vt 0.8996 0.1926
vt 0.9782 0.1934
vt 0.9743 0.0247
vn 0.9116093 0.4110228 -0.005361489
vn 0.906047 0.4227106 -0.01986045
vn 0.9140953 0.4054972 0.001372836
vn 0.9044293 0.4260302 -0.02249493
vn 0.901898 0.4306183 -0.03388021
vn 0.8972192 0.438281 -0.05392111
vn 0.9161991 0.4006999 -0.004344468
vn 0.9140489 0.4055763 0.004750615
vn 0.9143102 0.4050063 0.002617114
vn 0.8983259 0.4338648 -0.06907848
vn 0.8927112 0.4434644 -0.08003717
vn 0.8926731 0.4453673 -0.06915613
vn 0.8902374 0.4507711 -0.06544275
vn 0.8978882 0.4373442 -0.05026738
vn 0.9038943 0.4179001 -0.09129413
vn 0.9020327 0.4268469 -0.064333
vn 0.8951097 0.4451944 0.02409575
vn 0.8708292 0.47717 0.118175
vn 0.1855128 0.8836934 0.4297337
vn 0.2807059 0.8737143 0.3972751
vn 0.3204902 0.8476921 0.4227341
vn 0.1709935 0.8622461 0.4767525
vn 0.3495399 0.8557892 0.3813747
vn 0.6557917 0.7146499 0.2433368
vn 0.1037977 0.8621799 0.4958545
vn 0.09112241 0.8904852 0.4457946
vn 0.06734355 0.8622876 0.5019213
vn 0.03732646 0.8953366 0.4438234
vn 0 0.896885 0.4422638
vn 0.8260613 0.5542014 0.1023892
vn 0.5029523 0.7867715 0.3578123
vn 0.3156846 0.8313478 0.4573884
vn 0.235029 0.8362034 0.495505
vn 0.1490318 0.8363692 0.5275189
vn 0.08106796 0.8352913 0.5437981
vn 0.05511222 0.8316342 0.5525823
vn 0 0.8294521 0.5585778
vn 0 0.8655092 0.500893
vn 0.05578921 0.9222126 -0.3826376
vn 0.06473608 0.9147079 -0.3988968
vn 0.1037916 0.9185248 -0.3814964
vn 0.04254877 0.9140136 -0.4034459
vn 0.1102471 0.9095421 -0.4007227
vn 0.2164055 0.8981601 -0.3827234
vn 0.2838061 0.8773203 -0.3869923
vn 0.2205627 0.9114267 -0.3473522
vn 0.2889607 0.8747248 -0.3890477
vn 0.2471695 0.903603 -0.3498697
vn 0.2456769 0.9002351 -0.3594713
vn 0.2274394 0.9182538 -0.3241625
vn 0.227239 0.9189567 -0.3223059
vn 0.1627617 0.9335403 -0.3193919
vn 0.3637965 0.8716813 -0.3283654
vn 0.1314001 0.9278405 -0.3490643
vn 0.06798124 0.9435635 -0.3241397
vn 0.06030884 0.9359759 -0.34686
vn 0.03278819 0.9449853 -0.3254655
vn 0.06367837 0.9376901 -0.341588
vn 0 0.9483721 -0.3171599
vn 0.05496459 0.9181494 -0.3924038
vn 0 0.94248 -0.3342626
vn 0 0.915624 -0.4020356
vn 0 0.9081025 -0.4187481
vn -0.9116093 0.4110228 -0.005361489
vn -0.9140953 0.4054972 0.001372836
vn -0.906047 0.4227106 -0.01986045
vn -0.9044293 0.4260302 -0.02249493
vn -0.901898 0.4306183 -0.0338802
vn -0.8972192 0.438281 -0.05392111
vn -0.9161991 0.4006999 -0.004344468
vn -0.9140489 0.4055763 0.004750615
vn -0.9143102 0.4050063 0.002617114
vn -0.8983259 0.4338648 -0.06907848
vn -0.8927112 0.4434644 -0.08003717
vn -0.8926731 0.4453673 -0.06915613
vn -0.8902374 0.4507711 -0.06544275
vn -0.8978882 0.4373443 -0.05026738
vn -0.9038943 0.4179001 -0.09129413
vn -0.9020327 0.4268469 -0.064333
vn -0.8951097 0.4451944 0.02409575
vn -0.8708292 0.47717 0.118175
vn -0.1855128 0.8836933 0.4297337
vn -0.3204901 0.8476922 0.422734
vn -0.2807059 0.8737143 0.3972751
vn -0.1709935 0.862246 0.4767525
vn -0.3495399 0.8557892 0.3813747
vn -0.6557917 0.7146499 0.2433368
vn -0.1037977 0.8621799 0.4958546
vn -0.09112241 0.8904852 0.4457946
vn -0.06734355 0.8622876 0.5019212
vn -0.03732646 0.8953366 0.4438234
vn 0 0.896885 0.4422638
vn -0.8260612 0.5542014 0.1023892
vn -0.5029523 0.7867715 0.3578123
vn -0.3156846 0.8313478 0.4573884
vn -0.235029 0.8362034 0.495505
vn -0.1490318 0.8363692 0.5275189
vn -0.08106796 0.8352913 0.5437981
vn -0.05511222 0.8316342 0.5525823
vn 0 0.8294521 0.5585778
vn 0 0.8655092 0.500893
vn -0.05578921 0.9222125 -0.3826376
vn -0.1037916 0.9185249 -0.3814963
vn -0.06473608 0.9147079 -0.3988968
vn -0.04254877 0.9140137 -0.4034459
vn -0.1102471 0.9095421 -0.4007227
vn -0.2164055 0.8981601 -0.3827234
vn -0.2838061 0.8773204 -0.3869923
vn -0.2205627 0.9114267 -0.3473522
vn -0.2889607 0.8747248 -0.3890477
vn -0.2471695 0.903603 -0.3498697
vn -0.245677 0.9002351 -0.3594713
vn -0.2274394 0.9182538 -0.3241625
vn -0.227239 0.9189567 -0.3223058
vn -0.1627617 0.9335403 -0.3193919
vn -0.3637965 0.8716813 -0.3283654
vn -0.1314001 0.9278405 -0.3490643
vn -0.06798124 0.9435635 -0.3241397
vn -0.06030884 0.9359759 -0.34686
vn -0.03278819 0.9449853 -0.3254655
vn -0.06367837 0.9376901 -0.341588
vn 0 0.9483721 -0.3171599
vn 0 0.94248 -0.3342626
vn -0.0549646 0.9181494 -0.3924038
vn 0 0.915624 -0.4020356
vn 0 0.9081025 -0.4187481
g Glass_55_0
f 3/3/3 2/2/2 1/1/1
f 1/1/1 2/2/2 4/4/4
f 4/4/4 2/2/2 5/5/5
f 5/5/5 2/2/2 6/6/6
f 7/7/7 3/3/3 1/1/1
f 3/3/3 7/7/7 8/8/8
f 8/8/8 9/9/9 3/3/3
f 10/10/10 5/5/5 6/6/6
f 10/10/10 6/6/6 11/11/11
f 12/12/12 11/11/11 6/6/6
f 13/13/13 11/11/11 12/12/12
f 14/14/14 13/13/13 12/12/12
f 15/15/15 14/14/14 12/12/12
f 14/14/14 15/15/15 16/16/16
f 17/17/17 14/14/14 16/16/16
f 16/16/16 18/18/18 17/17/17
f 21/21/21 20/20/20 19/19/19
f 22/22/22 21/21/21 19/19/19
f 20/20/20 21/21/21 23/23/23
f 24/24/24 23/23/23 21/21/21
f 22/22/22 19/19/19 25/25/25
f 19/19/19 26/26/26 25/25/25
f 25/25/25 26/26/26 27/27/27
f 28/28/28 27/27/27 26/26/26
f 28/28/28 29/29/29 27/27/27
f 24/24/24 30/30/30 23/23/23
f 30/30/30 31/31/31 23/23/23
f 24/24/24 32/32/32 30/30/30
f 24/24/24 21/21/21 32/32/32
f 33/33/33 32/32/32 21/21/21
f 21/21/21 22/22/22 33/33/33
f 34/34/34 33/33/33 22/22/22
f 22/22/22 25/25/25 34/34/34
f 35/35/35 34/34/34 25/25/25
f 36/36/36 35/35/35 25/25/25
f 27/27/27 36/36/36 25/25/25
f 37/37/37 36/36/36 27/27/27
f 38/38/38 37/37/37 27/27/27
f 38/38/38 27/27/27 29/29/29
f 41/41/41 40/40/40 39/39/39
f 42/42/42 39/39/39 40/40/40
f 40/40/40 41/41/41 43/43/43
f 44/44/44 43/43/43 41/41/41
f 45/45/45 43/43/43 44/44/44
f 44/44/44 46/46/46 45/45/45
f 41/41/41 46/46/46 44/44/44
f 47/47/47 43/43/43 45/45/45
f 48/48/48 45/45/45 46/46/46
f 45/45/45 48/48/48 47/47/47
f 48/48/48 49/49/49 47/47/47
f 48/48/48 50/50/50 49/49/49
f 46/46/46 51/51/51 48/48/48
f 50/50/50 48/48/48 51/51/51
f 52/52/52 51/51/51 46/46/46
f 53/53/53 49/49/49 50/50/50
f 54/54/54 52/52/52 46/46/46
f 54/54/54 46/46/46 41/41/41
f 55/55/55 52/52/52 54/54/54
f 56/56/56 54/54/54 41/41/41
f 56/56/56 55/55/55 54/54/54
f 39/39/39 56/56/56 41/41/41
f 55/55/55 56/56/56 57/57/57
f 58/58/58 57/57/57 56/56/56
f 56/56/56 39/39/39 58/58/58
f 59/59/59 57/57/57 58/58/58
f 60/60/60 58/58/58 39/39/39
f 61/61/61 58/58/58 60/60/60
f 61/61/61 59/59/59 58/58/58
f 62/62/62 61/61/61 60/60/60
f 62/62/62 60/60/60 63/63/63
f 63/63/63 60/60/60 42/42/42
f 39/39/39 42/42/42 60/60/60
f 66/66/66 65/65/65 64/64/64
f 66/66/66 64/64/64 67/67/67
f 66/66/66 67/67/67 68/68/68
f 66/66/66 68/68/68 69/69/69
f 65/65/65 70/70/70 64/64/64
f 70/70/70 65/65/65 71/71/71
f 72/72/72 71/71/71 65/65/65
f 68/68/68 73/73/73 69/69/69
f 69/69/69 73/73/73 74/74/74
f 74/74/74 75/75/75 69/69/69
f 74/74/74 76/76/76 75/75/75
f 76/76/76 77/77/77 75/75/75
f 77/77/77 78/78/78 75/75/75
f 78/78/78 77/77/77 79/79/79
f 77/77/77 80/80/80 79/79/79
f 81/81/81 79/79/79 80/80/80
f 84/84/84 83/83/83 82/82/82
f 83/83/83 85/85/85 82/82/82
f 83/83/83 84/84/84 86/86/86
f 86/86/86 87/87/87 83/83/83
f 82/82/82 85/85/85 88/88/88
f 89/89/89 82/82/82 88/88/88
f 89/89/89 88/88/88 90/90/90
f 90/90/90 91/91/91 89/89/89
f 92/92/92 91/91/91 90/90/90
f 93/93/93 87/87/87 86/86/86
f 94/94/94 93/93/93 86/86/86
f 95/95/95 87/87/87 93/93/93
f 83/83/83 87/87/87 95/95/95
f 95/95/95 96/96/96 83/83/83
f 85/85/85 83/83/83 96/96/96
f 96/96/96 97/97/97 85/85/85
f 88/88/88 85/85/85 97/97/97
f 97/97/97 98/98/98 88/88/88
f 98/98/98 99/99/99 88/88/88
f 99/99/99 90/90/90 88/88/88
f 99/99/99 100/100/100 90/90/90
f 100/100/100 101/101/101 90/90/90
f 90/90/90 101/101/101 92/92/92
f 104/104/104 103/103/103 102/102/102
f 102/102/102 105/105/105 104/104/104
f 103/103/103 104/104/104 106/106/106
f 106/106/106 107/107/107 103/103/103
f 106/106/106 108/108/108 107/107/107
f 109/109/109 107/107/107 108/108/108
f 109/109/109 103/103/103 107/107/107
f 106/106/106 110/110/110 108/108/108
f 108/108/108 111/111/111 109/109/109
f 111/111/111 108/108/108 110/110/110
f 112/112/112 111/111/111 110/110/110
f 113/113/113 111/111/111 112/112/112
f 114/114/114 109/109/109 111/111/111
f 111/111/111 113/113/113 114/114/114
f 114/114/114 115/115/115 109/109/109
f 112/112/112 116/116/116 113/113/113
f 115/115/115 117/117/117 109/109/109
f 109/109/109 117/117/117 103/103/103
f 115/115/115 118/118/118 117/117/117
f 117/117/117 119/119/119 103/103/103
f 118/118/118 119/119/119 117/117/117
f 119/119/119 118/118/118 120/120/120
f 120/120/120 121/121/121 119/119/119
f 120/120/120 122/122/122 121/121/121
f 122/122/122 123/123/123 121/121/121
f 121/121/121 123/123/123 124/124/124
f 121/121/121 124/124/124 102/102/102
f 102/102/102 119/119/119 121/121/121
f 119/119/119 102/102/102 103/103/103
f 123/123/123 125/125/125 124/124/124
f 124/124/124 125/125/125 126/126/126
f 124/124/124 126/126/126 105/105/105
f 105/105/105 102/102/102 124/124/124
