g ref_55
v 0.7658 0.749201 1.8598
v 0.8144 0.6666011 1.8911
v 0.7399 0.6735011 1.9755
v 0.7967 0.5939011 1.9871
v 0.67 0.6816011 2.0258
v 0.8288 0.725901 1.8074
v 0.8256 0.794601 1.716799
v 0.8473 0.7829009 1.700999
v 0.8397 0.7959009 1.6856
v 0.7023 0.6052011 2.0613
v 0.5875 0.6188012 2.1197
v 0.6632 0.5455012 2.1172
v 0.7852 0.5644011 2.0142
v 0.7675 0.5519012 2.0379
v 0.7456 0.5486012 2.0561
v 0.5348 0.5372012 2.1796
v 0.5146 0.5651012 2.1815
v 0.5103 0.5459012 2.1896
v -0.7658 0.749201 1.8598
v -0.7399 0.6735011 1.9755
v -0.8144 0.6666011 1.8911
v -0.7967 0.5939011 1.9871
v -0.67 0.6816011 2.0258
v -0.8288 0.725901 1.8074
v -0.8256 0.794601 1.716799
v -0.8473 0.7829009 1.700999
v -0.8397 0.7959009 1.6856
v -0.7023 0.6052011 2.0613
v -0.5875 0.6188012 2.1197
v -0.6632 0.5455012 2.1172
v -0.7852 0.5644011 2.0142
v -0.7675 0.5519012 2.0379
v -0.7456 0.5486012 2.0561
v -0.5348 0.5372012 2.1796
v -0.5146 0.5651012 2.1815
v -0.5103 0.5459012 2.1896
vt 0.1824 0.6269
vt 0.2052 0.691
vt 0.2724 0.656
vt 0.2813 0.7216
vt 0.3192 0.6215
vt 0.1401 0.6657
vt 0.0736 0.6275
vt 0.0611 0.6428
vt 0.051 0.6323
vt 0.3478 0.6751
vt 0.4135 0.6179
vt 0.4072 0.6887
vt 0.3074 0.732
vt 0.3292 0.7309
vt 0.3471 0.7232
vt 0.4883 0.6364
vt 0.4874 0.6132
vt 0.4993 0.6212
vt 0.1824 0.6269
vt 0.2724 0.656
vt 0.2052 0.691
vt 0.2813 0.7216
vt 0.3192 0.6215
vt 0.1401 0.6657
vt 0.0736 0.6275
vt 0.0611 0.6428
vt 0.051 0.6323
vt 0.3478 0.6751
vt 0.4135 0.6179
vt 0.4072 0.6887
vt 0.3074 0.732
vt 0.3292 0.7309
vt 0.3471 0.7232
vt 0.4883 0.6364
vt 0.4874 0.6132
vt 0.4993 0.6212
vn 0.6175834 0.6001819 0.5083034
vn 0.642136 0.5633012 0.5199549
vn 0.5610257 0.5896282 0.5810238
vn 0.6080411 0.4875455 0.6265664
vn 0.4904661 0.5603068 0.6674573
vn 0.6288815 0.6128941 0.4784024
vn 0.6403541 0.645484 0.4162896
vn 0.6348891 0.6785007 0.3695304
vn 0.6155766 0.7252234 0.3084098
vn 0.5187801 0.45536 0.723543
vn 0.4228928 0.4135484 0.8063123
vn 0.4560524 0.397548 0.7962235
vn 0.5952432 0.4153952 0.6878462
vn 0.587385 0.4129642 0.6960168
vn 0.5582297 0.3583036 0.7483302
vn 0.4458202 0.3092892 0.8399908
vn 0.4681531 0.2819132 0.837471
vn 0.4430786 0.2624117 0.8572173
vn -0.6175833 0.6001819 0.5083034
vn -0.5610257 0.5896282 0.5810238
vn -0.642136 0.5633012 0.5199549
vn -0.6080411 0.4875455 0.6265664
vn -0.4904661 0.5603068 0.6674573
vn -0.6288814 0.6128942 0.4784024
vn -0.6403541 0.645484 0.4162896
vn -0.6348891 0.6785007 0.3695304
vn -0.6155766 0.7252234 0.3084098
vn -0.5187801 0.45536 0.723543
vn -0.4228928 0.4135484 0.8063123
vn -0.4560524 0.397548 0.7962235
vn -0.5952432 0.4153952 0.6878462
vn -0.587385 0.4129642 0.6960168
vn -0.5582297 0.3583036 0.7483302
vn -0.4458202 0.3092892 0.8399908
vn -0.4681531 0.2819132 0.837471
vn -0.4430786 0.2624117 0.8572173
g ref_55_0
f 3/3/3 2/2/2 1/1/1
f 4/4/4 2/2/2 3/3/3
f 1/1/1 5/5/5 3/3/3
f 6/6/6 1/1/1 2/2/2
f 1/1/1 6/6/6 7/7/7
f 8/8/8 7/7/7 6/6/6
f 7/7/7 8/8/8 9/9/9
f 10/10/10 4/4/4 3/3/3
f 3/3/3 5/5/5 10/10/10
f 5/5/5 11/11/11 10/10/10
f 10/10/10 11/11/11 12/12/12
f 13/13/13 4/4/4 10/10/10
f 14/14/14 13/13/13 10/10/10
f 14/14/14 10/10/10 15/15/15
f 10/10/10 12/12/12 15/15/15
f 12/12/12 11/11/11 16/16/16
f 17/17/17 16/16/16 11/11/11
f 17/17/17 18/18/18 16/16/16
f 21/21/21 20/20/20 19/19/19
f 21/21/21 22/22/22 20/20/20
f 23/23/23 19/19/19 20/20/20
f 19/19/19 24/24/24 21/21/21
f 24/24/24 19/19/19 25/25/25
f 25/25/25 26/26/26 24/24/24
f 26/26/26 25/25/25 27/27/27
f 22/22/22 28/28/28 20/20/20
f 23/23/23 20/20/20 28/28/28
f 29/29/29 23/23/23 28/28/28
f 29/29/29 28/28/28 30/30/30
f 22/22/22 31/31/31 28/28/28
f 31/31/31 32/32/32 28/28/28
f 28/28/28 32/32/32 33/33/33
f 30/30/30 28/28/28 33/33/33
f 29/29/29 30/30/30 34/34/34
f 34/34/34 35/35/35 29/29/29
f 36/36/36 35/35/35 34/34/34
