g Taillights_55
v 0.9055 0.7179989 -1.9186
v 0.8846 0.7699989 -1.893
v 0.8407 0.7821989 -1.9799
v 0.8942 0.766599 -1.8693
v 0.8859 0.787099 -1.864401
v 0.8724 0.7002989 -1.9962
v 0.7739 0.7841989 -2.073801
v 0.7867 0.6983988 -2.109101
v 0.6626 0.7010988 -2.171601
v 0.6515 0.7767988 -2.136301
v 0.5546 0.7722988 -2.1753
v 0.5705 0.6987988 -2.195801
v 0.4729 0.7010987 -2.2136
v 0.8702 0.804899 -1.8848
v 0.8116 0.8573989 -1.953
v 0.7588 0.8852988 -2.0154
v 0.6436 0.8612989 -2.0828
v 0.5564 0.8193988 -2.151
v 0.5205 0.7685988 -2.1804
v -0.9055 0.7179989 -1.9186
v -0.8407 0.7821989 -1.9799
v -0.8846 0.7699989 -1.893
v -0.8942 0.766599 -1.8693
v -0.8859 0.787099 -1.864401
v -0.8724 0.7002989 -1.9962
v -0.7739 0.7841989 -2.073801
v -0.7867 0.6983988 -2.109101
v -0.6626 0.7010988 -2.171601
v -0.6515 0.7767988 -2.136301
v -0.5546 0.7722988 -2.1753
v -0.5705 0.6987988 -2.195801
v -0.4729 0.7010987 -2.2136
v -0.8702 0.804899 -1.8848
v -0.8116 0.8573989 -1.953
v -0.7588 0.8852988 -2.0154
v -0.6436 0.8612989 -2.0828
v -0.5564 0.8193988 -2.151
v -0.5205 0.7685988 -2.1804
vt 0.523 0.3516
vt 0.5292 0.4044
vt 0.6114 0.3852
vt 0.5077 0.4102
vt 0.5138 0.4288
vt 0.5862 0.3125
vt 0.7065 0.3596
vt 0.7037 0.2795
vt 0.8232 0.2731
vt 0.8232 0.3456
vt 0.9128 0.3394
vt 0.9053 0.2727
vt 0.9907 0.2784
vt 0.5398 0.4361
vt 0.6272 0.4565
vt 0.7015 0.4601
vt 0.8145 0.4314
vt 0.9049 0.3844
vt 0.9426 0.3382
vt 0.523 0.3516
vt 0.6114 0.3852
vt 0.5292 0.4044
vt 0.5077 0.4102
vt 0.5138 0.4288
vt 0.5862 0.3125
vt 0.7065 0.3596
vt 0.7037 0.2795
vt 0.8232 0.2731
vt 0.8232 0.3456
vt 0.9128 0.3394
vt 0.9053 0.2727
vt 0.9907 0.2784
vt 0.5398 0.4361
vt 0.6272 0.4565
vt 0.7015 0.4601
vt 0.8145 0.4314
vt 0.9049 0.3844
vt 0.9426 0.3382
vn 0.8129497 0.4529825 -0.3659504
vn 0.8351191 0.4523424 -0.3129895
vn 0.7857364 0.4269966 -0.4475401
vn 0.8525336 0.4399258 -0.2822265
vn 0.859435 0.4206425 -0.2905708
vn 0.7781393 0.3869855 -0.4947135
vn 0.5748079 0.4382434 -0.6910416
vn 0.5797718 0.3824812 -0.7194253
vn 0.3425178 0.4047468 -0.8478571
vn 0.3544705 0.472141 -0.8071144
vn 0.1981656 0.3980127 -0.8957211
vn 0.2089926 0.3044146 -0.9293298
vn 0.1586066 0.3203777 -0.9339176
vn 0.8363804 0.4310393 -0.3386341
vn 0.7890743 0.4535505 -0.4143111
vn 0.5952154 0.4806428 -0.6439729
vn 0.3573507 0.5184349 -0.7768691
vn 0.2894191 0.4667075 -0.8357157
vn 0.09236471 0.4035375 -0.910289
vn -0.8129496 0.4529825 -0.3659504
vn -0.7857365 0.4269966 -0.4475401
vn -0.8351191 0.4523424 -0.3129895
vn -0.8525336 0.4399258 -0.2822265
vn -0.859435 0.4206425 -0.2905708
vn -0.7781393 0.3869855 -0.4947135
vn -0.5748079 0.4382434 -0.6910416
vn -0.5797718 0.3824812 -0.7194253
vn -0.3425178 0.4047468 -0.847857
vn -0.3544705 0.472141 -0.8071144
vn -0.1981656 0.3980127 -0.8957211
vn -0.2089926 0.3044146 -0.9293298
vn -0.1586066 0.3203777 -0.9339176
vn -0.8363804 0.4310393 -0.3386341
vn -0.7890743 0.4535505 -0.4143111
vn -0.5952154 0.4806428 -0.6439729
vn -0.3573507 0.5184349 -0.7768691
vn -0.2894191 0.4667076 -0.8357157
vn -0.09236471 0.4035375 -0.910289
g Taillights_55_0
f 3/3/3 2/2/2 1/1/1
f 2/2/2 4/4/4 1/1/1
f 2/2/2 5/5/5 4/4/4
f 6/6/6 3/3/3 1/1/1
f 3/3/3 6/6/6 7/7/7
f 8/8/8 7/7/7 6/6/6
f 8/8/8 9/9/9 7/7/7
f 10/10/10 7/7/7 9/9/9
f 10/10/10 9/9/9 11/11/11
f 12/12/12 11/11/11 9/9/9
f 13/13/13 11/11/11 12/12/12
f 2/2/2 3/3/3 14/14/14
f 14/14/14 5/5/5 2/2/2
f 15/15/15 14/14/14 3/3/3
f 16/16/16 15/15/15 3/3/3
f 7/7/7 16/16/16 3/3/3
f 17/17/17 16/16/16 7/7/7
f 10/10/10 17/17/17 7/7/7
f 18/18/18 17/17/17 10/10/10
f 11/11/11 18/18/18 10/10/10
f 19/19/19 18/18/18 11/11/11
f 19/19/19 11/11/11 13/13/13
f 22/22/22 21/21/21 20/20/20
f 23/23/23 22/22/22 20/20/20
f 24/24/24 22/22/22 23/23/23
f 21/21/21 25/25/25 20/20/20
f 25/25/25 21/21/21 26/26/26
f 26/26/26 27/27/27 25/25/25
f 28/28/28 27/27/27 26/26/26
f 26/26/26 29/29/29 28/28/28
f 28/28/28 29/29/29 30/30/30
f 30/30/30 31/31/31 28/28/28
f 30/30/30 32/32/32 31/31/31
f 21/21/21 22/22/22 33/33/33
f 24/24/24 33/33/33 22/22/22
f 33/33/33 34/34/34 21/21/21
f 34/34/34 35/35/35 21/21/21
f 35/35/35 26/26/26 21/21/21
f 35/35/35 36/36/36 26/26/26
f 36/36/36 29/29/29 26/26/26
f 36/36/36 37/37/37 29/29/29
f 37/37/37 30/30/30 29/29/29
f 37/37/37 38/38/38 30/30/30
f 30/30/30 38/38/38 32/32/32
