g Glass_48
v 0.5614 1.3022 0.2379992
v 0.4202 1.2528 0.4639992
v 0.3787 1.3252 0.2595992
v 0.6006 1.2309 0.4446992
v 0.3787 1.3252 0.2595992
v 0.1763 1.2667 0.4679992
v 0.1769 1.3352 0.2695992
v 0.1763 1.2667 0.4679992
v 0.4202 1.2528 0.4639992
v 0.1763 1.2667 0.4679992
v 0 1.3352 0.2713992
v 0.1769 1.3352 0.2695992
v 0 1.2691 0.4683992
v 0.4202 1.2528 0.4639992
v 0.6381 1.1476 0.6076992
v 0.4426 1.1816 0.6242992
v 0.6006 1.2309 0.4446992
v 0.4641 1.0939 0.8030992
v 0.6715 1.061 0.7720002
v 0.4426 1.1816 0.6242992
v 0.4426 1.1816 0.6242992
v 0.1763 1.2667 0.4679992
v 0.4202 1.2528 0.4639992
v 0.4426 1.1816 0.6242992
v 0.1852 1.1953 0.6343992
v 0 1.2691 0.4683992
v 0.1852 1.1953 0.6343992
v 0 1.1981 0.6348992
v 0.1763 1.2667 0.4679992
v 0.4426 1.1816 0.6242992
v 0.1915 1.0992 0.8305992
v 0.1852 1.1953 0.6343992
v 0.1915 1.0992 0.8305992
v 0.4426 1.1816 0.6242992
v 0.4641 1.0939 0.8030992
v 0.4204 0.9321008 1.077399
v 0.1915 1.0992 0.8305992
v 0.1915 1.0992 0.8305992
v 0.1897 0.9405008 1.1141
v 0.1915 1.0992 0.8305992
v 0 1.1981 0.6348992
v 0.1852 1.1953 0.6343992
v 0.1915 1.0992 0.8305992
v 0 1.0975 0.8359992
v 0.4641 1.0939 0.8030992
v 0.549 0.9351998 1.0367
v 0.4204 0.9321008 1.077399
v 0.6681 0.9549998 0.9534002
v 0.6715 1.061 0.7720002
v 0.6284 0.9370998 0.9929002
v 0.1897 0.9405008 1.1141
v 0 1.0975 0.8359992
v 0.1915 1.0992 0.8305992
v 0 0.9407008 1.1195
v 0.6139 1.2257 -0.9251008
v 0.617 1.1802 -1.124501
v 0.6551 1.1264 -1.028001
v 0.7009 1.0638 -0.8653008
v 0.6139 1.2257 -0.9251008
v 0.7357 1.0224 -0.5184998
v 0.6028 1.2844 -0.5232008
v 0.7096 1.0469 -0.7708998
v 0.7009 1.0638 -0.8653008
v 0.5977 1.3001 -0.2329008
v 0.7373 1.0147 -0.4249998
v 0.7602 0.9603 0.2294001
v 0.5978 1.2883 -0.4394008
v 0.6925 1.1 0.5789992
v 0.7602 0.9603 0.2294001
v 0.768 0.9338999 0.5859002
v 0.6553 1.1774 0.4121992
v 0.7602 0.9603 0.2294001
v 0.6553 1.1774 0.4121992
v 0.6239 1.2492 0.2065992
v 0.6239 1.2492 0.2065992
v 0.6046 1.2879 -0.00420079
v 0.6046 1.2879 -0.00420079
v 0.5977 1.3001 -0.2329008
v 0.7602 0.9603 0.2294001
v 0.4732 1.226899 -1.445601
v 0.5761 1.110499 -1.4997
v 0.5739 1.125099 -1.438701
v 0.5543 1.083999 -1.6013
v 0.3847 1.249299 -1.480301
v 0.5761 1.110499 -1.4997
v 0.5231 1.058199 -1.6944
v 0.3847 1.249299 -1.480301
v 0.4657 1.035299 -1.777501
v 0.3847 1.249299 -1.480301
v 0.5231 1.058199 -1.6944
v 0.5543 1.083999 -1.6013
v 0.4069 1.017299 -1.842301
v 0.249 1.263899 -1.504801
v 0.4657 1.035299 -1.777501
v 0.1071 1.268299 -1.516001
v 0 0.9846993 -1.960701
v 0.1364 0.9876993 -1.9488
v 0 1.271399 -1.511501
v 0.1364 0.9876993 -1.9488
v 0.249 1.263899 -1.504801
v 0.1071 1.268299 -1.516001
v 0.2823 0.9968993 -1.911801
v 0.249 1.263899 -1.504801
v 0.2823 0.9968993 -1.911801
v 0.4069 1.017299 -1.842301
v 0.5739 1.125099 -1.438701
v 0.5273 1.191199 -1.379901
v 0.4732 1.226899 -1.445601
v -0.5614 1.301 0.2379992
v -0.4202 1.2528 0.4639992
v -0.6006 1.2309 0.4446992
v -0.3788 1.3252 0.2595992
v -0.3788 1.3252 0.2595992
v -0.1764 1.2667 0.4679992
v -0.4202 1.2528 0.4639992
v -0.1764 1.2667 0.4679992
v -0.1769 1.3352 0.2695992
v -0.1764 1.2667 0.4679992
v 0 1.3352 0.2713992
v 0 1.2691 0.4683992
v -0.1769 1.3352 0.2695992
v -0.4202 1.2528 0.4639992
v -0.6382 1.1476 0.6076992
v -0.6006 1.2309 0.4446992
v -0.4426 1.1816 0.6242992
v -0.4642 1.0939 0.8030992
v -0.4426 1.1816 0.6242992
v -0.6716 1.061 0.7720002
v -0.4426 1.1816 0.6242992
v -0.1764 1.2667 0.4679992
v -0.1852 1.1953 0.6343992
v -0.4426 1.1816 0.6242992
v -0.4202 1.2528 0.4639992
v 0 1.2691 0.4683992
v -0.1852 1.1953 0.6343992
v -0.1764 1.2667 0.4679992
v 0 1.1981 0.6348992
v -0.4426 1.1816 0.6242992
v -0.1915 1.0992 0.8305992
v -0.4642 1.0939 0.8030992
v -0.1915 1.0992 0.8305992
v -0.4205 0.9321008 1.077399
v -0.1915 1.0992 0.8305992
v -0.1897 0.9405008 1.1141
v -0.1915 1.0992 0.8305992
v -0.4426 1.1816 0.6242992
v -0.1852 1.1953 0.6343992
v -0.1915 1.0992 0.8305992
v 0 1.1981 0.6348992
v 0 1.0975 0.8359992
v -0.1915 1.0992 0.8305992
v -0.1852 1.1953 0.6343992
v -0.4642 1.0939 0.8030992
v -0.4205 0.9321008 1.077399
v -0.5491 0.9351998 1.0367
v -0.6682 0.9549998 0.9534002
v -0.6716 1.061 0.7720002
v -0.6285 0.9370998 0.9929002
v -0.1897 0.9405008 1.1141
v 0 1.0975 0.8359992
v 0 0.9407008 1.1195
v -0.1915 1.0992 0.8305992
v -0.614 1.2257 -0.9251008
v -0.6551 1.1264 -1.028001
v -0.6171 1.1802 -1.124501
v -0.701 1.0638 -0.8653008
v -0.614 1.2257 -0.9251008
v -0.7357 1.0224 -0.5184998
v -0.7097 1.0469 -0.7708998
v -0.6028 1.2844 -0.5232008
v -0.701 1.0638 -0.8653008
v -0.5978 1.3001 -0.2329008
v -0.7374 1.0147 -0.4249998
v -0.5978 1.2883 -0.4394008
v -0.7603 0.9603 0.2294001
v -0.6926 1.1 0.5789992
v -0.7603 0.9603 0.2294001
v -0.6553 1.1774 0.4121992
v -0.768 0.9338999 0.5859002
v -0.7603 0.9603 0.2294001
v -0.624 1.2492 0.2065992
v -0.6553 1.1774 0.4121992
v -0.6047 1.2879 -0.00420079
v -0.624 1.2492 0.2065992
v -0.6047 1.2879 -0.00420079
v -0.7603 0.9603 0.2294001
v -0.5978 1.3001 -0.2329008
v -0.4733 1.226899 -1.445601
v -0.574 1.125099 -1.438701
v -0.5762 1.110499 -1.4997
v -0.5543 1.083999 -1.6013
v -0.5762 1.110499 -1.4997
v -0.3848 1.249299 -1.480301
v -0.5232 1.058199 -1.6944
v -0.3848 1.249299 -1.480301
v -0.5543 1.083999 -1.6013
v -0.4069 1.017299 -1.842301
v -0.4657 1.035299 -1.777501
v -0.249 1.263899 -1.504801
v -0.3848 1.249299 -1.480301
v -0.5232 1.058199 -1.6944
v -0.4657 1.035299 -1.777501
v -0.1072 1.268299 -1.516001
v 0 0.9846993 -1.960701
v 0 1.271399 -1.511501
v -0.1365 0.9876993 -1.9488
v -0.1365 0.9876993 -1.9488
v -0.249 1.263899 -1.504801
v -0.2823 0.9968993 -1.911801
v -0.1072 1.268299 -1.516001
v -0.249 1.263899 -1.504801
v -0.4069 1.017299 -1.842301
v -0.2823 0.9968993 -1.911801
v -0.574 1.125099 -1.438701
v -0.4733 1.226899 -1.445601
v -0.5274 1.191199 -1.379901
vt 1 1
vt 0 0
vt 0 1
vt 1 0
vt 1 1
vt 0 0
vt 0 1
vt 0 0
vt 1 0
vt 1 1
vt 0 0
vt 0 1
vt 1 0
vt 1 1
vt 0 0
vt 0 1
vt 1 0
vt 1 1
vt 0 1
vt 1 0
vt 1 1
vt 0 0
vt 0 1
vt 1 1
vt 1 0
vt 1 1
vt 0 0
vt 0 1
vt 1 0
vt 1 1
vt 0 0
vt 0 1
vt 0 0
vt 1 1
vt 1 0
vt 0 0
vt 1 1
vt 1 1
vt 0 1
vt 1 1
vt 0 0
vt 0 1
vt 1 1
vt 1 0
vt 1 1
vt 0 0.253
vt 0 1
vt 0.2903 0
vt 1 0
vt 0 0
vt 1 1
vt 0 0
vt 0 1
vt 1 0
vt 0 0
vt 0 1
vt 1 0
vt 0 0
vt 1 1
vt 0 0
vt 0 1
vt 0.7491 0
vt 1 0
vt 1 1
vt 0 0
vt 0 1
vt 1 0
vt 1 1
vt 0 0
vt 0 1
vt 1 0
vt 0 0.5
vt 1 1
vt 1 0
vt 1 1
vt 1 0
vt 0 0
vt 1 1
vt 1 0
vt 0 0
vt 0 1
vt 1 0
vt 1 1
vt 0 1
vt 1 0
vt 0.9999 0.9999
vt 0 0
vt 0 1.0001
vt 0 0
vt 0.9999 0.9999
vt 1 0.0001
vt 1 0.9999
vt 0 1
vt 1 0.0001
vt 1 1
vt 0 -0.0003
vt 0 1.0003
vt 1 0
vt 1 0.9999
vt 0 0
vt 0 1
vt 1 0.0002
vt 0 0.5
vt 1 1
vt 1 0
vt 0 0
vt 0.4723 0.4601
vt 1 0
vt 1 1
vt 0 0
vt 1 0
vt 0 1
vt 1 1
vt 0 0
vt 1 0
vt 0 0
vt 0 1
vt 1 1
vt 0 0
vt 1 0
vt 0 1
vt 1 1
vt 0 0
vt 1 0
vt 0 1
vt 1 1
vt 1 0
vt 0 1
vt 1 1
vt 0 0
vt 1 0
vt 1 1
vt 0 1
vt 1 1
vt 0 0
vt 1 0
vt 0 1
vt 1 1
vt 0 0
vt 1 0
vt 1 1
vt 0 0
vt 1 1
vt 0 1
vt 0 0
vt 1 1
vt 0 1
vt 1 1
vt 0 0
vt 1 0
vt 1 1
vt 0 1
vt 1 1
vt 0 1
vt 0 0.253
vt 0.2903 0
vt 1 0
vt 0 0
vt 1 1
vt 0 0
vt 1 0
vt 0 1
vt 0 0
vt 1 0
vt 0 1
vt 0 0
vt 1 1
vt 0 0
vt 0.7491 0
vt 0 1
vt 1 0
vt 1 1
vt 0 0
vt 1 0
vt 0 1
vt 1 1
vt 0 0
vt 1 0
vt 0 1
vt 0 0.5
vt 1 0
vt 1 1
vt 1 0
vt 1 1
vt 0 0
vt 1 0
vt 1 1
vt 0 0
vt 1 0
vt 0 1
vt 1 1
vt 1 0
vt 0 1
vt 0.9999 0.9999
vt 0 0
vt 1 0.0001
vt 1 0.9999
vt 1 0.0001
vt 0 1
vt 0 0
vt 0.9999 0.9999
vt 0 1.0001
vt 1 1
vt 0 -0.0003
vt 1 0
vt 0 1.0003
vt 1 0.9999
vt 0 0
vt 1 0.0002
vt 0 1
vt 0 0.5
vt 1 0
vt 1 1
vt 0 0
vt 1 0
vt 0.4723 0.4601
vn 0.1507342 0.9419334 0.3000678
vn 0.110792 0.927972 0.3557994
vn 0.1035451 0.9436457 0.3143427
vn 0.1506218 0.918471 0.3656832
vn 0.1035451 0.9436457 0.3143427
vn 0.0359715 0.9327778 0.3586525
vn 0.03355479 0.9446828 0.3262646
vn 0.0359715 0.9327778 0.3586525
vn 0.110792 0.927972 0.3557994
vn 0.0359715 0.9327778 0.3586525
vn 0 0.9465029 0.3226953
vn 0.03355479 0.9446828 0.3262646
vn 0 0.9345773 0.3557599
vn 0.110792 0.927972 0.3557994
vn 0.1858223 0.8927327 0.4104856
vn 0.1264659 0.905072 0.4060185
vn 0.1506218 0.918471 0.3656832
vn 0.1346806 0.8733185 0.4681623
vn 0.2060555 0.863072 0.4611375
vn 0.1264659 0.905072 0.4060185
vn 0.1264659 0.905072 0.4060185
vn 0.0359715 0.9327778 0.3586525
vn 0.110792 0.927972 0.3557994
vn 0.1264659 0.905072 0.4060185
vn 0.03968897 0.9087501 0.4154494
vn 0 0.9345773 0.3557599
vn 0.03968897 0.9087501 0.4154494
vn 0 0.9085454 0.4177861
vn 0.0359715 0.9327778 0.3586525
vn 0.1264659 0.905072 0.4060185
vn 0.04145246 0.8821873 0.4690707
vn 0.03968897 0.9087501 0.4154494
vn 0.04145246 0.8821873 0.4690707
vn 0.1264659 0.905072 0.4060185
vn 0.1346806 0.8733185 0.4681623
vn 0.1119672 0.8545592 0.5071411
vn 0.04145246 0.8821873 0.4690707
vn 0.04145246 0.8821873 0.4690707
vn 0.05792828 0.8718475 0.4863397
vn 0.04145246 0.8821873 0.4690707
vn 0 0.9085454 0.4177861
vn 0.03968897 0.9087501 0.4154494
vn 0.04145246 0.8821873 0.4690707
vn 0 0.883903 0.4676703
vn 0.1346806 0.8733185 0.4681623
vn 0.1821809 0.8356815 0.5181183
vn 0.1119672 0.8545592 0.5071411
vn 0.2219849 0.8286676 0.5138411
vn 0.2060555 0.863072 0.4611375
vn 0.3432247 0.6765285 0.6515412
vn 0.05792828 0.8718475 0.4863397
vn 0 0.883903 0.4676703
vn 0.04145246 0.8821873 0.4690707
vn 0 0.8750752 0.4839871
vn 0.8892184 0.4535228 -0.06006402
vn 0.8826673 0.461011 -0.09147308
vn 0.8857083 0.4562674 -0.08567771
vn 0.8836377 0.4677813 -0.01910683
vn 0.8892184 0.4535228 -0.06006402
vn 0.8932243 0.4474691 -0.04383732
vn 0.8913626 0.4514045 -0.04131205
vn 0.8941964 0.446084 -0.03770823
vn 0.8836377 0.4677813 -0.01910683
vn 0.898005 0.4399319 -0.006852816
vn 0.896775 0.4424507 -0.005650699
vn 0.903775 0.4279881 0.004131557
vn 0.8911355 0.4530228 -0.02545525
vn 0.9061446 0.4229184 0.006476543
vn 0.903775 0.4279881 0.004131557
vn 0.9101455 0.4141491 0.01075552
vn 0.9020942 0.4315079 0.005192909
vn 0.903775 0.4279881 0.004131557
vn 0.9020942 0.4315079 0.005192909
vn 0.9043543 0.42678 0.001456244
vn 0.9043543 0.42678 0.001456244
vn 0.9045302 0.4263853 -0.004542468
vn 0.9045302 0.4263853 -0.004542468
vn 0.898005 0.4399319 -0.006852816
vn 0.903775 0.4279881 0.004131557
vn 0.5421991 0.7496823 -0.3794688
vn 0.6611719 0.704443 -0.2580925
vn 0.7071966 0.6887227 -0.1597937
vn 0.5156423 0.7665513 -0.382769
vn 0.2984312 0.8115405 -0.5023354
vn 0.6611719 0.704443 -0.2580925
vn 0.4069904 0.7962404 -0.447616
vn 0.2984312 0.8115405 -0.5023354
vn 0.3227167 0.8076143 -0.4935718
vn 0.2984312 0.8115405 -0.5023354
vn 0.4069904 0.7962404 -0.447616
vn 0.5156423 0.7665513 -0.382769
vn 0.2048938 0.8272216 -0.5231853
vn 0.1257649 0.8368272 -0.5328259
vn 0.3227167 0.8076143 -0.4935718
vn 0.03617525 0.8413171 -0.5393301
vn 1.021228E-05 0.8403735 -0.5420078
vn 0.0533291 0.8386405 -0.5420685
vn 0 0.8429423 -0.538004
vn 0.0533291 0.8386405 -0.5420685
vn 0.1257649 0.8368272 -0.5328259
vn 0.03617525 0.8413171 -0.5393301
vn 0.1147473 0.8348935 -0.5383177
vn 0.1257649 0.8368272 -0.5328259
vn 0.1147473 0.8348935 -0.5383177
vn 0.2048938 0.8272216 -0.5231853
vn 0.7071966 0.6887227 -0.1597937
vn 0.7023426 0.6806182 -0.2085037
vn 0.5421991 0.7496823 -0.3794688
vn -0.1539824 0.9423237 0.2971793
vn -0.1114677 0.9282258 0.3549251
vn -0.150494 0.91937 0.3634699
vn -0.1062965 0.9435277 0.313778
vn -0.1062965 0.9435277 0.313778
vn -0.03597844 0.9327751 0.3586589
vn -0.1114677 0.9282258 0.3549251
vn -0.03597844 0.9327751 0.3586589
vn -0.03352946 0.9446885 0.3262505
vn -0.03597844 0.9327751 0.3586589
vn 0 0.9465029 0.3226953
vn 0 0.9345773 0.3557599
vn -0.03352946 0.9446885 0.3262505
vn -0.1114677 0.9282258 0.3549251
vn -0.1857787 0.8927559 0.4104549
vn -0.150494 0.91937 0.3634699
vn -0.1264081 0.9050857 0.4060059
vn -0.1346668 0.8733295 0.4681458
vn -0.1264081 0.9050857 0.4060059
vn -0.2060553 0.8630722 0.4611372
vn -0.1264081 0.9050857 0.4060059
vn -0.03597844 0.9327751 0.3586589
vn -0.03968375 0.9087458 0.415459
vn -0.1264081 0.9050857 0.4060059
vn -0.1114677 0.9282258 0.3549251
vn 0 0.9345773 0.3557599
vn -0.03968375 0.9087458 0.415459
vn -0.03597844 0.9327751 0.3586589
vn 0 0.9085454 0.4177861
vn -0.1264081 0.9050857 0.4060059
vn -0.04144228 0.88219 0.4690665
vn -0.1346668 0.8733295 0.4681458
vn -0.04144228 0.88219 0.4690665
vn -0.1119415 0.8545609 0.5071436
vn -0.04144228 0.88219 0.4690665
vn -0.05790684 0.8718487 0.4863401
vn -0.04144228 0.88219 0.4690665
vn -0.1264081 0.9050857 0.4060059
vn -0.03968375 0.9087458 0.415459
vn -0.04144228 0.88219 0.4690665
vn 0 0.9085454 0.4177861
vn 0 0.883903 0.4676703
vn -0.04144228 0.88219 0.4690665
vn -0.03968375 0.9087458 0.415459
vn -0.1346668 0.8733295 0.4681458
vn -0.1119415 0.8545609 0.5071436
vn -0.1821807 0.8356815 0.5181183
vn -0.2219846 0.8286673 0.5138417
vn -0.2060553 0.8630722 0.4611372
vn -0.3432229 0.6765254 0.6515454
vn -0.05790684 0.8718487 0.4863401
vn 0 0.883903 0.4676703
vn 0 0.8750752 0.4839871
vn -0.04144228 0.88219 0.4690665
vn -0.8893212 0.45331 -0.06014803
vn -0.8860127 0.4556493 -0.08582
vn -0.8831623 0.4601045 -0.09125889
vn -0.8836617 0.4677286 -0.01928414
vn -0.8893212 0.45331 -0.06014803
vn -0.8931964 0.4475511 -0.04356848
vn -0.8941031 0.4462964 -0.03740513
vn -0.8913692 0.4514117 -0.04109123
vn -0.8836617 0.4677286 -0.01928414
vn -0.8979656 0.4400101 -0.006997609
vn -0.8967331 0.4425337 -0.005804806
vn -0.8910034 0.4532572 -0.02590014
vn -0.9037654 0.4280074 0.004229187
vn -0.9061604 0.4228843 0.006493624
vn -0.9037654 0.4280074 0.004229187
vn -0.9019482 0.4318124 0.005240993
vn -0.9103464 0.4137016 0.01097374
vn -0.9037654 0.4280074 0.004229187
vn -0.9043489 0.4267909 0.001629197
vn -0.9019482 0.4318124 0.005240993
vn -0.9045303 0.4263852 -0.004542348
vn -0.9043489 0.4267909 0.001629197
vn -0.9045303 0.4263852 -0.004542348
vn -0.9037654 0.4280074 0.004229187
vn -0.8979656 0.4400101 -0.006997609
vn -0.5421975 0.7496172 -0.3795998
vn -0.7071967 0.6887227 -0.1597933
vn -0.6610084 0.704465 -0.2584511
vn -0.5158691 0.7664553 -0.3826557
vn -0.6610084 0.704465 -0.2584511
vn -0.2984123 0.8115065 -0.5024016
vn -0.4069073 0.7962487 -0.4476768
vn -0.2984123 0.8115065 -0.5024016
vn -0.5158691 0.7664553 -0.3826557
vn -0.2048903 0.8272089 -0.5232069
vn -0.3226749 0.8075749 -0.4936636
vn -0.1257358 0.8368204 -0.5328434
vn -0.2984123 0.8115065 -0.5024016
vn -0.4069073 0.7962487 -0.4476768
vn -0.3226749 0.8075749 -0.4936636
vn -0.03619841 0.8413168 -0.5393289
vn 1.021228E-05 0.8403735 -0.5420078
vn 0 0.8429423 -0.538004
vn -0.05334312 0.8386403 -0.5420673
vn -0.05334312 0.8386403 -0.5420673
vn -0.1257358 0.8368204 -0.5328434
vn -0.1147797 0.8348916 -0.5383136
vn -0.03619841 0.8413168 -0.5393289
vn -0.1257358 0.8368204 -0.5328434
vn -0.2048903 0.8272089 -0.5232069
vn -0.1147797 0.8348916 -0.5383136
vn -0.7071967 0.6887227 -0.1597933
vn -0.5421975 0.7496172 -0.3795998
vn -0.7023428 0.6806184 -0.2085021
g Glass_48_0
f 3/3/3 2/2/2 1/1/1
f 1/1/1 2/2/2 4/4/4
f 7/7/7 6/6/6 5/5/5
f 9/9/9 5/5/5 8/8/8
f 12/12/12 11/11/11 10/10/10
f 13/13/13 10/10/10 11/11/11
f 16/16/16 15/15/15 14/14/14
f 17/17/17 14/14/14 15/15/15
f 19/19/19 15/15/15 18/18/18
f 20/20/20 18/18/18 15/15/15
f 23/23/23 22/22/22 21/21/21
f 25/25/25 24/24/24 22/22/22
f 28/28/28 27/27/27 26/26/26
f 29/29/29 26/26/26 27/27/27
f 32/32/32 31/31/31 30/30/30
f 35/35/35 34/34/34 33/33/33
f 35/35/35 37/37/37 36/36/36
f 39/39/39 36/36/36 38/38/38
f 42/42/42 41/41/41 40/40/40
f 44/44/44 43/43/43 41/41/41
f 47/47/47 46/46/46 45/45/45
f 45/45/45 46/46/46 48/48/48
f 49/49/49 45/45/45 48/48/48
f 50/50/50 48/48/48 46/46/46
f 53/53/53 52/52/52 51/51/51
f 54/54/54 51/51/51 52/52/52
f 57/57/57 56/56/56 55/55/55
f 57/57/57 59/59/59 58/58/58
f 61/61/61 60/60/60 59/59/59
f 62/62/62 59/59/59 60/60/60
f 62/62/62 63/63/63 59/59/59
f 66/66/66 65/65/65 64/64/64
f 67/67/67 64/64/64 65/65/65
f 70/70/70 69/69/69 68/68/68
f 71/71/71 68/68/68 69/69/69
f 74/74/74 73/73/73 72/72/72
f 76/76/76 75/75/75 72/72/72
f 79/79/79 78/78/78 77/77/77
f 82/82/82 81/81/81 80/80/80
f 84/84/84 80/80/80 83/83/83
f 85/85/85 83/83/83 80/80/80
f 88/88/88 87/87/87 86/86/86
f 91/91/91 90/90/90 89/89/89
f 93/93/93 89/89/89 92/92/92
f 94/94/94 92/92/92 89/89/89
f 97/97/97 96/96/96 95/95/95
f 98/98/98 95/95/95 96/96/96
f 101/101/101 100/100/100 99/99/99
f 102/102/102 99/99/99 100/100/100
f 105/105/105 104/104/104 103/103/103
f 108/108/108 107/107/107 106/106/106
f 111/111/111 110/110/110 109/109/109
f 112/112/112 109/109/109 110/110/110
f 115/115/115 114/114/114 113/113/113
f 117/117/117 113/113/113 116/116/116
f 120/120/120 119/119/119 118/118/118
f 121/121/121 118/118/118 119/119/119
f 124/124/124 123/123/123 122/122/122
f 125/125/125 122/122/122 123/123/123
f 127/127/127 123/123/123 126/126/126
f 128/128/128 126/126/126 123/123/123
f 131/131/131 130/130/130 129/129/129
f 133/133/133 132/132/132 130/130/130
f 136/136/136 135/135/135 134/134/134
f 137/137/137 134/134/134 135/135/135
f 140/140/140 139/139/139 138/138/138
f 140/140/140 142/142/142 141/141/141
f 144/144/144 143/143/143 142/142/142
f 147/147/147 146/146/146 145/145/145
f 150/150/150 149/149/149 148/148/148
f 152/152/152 151/151/151 149/149/149
f 155/155/155 154/154/154 153/153/153
f 153/153/153 156/156/156 155/155/155
f 153/153/153 157/157/157 156/156/156
f 158/158/158 155/155/155 156/156/156
f 161/161/161 160/160/160 159/159/159
f 162/162/162 159/159/159 160/160/160
f 165/165/165 164/164/164 163/163/163
f 167/167/167 164/164/164 166/166/166
f 169/169/169 168/168/168 167/167/167
f 170/170/170 167/167/167 168/168/168
f 171/171/171 169/169/169 167/167/167
f 174/174/174 173/173/173 172/172/172
f 175/175/175 172/172/172 173/173/173
f 178/178/178 177/177/177 176/176/176
f 179/179/179 176/176/176 177/177/177
f 182/182/182 181/181/181 180/180/180
f 184/184/184 183/183/183 180/180/180
f 187/187/187 186/186/186 185/185/185
f 190/190/190 189/189/189 188/188/188
f 192/192/192 188/188/188 191/191/191
f 193/193/193 191/191/191 188/188/188
f 196/196/196 195/195/195 194/194/194
f 198/198/198 195/195/195 197/197/197
f 199/199/199 197/197/197 195/195/195
f 202/202/202 201/201/201 200/200/200
f 205/205/205 204/204/204 203/203/203
f 206/206/206 203/203/203 204/204/204
f 209/209/209 208/208/208 207/207/207
f 210/210/210 207/207/207 208/208/208
f 213/213/213 212/212/212 211/211/211
f 216/216/216 215/215/215 214/214/214
