g ref_48
v 0.56145 0.7284007 1.9573
v 0.39845 0.6220006 2.0266
v 0.42185 0.7046006 2.0153
v 0.55955 0.6231007 1.9665
v 0.55955 0.6231007 1.9665
v 0.65655 0.7463007 1.8931
v 0.67115 0.6270007 1.9015
v 0.56145 0.7284007 1.9573
v 0.70735 0.7593007 1.8376
v 0.67115 0.6270007 1.9015
v 0.65655 0.7463007 1.8931
v 0.71755 0.6795007 1.8439
v 0.71755 0.6795007 1.8439
v 0.75895 0.7789007 1.7241
v 0.77405 0.7337007 1.711
v 0.70735 0.7593007 1.8376
v 0.81015 0.8025008 1.5373
v 0.75895 0.7789007 1.7241
v 0.77405 0.7337007 1.711
v 0.80555 0.7693008 1.5753
v -0.56145 0.7152007 1.9511
v -0.39845 0.6220006 2.0266
v -0.55945 0.6231007 1.9665
v -0.42175 0.6886007 2.0078
v -0.55945 0.6231007 1.9665
v -0.65645 0.7363007 1.8878
v -0.56145 0.7152007 1.9511
v -0.67105 0.6270007 1.9015
v -0.70725 0.7519007 1.833
v -0.67105 0.6270007 1.9015
v -0.71755 0.6813007 1.8439
v -0.65645 0.7363007 1.8878
v -0.71755 0.6813007 1.8439
v -0.75895 0.7770007 1.7205
v -0.70725 0.7519007 1.833
v -0.75895 0.7770007 1.7205
v -0.77395 0.7337007 1.711
v -0.81015 0.8097008 1.5351
v -0.77395 0.7337007 1.711
v -0.80545 0.7693008 1.5753
v -0.75895 0.7770007 1.7205
vt 1 1
vt 0 0
vt 0 1
vt 1 0
vt 1 1
vt 0 0
vt 0 1
vt 1 0
vt 1 1
vt 0 0
vt 0 1
vt 1 0
vt 1 1
vt 0 0
vt 0 1
vt 1 0
vt 1.0001 -0.0001
vt 1 1
vt 0 1
vt 0.6211 0
vt 1 1
vt 0 0
vt 1 0
vt 0 1
vt 1 1
vt 0 0
vt 1 0
vt 0 1
vt 1 1
vt 0 0
vt 1 0
vt 0 1
vt 1 1
vt 0 0
vt 1 0
vt 0 0
vt 0 1
vt 1.0001 -0.0001
vt 0 1
vt 0.6211 0
vt 1 1
vn 0.4695465 0.06168687 0.8807502
vn 0.3671547 0.04272034 0.9291784
vn 0.3809079 0.01855442 0.9244268
vn 0.4335073 0.08427985 0.8972003
vn 0.4335073 0.08427985 0.8972003
vn 0.629665 0.1183662 0.7677965
vn 0.5845547 0.1297301 0.8009157
vn 0.4695465 0.06168687 0.8807502
vn 0.8194544 0.1456797 0.5543212
vn 0.5845547 0.1297301 0.8009157
vn 0.629665 0.1183662 0.7677965
vn 0.7774996 0.149358 0.61089
vn 0.7774996 0.149358 0.61089
vn 0.9076071 0.1906879 0.3740153
vn 0.9113641 0.1971741 0.3613001
vn 0.8194544 0.1456797 0.5543212
vn 0.9416787 0.196179 0.2734137
vn 0.9076071 0.1906879 0.3740153
vn 0.9113641 0.1971741 0.3613001
vn 0.9486035 0.1723528 0.2654163
vn -0.4561119 0.1363566 0.8794139
vn -0.3476802 0.1426386 0.9266999
vn -0.4239418 0.1496202 0.8932453
vn -0.3495308 0.1392542 0.9265185
vn -0.4239418 0.1496202 0.8932453
vn -0.6155373 0.1703705 0.7694724
vn -0.4561119 0.1363566 0.8794139
vn -0.5656282 0.181158 0.8045164
vn -0.8022587 0.1964816 0.5637162
vn -0.5656282 0.181158 0.8045164
vn -0.7404404 0.2073167 0.6393495
vn -0.6155373 0.1703705 0.7694724
vn -0.7404404 0.2073167 0.6393495
vn -0.8966804 0.2258547 0.3807283
vn -0.8022587 0.1964816 0.5637162
vn -0.8966804 0.2258547 0.3807283
vn -0.9002569 0.2239747 0.3733265
vn -0.9426838 0.1884078 0.2754084
vn -0.9002569 0.2239747 0.3733265
vn -0.9541112 0.1480217 0.2603101
vn -0.8966804 0.2258547 0.3807283
g ref_48_0
f 3/3/3 2/2/2 1/1/1
f 4/4/4 1/1/1 2/2/2
f 7/7/7 6/6/6 5/5/5
f 8/8/8 5/5/5 6/6/6
f 11/11/11 10/10/10 9/9/9
f 12/12/12 9/9/9 10/10/10
f 15/15/15 14/14/14 13/13/13
f 16/16/16 13/13/13 14/14/14
f 18/18/18 15/15/15 17/17/17
f 20/20/20 17/17/17 19/19/19
f 23/23/23 22/22/22 21/21/21
f 24/24/24 21/21/21 22/22/22
f 27/27/27 26/26/26 25/25/25
f 28/28/28 25/25/25 26/26/26
f 31/31/31 30/30/30 29/29/29
f 32/32/32 29/29/29 30/30/30
f 35/35/35 34/34/34 33/33/33
f 37/37/37 33/33/33 36/36/36
f 40/40/40 39/39/39 38/38/38
f 41/41/41 38/38/38 39/39/39
