g model_car_92_matte_detail_LOD1
v 0.6343126 0.9083899 1.885784
v 0.6081481 0.9091042 1.893213
v 0.6378395 0.9089698 1.877985
v 0.627667 0.9078721 1.894983
v 0.6523554 0.917425 1.787119
v 0.6340213 0.9177609 1.791754
v 0.6512254 0.9179999 1.781181
v 0.6481714 0.9185774 1.776339
v 0.6436638 0.9191125 1.772939
v 0.6389247 0.9193987 1.772531
v 0.6524923 0.9183907 1.780155
v 0.6492839 0.9189931 1.775075
v 0.6445598 0.9195555 1.771508
v 0.6395893 0.9198567 1.77108
v 0.4825851 0.9232617 1.823864
v 0.4827319 0.9235852 1.822488
v 0.628563 0.908146 1.895282
v 0.4801508 0.9215218 1.840929
v 0.4805765 0.9235603 1.82478
v 0.4775001 0.9220296 1.841332
v 0.4815721 0.9235802 1.823464
v 0.4673076 0.9123897 1.934319
v 0.4646219 0.9128725 1.934961
v 0.4657221 0.9103163 1.953791
v 0.6021197 0.9070881 1.916851
v 0.6130041 0.907235 1.909691
v 0.4620856 0.9110754 1.9523
v 0.4638429 0.9107022 1.954542
v 0.6021546 0.907337 1.917892
v 0.6134049 0.9074913 1.910487
v 0.4659735 0.9103711 1.956233
v 0.6354426 0.9086835 1.885759
v 0.6390989 0.9092833 1.877679
v 0.6536795 0.9177858 1.786412
v -0.6343127 0.9083899 1.885784
v -0.6378396 0.9089698 1.877985
v -0.6081482 0.9091042 1.893213
v -0.627667 0.9078721 1.894983
v -0.6523555 0.917425 1.787119
v -0.6340215 0.9177609 1.791754
v -0.6512255 0.9179999 1.781181
v -0.6481715 0.9185774 1.776339
v -0.6436638 0.9191125 1.772939
v -0.6389248 0.9193987 1.772531
v -0.6524923 0.9183907 1.780155
v -0.6492841 0.9189931 1.775075
v -0.6445599 0.9195555 1.771508
v -0.6395894 0.9198567 1.77108
v -0.4825851 0.9232617 1.823864
v -0.482732 0.9235852 1.822488
v -0.6285631 0.908146 1.895282
v -0.4801509 0.9215218 1.840929
v -0.4805766 0.9235603 1.82478
v -0.4775001 0.9220296 1.841332
v -0.4815722 0.9235802 1.823464
v -0.4673076 0.9123897 1.934319
v -0.464622 0.9128725 1.934961
v -0.4661776 0.9102492 1.954152
v -0.6021199 0.9070881 1.916851
v -0.6130043 0.907235 1.909691
v -0.4620857 0.9110754 1.9523
v -0.4638429 0.9107022 1.954542
v -0.6021547 0.907337 1.917892
v -0.6134049 0.9074913 1.910487
v -0.4659736 0.9103711 1.956233
v -0.6354427 0.9086835 1.885759
v -0.6390991 0.9092833 1.877679
v -0.6536797 0.9177858 1.786412
vt 2.448656 0.3982123
vt 2.385784 0.3978182
vt 2.46133 0.4134066
vt 2.428172 0.3818254
vt 2.549757 0.6068763
vt 2.506052 0.607872
vt 2.550909 0.6208052
vt 2.547091 0.6334688
vt 2.539147 0.6438299
vt 2.528838 0.6476674
vt 2.554362 0.6223091
vt 2.550348 0.6356053
vt 2.54203 0.6464643
vt 2.531213 0.6504884
vt 2.148868 0.6298181
vt 2.15005 0.6327842
vt 2.429987 0.3806015
vt 2.132916 0.5933
vt 2.143827 0.6290194
vt 2.126766 0.5940364
vt 2.146866 0.6313323
vt 2.046657 0.3931821
vt 2.040278 0.3934103
vt 2.0311 0.3507835
vt 2.35776 0.3488751
vt 2.386427 0.3581161
vt 2.023922 0.356353
vt 2.026453 0.3502649
vt 2.3572 0.3465415
vt 2.386831 0.3560937
vt 2.030156 0.3451829
vt 2.451187 0.3975693
vt 2.464317 0.4133132
vt 2.553138 0.6076334
vt 2.880027 0.3982123
vt 2.892701 0.4134066
vt 2.817144 0.3978182
vt 2.859543 0.3818254
vt 2.981118 0.6068763
vt 2.937412 0.607872
vt 2.982269 0.6208052
vt 2.978452 0.6334688
vt 2.970518 0.6438299
vt 2.960209 0.6476674
vt 2.985723 0.6223091
vt 2.981719 0.6356053
vt 2.973391 0.6464643
vt 2.962584 0.6504884
vt 2.580239 0.6298181
vt 2.581411 0.6327842
vt 2.861348 0.3806015
vt 2.564288 0.5933
vt 2.575198 0.6290194
vt 2.558127 0.5940364
vt 2.578227 0.6313323
vt 2.478017 0.3931821
vt 2.471639 0.3934103
vt 2.463249 0.3496945
vt 2.789131 0.3488751
vt 2.817798 0.3581161
vt 2.455283 0.356353
vt 2.457814 0.3502649
vt 2.788561 0.3465415
vt 2.818202 0.3560937
vt 2.461527 0.3451829
vt 2.882557 0.3975693
vt 2.895688 0.4133132
vt 2.984509 0.6076334
vn 0.01971975 0.9967861 0.07764401
vn 0.05519348 0.9931165 0.1033116
vn 0.04173793 0.9943397 0.09770598
vn 0.01605006 0.9980093 0.06099022
vn 0.02461268 0.9955629 0.09082261
vn 0.05519348 0.9931165 0.1033116
vn 0.04296117 0.9943397 0.09717441
vn 0.04296117 0.9943397 0.09717441
vn 0.03439854 0.99067 0.1318703
vn 0.0674258 0.9882236 0.1373607
vn -0.1576489 0.9723215 0.1724463
vn -0.1026035 0.9674286 0.2314184
vn -0.03654891 0.9613124 0.273025
vn 0.1139086 0.9478569 0.2976443
vn 0.06253287 0.9918932 0.1106235
vn 0.1200248 0.9478569 0.2952309
vn -0.2420519 0.9576427 -0.155985
vn 0.05519348 0.9931165 0.1033116
vn 0.2044278 0.9710983 0.1231965
vn 0.2044278 0.9710983 0.1231965
vn 0.2178833 0.9539731 0.2060638
vn 0.05030055 0.9931165 0.1057802
vn 0.1885258 0.9747679 0.1195222
vn -0.001075178 0.9967861 0.08010194
vn 0.06008641 0.9894468 0.1318513
vn 0.01971975 0.9980093 0.05990457
vn 0.173847 0.9747679 0.1400169
vn 0.1909722 0.9808841 -0.03736309
vn -0.01942366 0.99067 -0.1348916
vn -0.1992388 0.9576427 -0.2079048
vn -0.0695762 0.9821074 -0.1749977
vn -0.253061 0.9649822 -0.06906202
vn -0.2334893 0.9710983 0.0495058
vn -0.2273731 0.9710983 0.07259151
vn -0.0206469 0.9967861 0.07740259
vn -0.04144186 0.9943397 0.09783188
vn -0.0548974 0.9931165 0.1034693
vn -0.01575398 0.9980093 0.06106737
vn -0.02431661 0.9955629 0.09090231
vn -0.0548974 0.9931165 0.1034693
vn -0.04266509 0.9943397 0.09730466
vn -0.04266509 0.9943397 0.09730466
vn -0.03532571 0.99067 0.1316251
vn -0.06712973 0.9882236 0.1375056
vn 0.157945 0.9723215 0.1721751
vn 0.1028995 0.9674286 0.231287
vn 0.03562178 0.9613124 0.2731474
vn -0.1136125 0.9478569 0.2977574
vn -0.06223679 0.9918932 0.1107904
vn -0.1197287 0.9478569 0.2953511
vn 0.242348 0.9576427 -0.1555247
vn -0.0548974 0.9931165 0.1034693
vn -0.2041317 0.9710983 0.1236863
vn -0.2041317 0.9710983 0.1236863
vn -0.2175873 0.9539731 0.2063764
vn -0.05000448 0.9931165 0.1059205
vn -0.1833368 0.9759912 0.1175955
vn -0.05612063 0.99067 0.1241915
vn -0.05856711 0.99067 0.1230566
vn -0.01942366 0.9980093 0.060001
vn -0.1662115 0.9759912 0.140765
vn -0.1857832 0.9821074 -0.03081689
vn 0.02461268 0.9882236 -0.1510246
vn 0.1983116 0.9576427 -0.2087893
vn 0.05886318 0.9808841 -0.1854765
vn 0.2533571 0.9649822 -0.06796806
vn 0.2337854 0.9710983 0.04808827
vn 0.2276692 0.9710983 0.07165767
g model_car_92_matte_detail_LOD1_0
f 3/3/3 2/2/2 1/1/1
f 4/4/4 1/1/1 2/2/2
f 3/3/3 5/5/5 2/2/2
f 5/5/5 6/6/6 2/2/2
f 7/7/7 6/6/6 5/5/5
f 6/6/6 7/7/7 8/8/8
f 8/8/8 9/9/9 6/6/6
f 6/6/6 9/9/9 10/10/10
f 7/7/7 11/11/11 8/8/8
f 11/11/11 12/12/12 8/8/8
f 8/8/8 12/12/12 9/9/9
f 9/9/9 13/13/13 10/10/10
f 12/12/12 13/13/13 9/9/9
f 13/13/13 14/14/14 10/10/10
f 15/15/15 10/10/10 14/14/14
f 16/16/16 15/15/15 14/14/14
f 4/4/4 17/17/17 1/1/1
f 10/10/10 15/15/15 18/18/18
f 6/6/6 10/10/10 18/18/18
f 15/15/15 19/19/19 18/18/18
f 19/19/19 20/20/20 18/18/18
f 21/21/21 19/19/19 15/15/15
f 21/21/21 15/15/15 16/16/16
f 18/18/18 20/20/20 22/22/22
f 20/20/20 23/23/23 22/22/22
f 24/24/24 22/22/22 23/23/23
f 22/22/22 24/24/24 2/2/2
f 18/18/18 22/22/22 2/2/2
f 24/24/24 25/25/25 2/2/2
f 26/26/26 2/2/2 25/25/25
f 27/27/27 24/24/24 23/23/23
f 28/28/28 24/24/24 27/27/27
f 4/4/4 2/2/2 26/26/26
f 25/25/25 29/29/29 26/26/26
f 29/29/29 30/30/30 26/26/26
f 30/30/30 17/17/17 4/4/4
f 26/26/26 30/30/30 4/4/4
f 28/28/28 31/31/31 24/24/24
f 31/31/31 29/29/29 25/25/25
f 24/24/24 31/31/31 25/25/25
f 6/6/6 18/18/18 2/2/2
f 17/17/17 32/32/32 1/1/1
f 1/1/1 32/32/32 3/3/3
f 32/32/32 33/33/33 3/3/3
f 5/5/5 3/3/3 33/33/33
f 34/34/34 5/5/5 33/33/33
f 7/7/7 5/5/5 34/34/34
f 11/11/11 7/7/7 34/34/34
f 37/37/37 36/36/36 35/35/35
f 35/35/35 38/38/38 37/37/37
f 39/39/39 36/36/36 37/37/37
f 40/40/40 39/39/39 37/37/37
f 40/40/40 41/41/41 39/39/39
f 41/41/41 40/40/40 42/42/42
f 43/43/43 42/42/42 40/40/40
f 43/43/43 40/40/40 44/44/44
f 45/45/45 41/41/41 42/42/42
f 46/46/46 45/45/45 42/42/42
f 46/46/46 42/42/42 43/43/43
f 47/47/47 43/43/43 44/44/44
f 47/47/47 46/46/46 43/43/43
f 48/48/48 47/47/47 44/44/44
f 44/44/44 49/49/49 48/48/48
f 49/49/49 50/50/50 48/48/48
f 51/51/51 38/38/38 35/35/35
f 44/44/44 40/40/40 52/52/52
f 49/49/49 44/44/44 52/52/52
f 52/52/52 40/40/40 37/37/37
f 53/53/53 49/49/49 52/52/52
f 54/54/54 53/53/53 52/52/52
f 53/53/53 55/55/55 49/49/49
f 49/49/49 55/55/55 50/50/50
f 54/54/54 52/52/52 56/56/56
f 57/57/57 54/54/54 56/56/56
f 56/56/56 58/58/58 57/57/57
f 58/58/58 56/56/56 37/37/37
f 56/56/56 52/52/52 37/37/37
f 59/59/59 58/58/58 37/37/37
f 37/37/37 60/60/60 59/59/59
f 58/58/58 61/61/61 57/57/57
f 58/58/58 62/62/62 61/61/61
f 37/37/37 38/38/38 60/60/60
f 63/63/63 59/59/59 60/60/60
f 64/64/64 63/63/63 60/60/60
f 64/64/64 60/60/60 38/38/38
f 51/51/51 64/64/64 38/38/38
f 65/65/65 62/62/62 58/58/58
f 65/65/65 58/58/58 59/59/59
f 63/63/63 65/65/65 59/59/59
f 66/66/66 51/51/51 35/35/35
f 66/66/66 35/35/35 36/36/36
f 67/67/67 66/66/66 36/36/36
f 36/36/36 39/39/39 67/67/67
f 39/39/39 68/68/68 67/67/67
f 39/39/39 41/41/41 68/68/68
f 41/41/41 45/45/45 68/68/68
