g model_car_92_glass_LOD1
v 0.7782993 1.080791 -0.1092257
v 0.7878593 1.054214 0.1930768
v 0.6966003 1.237012 0.1071743
v 0.6927106 1.246575 -0.05726814
v 0.8044679 0.9948939 0.6338218
v 0.6968285 1.237428 0.1817248
v 0.8201233 0.9928621 0.221908
v 0.8101439 0.9803857 0.665692
v 0.8093078 0.9817554 0.6692592
v 0.8084146 0.98377 0.6680979
v 0.8183826 1.004183 -0.133234
v 0.7017998 1.229789 0.2699845
v 0.6972595 1.240453 0.2488413
v 0.6903392 1.254976 0.2053422
v 0.6843807 1.266468 0.163541
v 0.6776916 1.277178 0.08829987
v 0.6721753 1.288364 -0.04417241
v 0.6904562 1.251366 -0.1562151
v 0.7773062 1.08355 -0.1406138
v 0.6862327 1.25856 -0.4466804
v 0.6693872 1.292071 -0.159999
v 0.666973 1.294505 -0.4366639
v 0.7641563 1.113129 -0.4872146
v 0.7624012 1.123206 -0.5942546
v 0.6869604 1.259773 -0.5895717
v 0.6876881 1.259713 -0.6371517
v 0.668651 1.291874 -0.588473
v 0.6731798 1.283504 -0.6520709
v 0.75747 1.140485 -0.7855535
v 0.690987 1.252405 -0.7332306
v 0.7016485 1.235026 -0.7629064
v 0.678522 1.27292 -0.6877623
v 0.8096645 1.037126 -0.5972054
v 0.8142276 1.019676 -0.5132605
v 0.7933441 1.082945 -0.8191845
v 0.7526644 1.148101 -0.8805964
v 0.7793295 1.101691 -0.9288927
v 0.7776629 1.104174 -0.9302083
v 0.7712563 1.115837 -0.9205199
v 0.7255598 0.9454619 0.9911584
v 0.719313 0.9931103 0.8925368
v 0.7601097 0.9497622 0.9535178
v 0.7750518 0.9520282 0.9330281
v 0.6824715 0.9420117 1.025928
v 0.6584176 0.9871575 0.9594194
v 0.533362 0.9808735 1.029187
v 0.5665479 0.9391409 1.085377
v 0.5848402 1.26235 0.4295729
v 0.5234112 1.265503 0.4491493
v 0.5731885 1.308569 0.3373179
v 0.5010551 1.31558 0.3549739
v 0.5967116 1.305004 0.3328233
v 0.3700439 1.324866 0.377638
v 0.3798037 1.271516 0.4849776
v 0.4329084 0.9783822 1.066228
v 0.2743646 0.975557 1.100844
v 0.4385959 0.9376825 1.129241
v 0.2819954 0.9365381 1.160943
v 0.1320155 0.9752489 1.115629
v 0.13538 0.9359275 1.176422
v 0.1991806 1.279272 0.5087377
v -2.384186E-07 0.9755257 1.12139
v -2.384186E-07 1.28236 0.5201641
v 0.1853714 1.334494 0.3999628
v -2.384186E-07 0.938553 1.180665
v -2.384186E-07 1.338067 0.4096483
v -0.199181 1.279272 0.5087377
v -0.1320159 0.9752489 1.115629
v -0.2743649 0.975557 1.100844
v -0.2819958 0.9365381 1.160943
v -0.1353805 0.9359275 1.176422
v -0.4385935 0.9376825 1.129241
v -0.4329089 0.9783822 1.066228
v -0.379804 1.271516 0.4849776
v -0.5333625 0.9808735 1.029187
v -0.185369 1.334494 0.3999628
v -0.3700415 1.324866 0.377638
v -0.5234116 1.265503 0.4491493
v -0.5010556 1.31558 0.3549739
v -0.573186 1.308569 0.3373179
v -0.5848407 1.26235 0.4295729
v -0.6584181 0.9871575 0.9594194
v -0.6824719 0.9420117 1.025928
v -0.5665482 0.9391409 1.085377
v -0.7193135 0.9931103 0.8925368
v -0.596712 1.305004 0.3328233
v -0.7255601 0.9454619 0.9911584
v -0.76011 0.9497622 0.9535178
v -0.7750522 0.9520282 0.9330281
v -0.6414925 1.251785 0.4117743
v -0.6252862 1.292862 0.3347267
v -0.6439182 1.278256 0.3459562
v -0.7858278 0.9543911 0.911009
v -0.7935072 0.9568082 0.8884875
v -0.7679292 0.9983183 0.8156806
v -0.7877456 0.9968401 0.7725295
v -0.6576418 1.264921 0.3593601
v -0.7984384 0.9595648 0.8677608
v -0.7963609 0.9803742 0.8038832
v -0.8014804 0.9666735 0.8368665
v 0.625286 1.292862 0.3347267
v 0.6439178 1.278256 0.3459562
v 0.6414921 1.251785 0.4117743
v 0.7679289 0.9983183 0.8156806
v 0.7877451 0.9968401 0.7725295
v 0.6576442 1.264921 0.3593601
v 0.7963604 0.9803742 0.8038832
v 0.7935067 0.9568082 0.8884875
v 0.798438 0.9595648 0.8677608
v 0.7858274 0.9543911 0.911009
v 0.80148 0.9666735 0.8368665
v 0.3132721 1.200401 -1.445518
v 0.1565118 1.20513 -1.45562
v 0.1558869 1.157379 -1.540761
v 0.3117055 1.153809 -1.530801
v 0.4545767 1.194143 -1.426686
v 0.4594651 1.149114 -1.513762
v 0.5574188 1.18829 -1.405166
v 0.5410585 1.23746 -1.310648
v 0.4490404 1.245062 -1.326361
v 0.5774605 1.143284 -1.489568
v 0.6397285 1.215067 -1.311419
v 0.6249549 1.239349 -1.266633
v 0.6584461 1.180816 -1.374246
v -2.384186E-07 1.160104 -1.546531
v -2.384186E-07 1.209014 -1.461308
v 0.1573879 1.256745 -1.345743
v -2.384186E-07 1.260241 -1.349642
v 0.4441549 1.283493 -1.240998
v 0.3150985 1.251897 -1.339149
v 0.3172474 1.291304 -1.245781
v 0.526596 1.274778 -1.234235
v 0.4361502 1.314618 -1.164433
v 0.5184257 1.306211 -1.160272
v 0.5392606 1.301874 -1.160703
v 0.1581156 1.298529 -1.250307
v 0.3138571 1.323516 -1.170611
v 0.1580614 1.331778 -1.176901
v -2.384186E-07 1.336184 -1.180568
v -2.384186E-07 1.303777 -1.253409
v 0.5653293 1.294662 -1.167623
v 0.5784136 1.288886 -1.176036
v 0.6006926 1.272689 -1.204487
v -0.158116 1.298529 -1.250307
v -0.1580617 1.331778 -1.176901
v -0.3138576 1.323516 -1.170611
v -0.3172477 1.291304 -1.245781
v -0.1573883 1.256745 -1.345743
v -0.1565123 1.20513 -1.45562
v -0.1558872 1.157379 -1.540761
v -0.3132725 1.200401 -1.445518
v -0.3117058 1.153809 -1.530801
v -0.4545771 1.194143 -1.426686
v -0.4594654 1.149114 -1.513762
v -0.5574192 1.18829 -1.405166
v -0.5410589 1.23746 -1.310648
v -0.4490408 1.245062 -1.326361
v -0.5774609 1.143284 -1.489568
v -0.6397289 1.215067 -1.311419
v -0.6249553 1.239349 -1.266633
v -0.6584464 1.180816 -1.374246
v -0.4441553 1.283493 -1.240998
v -0.3150989 1.251897 -1.339149
v -0.5265962 1.274778 -1.234235
v -0.4361507 1.314618 -1.164433
v -0.5184261 1.306211 -1.160272
v -0.539261 1.301874 -1.160703
v -0.6829144 1.134446 -1.461407
v -0.6006931 1.272689 -1.204487
v -0.5784141 1.288886 -1.176036
v -0.5653297 1.294662 -1.167623
v -0.7001194 1.081227 -1.567908
v -0.651492 1.081955 -1.582793
v -0.5957104 1.08498 -1.597838
v -0.465638 1.088821 -1.623764
v -0.3103503 1.090531 -1.640512
v -0.1553451 1.091327 -1.649156
v -2.384186E-07 1.091583 -1.654267
v 0.1553446 1.091327 -1.649156
v 0.3103499 1.090531 -1.640512
v 0.4656377 1.088821 -1.623764
v 0.5957129 1.08498 -1.597838
v 0.6514916 1.081955 -1.582793
v 0.7001189 1.081227 -1.567908
v 0.6829138 1.134446 -1.461407
v -0.7782997 1.080791 -0.1092257
v -0.692711 1.246575 -0.05726814
v -0.6966008 1.237012 0.1071743
v -0.7878596 1.054214 0.1930768
v -0.8044683 0.9948939 0.6338218
v -0.696829 1.237428 0.1817248
v -0.8201238 0.9928621 0.221908
v -0.8101443 0.9803857 0.665692
v -0.8093082 0.9817554 0.6692592
v -0.8084151 0.98377 0.6680979
v -0.8183831 1.004183 -0.133234
v -0.7018002 1.229789 0.2699845
v -0.6972598 1.240453 0.2488413
v -0.6903397 1.254976 0.2053422
v -0.6843811 1.266468 0.163541
v -0.6776921 1.277178 0.08829987
v -0.6721758 1.288364 -0.04417241
v -0.6904565 1.251366 -0.1562151
v -0.6693877 1.292071 -0.159999
v -0.6862332 1.25856 -0.4466804
v -0.6669735 1.294505 -0.4366639
v -0.7773067 1.08355 -0.1406138
v -0.7641567 1.113129 -0.4872146
v -0.7624017 1.123206 -0.5942546
v -0.6869608 1.259773 -0.5895717
v -0.6876885 1.259713 -0.6371517
v -0.6686515 1.291874 -0.588473
v -0.6731802 1.283504 -0.6520709
v -0.7574705 1.140485 -0.7855535
v -0.6909875 1.252405 -0.7332306
v -0.7016488 1.235026 -0.7629064
v -0.6785225 1.27292 -0.6877623
v -0.8096648 1.037126 -0.5972054
v -0.8142279 1.019676 -0.5132605
v -0.7933444 1.082945 -0.8191845
v -0.7526647 1.148101 -0.8805964
v -0.7793299 1.101691 -0.9288927
v -0.7776634 1.104174 -0.9302083
v -0.7712539 1.115837 -0.9205199
vn 0.8880626 0.4591357 0.02322257
vn 0.8894286 0.457074 0
vn 0.898567 0.4388365 0
vn 0.8931285 0.4498015 0
vn 0.9044918 0.4244516 -0.04165729
vn 0.9026663 0.4299281 0.01885028
vn 0.8844116 0.4664375 0.01587947
vn 0.8953645 0.4427063 0.048307
vn 0.9008409 0.433579 0.02224763
vn 0.9099683 0.4134988 0.03125
vn 0.8856702 0.4643148 0
vn 0.9240577 0.3822531 0
vn 0.9336994 0.3569092 -0.02865898
vn 0.9263975 0.3751639 -0.03224413
vn 0.924572 0.3788148 -0.04081623
vn 0.9044918 0.4262772 -0.01350023
vn 0.8971899 0.4408809 -0.02596685
vn 0.8875566 0.4606985 0
vn 0.8862371 0.4627866 0.02030811
vn 0.8807607 0.4719139 0.03946988
vn 0.8880626 0.4591357 -0.02322257
vn 0.8807607 0.4719139 0.03946988
vn 0.8837693 0.4679228 0
vn 0.8752843 0.4810413 0.04976682
vn 0.8728439 0.4879993 0
vn 0.8643209 0.5029408 0
vn 0.8696237 0.4937151 0
vn 0.862506 0.5047724 -0.03589199
vn 0.862506 0.5047724 0.03589199
vn 0.8570296 0.5138998 -0.03751473
vn 0.858855 0.5120742 -0.01216791
vn 0.8460767 0.5321544 -0.03107786
vn 0.8752843 0.4810413 0.04976682
vn 0.8825862 0.4682629 0.04208877
vn 0.858855 0.5102488 0.04488073
vn 0.8552041 0.5175507 -0.02769786
vn 0.8479022 0.5285035 -0.04178408
vn 0.8479022 0.5285035 -0.04178408
vn 0.8880626 0.4573101 0.04703542
vn 0.3276427 0.8516121 0.4091541
vn 0.3477229 0.8570884 0.380116
vn 0.340421 0.8589139 0.382597
vn 0.3915343 0.8589139 0.3301028
vn 0.2728786 0.8461356 0.457812
vn 0.2527984 0.8625649 0.4382633
vn 0.1761286 0.8625649 0.4743
vn 0.2016852 0.8388337 0.5056493
vn 0.282006 0.8680413 0.4086282
vn 0.1925578 0.8844706 0.4250098
vn 0.1998597 0.8844706 0.4216253
vn 0.1633503 0.8881215 0.4296009
vn 0.2619258 0.8735178 0.4103189
vn 0.119539 0.8917724 0.4364086
vn 0.1250154 0.8899469 0.4385951
vn 0.1268408 0.8643904 0.48656
vn 0.07207668 0.8662158 0.4944443
vn 0.1323172 0.8388337 0.5280627
vn 0.07755309 0.8406593 0.5359828
vn 0.03921819 0.8680413 0.4949407
vn 0.04104364 0.8424847 0.5371544
vn 0.06477481 0.8917724 0.4478239
vn 0.0008832812 0.8680413 0.4964913
vn 0.0008832812 0.8917724 0.4524834
vn 0.06842571 0.8935978 0.4436224
vn 0.0008832812 0.8443102 0.5358541
vn 0.0008832812 0.8935978 0.4488676
vn -0.0648337 0.8917724 0.4478153
vn -0.03927708 0.8680413 0.494936
vn -0.07213557 0.8662158 0.4944356
vn -0.07761204 0.8406593 0.5359742
vn -0.04110259 0.8424847 0.5371499
vn -0.1323762 0.8388337 0.5280479
vn -0.1268997 0.8643904 0.4865446
vn -0.1250743 0.8899469 0.4385782
vn -0.1761875 0.8625649 0.4742781
vn -0.06848466 0.8935978 0.4436133
vn -0.1195979 0.8917724 0.4363924
vn -0.1926167 0.8844706 0.4249831
vn -0.1634092 0.8881215 0.4295785
vn -0.1999186 0.8844706 0.4215974
vn -0.2820648 0.8680413 0.4085876
vn -0.2528573 0.8625649 0.4382293
vn -0.2729375 0.8461356 0.4577768
vn -0.2017441 0.8388337 0.5056257
vn -0.3477818 0.8570884 0.3800621
vn -0.2619847 0.8735178 0.4102813
vn -0.3277017 0.8516121 0.4091069
vn -0.34048 0.8589139 0.3825445
vn -0.3915931 0.8589139 0.330033
vn -0.4500083 0.8187536 0.3565601
vn -0.34048 0.8534375 0.3946109
vn -0.4427063 0.8260554 0.3487743
vn -0.4244516 0.8534375 0.3024652
vn -0.464612 0.8351828 0.294288
vn -0.495645 0.8114517 0.3096485
vn -0.5759658 0.7639894 0.2908326
vn -0.4846922 0.8078008 0.3354569
vn -0.5796168 0.7785932 0.2404933
vn -0.5869186 0.7731167 0.240452
vn -0.5850931 0.7767677 0.2330191
vn 0.340421 0.8534375 0.3946618
vn 0.4444729 0.8260554 0.3465202
vn 0.4499494 0.8187536 0.3566344
vn 0.4955861 0.8114517 0.3097428
vn 0.5759069 0.7639894 0.2909492
vn 0.4846333 0.8078008 0.3355421
vn 0.5868597 0.7731167 0.2405956
vn 0.4645531 0.8351828 0.294381
vn 0.5795578 0.7785932 0.2406352
vn 0.4243928 0.8534375 0.3025478
vn 0.5850343 0.7767677 0.2331669
vn 0.07207668 0.8881215 -0.453922
vn 0.0446946 0.8881215 -0.4574305
vn 0.03921819 0.8625649 -0.5044242
vn 0.06477481 0.8716922 -0.485754
vn 0.1177135 0.886296 -0.4479094
vn 0.1067606 0.8789941 -0.4647274
vn 0.1670012 0.886296 -0.4319606
vn 0.1670012 0.8917724 -0.4205385
vn 0.1140625 0.8990743 -0.4226761
vn 0.1578739 0.8844706 -0.4390759
vn 0.1962088 0.8844706 -0.4233367
vn 0.1943833 0.8917724 -0.4086039
vn 0.1943833 0.8844706 -0.4241779
vn 0.0008832812 0.8589139 -0.5121193
vn 0.0008832812 0.8881215 -0.4596079
vn 0.04104364 0.9100271 -0.4125118
vn 0.0008832812 0.9100271 -0.4145478
vn 0.1031097 0.9155035 -0.3888723
vn 0.06842571 0.9063762 -0.4168933
vn 0.06660026 0.9173291 -0.3925197
vn 0.1542229 0.9082017 -0.3890823
vn 0.0976333 0.92098 -0.3771785
vn 0.1487465 0.9173291 -0.3692991
vn 0.1706522 0.9155035 -0.3643228
vn 0.0446946 0.9136781 -0.4039738
vn 0.06842571 0.9173291 -0.3922057
vn 0.04834557 0.9136781 -0.4035532
vn 0.0008832812 0.9118526 -0.4105169
vn 0.0008832812 0.9136781 -0.4064378
vn 0.1615248 0.9155035 -0.3684604
vn 0.1706522 0.9118526 -0.3733667
vn 0.1834304 0.9008998 -0.393361
vn -0.04475349 0.9136781 -0.4039672
vn -0.04840446 0.9136781 -0.4035461
vn -0.06848466 0.9173291 -0.3921953
vn -0.06665921 0.9173291 -0.3925097
vn -0.04110259 0.9100271 -0.412506
vn -0.04475349 0.8881215 -0.4574247
vn -0.03927708 0.8625649 -0.5044195
vn -0.07213557 0.8881215 -0.4539126
vn -0.0648337 0.8716922 -0.4857461
vn -0.1177723 0.886296 -0.447894
vn -0.1068195 0.8789941 -0.4647138
vn -0.1670601 0.886296 -0.4319378
vn -0.1670601 0.8917724 -0.4205151
vn -0.1141214 0.8990743 -0.4226602
vn -0.1579328 0.8844706 -0.4390547
vn -0.1962677 0.8844706 -0.4233094
vn -0.1926167 0.8917724 -0.4094396
vn -0.1944422 0.8844706 -0.424151
vn -0.1031686 0.9155035 -0.3888567
vn -0.06848466 0.9063762 -0.4168836
vn -0.1542819 0.9082017 -0.3890589
vn -0.09769225 0.92098 -0.3771632
vn -0.1488054 0.9173291 -0.3692753
vn -0.170711 0.9155035 -0.3642953
vn -0.1889658 0.8881215 -0.4189656
vn -0.1834893 0.9008998 -0.3933335
vn -0.170711 0.9118526 -0.3733398
vn -0.1615837 0.9155035 -0.3684346
vn -0.1670601 0.882645 -0.4393503
vn -0.1579328 0.8771687 -0.4534671
vn -0.1469799 0.8789941 -0.4536147
vn -0.0995177 0.8735178 -0.4765112
vn -0.05753183 0.8643904 -0.4995191
vn -0.03380066 0.8534375 -0.5200979
vn 0.0008832812 0.8479611 -0.5300578
vn 0.03374177 0.8534375 -0.5201018
vn 0.05747288 0.8643904 -0.4995259
vn 0.09945875 0.8735178 -0.4765235
vn 0.146921 0.8789941 -0.4536337
vn 0.1578739 0.8771687 -0.4534876
vn 0.1670012 0.882645 -0.4393727
vn 0.1889068 0.8881215 -0.4189922
vn -0.8881215 0.4591357 0.02084902
vn -0.8931404 0.4497779 0
vn -0.8985782 0.4388132 0
vn -0.889441 0.4570501 0
vn -0.8954234 0.4427063 0.04720177
vn -0.9155035 0.4007205 -0.035727
vn -0.8844706 0.4664375 0.01216178
vn -0.8954234 0.4445318 0.02466576
vn -0.9027252 0.4281026 0.04260709
vn -0.9027252 0.4281026 0.04260709
vn -0.8844706 0.464612 0.04298245
vn -0.9228054 0.3842913 -0.02739302
vn -0.9337583 0.3569092 -0.02667146
vn -0.9264563 0.3751639 -0.03050781
vn -0.9246309 0.3788148 -0.03945969
vn -0.9038804 0.4277854 0
vn -0.8972489 0.4408809 -0.02384405
vn -0.8881215 0.4591357 -0.02084902
vn -0.8881215 0.4591357 -0.02084902
vn -0.8806998 0.473675 0
vn -0.8808196 0.4719139 0.03813345
vn -0.886296 0.4627866 0.01754801
vn -0.882625 0.4700778 0
vn -0.8753432 0.4810413 0.04871921
vn -0.872858 0.4879743 0
vn -0.8643358 0.5029152 0
vn -0.869638 0.4936898 0
vn -0.8625649 0.5047724 -0.03444633
vn -0.8625649 0.5047724 0.03444633
vn -0.8568429 0.5155775 0
vn -0.8589139 0.5120742 -0.006849004
vn -0.8461356 0.5321544 -0.02943085
vn -0.8753432 0.4810413 0.04871921
vn -0.8844706 0.4664375 0.01216178
vn -0.8602123 0.5099363 0
vn -0.8570884 0.5138998 -0.03614395
vn -0.8461356 0.530329 -0.05296867
vn -0.8443102 0.5321544 -0.06286515
vn -0.8917724 0.4500083 0.04727117
g model_car_92_glass_LOD1_0
f 3/3/3 2/2/2 1/1/1
f 4/4/4 3/3/3 1/1/1
f 2/2/2 3/3/3 5/5/5
f 3/3/3 6/6/6 5/5/5
f 2/2/2 5/5/5 7/7/7
f 5/5/5 8/8/8 7/7/7
f 8/8/8 5/5/5 9/9/9
f 9/9/9 5/5/5 10/10/10
f 11/11/11 1/1/1 2/2/2
f 7/7/7 11/11/11 2/2/2
f 5/5/5 6/6/6 12/12/12
f 10/10/10 5/5/5 12/12/12
f 6/6/6 13/13/13 12/12/12
f 6/6/6 14/14/14 13/13/13
f 6/6/6 15/15/15 14/14/14
f 16/16/16 15/15/15 6/6/6
f 16/16/16 6/6/6 3/3/3
f 16/16/16 3/3/3 4/4/4
f 17/17/17 16/16/16 4/4/4
f 4/4/4 18/18/18 17/17/17
f 19/19/19 18/18/18 4/4/4
f 18/18/18 19/19/19 20/20/20
f 18/18/18 20/20/20 21/21/21
f 18/18/18 21/21/21 17/17/17
f 20/20/20 22/22/22 21/21/21
f 19/19/19 23/23/23 20/20/20
f 19/19/19 11/11/11 23/23/23
f 20/20/20 23/23/23 24/24/24
f 25/25/25 20/20/20 24/24/24
f 22/22/22 20/20/20 25/25/25
f 25/25/25 24/24/24 26/26/26
f 25/25/25 26/26/26 27/27/27
f 27/27/27 22/22/22 25/25/25
f 26/26/26 28/28/28 27/27/27
f 24/24/24 29/29/29 26/26/26
f 26/26/26 29/29/29 30/30/30
f 29/29/29 31/31/31 30/30/30
f 30/30/30 32/32/32 26/26/26
f 28/28/28 26/26/26 32/32/32
f 24/24/24 23/23/23 33/33/33
f 24/24/24 33/33/33 29/29/29
f 23/23/23 34/34/34 33/33/33
f 11/11/11 34/34/34 23/23/23
f 33/33/33 35/35/35 29/29/29
f 29/29/29 36/36/36 31/31/31
f 36/36/36 29/29/29 35/35/35
f 37/37/37 36/36/36 35/35/35
f 37/37/37 38/38/38 36/36/36
f 38/38/38 39/39/39 36/36/36
f 11/11/11 19/19/19 1/1/1
f 1/1/1 19/19/19 4/4/4
f 42/42/42 41/41/41 40/40/40
f 43/43/43 41/41/41 42/42/42
f 40/40/40 41/41/41 44/44/44
f 41/41/41 45/45/45 44/44/44
f 45/45/45 46/46/46 44/44/44
f 46/46/46 47/47/47 44/44/44
f 45/45/45 41/41/41 48/48/48
f 49/49/49 45/45/45 48/48/48
f 49/49/49 48/48/48 50/50/50
f 51/51/51 49/49/49 50/50/50
f 52/52/52 50/50/50 48/48/48
f 49/49/49 51/51/51 53/53/53
f 54/54/54 49/49/49 53/53/53
f 54/54/54 46/46/46 45/45/45
f 49/49/49 54/54/54 45/45/45
f 54/54/54 55/55/55 46/46/46
f 46/46/46 55/55/55 47/47/47
f 55/55/55 54/54/54 56/56/56
f 55/55/55 56/56/56 57/57/57
f 55/55/55 57/57/57 47/47/47
f 56/56/56 58/58/58 57/57/57
f 58/58/58 56/56/56 59/59/59
f 60/60/60 58/58/58 59/59/59
f 56/56/56 61/61/61 59/59/59
f 54/54/54 61/61/61 56/56/56
f 59/59/59 61/61/61 62/62/62
f 59/59/59 62/62/62 60/60/60
f 61/61/61 63/63/63 62/62/62
f 54/54/54 53/53/53 64/64/64
f 61/61/61 54/54/54 64/64/64
f 61/61/61 64/64/64 63/63/63
f 62/62/62 65/65/65 60/60/60
f 64/64/64 66/66/66 63/63/63
f 63/63/63 67/67/67 62/62/62
f 67/67/67 68/68/68 62/62/62
f 67/67/67 69/69/69 68/68/68
f 69/69/69 70/70/70 68/68/68
f 70/70/70 71/71/71 68/68/68
f 62/62/62 68/68/68 71/71/71
f 65/65/65 62/62/62 71/71/71
f 70/70/70 69/69/69 72/72/72
f 69/69/69 73/73/73 72/72/72
f 74/74/74 73/73/73 69/69/69
f 67/67/67 74/74/74 69/69/69
f 73/73/73 74/74/74 75/75/75
f 74/74/74 67/67/67 76/76/76
f 76/76/76 67/67/67 63/63/63
f 66/66/66 76/76/76 63/63/63
f 77/77/77 74/74/74 76/76/76
f 78/78/78 74/74/74 77/77/77
f 79/79/79 78/78/78 77/77/77
f 78/78/78 79/79/79 80/80/80
f 81/81/81 78/78/78 80/80/80
f 82/82/82 78/78/78 81/81/81
f 74/74/74 78/78/78 82/82/82
f 75/75/75 74/74/74 82/82/82
f 75/75/75 82/82/82 83/83/83
f 84/84/84 75/75/75 83/83/83
f 73/73/73 75/75/75 84/84/84
f 72/72/72 73/73/73 84/84/84
f 85/85/85 82/82/82 81/81/81
f 82/82/82 85/85/85 83/83/83
f 80/80/80 86/86/86 81/81/81
f 85/85/85 87/87/87 83/83/83
f 85/85/85 88/88/88 87/87/87
f 85/85/85 89/89/89 88/88/88
f 90/90/90 81/81/81 86/86/86
f 91/91/91 90/90/90 86/86/86
f 92/92/92 90/90/90 91/91/91
f 93/93/93 89/89/89 85/85/85
f 94/94/94 93/93/93 85/85/85
f 95/95/95 94/94/94 85/85/85
f 95/95/95 85/85/85 81/81/81
f 90/90/90 95/95/95 81/81/81
f 95/95/95 90/90/90 96/96/96
f 90/90/90 97/97/97 96/96/96
f 97/97/97 90/90/90 92/92/92
f 98/98/98 94/94/94 95/95/95
f 95/95/95 96/96/96 99/99/99
f 95/95/95 100/100/100 98/98/98
f 95/95/95 99/99/99 100/100/100
f 103/103/103 102/102/102 101/101/101
f 103/103/103 101/101/101 52/52/52
f 48/48/48 103/103/103 52/52/52
f 104/104/104 103/103/103 48/48/48
f 103/103/103 104/104/104 105/105/105
f 106/106/106 103/103/103 105/105/105
f 103/103/103 106/106/106 102/102/102
f 105/105/105 104/104/104 107/107/107
f 41/41/41 104/104/104 48/48/48
f 108/108/108 104/104/104 41/41/41
f 108/108/108 109/109/109 104/104/104
f 110/110/110 108/108/108 41/41/41
f 43/43/43 110/110/110 41/41/41
f 111/111/111 104/104/104 109/109/109
f 107/107/107 104/104/104 111/111/111
f 114/114/114 113/113/113 112/112/112
f 115/115/115 114/114/114 112/112/112
f 112/112/112 116/116/116 115/115/115
f 116/116/116 117/117/117 115/115/115
f 116/116/116 118/118/118 117/117/117
f 119/119/119 118/118/118 116/116/116
f 120/120/120 119/119/119 116/116/116
f 116/116/116 112/112/112 120/120/120
f 118/118/118 121/121/121 117/117/117
f 118/118/118 119/119/119 122/122/122
f 122/122/122 119/119/119 123/123/123
f 124/124/124 118/118/118 122/122/122
f 121/121/121 118/118/118 124/124/124
f 114/114/114 125/125/125 113/113/113
f 125/125/125 126/126/126 113/113/113
f 113/113/113 126/126/126 127/127/127
f 126/126/126 128/128/128 127/127/127
f 120/120/120 129/129/129 119/119/119
f 129/129/129 120/120/120 130/130/130
f 131/131/131 129/129/129 130/130/130
f 131/131/131 130/130/130 127/127/127
f 129/129/129 132/132/132 119/119/119
f 119/119/119 132/132/132 123/123/123
f 129/129/129 133/133/133 132/132/132
f 133/133/133 134/134/134 132/132/132
f 132/132/132 134/134/134 135/135/135
f 113/113/113 127/127/127 130/130/130
f 112/112/112 113/113/113 130/130/130
f 136/136/136 127/127/127 128/128/128
f 136/136/136 131/131/131 127/127/127
f 137/137/137 131/131/131 136/136/136
f 137/137/137 133/133/133 129/129/129
f 131/131/131 137/137/137 129/129/129
f 138/138/138 137/137/137 136/136/136
f 139/139/139 138/138/138 136/136/136
f 140/140/140 139/139/139 136/136/136
f 140/140/140 136/136/136 128/128/128
f 112/112/112 130/130/130 120/120/120
f 141/141/141 132/132/132 135/135/135
f 142/142/142 132/132/132 141/141/141
f 142/142/142 143/143/143 132/132/132
f 132/132/132 143/143/143 123/123/123
f 139/139/139 140/140/140 144/144/144
f 145/145/145 139/139/139 144/144/144
f 146/146/146 145/145/145 144/144/144
f 147/147/147 146/146/146 144/144/144
f 144/144/144 140/140/140 128/128/128
f 148/148/148 144/144/144 128/128/128
f 147/147/147 144/144/144 148/148/148
f 128/128/128 126/126/126 148/148/148
f 126/126/126 149/149/149 148/148/148
f 126/126/126 125/125/125 149/149/149
f 125/125/125 150/150/150 149/149/149
f 149/149/149 150/150/150 151/151/151
f 150/150/150 152/152/152 151/151/151
f 153/153/153 151/151/151 152/152/152
f 154/154/154 153/153/153 152/152/152
f 155/155/155 153/153/153 154/154/154
f 155/155/155 156/156/156 153/153/153
f 156/156/156 157/157/157 153/153/153
f 151/151/151 153/153/153 157/157/157
f 158/158/158 155/155/155 154/154/154
f 156/156/156 155/155/155 159/159/159
f 156/156/156 159/159/159 160/160/160
f 155/155/155 161/161/161 159/159/159
f 155/155/155 158/158/158 161/161/161
f 162/162/162 157/157/157 156/156/156
f 157/157/157 162/162/162 163/163/163
f 149/149/149 151/151/151 163/163/163
f 163/163/163 151/151/151 157/157/157
f 162/162/162 147/147/147 163/163/163
f 164/164/164 162/162/162 156/156/156
f 164/164/164 156/156/156 160/160/160
f 165/165/165 162/162/162 164/164/164
f 166/166/166 165/165/165 164/164/164
f 166/166/166 164/164/164 167/167/167
f 158/158/158 168/168/168 161/161/161
f 163/163/163 147/147/147 148/148/148
f 148/148/148 149/149/149 163/163/163
f 146/146/146 147/147/147 162/162/162
f 165/165/165 146/146/146 162/162/162
f 169/169/169 164/164/164 160/160/160
f 169/169/169 170/170/170 164/164/164
f 164/164/164 170/170/170 171/171/171
f 164/164/164 171/171/171 167/167/167
f 172/172/172 168/168/168 158/158/158
f 173/173/173 172/172/172 158/158/158
f 158/158/158 174/174/174 173/173/173
f 174/174/174 158/158/158 175/175/175
f 158/158/158 154/154/154 175/175/175
f 175/175/175 154/154/154 176/176/176
f 154/154/154 152/152/152 176/176/176
f 176/176/176 152/152/152 177/177/177
f 152/152/152 150/150/150 177/177/177
f 177/177/177 150/150/150 178/178/178
f 150/150/150 125/125/125 178/178/178
f 125/125/125 114/114/114 178/178/178
f 114/114/114 179/179/179 178/178/178
f 114/114/114 115/115/115 179/179/179
f 115/115/115 180/180/180 179/179/179
f 115/115/115 117/117/117 180/180/180
f 117/117/117 181/181/181 180/180/180
f 117/117/117 121/121/121 181/181/181
f 121/121/121 182/182/182 181/181/181
f 182/182/182 121/121/121 183/183/183
f 184/184/184 183/183/183 121/121/121
f 185/185/185 184/184/184 121/121/121
f 185/185/185 121/121/121 124/124/124
f 188/188/188 187/187/187 186/186/186
f 189/189/189 188/188/188 186/186/186
f 188/188/188 189/189/189 190/190/190
f 191/191/191 188/188/188 190/190/190
f 190/190/190 189/189/189 192/192/192
f 193/193/193 190/190/190 192/192/192
f 190/190/190 193/193/193 194/194/194
f 190/190/190 194/194/194 195/195/195
f 196/196/196 192/192/192 189/189/189
f 186/186/186 196/196/196 189/189/189
f 190/190/190 195/195/195 197/197/197
f 191/191/191 190/190/190 197/197/197
f 198/198/198 191/191/191 197/197/197
f 199/199/199 191/191/191 198/198/198
f 200/200/200 191/191/191 199/199/199
f 200/200/200 201/201/201 191/191/191
f 191/191/191 201/201/201 188/188/188
f 188/188/188 201/201/201 187/187/187
f 201/201/201 202/202/202 187/187/187
f 203/203/203 187/187/187 202/202/202
f 204/204/204 203/203/203 202/202/202
f 205/205/205 203/203/203 204/204/204
f 206/206/206 205/205/205 204/204/204
f 207/207/207 203/203/203 205/205/205
f 208/208/208 207/207/207 205/205/205
f 196/196/196 207/207/207 208/208/208
f 208/208/208 205/205/205 209/209/209
f 205/205/205 210/210/210 209/209/209
f 205/205/205 206/206/206 210/210/210
f 209/209/209 210/210/210 211/211/211
f 211/211/211 210/210/210 212/212/212
f 206/206/206 212/212/212 210/210/210
f 213/213/213 211/211/211 212/212/212
f 214/214/214 209/209/209 211/211/211
f 214/214/214 211/211/211 215/215/215
f 216/216/216 214/214/214 215/215/215
f 217/217/217 215/215/215 211/211/211
f 211/211/211 213/213/213 217/217/217
f 208/208/208 209/209/209 218/218/218
f 218/218/218 209/209/209 214/214/214
f 219/219/219 208/208/208 218/218/218
f 219/219/219 196/196/196 208/208/208
f 207/207/207 196/196/196 186/186/186
f 207/207/207 186/186/186 187/187/187
f 203/203/203 207/207/207 187/187/187
f 220/220/220 218/218/218 214/214/214
f 221/221/221 214/214/214 216/216/216
f 214/214/214 221/221/221 220/220/220
f 221/221/221 222/222/222 220/220/220
f 223/223/223 222/222/222 221/221/221
f 224/224/224 223/223/223 221/221/221
