g Taillights_34
v 0.6619665 0.7573533 -1.854339
v 0.5722061 0.8104135 -1.882213
v 0.5783474 0.7495982 -1.899987
v 0.5192332 0.7165899 -1.929982
v 0.6586012 0.8099676 -1.832807
v 0.6769748 0.8064703 -1.809839
v 0.6674923 0.8634049 -1.799445
v 0.567075 0.8612217 -1.856902
v 0.4524022 0.805766 -1.933691
v 0.4430318 0.8605331 -1.918468
v 0.327551 0.8583285 -1.959963
v 0.3528171 0.794515 -1.956613
v 0.4176843 0.7069924 -1.958687
v 0.3914804 0.7228668 -1.961668
v -0.5722268 0.8104135 -1.882214
v -0.6619872 0.7573532 -1.854339
v -0.5783681 0.7495981 -1.899987
v -0.658622 0.8099675 -1.832807
v -0.6769955 0.8064702 -1.809839
v -0.667513 0.8634048 -1.799445
v -0.5670958 0.8612217 -1.856902
v -0.5192538 0.7165898 -1.929982
v -0.4524229 0.805766 -1.933691
v -0.4430526 0.860533 -1.918468
v -0.3275717 0.8583285 -1.959963
v -0.3528377 0.7945149 -1.956613
v -0.4177049 0.7069923 -1.958687
v -0.391501 0.7228667 -1.961668
vt 0.05717739 0.5479302
vt 0.171719 0.6223298
vt 0.1780741 0.5419198
vt 0.2645229 0.5054685
vt 0.04590119 0.6192976
vt 0.008393696 0.6190183
vt 0.01368161 0.6932834
vt 0.1602355 0.693637
vt 0.3366141 0.6269445
vt 0.3354653 0.6999791
vt 0.4905466 0.7094894
vt 0.4666795 0.6256736
vt 0.3986161 0.5054685
vt 0.4296595 0.5291042
vt 0.171719 0.6223298
vt 0.05717739 0.5479302
vt 0.1780741 0.5419198
vt 0.04590119 0.6192976
vt 0.008393696 0.6190183
vt 0.01368161 0.6932834
vt 0.1602355 0.693637
vt 0.2645229 0.5054685
vt 0.3366141 0.6269445
vt 0.3354653 0.6999791
vt 0.4905466 0.7094894
vt 0.4666795 0.6256736
vt 0.3986161 0.5054685
vt 0.4296595 0.5291042
vn 0.5252091 0.3307299 -0.7840747
vn 0.4088818 0.3572421 -0.8397582
vn 0.3552997 0.295097 -0.8869497
vn 0.3165843 0.2192194 -0.9228852
vn 0.6128967 0.3436403 -0.7115258
vn 0.7736514 0.2548616 -0.580094
vn 0.5520726 0.3735374 -0.7454432
vn 0.4244761 0.4350613 -0.7940665
vn 0.3034071 0.2283082 -0.9251051
vn 0.3455246 0.3231799 -0.8810037
vn 0.2566316 0.130925 -0.9576006
vn 0.2134461 0.09224908 -0.9725898
vn 0.2312197 0.1615182 -0.9594005
vn 0.2075026 0.1724731 -0.9629101
vn -0.4088821 0.3572418 -0.8397582
vn -0.5252095 0.3307291 -0.7840748
vn -0.3553029 0.2950971 -0.8869485
vn -0.6128979 0.3436396 -0.7115251
vn -0.7736533 0.2548599 -0.5800923
vn -0.552073 0.3735385 -0.7454425
vn -0.4244766 0.4350613 -0.7940663
vn -0.3165856 0.2192194 -0.9228848
vn -0.3034064 0.2283081 -0.9251053
vn -0.3455244 0.3231801 -0.8810037
vn -0.2566305 0.1309243 -0.957601
vn -0.2134449 0.09224755 -0.9725902
vn -0.2312163 0.1615202 -0.959401
vn -0.2074979 0.1724744 -0.9629108
g Taillights_34_0
f 3/3/3 2/2/2 1/1/1
f 3/3/3 4/4/4 2/2/2
f 1/1/1 2/2/2 5/5/5
f 1/1/1 5/5/5 6/6/6
f 6/6/6 5/5/5 7/7/7
f 7/7/7 5/5/5 8/8/8
f 8/8/8 5/5/5 2/2/2
f 2/2/2 4/4/4 9/9/9
f 9/9/9 10/10/10 2/2/2
f 2/2/2 10/10/10 8/8/8
f 9/9/9 11/11/11 10/10/10
f 12/12/12 11/11/11 9/9/9
f 13/13/13 9/9/9 4/4/4
f 12/12/12 9/9/9 14/14/14
f 14/14/14 9/9/9 13/13/13
f 17/17/17 16/16/16 15/15/15
f 15/15/15 16/16/16 18/18/18
f 18/18/18 16/16/16 19/19/19
f 18/18/18 19/19/19 20/20/20
f 20/20/20 21/21/21 18/18/18
f 18/18/18 21/21/21 15/15/15
f 15/15/15 22/22/22 17/17/17
f 23/23/23 22/22/22 15/15/15
f 23/23/23 15/15/15 24/24/24
f 24/24/24 15/15/15 21/21/21
f 25/25/25 23/23/23 24/24/24
f 25/25/25 26/26/26 23/23/23
f 23/23/23 27/27/27 22/22/22
f 26/26/26 28/28/28 23/23/23
f 23/23/23 28/28/28 27/27/27
