g model_car_103_matte_mirror_LOD1
v 0.9211584 0.8141458 0.9408852
v 0.9446605 0.8134022 0.9309188
v 0.9417413 0.8890131 0.9343681
v 0.9196559 0.8916824 0.9449122
v 0.9585491 0.8859546 0.9262016
v 0.9601049 0.815349 0.9244035
v 0.9053479 0.8145214 0.9476408
v 0.9002246 0.8921877 0.9535954
v 0.8840727 0.8917434 0.9603547
v 0.8898558 0.8168133 0.9541864
v 0.8791859 0.8211206 0.9585567
v 0.8679915 0.8868318 0.9662503
v 0.9710228 0.8807932 0.9210535
v 0.9726282 0.8172594 0.9188284
v 0.9805983 0.8733226 0.9159054
v 0.9710228 0.8807932 0.9210535
v 0.9884406 0.8228176 0.9109536
v 0.991928 0.8595829 0.9102939
v 0.9945193 0.8254241 0.9078704
v 0.9979285 0.8484439 0.9070773
v 0.998266 0.8305436 0.9061735
v 0.9996674 0.8370378 0.9057463
v 0.8704093 0.8286579 0.9624026
v 0.8679915 0.8868318 0.9662503
v 0.8635813 0.8796148 0.9679358
v 0.8646967 0.8377643 0.9655086
v 0.8635813 0.8796148 0.9679358
v 0.8601644 0.8701746 0.9686871
v 0.8587878 0.8587992 0.969097
v 0.8607098 0.8484153 0.9679015
v 0.8646967 0.8377643 0.9655086
v 0.8601644 0.8701746 0.9686871
v -0.9211583 0.8141458 0.9408852
v -0.9196559 0.8916824 0.9449122
v -0.9417413 0.8890131 0.9343681
v -0.9446605 0.8134022 0.9309188
v -0.9053478 0.8145214 0.9476408
v -0.9002246 0.8921877 0.9535954
v -0.8840728 0.8917434 0.9603547
v -0.8898557 0.8168133 0.9541864
v -0.8791858 0.8211206 0.9585567
v -0.8679914 0.8868318 0.9662503
v -0.8704093 0.8286579 0.9624026
v -0.8635813 0.8796148 0.9679358
v -0.8646966 0.8377643 0.9655086
v -0.8601644 0.8701746 0.9686871
v -0.8704093 0.8286579 0.9624026
v -0.958549 0.8859546 0.9262016
v -0.9601049 0.815349 0.9244035
v -0.9446605 0.8134022 0.9309188
v -0.9417413 0.8890131 0.9343681
v -0.9710228 0.8807932 0.9210535
v -0.9726282 0.8172594 0.9188284
v -0.958549 0.8859546 0.9262016
v -0.9805983 0.8733226 0.9159054
v -0.9884406 0.8228176 0.9109536
v -0.9726282 0.8172594 0.9188284
v -0.9710228 0.8807932 0.9210535
v -0.991928 0.8595829 0.9102939
v -0.9945192 0.8254241 0.9078704
v -0.9979285 0.8484439 0.9070773
v -0.998266 0.8305436 0.9061735
v -0.9996674 0.8370378 0.9057463
v -0.8587878 0.8587992 0.969097
v -0.8601644 0.8701746 0.9686871
v -0.8646966 0.8377643 0.9655086
v -0.8607098 0.8484153 0.9679015
vn -0.4263492 0.0386737 -0.9037315
vn -0.3891481 0.02692592 -0.9207816
vn -0.4263492 0.0386737 -0.9037315
vn -0.4263492 0.0386737 -0.9037315
vn -0.390127 0.0151782 -0.9206359
vn -0.390127 0.0151782 -0.9206359
vn -0.4067696 0.04356855 -0.9124912
vn -0.4067696 0.04356855 -0.9124912
vn -0.3832742 0.04650551 -0.9224631
vn -0.3832742 0.04650551 -0.9224631
vn -0.3568417 0.04846346 -0.9329069
vn -0.3568417 0.04846346 -0.9329069
vn -0.4097066 0.02203107 -0.9119513
vn -0.4097066 0.02203107 -0.9119513
vn -0.4508237 0.01713616 -0.8924485
vn -0.4615924 0.01909411 -0.8868866
vn -0.4508237 0.01713616 -0.8924485
vn -0.4615924 0.02790493 -0.8866531
vn -0.4615924 0.02790493 -0.8866531
vn -0.4165595 0.03769469 -0.9083267
vn -0.4459288 0.02986288 -0.8945701
vn -0.4429919 0.03671575 -0.8957735
vn -0.4165595 0.0425896 -0.9081103
vn -0.4165595 0.0425896 -0.9081103
vn -0.4165595 0.0425896 -0.9081103
vn -0.3333462 0.0455265 -0.9417046
vn -0.3333462 0.0455265 -0.9417046
vn -0.3333462 0.0455265 -0.9417046
vn -0.4576765 0.02301002 -0.8888209
vn -0.5007516 0.007346332 -0.8655599
vn -0.4576765 0.02301002 -0.8888209
vn -0.4576765 0.02301002 -0.8888209
vn 0.38914 0.02692592 -0.920785
vn 0.4263412 0.0386737 -0.9037353
vn 0.38914 0.02692592 -0.920785
vn 0.38914 0.02692592 -0.920785
vn 0.3920769 0.04063165 -0.9190347
vn 0.4067616 0.04356855 -0.9124948
vn 0.3862031 0.0455265 -0.9212896
vn 0.3832661 0.04650551 -0.9224665
vn 0.3627076 0.04748446 -0.9306925
vn 0.3597707 0.04748446 -0.9318317
vn 0.3676025 0.04650551 -0.9288195
vn 0.4175304 0.0425896 -0.9076643
vn 0.4263412 0.04063165 -0.9036494
vn 0.3333382 0.0455265 -0.9417074
vn 0.4263412 0.04063165 -0.9036494
vn 0.433194 0.02398902 -0.9009814
vn 0.390119 0.0151782 -0.9206393
vn 0.433194 0.02398902 -0.9009814
vn 0.433194 0.02398902 -0.9009814
vn 0.3764133 0.0151782 -0.9263275
vn 0.4096985 0.02203107 -0.9119549
vn 0.3764133 0.0151782 -0.9263275
vn 0.4615844 0.01909411 -0.8868908
vn 0.4508156 0.01713616 -0.8924526
vn 0.4615844 0.01909411 -0.8868908
vn 0.4615844 0.01909411 -0.8868908
vn 0.4204673 0.02398902 -0.9069905
vn 0.4615844 0.02790493 -0.8866573
vn 0.4429838 0.03671575 -0.8957775
vn 0.4429838 0.03671575 -0.8957775
vn 0.4429838 0.03671575 -0.8957775
vn 0.5007436 0.007346332 -0.8655645
vn 0.4576685 0.02301002 -0.8888251
vn 0.5007436 0.007346332 -0.8655645
vn 0.5007436 0.007346332 -0.8655645
g model_car_103_matte_mirror_LOD1_0
f 3/3/3 2/2/2 1/1/1
f 4/4/4 3/3/3 1/1/1
f 2/2/2 3/3/3 5/5/5
f 6/6/6 2/2/2 5/5/5
f 4/4/4 1/1/1 7/7/7
f 8/8/8 4/4/4 7/7/7
f 9/9/9 8/8/8 7/7/7
f 10/10/10 9/9/9 7/7/7
f 9/9/9 10/10/10 11/11/11
f 12/12/12 9/9/9 11/11/11
f 6/6/6 5/5/5 13/13/13
f 14/14/14 6/6/6 13/13/13
f 14/14/14 16/16/16 15/15/15
f 17/17/17 14/14/14 15/15/15
f 17/17/17 15/15/15 18/18/18
f 19/19/19 17/17/17 18/18/18
f 19/19/19 18/18/18 20/20/20
f 21/21/21 19/19/19 20/20/20
f 20/20/20 22/22/22 21/21/21
f 24/24/24 11/11/11 23/23/23
f 25/25/25 24/24/24 23/23/23
f 27/27/27 23/23/23 26/26/26
f 28/28/28 27/27/27 26/26/26
f 31/31/31 30/30/30 29/29/29
f 32/32/32 31/31/31 29/29/29
f 35/35/35 34/34/34 33/33/33
f 36/36/36 35/35/35 33/33/33
f 33/33/33 34/34/34 37/37/37
f 34/34/34 38/38/38 37/37/37
f 38/38/38 39/39/39 37/37/37
f 39/39/39 40/40/40 37/37/37
f 40/40/40 39/39/39 41/41/41
f 39/39/39 42/42/42 41/41/41
f 41/41/41 42/42/42 43/43/43
f 42/42/42 44/44/44 43/43/43
f 44/44/44 46/46/46 45/45/45
f 47/47/47 44/44/44 45/45/45
f 50/50/50 49/49/49 48/48/48
f 51/51/51 50/50/50 48/48/48
f 49/49/49 53/53/53 52/52/52
f 54/54/54 49/49/49 52/52/52
f 57/57/57 56/56/56 55/55/55
f 58/58/58 57/57/57 55/55/55
f 55/55/55 56/56/56 59/59/59
f 56/56/56 60/60/60 59/59/59
f 61/61/61 59/59/59 60/60/60
f 60/60/60 62/62/62 61/61/61
f 62/62/62 63/63/63 61/61/61
f 66/66/66 65/65/65 64/64/64
f 67/67/67 66/66/66 64/64/64
