g ref_13
v 0.5794 0.6808987 2.2122
v 0.6147 0.8066986 2.1591
v 0.64 0.6851987 2.1769
v 0.513 0.8001986 2.2307
v 0.7019 0.6894987 2.1281
v 0.6941 0.8114997 2.088
v 0.7738 0.6948987 2.0528
v 0.7566 0.8169987 2.0109
v 0.8133 0.6987997 1.9773
v 0.8378 0.7324997 1.9042
v 0.8358 0.7593997 1.8828
v -0.5794 0.6808987 2.2122
v -0.6147 0.8066986 2.1591
v -0.513 0.8001986 2.2307
v -0.64 0.6851987 2.1769
v -0.7019 0.6894987 2.1281
v -0.6941 0.8114997 2.088
v -0.7738 0.6948987 2.0528
v -0.7566 0.8169987 2.0109
v -0.8133 0.6987997 1.9773
v -0.8378 0.7324997 1.9042
v -0.8358 0.7593997 1.8828
vt 0.9208 0.0867
vt 0.8749 0.1143
vt 0.9225 0.1134
vt 0.8723 0.067
vt 0.9236 0.1433
vt 0.8761 0.1548
vt 0.9237 0.1829
vt 0.8752 0.1925
vt 0.9213 0.2152
vt 0.9068 0.2437
vt 0.8955 0.2503
vt 0.078 0.0857
vt 0.1262 0.1091
vt 0.1245 0.0617
vt 0.0787 0.1124
vt 0.0802 0.1424
vt 0.1286 0.1495
vt 0.0837 0.1818
vt 0.1329 0.187
vt 0.089 0.2137
vt 0.1059 0.2408
vt 0.1178 0.2464
vn 0.5155331 0.2063729 0.8316465
vn 0.5757899 0.2306923 0.7843769
vn 0.5374135 0.2307361 0.8111396
vn 0.5578049 0.1849924 0.8090929
vn 0.6439337 0.259967 0.71956
vn 0.6781735 0.2872542 0.6764361
vn 0.7699128 0.2833518 0.571792
vn 0.7966956 0.3051015 0.5217174
vn 0.8530418 0.2849237 0.4371936
vn 0.8586527 0.331656 0.390794
vn 0.8576638 0.357669 0.3694398
vn -0.5155312 0.206373 0.8316476
vn -0.5757889 0.2306924 0.7843776
vn -0.5578038 0.1849926 0.8090938
vn -0.537413 0.2307362 0.81114
vn -0.6439342 0.2599669 0.7195595
vn -0.6781734 0.2872542 0.6764362
vn -0.7699132 0.2833517 0.5717916
vn -0.7966958 0.3051014 0.5217173
vn -0.8530418 0.2849237 0.4371936
vn -0.8586527 0.331656 0.390794
vn -0.8576638 0.357669 0.3694398
g ref_13_0
f 3/3/3 2/2/2 1/1/1
f 4/4/4 1/1/1 2/2/2
f 3/3/3 5/5/5 2/2/2
f 6/6/6 2/2/2 5/5/5
f 5/5/5 7/7/7 6/6/6
f 8/8/8 6/6/6 7/7/7
f 8/8/8 7/7/7 9/9/9
f 10/10/10 8/8/8 9/9/9
f 11/11/11 8/8/8 10/10/10
f 14/14/14 13/13/13 12/12/12
f 15/15/15 12/12/12 13/13/13
f 15/15/15 13/13/13 16/16/16
f 17/17/17 16/16/16 13/13/13
f 16/16/16 17/17/17 18/18/18
f 19/19/19 18/18/18 17/17/17
f 18/18/18 19/19/19 20/20/20
f 19/19/19 21/21/21 20/20/20
f 19/19/19 22/22/22 21/21/21
