g Glass_25
v -0.7136 1.0506 -1.1154
v -0.6645 1.1478 -1.1605
v -0.6451 1.2074 -0.9487998
v -0.741 1.0039 -0.9492998
v -0.7545 0.9739001 -0.6641998
v -0.6178 1.2602 -0.6993998
v -0.7715 0.9527999 0.2010002
v -0.6657 1.2369 0.3957002
v -0.7772 0.9569999 0.6520002
v -0.6473 1.2768 0.2218002
v -0.6283 1.3073 -0.1012998
v -0.7116 1.1294 0.6435002
v -0.7542 0.9707001 -0.5673998
v -0.6218 1.2927 -0.3802998
v -0.6167 1.2753 -0.5840998
v -0.2604 1.317 0.4752002
v -4.011236E-16 1.3169 0.4896002
v -4.484413E-16 1.2239 0.7957002
v -0.3089 1.2161 0.7787002
v -0.5731 1.317 0.4455002
v -0.6305 1.1771 0.7492002
v -0.3243 1.0788 1.046
v -0.6754 1.0703 0.9553002
v -0.3412 0.9395998 1.3016
v -4.785061E-16 1.0827 1.0723
v -0.6913 0.9591998 1.185
v -0.6964 0.9937998 1.1079
v -0.4827 0.9360998 1.2824
v -5.009104E-16 0.9391998 1.3167
v -0.1523 1.093 -1.8575
v -0.3856 1.0861 -1.8283
v -0.3882 1.0047 -1.9392
v -0.1527 1.173 -1.7478
v -0.1524 1.0068 -1.9654
v -0.4662 1.0026 -1.914
v -0.4885 1.0717 -1.8027
v -0.3865 1.1642 -1.7181
v -0.1545 1.2446 -1.634
v -0.5283 1.0004 -1.881
v -0.556 1.0535 -1.7692
v -0.5664 1.0038 -1.8336
v -0.6162 1.016 -1.7418
v -0.5147 1.1371 -1.6895
v -0.3898 1.2403 -1.5994
v -0.5353 1.1932 -1.5689
v -0.5883 1.0982 -1.6611
v -0.6412 1.0387 -1.6535
v -0.6132 1.1422 -1.5309
v -0.6729 1.1007 -1.5015
v 8.759649E-17 1.245 -1.6395
v 1.305177E-16 1.1729 -1.7607
v 1.721511E-16 1.0938 -1.8691
v 2.142951E-16 1.0074 -1.9725
v 0.7135 1.0506 -1.1154
v 0.6451 1.2074 -0.9487998
v 0.6645 1.1478 -1.1605
v 0.7409 1.0039 -0.9492998
v 0.7545 0.9739001 -0.6641998
v 0.6178 1.2602 -0.6993998
v 0.7714 0.9527999 0.2010002
v 0.7771 0.9569999 0.6520002
v 0.6656 1.2369 0.3957002
v 0.6472 1.2768 0.2218002
v 0.6283 1.3073 -0.1012998
v 0.7115 1.1294 0.6435002
v 0.7542 0.9707001 -0.5673998
v 0.6218 1.2927 -0.3802998
v 0.6167 1.2753 -0.5840998
v 0.2603 1.317 0.4752002
v -4.484413E-16 1.2239 0.7957002
v -4.011236E-16 1.3169 0.4896002
v 0.3088 1.2161 0.7787002
v 0.5731 1.317 0.4455002
v 0.6305 1.1771 0.7492002
v 0.3243 1.0788 1.046
v 0.6753 1.0703 0.9553002
v 0.3411 0.9395998 1.3016
v -4.785061E-16 1.0827 1.0723
v 0.6912 0.9591998 1.185
v 0.6964 0.9937998 1.1079
v 0.4827 0.9360998 1.2824
v -5.009104E-16 0.9391998 1.3167
v 0.1523 1.093 -1.8575
v 0.3882 1.0047 -1.9392
v 0.3856 1.0861 -1.8283
v 0.1526 1.173 -1.7478
v 0.1523 1.0068 -1.9654
v 0.4662 1.0026 -1.914
v 0.4885 1.0717 -1.8027
v 0.3864 1.1642 -1.7181
v 0.1545 1.2446 -1.634
v 0.5282 1.0004 -1.881
v 0.556 1.0535 -1.7692
v 0.5664 1.0038 -1.8336
v 0.6161 1.016 -1.7418
v 0.5147 1.1371 -1.6895
v 0.3897 1.2403 -1.5994
v 0.5353 1.1932 -1.5689
v 0.5882 1.0982 -1.6611
v 0.6412 1.0387 -1.6535
v 0.6131 1.1422 -1.5309
v 0.6728 1.1007 -1.5015
v 8.759649E-17 1.245 -1.6395
v 1.305177E-16 1.1729 -1.7607
v 1.721511E-16 1.0938 -1.8691
v 2.142951E-16 1.0074 -1.9725
vt 0.3931 0.7897
vt 0.3461 0.7699
vt 0.3191 0.8627
vt 0.4163 0.8624
vt 0.4305 0.9873
vt 0.2936 0.9719
vt 0.6098 0.4842
vt 0.7335 0.5806
vt 0.7967 0.4203
vt 0.6678 0.6235
vt 0.539 0.6842
vt 0.8194 0.4971
vt 0.295 0.6038
vt 0.4218 0.7195
vt 0.3353 0.7428
vt 0.5053 0.0461
vt 0.4004 0.0491
vt 0.3969 0.1909
vt 0.522 0.1921
vt 0.6323 0.0375
vt 0.6517 0.1841
vt 0.5257 0.2947
vt 0.6674 0.2862
vt 0.4952 0.4217
vt 0.3943 0.2968
vt 0.6675 0.3863
vt 0.6789 0.3699
vt 0.5768 0.4177
vt 0.3912 0.4234
vt 0.1903 0.7789
vt 0.1652 0.8708
vt 0.2225 0.882
vt 0.1318 0.7686
vt 0.2479 0.7892
vt 0.2085 0.9129
vt 0.1522 0.9124
vt 0.107 0.8607
vt 0.0747 0.7594
vt 0.1928 0.9375
vt 0.1392 0.9418
vt 0.1723 0.9522
vt 0.1331 0.9714
vt 0.094 0.9136
vt 0.047 0.8519
vt 0.0363 0.9147
vt 0.0868 0.9492
vt 0.0922 0.981
vt 0.0271 0.9558
vt 0.0208 0.9859
vt 0.0874 0.6981
vt 0.1471 0.7086
vt 0.2048 0.7188
vt 0.261 0.7287
vt 0.3931 0.7897
vt 0.3191 0.8627
vt 0.3461 0.7699
vt 0.4163 0.8624
vt 0.4305 0.9873
vt 0.2936 0.9719
vt 0.6098 0.4842
vt 0.7967 0.4203
vt 0.7335 0.5806
vt 0.6678 0.6235
vt 0.539 0.6842
vt 0.8194 0.4971
vt 0.295 0.6038
vt 0.4218 0.7195
vt 0.3353 0.7428
vt 0.5053 0.0461
vt 0.3969 0.1909
vt 0.4004 0.0491
vt 0.522 0.1921
vt 0.6323 0.0375
vt 0.6517 0.1841
vt 0.5257 0.2947
vt 0.6674 0.2862
vt 0.4952 0.4217
vt 0.3943 0.2968
vt 0.6675 0.3863
vt 0.6789 0.3699
vt 0.5768 0.4177
vt 0.3912 0.4234
vt 0.1903 0.7789
vt 0.2225 0.882
vt 0.1652 0.8708
vt 0.1318 0.7686
vt 0.2479 0.7892
vt 0.2085 0.9129
vt 0.1522 0.9124
vt 0.107 0.8607
vt 0.0747 0.7594
vt 0.1928 0.9375
vt 0.1392 0.9418
vt 0.1723 0.9522
vt 0.1331 0.9714
vt 0.094 0.9136
vt 0.047 0.8519
vt 0.0363 0.9147
vt 0.0868 0.9492
vt 0.0922 0.981
vt 0.0271 0.9558
vt 0.0208 0.9859
vt 0.0874 0.6981
vt 0.1471 0.7086
vt 0.2048 0.7188
vt 0.261 0.7287
vn -0.901677 0.430999 -0.03490869
vn -0.8992478 0.4355863 -0.04022451
vn -0.9029734 0.4295521 -0.01113087
vn -0.9045173 0.4262845 -0.01139683
vn -0.9032201 0.4291497 0.004898447
vn -0.9020344 0.4316013 0.007365322
vn -0.9326379 0.3604604 -0.01596237
vn -0.9336222 0.3578893 -0.01627265
vn -0.9340968 0.3566192 -0.01690987
vn -0.933174 0.3589289 -0.01887918
vn -0.9283623 0.3710904 -0.02086462
vn -0.9347671 0.3547388 -0.01925513
vn -0.9207115 0.3886749 -0.03495965
vn -0.9138736 0.4032368 -0.04727656
vn -0.9111053 0.4081228 -0.05764483
vn -0.02876152 0.9518658 0.3051628
vn 0 0.9568139 0.2907013
vn 0 0.924438 0.3813324
vn -0.08255211 0.9160237 0.3925374
vn -0.08797327 0.9318762 0.3519481
vn -0.1426659 0.8976362 0.4170079
vn -0.09126343 0.8811631 0.4639209
vn -0.1263003 0.8899807 0.4381582
vn -0.06764644 0.8851557 0.4603514
vn 0 0.8762872 0.4817891
vn -0.0995302 0.8999178 0.4245487
vn -0.2276181 0.882681 0.4111744
vn -0.0740566 0.9230369 0.3775162
vn 0 0.8701235 0.4928337
vn -0.07003518 0.7949409 -0.6026309
vn -0.1702033 0.8019422 -0.5726425
vn -0.143502 0.7948352 -0.5896135
vn -0.0694271 0.8277017 -0.556857
vn -0.05893284 0.7766737 -0.6271402
vn -0.2555252 0.7892375 -0.5584005
vn -0.3422337 0.7776732 -0.5273523
vn -0.1889858 0.8158285 -0.546542
vn -0.06143007 0.843483 -0.5336317
vn -0.3885014 0.7642178 -0.5148183
vn -0.5351519 0.7040918 -0.4667625
vn -0.543945 0.704502 -0.4558515
vn -0.639718 0.644432 -0.4188894
vn -0.4224666 0.7672558 -0.4825354
vn -0.2162442 0.8302531 -0.5137299
vn -0.5003388 0.7616903 -0.4116905
vn -0.6366659 0.6613144 -0.3966355
vn -0.7103944 0.6056193 -0.3585598
vn -0.6529369 0.6593434 -0.3727461
vn -0.6477148 0.6486428 -0.39966
vn 0 0.853448 -0.5211781
vn 1.028391E-05 0.8333904 -0.5526847
vn 0 0.7905524 -0.6123945
vn 1.054251E-05 0.7673688 -0.641206
vn 0.9019249 0.4304835 -0.0348627
vn 0.9031149 0.4292522 -0.01122541
vn 0.8995763 0.4349273 -0.04000931
vn 0.9046858 0.4259198 -0.0116598
vn 0.9033003 0.4289828 0.004730868
vn 0.9020344 0.4316013 0.007365322
vn 0.9326562 0.3604175 -0.01586241
vn 0.9340966 0.3566196 -0.01690999
vn 0.9336222 0.3578894 -0.01627274
vn 0.9331802 0.3589208 -0.01872418
vn 0.9283966 0.3710124 -0.02072677
vn 0.9347669 0.3547394 -0.01925513
vn 0.9207372 0.3886184 -0.03491195
vn 0.9138736 0.4032368 -0.04727656
vn 0.9111053 0.4081228 -0.05764483
vn 0.02876069 0.9518661 0.3051619
vn 0 0.924438 0.3813324
vn 0 0.9568139 0.2907013
vn 0.08252929 0.9160316 0.392524
vn 0.08795812 0.9318727 0.3519612
vn 0.1426508 0.8976362 0.4170131
vn 0.09128772 0.8811577 0.4639264
vn 0.1263122 0.8899656 0.4381855
vn 0.06764379 0.8851569 0.4603494
vn 0 0.8762872 0.4817891
vn 0.09946659 0.8999295 0.4245391
vn 0.2255568 0.8830571 0.4115025
vn 0.07397619 0.9231352 0.3772918
vn 0 0.8701235 0.4928337
vn 0.07004212 0.7949428 -0.6026277
vn 0.1434978 0.79483 -0.5896217
vn 0.1702139 0.8019773 -0.5725902
vn 0.06942359 0.8277079 -0.5568483
vn 0.05891757 0.7766498 -0.6271713
vn 0.2556857 0.7891843 -0.5584021
vn 0.3422807 0.7776306 -0.5273848
vn 0.1888893 0.8158656 -0.5465201
vn 0.0614578 0.8434632 -0.5336598
vn 0.3885851 0.764089 -0.5149463
vn 0.5354714 0.7039384 -0.4666273
vn 0.5434924 0.704705 -0.4560778
vn 0.6399812 0.6442873 -0.41871
vn 0.4225968 0.767229 -0.482464
vn 0.2161411 0.830274 -0.5137392
vn 0.5005832 0.7615399 -0.4116714
vn 0.6366623 0.6613406 -0.3965977
vn 0.7098048 0.6061088 -0.3589002
vn 0.6530219 0.6593551 -0.3725766
vn 0.6477017 0.6488641 -0.3993219
vn 0 0.853448 -0.5211781
vn 1.028391E-05 0.8333904 -0.5526847
vn 0 0.7905524 -0.6123945
vn 1.054251E-05 0.7673688 -0.641206
g Glass_25_0
f 3/3/3 2/2/2 1/1/1
f 4/4/4 3/3/3 1/1/1
f 5/5/5 3/3/3 4/4/4
f 6/6/6 3/3/3 5/5/5
f 9/9/9 8/8/8 7/7/7
f 10/10/10 7/7/7 8/8/8
f 11/11/11 7/7/7 10/10/10
f 12/12/12 8/8/8 9/9/9
f 13/13/13 7/7/7 11/11/11
f 14/14/14 13/13/13 11/11/11
f 13/13/13 14/14/14 15/15/15
f 18/18/18 17/17/17 16/16/16
f 19/19/19 18/18/18 16/16/16
f 20/20/20 19/19/19 16/16/16
f 21/21/21 19/19/19 20/20/20
f 21/21/21 22/22/22 19/19/19
f 23/23/23 22/22/22 21/21/21
f 24/24/24 22/22/22 23/23/23
f 22/22/22 25/25/25 19/19/19
f 19/19/19 25/25/25 18/18/18
f 26/26/26 24/24/24 23/23/23
f 27/27/27 26/26/26 23/23/23
f 28/28/28 24/24/24 26/26/26
f 24/24/24 29/29/29 22/22/22
f 22/22/22 29/29/29 25/25/25
f 32/32/32 31/31/31 30/30/30
f 33/33/33 30/30/30 31/31/31
f 34/34/34 32/32/32 30/30/30
f 32/32/32 35/35/35 31/31/31
f 35/35/35 36/36/36 31/31/31
f 37/37/37 31/31/31 36/36/36
f 37/37/37 33/33/33 31/31/31
f 38/38/38 33/33/33 37/37/37
f 35/35/35 39/39/39 36/36/36
f 39/39/39 40/40/40 36/36/36
f 41/41/41 40/40/40 39/39/39
f 41/41/41 42/42/42 40/40/40
f 43/43/43 36/36/36 40/40/40
f 43/43/43 37/37/37 36/36/36
f 44/44/44 37/37/37 43/43/43
f 44/44/44 38/38/38 37/37/37
f 45/45/45 44/44/44 43/43/43
f 45/45/45 43/43/43 46/46/46
f 40/40/40 42/42/42 46/46/46
f 46/46/46 43/43/43 40/40/40
f 47/47/47 46/46/46 42/42/42
f 48/48/48 46/46/46 47/47/47
f 48/48/48 45/45/45 46/46/46
f 49/49/49 48/48/48 47/47/47
f 38/38/38 50/50/50 33/33/33
f 50/50/50 51/51/51 33/33/33
f 33/33/33 51/51/51 30/30/30
f 51/51/51 52/52/52 30/30/30
f 30/30/30 52/52/52 34/34/34
f 34/34/34 52/52/52 53/53/53
f 56/56/56 55/55/55 54/54/54
f 55/55/55 57/57/57 54/54/54
f 55/55/55 58/58/58 57/57/57
f 55/55/55 59/59/59 58/58/58
f 62/62/62 61/61/61 60/60/60
f 60/60/60 63/63/63 62/62/62
f 60/60/60 64/64/64 63/63/63
f 62/62/62 65/65/65 61/61/61
f 60/60/60 66/66/66 64/64/64
f 66/66/66 67/67/67 64/64/64
f 67/67/67 66/66/66 68/68/68
f 71/71/71 70/70/70 69/69/69
f 70/70/70 72/72/72 69/69/69
f 72/72/72 73/73/73 69/69/69
f 72/72/72 74/74/74 73/73/73
f 75/75/75 74/74/74 72/72/72
f 75/75/75 76/76/76 74/74/74
f 75/75/75 77/77/77 76/76/76
f 78/78/78 75/75/75 72/72/72
f 78/78/78 72/72/72 70/70/70
f 77/77/77 79/79/79 76/76/76
f 79/79/79 80/80/80 76/76/76
f 77/77/77 81/81/81 79/79/79
f 82/82/82 77/77/77 75/75/75
f 82/82/82 75/75/75 78/78/78
f 85/85/85 84/84/84 83/83/83
f 83/83/83 86/86/86 85/85/85
f 84/84/84 87/87/87 83/83/83
f 88/88/88 84/84/84 85/85/85
f 89/89/89 88/88/88 85/85/85
f 85/85/85 90/90/90 89/89/89
f 86/86/86 90/90/90 85/85/85
f 86/86/86 91/91/91 90/90/90
f 92/92/92 88/88/88 89/89/89
f 93/93/93 92/92/92 89/89/89
f 93/93/93 94/94/94 92/92/92
f 95/95/95 94/94/94 93/93/93
f 89/89/89 96/96/96 93/93/93
f 90/90/90 96/96/96 89/89/89
f 90/90/90 97/97/97 96/96/96
f 91/91/91 97/97/97 90/90/90
f 97/97/97 98/98/98 96/96/96
f 96/96/96 98/98/98 99/99/99
f 95/95/95 93/93/93 99/99/99
f 96/96/96 99/99/99 93/93/93
f 99/99/99 100/100/100 95/95/95
f 99/99/99 101/101/101 100/100/100
f 98/98/98 101/101/101 99/99/99
f 101/101/101 102/102/102 100/100/100
f 103/103/103 91/91/91 86/86/86
f 104/104/104 103/103/103 86/86/86
f 104/104/104 86/86/86 83/83/83
f 105/105/105 104/104/104 83/83/83
f 105/105/105 83/83/83 87/87/87
f 105/105/105 87/87/87 106/106/106
