g Tailllights_25
v -0.5925 0.7547003 -1.9818
v -0.5597 0.8325003 -1.9835
v -0.622 0.8406004 -1.9213
v -0.5814 0.9429004 -1.9189
v -0.6441 0.7609004 -1.9232
v -0.6768 0.8486003 -1.8496
v -0.6346 0.9371003 -1.8513
v -0.7033 0.7721003 -1.8481
v -0.7294 0.8615003 -1.7564
v -0.6948 0.9317003 -1.7583
v -0.751 0.7972003 -1.7546
v -0.7423 0.8710003 -1.6888
v -0.7144 0.9339003 -1.6858
v -0.7604 0.8103003 -1.6986
v -0.5316 0.9442003 -1.964
v 0.5925 0.7547003 -1.9818
v 0.622 0.8406004 -1.9213
v 0.5597 0.8325003 -1.9835
v 0.5815 0.9429004 -1.9189
v 0.6442 0.7609004 -1.9232
v 0.6768 0.8486003 -1.8496
v 0.6346 0.9371003 -1.8513
v 0.7034 0.7721003 -1.8481
v 0.7294 0.8615003 -1.7564
v 0.6948 0.9317003 -1.7583
v 0.751 0.7972003 -1.7546
v 0.7423 0.8710003 -1.6888
v 0.7145 0.9339003 -1.6858
v 0.7605 0.8103003 -1.6986
v 0.5317 0.9442003 -1.964
vt 0.0999 0.7747
vt 0.0883 0.8593
vt 0.176 0.8596
vt 0.1655 0.9668
vt 0.1774 0.772
vt 0.2656 0.8582
vt 0.25 0.9528
vt 0.2731 0.7738
vt 0.3723 0.8659
vt 0.3599 0.9396
vt 0.38 0.7938
vt 0.442 0.8744
vt 0.4364 0.9439
vt 0.4377 0.8092
vt 0.1005 0.9776
vt 0.0999 0.7747
vt 0.176 0.8596
vt 0.0883 0.8593
vt 0.1655 0.9668
vt 0.1774 0.772
vt 0.2656 0.8582
vt 0.25 0.9528
vt 0.2731 0.7738
vt 0.3723 0.8659
vt 0.3599 0.9396
vt 0.38 0.7938
vt 0.442 0.8744
vt 0.4364 0.9439
vt 0.4377 0.8092
vt 0.1005 0.9776
vn -0.6923302 0.2412136 -0.6800697
vn -0.6595844 0.2733769 -0.7001525
vn -0.7174411 0.2696838 -0.6422997
vn -0.6987916 0.2971111 -0.6507037
vn -0.7382317 0.2256993 -0.6356679
vn -0.7760087 0.3045123 -0.552343
vn -0.76502 0.3419537 -0.5457217
vn -0.7862144 0.2589928 -0.5610612
vn -0.8650764 0.3463347 -0.3628981
vn -0.8348024 0.3933395 -0.385213
vn -0.8828729 0.2861556 -0.3723579
vn -0.9004057 0.3689176 -0.2305848
vn -0.8805411 0.4025106 -0.2502651
vn -0.9248517 0.3078562 -0.2233248
vn -0.6472825 0.2861711 -0.7064924
vn 0.6919407 0.2415445 -0.6803488
vn 0.7173823 0.2697903 -0.6423208
vn 0.6596555 0.2730765 -0.7002026
vn 0.6991782 0.2965952 -0.6505238
vn 0.737757 0.2265111 -0.6359303
vn 0.7758467 0.3049757 -0.5523149
vn 0.7652369 0.3417849 -0.5455232
vn 0.7860822 0.2597789 -0.560883
vn 0.8649335 0.346612 -0.362974
vn 0.8348109 0.3930495 -0.3854903
vn 0.8827601 0.2861114 -0.3726593
vn 0.9002026 0.3691826 -0.2309533
vn 0.8807587 0.4012627 -0.2515
vn 0.9244432 0.3084802 -0.2241531
vn 0.6473814 0.2856391 -0.706617
g Tailllights_25_0
f 3/3/3 2/2/2 1/1/1
f 4/4/4 2/2/2 3/3/3
f 5/5/5 3/3/3 1/1/1
f 6/6/6 3/3/3 5/5/5
f 7/7/7 3/3/3 6/6/6
f 4/4/4 3/3/3 7/7/7
f 8/8/8 6/6/6 5/5/5
f 9/9/9 6/6/6 8/8/8
f 10/10/10 6/6/6 9/9/9
f 7/7/7 6/6/6 10/10/10
f 11/11/11 9/9/9 8/8/8
f 9/9/9 12/12/12 10/10/10
f 10/10/10 12/12/12 13/13/13
f 14/14/14 12/12/12 9/9/9
f 11/11/11 14/14/14 9/9/9
f 15/15/15 2/2/2 4/4/4
f 18/18/18 17/17/17 16/16/16
f 18/18/18 19/19/19 17/17/17
f 17/17/17 20/20/20 16/16/16
f 17/17/17 21/21/21 20/20/20
f 17/17/17 22/22/22 21/21/21
f 17/17/17 19/19/19 22/22/22
f 21/21/21 23/23/23 20/20/20
f 21/21/21 24/24/24 23/23/23
f 21/21/21 25/25/25 24/24/24
f 21/21/21 22/22/22 25/25/25
f 24/24/24 26/26/26 23/23/23
f 27/27/27 24/24/24 25/25/25
f 27/27/27 25/25/25 28/28/28
f 27/27/27 29/29/29 24/24/24
f 29/29/29 26/26/26 24/24/24
f 18/18/18 30/30/30 19/19/19
