g model_car_40_matte_detail_LOD1
v 0.6454607 0.5077565 2.121497
v 0.6420552 0.348727 2.034304
v 0.4441448 0.348727 2.060796
v 0.4441448 0.5077491 2.152863
v 0.2023063 0.5077491 2.174964
v 0.2023063 0.348727 2.075805
v 8.34465E-07 0.5081048 2.178058
v 8.34465E-07 0.3487084 2.08073
v 0.10543 0.8030248 -1.114515
v 0.1065751 0.8030248 -1.70772
v 0.4853789 0.8030248 -1.70772
v 0.4376374 0.8030248 -1.114949
v 0.1864789 0.7592189 1.400369
v 8.34465E-07 0.7601342 1.400369
v 8.34465E-07 0.766686 1.349945
v 0.1864789 0.7658856 1.349945
v 8.34465E-07 0.7721038 1.299516
v 0.1864789 0.7714257 1.299516
v 8.34465E-07 0.7762802 1.249092
v 0.1864789 0.7757835 1.249092
v 0.1864789 0.7512515 1.450793
v 8.34465E-07 0.7522926 1.450793
v 0.1864789 0.7420092 1.501221
v 8.34465E-07 0.7431395 1.501221
v 0.1864789 0.7316813 1.551646
v 8.34465E-07 0.7328634 1.551646
v 0.372957 0.7282832 1.551646
v 0.372957 0.7388036 1.501221
v 0.372957 0.7483239 1.450793
v 0.372957 0.7566507 1.400369
v 0.372957 0.7695394 1.299516
v 0.372957 0.7743161 1.249092
v 0.372957 0.7636695 1.349945
v -0.6454592 0.5077565 2.121497
v -0.4441431 0.5077491 2.152863
v -0.4441431 0.348727 2.060796
v -0.6420572 0.348727 2.034304
v -0.2023046 0.5077491 2.174964
v -0.2023046 0.348727 2.075805
v 8.34465E-07 0.5081048 2.178058
v 8.34465E-07 0.3487084 2.08073
v -0.1864772 0.7592189 1.400369
v -0.1864772 0.7658856 1.349945
v 8.34465E-07 0.766686 1.349945
v 8.34465E-07 0.7601342 1.400369
v 8.34465E-07 0.7721038 1.299516
v -0.1864772 0.7714257 1.299516
v 8.34465E-07 0.7762802 1.249092
v -0.1864772 0.7757835 1.249092
v -0.1864772 0.7512515 1.450793
v 8.34465E-07 0.7522926 1.450793
v -0.1864772 0.7420092 1.501221
v 8.34465E-07 0.7431395 1.501221
v -0.1864772 0.7316813 1.551646
v 8.34465E-07 0.7328634 1.551646
v -0.3729553 0.7282832 1.551646
v -0.3729553 0.7388036 1.501221
v -0.3729553 0.7483239 1.450793
v -0.3729553 0.7566507 1.400369
v -0.3729553 0.7695394 1.299516
v -0.3729553 0.7743161 1.249092
v -0.3729553 0.7636695 1.349945
v -0.1054283 0.8030248 -1.114515
v -0.4376359 0.8030248 -1.114949
v -0.4853809 0.8030248 -1.70772
v -0.1065772 0.8030248 -1.70772
vn 0.1255902 -0.4878662 0.8638366
vn 0.1255902 -0.4878662 0.8638366
vn 0.09577322 -0.5012839 0.8599663
vn 0.09428236 -0.5012839 0.860131
vn 0.04061183 -0.519174 0.8537031
vn 0.04210269 -0.519174 0.8536309
vn 0.0003589392 -0.5251374 0.8510174
vn 0.0003589392 -0.5251374 0.8510174
vn 0.0003589392 1 0
vn 0.0003589392 1 0
vn 0.0003589392 1 0
vn 0.0003589392 1 0
vn 0.009304047 0.9895641 0.143793
vn 0.0003589392 0.9895641 0.1440932
vn 0.0003589392 0.9925458 0.1218714
vn 0.007813215 0.9925458 0.1216212
vn 0.0003589392 0.9955275 0.09447138
vn 0.006322324 0.9955275 0.0942601
vn 0.0003589392 0.9970183 0.07716428
vn 0.006322324 0.9955275 0.0942601
vn 0.01079488 0.9850916 0.1716918
vn 0.0003589392 0.9865824 0.1632638
vn 0.01079488 0.9821099 0.1879989
vn 0.0003589392 0.9821099 0.1883082
vn 0.01228571 0.9791281 0.2028723
vn 0.0003589392 0.9791281 0.2032437
vn 0.01675826 0.9791281 0.2025518
vn 0.01675826 0.980619 0.1952066
vn 0.01526743 0.9850916 0.1713519
vn 0.0137766 0.9895641 0.1434336
vn 0.009304047 0.9955275 0.09401285
vn 0.009304047 0.9955275 0.09401285
vn 0.01228571 0.9925458 0.1212512
vn -0.1248723 -0.4878662 0.8639407
vn -0.09356445 -0.5012839 0.8602094
vn -0.09654617 -0.5012839 0.8598799
vn -0.1248723 -0.4878662 0.8639407
vn -0.03989393 -0.519174 0.853737
vn -0.04138482 -0.519174 0.853666
vn 0.0003589392 -0.5251374 0.8510174
vn 0.0003589392 -0.5251374 0.8510174
vn -0.008586168 0.9895641 0.1438376
vn -0.008586168 0.9925458 0.121569
vn 0.0003589392 0.9925458 0.1218714
vn 0.0003589392 0.9895641 0.1440932
vn 0.0003589392 0.9955275 0.09447138
vn -0.007095277 0.9955275 0.09420507
vn 0.0003589392 0.9970183 0.07716428
vn -0.005604446 0.9955275 0.09430562
vn -0.010077 0.9850916 0.1717354
vn 0.0003589392 0.9865824 0.1632638
vn -0.01156783 0.9821099 0.1879529
vn 0.0003589392 0.9821099 0.1883082
vn -0.01156783 0.9791281 0.2029145
vn 0.0003589392 0.9791281 0.2032437
vn -0.01753122 0.9791281 0.2024865
vn -0.01604038 0.980619 0.1952669
vn -0.01604038 0.9850916 0.1712813
vn -0.01305866 0.9895641 0.1435007
vn -0.010077 0.9955275 0.09393293
vn -0.008586168 0.9955275 0.09408098
vn -0.01156783 0.9925458 0.1213217
vn 0.0003589392 1 0
vn 0.0003589392 1 0
vn 0.0003589392 1 0
vn 0.0003589392 1 0
g model_car_40_matte_detail_LOD1_0
f 3/3/3 2/2/2 1/1/1
f 4/4/4 3/3/3 1/1/1
f 3/3/3 4/4/4 5/5/5
f 6/6/6 3/3/3 5/5/5
f 5/5/5 7/7/7 6/6/6
f 7/7/7 8/8/8 6/6/6
f 11/11/11 10/10/10 9/9/9
f 12/12/12 11/11/11 9/9/9
f 15/15/15 14/14/14 13/13/13
f 16/16/16 15/15/15 13/13/13
f 17/17/17 15/15/15 16/16/16
f 18/18/18 17/17/17 16/16/16
f 19/19/19 17/17/17 18/18/18
f 20/20/20 19/19/19 18/18/18
f 13/13/13 14/14/14 21/21/21
f 14/14/14 22/22/22 21/21/21
f 21/21/21 22/22/22 23/23/23
f 22/22/22 24/24/24 23/23/23
f 23/23/23 24/24/24 25/25/25
f 24/24/24 26/26/26 25/25/25
f 23/23/23 25/25/25 27/27/27
f 28/28/28 23/23/23 27/27/27
f 21/21/21 23/23/23 28/28/28
f 13/13/13 21/21/21 29/29/29
f 29/29/29 21/21/21 28/28/28
f 30/30/30 13/13/13 29/29/29
f 16/16/16 13/13/13 30/30/30
f 20/20/20 18/18/18 31/31/31
f 32/32/32 20/20/20 31/31/31
f 31/31/31 18/18/18 33/33/33
f 18/18/18 16/16/16 33/33/33
f 33/33/33 16/16/16 30/30/30
f 36/36/36 35/35/35 34/34/34
f 37/37/37 36/36/36 34/34/34
f 35/35/35 36/36/36 38/38/38
f 36/36/36 39/39/39 38/38/38
f 40/40/40 38/38/38 39/39/39
f 41/41/41 40/40/40 39/39/39
f 44/44/44 43/43/43 42/42/42
f 45/45/45 44/44/44 42/42/42
f 44/44/44 46/46/46 43/43/43
f 46/46/46 47/47/47 43/43/43
f 46/46/46 48/48/48 47/47/47
f 48/48/48 49/49/49 47/47/47
f 45/45/45 42/42/42 50/50/50
f 51/51/51 45/45/45 50/50/50
f 51/51/51 50/50/50 52/52/52
f 53/53/53 51/51/51 52/52/52
f 53/53/53 52/52/52 54/54/54
f 55/55/55 53/53/53 54/54/54
f 54/54/54 52/52/52 56/56/56
f 52/52/52 57/57/57 56/56/56
f 52/52/52 50/50/50 57/57/57
f 50/50/50 42/42/42 58/58/58
f 50/50/50 58/58/58 57/57/57
f 42/42/42 59/59/59 58/58/58
f 47/47/47 49/49/49 60/60/60
f 49/49/49 61/61/61 60/60/60
f 47/47/47 60/60/60 62/62/62
f 43/43/43 47/47/47 62/62/62
f 43/43/43 62/62/62 59/59/59
f 42/42/42 43/43/43 59/59/59
f 65/65/65 64/64/64 63/63/63
f 66/66/66 65/65/65 63/63/63
