g ref_38
v 0.8139 0.6974997 1.9522
v 0.7238 0.6663997 2.1073
v 0.7514 0.6974996 2.0348
v 0.8122 0.6689997 2.0001
v 0.8005 0.6205996 2.0648
v 0.7889 0.5862997 2.1027
v 0.6859 0.5861986 2.1987
v 0.5992 0.5809987 2.2457
v 0.6368 0.6631986 2.1777
v 0.5902 0.5578986 2.2562
v 0.6836 0.5601987 2.2052
v 0.7686 0.5657986 2.1293
v 0.6982 0.6974996 2.0901
v 0.5866 0.6974986 2.187
v 0.5584 0.6602986 2.2348
v 0.5033 0.5695986 2.2978
v 0.5196 0.5556986 2.2951
v -0.8268 0.6974997 1.9522
v -0.7366 0.6663997 2.1073
v -0.825 0.6689997 2.0001
v -0.7643 0.6974996 2.0348
v -0.8134 0.6205996 2.0648
v -0.8017 0.5862997 2.1027
v -0.6987 0.5861986 2.1987
v -0.6121 0.5809987 2.2457
v -0.6497 0.6631986 2.1777
v -0.6031 0.5578986 2.2562
v -0.6965 0.5601987 2.2052
v -0.7814 0.5657986 2.1293
v -0.711 0.6974996 2.0901
v -0.5994 0.6974986 2.187
v -0.5713 0.6602986 2.2348
v -0.5162 0.5695986 2.2978
v -0.5325 0.5556986 2.2951
vt 0.6175 0.3853
vt 0.5892 0.4514
vt 0.6097 0.4255
vt 0.599 0.3975
vt 0.5727 0.416
vt 0.5558 0.4281
vt 0.5506 0.4833
vt 0.5504 0.5222
vt 0.586 0.4954
vt 0.5411 0.5276
vt 0.5402 0.4853
vt 0.5461 0.4403
vt 0.606 0.4557
vt 0.6017 0.514
vt 0.584 0.5337
vt 0.547 0.5655
vt 0.541 0.5595
vt 0.6051 0.7756
vt 0.5817 0.7076
vt 0.5876 0.7622
vt 0.6002 0.735
vt 0.5626 0.7417
vt 0.5467 0.7284
vt 0.5455 0.673
vt 0.5481 0.6342
vt 0.5818 0.6635
vt 0.5393 0.6281
vt 0.5353 0.6703
vt 0.5379 0.7156
vt 0.5988 0.7045
vt 0.5987 0.6461
vt 0.5825 0.6252
vt 0.548 0.5908
vt 0.5415 0.5964
vn 0.560229 0.6867566 0.463151
vn 0.5466762 0.5883151 0.5958443
vn 0.6317083 0.5957329 0.4960313
vn 0.5528489 0.6863406 0.4725406
vn 0.6302786 0.5234904 0.5733293
vn 0.6275942 0.426643 0.6512306
vn 0.5121356 0.3843743 0.7680973
vn 0.4628001 0.3106897 0.8302338
vn 0.5436769 0.477953 0.6899105
vn 0.4496444 0.2232144 0.8648672
vn 0.5508466 0.1562356 0.8198527
vn 0.6577888 0.2523514 0.7096708
vn 0.4866586 0.6824111 0.5454159
vn 0.4999169 0.550342 0.6687352
vn 0.4876366 0.3980783 0.7770098
vn 0.4322242 0.3269733 0.8403991
vn 0.4419197 0.3584837 0.8223116
vn -0.5610051 0.6857144 0.4637555
vn -0.5466639 0.5882308 0.5959387
vn -0.5532417 0.6858094 0.4728521
vn -0.6323361 0.5945594 0.4966389
vn -0.6297862 0.523808 0.5735804
vn -0.6273275 0.4264266 0.6516291
vn -0.5120624 0.3851829 0.767741
vn -0.463014 0.3105564 0.8301643
vn -0.5437365 0.4782726 0.6896419
vn -0.4497465 0.2232731 0.8647989
vn -0.550988 0.1582221 0.8193765
vn -0.6577817 0.2525553 0.7096049
vn -0.4865125 0.6824857 0.5454528
vn -0.4995015 0.5513232 0.6682372
vn -0.4875704 0.3983668 0.7769035
vn -0.432225 0.3269731 0.8403988
vn -0.4419227 0.3584837 0.82231
g ref_38_0
f 3/3/3 2/2/2 1/1/1
f 4/4/4 1/1/1 2/2/2
f 4/4/4 2/2/2 5/5/5
f 2/2/2 6/6/6 5/5/5
f 2/2/2 7/7/7 6/6/6
f 7/7/7 2/2/2 8/8/8
f 9/9/9 8/8/8 2/2/2
f 8/8/8 10/10/10 7/7/7
f 11/11/11 7/7/7 10/10/10
f 11/11/11 12/12/12 7/7/7
f 7/7/7 12/12/12 6/6/6
f 9/9/9 2/2/2 13/13/13
f 3/3/3 13/13/13 2/2/2
f 13/13/13 14/14/14 9/9/9
f 15/15/15 9/9/9 14/14/14
f 9/9/9 15/15/15 8/8/8
f 16/16/16 8/8/8 15/15/15
f 8/8/8 16/16/16 10/10/10
f 17/17/17 10/10/10 16/16/16
f 20/20/20 19/19/19 18/18/18
f 21/21/21 18/18/18 19/19/19
f 19/19/19 20/20/20 22/22/22
f 23/23/23 19/19/19 22/22/22
f 24/24/24 19/19/19 23/23/23
f 24/24/24 25/25/25 19/19/19
f 26/26/26 19/19/19 25/25/25
f 25/25/25 24/24/24 27/27/27
f 28/28/28 27/27/27 24/24/24
f 29/29/29 28/28/28 24/24/24
f 29/29/29 24/24/24 23/23/23
f 21/21/21 19/19/19 30/30/30
f 26/26/26 30/30/30 19/19/19
f 30/30/30 26/26/26 31/31/31
f 32/32/32 31/31/31 26/26/26
f 26/26/26 25/25/25 32/32/32
f 33/33/33 32/32/32 25/25/25
f 25/25/25 27/27/27 33/33/33
f 34/34/34 33/33/33 27/27/27
