g Glass_52
v 0.7449 0.7393 0.03500012
v 0.6252 0.9056 0.02790015
v 0.7215 0.7852001 -0.4979999
v 0.625 0.8622999 0.5938001
v 0.5154 1.0272 0.2441002
v 0.7328 0.6963999 0.8395001
v 0.4936 1.0651 0.01939917
v 0.6172 0.9299001 -0.3843999
v 0.5134 1.0522 -0.2769008
v 0.7205 0.7862 -0.5153999
v 0.6161 0.9306 -0.4017999
v 0.6561 0.8410002 -0.9598999
v 0.5995 0.9066002 -0.9462999
v 0.5398 1.0042 -0.5631998
v 0.5151 1.05 -0.2966008
v 0.7215 0.7852001 -0.4979999
v 0.6139 0.9279001 -0.3930998
v 0.7179 0.7837 -0.5064999
v 0.6172 0.9299001 -0.3843999
v 0.5112 1.049 -0.2861998
v 0.5134 1.0522 -0.2769008
v 0.6161 0.9306 -0.4017999
v 0.7179 0.7837 -0.5064999
v 0.6139 0.9279001 -0.3930998
v 0.7205 0.7862 -0.5153999
v 0.5112 1.049 -0.2861998
v 0.5151 1.05 -0.2966008
v 0.3108 1.0615 0.3215992
v 0.3404 0.9267999 0.7011002
v 0.0001 1.074 0.3363992
v 0.0001 0.9334999 0.7423002
v 0.2254 0.6632007 1.3449
v 0.5127 0.6743008 1.2078
v -0.3402 0.9267999 0.7011002
v 0.5793 0.9075999 0.5711001
v 0.481 1.0278 0.3343002
v 0.7166 0.6712998 0.9985001
v 0.0001 0.6569008 1.3833
v -0.2252 0.6632007 1.3449
v -0.5126 0.6743008 1.2078
v -0.7164 0.6712998 0.9985001
v -0.3106 1.0615 0.3215992
v -0.5792 0.9075999 0.5711001
v -0.4809 1.0278 0.3343002
v 0.2254 0.6632007 1.3449
v 0.2254 0.6465008 1.3494
v 0.0001 0.6402007 1.3878
v 0.0001 0.6569008 1.3833
v -0.2252 0.6632007 1.3449
v 0.5127 0.6743008 1.2078
v 0.5127 0.6576008 1.2123
v -0.2252 0.6465008 1.3494
v -0.5126 0.6743008 1.2078
v -0.5126 0.6576008 1.2123
v 0.4661 1.0651 -0.3995008
v 0.1855 1.1024 -0.3256008
v 0.1825 1.0331 -0.7796998
v 0.5138 0.9870001 -0.7615998
v 0.2012 0.8688992 -1.4891
v 0.573 0.8456993 -1.2945
v -0.7447 0.7393 0.03500012
v -0.7214 0.7852001 -0.4979999
v -0.6251 0.9056 0.02790015
v -0.6248 0.8622999 0.5938001
v -0.5153 1.0272 0.2441002
v -0.4935 1.0651 0.01939917
v -0.7327 0.6962999 0.8353001
v -0.617 0.9299001 -0.3825999
v -0.5133 1.0522 -0.2773998
v -0.7204 0.7862 -0.5153999
v -0.656 0.8410002 -0.9598999
v -0.6159 0.9306 -0.3999999
v -0.5994 0.9066002 -0.9462999
v -0.5396 1.0042 -0.5631998
v -0.515 1.05 -0.2971008
v -0.7214 0.7852001 -0.4979999
v -0.6138 0.9279001 -0.3912998
v -0.617 0.9299001 -0.3825999
v -0.7178 0.7837 -0.5064999
v -0.5111 1.049 -0.2867008
v -0.5133 1.0522 -0.2773998
v -0.6159 0.9306 -0.3999999
v -0.7178 0.7837 -0.5064999
v -0.7204 0.7862 -0.5153999
v -0.6138 0.9279001 -0.3912998
v -0.5111 1.049 -0.2867008
v -0.515 1.05 -0.2971008
v -0.466 1.0651 -0.3995008
v -0.5136 0.9870001 -0.7615998
v -0.1823 1.0331 -0.7796998
v -0.2011 0.8688992 -1.4891
v -0.1854 1.1024 -0.3256008
v -0.5728 0.8456993 -1.2945
vt 0.5308 0.0832
vt 0.5406 0.1646
vt 0.7463 0.0861
vt 0.3137 0.1699
vt 0.4599 0.2369
vt 0.2299 0.0975
vt 0.5509 0.2466
vt 0.7084 0.1601
vt 0.6748 0.2277
vt 0.6472 0.5282
vt 0.5879 0.5865
vt 0.8113 0.6046
vt 0.7975 0.6368
vt 0.6377 0.6427
vt 0.5345 0.6372
vt 0.7463 0.0861
vt 0.7122 0.1602
vt 0.7514 0.0871
vt 0.7084 0.1601
vt 0.6788 0.2272
vt 0.6748 0.2277
vt 0.5879 0.5865
vt 0.6436 0.5269
vt 0.5844 0.585
vt 0.6472 0.5282
vt 0.5292 0.6356
vt 0.5345 0.6372
vt 0.4851 0.3644
vt 0.3247 0.3462
vt 0.4762 0.4886
vt 0.3045 0.4818
vt 0.0451 0.3801
vt 0.1028 0.2667
vt 0.3137 0.6177
vt 0.3744 0.2502
vt 0.4786 0.2955
vt 0.1829 0.1823
vt 0.0262 0.4695
vt 0.038 0.5599
vt 0.0848 0.6782
vt 0.1582 0.7684
vt 0.4752 0.6138
vt 0.3544 0.7189
vt 0.4621 0.6836
vt 0.0451 0.3801
vt 0.0384 0.3786
vt 0.0193 0.4693
vt 0.0262 0.4695
vt 0.038 0.5599
vt 0.1028 0.2667
vt 0.0963 0.2645
vt 0.0312 0.561
vt 0.0848 0.6782
vt 0.0781 0.6798
vt 0.9485 0.5536
vt 0.8366 0.5193
vt 0.8308 0.7029
vt 0.9647 0.702
vt 0.8334 0.9939
vt 0.9854 0.9223
vt 0.5483 0.8798
vt 0.7638 0.8773
vt 0.5583 0.7984
vt 0.3314 0.7927
vt 0.4776 0.7259
vt 0.5687 0.7164
vt 0.2474 0.865
vt 0.726 0.8032
vt 0.6925 0.7355
vt 0.6346 0.4051
vt 0.8016 0.3352
vt 0.5776 0.3445
vt 0.7891 0.3025
vt 0.6296 0.2904
vt 0.5263 0.2918
vt 0.7638 0.8773
vt 0.7298 0.8031
vt 0.726 0.8032
vt 0.7689 0.8763
vt 0.6965 0.736
vt 0.6925 0.7355
vt 0.5776 0.3445
vt 0.631 0.4063
vt 0.6346 0.4051
vt 0.5741 0.3459
vt 0.521 0.2932
vt 0.5263 0.2918
vt 0.9459 0.4492
vt 0.9565 0.3002
vt 0.8226 0.3043
vt 0.8144 0.0134
vt 0.8354 0.4876
vt 0.969 0.0793
vn 0.8103017 0.5852082 0.03070256
vn 0.7926232 0.6089549 0.03037022
vn 0.8155142 0.5784905 0.01689235
vn 0.8036827 0.5934011 0.04437511
vn 0.7786165 0.6260014 0.04334104
vn 0.8070394 0.5888901 0.04354091
vn 0.7705766 0.636754 0.02749583
vn 0.8029028 0.5957804 0.01981734
vn 0.7725026 0.6345581 0.02399496
vn 0.7943747 0.6060851 -0.04036941
vn 0.7579717 0.6506646 -0.04598258
vn 0.7606882 0.6472356 -0.04939019
vn 0.7504017 0.6589397 -0.0519213
vn 0.746632 0.6633191 -0.05048161
vn 0.7422908 0.6684923 -0.04607029
vn 0.5862914 0.7179385 -0.3752689
vn 0.5581457 0.7371038 -0.3809873
vn 0.5864509 0.7179121 -0.37507
vn 0.5395483 0.7524161 -0.3778329
vn 0.5085851 0.7701176 -0.3850457
vn 0.5083798 0.7701329 -0.3852861
vn 0.8606223 0.382014 0.3367411
vn 0.8679118 0.3508351 0.3516302
vn 0.8532022 0.3965469 0.3388163
vn 0.8678771 0.3505415 0.3520085
vn 0.8442777 0.4018951 0.3545073
vn 0.8442979 0.4012728 0.3551635
vn 0.1195151 0.932258 0.3414836
vn 0.1685592 0.9191924 0.3559118
vn 0 0.9442828 0.3291351
vn 0 0.932555 0.3610281
vn 0.08451102 0.9144595 0.3957545
vn 0.2327463 0.8997295 0.36921
vn -0.1685235 0.9191951 0.3559216
vn 0.2500687 0.8989763 0.3595933
vn 0.149601 0.9053453 0.3974536
vn 0.3285837 0.8807582 0.3410245
vn 0 0.9181647 0.396199
vn -0.08449459 0.914462 0.3957524
vn -0.2327499 0.8997448 0.3691705
vn -0.3286186 0.8807613 0.3409828
vn -0.1194789 0.9322602 0.3414905
vn -0.2499799 0.898978 0.3596507
vn -0.1495103 0.9053441 0.3974907
vn 0.2943589 0.2486562 0.92278
vn 0.2765793 0.2500339 0.9278938
vn 0 0.2601823 0.9655595
vn 0 0.2601823 0.9655595
vn -0.2942898 0.2486605 0.9228009
vn 0.4109081 0.237197 0.8802795
vn 0.4109082 0.2371967 0.8802796
vn -0.276522 0.2500371 0.92791
vn -0.4107892 0.2372116 0.8803311
vn -0.4107893 0.2372114 0.8803311
vn 0.1125423 0.979615 -0.1663989
vn 0.09112737 0.9843516 -0.1508233
vn 0.1347908 0.9710872 -0.1970311
vn 0.1517691 0.9662724 -0.2080474
vn 0.1682761 0.9590117 -0.2279907
vn 0.1816334 0.9553316 -0.2331329
vn -0.8105401 0.5848712 0.03082714
vn -0.8154508 0.5785808 0.01686012
vn -0.7927325 0.6088107 0.03041
vn -0.8039666 0.5930039 0.04454264
vn -0.7786882 0.6259061 0.04343127
vn -0.7705886 0.6367413 0.02745609
vn -0.807383 0.5884055 0.04372137
vn -0.8027168 0.5960337 0.01974051
vn -0.7725777 0.6344678 0.023964
vn -0.7939167 0.6066943 -0.04022788
vn -0.7606032 0.6473562 -0.0491211
vn -0.7581964 0.6504047 -0.04595577
vn -0.750478 0.6588771 -0.05161246
vn -0.7470217 0.6628941 -0.05029854
vn -0.742983 0.6677113 -0.04623739
vn -0.5838683 0.7202936 -0.3745329
vn -0.5618857 0.7368379 -0.3759714
vn -0.5450497 0.750699 -0.3733254
vn -0.5839444 0.7202806 -0.3744393
vn -0.5137342 0.7667468 -0.3849372
vn -0.5134658 0.7667658 -0.3852572
vn -0.8608304 0.3881839 0.3290659
vn -0.8691286 0.3483587 0.3510865
vn -0.8690812 0.3479399 0.3516187
vn -0.8523582 0.4046223 0.3313101
vn -0.8421786 0.4068283 0.3538729
vn -0.8422064 0.4059111 0.3548584
vn -0.1125396 0.9796107 -0.1664263
vn -0.151775 0.9662699 -0.2080552
vn -0.1347893 0.9710863 -0.1970363
vn -0.1683037 0.9590096 -0.2279789
vn -0.09112184 0.9843491 -0.1508431
vn -0.1816784 0.9553246 -0.2331261
g Glass_52_0
f 3/3/3 2/2/2 1/1/1
f 2/2/2 4/4/4 1/1/1
f 5/5/5 4/4/4 2/2/2
f 4/4/4 6/6/6 1/1/1
f 7/7/7 5/5/5 2/2/2
f 8/8/8 2/2/2 3/3/3
f 2/2/2 8/8/8 7/7/7
f 7/7/7 8/8/8 9/9/9
f 12/12/12 11/11/11 10/10/10
f 13/13/13 11/11/11 12/12/12
f 13/13/13 14/14/14 11/11/11
f 14/14/14 15/15/15 11/11/11
f 18/18/18 17/17/17 16/16/16
f 19/19/19 16/16/16 17/17/17
f 17/17/17 20/20/20 19/19/19
f 21/21/21 19/19/19 20/20/20
f 24/24/24 23/23/23 22/22/22
f 25/25/25 22/22/22 23/23/23
f 24/24/24 22/22/22 26/26/26
f 26/26/26 22/22/22 27/27/27
f 30/30/30 29/29/29 28/28/28
f 31/31/31 29/29/29 30/30/30
f 32/32/32 29/29/29 31/31/31
f 32/32/32 33/33/33 29/29/29
f 31/31/31 30/30/30 34/34/34
f 29/29/29 35/35/35 28/28/28
f 35/35/35 36/36/36 28/28/28
f 37/37/37 35/35/35 29/29/29
f 33/33/33 37/37/37 29/29/29
f 38/38/38 32/32/32 31/31/31
f 39/39/39 38/38/38 31/31/31
f 34/34/34 39/39/39 31/31/31
f 40/40/40 39/39/39 34/34/34
f 41/41/41 40/40/40 34/34/34
f 42/42/42 34/34/34 30/30/30
f 43/43/43 34/34/34 42/42/42
f 43/43/43 41/41/41 34/34/34
f 44/44/44 43/43/43 42/42/42
f 47/47/47 46/46/46 45/45/45
f 48/48/48 47/47/47 45/45/45
f 47/47/47 48/48/48 49/49/49
f 45/45/45 46/46/46 50/50/50
f 46/46/46 51/51/51 50/50/50
f 52/52/52 47/47/47 49/49/49
f 52/52/52 49/49/49 53/53/53
f 54/54/54 52/52/52 53/53/53
f 57/57/57 56/56/56 55/55/55
f 58/58/58 57/57/57 55/55/55
f 58/58/58 59/59/59 57/57/57
f 60/60/60 59/59/59 58/58/58
f 63/63/63 62/62/62 61/61/61
f 64/64/64 63/63/63 61/61/61
f 64/64/64 65/65/65 63/63/63
f 65/65/65 66/66/66 63/63/63
f 67/67/67 64/64/64 61/61/61
f 68/68/68 62/62/62 63/63/63
f 63/63/63 66/66/66 68/68/68
f 68/68/68 66/66/66 69/69/69
f 72/72/72 71/71/71 70/70/70
f 73/73/73 71/71/71 72/72/72
f 74/74/74 73/73/73 72/72/72
f 75/75/75 74/74/74 72/72/72
f 78/78/78 77/77/77 76/76/76
f 79/79/79 76/76/76 77/77/77
f 77/77/77 78/78/78 80/80/80
f 81/81/81 80/80/80 78/78/78
f 84/84/84 83/83/83 82/82/82
f 85/85/85 82/82/82 83/83/83
f 85/85/85 86/86/86 82/82/82
f 87/87/87 82/82/82 86/86/86
f 90/90/90 89/89/89 88/88/88
f 91/91/91 89/89/89 90/90/90
f 92/92/92 90/90/90 88/88/88
f 93/93/93 89/89/89 91/91/91
