g Taillights_52
v 0.2359 0.7995993 -2.0756
v 0.0001 0.7310994 -2.0852
v 0.3587 0.7307994 -2.0808
v 0.0001 0.8012993 -2.0783
v 0.4605 0.7966993 -2.070601
v 0.4847 0.6584994 -2.0864
v 0.5733 0.7924994 -2.0672
v 0.681 0.6597993 -2.0777
v 0.684 0.7851993 -2.0604
v 0.7238 0.7739993 -2.0579
v 0.7523 0.7534993 -2.057301
v 0.7629 0.7330993 -2.0586
v 0.7696 0.6989993 -2.0621
v 0.7728 0.6608993 -2.0663
v 0.6756 0.5750993 -2.0767
v 0.7514 0.5369993 -2.0675
v 0.7552 0.5752994 -2.068
v 0.6718 0.5360994 -2.0762
v 0.513 0.5743994 -2.0828
v 0.513 0.5349994 -2.0822
v -0.2357 0.7995993 -2.0756
v 0.0001 0.7310994 -2.0852
v 0.0001 0.8012993 -2.0783
v -0.3585 0.7307994 -2.0808
v -0.4603 0.7966993 -2.070601
v -0.4845 0.6584994 -2.0864
v -0.5731 0.7924994 -2.0672
v -0.6809 0.6597993 -2.0777
v -0.6839 0.7851993 -2.0604
v -0.7237 0.7739993 -2.0579
v -0.7521 0.7534993 -2.057301
v -0.7627 0.7330993 -2.0586
v -0.7695 0.6989993 -2.0621
v -0.7727 0.6608993 -2.0663
v -0.6755 0.5750993 -2.0767
v -0.7513 0.5369993 -2.0675
v -0.6716 0.5360994 -2.0762
v -0.755 0.5752994 -2.068
v -0.5129 0.5743994 -2.0827
v -0.5129 0.5349994 -2.0822
vt 0.8451 0.9138
vt 0.9927 0.8695
vt 0.7678 0.871
vt 0.993 0.9138
vt 0.7043 0.9131
vt 0.6885 0.8261
vt 0.6335 0.9112
vt 0.5654 0.8282
vt 0.564 0.9075
vt 0.539 0.9008
vt 0.521 0.8882
vt 0.5143 0.8754
vt 0.5099 0.854
vt 0.5078 0.8299
vt 0.8462 0.8339
vt 0.7987 0.81
vt 0.7964 0.8339
vt 0.8486 0.8094
vt 0.9482 0.8335
vt 0.9482 0.8088
vt 0.8451 0.9138
vt 0.9927 0.8695
vt 0.993 0.9138
vt 0.7678 0.871
vt 0.7043 0.9131
vt 0.6885 0.8261
vt 0.6335 0.9112
vt 0.5654 0.8282
vt 0.564 0.9075
vt 0.539 0.9008
vt 0.521 0.8882
vt 0.5143 0.8754
vt 0.5099 0.854
vt 0.5078 0.8299
vt 0.8462 0.8339
vt 0.7987 0.81
vt 0.8486 0.8094
vt 0.7964 0.8339
vt 0.9482 0.8335
vt 0.9482 0.8088
vn 0.01408347 0.100427 -0.9948447
vn 0 0.09770532 -0.9952154
vn 0.02195211 0.1145119 -0.9931793
vn 0 0.09782356 -0.9952038
vn 0.02822014 0.1183295 -0.9925733
vn 0.03399385 0.1166451 -0.9925917
vn 0.04736202 0.121183 -0.9914996
vn 0.08359998 0.1243147 -0.9887148
vn 0.08319528 0.134238 -0.9874506
vn 0.1059221 0.1312025 -0.9856806
vn 0.1153789 0.1266924 -0.985209
vn 0.1184726 0.1243322 -0.9851425
vn 0.1194452 0.1221288 -0.9853007
vn 0.1209652 0.1187997 -0.9855223
vn 0.07549001 -0.0201992 -0.9969419
vn 0.1087332 -0.02364025 -0.9937899
vn 0.1086775 -0.02375502 -0.9937932
vn 0.07089961 -0.01959348 -0.997291
vn 0.0378116 -0.01540427 -0.9991662
vn 0.03785785 -0.01521221 -0.9991673
vn -0.01408352 0.1004271 -0.9948447
vn 0 0.09770532 -0.9952154
vn 0 0.09782356 -0.9952038
vn -0.02195211 0.1145119 -0.9931793
vn -0.02822011 0.1183296 -0.9925733
vn -0.03398555 0.1166506 -0.9925914
vn -0.04733292 0.1211866 -0.9915006
vn -0.08360472 0.1243449 -0.9887105
vn -0.08316144 0.134239 -0.9874533
vn -0.1060644 0.1311478 -0.9856727
vn -0.1155967 0.1266457 -0.9851894
vn -0.1184824 0.1244774 -0.985123
vn -0.1193605 0.1223151 -0.9852878
vn -0.1209652 0.1187992 -0.9855223
vn -0.0752316 -0.0202836 -0.9969598
vn -0.1087942 -0.0235213 -0.993786
vn -0.07050188 -0.01953153 -0.9973204
vn -0.1088147 -0.0234844 -0.9937846
vn -0.03772301 -0.01326455 -0.9992002
vn -0.03786381 -0.01267941 -0.9992025
g Taillights_52_0
f 3/3/3 2/2/2 1/1/1
f 1/1/1 2/2/2 4/4/4
f 1/1/1 5/5/5 3/3/3
f 6/6/6 3/3/3 5/5/5
f 5/5/5 7/7/7 6/6/6
f 8/8/8 6/6/6 7/7/7
f 7/7/7 9/9/9 8/8/8
f 10/10/10 8/8/8 9/9/9
f 11/11/11 8/8/8 10/10/10
f 12/12/12 8/8/8 11/11/11
f 13/13/13 8/8/8 12/12/12
f 14/14/14 8/8/8 13/13/13
f 17/17/17 16/16/16 15/15/15
f 18/18/18 15/15/15 16/16/16
f 15/15/15 18/18/18 19/19/19
f 20/20/20 19/19/19 18/18/18
f 23/23/23 22/22/22 21/21/21
f 24/24/24 21/21/21 22/22/22
f 25/25/25 21/21/21 24/24/24
f 24/24/24 26/26/26 25/25/25
f 25/25/25 26/26/26 27/27/27
f 28/28/28 27/27/27 26/26/26
f 29/29/29 27/27/27 28/28/28
f 28/28/28 30/30/30 29/29/29
f 28/28/28 31/31/31 30/30/30
f 28/28/28 32/32/32 31/31/31
f 28/28/28 33/33/33 32/32/32
f 28/28/28 34/34/34 33/33/33
f 37/37/37 36/36/36 35/35/35
f 38/38/38 35/35/35 36/36/36
f 35/35/35 39/39/39 37/37/37
f 40/40/40 37/37/37 39/39/39
