g model_car_98_matte_mirror_LOD1
v 0.8644475 0.8662895 0.6956177
v 0.9449099 0.8720242 0.666329
v 0.9449877 0.961664 0.6663024
v 0.8644361 0.9675088 0.6956215
v 0.8031242 0.9547158 0.7168285
v 0.8030996 0.8798761 0.716838
v 0.9900203 0.9438883 0.6510826
v 0.9900925 0.8928324 0.651058
v 0.9955727 0.9190714 0.6492484
v 0.7939848 0.9385828 0.7198459
v 0.7939563 0.896034 0.7198572
v -0.8644476 0.8662895 0.6956177
v -0.8644361 0.9675088 0.6956215
v -0.9449878 0.961664 0.6663024
v -0.9449099 0.8720242 0.666329
v -0.8031243 0.9547158 0.7168285
v -0.8030996 0.8798761 0.716838
v -0.9900203 0.9438883 0.6510826
v -0.9900925 0.8928324 0.651058
v -0.9955727 0.9190714 0.6492484
v -0.7939868 0.9385828 0.7198459
v -0.7939564 0.896034 0.7198572
vn -0.336476 -0.0003294647 -0.941692
vn -0.3371351 -0.0003294647 -0.9414563
vn -0.3371351 -0.0003294647 -0.9414563
vn -0.336476 -0.0003294647 -0.941692
vn -0.3265893 -0.0003294647 -0.9451663
vn -0.3265893 -0.0003294647 -0.9451663
vn -0.3199982 -0.0003294647 -0.9474181
vn -0.3199982 -0.0003294647 -0.9474181
vn -0.3134071 -0.0003294647 -0.9496188
vn -0.3134071 -0.0003294647 -0.9496188
vn -0.3134071 -0.0003294647 -0.9496188
vn 0.3364758 -0.0003294647 -0.9416921
vn 0.3364758 -0.0003294647 -0.9416921
vn 0.3371349 -0.0003294647 -0.9414563
vn 0.3371349 -0.0003294647 -0.9414563
vn 0.3265891 -0.0003294647 -0.9451663
vn 0.3265891 -0.0003294647 -0.9451663
vn 0.319998 -0.0003294647 -0.9474182
vn 0.319998 -0.0003294647 -0.9474182
vn 0.3134069 -0.0003294647 -0.9496189
vn 0.3134069 -0.0003294647 -0.9496189
vn 0.3134069 -0.0003294647 -0.9496189
g model_car_98_matte_mirror_LOD1_0
f 3/3/3 2/2/2 1/1/1
f 4/4/4 3/3/3 1/1/1
f 4/4/4 1/1/1 5/5/5
f 1/1/1 6/6/6 5/5/5
f 2/2/2 3/3/3 7/7/7
f 8/8/8 2/2/2 7/7/7
f 7/7/7 9/9/9 8/8/8
f 10/10/10 5/5/5 6/6/6
f 11/11/11 10/10/10 6/6/6
f 14/14/14 13/13/13 12/12/12
f 15/15/15 14/14/14 12/12/12
f 12/12/12 13/13/13 16/16/16
f 17/17/17 12/12/12 16/16/16
f 14/14/14 15/15/15 18/18/18
f 15/15/15 19/19/19 18/18/18
f 20/20/20 18/18/18 19/19/19
f 16/16/16 21/21/21 17/17/17
f 21/21/21 22/22/22 17/17/17
