g model_car_98_body_detail_LOD1
v 0.8087338 0.8957676 0.7779098
v 0.8199104 0.895021 0.7873011
v 0.7798594 0.8012561 0.7963389
v 0.7690246 0.8101374 0.7874786
v 0.8468466 0.7745031 0.7754523
v 0.883976 0.8958305 0.7715644
v 0.8426704 0.7852788 0.752274
v 0.8783504 0.8975434 0.7486745
v 0.7756832 0.8120316 0.7731607
v 0.814283 0.8967319 0.7644093
v 0.8087338 0.8957676 0.7779098
v 0.7690246 0.8101374 0.7874786
v 0.869303 0.8999075 0.823447
v 0.869303 0.9341706 0.823447
v 0.9322476 0.933254 0.7941047
v 0.9322476 0.9008164 0.7941047
v 0.9634612 0.9253867 0.7763917
v 0.9634612 0.9089015 0.7763917
v 0.8307471 0.9037896 0.8403866
v 0.8307471 0.9303839 0.8403866
v 0.868522 0.8740177 0.7829931
v 0.9404721 0.8783123 0.7558143
v 0.9466304 0.8666162 0.6885121
v 0.8657607 0.8602785 0.717205
v 0.8032343 0.8750279 0.7383248
v 0.7997723 0.8747758 0.7155571
v 0.864594 0.8600321 0.6931485
v 0.8177679 0.8851523 0.8009123
v 0.9472701 0.8663757 0.6631074
v 0.9457826 0.8702483 0.6628152
v 0.8651555 0.8644146 0.6921555
v 0.8663393 0.8671701 0.6967843
v 0.9446884 0.872767 0.6682651
v 0.9914954 0.8916048 0.6473612
v 0.9887743 0.8931687 0.6533667
v 0.793213 0.8929758 0.7415576
v 0.7897967 0.8927658 0.7188644
v 0.7936732 0.8951432 0.7167335
v 0.8031388 0.8784555 0.7136036
v 0.9951312 0.8889676 0.6469201
v 0.8084015 0.8987579 0.8040898
v 1.001156 0.9189209 0.6450086
v 0.9972909 0.918793 0.6454459
v 0.9951312 0.9472702 0.6469201
v 0.9914916 0.9446006 0.6473631
v 0.9942185 0.9188751 0.6515679
v 0.988738 0.9432353 0.6533781
v 0.947272 0.9669749 0.6631055
v 0.9458456 0.9630641 0.6627942
v 0.8651459 0.9690048 0.6921574
v 0.8645921 0.9733852 0.6931485
v 0.9466304 0.9667362 0.6885121
v 0.8657607 0.9731408 0.717205
v 0.7997723 0.9593978 0.7155571
v 0.8032343 0.9591457 0.7383248
v 0.868522 0.9596364 0.7829931
v 0.8177679 0.9490212 0.8009123
v 0.9447686 0.9607459 0.6682383
v 0.9404721 0.955296 0.7558143
v 0.869303 0.9341706 0.823447
v 0.9322476 0.933254 0.7941047
v 0.793213 0.9411958 0.7415576
v 0.7897967 0.9414078 0.7188644
v 0.793213 0.8929758 0.7415576
v 0.7897967 0.8927658 0.7188644
v 0.8084015 0.9354156 0.8040898
v 0.8084015 0.8987579 0.8040898
v 0.8307471 0.9037896 0.8403866
v 0.8307471 0.9303839 0.8403866
v 0.8031388 0.955718 0.7136036
v 0.7936732 0.9390285 0.7167335
v 0.9761292 0.9415396 0.7437135
v 0.9634612 0.9253867 0.7763917
v 0.9926908 0.947211 0.6732986
v 0.9987956 0.9189209 0.6713279
v 0.9926908 0.8890288 0.6732986
v 0.9818197 0.9185944 0.741781
v 0.9634612 0.9253867 0.7763917
v 0.9634612 0.9089015 0.7763917
v 0.9761292 0.8940547 0.7437135
v 0.7936732 0.8951432 0.7167335
v 0.797519 0.8963596 0.7204455
v 0.7975323 0.9380356 0.7204417
v 0.8065149 0.9538696 0.7174762
v 0.8663279 0.9664574 0.6967881
v 0.8065034 0.8805121 0.7174801
v 0.797519 0.8963596 0.7204455
v -0.8087338 0.8957676 0.7779098
v -0.7690246 0.8101374 0.7874786
v -0.7798594 0.8012561 0.7963389
v -0.8199105 0.895021 0.7873011
v -0.8468467 0.7745031 0.7754523
v -0.8839761 0.8958305 0.7715644
v -0.8426704 0.7852788 0.752274
v -0.8783505 0.8975434 0.7486745
v -0.7756833 0.8120316 0.7731607
v -0.814283 0.8967319 0.7644093
v -0.8087338 0.8957676 0.7779098
v -0.7690246 0.8101374 0.7874786
v -0.869303 0.8999075 0.823447
v -0.9322476 0.9008164 0.7941047
v -0.9322476 0.933254 0.7941047
v -0.869303 0.9341706 0.823447
v -0.9634613 0.9253867 0.7763917
v -0.9634613 0.9089015 0.7763917
v -0.8307472 0.9037896 0.8403866
v -0.8307472 0.9303839 0.8403866
v -0.868522 0.8740177 0.7829931
v -0.9404721 0.8783123 0.7558143
v -0.9466305 0.8666162 0.6885121
v -0.8657608 0.8602785 0.717205
v -0.8032343 0.8750279 0.7383248
v -0.7997723 0.8747758 0.7155571
v -0.8645941 0.8600321 0.6931485
v -0.817768 0.8851523 0.8009123
v -0.9472702 0.8663757 0.6631074
v -0.9457827 0.8702483 0.6628152
v -0.8651555 0.8644146 0.6921555
v -0.8663394 0.8671701 0.6967843
v -0.9446884 0.872767 0.6682651
v -0.9914955 0.8916048 0.6473612
v -0.9887743 0.8931687 0.6533667
v -0.793213 0.8929758 0.7415576
v -0.7897968 0.8927658 0.7188644
v -0.7936732 0.8951432 0.7167335
v -0.8031389 0.8784555 0.7136036
v -0.9951313 0.8889676 0.6469201
v -0.8084016 0.8987579 0.8040898
v -1.001156 0.9189209 0.6450086
v -0.997291 0.918793 0.6454459
v -0.9951313 0.9472702 0.6469201
v -0.9914917 0.9446006 0.6473631
v -0.9942185 0.9188751 0.6515679
v -0.9887381 0.9432353 0.6533781
v -0.9472721 0.9669749 0.6631055
v -0.9458456 0.9630641 0.6627942
v -0.8651459 0.9690048 0.6921574
v -0.8645922 0.9733852 0.6931485
v -0.9466305 0.9667362 0.6885121
v -0.8657608 0.9731408 0.717205
v -0.7997723 0.9593978 0.7155571
v -0.8032343 0.9591457 0.7383248
v -0.868522 0.9596364 0.7829931
v -0.817768 0.9490212 0.8009123
v -0.9447687 0.9607459 0.6682383
v -0.9404721 0.955296 0.7558143
v -0.869303 0.9341706 0.823447
v -0.9322476 0.933254 0.7941047
v -0.793213 0.9411958 0.7415576
v -0.7897968 0.9414078 0.7188644
v -0.793213 0.8929758 0.7415576
v -0.7897968 0.8927658 0.7188644
v -0.8084016 0.9354156 0.8040898
v -0.8084016 0.8987579 0.8040898
v -0.8307472 0.9037896 0.8403866
v -0.8307472 0.9303839 0.8403866
v -0.8031389 0.955718 0.7136036
v -0.7936732 0.9390285 0.7167335
v -0.9761293 0.9415396 0.7437135
v -0.9634613 0.9253867 0.7763917
v -0.9926908 0.947211 0.6732986
v -0.9987957 0.9189209 0.6713279
v -0.9926908 0.8890288 0.6732986
v -0.9818197 0.9185944 0.741781
v -0.9634613 0.9253867 0.7763917
v -0.9634613 0.9089015 0.7763917
v -0.9761293 0.8940547 0.7437135
v -0.7936732 0.8951432 0.7167335
v -0.7975324 0.9380356 0.7204417
v -0.7975191 0.8963596 0.7204455
v -0.806515 0.9538696 0.7174762
v -0.866328 0.9664574 0.6967881
v -0.7975191 0.8963596 0.7204455
v -0.8065035 0.8805121 0.7174801
vt 0.9848963 0.4795517
vt 0.9849598 0.467672
vt 0.9091885 0.4672785
vt 0.9091378 0.4791709
vt 0.9094678 0.4125379
vt 0.9852263 0.4129314
vt 0.909582 0.3887531
vt 0.9853405 0.3891466
vt 0.9098485 0.3340252
vt 0.9856197 0.334406
vt 0.9856705 0.3225136
vt 0.909912 0.3221201
vt 0.5195569 0.9526206
vt 0.5188334 0.9779284
vt 0.5595747 0.9781442
vt 0.5577725 0.9526206
vt 0.5957469 0.9712651
vt 0.5901117 0.9516052
vt 0.4872304 0.9526206
vt 0.4885503 0.977738
vt 0.5195569 0.9345598
vt 0.5577725 0.9345598
vt 0.5577725 0.9026902
vt 0.5195569 0.9026902
vt 0.4872304 0.9026902
vt 0.4872304 0.8913055
vt 0.5198361 0.8909501
vt 0.4872304 0.9345598
vt 0.5579247 0.8906709
vt 0.5580263 0.8882975
vt 0.519963 0.8885767
vt 0.5201026 0.8860129
vt 0.5577725 0.8859749
vt 0.5837911 0.8887671
vt 0.5837911 0.8859749
vt 0.4779779 0.9026902
vt 0.4779779 0.8913055
vt 0.4779779 0.8887671
vt 0.4872304 0.8887671
vt 0.5837911 0.8913055
vt 0.4779779 0.9345598
vt 0.5990088 0.8896682
vt 0.5974222 0.8881325
vt 0.6103173 0.8913055
vt 0.6103173 0.8887671
vt 0.597435 0.8859749
vt 0.6103173 0.8859749
vt 0.6357902 0.890544
vt 0.6356633 0.8882086
vt 0.6781307 0.8885514
vt 0.6782449 0.8909121
vt 0.6360059 0.9026902
vt 0.67808 0.9026902
vt 0.7115234 0.8913055
vt 0.7115234 0.9026902
vt 0.67808 0.9345598
vt 0.7115234 0.9345598
vt 0.6360059 0.8859749
vt 0.6360059 0.9345598
vt 0.67808 0.9526206
vt 0.6360059 0.9526206
vt 0.7207631 0.9026902
vt 0.7207631 0.8913055
vt 0.7418953 0.9026902
vt 0.7418953 0.8913055
vt 0.7207631 0.9345598
vt 0.7418953 0.9345598
vt 0.7443702 0.9560093
vt 0.7115234 0.9526206
vt 0.7115234 0.8887671
vt 0.7207631 0.8887671
vt 0.6103173 0.9345598
vt 0.6037556 0.9512498
vt 0.6103173 0.9026902
vt 0.597435 0.9026902
vt 0.5837911 0.9026902
vt 0.597435 0.9345598
vt 0.6032352 0.9526206
vt 0.5902767 0.9526206
vt 0.5837911 0.9345598
vt 0.7418953 0.8887671
vt 0.7418953 0.8859749
vt 0.7207631 0.8859749
vt 0.7115234 0.8859749
vt 0.6781307 0.8860129
vt 0.4872304 0.8859749
vt 0.4779779 0.8859749
vt 1.984899 0.4795517
vt 1.90914 0.4791709
vt 1.909191 0.4672785
vt 1.98495 0.467672
vt 1.90947 0.4125379
vt 1.985229 0.4129314
vt 1.909585 0.3887531
vt 1.985343 0.3891466
vt 1.909851 0.3340252
vt 1.98561 0.334406
vt 1.985673 0.3225136
vt 1.909914 0.3221201
vt 0.5195569 0.9526206
vt 0.5577725 0.9526206
vt 0.5595747 0.9781442
vt 0.5188334 0.9779284
vt 0.5957469 0.9712651
vt 0.5901117 0.9516052
vt 0.4872304 0.9526206
vt 0.4885503 0.977738
vt 0.5195569 0.9345598
vt 0.5577725 0.9345598
vt 0.5577725 0.9026902
vt 0.5195569 0.9026902
vt 0.4872304 0.9026902
vt 0.4872304 0.8913055
vt 0.5198361 0.8909501
vt 0.4872304 0.9345598
vt 0.5579247 0.8906709
vt 0.5580263 0.8882975
vt 0.519963 0.8885767
vt 0.5201026 0.8860129
vt 0.5577725 0.8859749
vt 0.5837911 0.8887671
vt 0.5837911 0.8859749
vt 0.4779779 0.9026902
vt 0.4779779 0.8913055
vt 0.4779779 0.8887671
vt 0.4872304 0.8887671
vt 0.5837911 0.8913055
vt 0.4779779 0.9345598
vt 0.5990088 0.8896682
vt 0.5974222 0.8881325
vt 0.6103173 0.8913055
vt 0.6103173 0.8887671
vt 0.597435 0.8859749
vt 0.6103173 0.8859749
vt 0.6357902 0.890544
vt 0.6356633 0.8882086
vt 0.6781307 0.8885514
vt 0.6782449 0.8909121
vt 0.6360059 0.9026902
vt 0.67808 0.9026902
vt 0.7115234 0.8913055
vt 0.7115234 0.9026902
vt 0.67808 0.9345598
vt 0.7115234 0.9345598
vt 0.6360059 0.8859749
vt 0.6360059 0.9345598
vt 0.67808 0.9526206
vt 0.6360059 0.9526206
vt 0.7207631 0.9026902
vt 0.7207631 0.8913055
vt 0.7418953 0.9026902
vt 0.7418953 0.8913055
vt 0.7207631 0.9345598
vt 0.7418953 0.9345598
vt 0.7443702 0.9560093
vt 0.7115234 0.9526206
vt 0.7115234 0.8887671
vt 0.7207631 0.8887671
vt 0.6103173 0.9345598
vt 0.6037556 0.9512498
vt 0.6103173 0.9026902
vt 0.597435 0.9026902
vt 0.5837911 0.9026902
vt 0.597435 0.9345598
vt 0.6032352 0.9526206
vt 0.5902767 0.9526206
vt 0.5837911 0.9345598
vt 0.7418953 0.8887671
vt 0.7207631 0.8859749
vt 0.7418953 0.8859749
vt 0.7115234 0.8859749
vt 0.6781307 0.8860129
vt 0.4779779 0.8859749
vt 0.4872304 0.8859749
vn -0.8589824 0.4192558 0.2938943
vn 0.1787724 0.004935682 0.9838781
vn 0.1611833 0.01275295 0.9868421
vn -0.7925349 0.4055755 0.4554086
vn 0.5110102 -0.1181878 0.8514107
vn 0.630225 -0.159229 0.7599096
vn 0.1924527 -0.1025531 -0.9759328
vn 0.1729093 -0.09669006 -0.9801803
vn -0.4094841 0.1085157 -0.9058406
vn -0.3391278 0.07529193 -0.9377224
vn -0.8589824 0.4192558 0.2938943
vn -0.7925349 0.4055755 0.4554086
vn 0.2882154 -0.5774578 0.763855
vn 0.2901698 0.5795117 0.7615561
vn 0.3859324 0.558014 0.7346268
vn 0.3878868 -0.5540057 0.7366285
vn 0.5774578 0.46616 0.6702517
vn 0.5891839 -0.4621517 0.6627806
vn -0.1866893 -0.5051472 0.8425992
vn -0.184735 0.5072011 0.8417957
vn 0.05955762 -0.9448738 0.3219726
vn 0.2706264 -0.9155587 0.2975125
vn 0.2667177 -0.9546455 0.1323391
vn 0.0067904 -0.9898236 0.1421375
vn -0.3274018 -0.9272847 0.1815244
vn -0.3645343 -0.9292391 0.06024488
vn -0.02252465 -0.9995953 0.01737177
vn -0.2453195 -0.91165 0.329716
vn 0.2667177 -0.9624629 0.05026748
vn -0.3703973 0.8140326 -0.4473888
vn -0.1280591 0.8707084 -0.4748344
vn -0.1124243 0.8707084 -0.4787773
vn -0.3098127 0.8374847 -0.4501505
vn -0.724133 0.5072011 -0.4673098
vn -0.6576853 0.5951465 -0.4617907
vn -0.9586537 -0.176818 0.2229762
vn -0.9762428 -0.1611833 0.1448098
vn 0.6595401 0.1534656 -0.7358364
vn 0.1553203 0.8003522 -0.5790614
vn 0.7650745 -0.6419511 0.05059487
vn -0.931293 -0.1494573 0.3321986
vn 0.9956867 -0.0009273887 0.09277523
vn -0.8941606 0.004935682 -0.4477192
vn 0.7396681 0.6713657 0.04646824
vn -0.7163156 -0.5285993 -0.455494
vn -0.8941606 -0.0009273887 -0.4477455
vn -0.6283702 -0.6380423 -0.4450312
vn 0.2413113 0.9703798 0.01148759
vn -0.3430366 -0.8412938 -0.4177927
vn -0.122196 -0.888198 -0.4429137
vn -0.01861602 0.9996949 0.01623489
vn 0.2452199 0.9606081 0.1307644
vn 0.01069909 0.9899232 0.1412007
vn -0.3567169 0.9332474 0.0424538
vn -0.3195844 0.9293386 0.1849202
vn 0.06346625 0.9469277 0.3151189
vn -0.2394565 0.913704 0.3283376
vn -0.2863607 -0.8608372 -0.4206624
vn 0.256946 0.9215212 0.2911656
vn 0.2901698 0.5795117 0.7615561
vn 0.3859324 0.558014 0.7346268
vn -0.9586537 0.1769176 0.2228972
vn -0.9762428 0.1612828 0.1446989
vn -0.9586537 -0.176818 0.2229762
vn -0.9762428 -0.1611833 0.1448098
vn -0.931293 0.1495568 0.3321538
vn -0.931293 -0.1494573 0.3321986
vn -0.1866893 -0.5051472 0.8425992
vn -0.184735 0.5072011 0.8417957
vn 0.1670463 -0.813933 -0.5564248
vn 0.6654031 -0.1494573 -0.7313694
vn 0.6419511 0.7124069 0.2835051
vn 0.5774578 0.46616 0.6702517
vn 0.7142617 0.6791831 0.1689398
vn 0.9820063 0.001026928 0.1888456
vn 0.7416224 -0.647814 0.1741642
vn 0.9624629 0.001026928 0.2714113
vn 0.5774578 0.46616 0.6702517
vn 0.5891839 -0.4621517 0.6627806
vn 0.6732205 -0.6849465 0.2786079
vn 0.6595401 0.1534656 -0.7358364
vn 0.6673574 0.1319677 -0.7329519
vn 0.6693118 -0.1357769 -0.7304699
vn 0.1435942 -0.8276134 -0.5426204
vn -0.1065614 -0.888198 -0.4469329
vn 0.1396856 0.8101239 -0.5693744
vn 0.6673574 0.1319677 -0.7329519
vn 0.8588828 0.4192558 0.2941851
vn 0.7924353 0.4055755 0.4555819
vn -0.1612828 0.01275295 0.9868258
vn -0.1788719 0.004935682 0.98386
vn -0.5111098 -0.1181878 0.851351
vn -0.6303245 -0.159229 0.759827
vn -0.1925523 -0.1025531 -0.9759132
vn -0.1730089 -0.09669006 -0.9801627
vn 0.4093845 0.1085157 -0.9058855
vn 0.3390283 0.07529193 -0.9377584
vn 0.8588828 0.4192558 0.2941851
vn 0.7924353 0.4055755 0.4555819
vn -0.288315 -0.5774578 0.7638174
vn -0.3879864 -0.5540057 0.736576
vn -0.386032 0.558014 0.7345745
vn -0.2902693 0.5795117 0.7615182
vn -0.5775574 0.46616 0.670166
vn -0.5892834 -0.4621517 0.6626921
vn 0.1865897 -0.5051472 0.8426212
vn 0.1846354 0.5072011 0.8418176
vn -0.05965716 -0.9448738 0.3219542
vn -0.2707259 -0.9155587 0.2974219
vn -0.2668173 -0.9546455 0.1321383
vn -0.006889999 -0.9898236 0.1421328
vn 0.3273022 -0.9272847 0.1817039
vn 0.3644347 -0.9292391 0.06084443
vn 0.02242512 -0.9995953 0.01749996
vn 0.2452199 -0.91165 0.3297901
vn -0.2668173 -0.9624629 0.04973643
vn 0.3702977 0.8140326 -0.4474712
vn 0.1299139 0.8707084 -0.4743304
vn 0.1123248 0.8707084 -0.4788006
vn 0.3097132 0.8374847 -0.4502191
vn 0.7240334 0.5072011 -0.4674641
vn 0.6575857 0.5951465 -0.4619325
vn 0.9585542 -0.176818 0.2234037
vn 0.9761432 -0.1611833 0.1454795
vn -0.6596397 0.1534656 -0.7357471
vn -0.1554199 0.8003522 -0.5790347
vn -0.7651741 -0.6419511 0.04906498
vn 0.9311934 -0.1494573 0.3324776
vn -0.9957862 -0.0009273887 0.09169994
vn 0.894061 0.001026928 -0.4479441
vn -0.7397676 0.6713657 0.04485548
vn 0.716216 -0.5285993 -0.4556506
vn 0.894061 -0.0009273887 -0.4479443
vn 0.6282706 -0.6380423 -0.4451718
vn -0.2414108 0.9703798 0.009160968
vn 0.3429369 -0.8412938 -0.4178745
vn 0.1220965 -0.888198 -0.4429411
vn 0.01851642 0.9996949 0.01634831
vn -0.2453195 0.9606081 0.1305774
vn -0.01079863 0.9899232 0.1411931
vn 0.3566173 0.9332474 0.04328249
vn 0.3194849 0.9293386 0.1850923
vn -0.06356591 0.9469277 0.3150988
vn 0.2393569 0.913704 0.3284102
vn 0.2862611 -0.8608372 -0.4207302
vn -0.2570456 0.9215212 0.2910777
vn -0.2902693 0.5795117 0.7615182
vn -0.386032 0.558014 0.7345745
vn 0.9585542 0.1769176 0.2233249
vn 0.9761432 0.1612828 0.1453692
vn 0.9585542 -0.176818 0.2234037
vn 0.9761432 -0.1611833 0.1454795
vn 0.9311934 0.1495568 0.3324329
vn 0.9311934 -0.1494573 0.3324776
vn 0.1865897 -0.5051472 0.8426212
vn 0.1846354 0.5072011 0.8418176
vn -0.1671459 -0.813933 -0.5563949
vn -0.6655027 -0.1494573 -0.7312788
vn -0.6420506 0.7124069 0.2832797
vn -0.5775574 0.46616 0.670166
vn -0.7143613 0.6791831 0.1685181
vn -0.9821059 0.001026928 0.1883267
vn -0.7417219 -0.6497684 0.1662817
vn -0.9625625 0.001026928 0.2710579
vn -0.5775574 0.46616 0.670166
vn -0.5892834 -0.4621517 0.6626921
vn -0.6733201 -0.6849465 0.2783672
vn -0.6596397 0.1534656 -0.7357471
vn -0.6694114 -0.1357769 -0.7303787
vn -0.6655027 0.1319677 -0.7346364
vn -0.1436939 -0.8276134 -0.542594
vn 0.1064618 -0.888198 -0.4469567
vn -0.6655027 0.1319677 -0.7346364
vn -0.1397851 0.8101239 -0.56935
g model_car_98_body_detail_LOD1_0
f 3/3/3 2/2/2 1/1/1
f 4/4/4 3/3/3 1/1/1
f 2/2/2 3/3/3 5/5/5
f 6/6/6 2/2/2 5/5/5
f 6/6/6 5/5/5 7/7/7
f 8/8/8 6/6/6 7/7/7
f 8/8/8 7/7/7 9/9/9
f 10/10/10 8/8/8 9/9/9
f 11/11/11 10/10/10 9/9/9
f 12/12/12 11/11/11 9/9/9
f 15/15/15 14/14/14 13/13/13
f 16/16/16 15/15/15 13/13/13
f 17/17/17 15/15/15 16/16/16
f 18/18/18 17/17/17 16/16/16
f 19/19/19 13/13/13 14/14/14
f 20/20/20 19/19/19 14/14/14
f 16/16/16 13/13/13 21/21/21
f 22/22/22 16/16/16 21/21/21
f 23/23/23 22/22/22 21/21/21
f 24/24/24 23/23/23 21/21/21
f 24/24/24 21/21/21 25/25/25
f 24/24/24 25/25/25 26/26/26
f 27/27/27 24/24/24 26/26/26
f 21/21/21 28/28/28 25/25/25
f 13/13/13 19/19/19 28/28/28
f 21/21/21 13/13/13 28/28/28
f 29/29/29 23/23/23 24/24/24
f 27/27/27 29/29/29 24/24/24
f 29/29/29 27/27/27 30/30/30
f 27/27/27 31/31/31 30/30/30
f 31/31/31 32/32/32 30/30/30
f 32/32/32 33/33/33 30/30/30
f 30/30/30 33/33/33 34/34/34
f 33/33/33 35/35/35 34/34/34
f 25/25/25 36/36/36 26/26/26
f 36/36/36 37/37/37 26/26/26
f 26/26/26 37/37/37 38/38/38
f 39/39/39 26/26/26 38/38/38
f 27/27/27 26/26/26 39/39/39
f 31/31/31 27/27/27 39/39/39
f 40/40/40 29/29/29 30/30/30
f 34/34/34 40/40/40 30/30/30
f 41/41/41 36/36/36 25/25/25
f 19/19/19 41/41/41 28/28/28
f 28/28/28 41/41/41 25/25/25
f 40/40/40 34/34/34 42/42/42
f 34/34/34 43/43/43 42/42/42
f 44/44/44 42/42/42 43/43/43
f 45/45/45 44/44/44 43/43/43
f 43/43/43 46/46/46 45/45/45
f 46/46/46 43/43/43 34/34/34
f 35/35/35 46/46/46 34/34/34
f 46/46/46 47/47/47 45/45/45
f 44/44/44 45/45/45 48/48/48
f 45/45/45 49/49/49 48/48/48
f 48/48/48 49/49/49 50/50/50
f 51/51/51 48/48/48 50/50/50
f 48/48/48 51/51/51 52/52/52
f 48/48/48 52/52/52 44/44/44
f 51/51/51 53/53/53 52/52/52
f 53/53/53 51/51/51 54/54/54
f 55/55/55 53/53/53 54/54/54
f 56/56/56 53/53/53 55/55/55
f 53/53/53 56/56/56 52/52/52
f 57/57/57 56/56/56 55/55/55
f 58/58/58 49/49/49 45/45/45
f 47/47/47 58/58/58 45/45/45
f 49/49/49 58/58/58 50/50/50
f 56/56/56 59/59/59 52/52/52
f 56/56/56 60/60/60 59/59/59
f 60/60/60 56/56/56 57/57/57
f 60/60/60 61/61/61 59/59/59
f 62/62/62 55/55/55 54/54/54
f 63/63/63 62/62/62 54/54/54
f 62/62/62 63/63/63 64/64/64
f 63/63/63 65/65/65 64/64/64
f 66/66/66 62/62/62 64/64/64
f 66/66/66 57/57/57 55/55/55
f 62/62/62 66/66/66 55/55/55
f 67/67/67 66/66/66 64/64/64
f 66/66/66 67/67/67 68/68/68
f 69/69/69 66/66/66 68/68/68
f 66/66/66 69/69/69 57/57/57
f 69/69/69 60/60/60 57/57/57
f 54/54/54 70/70/70 63/63/63
f 70/70/70 71/71/71 63/63/63
f 59/59/59 61/61/61 72/72/72
f 61/61/61 73/73/73 72/72/72
f 59/59/59 72/72/72 74/74/74
f 52/52/52 59/59/59 74/74/74
f 52/52/52 74/74/74 44/44/44
f 74/74/74 75/75/75 44/44/44
f 75/75/75 42/42/42 44/44/44
f 42/42/42 75/75/75 40/40/40
f 75/75/75 76/76/76 40/40/40
f 76/76/76 23/23/23 40/40/40
f 23/23/23 29/29/29 40/40/40
f 75/75/75 77/77/77 76/76/76
f 77/77/77 75/75/75 74/74/74
f 72/72/72 77/77/77 74/74/74
f 78/78/78 77/77/77 72/72/72
f 79/79/79 77/77/77 78/78/78
f 77/77/77 80/80/80 76/76/76
f 77/77/77 18/18/18 80/80/80
f 18/18/18 16/16/16 80/80/80
f 16/16/16 22/22/22 80/80/80
f 22/22/22 23/23/23 76/76/76
f 80/80/80 22/22/22 76/76/76
f 83/83/83 82/82/82 81/81/81
f 71/71/71 83/83/83 81/81/81
f 83/83/83 71/71/71 70/70/70
f 84/84/84 83/83/83 70/70/70
f 84/84/84 70/70/70 50/50/50
f 85/85/85 84/84/84 50/50/50
f 63/63/63 71/71/71 81/81/81
f 65/65/65 63/63/63 81/81/81
f 51/51/51 50/50/50 70/70/70
f 54/54/54 51/51/51 70/70/70
f 58/58/58 85/85/85 50/50/50
f 87/87/87 86/86/86 39/39/39
f 38/38/38 87/87/87 39/39/39
f 31/31/31 39/39/39 86/86/86
f 32/32/32 31/31/31 86/86/86
f 90/90/90 89/89/89 88/88/88
f 91/91/91 90/90/90 88/88/88
f 90/90/90 91/91/91 92/92/92
f 91/91/91 93/93/93 92/92/92
f 92/92/92 93/93/93 94/94/94
f 93/93/93 95/95/95 94/94/94
f 94/94/94 95/95/95 96/96/96
f 95/95/95 97/97/97 96/96/96
f 97/97/97 98/98/98 96/96/96
f 98/98/98 99/99/99 96/96/96
f 102/102/102 101/101/101 100/100/100
f 103/103/103 102/102/102 100/100/100
f 102/102/102 104/104/104 101/101/101
f 104/104/104 105/105/105 101/101/101
f 100/100/100 106/106/106 103/103/103
f 106/106/106 107/107/107 103/103/103
f 100/100/100 101/101/101 108/108/108
f 101/101/101 109/109/109 108/108/108
f 109/109/109 110/110/110 108/108/108
f 110/110/110 111/111/111 108/108/108
f 108/108/108 111/111/111 112/112/112
f 112/112/112 111/111/111 113/113/113
f 111/111/111 114/114/114 113/113/113
f 115/115/115 108/108/108 112/112/112
f 100/100/100 108/108/108 115/115/115
f 106/106/106 100/100/100 115/115/115
f 116/116/116 114/114/114 111/111/111
f 110/110/110 116/116/116 111/111/111
f 114/114/114 116/116/116 117/117/117
f 118/118/118 114/114/114 117/117/117
f 119/119/119 118/118/118 117/117/117
f 120/120/120 119/119/119 117/117/117
f 120/120/120 117/117/117 121/121/121
f 122/122/122 120/120/120 121/121/121
f 123/123/123 112/112/112 113/113/113
f 124/124/124 123/123/123 113/113/113
f 124/124/124 113/113/113 125/125/125
f 113/113/113 126/126/126 125/125/125
f 114/114/114 118/118/118 126/126/126
f 113/113/113 114/114/114 126/126/126
f 127/127/127 121/121/121 117/117/117
f 116/116/116 127/127/127 117/117/117
f 128/128/128 115/115/115 112/112/112
f 128/128/128 106/106/106 115/115/115
f 123/123/123 128/128/128 112/112/112
f 121/121/121 127/127/127 129/129/129
f 130/130/130 121/121/121 129/129/129
f 129/129/129 131/131/131 130/130/130
f 131/131/131 132/132/132 130/130/130
f 133/133/133 130/130/130 132/132/132
f 133/133/133 122/122/122 121/121/121
f 130/130/130 133/133/133 121/121/121
f 134/134/134 133/133/133 132/132/132
f 132/132/132 131/131/131 135/135/135
f 136/136/136 132/132/132 135/135/135
f 136/136/136 135/135/135 137/137/137
f 135/135/135 138/138/138 137/137/137
f 138/138/138 135/135/135 139/139/139
f 139/139/139 135/135/135 131/131/131
f 140/140/140 138/138/138 139/139/139
f 138/138/138 140/140/140 141/141/141
f 140/140/140 142/142/142 141/141/141
f 140/140/140 143/143/143 142/142/142
f 143/143/143 140/140/140 139/139/139
f 143/143/143 144/144/144 142/142/142
f 145/145/145 134/134/134 132/132/132
f 136/136/136 145/145/145 132/132/132
f 145/145/145 136/136/136 137/137/137
f 146/146/146 143/143/143 139/139/139
f 147/147/147 143/143/143 146/146/146
f 143/143/143 147/147/147 144/144/144
f 148/148/148 147/147/147 146/146/146
f 142/142/142 149/149/149 141/141/141
f 149/149/149 150/150/150 141/141/141
f 150/150/150 149/149/149 151/151/151
f 152/152/152 150/150/150 151/151/151
f 149/149/149 153/153/153 151/151/151
f 153/153/153 149/149/149 142/142/142
f 144/144/144 153/153/153 142/142/142
f 153/153/153 154/154/154 151/151/151
f 154/154/154 153/153/153 155/155/155
f 153/153/153 156/156/156 155/155/155
f 156/156/156 153/153/153 144/144/144
f 147/147/147 156/156/156 144/144/144
f 157/157/157 141/141/141 150/150/150
f 158/158/158 157/157/157 150/150/150
f 148/148/148 146/146/146 159/159/159
f 160/160/160 148/148/148 159/159/159
f 159/159/159 146/146/146 161/161/161
f 146/146/146 139/139/139 161/161/161
f 161/161/161 139/139/139 131/131/131
f 162/162/162 161/161/161 131/131/131
f 129/129/129 162/162/162 131/131/131
f 162/162/162 129/129/129 127/127/127
f 163/163/163 162/162/162 127/127/127
f 110/110/110 163/163/163 127/127/127
f 116/116/116 110/110/110 127/127/127
f 164/164/164 162/162/162 163/163/163
f 164/164/164 159/159/159 161/161/161
f 162/162/162 164/164/164 161/161/161
f 164/164/164 165/165/165 159/159/159
f 164/164/164 166/166/166 165/165/165
f 167/167/167 164/164/164 163/163/163
f 105/105/105 164/164/164 167/167/167
f 101/101/101 105/105/105 167/167/167
f 109/109/109 101/101/101 167/167/167
f 109/109/109 167/167/167 163/163/163
f 110/110/110 109/109/109 163/163/163
f 169/169/169 158/158/158 168/168/168
f 170/170/170 169/169/169 168/168/168
f 158/158/158 169/169/169 157/157/157
f 169/169/169 171/171/171 157/157/157
f 157/157/157 171/171/171 137/137/137
f 171/171/171 172/172/172 137/137/137
f 158/158/158 150/150/150 168/168/168
f 150/150/150 152/152/152 168/168/168
f 137/137/137 138/138/138 157/157/157
f 138/138/138 141/141/141 157/157/157
f 172/172/172 145/145/145 137/137/137
f 173/173/173 125/125/125 126/126/126
f 174/174/174 173/173/173 126/126/126
f 126/126/126 118/118/118 174/174/174
f 118/118/118 119/119/119 174/174/174
