g model_car_98_matte_exhaust_LOD1
v 0.7551414 0.3034461 -1.92483
v 0.7551954 0.3034379 -1.846385
v 0.78632 0.3030758 -1.845931
v 0.7863848 0.3030624 -1.905979
v 0.7826297 0.3094003 -1.909607
v 0.7555574 0.3097055 -1.926246
v 0.790475 0.3105619 -1.845883
v 0.7904859 0.3105538 -1.903734
v 0.7388861 0.3036973 -1.933775
v 0.7386646 0.3036919 -1.846588
v 0.6708691 0.3048239 -1.967912
v 0.6708691 0.3048158 -1.847406
v 0.5870048 0.3062663 -2.006131
v 0.5870643 0.3062611 -1.848317
v 0.5526491 0.3073416 -2.018374
v 0.5526357 0.3073714 -1.848603
v 0.5567069 0.3123178 -2.018169
v 0.5287918 0.3623965 -2.036458
v 0.5225755 0.3611674 -2.038298
v 0.5334114 0.3667462 -2.041159
v 0.5315959 0.3719249 -2.042296
v 0.5879666 0.3125286 -2.007522
v 0.6713986 0.3110778 -1.969406
v 0.7393346 0.3099539 -1.935234
v 0.5461277 0.3525386 -1.870637
v 0.552325 0.3571961 -1.870634
v 0.5695015 0.3172455 -1.870634
v 0.5925349 0.3711524 -2.021589
v 0.5921297 0.3648684 -2.021168
v 0.6772799 0.3606839 -1.978121
v 0.6781067 0.366946 -1.978448
v 0.750592 0.3570232 -1.942166
v 0.7524236 0.3632152 -1.942093
v 0.678112 0.3669541 -1.847658
v 0.7522265 0.3632042 -1.846788
v 0.7714399 0.3503125 -1.927691
v 0.7672093 0.3452606 -1.928991
v 0.7823677 0.3178101 -1.910126
v 0.7876654 0.3211303 -1.907994
v 0.7714372 0.3502586 -1.84645
v 0.7876005 0.3212655 -1.84598
v 0.7904859 0.3105538 -1.903734
v 0.790475 0.3105619 -1.845883
v 0.7543552 0.3402574 -1.870634
v 0.7674767 0.3213115 -1.870634
v 0.7846235 0.3113427 -1.906914
v 0.5925403 0.3711576 -1.848684
v 0.7678334 0.3173292 -1.870634
v 0.7380406 0.3502748 -1.870634
v 0.6742866 0.3529384 -1.870634
v 0.6027008 0.3559642 -1.870634
v 0.531677 0.3718979 -1.849176
v 0.5226971 0.3609917 -1.849081
v 0.7846235 0.3113427 -1.906914
v 0.7678334 0.3173292 -1.870634
v 0.7663555 0.3152032 -1.870634
v 0.7490764 0.3158057 -1.870634
v 0.7289796 0.3163757 -1.870634
v 0.6689645 0.3172834 -1.870634
v 0.5977597 0.3183749 -1.870634
v -0.7551403 0.3034461 -1.92483
v -0.7863839 0.3030624 -1.905979
v -0.7863216 0.3030758 -1.845931
v -0.755197 0.3034379 -1.846385
v -0.7826285 0.3094003 -1.909607
v -0.755559 0.3097055 -1.926246
v -0.7904739 0.3105619 -1.845883
v -0.7904847 0.3105538 -1.903734
v -0.7388878 0.3036973 -1.933775
v -0.7386634 0.3036919 -1.846588
v -0.6708682 0.3048239 -1.967912
v -0.6708708 0.3048158 -1.847406
v -0.5870063 0.3062663 -2.006131
v -0.5870659 0.3062611 -1.848317
v -0.5526507 0.3073416 -2.018374
v -0.5526345 0.3073714 -1.848603
v -0.5567057 0.3123178 -2.018169
v -0.5287907 0.3623965 -2.036458
v -0.5225744 0.3611674 -2.038298
v -0.5334129 0.3667462 -2.041159
v -0.5315948 0.3719249 -2.042296
v -0.5879681 0.3125286 -2.007522
v -0.6714003 0.3110778 -1.969406
v -0.7393334 0.3099539 -1.935234
v -0.5461292 0.3525386 -1.870637
v -0.5523267 0.3571961 -1.870634
v -0.5695031 0.3172455 -1.870634
v -0.5925364 0.3711524 -2.021589
v -0.5921285 0.3648684 -2.021168
v -0.6772788 0.3606839 -1.978121
v -0.6781056 0.366946 -1.978448
v -0.7505937 0.3570232 -1.942166
v -0.7524226 0.3632152 -1.942093
v -0.6781137 0.3669541 -1.847658
v -0.7522254 0.3632042 -1.846788
v -0.7714388 0.3503125 -1.927691
v -0.7672081 0.3452606 -1.928991
v -0.7823691 0.3178101 -1.910126
v -0.7876642 0.3211303 -1.907994
v -0.771436 0.3502586 -1.84645
v -0.7876022 0.3212655 -1.84598
v -0.7904847 0.3105538 -1.903734
v -0.7904739 0.3105619 -1.845883
v -0.7543542 0.3402574 -1.870634
v -0.7674756 0.3213115 -1.870634
v -0.7846224 0.3113427 -1.906914
v -0.5925419 0.3711576 -1.848684
v -0.7678323 0.3173292 -1.870634
v -0.7380395 0.3502748 -1.870634
v -0.6742883 0.3529384 -1.870634
v -0.6027024 0.3559642 -1.870634
v -0.5316787 0.3718979 -1.849176
v -0.522696 0.3609917 -1.849081
v -0.7846224 0.3113427 -1.906914
v -0.7678323 0.3173292 -1.870634
v -0.7663572 0.3152032 -1.870634
v -0.7490754 0.3158057 -1.870634
v -0.7289784 0.3163757 -1.870634
v -0.6689661 0.3172834 -1.870634
v -0.5977585 0.3183749 -1.870634
vt 0.614811 0.03940887
vt 0.673875 0.03939612
vt 0.673875 0.008027941
vt 0.6147982 0.008027941
vt 0.605171 0.01208285
vt 0.6058978 0.03912834
vt 0.673875 0.002544885
vt 0.614811 0.002544885
vt 0.614811 0.05604931
vt 0.673875 0.05604931
vt 0.614811 0.1243325
vt 0.673875 0.1243325
vt 0.6140842 0.2094474
vt 0.673875 0.2096896
vt 0.6141097 0.2459926
vt 0.673875 0.245457
vt 0.6058978 0.245457
vt 0.6058596 0.3133067
vt 0.614811 0.3134469
vt 0.6058851 0.3301256
vt 0.6141097 0.3303806
vt 0.6058978 0.2096896
vt 0.6058978 0.1243325
vt 0.6058978 0.05604931
vt 0.5619569 0.3130516
vt 0.5619569 0.3301001
vt 0.5590751 0.2437229
vt 0.614811 0.3918036
vt 0.6058978 0.3918036
vt 0.6058978 0.484174
vt 0.614811 0.484174
vt 0.6058978 0.5537196
vt 0.614811 0.5537196
vt 0.673875 0.484174
vt 0.673875 0.5537196
vt 0.6146708 0.5795027
vt 0.6058851 0.5798215
vt 0.6058978 0.6227933
vt 0.614811 0.6227933
vt 0.673875 0.5794644
vt 0.673875 0.6227933
vt 0.614811 0.6343588
vt 0.673875 0.6343588
vt 0.5619569 0.5834045
vt 0.5619569 0.6280596
vt 0.6058978 0.6343588
vt 0.673875 0.3918036
vt 0.5619569 0.6361822
vt 0.5619569 0.5537196
vt 0.5619569 0.484174
vt 0.5619569 0.3918036
vt 0.673875 0.3301001
vt 0.673875 0.3130516
vt 0.6058978 0.002544885
vt 0.5619569 0.002544885
vt 0.5625179 0.007874927
vt 0.5620334 0.02938636
vt 0.5619696 0.05369032
vt 0.5619569 0.1243325
vt 0.5618166 0.2094856
vt 1.614818 0.03940887
vt 1.614793 0.008027941
vt 1.67387 0.008027941
vt 1.67387 0.03939612
vt 1.605166 0.01208285
vt 1.605893 0.03912834
vt 1.67387 0.002544885
vt 1.614818 0.002544885
vt 1.614818 0.05604931
vt 1.67387 0.05604931
vt 1.614818 0.1243325
vt 1.67387 0.1243325
vt 1.614092 0.2094474
vt 1.67387 0.2096896
vt 1.614117 0.2459926
vt 1.67387 0.245457
vt 1.605893 0.245457
vt 1.605854 0.3133067
vt 1.614818 0.3134469
vt 1.605893 0.3301256
vt 1.614117 0.3303806
vt 1.605893 0.2096896
vt 1.605893 0.1243325
vt 1.605893 0.05604931
vt 1.561952 0.3130516
vt 1.561952 0.3301001
vt 1.559083 0.2437229
vt 1.614818 0.3918036
vt 1.605893 0.3918036
vt 1.605893 0.484174
vt 1.614818 0.484174
vt 1.605893 0.5537196
vt 1.614818 0.5537196
vt 1.67387 0.484174
vt 1.67387 0.5537196
vt 1.614666 0.5795027
vt 1.605893 0.5798215
vt 1.605893 0.6227933
vt 1.614818 0.6227933
vt 1.67387 0.5794644
vt 1.67387 0.6227933
vt 1.614818 0.6343588
vt 1.67387 0.6343588
vt 1.561952 0.5834045
vt 1.561952 0.6280596
vt 1.605893 0.6343588
vt 1.67387 0.3918036
vt 1.561952 0.6361822
vt 1.561952 0.5537196
vt 1.561952 0.484174
vt 1.561952 0.3918036
vt 1.67387 0.3301001
vt 1.67387 0.3130516
vt 1.605893 0.002544885
vt 1.561952 0.002544885
vt 1.562513 0.007874927
vt 1.562041 0.02938636
vt 1.561964 0.05369032
vt 1.561952 0.1243325
vt 1.561811 0.2094856
vn 0.03832841 -0.9960026 -0.08068358
vn -0.01248693 -0.9999114 -0.004606436
vn 0.1731846 -0.9842759 0.0347564
vn 0.1321414 -0.9901392 -0.04650735
vn 0.157549 0.9271635 -0.3399208
vn 0.126278 0.9662522 -0.2245228
vn 0.9977105 -0.06762825 0
vn 0.997957 -0.05982721 -0.02241764
vn 0.009011805 -0.997957 -0.06325033
vn -0.01639506 -0.9998657 0
vn 0.005102932 -0.997957 -0.06368515
vn -0.01639506 -0.9998657 0
vn -0.004669189 -0.9999114 -0.01246313
vn -0.02225557 -0.9997523 0
vn -0.7258565 -0.6872015 -0.02977164
vn -0.6633145 -0.747789 -0.0287309
vn 0.7282447 0.6730866 -0.1288955
vn 0.9588683 0.2255206 -0.172372
vn -0.9737025 -0.2278228 0
vn 0.07155383 -0.9881848 -0.135539
vn -0.1453411 0.9893816 0
vn 0.03637397 0.9936144 -0.106805
vn 0.06178164 0.99166 -0.1131083
vn 0.0754627 0.9857967 -0.1500341
vn 0.546482 -0.4448513 -0.7095525
vn 0.7986044 -0.4956667 -0.3413876
vn 0.3236762 0.7668997 -0.5541647
vn 0.04419172 0.9975233 -0.05472073
vn -0.0007603168 -0.9940481 -0.1089393
vn 0.00119406 -0.9920937 -0.1254937
vn 0.07155383 0.9955689 -0.06101367
vn -0.03398573 -0.9842759 -0.1733374
vn 0.1301869 0.9897056 -0.05944962
vn 0.05001849 0.9987482 0
vn 0.1536402 0.9877511 0.02724767
vn 0.7204269 0.6887223 -0.08152725
vn -0.5108684 -0.7907867 -0.3371496
vn -0.7082666 -0.5914341 -0.3854401
vn 0.9021896 0.4248732 -0.07440914
vn 0.7516979 0.6594056 0.01159989
vn 0.8982807 0.4385543 0.02760328
vn 0.997957 -0.05982721 -0.02241764
vn 0.9977105 -0.06762825 0
vn -0.7923074 -0.4174892 -0.4449177
vn -0.9095736 -0.03051066 -0.4144213
vn -0.6730866 0.04962122 -0.7378971
vn 0.03246494 0.9994729 0
vn -0.522595 0.6809045 -0.513092
vn -0.6398612 -0.6852471 -0.3478707
vn 0.5601631 -0.8220577 -0.102169
vn -0.477643 -0.7223814 -0.5000224
vn -0.1491629 0.9888127 0
vn -0.9539282 -0.3000351 0
vn -0.6730866 0.04962122 -0.7378971
vn -0.522595 0.6809045 -0.513092
vn 0.1770934 0.7962162 -0.5785133
vn -0.4307365 0.8919836 -0.1372268
vn -0.4072833 0.9017558 -0.1447645
vn 0.4116259 0.7981707 -0.4398724
vn -0.5812281 0.8098973 -0.07899524
vn -0.03789461 -0.9960026 -0.08088832
vn -0.1317077 -0.9901392 -0.04772184
vn -0.1727508 -0.9842759 0.03685149
vn 0.01292074 -0.9999114 -0.003192553
vn -0.1590698 0.9271635 -0.3392119
vn -0.1258444 0.9662522 -0.2247663
vn -0.9975233 -0.06764495 -0.01927188
vn -0.9975233 -0.05982721 -0.03698581
vn -0.008578062 -0.997957 -0.06331061
vn 0.01682872 -0.9998584 0
vn -0.004669189 -0.997957 -0.06371836
vn 0.01682872 -0.9998584 0
vn 0.005102932 -0.9999114 -0.01229218
vn 0.02268909 -0.9997425 0
vn 0.7262902 -0.6872015 -0.01601961
vn 0.6637483 -0.747789 0.01580516
vn -0.727811 0.6730866 -0.1313224
vn -0.9584345 0.2255206 -0.1747679
vn 0.9725493 -0.2279088 -0.04696194
vn -0.07112014 -0.9881848 -0.1357672
vn 0.1457655 0.9893192 0
vn -0.03594017 0.9936144 -0.1069517
vn -0.06134784 0.99166 -0.1133441
vn -0.07502902 0.9857967 -0.1502514
vn -0.5597293 -0.8259665 -0.06695064
vn -0.3799212 -0.5914341 -0.7112423
vn -0.7102211 0.5695015 -0.4138286
vn -0.04375792 0.9975233 -0.05506819
vn -0.0007603168 -0.9940481 -0.1089393
vn -0.0007603168 -0.9920937 -0.1254971
vn -0.07112014 0.9955689 -0.06151908
vn 0.03441954 -0.9842759 -0.1732518
vn -0.1297532 0.9897056 -0.06039015
vn -0.04958608 0.9987699 0
vn -0.1551609 0.9877511 -0.01651697
vn -0.7219477 0.6887223 -0.06673217
vn 0.5113022 -0.7907867 -0.3364915
vn 0.7087003 -0.5914341 -0.3846422
vn -0.9037102 0.4248732 -0.05282514
vn -0.7512642 0.6594056 0.02804165
vn -0.8978469 0.4385543 -0.039256
vn -0.9975233 -0.05982721 -0.03698581
vn -0.9975233 -0.06764495 -0.01927188
vn 0.8670097 -0.3901271 -0.309992
vn 0.515211 -0.657885 -0.5493132
vn 0.671566 0.04962122 -0.7392813
vn -0.0320313 0.9994777 -0.004270717
vn 0.6754749 -0.2337721 -0.6993456
vn -0.276336 -0.9432328 -0.1842563
vn -0.3896934 -0.7907867 -0.4720122
vn -0.6261802 -0.7731967 -0.1003255
vn 0.1476768 0.9890357 0
vn 0.953005 -0.3002229 0.04059246
vn 0.671566 0.04962122 -0.7392813
vn 0.6754749 -0.2337721 -0.6993456
vn 0.7047914 0.6848134 -0.1852018
vn 0.2963141 0.8548493 -0.4259467
vn 0.2806786 0.8763481 -0.3914505
vn 0.5191199 0.848986 -0.09867752
vn 0.4116259 0.7923074 -0.4503478
g model_car_98_matte_exhaust_LOD1_0
f 3/3/3 2/2/2 1/1/1
f 4/4/4 3/3/3 1/1/1
f 5/5/5 4/4/4 1/1/1
f 6/6/6 5/5/5 1/1/1
f 7/7/7 3/3/3 4/4/4
f 8/8/8 7/7/7 4/4/4
f 4/4/4 5/5/5 8/8/8
f 1/1/1 2/2/2 9/9/9
f 2/2/2 10/10/10 9/9/9
f 9/9/9 10/10/10 11/11/11
f 10/10/10 12/12/12 11/11/11
f 11/11/11 12/12/12 13/13/13
f 12/12/12 14/14/14 13/13/13
f 13/13/13 14/14/14 15/15/15
f 14/14/14 16/16/16 15/15/15
f 15/15/15 17/17/17 13/13/13
f 18/18/18 17/17/17 15/15/15
f 19/19/19 18/18/18 15/15/15
f 20/20/20 18/18/18 19/19/19
f 21/21/21 20/20/20 19/19/19
f 17/17/17 22/22/22 13/13/13
f 11/11/11 23/23/23 9/9/9
f 23/23/23 11/11/11 13/13/13
f 22/22/22 23/23/23 13/13/13
f 23/23/23 24/24/24 9/9/9
f 25/25/25 18/18/18 20/20/20
f 18/18/18 25/25/25 17/17/17
f 26/26/26 25/25/25 20/20/20
f 25/25/25 27/27/27 17/17/17
f 17/17/17 27/27/27 22/22/22
f 21/21/21 28/28/28 20/20/20
f 28/28/28 29/29/29 20/20/20
f 20/20/20 29/29/29 26/26/26
f 30/30/30 29/29/29 28/28/28
f 31/31/31 30/30/30 28/28/28
f 32/32/32 30/30/30 31/31/31
f 33/33/33 32/32/32 31/31/31
f 31/31/31 34/34/34 33/33/33
f 34/34/34 35/35/35 33/33/33
f 32/32/32 33/33/33 36/36/36
f 37/37/37 32/32/32 36/36/36
f 38/38/38 37/37/37 36/36/36
f 39/39/39 38/38/38 36/36/36
f 36/36/36 40/40/40 39/39/39
f 33/33/33 35/35/35 40/40/40
f 36/36/36 33/33/33 40/40/40
f 40/40/40 41/41/41 39/39/39
f 39/39/39 41/41/41 42/42/42
f 41/41/41 43/43/43 42/42/42
f 37/37/37 38/38/38 44/44/44
f 38/38/38 45/45/45 44/44/44
f 46/46/46 38/38/38 39/39/39
f 42/42/42 46/46/46 39/39/39
f 47/47/47 34/34/34 31/31/31
f 48/48/48 45/45/45 38/38/38
f 46/46/46 48/48/48 38/38/38
f 37/37/37 44/44/44 49/49/49
f 32/32/32 37/37/37 49/49/49
f 32/32/32 49/49/49 30/30/30
f 49/49/49 50/50/50 30/30/30
f 30/30/30 50/50/50 51/51/51
f 29/29/29 30/30/30 51/51/51
f 29/29/29 51/51/51 26/26/26
f 28/28/28 47/47/47 31/31/31
f 47/47/47 28/28/28 52/52/52
f 28/28/28 21/21/21 52/52/52
f 53/53/53 52/52/52 21/21/21
f 19/19/19 53/53/53 21/21/21
f 53/53/53 19/19/19 15/15/15
f 16/16/16 53/53/53 15/15/15
f 5/5/5 54/54/54 8/8/8
f 54/54/54 5/5/5 55/55/55
f 5/5/5 56/56/56 55/55/55
f 57/57/57 56/56/56 5/5/5
f 6/6/6 57/57/57 5/5/5
f 58/58/58 57/57/57 6/6/6
f 24/24/24 58/58/58 6/6/6
f 24/24/24 23/23/23 58/58/58
f 23/23/23 59/59/59 58/58/58
f 60/60/60 59/59/59 23/23/23
f 22/22/22 60/60/60 23/23/23
f 27/27/27 60/60/60 22/22/22
f 24/24/24 6/6/6 1/1/1
f 9/9/9 24/24/24 1/1/1
f 63/63/63 62/62/62 61/61/61
f 64/64/64 63/63/63 61/61/61
f 62/62/62 65/65/65 61/61/61
f 65/65/65 66/66/66 61/61/61
f 63/63/63 67/67/67 62/62/62
f 67/67/67 68/68/68 62/62/62
f 65/65/65 62/62/62 68/68/68
f 64/64/64 61/61/61 69/69/69
f 70/70/70 64/64/64 69/69/69
f 70/70/70 69/69/69 71/71/71
f 72/72/72 70/70/70 71/71/71
f 72/72/72 71/71/71 73/73/73
f 74/74/74 72/72/72 73/73/73
f 74/74/74 73/73/73 75/75/75
f 76/76/76 74/74/74 75/75/75
f 77/77/77 75/75/75 73/73/73
f 77/77/77 78/78/78 75/75/75
f 78/78/78 79/79/79 75/75/75
f 78/78/78 80/80/80 79/79/79
f 80/80/80 81/81/81 79/79/79
f 82/82/82 77/77/77 73/73/73
f 83/83/83 71/71/71 69/69/69
f 83/83/83 82/82/82 73/73/73
f 71/71/71 83/83/83 73/73/73
f 84/84/84 83/83/83 69/69/69
f 78/78/78 85/85/85 80/80/80
f 85/85/85 78/78/78 77/77/77
f 85/85/85 86/86/86 80/80/80
f 87/87/87 85/85/85 77/77/77
f 87/87/87 77/77/77 82/82/82
f 88/88/88 81/81/81 80/80/80
f 89/89/89 88/88/88 80/80/80
f 89/89/89 80/80/80 86/86/86
f 89/89/89 90/90/90 88/88/88
f 90/90/90 91/91/91 88/88/88
f 90/90/90 92/92/92 91/91/91
f 92/92/92 93/93/93 91/91/91
f 94/94/94 91/91/91 93/93/93
f 95/95/95 94/94/94 93/93/93
f 93/93/93 92/92/92 96/96/96
f 92/92/92 97/97/97 96/96/96
f 97/97/97 98/98/98 96/96/96
f 98/98/98 99/99/99 96/96/96
f 100/100/100 96/96/96 99/99/99
f 93/93/93 96/96/96 100/100/100
f 95/95/95 93/93/93 100/100/100
f 101/101/101 100/100/100 99/99/99
f 101/101/101 99/99/99 102/102/102
f 103/103/103 101/101/101 102/102/102
f 98/98/98 97/97/97 104/104/104
f 105/105/105 98/98/98 104/104/104
f 106/106/106 102/102/102 99/99/99
f 98/98/98 106/106/106 99/99/99
f 94/94/94 107/107/107 91/91/91
f 108/108/108 106/106/106 98/98/98
f 105/105/105 108/108/108 98/98/98
f 104/104/104 97/97/97 109/109/109
f 97/97/97 92/92/92 109/109/109
f 109/109/109 92/92/92 90/90/90
f 110/110/110 109/109/109 90/90/90
f 110/110/110 90/90/90 111/111/111
f 90/90/90 89/89/89 111/111/111
f 111/111/111 89/89/89 86/86/86
f 107/107/107 88/88/88 91/91/91
f 88/88/88 107/107/107 112/112/112
f 81/81/81 88/88/88 112/112/112
f 112/112/112 113/113/113 81/81/81
f 113/113/113 79/79/79 81/81/81
f 79/79/79 113/113/113 75/75/75
f 113/113/113 76/76/76 75/75/75
f 114/114/114 65/65/65 68/68/68
f 65/65/65 114/114/114 115/115/115
f 116/116/116 65/65/65 115/115/115
f 116/116/116 117/117/117 65/65/65
f 117/117/117 66/66/66 65/65/65
f 117/117/117 118/118/118 66/66/66
f 118/118/118 84/84/84 66/66/66
f 83/83/83 84/84/84 118/118/118
f 119/119/119 83/83/83 118/118/118
f 119/119/119 120/120/120 83/83/83
f 120/120/120 82/82/82 83/83/83
f 120/120/120 87/87/87 82/82/82
f 66/66/66 84/84/84 61/61/61
f 84/84/84 69/69/69 61/61/61
