g Glass_30
v 0.2257 0.9141998 1.2116
v 0.3189 1.096 0.8368002
v 0.4296 0.9134998 1.1905
v 0.5285 1.0935 0.7838002
v 0.4816 1.1999 0.5833002
v 0.7001 1.0807 0.7031002
v 0.001 1.0979 0.8631002
v 0.2622 1.2084 0.6169002
v 0.4366 1.2934 0.3376002
v 0.001 0.9149998 1.2299
v 0.6202 0.9026998 1.1144
v 0.781 0.8982998 1.0245
v 0.001 1.2106 0.6327002
v 0.1875 1.3096 0.3612002
v 0.001 1.312 0.3668002
v 0.5925 1.277 0.2991002
v 0.6527 1.1745 0.5187002
v -0.2237 0.9141998 1.2116
v -0.3169 1.096 0.8368002
v -0.4276 0.9134998 1.1905
v -0.5265 1.0935 0.7838002
v -0.2602 1.2084 0.6169002
v -0.4796 1.1999 0.5833002
v -0.1855 1.3096 0.3612002
v -0.4346 1.2934 0.3376002
v -0.6981 1.0807 0.7031002
v -0.6182 0.9026998 1.1144
v -0.779 0.8982998 1.0245
v -0.5905 1.277 0.2991002
v -0.6507 1.1745 0.5187002
v 0.6223 1.2982 -0.6254998
v 0.802 0.95 -0.4405998
v 0.6046 1.3241 -0.3607998
v 0.8034 0.9353 -0.09959985
v 0.5975 1.3174 -0.09339979
v 0.605 1.2789 0.1578002
v 0.6192 1.2399 0.2999002
v 0.8045 0.9080999 0.5152002
v 0.6602 1.1651 0.5045002
v 0.7062 1.072 0.6821002
v 0.7989 0.9018999 0.6829002
v 0.6327 1.2784 -0.7415998
v 0.7723 0.9827001 -0.8603998
v 0.661 1.2183 -0.9477998
v 0.7503 1.0062 -1.1358
v 0.689 1.1394 -1.1416
v 0.7029 1.1075 -1.1643
v 0.5594 1.2641 -0.9827998
v 0.4151 1.336 -0.7816998
v 0.4202 1.2766 -1.0227
v 0.5324 1.3213 -0.7575998
v 0.5839 1.1508 -1.3033
v 0.4274 1.1741 -1.3508
v 0.5926 1.0371 -1.5928
v 0.4359 1.0511 -1.6553
v 0.1996 1.1833 -1.384
v 0.2059 1.06 -1.6934
v 0.001 1.1866 -1.3899
v 0.001 1.0626 -1.6986
v 0.1951 1.2858 -1.0524
v 0.1915 1.3455 -0.8084998
v 0.001 1.2896 -1.0587
v 0.001 1.3497 -0.8151998
v -0.2039 1.06 -1.6934
v -0.1976 1.1833 -1.384
v -0.4339 1.0511 -1.6553
v -0.4254 1.1741 -1.3508
v -0.5906 1.0371 -1.5928
v -0.5819 1.1508 -1.3033
v -0.1932 1.2858 -1.0524
v -0.4182 1.2766 -1.0227
v -0.5574 1.2641 -0.9827998
v -0.4132 1.336 -0.7816998
v -0.5304 1.3213 -0.7575998
v -0.1895 1.3455 -0.8084998
v -0.6203 1.2982 -0.6254998
v -0.6026 1.3241 -0.3607998
v -0.8 0.95 -0.4405998
v -0.8014 0.9353 -0.09959985
v -0.5955 1.3174 -0.09339979
v -0.603 1.2789 0.1578002
v -0.6172 1.2399 0.2999002
v -0.8025 0.9080999 0.5152002
v -0.6582 1.1651 0.5045002
v -0.7042 1.072 0.6821002
v -0.7969 0.9018999 0.6829002
v -0.6307 1.2784 -0.7415998
v -0.7703 0.9827001 -0.8603998
v -0.659 1.2183 -0.9477998
v -0.7483 1.0062 -1.1358
v -0.687 1.1394 -1.1416
v -0.7009 1.1075 -1.1643
vt 0.5792 0.027
vt 0.6152 0.1828
vt 0.6605 0.0344
vt 0.6991 0.2008
vt 0.6793 0.2852
vt 0.7697 0.2265
vt 0.4887 0.1735
vt 0.5919 0.2747
vt 0.6617 0.3834
vt 0.4896 0.0205
vt 0.7383 0.0588
vt 0.8044 0.0888
vt 0.4881 0.2692
vt 0.5619 0.3773
vt 0.4875 0.3754
vt 0.7251 0.3945
vt 0.75 0.3039
vt 0.3999 0.026
vt 0.3621 0.1815
vt 0.3185 0.0327
vt 0.278 0.1986
vt 0.3843 0.2736
vt 0.2968 0.2832
vt 0.413 0.3765
vt 0.3131 0.3816
vt 0.207 0.2236
vt 0.2405 0.0562
vt 0.1739 0.0855
vt 0.2496 0.392
vt 0.2258 0.3012
vt 0.8058 0.7465
vt 0.9592 0.6725
vt 0.7899 0.6481
vt 0.96 0.545
vt 0.7872 0.5482
vt 0.7987 0.4539
vt 0.8132 0.4003
vt 0.9615 0.3152
vt 0.8444 0.3229
vt 0.8833 0.2553
vt 0.9604 0.2525
vt 0.8163 0.7896
vt 0.9481 0.8298
vt 0.8455 0.8657
vt 0.9396 0.9331
vt 0.8813 0.937
vt 0.8955 0.9451
vt 0.7113 0.7047
vt 0.6536 0.6248
vt 0.6551 0.7177
vt 0.7011 0.6176
vt 0.7217 0.8319
vt 0.6577 0.8459
vt 0.7259 0.9484
vt 0.6618 0.9685
vt 0.5668 0.8566
vt 0.5697 0.9809
vt 0.488 0.8582
vt 0.488 0.9825
vt 0.5652 0.7272
vt 0.5641 0.6333
vt 0.488 0.729
vt 0.488 0.6353
vt 0.4062 0.9809
vt 0.4091 0.8566
vt 0.3141 0.9685
vt 0.3183 0.8459
vt 0.25 0.9484
vt 0.2542 0.8319
vt 0.4107 0.7272
vt 0.3209 0.7177
vt 0.2646 0.7047
vt 0.3223 0.6248
vt 0.2748 0.6176
vt 0.4119 0.6333
vt 0.1784 0.7501
vt 0.1949 0.6517
vt 0.0254 0.6752
vt 0.0254 0.5478
vt 0.1981 0.5519
vt 0.1872 0.4575
vt 0.1731 0.4038
vt 0.0252 0.3179
vt 0.1423 0.3262
vt 0.1038 0.2584
vt 0.0267 0.2553
vt 0.1676 0.7931
vt 0.0356 0.8326
vt 0.138 0.869
vt 0.0435 0.9359
vt 0.1018 0.9402
vt 0.0875 0.9482
vn 0.04403358 0.8941891 0.4455186
vn 0.07873934 0.8950284 0.4390038
vn 0.1235393 0.8886564 0.4416195
vn 0.1978966 0.8821071 0.4274622
vn 0.1744356 0.9083666 0.3800556
vn 0.2642041 0.8737759 0.4083036
vn 0 0.895959 0.4441367
vn 0.06551154 0.9160929 0.3955781
vn 0.1332562 0.9337702 0.3321386
vn 0 0.8949146 0.4462375
vn 0.2419155 0.8679229 0.433805
vn 0.2628489 0.8655866 0.426228
vn 0 0.9161331 0.4008741
vn 0.05494893 0.9344972 0.3517038
vn 0 0.9343653 0.3563167
vn 0.210941 0.919479 0.3317565
vn 0.2694469 0.8920087 0.3629308
vn -0.04403354 0.8941892 0.4455185
vn -0.07873935 0.8950285 0.4390036
vn -0.1235393 0.8886565 0.4416194
vn -0.1978966 0.882107 0.4274624
vn -0.06551154 0.9160929 0.3955783
vn -0.1744357 0.9083666 0.3800557
vn -0.05494892 0.9344971 0.351704
vn -0.1332561 0.9337702 0.3321386
vn -0.2642042 0.8737758 0.4083038
vn -0.2419155 0.8679228 0.4338051
vn -0.2628489 0.8655866 0.4262281
vn -0.2109409 0.919479 0.3317566
vn -0.2694471 0.8920087 0.3629307
vn 0.88724 0.4612643 0.006357275
vn 0.889603 0.4567254 0.00291215
vn 0.8837754 0.4674092 0.02167549
vn 0.8786787 0.4765748 0.02828575
vn 0.8798746 0.4734755 0.04051727
vn 0.8790933 0.4746109 0.04403912
vn 0.8721893 0.4885624 0.02433951
vn 0.8716772 0.4892786 0.02802647
vn 0.8716393 0.4899648 0.01339761
vn 0.8730846 0.4861791 0.03678514
vn 0.8770111 0.4781694 0.04696438
vn 0.8970616 0.4417972 -0.009784049
vn 0.9039218 0.426902 -0.02607582
vn 0.9065756 0.4216374 -0.0185095
vn 0.9086207 0.4160041 -0.03672936
vn 0.9084215 0.4164905 -0.03614065
vn 0.9085102 0.4168237 -0.02944982
vn 0.1650048 0.9486858 -0.2697568
vn 0.1191969 0.9653496 -0.2321472
vn 0.1236413 0.9546513 -0.2708388
vn 0.1663589 0.9602935 -0.2239666
vn 0.2254026 0.9208549 -0.3181507
vn 0.1584549 0.9313635 -0.3278019
vn 0.2289572 0.9058086 -0.3564961
vn 0.1509517 0.9185618 -0.3653187
vn 0.05689333 0.9409468 -0.3337398
vn 0.05837386 0.9273804 -0.3695377
vn 0 0.9423398 -0.3346574
vn 0 0.927937 -0.3727371
vn 0.05170957 0.9622672 -0.2671477
vn 0.05062954 0.9701762 -0.2370545
vn 0 0.9633622 -0.2682039
vn 0 0.9711934 -0.2382925
vn -0.05837375 0.9273802 -0.3695382
vn -0.05689043 0.9409449 -0.3337457
vn -0.1509518 0.9185617 -0.365319
vn -0.1584587 0.9313617 -0.3278053
vn -0.2289573 0.9058084 -0.3564963
vn -0.2254025 0.9208549 -0.3181507
vn -0.05172164 0.9622675 -0.2671445
vn -0.1236478 0.9546473 -0.2708502
vn -0.1650306 0.9486755 -0.2697773
vn -0.1192482 0.9653395 -0.2321626
vn -0.1664941 0.9602751 -0.2239452
vn -0.05062319 0.9701777 -0.2370496
vn -0.8872398 0.4612647 0.006357026
vn -0.8837752 0.4674095 0.0216756
vn -0.889603 0.4567254 0.002912159
vn -0.8786787 0.476575 0.02828572
vn -0.8798745 0.4734758 0.04051726
vn -0.8790932 0.4746111 0.04403883
vn -0.8721893 0.4885624 0.02433936
vn -0.8716772 0.4892786 0.02802649
vn -0.8716393 0.4899647 0.01339755
vn -0.8730847 0.486179 0.03678511
vn -0.8770112 0.4781691 0.0469646
vn -0.8970616 0.4417971 -0.009784265
vn -0.9039219 0.4269019 -0.02607577
vn -0.9065756 0.4216374 -0.01850953
vn -0.9086208 0.4160039 -0.03672902
vn -0.9084216 0.41649 -0.03614003
vn -0.9085103 0.4168237 -0.02944561
g Glass_30_0
f 3/3/3 2/2/2 1/1/1
f 4/4/4 2/2/2 3/3/3
f 5/5/5 2/2/2 4/4/4
f 5/5/5 4/4/4 6/6/6
f 2/2/2 7/7/7 1/1/1
f 8/8/8 7/7/7 2/2/2
f 8/8/8 2/2/2 5/5/5
f 9/9/9 8/8/8 5/5/5
f 1/1/1 7/7/7 10/10/10
f 11/11/11 4/4/4 3/3/3
f 12/12/12 4/4/4 11/11/11
f 6/6/6 4/4/4 12/12/12
f 13/13/13 7/7/7 8/8/8
f 14/14/14 13/13/13 8/8/8
f 14/14/14 8/8/8 9/9/9
f 15/15/15 13/13/13 14/14/14
f 9/9/9 5/5/5 16/16/16
f 16/16/16 5/5/5 17/17/17
f 17/17/17 5/5/5 6/6/6
f 18/18/18 10/10/10 7/7/7
f 7/7/7 19/19/19 18/18/18
f 19/19/19 20/20/20 18/18/18
f 19/19/19 21/21/21 20/20/20
f 7/7/7 22/22/22 19/19/19
f 7/7/7 13/13/13 22/22/22
f 19/19/19 23/23/23 21/21/21
f 19/19/19 22/22/22 23/23/23
f 13/13/13 24/24/24 22/22/22
f 13/13/13 15/15/15 24/24/24
f 22/22/22 25/25/25 23/23/23
f 22/22/22 24/24/24 25/25/25
f 21/21/21 23/23/23 26/26/26
f 21/21/21 27/27/27 20/20/20
f 21/21/21 28/28/28 27/27/27
f 21/21/21 26/26/26 28/28/28
f 23/23/23 25/25/25 29/29/29
f 23/23/23 29/29/29 30/30/30
f 23/23/23 30/30/30 26/26/26
f 33/33/33 32/32/32 31/31/31
f 34/34/34 32/32/32 33/33/33
f 35/35/35 34/34/34 33/33/33
f 36/36/36 34/34/34 35/35/35
f 37/37/37 34/34/34 36/36/36
f 38/38/38 34/34/34 37/37/37
f 39/39/39 38/38/38 37/37/37
f 39/39/39 40/40/40 38/38/38
f 41/41/41 38/38/38 40/40/40
f 42/42/42 31/31/31 32/32/32
f 43/43/43 42/42/42 32/32/32
f 44/44/44 42/42/42 43/43/43
f 43/43/43 45/45/45 44/44/44
f 46/46/46 44/44/44 45/45/45
f 45/45/45 47/47/47 46/46/46
f 50/50/50 49/49/49 48/48/48
f 51/51/51 48/48/48 49/49/49
f 48/48/48 52/52/52 50/50/50
f 53/53/53 50/50/50 52/52/52
f 52/52/52 54/54/54 53/53/53
f 55/55/55 53/53/53 54/54/54
f 53/53/53 55/55/55 56/56/56
f 57/57/57 56/56/56 55/55/55
f 56/56/56 57/57/57 58/58/58
f 59/59/59 58/58/58 57/57/57
f 50/50/50 53/53/53 60/60/60
f 56/56/56 60/60/60 53/53/53
f 49/49/49 50/50/50 61/61/61
f 60/60/60 61/61/61 50/50/50
f 60/60/60 56/56/56 62/62/62
f 58/58/58 62/62/62 56/56/56
f 61/61/61 60/60/60 63/63/63
f 62/62/62 63/63/63 60/60/60
f 59/59/59 64/64/64 58/58/58
f 65/65/65 58/58/58 64/64/64
f 58/58/58 65/65/65 62/62/62
f 64/64/64 66/66/66 65/65/65
f 67/67/67 65/65/65 66/66/66
f 66/66/66 68/68/68 67/67/67
f 69/69/69 67/67/67 68/68/68
f 65/65/65 67/67/67 70/70/70
f 70/70/70 62/62/62 65/65/65
f 62/62/62 70/70/70 63/63/63
f 71/71/71 70/70/70 67/67/67
f 67/67/67 69/69/69 71/71/71
f 72/72/72 71/71/71 69/69/69
f 71/71/71 72/72/72 73/73/73
f 74/74/74 73/73/73 72/72/72
f 70/70/70 71/71/71 75/75/75
f 73/73/73 75/75/75 71/71/71
f 75/75/75 63/63/63 70/70/70
f 78/78/78 77/77/77 76/76/76
f 78/78/78 79/79/79 77/77/77
f 79/79/79 80/80/80 77/77/77
f 79/79/79 81/81/81 80/80/80
f 79/79/79 82/82/82 81/81/81
f 79/79/79 83/83/83 82/82/82
f 83/83/83 84/84/84 82/82/82
f 84/84/84 83/83/83 85/85/85
f 86/86/86 85/85/85 83/83/83
f 76/76/76 87/87/87 78/78/78
f 87/87/87 88/88/88 78/78/78
f 87/87/87 89/89/89 88/88/88
f 88/88/88 89/89/89 90/90/90
f 91/91/91 90/90/90 89/89/89
f 92/92/92 90/90/90 91/91/91
