g ref_30
v 0.53 0.5637996 2.3185
v 0.5479 0.6829997 2.2591
v 0.6297 0.5687996 2.2757
v 0.6621 0.6898996 2.2046
v 0.7075 0.5748996 2.2289
v 0.7449 0.6957996 2.1491
v 0.4151 0.6759996 2.307
v 0.4026 0.5615997 2.3497
v 0.3879 0.5696996 2.3502
v 0.7284 0.5770996 2.2145
v 0.7574 0.6955996 2.1392
v 0.8207 0.6023997 2.0696
v 0.826 0.7019997 1.9864
v -0.528 0.5637996 2.3185
v -0.6277 0.5687996 2.2757
v -0.5459 0.6829997 2.2591
v -0.6601 0.6898996 2.2046
v -0.7055 0.5748996 2.2289
v -0.743 0.6957996 2.1491
v -0.4131 0.6759996 2.307
v -0.4006 0.5615997 2.3497
v -0.3859 0.5696996 2.3502
v -0.7264 0.5770996 2.2145
v -0.7554 0.6955996 2.1392
v -0.8187 0.6023997 2.0696
v -0.824 0.7019997 1.9864
vt 0.5811 0.4263
vt 0.5898 0.4758
vt 0.6236 0.4336
vt 0.6392 0.4854
vt 0.6587 0.442
vt 0.6777 0.495
vt 0.5343 0.4674
vt 0.5291 0.4218
vt 0.5231 0.4246
vt 0.6684 0.4448
vt 0.6838 0.4963
vt 0.7305 0.4733
vt 0.7458 0.5197
vt 0.4096 0.4222
vt 0.3669 0.4281
vt 0.399 0.4714
vt 0.3493 0.4793
vt 0.3315 0.4353
vt 0.3105 0.4876
vt 0.4549 0.4648
vt 0.4618 0.4194
vt 0.4677 0.4225
vt 0.3216 0.4378
vt 0.3043 0.4887
vt 0.2585 0.4642
vt 0.2415 0.51
vn 0.2966093 0.3656573 0.8822231
vn 0.3378229 0.3874663 0.8577561
vn 0.3964466 0.3735929 0.838605
vn 0.4509967 0.3719884 0.8113117
vn 0.4834496 0.3590316 0.7983563
vn 0.5582403 0.3396106 0.7569891
vn 0.2540046 0.3533134 0.9003617
vn 0.2148228 0.3208353 0.922451
vn 0.2087896 0.3218777 0.9234726
vn 0.6085142 0.3069117 0.7317894
vn 0.7733883 0.2475191 0.5836136
vn 0.8543834 0.2336749 0.464139
vn 0.8685774 0.289658 0.4020841
vn -0.2966093 0.3656576 0.882223
vn -0.3964465 0.3735933 0.8386049
vn -0.3378229 0.3874665 0.857756
vn -0.4508085 0.3719423 0.8114374
vn -0.4833894 0.3588919 0.7984555
vn -0.5602995 0.3383577 0.7560281
vn -0.2540046 0.3533133 0.9003618
vn -0.2148229 0.320834 0.9224515
vn -0.2087898 0.3218745 0.9234737
vn -0.6086763 0.3065802 0.7317935
vn -0.7742782 0.2467576 0.5827555
vn -0.8543834 0.2336749 0.464139
vn -0.8685774 0.289658 0.4020841
g ref_30_0
f 3/3/3 2/2/2 1/1/1
f 4/4/4 2/2/2 3/3/3
f 5/5/5 4/4/4 3/3/3
f 6/6/6 4/4/4 5/5/5
f 7/7/7 1/1/1 2/2/2
f 8/8/8 1/1/1 7/7/7
f 9/9/9 8/8/8 7/7/7
f 5/5/5 10/10/10 6/6/6
f 6/6/6 10/10/10 11/11/11
f 12/12/12 11/11/11 10/10/10
f 13/13/13 11/11/11 12/12/12
f 16/16/16 15/15/15 14/14/14
f 16/16/16 17/17/17 15/15/15
f 17/17/17 18/18/18 15/15/15
f 17/17/17 19/19/19 18/18/18
f 14/14/14 20/20/20 16/16/16
f 14/14/14 21/21/21 20/20/20
f 21/21/21 22/22/22 20/20/20
f 23/23/23 18/18/18 19/19/19
f 23/23/23 19/19/19 24/24/24
f 24/24/24 25/25/25 23/23/23
f 24/24/24 26/26/26 25/25/25
