g Taillights_30
v 0.7511 0.9426003 -2.0323
v 0.6948 0.9441003 -2.1156
v 0.7167 0.7716003 -2.1078
v 0.6254 0.7725003 -2.1737
v 0.574 0.9522004 -2.1897
v 0.509 0.7723004 -2.2209
v 0.4089 0.9572003 -2.2379
v 0.7783 0.7713003 -2.0105
v 0.7855 0.9034004 -1.9618
v 0.8052 0.8520004 -1.9262
v 0.8116 0.7688004 -1.9186
v -0.7511 0.9426003 -2.0323
v -0.7168 0.7716003 -2.1078
v -0.6948 0.9441003 -2.1156
v -0.6255 0.7725003 -2.1737
v -0.574 0.9522004 -2.1897
v -0.5091 0.7723004 -2.2209
v -0.4089 0.9572003 -2.2379
v -0.7783 0.7713003 -2.0105
v -0.7855 0.9034004 -1.9618
v -0.8053 0.8520004 -1.9262
v -0.8117 0.7688004 -1.9186
vt 0.6323 0.6872
vt 0.7187 0.6864
vt 0.6991 0.5383
vt 0.7958 0.5389
vt 0.8402 0.6937
vt 0.9035 0.5399
vt 0.9877 0.7002
vt 0.6004 0.5405
vt 0.5639 0.6559
vt 0.5275 0.613
vt 0.5165 0.542
vt 0.6323 0.6872
vt 0.6991 0.5383
vt 0.7187 0.6864
vt 0.7958 0.5389
vt 0.8402 0.6937
vt 0.9035 0.5399
vt 0.9877 0.7002
vt 0.6004 0.5405
vt 0.5639 0.6559
vt 0.5275 0.613
vt 0.5165 0.542
vn 0.863735 0.08208275 -0.4972166
vn 0.6862465 0.07132043 -0.7238641
vn 0.7339774 0.05634211 -0.6768328
vn 0.4878357 0.04169958 -0.8719389
vn 0.4005758 0.0604218 -0.9142692
vn 0.3361862 0.04170778 -0.9408715
vn 0.2814573 0.0643495 -0.9574137
vn 0.8945532 0.0687776 -0.4416382
vn 0.9168271 0.09316583 -0.3882631
vn 0.9280887 0.0722199 -0.3652885
vn 0.9397388 0.04128574 -0.3393915
vn -0.8638049 0.08231845 -0.4970561
vn -0.7341763 0.0566448 -0.6765918
vn -0.686196 0.07171277 -0.7238731
vn -0.4878629 0.04197873 -0.8719103
vn -0.4005421 0.06064361 -0.9142693
vn -0.3361957 0.04188923 -0.9408602
vn -0.2814588 0.06450365 -0.9574029
vn -0.894477 0.06889674 -0.441774
vn -0.916582 0.0933747 -0.3887913
vn -0.9275774 0.07253074 -0.3665234
vn -0.9394153 0.04117425 -0.3402992
g Taillights_30_0
f 3/3/3 2/2/2 1/1/1
f 2/2/2 3/3/3 4/4/4
f 2/2/2 4/4/4 5/5/5
f 5/5/5 4/4/4 6/6/6
f 5/5/5 6/6/6 7/7/7
f 8/8/8 3/3/3 1/1/1
f 9/9/9 8/8/8 1/1/1
f 10/10/10 8/8/8 9/9/9
f 11/11/11 8/8/8 10/10/10
f 14/14/14 13/13/13 12/12/12
f 13/13/13 14/14/14 15/15/15
f 15/15/15 14/14/14 16/16/16
f 15/15/15 16/16/16 17/17/17
f 17/17/17 16/16/16 18/18/18
f 13/13/13 19/19/19 12/12/12
f 19/19/19 20/20/20 12/12/12
f 19/19/19 21/21/21 20/20/20
f 19/19/19 22/22/22 21/21/21
