g Glass_23
v 0.3612 0.8025998 1.4537
v 0 0.7923998 1.5024
v 0 1.0008 1.0076
v 0.3062 1.004 0.9812002
v 0 1.1833 0.5238002
v -0.3013 1.004 0.9812002
v -0.3562 0.8025998 1.4537
v -0.6454 0.8311998 1.3374
v 0.6504 0.8311998 1.3374
v 0.5786 1.0068 0.9331002
v 0.8044 0.8482998 1.2634
v 0.2535 1.1813 0.5194002
v 0.492 1.1691 0.4910002
v 0.7405 1.008 0.8793002
v 0.6662 1.149 0.4639002
v -0.5737 1.0068 0.9331002
v -0.2485 1.1813 0.5194002
v -0.487 1.1691 0.4910002
v -0.7355 1.008 0.8793002
v -0.6612 1.149 0.4639002
v -0.7995 0.8482998 1.2634
v 0.8234 0.8626998 1.1053
v 0.6971 1.1015 0.5137002
v 0.8568 0.7886999 0.8016001
v 0.8093 0.8536 0.07100014
v 0.639 1.1681 0.0710002
v 0.7828 0.8595001 -0.3461998
v 0.6232 1.1739 -0.2496998
v 0.6232 1.1739 -0.2496998
v 0.6183 1.1723 -0.2541998
v 0.7828 0.8595001 -0.3461998
v 0.7762 0.8609 -0.3501998
v 0.7789 0.8624001 -0.3549998
v 0.6226 1.1706 -0.2596998
v 0.6722 0.9435001 -0.7395998
v 0.6059 1.0792 -0.6772998
v 0.7762 0.8609 -0.3501998
v 0.6183 1.1723 -0.2541998
v 0.6226 1.1706 -0.2596998
v 0.7789 0.8624001 -0.3549998
v -0.8184 0.8626998 1.1054
v -0.8519 0.7886999 0.8016001
v -0.6921 1.1015 0.5137002
v -0.8043 0.8536 0.07100014
v -0.634 1.1681 0.0710002
v -0.7778 0.8595001 -0.3461998
v -0.6182 1.1739 -0.2496998
v -0.6133 1.1723 -0.2541998
v -0.7778 0.8595001 -0.3461998
v -0.7712 0.8609 -0.3501998
v -0.6182 1.1739 -0.2496998
v -0.7739 0.8624001 -0.3549998
v -0.6672 0.9435001 -0.7395998
v -0.6009 1.0792 -0.6772998
v -0.6176 1.1706 -0.2596998
v -0.7712 0.8609 -0.3501998
v -0.7739 0.8624001 -0.3549998
v -0.6176 1.1706 -0.2596998
v -0.6133 1.1723 -0.2541998
vt 0.2556 0.5638
vt 0.444 0.5853
vt 0.4379 0.3061
vt 0.2785 0.2961
vt 0.4318 0.0364
vt 0.5965 0.2892
vt 0.631 0.5556
vt 0.7808 0.4906
vt 0.1027 0.5053
vt 0.1353 0.2753
vt 0.021 0.4679
vt 0.3004 0.0374
vt 0.1751 0.0286
vt 0.0497 0.2508
vt 0.0833 0.0214
vt 0.7383 0.2622
vt 0.5631 0.0317
vt 0.6874 0.0175
vt 0.8222 0.234
vt 0.778 0.0063
vt 0.8604 0.4497
vt 0.0141 0.8561
vt 0.3341 0.9668
vt 0.1693 0.8023
vt 0.554 0.8111
vt 0.5688 0.9913
vt 0.7725 0.8023
vt 0.7368 0.9839
vt 0.7368 0.9839
vt 0.7403 0.9844
vt 0.7725 0.8023
vt 0.7759 0.8046
vt 0.7789 0.8044
vt 0.7435 0.9825
vt 0.9869 0.8501
vt 0.9606 0.9287
vt 0.7759 0.8046
vt 0.7403 0.9844
vt 0.7435 0.9825
vt 0.7789 0.8044
vt 0.9822 0.6709
vt 0.8292 0.6111
vt 0.6581 0.769
vt 0.4445 0.6048
vt 0.4226 0.7842
vt 0.2265 0.5874
vt 0.2551 0.7703
vt 0.2515 0.7707
vt 0.2265 0.5874
vt 0.223 0.5896
vt 0.2551 0.7703
vt 0.22 0.5893
vt 0.0104 0.6268
vt 0.0336 0.7064
vt 0.2484 0.7686
vt 0.223 0.5896
vt 0.22 0.5893
vt 0.2484 0.7686
vt 0.2515 0.7707
vn 0.04262044 0.921074 0.3870482
vn -0.0001673467 0.9215931 0.3881572
vn -0.0001777495 0.9282014 0.3720779
vn 0.03913752 0.9275934 0.3715356
vn -0.0001322795 0.93463 0.3556217
vn -0.03932394 0.9275957 0.3715102
vn -0.04282216 0.9210678 0.3870406
vn -0.07083409 0.9199542 0.3855733
vn 0.07084932 0.91996 0.3855567
vn 0.08280759 0.9298595 0.358475
vn 0.08957974 0.9204504 0.3804555
vn 0.0436103 0.936746 0.3472824
vn 0.1131726 0.9422434 0.3152291
vn 0.1135658 0.9336525 0.3396996
vn 0.1544164 0.9436571 0.2926888
vn -0.08283187 0.9298623 0.3584622
vn -0.04374863 0.9367484 0.3472585
vn -0.1131766 0.9422472 0.3152164
vn -0.1136138 0.9336579 0.3396687
vn -0.1544164 0.9436572 0.2926888
vn -0.08955802 0.9204473 0.3804682
vn 0.8944826 0.4469785 -0.01053888
vn 0.8923841 0.4506314 -0.0241216
vn 0.8953457 0.4451829 -0.01296855
vn 0.8824871 0.4685248 -0.04124489
vn 0.8804645 0.4721316 -0.04328991
vn 0.8822241 0.4688852 -0.04274722
vn 0.8867097 0.4609733 -0.03534892
vn 0.5048705 0.4770858 -0.7193711
vn 0.5051358 0.4771568 -0.7191377
vn 0.5261839 0.4826439 -0.7001324
vn 0.5265251 0.4827304 -0.6998162
vn 0.8653374 0.4816726 -0.1385017
vn 0.8646799 0.4826935 -0.1390528
vn 0.8639088 0.4838866 -0.1396972
vn 0.8624902 0.4860703 -0.1408774
vn 0.8098147 0.2459905 0.5326245
vn 0.7996544 0.2351429 0.5525041
vn 0.7997256 0.2352177 0.5523691
vn 0.809899 0.2460822 0.532454
vn -0.8943015 0.4473451 -0.01035063
vn -0.8951947 0.4454896 -0.01286228
vn -0.8923096 0.4507774 -0.0241528
vn -0.8824704 0.4685544 -0.04126583
vn -0.8804644 0.4721317 -0.04328991
vn -0.8822241 0.4688852 -0.04274722
vn -0.8867096 0.4609734 -0.03534891
vn -0.5051357 0.4771572 -0.7191377
vn -0.5261846 0.4826403 -0.7001343
vn -0.5265258 0.4827268 -0.6998181
vn -0.5048704 0.4770862 -0.719371
vn -0.8646054 0.4827347 -0.1393726
vn -0.8636569 0.4850121 -0.1373313
vn -0.864176 0.4837691 -0.1384461
vn -0.8649291 0.4819515 -0.1400732
vn -0.8098147 0.2459906 0.5326245
vn -0.809899 0.2460822 0.532454
vn -0.7997242 0.2352247 0.5523682
vn -0.7996529 0.2351499 0.5525032
g Glass_23_0
f 3/3/3 2/2/2 1/1/1
f 4/4/4 3/3/3 1/1/1
f 5/5/5 3/3/3 4/4/4
f 5/5/5 6/6/6 3/3/3
f 3/3/3 6/6/6 7/7/7
f 2/2/2 3/3/3 7/7/7
f 8/8/8 7/7/7 6/6/6
f 1/1/1 9/9/9 4/4/4
f 9/9/9 10/10/10 4/4/4
f 11/11/11 10/10/10 9/9/9
f 4/4/4 10/10/10 12/12/12
f 12/12/12 5/5/5 4/4/4
f 10/10/10 13/13/13 12/12/12
f 14/14/14 13/13/13 10/10/10
f 14/14/14 10/10/10 11/11/11
f 15/15/15 13/13/13 14/14/14
f 16/16/16 8/8/8 6/6/6
f 16/16/16 6/6/6 17/17/17
f 17/17/17 6/6/6 5/5/5
f 18/18/18 16/16/16 17/17/17
f 16/16/16 18/18/18 19/19/19
f 20/20/20 19/19/19 18/18/18
f 19/19/19 21/21/21 16/16/16
f 8/8/8 16/16/16 21/21/21
f 24/24/24 23/23/23 22/22/22
f 24/24/24 25/25/25 23/23/23
f 25/25/25 26/26/26 23/23/23
f 25/25/25 27/27/27 26/26/26
f 27/27/27 28/28/28 26/26/26
f 31/31/31 30/30/30 29/29/29
f 32/32/32 30/30/30 31/31/31
f 35/35/35 34/34/34 33/33/33
f 36/36/36 34/34/34 35/35/35
f 39/39/39 38/38/38 37/37/37
f 40/40/40 39/39/39 37/37/37
f 43/43/43 42/42/42 41/41/41
f 44/44/44 42/42/42 43/43/43
f 45/45/45 44/44/44 43/43/43
f 46/46/46 44/44/44 45/45/45
f 47/47/47 46/46/46 45/45/45
f 50/50/50 49/49/49 48/48/48
f 51/51/51 48/48/48 49/49/49
f 54/54/54 53/53/53 52/52/52
f 55/55/55 54/54/54 52/52/52
f 58/58/58 57/57/57 56/56/56
f 59/59/59 58/58/58 56/56/56
