g ref_23
v 0.4884 0.5739996 2.1019
v 0.5812 0.6408997 1.9634
v 0.6587 0.5660996 2.0346
v 0.6647 0.5328987 2.065
v 0.7068 0.6334997 1.925
v 0.7727 0.5647997 1.9737
v 0.7568 0.5531997 1.995
v 0.8131 0.6197987 1.8803
v 0.763 0.6885997 1.8019
v 0.6683 0.6924997 1.83
v 0.7913 0.7096997 1.733
v 0.8495 0.6816997 1.7643
v 0.5533 0.5124986 2.1286
v -0.5762 0.6408997 1.9634
v -0.6537 0.5660996 2.0346
v -0.7018 0.6334997 1.925
v -0.6633 0.6924997 1.83
v -0.4834 0.5739996 2.1019
v -0.6597 0.5328987 2.065
v -0.7518 0.5531997 1.995
v -0.7677 0.5647997 1.9737
v -0.8081 0.6197987 1.8803
v -0.7581 0.6885997 1.8019
v -0.8446 0.6816997 1.7643
v -0.7863 0.7096997 1.733
v -0.5484 0.5124986 2.1286
vt 0.9579 0.2791
vt 0.9565 0.1855
vt 0.8938 0.2079
vt 0.878 0.225
vt 0.9067 0.138
vt 0.8541 0.1532
vt 0.8547 0.1682
vt 0.8648 0.0942
vt 0.9154 0.0627
vt 0.9532 0.098
vt 0.9196 0.0225
vt 0.8826 0.0258
vt 0.9099 0.2846
vt 0.977 0.4083
vt 0.9113 0.3976
vt 0.9366 0.4641
vt 0.9891 0.4946
vt 0.9615 0.316
vt 0.8928 0.3836
vt 0.88 0.4437
vt 0.8822 0.4586
vt 0.9033 0.5147
vt 0.9588 0.5365
vt 0.9336 0.579
vt 0.9711 0.575
vt 0.9133 0.3192
vn 0.2812047 0.7089455 0.6467769
vn 0.228766 0.8093304 0.5409718
vn 0.298019 0.7229803 0.623285
vn 0.3187962 0.6633466 0.6770083
vn 0.2627972 0.8037033 0.5338526
vn 0.3357649 0.727327 0.5985461
vn 0.3479297 0.6867537 0.6382117
vn 0.317307 0.7844831 0.5328251
vn 0.217445 0.876098 0.4303139
vn 0.1752003 0.8769993 0.4474116
vn 0.2072052 0.9083463 0.3632809
vn 0.2635125 0.8534778 0.4495963
vn 0.2968833 0.6262487 0.7208833
vn -0.2287664 0.8093302 0.5409718
vn -0.2980194 0.7229801 0.6232851
vn -0.2627743 0.8036873 0.533888
vn -0.1750788 0.8770288 0.4474013
vn -0.2811981 0.7091162 0.6465926
vn -0.3187956 0.6633983 0.6769579
vn -0.34793 0.686754 0.6382113
vn -0.3357651 0.727327 0.598546
vn -0.3173536 0.784374 0.5329579
vn -0.2173882 0.8761225 0.4302925
vn -0.2634943 0.8535084 0.4495488
vn -0.2070006 0.9085249 0.3629507
vn -0.2968997 0.6266106 0.7205621
g ref_23_0
f 3/3/3 2/2/2 1/1/1
f 1/1/1 4/4/4 3/3/3
f 5/5/5 2/2/2 3/3/3
f 6/6/6 5/5/5 3/3/3
f 3/3/3 7/7/7 6/6/6
f 4/4/4 7/7/7 3/3/3
f 8/8/8 5/5/5 6/6/6
f 9/9/9 5/5/5 8/8/8
f 10/10/10 5/5/5 9/9/9
f 2/2/2 5/5/5 10/10/10
f 9/9/9 11/11/11 10/10/10
f 12/12/12 11/11/11 9/9/9
f 12/12/12 9/9/9 8/8/8
f 13/13/13 4/4/4 1/1/1
f 16/16/16 15/15/15 14/14/14
f 14/14/14 17/17/17 16/16/16
f 18/18/18 14/14/14 15/15/15
f 19/19/19 18/18/18 15/15/15
f 19/19/19 15/15/15 20/20/20
f 21/21/21 20/20/20 15/15/15
f 15/15/15 16/16/16 21/21/21
f 22/22/22 21/21/21 16/16/16
f 16/16/16 23/23/23 22/22/22
f 23/23/23 16/16/16 17/17/17
f 23/23/23 24/24/24 22/22/22
f 25/25/25 23/23/23 17/17/17
f 25/25/25 24/24/24 23/23/23
f 26/26/26 18/18/18 19/19/19
