g Glass_39
v 0 0.9521998 0.9695002
v 0.2639 0.9556998 0.9348002
v 0 0.8113998 1.2254
v 0.2462 1.0615 0.6999002
v 0 1.062 0.7232002
v 0.2329 1.1798 0.4081002
v 0 1.1889 0.4130002
v 0.4541 1.0598 0.6651002
v 0.4933 0.9670999 0.8425002
v 0.5821 1.0544 0.6316002
v 0.5571 1.1108 0.5108002
v 0.5058 1.1544 0.3953002
v 0.5227 1.1435 0.4170002
v 0.6102 0.9740999 0.7594002
v 0.5681 0.8078998 1.0993
v 0.4596 0.8087998 1.1761
v 0.3013 0.8104998 1.2153
v 0.1439 0.8120998 1.2232
v 0.6366 0.8996999 0.8785001
v 0.6447 0.8313998 1.0085
v 0.6109 1.0217 -0.5630998
v 0.6355 0.9499001 -0.8346998
v 0.6594 0.9013001 -0.8698999
v 0.6703 0.8906 -0.03949986
v 0.6017 1.058 -0.4176998
v 0.5922 1.1017 -0.2023998
v 0.59 1.1178 0.04090018
v 0.5982 1.1078 0.2646002
v 0.6063 1.0889 0.3714002
v 0.6188 1.0537 0.4717002
v 0.6893 0.8605999 0.6886001
v 0.6326 1.0065 0.5710002
v 0.6535 0.9345999 0.6854002
v 0.2397 0.9637002 -1.3186
v 0.3284 0.9105002 -1.4453
v 0.4874 0.9382002 -1.332
v 0.5085 0.9821002 -1.1807
v 0.2341 0.9117002 -1.4745
v 0.2399 1.0034 -1.1807
v 0.5044 1.067 -0.8646998
v 0 0.9684002 -1.3333
v 0 1.0085 -1.1888
v 0.2361 1.0834 -0.9038998
v 0.4985 1.1348 -0.5928998
v 0 1.0886 -0.9056998
v 0.2283 1.1631 -0.6018998
v 0 1.1669 -0.6018998
v 0 0.9140002 -1.5124
v 0 0.9521998 0.9695002
v 0 0.8113998 1.2254
v -0.2639 0.9556998 0.9348002
v -0.2463 1.0615 0.6999002
v 0 1.062 0.7232002
v -0.2329 1.1798 0.4081002
v 0 1.1889 0.4130002
v -0.4541 1.0598 0.6651002
v -0.4933 0.9670999 0.8425002
v -0.5821 1.0544 0.6316002
v -0.5571 1.1108 0.5108002
v -0.5058 1.1544 0.3953002
v -0.5227 1.1435 0.4170002
v -0.6102 0.9740999 0.7594002
v -0.5681 0.8078998 1.0993
v -0.4596 0.8087998 1.1761
v -0.3013 0.8104998 1.2153
v -0.1439 0.8120998 1.2232
v -0.6366 0.8996999 0.8785001
v -0.6447 0.8313998 1.0085
v -0.6109 1.0217 -0.5630998
v -0.6594 0.9013001 -0.8698999
v -0.6355 0.9499001 -0.8346998
v -0.6703 0.8906 -0.03949986
v -0.6017 1.058 -0.4176998
v -0.5922 1.1017 -0.2023998
v -0.59 1.1178 0.04090018
v -0.5982 1.1078 0.2646002
v -0.6063 1.0889 0.3714002
v -0.6188 1.0537 0.4717002
v -0.6893 0.8605999 0.6886001
v -0.6326 1.0065 0.5710002
v -0.6535 0.9345999 0.6854002
v -0.2397 0.9637002 -1.3186
v -0.4874 0.9382002 -1.332
v -0.3284 0.9105002 -1.4453
v -0.5085 0.9821002 -1.1807
v -0.2341 0.9117002 -1.4745
v -0.2399 1.0034 -1.1807
v -0.5044 1.067 -0.8646998
v 0 0.9684002 -1.3333
v 0 1.0085 -1.1888
v -0.2361 1.0834 -0.9038998
v -0.4986 1.1348 -0.5928998
v 0 1.0886 -0.9056998
v -0.2283 1.1631 -0.6018998
v 0 1.1669 -0.6018998
v 0 0.9140002 -1.5124
vt 0.5285 0.8044
vt 0.7095 0.7826
vt 0.5288 0.9712
vt 0.6963 0.61
vt 0.5277 0.6268
vt 0.6887 0.4249
vt 0.5268 0.4171
vt 0.8424 0.5927
vt 0.8707 0.7171
vt 0.9223 0.576
vt 0.9035 0.4949
vt 0.8656 0.4236
vt 0.8846 0.4373
vt 0.9422 0.6682
vt 0.9302 0.8892
vt 0.8506 0.9425
vt 0.7395 0.9649
vt 0.6286 0.9694
vt 0.9636 0.7618
vt 0.9762 0.8431
vt 0.206 0.125
vt 0.0371 0.0763
vt 0.0154 0.0416
vt 0.5327 0.0349
vt 0.2966 0.1485
vt 0.4306 0.1767
vt 0.5822 0.1873
vt 0.7215 0.1799
vt 0.7882 0.1671
vt 0.8507 0.1438
vt 0.9863 0.0144
vt 0.9128 0.1133
vt 0.9844 0.0668
vt 0.2274 0.4961
vt 0.2952 0.4127
vt 0.4042 0.4884
vt 0.4162 0.5869
vt 0.2295 0.3937
vt 0.2251 0.5854
vt 0.4081 0.7906
vt 0.0633 0.4836
vt 0.0608 0.577
vt 0.2175 0.7648
vt 0.3997 0.965
vt 0.0559 0.7603
vt 0.2101 0.9591
vt 0.0508 0.9556
vt 0.0666 0.367
vt 0.5285 0.8044
vt 0.5288 0.9712
vt 0.7095 0.7826
vt 0.6963 0.61
vt 0.5277 0.6268
vt 0.6887 0.4249
vt 0.5268 0.4171
vt 0.8424 0.5927
vt 0.8707 0.7171
vt 0.9223 0.576
vt 0.9035 0.4949
vt 0.8656 0.4236
vt 0.8846 0.4373
vt 0.9422 0.6682
vt 0.9302 0.8892
vt 0.8506 0.9425
vt 0.7395 0.9649
vt 0.6286 0.9694
vt 0.9636 0.7618
vt 0.9762 0.8431
vt 0.206 0.125
vt 0.0154 0.0416
vt 0.0371 0.0763
vt 0.5327 0.0349
vt 0.2966 0.1485
vt 0.4306 0.1767
vt 0.5822 0.1873
vt 0.7215 0.1799
vt 0.7882 0.1671
vt 0.8507 0.1438
vt 0.9863 0.0144
vt 0.9128 0.1133
vt 0.9844 0.0668
vt 0.2274 0.4961
vt 0.4042 0.4884
vt 0.2952 0.4127
vt 0.4162 0.5869
vt 0.2295 0.3937
vt 0.2251 0.5854
vt 0.4081 0.7906
vt 0.0633 0.4836
vt 0.0608 0.577
vt 0.2175 0.7648
vt 0.3997 0.965
vt 0.0559 0.7603
vt 0.2101 0.9591
vt 0.0508 0.9556
vt 0.0666 0.367
vn 0 0.8939646 0.4481374
vn 0.07905858 0.8968274 0.435259
vn 0 0.8867559 0.462238
vn 0.0590594 0.9205214 0.3862024
vn 0 0.9197465 0.3925128
vn 0.07164954 0.9249153 0.3733604
vn 0 0.9255469 0.378633
vn 0.1044957 0.9144182 0.39105
vn 0.1993028 0.8733524 0.4444479
vn 0.1701665 0.8914508 0.4199509
vn 0.04824373 0.9383343 0.3423468
vn 0.1094806 0.9277597 0.3567575
vn 0.1182929 0.9305137 0.346628
vn 0.2819927 0.8422829 0.4593906
vn 0.2995539 0.848236 0.4367643
vn 0.1835752 0.8807803 0.4364932
vn 0.07761331 0.8909267 0.447466
vn 0.0135713 0.8928239 0.4502014
vn 0.3186145 0.8361447 0.4464826
vn 0.2538512 0.8626826 0.4374224
vn 0.9236149 0.3831551 -0.01130255
vn 0.8838143 0.4658483 -0.04310099
vn 0.9001329 0.4346955 -0.02829537
vn 0.9407719 0.338665 -0.01594293
vn 0.9428374 0.3323956 -0.02389069
vn 0.9429237 0.3323188 -0.02142355
vn 0.940782 0.3385776 -0.01716266
vn 0.9427697 0.333133 -0.01441254
vn 0.9468508 0.3215804 -0.007716835
vn 0.9415527 0.3368592 -0.002117038
vn 0.9217572 0.3847629 0.04817936
vn 0.9084679 0.4115952 0.07263163
vn 0.8926935 0.436687 0.1113676
vn 0.06380388 0.9525295 -0.2976854
vn 0.09293181 0.9395841 -0.3294623
vn 0.08128276 0.9492391 -0.3038719
vn 0.07833143 0.9594862 -0.2706482
vn 0.08152291 0.9445823 -0.317991
vn 0.05652991 0.9603587 -0.2729754
vn 0.09118941 0.9634277 -0.2519753
vn 0 0.9597144 -0.2809774
vn 0 0.9625295 -0.271177
vn 0.06248917 0.9627758 -0.2629789
vn 0.1022533 0.9639652 -0.245592
vn 0 0.9649475 -0.2624432
vn 0.06343625 0.9657593 -0.2515647
vn 0 0.9683545 -0.2495786
vn 0 0.9535336 -0.3012864
vn 0 0.8939646 0.4481374
vn 0 0.8867559 0.462238
vn -0.07906117 0.8968241 0.4352653
vn -0.0590721 0.9205196 0.3862046
vn 0 0.9197465 0.3925128
vn -0.07163946 0.9249229 0.3733437
vn 0 0.9255469 0.378633
vn -0.1045105 0.9144148 0.391054
vn -0.1993028 0.8733524 0.4444479
vn -0.1701665 0.8914508 0.4199509
vn -0.04824373 0.9383343 0.3423468
vn -0.1094912 0.9277618 0.3567489
vn -0.1182929 0.9305137 0.346628
vn -0.2819927 0.8422829 0.4593906
vn -0.2995539 0.848236 0.4367643
vn -0.1835752 0.8807803 0.4364932
vn -0.07761332 0.8909267 0.4474661
vn -0.0135713 0.8928239 0.4502014
vn -0.3186145 0.8361447 0.4464826
vn -0.2538512 0.8626826 0.4374224
vn -0.9236149 0.3831551 -0.01130255
vn -0.9001329 0.4346955 -0.02829537
vn -0.8838143 0.4658483 -0.04310099
vn -0.9407719 0.3386649 -0.01594293
vn -0.9428374 0.3323956 -0.02389069
vn -0.9429237 0.3323188 -0.02142355
vn -0.940782 0.3385776 -0.01716266
vn -0.9427697 0.333133 -0.01441254
vn -0.9468508 0.3215804 -0.007716835
vn -0.9415527 0.3368591 -0.002117071
vn -0.9217572 0.3847628 0.04817932
vn -0.9084682 0.4115947 0.07263133
vn -0.8926935 0.436687 0.1113676
vn -0.06380387 0.9525295 -0.2976854
vn -0.08128276 0.9492391 -0.3038719
vn -0.09293181 0.9395841 -0.3294623
vn -0.07833143 0.9594862 -0.2706482
vn -0.0815229 0.9445824 -0.3179909
vn -0.05652991 0.9603587 -0.2729754
vn -0.09119198 0.9634233 -0.2519913
vn 0 0.9597144 -0.2809774
vn 0 0.9625295 -0.271177
vn -0.06248549 0.9627748 -0.2629834
vn -0.1022335 0.9639632 -0.2456081
vn 0 0.9649475 -0.2624432
vn -0.0634165 0.9657604 -0.2515656
vn 0 0.9683545 -0.2495786
vn 0 0.9535336 -0.3012864
g Glass_39_0
f 3/3/3 2/2/2 1/1/1
f 1/1/1 2/2/2 4/4/4
f 1/1/1 4/4/4 5/5/5
f 5/5/5 4/4/4 6/6/6
f 5/5/5 6/6/6 7/7/7
f 8/8/8 4/4/4 2/2/2
f 8/8/8 2/2/2 9/9/9
f 9/9/9 10/10/10 8/8/8
f 8/8/8 10/10/10 11/11/11
f 12/12/12 4/4/4 8/8/8
f 12/12/12 6/6/6 4/4/4
f 11/11/11 13/13/13 8/8/8
f 13/13/13 12/12/12 8/8/8
f 9/9/9 14/14/14 10/10/10
f 14/14/14 9/9/9 15/15/15
f 9/9/9 16/16/16 15/15/15
f 16/16/16 9/9/9 17/17/17
f 9/9/9 2/2/2 17/17/17
f 18/18/18 17/17/17 2/2/2
f 19/19/19 14/14/14 15/15/15
f 20/20/20 19/19/19 15/15/15
f 3/3/3 18/18/18 2/2/2
f 23/23/23 22/22/22 21/21/21
f 23/23/23 21/21/21 24/24/24
f 21/21/21 25/25/25 24/24/24
f 24/24/24 25/25/25 26/26/26
f 24/24/24 26/26/26 27/27/27
f 24/24/24 27/27/27 28/28/28
f 24/24/24 28/28/28 29/29/29
f 29/29/29 30/30/30 24/24/24
f 24/24/24 30/30/30 31/31/31
f 32/32/32 31/31/31 30/30/30
f 31/31/31 32/32/32 33/33/33
f 36/36/36 35/35/35 34/34/34
f 34/34/34 37/37/37 36/36/36
f 35/35/35 38/38/38 34/34/34
f 34/34/34 39/39/39 37/37/37
f 39/39/39 40/40/40 37/37/37
f 41/41/41 39/39/39 34/34/34
f 41/41/41 42/42/42 39/39/39
f 42/42/42 43/43/43 39/39/39
f 39/39/39 43/43/43 40/40/40
f 43/43/43 44/44/44 40/40/40
f 42/42/42 45/45/45 43/43/43
f 45/45/45 46/46/46 43/43/43
f 43/43/43 46/46/46 44/44/44
f 45/45/45 47/47/47 46/46/46
f 41/41/41 34/34/34 48/48/48
f 38/38/38 48/48/48 34/34/34
f 51/51/51 50/50/50 49/49/49
f 49/49/49 52/52/52 51/51/51
f 49/49/49 53/53/53 52/52/52
f 52/52/52 53/53/53 54/54/54
f 54/54/54 53/53/53 55/55/55
f 52/52/52 56/56/56 51/51/51
f 51/51/51 56/56/56 57/57/57
f 58/58/58 57/57/57 56/56/56
f 58/58/58 56/56/56 59/59/59
f 52/52/52 60/60/60 56/56/56
f 54/54/54 60/60/60 52/52/52
f 61/61/61 59/59/59 56/56/56
f 60/60/60 61/61/61 56/56/56
f 62/62/62 57/57/57 58/58/58
f 57/57/57 62/62/62 63/63/63
f 64/64/64 57/57/57 63/63/63
f 57/57/57 64/64/64 65/65/65
f 51/51/51 57/57/57 65/65/65
f 65/65/65 66/66/66 51/51/51
f 62/62/62 67/67/67 63/63/63
f 67/67/67 68/68/68 63/63/63
f 66/66/66 50/50/50 51/51/51
f 71/71/71 70/70/70 69/69/69
f 69/69/69 70/70/70 72/72/72
f 73/73/73 69/69/69 72/72/72
f 73/73/73 72/72/72 74/74/74
f 74/74/74 72/72/72 75/75/75
f 75/75/75 72/72/72 76/76/76
f 76/76/76 72/72/72 77/77/77
f 78/78/78 77/77/77 72/72/72
f 72/72/72 79/79/79 78/78/78
f 80/80/80 78/78/78 79/79/79
f 80/80/80 79/79/79 81/81/81
f 84/84/84 83/83/83 82/82/82
f 85/85/85 82/82/82 83/83/83
f 86/86/86 84/84/84 82/82/82
f 87/87/87 82/82/82 85/85/85
f 88/88/88 87/87/87 85/85/85
f 87/87/87 89/89/89 82/82/82
f 90/90/90 89/89/89 87/87/87
f 91/91/91 90/90/90 87/87/87
f 91/91/91 87/87/87 88/88/88
f 92/92/92 91/91/91 88/88/88
f 93/93/93 90/90/90 91/91/91
f 94/94/94 93/93/93 91/91/91
f 94/94/94 91/91/91 92/92/92
f 95/95/95 93/93/93 94/94/94
f 82/82/82 89/89/89 96/96/96
f 86/86/86 82/82/82 96/96/96
