g model_car_47_matte_tile_LOD1
v -0.4322791 0.7585392 -2.109892
v -0.4426172 0.7617068 -2.106766
v -0.4439561 0.7592819 -2.103416
v -0.4341216 0.7562804 -2.106288
v -0.5053325 0.7581539 -2.086473
v -0.5041339 0.7605901 -2.089722
v -0.4170771 0.7501056 -2.115667
v -0.4193838 0.7481167 -2.111827
v -0.4062438 0.7387912 -2.121102
v -0.4088545 0.7371233 -2.117099
v -0.5652993 0.7558415 -2.069211
v -0.5649841 0.7582355 -2.072196
v -0.6352103 0.7514193 -2.043255
v -0.6353762 0.7537823 -2.046048
v -0.6906564 0.7422795 -2.010339
v -0.691222 0.7445779 -2.012902
v -0.7326813 0.7335422 -1.977561
v -0.7335281 0.7357841 -1.979918
v -0.7520185 0.72856 -1.960004
v -0.7530031 0.7307684 -1.962246
v -0.3875873 0.7152963 -2.130551
v -0.390409 0.7138953 -2.126438
v -0.372647 0.6938548 -2.136625
v -0.3758314 0.692997 -2.132323
v -0.3696735 0.6803999 -2.137516
v -0.3730578 0.6806052 -2.132998
v -0.3728271 0.6706524 -2.136447
v -0.3757555 0.6723516 -2.132205
v -0.3852637 0.665226 -2.132993
v -0.3871119 0.6674457 -2.12928
v -0.406919 0.6628911 -2.127097
v -0.4083114 0.6651669 -2.123586
v -0.4391205 0.6615212 -2.118362
v -0.4402401 0.6638081 -2.11495
v -0.4888673 0.6612849 -2.102791
v -0.4896803 0.6635747 -2.099478
v -0.538029 0.6606238 -2.085471
v -0.5369205 0.6629362 -2.082827
v -0.586555 0.659445 -2.066396
v -0.5868278 0.6617463 -2.063284
v -0.6340034 0.659265 -2.044833
v -0.6339724 0.6615663 -2.041862
v -0.6797416 0.6601653 -2.019836
v -0.6794405 0.6624608 -2.017012
v -0.7241716 0.6607025 -1.98845
v -0.7236035 0.6630008 -1.985812
v -0.7629981 0.6620951 -1.949568
v -0.7621765 0.6643794 -1.947162
v -0.7900376 0.6635833 -1.914539
v -0.7890136 0.6658561 -1.912356
v -0.8020551 0.6650939 -1.897357
v -0.8006485 0.6673162 -1.895604
v -0.8094761 0.6697412 -1.886425
v -0.8073156 0.6721857 -1.885167
v -0.8122272 0.687593 -1.890836
v -0.8101933 0.6877532 -1.889356
v -0.8062043 0.7054477 -1.895244
v -0.8043168 0.703321 -1.893545
v -0.7994249 0.7124269 -1.905846
v -0.7977426 0.7104719 -1.904142
v -0.787472 0.718838 -1.923462
v -0.7861021 0.7167506 -1.921535
v -0.7724078 0.7254179 -1.942495
v -0.7712319 0.7232573 -1.940405
v 0.4322785 0.7585392 -2.109892
v 0.4341211 0.7562804 -2.106288
v 0.4439558 0.7592819 -2.103416
v 0.4426167 0.7617068 -2.106766
v 0.5053347 0.7581539 -2.086473
v 0.5041335 0.7605901 -2.089722
v 0.4170766 0.7501056 -2.115667
v 0.4193833 0.7481167 -2.111827
v 0.4062433 0.7387912 -2.121102
v 0.4088539 0.7371233 -2.117099
v 0.5652987 0.7558415 -2.069211
v 0.5649836 0.7582355 -2.072196
v 0.6352098 0.7514193 -2.043255
v 0.6353757 0.7537823 -2.046048
v 0.6906559 0.7422795 -2.010339
v 0.6912214 0.7445779 -2.012902
v 0.7326808 0.7335422 -1.977561
v 0.7335275 0.7357841 -1.979918
v 0.752018 0.72856 -1.960004
v 0.7530054 0.7307684 -1.962246
v 0.387587 0.7152963 -2.130551
v 0.3904084 0.7138953 -2.126438
v 0.3726493 0.6938548 -2.136625
v 0.375831 0.692997 -2.132323
v 0.3696731 0.6803999 -2.137516
v 0.3730572 0.6806052 -2.132998
v 0.3728294 0.6706524 -2.136447
v 0.375755 0.6723516 -2.132205
v 0.3852633 0.665226 -2.132993
v 0.3871114 0.6674457 -2.12928
v 0.4069185 0.6628911 -2.127097
v 0.408311 0.6651669 -2.123586
v 0.4391201 0.6615212 -2.118362
v 0.4402397 0.6638081 -2.11495
v 0.4888668 0.6612849 -2.102791
v 0.4896798 0.6635747 -2.099478
v 0.5380285 0.6606238 -2.085471
v 0.5369229 0.6629362 -2.082827
v 0.5865544 0.659445 -2.066396
v 0.5868273 0.6617463 -2.063284
v 0.6340029 0.659265 -2.044833
v 0.633972 0.6615663 -2.041862
v 0.6797411 0.6601653 -2.019836
v 0.6794401 0.6624608 -2.017012
v 0.7241712 0.6607025 -1.98845
v 0.7236029 0.6630008 -1.985812
v 0.7629975 0.6620951 -1.949568
v 0.7621762 0.6643794 -1.947162
v 0.790037 0.6635833 -1.914539
v 0.789013 0.6658561 -1.912356
v 0.8020546 0.6650939 -1.897357
v 0.8006481 0.6673162 -1.895604
v 0.8094784 0.6697412 -1.886425
v 0.8073151 0.6721857 -1.885167
v 0.8122268 0.687593 -1.890836
v 0.8101928 0.6877532 -1.889356
v 0.806204 0.7054477 -1.895244
v 0.8043163 0.703321 -1.893545
v 0.7994272 0.7124269 -1.905846
v 0.7977421 0.7104719 -1.904142
v 0.7874715 0.718838 -1.923462
v 0.7861015 0.7167506 -1.921535
v 0.7724073 0.7254179 -1.942495
v 0.7712315 0.7232573 -1.940405
vt 0.01662372 0.2149874
vt 0.01758879 0.2122017
vt 0.01840328 0.2121298
vt 0.01748955 0.2148026
vt 0.02652085 0.1995941
vt 0.02570636 0.1996284
vt 0.01573051 0.2195766
vt 0.01664767 0.2192686
vt 0.01570655 0.2236628
vt 0.01662372 0.2231803
vt 0.03488825 0.1876265
vt 0.03418326 0.1875034
vt 0.04555539 0.1733079
vt 0.04489832 0.1731368
vt 0.05614724 0.1617646
vt 0.05552782 0.1615798
vt 0.06517856 0.1525314
vt 0.06461047 0.1523466
vt 0.06968565 0.1481407
vt 0.06912783 0.1479524
vt 0.01669558 0.2310104
vt 0.01756141 0.230343
vt 0.01906036 0.237013
vt 0.01986458 0.2361711
vt 0.02160993 0.2392648
vt 0.02223962 0.2382279
vt 0.02410817 0.2399835
vt 0.02429297 0.2388439
vt 0.02779735 0.2390561
vt 0.02790686 0.238115
vt 0.03280752 0.2358631
vt 0.03276988 0.2349973
vt 0.03875881 0.2301343
vt 0.03857401 0.2293164
vt 0.04674291 0.2204938
vt 0.04649309 0.2197375
vt 0.0542171 0.2106172
vt 0.05367296 0.2102716
vt 0.06163995 0.2007303
vt 0.06133195 0.2000767
vt 0.06901489 0.1907066
vt 0.06868294 0.1900906
vt 0.07603392 0.1805357
vt 0.07571223 0.1799436
vt 0.08329593 0.1698582
vt 0.08298793 0.1692867
vt 0.08994193 0.1587565
vt 0.08963393 0.15825
vt 0.09442165 0.1494753
vt 0.09407601 0.149092
vt 0.09581793 0.1445644
vt 0.09537304 0.1443899
vt 0.09570842 0.1409129
vt 0.095089 0.1410498
vt 0.09134163 0.1384762
vt 0.0911671 0.1387979
vt 0.08697142 0.1360259
vt 0.08725547 0.1365427
vt 0.08347046 0.1371381
vt 0.08381611 0.1375112
vt 0.0787683 0.1397972
vt 0.07925083 0.1400573
vt 0.07399084 0.1434008
vt 0.07451102 0.1436233
vt 0.01662372 0.2149874
vt 0.01748955 0.2148026
vt 0.01840328 0.2121298
vt 0.01758879 0.2122017
vt 0.02652085 0.1995941
vt 0.02570636 0.1996284
vt 0.01573051 0.2195766
vt 0.01664767 0.2192686
vt 0.01570655 0.2236628
vt 0.01662372 0.2231803
vt 0.03488825 0.1876265
vt 0.03418326 0.1875034
vt 0.04555539 0.1733079
vt 0.04489832 0.1731368
vt 0.05614724 0.1617646
vt 0.05552782 0.1615798
vt 0.06517856 0.1525314
vt 0.06461047 0.1523466
vt 0.06968565 0.1481407
vt 0.06912783 0.1479524
vt 0.01669558 0.2310104
vt 0.01756141 0.230343
vt 0.01906036 0.237013
vt 0.01986458 0.2361711
vt 0.02160993 0.2392648
vt 0.02223962 0.2382279
vt 0.02410817 0.2399835
vt 0.02429297 0.2388439
vt 0.02779735 0.2390561
vt 0.02790686 0.238115
vt 0.03280752 0.2358631
vt 0.03276988 0.2349973
vt 0.03875881 0.2301343
vt 0.03857401 0.2293164
vt 0.04674291 0.2204938
vt 0.04649309 0.2197375
vt 0.0542171 0.2106172
vt 0.05367296 0.2102716
vt 0.06163995 0.2007303
vt 0.06133195 0.2000767
vt 0.06901489 0.1907066
vt 0.06868294 0.1900906
vt 0.07603392 0.1805357
vt 0.07571223 0.1799436
vt 0.08329593 0.1698582
vt 0.08298793 0.1692867
vt 0.08994193 0.1587565
vt 0.08963393 0.15825
vt 0.09442165 0.1494753
vt 0.09407601 0.149092
vt 0.09581793 0.1445644
vt 0.09537304 0.1443899
vt 0.09570842 0.1409129
vt 0.095089 0.1410498
vt 0.09134163 0.1384762
vt 0.0911671 0.1387979
vt 0.08697142 0.1360259
vt 0.08725547 0.1365427
vt 0.08347046 0.1371381
vt 0.08381611 0.1375112
vt 0.0787683 0.1397972
vt 0.07925083 0.1400573
vt 0.07399084 0.1434008
vt 0.07451102 0.1436233
vn -0.5087193 -0.5894928 -0.6274574
vn -0.2213511 -0.7448269 -0.6294732
vn -0.1825177 -0.7572536 -0.6270998
vn -0.4729924 -0.6158996 -0.6300364
vn -0.1545575 -0.763467 -0.6270806
vn -0.1561109 -0.7650204 -0.6247985
vn -0.64386 -0.4465854 -0.6212936
vn -0.6081331 -0.4916323 -0.623275
vn -0.716867 -0.3394049 -0.6090206
vn -0.712207 -0.348725 -0.6092226
vn -0.1731976 -0.758807 -0.627865
vn -0.1654309 -0.7603604 -0.6280802
vn -0.2182446 -0.7510403 -0.6231435
vn -0.2042645 -0.754147 -0.6241301
vn -0.2819315 -0.7448269 -0.6047706
vn -0.2648448 -0.7463803 -0.610552
vn -0.3223184 -0.7401669 -0.5901388
vn -0.316105 -0.7417203 -0.5915477
vn -0.3564919 -0.7401669 -0.570146
vn -0.3502785 -0.7401669 -0.5739843
vn -0.7230804 -0.3316382 -0.6059462
vn -0.7230804 -0.3300849 -0.6067938
vn -0.7557006 -0.2524178 -0.6043193
vn -0.7463804 -0.2757179 -0.6057193
vn -0.7945341 -0.002329886 -0.6072151
vn -0.7945341 -0.0007765889 -0.607219
vn -0.6640534 0.4108589 -0.6246824
vn -0.6034731 0.4962926 -0.6241105
vn -0.3611519 0.7153137 -0.5982438
vn -0.3005716 0.7463804 -0.5937786
vn -0.2213511 0.7774473 -0.5887099
vn -0.2058178 0.7821074 -0.5881727
vn -0.1902844 0.7852141 -0.5892628
vn -0.1902844 0.7852141 -0.5892628
vn -0.1980511 0.7836607 -0.5887714
vn -0.2073711 0.7805539 -0.5896887
vn -0.2337779 0.7758939 -0.5859492
vn -0.2337779 0.7758939 -0.5859492
vn -0.2555248 0.7696806 -0.5850631
vn -0.2617381 0.7665739 -0.5863937
vn -0.2819315 0.7603606 -0.5851209
vn -0.2896982 0.7588072 -0.5833409
vn -0.334745 0.7479339 -0.5731847
vn -0.3533852 0.7432739 -0.5680342
vn -0.4217322 0.7277404 -0.5408658
vn -0.4465857 0.721527 -0.5291125
vn -0.5087193 0.7044402 -0.494943
vn -0.5273594 0.6997802 -0.4818711
vn -0.5584263 0.6904602 -0.4598095
vn -0.5584263 0.6920135 -0.4574685
vn -0.5195926 0.6982269 -0.4924456
vn -0.4885259 0.6997802 -0.5212007
vn -0.0504837 0.5087193 -0.859451
vn 0.2493111 0.2726115 -0.9292615
vn 0.5320192 -0.2430978 -0.8110851
vn 0.5335726 -0.2399911 -0.8109899
vn 0.0007765889 -0.6624998 -0.7490616
vn 0.2415444 -0.5382326 -0.8074417
vn -0.3394052 -0.7557003 -0.5601081
vn -0.3036783 -0.749487 -0.5882591
vn -0.3735787 -0.7510403 -0.5444056
vn -0.375132 -0.754147 -0.5390161
vn -0.370472 -0.7417203 -0.5591078
vn -0.370472 -0.7432736 -0.5570412
vn 0.5087191 -0.5894928 -0.6274577
vn 0.4729922 -0.6158996 -0.6300365
vn 0.1825175 -0.7572536 -0.6270999
vn 0.221351 -0.7448269 -0.6294733
vn 0.1545573 -0.763467 -0.6270806
vn 0.1561106 -0.7650204 -0.6247986
vn 0.6438597 -0.4465854 -0.6212938
vn 0.608133 -0.4916323 -0.6232752
vn 0.7168668 -0.3394049 -0.6090208
vn 0.7122068 -0.348725 -0.6092228
vn 0.1731974 -0.758807 -0.6278651
vn 0.1654307 -0.7603604 -0.6280802
vn 0.2182443 -0.7510403 -0.6231436
vn 0.2042642 -0.754147 -0.6241302
vn 0.2819313 -0.7448269 -0.6047707
vn 0.2648445 -0.7463803 -0.6105521
vn 0.3223182 -0.7401669 -0.590139
vn 0.3161048 -0.7417203 -0.5915478
vn 0.358045 -0.7401669 -0.569172
vn 0.3502783 -0.7401669 -0.5739844
vn 0.7230802 -0.3316382 -0.6059465
vn 0.7230802 -0.3300849 -0.6067941
vn 0.7557003 -0.2524178 -0.6043196
vn 0.7463803 -0.2757179 -0.6057195
vn 0.7945338 -0.002329886 -0.6072154
vn 0.7945338 -0.0007765889 -0.6072193
vn 0.6640532 0.4108589 -0.6246826
vn 0.6034729 0.4962926 -0.6241107
vn 0.3611517 0.7153137 -0.598244
vn 0.3005714 0.7463804 -0.5937786
vn 0.221351 0.7774473 -0.58871
vn 0.2058176 0.7821074 -0.5881728
vn 0.1902842 0.7852141 -0.5892629
vn 0.1902842 0.7852141 -0.5892629
vn 0.1980509 0.7836607 -0.5887715
vn 0.2073709 0.7805539 -0.5896888
vn 0.2337777 0.7758939 -0.5859493
vn 0.2322244 0.7758939 -0.5865666
vn 0.2555245 0.7696806 -0.5850632
vn 0.2617379 0.7665739 -0.5863938
vn 0.2819313 0.7603606 -0.5851209
vn 0.289698 0.7588072 -0.583341
vn 0.3347449 0.7479339 -0.5731847
vn 0.353385 0.7432739 -0.5680344
vn 0.421732 0.7277404 -0.540866
vn 0.4465854 0.721527 -0.5291127
vn 0.5087191 0.7044402 -0.4949432
vn 0.5273592 0.6997802 -0.4818713
vn 0.558426 0.6904602 -0.4598099
vn 0.558426 0.6920135 -0.4574688
vn 0.5195925 0.6982269 -0.4924457
vn 0.4885257 0.6997802 -0.5212008
vn 0.05048347 0.5087193 -0.859451
vn -0.247758 0.2726115 -0.9296768
vn -0.5320194 -0.2430978 -0.811085
vn -0.5335728 -0.2399911 -0.8109897
vn -0.0007767677 -0.6624998 -0.7490616
vn -0.2415446 -0.5382326 -0.8074416
vn 0.3394049 -0.7557003 -0.5601083
vn 0.3036781 -0.749487 -0.5882592
vn 0.3735784 -0.7510403 -0.5444058
vn 0.3751318 -0.754147 -0.5390162
vn 0.3704717 -0.7417203 -0.559108
vn 0.3720251 -0.7432736 -0.5560051
g model_car_47_matte_tile_LOD1_0
f 3/3/3 2/2/2 1/1/1
f 4/4/4 3/3/3 1/1/1
f 3/3/3 5/5/5 2/2/2
f 5/5/5 6/6/6 2/2/2
f 4/4/4 1/1/1 7/7/7
f 8/8/8 4/4/4 7/7/7
f 8/8/8 7/7/7 9/9/9
f 10/10/10 8/8/8 9/9/9
f 5/5/5 11/11/11 6/6/6
f 11/11/11 12/12/12 6/6/6
f 11/11/11 13/13/13 12/12/12
f 13/13/13 14/14/14 12/12/12
f 13/13/13 15/15/15 14/14/14
f 15/15/15 16/16/16 14/14/14
f 15/15/15 17/17/17 16/16/16
f 17/17/17 18/18/18 16/16/16
f 17/17/17 19/19/19 18/18/18
f 19/19/19 20/20/20 18/18/18
f 10/10/10 9/9/9 21/21/21
f 22/22/22 10/10/10 21/21/21
f 22/22/22 21/21/21 23/23/23
f 24/24/24 22/22/22 23/23/23
f 24/24/24 23/23/23 25/25/25
f 26/26/26 24/24/24 25/25/25
f 26/26/26 25/25/25 27/27/27
f 28/28/28 26/26/26 27/27/27
f 28/28/28 27/27/27 29/29/29
f 30/30/30 28/28/28 29/29/29
f 30/30/30 29/29/29 31/31/31
f 32/32/32 30/30/30 31/31/31
f 32/32/32 31/31/31 33/33/33
f 34/34/34 32/32/32 33/33/33
f 34/34/34 33/33/33 35/35/35
f 36/36/36 34/34/34 35/35/35
f 36/36/36 35/35/35 37/37/37
f 38/38/38 36/36/36 37/37/37
f 38/38/38 37/37/37 39/39/39
f 40/40/40 38/38/38 39/39/39
f 40/40/40 39/39/39 41/41/41
f 42/42/42 40/40/40 41/41/41
f 42/42/42 41/41/41 43/43/43
f 44/44/44 42/42/42 43/43/43
f 44/44/44 43/43/43 45/45/45
f 46/46/46 44/44/44 45/45/45
f 46/46/46 45/45/45 47/47/47
f 48/48/48 46/46/46 47/47/47
f 48/48/48 47/47/47 49/49/49
f 50/50/50 48/48/48 49/49/49
f 50/50/50 49/49/49 51/51/51
f 52/52/52 50/50/50 51/51/51
f 52/52/52 51/51/51 53/53/53
f 54/54/54 52/52/52 53/53/53
f 54/54/54 53/53/53 55/55/55
f 56/56/56 54/54/54 55/55/55
f 56/56/56 55/55/55 57/57/57
f 58/58/58 56/56/56 57/57/57
f 58/58/58 57/57/57 59/59/59
f 60/60/60 58/58/58 59/59/59
f 60/60/60 59/59/59 61/61/61
f 62/62/62 60/60/60 61/61/61
f 62/62/62 61/61/61 63/63/63
f 64/64/64 62/62/62 63/63/63
f 64/64/64 63/63/63 20/20/20
f 19/19/19 64/64/64 20/20/20
f 67/67/67 66/66/66 65/65/65
f 68/68/68 67/67/67 65/65/65
f 69/69/69 67/67/67 68/68/68
f 70/70/70 69/69/69 68/68/68
f 65/65/65 66/66/66 71/71/71
f 66/66/66 72/72/72 71/71/71
f 71/71/71 72/72/72 73/73/73
f 72/72/72 74/74/74 73/73/73
f 75/75/75 69/69/69 70/70/70
f 76/76/76 75/75/75 70/70/70
f 77/77/77 75/75/75 76/76/76
f 78/78/78 77/77/77 76/76/76
f 79/79/79 77/77/77 78/78/78
f 80/80/80 79/79/79 78/78/78
f 81/81/81 79/79/79 80/80/80
f 82/82/82 81/81/81 80/80/80
f 83/83/83 81/81/81 82/82/82
f 84/84/84 83/83/83 82/82/82
f 73/73/73 74/74/74 85/85/85
f 74/74/74 86/86/86 85/85/85
f 85/85/85 86/86/86 87/87/87
f 86/86/86 88/88/88 87/87/87
f 87/87/87 88/88/88 89/89/89
f 88/88/88 90/90/90 89/89/89
f 89/89/89 90/90/90 91/91/91
f 90/90/90 92/92/92 91/91/91
f 91/91/91 92/92/92 93/93/93
f 92/92/92 94/94/94 93/93/93
f 93/93/93 94/94/94 95/95/95
f 94/94/94 96/96/96 95/95/95
f 95/95/95 96/96/96 97/97/97
f 96/96/96 98/98/98 97/97/97
f 97/97/97 98/98/98 99/99/99
f 98/98/98 100/100/100 99/99/99
f 99/99/99 100/100/100 101/101/101
f 100/100/100 102/102/102 101/101/101
f 101/101/101 102/102/102 103/103/103
f 102/102/102 104/104/104 103/103/103
f 103/103/103 104/104/104 105/105/105
f 104/104/104 106/106/106 105/105/105
f 105/105/105 106/106/106 107/107/107
f 106/106/106 108/108/108 107/107/107
f 107/107/107 108/108/108 109/109/109
f 108/108/108 110/110/110 109/109/109
f 109/109/109 110/110/110 111/111/111
f 110/110/110 112/112/112 111/111/111
f 111/111/111 112/112/112 113/113/113
f 112/112/112 114/114/114 113/113/113
f 113/113/113 114/114/114 115/115/115
f 114/114/114 116/116/116 115/115/115
f 115/115/115 116/116/116 117/117/117
f 116/116/116 118/118/118 117/117/117
f 117/117/117 118/118/118 119/119/119
f 118/118/118 120/120/120 119/119/119
f 119/119/119 120/120/120 121/121/121
f 120/120/120 122/122/122 121/121/121
f 121/121/121 122/122/122 123/123/123
f 122/122/122 124/124/124 123/123/123
f 123/123/123 124/124/124 125/125/125
f 124/124/124 126/126/126 125/125/125
f 125/125/125 126/126/126 127/127/127
f 126/126/126 128/128/128 127/127/127
f 127/127/127 128/128/128 84/84/84
f 128/128/128 83/83/83 84/84/84
