g model_car_74_matte_mirror_LOD1
v 0.9168729 1.03359 0.7467953
v 0.9198883 1.082298 0.7447295
v 0.9041247 1.078359 0.7556508
v 0.8994471 1.032946 0.7589132
v 0.9368905 1.084183 0.732929
v 0.9354711 1.033771 0.7338605
v 0.8841754 1.031645 0.7695372
v 0.8904451 1.072401 0.7651286
v 0.8792548 1.064804 0.7729019
v 0.8708029 1.055957 0.7788062
v 0.8648464 1.046242 0.78299
v 0.8612067 1.036058 0.7855598
v 0.8598816 1.025873 0.7864913
v 0.954246 1.033895 0.7208033
v 0.9541516 1.084079 0.7209136
v 0.9708065 1.08223 0.7092937
v 0.9723905 1.034026 0.7081835
v 0.9891598 1.034116 0.6965195
v 0.9860179 1.078926 0.6986736
v 1.001388 1.072576 0.6879592
v 1.010986 1.065914 0.6813041
v 1.017501 1.057509 0.6768091
v 1.020699 1.047166 0.6746248
v 1.020916 1.035779 0.6744944
v 0.9661409 0.985858 0.712546
v 0.9504135 0.9833426 0.7235135
v 0.934128 0.9825294 0.7348503
v 1.01843 1.024359 0.6762028
v 1.013522 1.013675 0.6795876
v 1.006481 1.004458 0.684474
v 0.9943595 0.9953017 0.6929039
v 0.9810833 0.989805 0.7021388
v 0.9175916 0.9835615 0.7463256
v 0.9014185 0.9861975 0.7575319
v 0.8865223 0.9902747 0.7678549
v 0.8746755 0.9958658 0.7760839
v 0.8669524 1.002943 0.7814823
v 0.862347 1.011276 0.7847266
v 0.8601165 1.020635 0.7863166
v -0.9168715 1.03359 0.7467953
v -0.8994478 1.032946 0.7589132
v -0.9041255 1.078359 0.7556508
v -0.9198869 1.082298 0.7447295
v -0.9368912 1.084183 0.732929
v -0.9354718 1.033771 0.7338605
v -0.8841741 1.031645 0.7695372
v -0.8904458 1.072401 0.7651286
v -0.8792555 1.064804 0.7729019
v -0.8708016 1.055957 0.7788062
v -0.8648472 1.046242 0.78299
v -0.8612074 1.036058 0.7855598
v -0.8598824 1.025873 0.7864913
v -0.9542447 1.033895 0.7208033
v -0.9541523 1.084079 0.7209136
v -0.9708072 1.08223 0.7092937
v -0.9723912 1.034026 0.7081835
v -0.9891605 1.034116 0.6965195
v -0.9860187 1.078926 0.6986736
v -1.001387 1.072576 0.6879592
v -1.010985 1.065914 0.6813041
v -1.017502 1.057509 0.6768091
v -1.0207 1.047166 0.6746248
v -1.020916 1.035779 0.6744944
v -0.9661397 0.985858 0.712546
v -0.9504123 0.9833426 0.7235135
v -0.9341288 0.9825294 0.7348503
v -1.018429 1.024359 0.6762028
v -1.013523 1.013675 0.6795876
v -1.006482 1.004458 0.684474
v -0.9943602 0.9953017 0.6929039
v -0.9810841 0.989805 0.7021388
v -0.9175903 0.9835615 0.7463256
v -0.9014193 0.9861975 0.7575319
v -0.886523 0.9902747 0.7678549
v -0.8746762 0.9958658 0.7760839
v -0.8669531 1.002943 0.7814823
v -0.8623477 1.011276 0.7847266
v -0.8601173 1.020635 0.7863166
vn -0.5706157 -0.0005577207 -0.821217
vn -0.5706157 0.0005622506 -0.821217
vn -0.5706157 -0.0005577207 -0.821217
vn -0.5706157 -0.0005577207 -0.821217
vn -0.5706157 0.0005622506 -0.821217
vn -0.5706157 -0.0005577207 -0.821217
vn -0.5706157 -0.0005577207 -0.821217
vn -0.5706157 -0.0005577207 -0.821217
vn -0.5706157 -0.001677632 -0.8212155
vn -0.5706157 -0.001677632 -0.8212155
vn -0.5728557 -0.001677632 -0.8196545
vn -0.5717357 -0.001677632 -0.8204362
vn -0.5728557 0.0005622506 -0.8196561
vn -0.5717357 0.0005622506 -0.8204377
vn -0.5717357 0.0005622506 -0.8204377
vn -0.5717357 0.0005622506 -0.8204377
vn -0.5717357 -0.0005577207 -0.8204377
vn -0.5717357 -0.0005577207 -0.8204377
vn -0.5717357 -0.0005577207 -0.8204377
vn -0.5717357 -0.0005577207 -0.8204377
vn -0.5706157 -0.001677632 -0.8212155
vn -0.5694959 -0.002797604 -0.8219894
vn -0.5694959 -0.001677632 -0.8219925
vn -0.5694959 -0.0005577207 -0.821994
vn -0.5717357 -0.0005577207 -0.8204377
vn -0.5717357 -0.0005577207 -0.8204377
vn -0.5706157 -0.0005577207 -0.821217
vn -0.5694959 0.001682162 -0.8219925
vn -0.5706157 0.0005622506 -0.821217
vn -0.5706157 0.0005622506 -0.821217
vn -0.5706157 -0.0005577207 -0.821217
vn -0.5706157 -0.0005577207 -0.821217
vn -0.5706157 -0.0005577207 -0.821217
vn -0.5706157 0.0005622506 -0.821217
vn -0.5706157 0.0005622506 -0.821217
vn -0.5706157 0.001682162 -0.8212155
vn -0.5717357 0.001682162 -0.8204362
vn -0.5728557 0.002802134 -0.8196515
vn -0.5728557 0.002802134 -0.8196515
vn 0.5706112 -0.0005577207 -0.8212202
vn 0.5706112 -0.0005577207 -0.8212202
vn 0.5706112 -0.0005577207 -0.8212202
vn 0.5706112 0.0005622506 -0.8212202
vn 0.5706112 0.0005622506 -0.8212202
vn 0.5706112 -0.0005577207 -0.8212202
vn 0.5706112 -0.0005577207 -0.8212202
vn 0.5706112 -0.0005577207 -0.8212202
vn 0.5706112 -0.001677632 -0.8212186
vn 0.5717312 -0.001677632 -0.8204393
vn 0.5728511 -0.001677632 -0.8196577
vn 0.5717312 -0.001677632 -0.8204393
vn 0.5728511 0.0005622506 -0.8196593
vn 0.5717312 0.0005622506 -0.8204408
vn 0.5717312 0.0005622506 -0.8204408
vn 0.5717312 0.0005622506 -0.8204408
vn 0.5717312 -0.0005577207 -0.8204408
vn 0.5706112 -0.0005577207 -0.8212202
vn 0.5717312 -0.0005577207 -0.8204408
vn 0.5717312 -0.0005577207 -0.8204408
vn 0.5706112 -0.001677632 -0.8212186
vn 0.5694913 -0.002797604 -0.8219926
vn 0.5694913 -0.001677632 -0.8219957
vn 0.5694913 -0.0005577207 -0.8219972
vn 0.5717312 -0.0005577207 -0.8204408
vn 0.5717312 -0.0005577207 -0.8204408
vn 0.5706112 -0.0005577207 -0.8212202
vn 0.5694913 0.001682162 -0.8219957
vn 0.5706112 0.0005622506 -0.8212202
vn 0.5706112 -0.0005577207 -0.8212202
vn 0.5706112 -0.0005577207 -0.8212202
vn 0.5706112 -0.0005577207 -0.8212202
vn 0.5706112 -0.0005577207 -0.8212202
vn 0.5706112 0.0005622506 -0.8212202
vn 0.5706112 0.0005622506 -0.8212202
vn 0.5706112 0.001682162 -0.8212186
vn 0.5717312 0.001682162 -0.8204393
vn 0.5728511 0.002802134 -0.8196546
vn 0.5728511 0.001682162 -0.8196577
g model_car_74_matte_mirror_LOD1_0
f 3/3/3 2/2/2 1/1/1
f 4/4/4 3/3/3 1/1/1
f 2/2/2 5/5/5 1/1/1
f 5/5/5 6/6/6 1/1/1
f 3/3/3 4/4/4 7/7/7
f 8/8/8 3/3/3 7/7/7
f 9/9/9 8/8/8 7/7/7
f 10/10/10 9/9/9 7/7/7
f 11/11/11 10/10/10 7/7/7
f 12/12/12 11/11/11 7/7/7
f 13/13/13 12/12/12 7/7/7
f 6/6/6 5/5/5 14/14/14
f 5/5/5 15/15/15 14/14/14
f 15/15/15 16/16/16 14/14/14
f 16/16/16 17/17/17 14/14/14
f 17/17/17 16/16/16 18/18/18
f 16/16/16 19/19/19 18/18/18
f 19/19/19 20/20/20 18/18/18
f 20/20/20 21/21/21 18/18/18
f 21/21/21 22/22/22 18/18/18
f 22/22/22 23/23/23 18/18/18
f 23/23/23 24/24/24 18/18/18
f 17/17/17 25/25/25 14/14/14
f 25/25/25 17/17/17 18/18/18
f 25/25/25 26/26/26 14/14/14
f 26/26/26 27/27/27 14/14/14
f 27/27/27 6/6/6 14/14/14
f 24/24/24 28/28/28 18/18/18
f 28/28/28 29/29/29 18/18/18
f 29/29/29 30/30/30 18/18/18
f 30/30/30 31/31/31 18/18/18
f 31/31/31 32/32/32 18/18/18
f 32/32/32 25/25/25 18/18/18
f 6/6/6 27/27/27 1/1/1
f 27/27/27 33/33/33 1/1/1
f 33/33/33 34/34/34 1/1/1
f 34/34/34 4/4/4 1/1/1
f 4/4/4 34/34/34 7/7/7
f 34/34/34 35/35/35 7/7/7
f 35/35/35 36/36/36 7/7/7
f 36/36/36 37/37/37 7/7/7
f 37/37/37 38/38/38 7/7/7
f 38/38/38 39/39/39 7/7/7
f 39/39/39 13/13/13 7/7/7
f 42/42/42 41/41/41 40/40/40
f 43/43/43 42/42/42 40/40/40
f 44/44/44 43/43/43 40/40/40
f 45/45/45 44/44/44 40/40/40
f 41/41/41 42/42/42 46/46/46
f 42/42/42 47/47/47 46/46/46
f 47/47/47 48/48/48 46/46/46
f 48/48/48 49/49/49 46/46/46
f 49/49/49 50/50/50 46/46/46
f 50/50/50 51/51/51 46/46/46
f 51/51/51 52/52/52 46/46/46
f 44/44/44 45/45/45 53/53/53
f 54/54/54 44/44/44 53/53/53
f 55/55/55 54/54/54 53/53/53
f 56/56/56 55/55/55 53/53/53
f 55/55/55 56/56/56 57/57/57
f 58/58/58 55/55/55 57/57/57
f 59/59/59 58/58/58 57/57/57
f 60/60/60 59/59/59 57/57/57
f 61/61/61 60/60/60 57/57/57
f 62/62/62 61/61/61 57/57/57
f 63/63/63 62/62/62 57/57/57
f 64/64/64 56/56/56 53/53/53
f 56/56/56 64/64/64 57/57/57
f 65/65/65 64/64/64 53/53/53
f 66/66/66 65/65/65 53/53/53
f 45/45/45 66/66/66 53/53/53
f 67/67/67 63/63/63 57/57/57
f 68/68/68 67/67/67 57/57/57
f 69/69/69 68/68/68 57/57/57
f 70/70/70 69/69/69 57/57/57
f 71/71/71 70/70/70 57/57/57
f 64/64/64 71/71/71 57/57/57
f 66/66/66 45/45/45 40/40/40
f 72/72/72 66/66/66 40/40/40
f 73/73/73 72/72/72 40/40/40
f 41/41/41 73/73/73 40/40/40
f 73/73/73 41/41/41 46/46/46
f 74/74/74 73/73/73 46/46/46
f 75/75/75 74/74/74 46/46/46
f 76/76/76 75/75/75 46/46/46
f 77/77/77 76/76/76 46/46/46
f 78/78/78 77/77/77 46/46/46
f 52/52/52 78/78/78 46/46/46
