g Glass_26
v 0 1.1068 0.3499002
v 0.3564 0.9570999 0.7903002
v 0 0.9725999 0.8417002
v 0.3566 1.0973 0.3298002
v 0.5259 0.9474999 0.7533002
v 0.5399 1.0774 0.2993002
v 0.6649 0.9360999 0.7020002
v 0.3787 0.7834998 1.2804
v 0 0.7881998 1.3335
v 0.5436 0.7761998 1.2445
v 0.7751 0.7774998 1.0546
v 0.8129 0.7765999 0.6809001
v 0.6991 0.9116999 0.7016001
v 0.7052 0.9229 0.2573001
v 0.7954 0.8122 -0.1429999
v 0.6801 0.9485 -0.1878999
v 0.7842 0.8357001 -0.7036999
v 0.675 0.9521001 -0.6460998
v 0.5333 1.0876 -0.2478998
v 0.5376 1.0847 -0.01909982
v 0.5675 1.0533 0.3032002
v 0.5498 1.0646 -0.5663998
v 0.1878 0.9355001 -0.7167998
v 0.3523 1.078 -0.7087998
v 0.1762 1.0899 -0.7173998
v 0.36 0.9349001 -0.7086998
v 0 0.9361001 -0.7254998
v 0 1.0948 -0.7258998
v 0 1.1068 0.3499002
v -0.3564 0.9570999 0.7903002
v -0.3565 1.0973 0.3298002
v 0 0.9725999 0.8417002
v -0.3786 0.7834998 1.2804
v -0.5259 0.9474999 0.7533002
v -0.5399 1.0774 0.2993002
v -0.6649 0.9360999 0.7020002
v -0.7751 0.7774998 1.0546
v -0.5436 0.7761998 1.2445
v 0 0.7881998 1.3335
v -0.8129 0.7765999 0.6809001
v -0.7052 0.9229 0.2573001
v -0.6991 0.9116999 0.7016001
v -0.7954 0.8122 -0.1429999
v -0.6801 0.9485 -0.1878999
v -0.7842 0.8357001 -0.7036999
v -0.5675 1.0533 0.3032002
v -0.675 0.9521001 -0.6460998
v -0.5333 1.0876 -0.2478998
v -0.5376 1.0847 -0.01909982
v -0.5498 1.0646 -0.5663998
v -0.1878 0.9355001 -0.7167998
v -0.3523 1.078 -0.7087998
v -0.36 0.9349001 -0.7086998
v -0.1762 1.0899 -0.7173998
v 0 0.9361001 -0.7254998
v 0 1.0948 -0.7258998
vt 0.0228 0.734
vt 0.268 0.4272
vt 0.029 0.3923
vt 0.2617 0.7497
vt 0.3818 0.4513
vt 0.3858 0.7678
vt 0.4759 0.4837
vt 0.2915 0.0792
vt 0.0382 0.0404
vt 0.4022 0.1031
vt 0.5596 0.2276
vt 0.6892 0.9533
vt 0.8077 0.9659
vt 0.8077 0.6681
vt 0.7096 0.4008
vt 0.8291 0.3695
vt 0.7232 0.0248
vt 0.8306 0.0625
vt 0.9643 0.3282
vt 0.9622 0.4816
vt 0.9349 0.6978
vt 0.9439 0.1149
vt 0.1814 0.8529
vt 0.071 0.9484
vt 0.1892 0.9563
vt 0.0658 0.8525
vt 0.3074 0.8533
vt 0.3074 0.9597
vt 0.0228 0.734
vt 0.268 0.4272
vt 0.2617 0.7497
vt 0.029 0.3923
vt 0.2915 0.0792
vt 0.3818 0.4513
vt 0.3858 0.7678
vt 0.4759 0.4837
vt 0.5596 0.2276
vt 0.4022 0.1031
vt 0.0382 0.0404
vt 0.6892 0.9533
vt 0.8077 0.6681
vt 0.8077 0.9659
vt 0.7096 0.4008
vt 0.8291 0.3695
vt 0.7232 0.0248
vt 0.9349 0.6978
vt 0.8306 0.0625
vt 0.9643 0.3282
vt 0.9622 0.4816
vt 0.9439 0.1149
vt 0.1814 0.8529
vt 0.071 0.9484
vt 0.0658 0.8525
vt 0.1892 0.9563
vt 0.3074 0.8533
vt 0.3074 0.9597
vn 0 0.960014 0.279952
vn 0.09746439 0.9476691 0.3040132
vn 0 0.9526364 0.3041117
vn 0.0948329 0.9537973 0.2850919
vn 0.1627806 0.9375368 0.3074528
vn 0.1546245 0.948586 0.276181
vn 0.1913576 0.9307237 0.3116659
vn 0.09049277 0.9377185 0.335403
vn 0 0.9363447 0.3510819
vn 0.163475 0.9326957 0.3214881
vn 0.2413089 0.9169446 0.3177779
vn 0.7722034 0.6349602 0.0229659
vn 0.7500714 0.6608073 0.02695589
vn 0.7405577 0.6718916 0.01166333
vn 0.7667466 0.6419417 0.003223381
vn 0.7246878 0.6890761 0.001276805
vn 0.7374558 0.6753944 0.001133459
vn 0.7080954 0.7060878 -0.006399978
vn 0.6851481 0.7283874 -0.004898204
vn 0.69275 0.7211719 0.002922916
vn 0.6911017 0.7225966 0.01525234
vn 0.661202 0.7499439 -0.01990153
vn 0.04717749 0.000160223 -0.9988865
vn 0.04780953 0.000885233 -0.9988561
vn 0.04786251 -0.0008263726 -0.9988536
vn 0.04699236 0.001830437 -0.9988936
vn 0 -0.001552856 -0.9999988
vn 0 -0.002520513 -0.9999968
vn 0 0.960014 0.279952
vn -0.09746494 0.9476693 0.3040123
vn -0.09479684 0.9538026 0.2850862
vn 0 0.9526364 0.3041117
vn -0.09046705 0.9377155 0.3354183
vn -0.1627755 0.9375395 0.3074475
vn -0.1545593 0.9485964 0.2761818
vn -0.1913575 0.9307237 0.3116659
vn -0.2413087 0.9169446 0.3177777
vn -0.1634446 0.9326965 0.3215014
vn 0 0.9363447 0.3510819
vn -0.7722034 0.6349602 0.0229659
vn -0.7405577 0.6718916 0.01166333
vn -0.7500714 0.6608073 0.02695589
vn -0.7667467 0.6419416 0.003223381
vn -0.7246879 0.6890761 0.001276787
vn -0.7374558 0.6753944 0.001133459
vn -0.6911017 0.7225965 0.01525231
vn -0.7080954 0.7060878 -0.006399977
vn -0.6851481 0.7283874 -0.004898204
vn -0.6927501 0.7211718 0.002922766
vn -0.661202 0.7499439 -0.01990153
vn -0.04717755 0.0001602233 -0.9988865
vn -0.04780952 0.0008852342 -0.9988561
vn -0.04699235 0.001830444 -0.9988936
vn -0.04786256 -0.0008263747 -0.9988536
vn 0 -0.001552856 -0.9999988
vn 0 -0.002520513 -0.9999968
g Glass_26_0
f 3/3/3 2/2/2 1/1/1
f 1/1/1 2/2/2 4/4/4
f 2/2/2 5/5/5 4/4/4
f 6/6/6 4/4/4 5/5/5
f 5/5/5 7/7/7 6/6/6
f 2/2/2 3/3/3 8/8/8
f 9/9/9 8/8/8 3/3/3
f 8/8/8 10/10/10 2/2/2
f 5/5/5 2/2/2 10/10/10
f 10/10/10 11/11/11 5/5/5
f 7/7/7 5/5/5 11/11/11
f 14/14/14 13/13/13 12/12/12
f 15/15/15 14/14/14 12/12/12
f 16/16/16 14/14/14 15/15/15
f 17/17/17 16/16/16 15/15/15
f 18/18/18 16/16/16 17/17/17
f 19/19/19 16/16/16 18/18/18
f 19/19/19 20/20/20 16/16/16
f 20/20/20 21/21/21 16/16/16
f 21/21/21 13/13/13 14/14/14
f 14/14/14 16/16/16 21/21/21
f 22/22/22 19/19/19 18/18/18
f 25/25/25 24/24/24 23/23/23
f 26/26/26 23/23/23 24/24/24
f 23/23/23 27/27/27 25/25/25
f 28/28/28 25/25/25 27/27/27
f 31/31/31 30/30/30 29/29/29
f 29/29/29 30/30/30 32/32/32
f 30/30/30 33/33/33 32/32/32
f 30/30/30 31/31/31 34/34/34
f 35/35/35 34/34/34 31/31/31
f 36/36/36 34/34/34 35/35/35
f 36/36/36 37/37/37 34/34/34
f 34/34/34 38/38/38 30/30/30
f 38/38/38 34/34/34 37/37/37
f 33/33/33 30/30/30 38/38/38
f 39/39/39 32/32/32 33/33/33
f 42/42/42 41/41/41 40/40/40
f 41/41/41 43/43/43 40/40/40
f 41/41/41 44/44/44 43/43/43
f 44/44/44 45/45/45 43/43/43
f 41/41/41 46/46/46 44/44/44
f 42/42/42 46/46/46 41/41/41
f 44/44/44 47/47/47 45/45/45
f 44/44/44 48/48/48 47/47/47
f 49/49/49 48/48/48 44/44/44
f 49/49/49 44/44/44 46/46/46
f 48/48/48 50/50/50 47/47/47
f 53/53/53 52/52/52 51/51/51
f 54/54/54 51/51/51 52/52/52
f 51/51/51 54/54/54 55/55/55
f 56/56/56 55/55/55 54/54/54
