g ref_26
v 0.4491 0.5345997 2.0172
v 0.6603 0.4539987 2.1065
v 0.3957 0.4440987 2.1817
v 0.7051 0.5448997 1.9668
v 0.6376 0.6281997 1.7987
v 0.7538 0.6398997 1.7504
v -0.4491 0.5345997 2.0172
v -0.6603 0.4539987 2.1065
v -0.7051 0.5448997 1.9668
v -0.6376 0.6281997 1.7987
v -0.3957 0.4440987 2.1817
v -0.7538 0.6398997 1.7504
vt 0.6347 0.7191
vt 0.4735 0.6948
vt 0.5864 0.8407
vt 0.5184 0.5883
vt 0.6306 0.5157
vt 0.5882 0.4424
vt 0.6347 0.7191
vt 0.4735 0.6948
vt 0.5184 0.5883
vt 0.6306 0.5157
vt 0.5864 0.8407
vt 0.5882 0.4424
vn 0.08688948 0.8609964 0.5011341
vn 0.09005335 0.8358802 0.5414745
vn 0.1120094 0.8548402 0.5066578
vn 0.06482746 0.87723 0.475673
vn 0.06870493 0.9046047 0.4206779
vn 0.08171838 0.9056901 0.4159899
vn -0.08688942 0.8609964 0.5011342
vn -0.09005319 0.8358802 0.5414746
vn -0.06482745 0.87723 0.475673
vn -0.06870493 0.9046046 0.4206781
vn -0.1120093 0.8548401 0.506658
vn -0.08171826 0.9056898 0.4159904
g ref_26_0
f 3/3/3 2/2/2 1/1/1
f 4/4/4 1/1/1 2/2/2
f 1/1/1 4/4/4 5/5/5
f 6/6/6 5/5/5 4/4/4
f 9/9/9 8/8/8 7/7/7
f 7/7/7 10/10/10 9/9/9
f 11/11/11 7/7/7 8/8/8
f 12/12/12 9/9/9 10/10/10
