g Taillights_26
v 0.6663 0.7171013 -2.2044
v 0.7822 0.7799014 -2.1623
v 0.6647 0.8206013 -2.1652
v 0.7974 0.7487013 -2.1745
v 0.8088 0.7176014 -2.1832
v 0.7173 0.6907014 -2.2074
v 0.8161 0.6913013 -2.1902
v 0.7635 0.8149014 -2.1467
v 0.5288 0.7208014 -2.2248
v 0.4963 0.8310013 -2.1884
v 0.3857 0.7236013 -2.2395
v 0.4254 0.8325014 -2.1989
v 0.4963 0.8310013 -2.1884
v 0.4178 0.8366014 -2.1865
v 0.4254 0.8325014 -2.1989
v 0.4946 0.8349013 -2.1749
v 0.6647 0.8206013 -2.1652
v 0.6629 0.8241013 -2.151
v 0.7635 0.8149014 -2.1467
v 0.7669 0.8177013 -2.1309
v 0.7822 0.7799014 -2.1623
v 0.7669 0.8177013 -2.1309
v 0.7635 0.8149014 -2.1467
v 0.788 0.7785013 -2.1489
v 0.7974 0.7487013 -2.1745
v 0.8035 0.7472014 -2.1618
v 0.8088 0.7176014 -2.1832
v 0.8194 0.7036014 -2.1739
v 0.8161 0.6913013 -2.1902
v 0.8246 0.6794013 -2.1807
v 0.7173 0.6907014 -2.2074
v 0.8246 0.6794013 -2.1807
v 0.8161 0.6913013 -2.1902
v 0.714 0.6787013 -2.2
v 0.6663 0.7171013 -2.2044
v 0.6628 0.7052014 -2.197
v 0.5288 0.7208014 -2.2248
v 0.5274 0.7088013 -2.217
v 0.3857 0.7236013 -2.2395
v 0.3725 0.7121013 -2.2335
v 0.4254 0.8325014 -2.1989
v 0.3725 0.7121013 -2.2335
v 0.3857 0.7236013 -2.2395
v 0.4178 0.8366014 -2.1865
v -0.6662 0.7171013 -2.2044
v -0.7822 0.7799014 -2.1623
v -0.7974 0.7487013 -2.1745
v -0.6647 0.8206013 -2.1652
v -0.8088 0.7176014 -2.1832
v -0.7173 0.6907014 -2.2074
v -0.8161 0.6913013 -2.1902
v -0.7635 0.8149014 -2.1467
v -0.5288 0.7208014 -2.2248
v -0.4963 0.8310013 -2.1884
v -0.3857 0.7236013 -2.2395
v -0.4254 0.8325014 -2.1989
v -0.4963 0.8310013 -2.1884
v -0.4178 0.8366014 -2.1865
v -0.4946 0.8349013 -2.1749
v -0.4254 0.8325014 -2.1989
v -0.6647 0.8206013 -2.1652
v -0.6629 0.8241013 -2.151
v -0.7635 0.8149014 -2.1467
v -0.7669 0.8177013 -2.1309
v -0.7822 0.7799014 -2.1623
v -0.7669 0.8177013 -2.1309
v -0.788 0.7785013 -2.1489
v -0.7635 0.8149014 -2.1467
v -0.7974 0.7487013 -2.1745
v -0.8035 0.7472014 -2.1618
v -0.8088 0.7176014 -2.1832
v -0.8194 0.7036014 -2.1739
v -0.8161 0.6913013 -2.1902
v -0.8246 0.6794013 -2.1807
v -0.7173 0.6907014 -2.2074
v -0.8246 0.6794013 -2.1807
v -0.714 0.6787013 -2.2
v -0.8161 0.6913013 -2.1902
v -0.6662 0.7171013 -2.2044
v -0.6628 0.7052014 -2.197
v -0.5288 0.7208014 -2.2248
v -0.5274 0.7088013 -2.217
v -0.3857 0.7236013 -2.2395
v -0.3725 0.7121013 -2.2335
v -0.4254 0.8325014 -2.1989
v -0.3725 0.7121013 -2.2335
v -0.4178 0.8366014 -2.1865
v -0.3857 0.7236013 -2.2395
vt 0.1794 0.5592
vt 0.0523 0.6426
vt 0.178 0.6888
vt 0.0373 0.6029
vt 0.0257 0.5652
vt 0.1247 0.5297
vt 0.018 0.5341
vt 0.0704 0.6884
vt 0.3282 0.5594
vt 0.3599 0.6939
vt 0.482 0.5595
vt 0.4366 0.6936
vt 0.3599 0.6939
vt 0.4428 0.7099
vt 0.4366 0.6936
vt 0.3596 0.7104
vt 0.178 0.6888
vt 0.1773 0.7061
vt 0.0704 0.6884
vt 0.0638 0.7063
vt 0.0523 0.6426
vt 0.0583 0.7027
vt 0.0704 0.6884
vt 0.0382 0.6504
vt 0.0373 0.6029
vt 0.0231 0.6089
vt 0.0257 0.5652
vt 0.0067 0.5545
vt 0.018 0.5341
vt 0.0008 0.5254
vt 0.1247 0.5297
vt 0.007 0.5176
vt 0.018 0.5341
vt 0.1278 0.5134
vt 0.1794 0.5592
vt 0.1829 0.5427
vt 0.3282 0.5594
vt 0.3284 0.5427
vt 0.482 0.5595
vt 0.4953 0.5434
vt 0.4366 0.6936
vt 0.5003 0.5513
vt 0.482 0.5595
vt 0.4489 0.705
vt 0.1794 0.5592
vt 0.0523 0.6426
vt 0.0373 0.6029
vt 0.178 0.6888
vt 0.0257 0.5652
vt 0.1247 0.5297
vt 0.018 0.5341
vt 0.0704 0.6884
vt 0.3282 0.5594
vt 0.3599 0.6939
vt 0.482 0.5595
vt 0.4366 0.6936
vt 0.3599 0.6939
vt 0.4428 0.7099
vt 0.3596 0.7104
vt 0.4366 0.6936
vt 0.178 0.6888
vt 0.1773 0.7061
vt 0.0704 0.6884
vt 0.0638 0.7063
vt 0.0523 0.6426
vt 0.0583 0.7027
vt 0.0382 0.6504
vt 0.0704 0.6884
vt 0.0373 0.6029
vt 0.0231 0.6089
vt 0.0257 0.5652
vt 0.0067 0.5545
vt 0.018 0.5341
vt 0.0008 0.5254
vt 0.1247 0.5297
vt 0.007 0.5176
vt 0.1278 0.5134
vt 0.018 0.5341
vt 0.1794 0.5592
vt 0.1829 0.5427
vt 0.3282 0.5594
vt 0.3284 0.5427
vt 0.482 0.5595
vt 0.4953 0.5434
vt 0.4366 0.6936
vt 0.5003 0.5513
vt 0.4489 0.705
vt 0.482 0.5595
vn 0.1412767 0.3559883 -0.9237495
vn 0.1400304 0.4128835 -0.8999548
vn 0.150787 0.3651427 -0.9186588
vn 0.1246746 0.3582656 -0.9252577
vn 0.1498426 0.3100061 -0.9388522
vn 0.1385659 0.3590209 -0.9229861
vn 0.1621083 0.2955813 -0.9414631
vn 0.1880436 0.4819191 -0.8557999
vn 0.1291322 0.3458687 -0.9293545
vn 0.1329518 0.3332576 -0.9334148
vn 0.1177949 0.3251339 -0.9383029
vn 0.1459967 0.2984215 -0.9432018
vn 0.07883887 0.9601833 -0.2680157
vn 0.06167084 0.9586933 -0.277676
vn 0.06160673 0.9582835 -0.2791009
vn 0.07896043 0.9606168 -0.2664219
vn 0.09637568 0.9689505 -0.227699
vn 0.09635926 0.9695505 -0.2251371
vn 0.09762125 0.9756482 -0.1964197
vn 0.09756261 0.976141 -0.1939849
vn 0.7980632 0.5291514 -0.2882602
vn 0.7926246 0.5460851 -0.2711779
vn 0.7952089 0.544115 -0.2675476
vn 0.7940484 0.5334553 -0.2913979
vn 0.8198047 0.4643196 -0.3351532
vn 0.8178124 0.4665016 -0.3369853
vn 0.8417032 0.3905441 -0.3728417
vn 0.8454226 0.3503737 -0.4031117
vn 0.8553602 0.3152585 -0.4110609
vn 0.8661187 0.29872 -0.4007552
vn -0.06935313 -0.5098668 -0.8574532
vn 0.1464528 -0.5508174 -0.8216761
vn 0.1463463 -0.5512256 -0.8214214
vn -0.06786755 -0.5100336 -0.8574729
vn -0.08838712 -0.5071895 -0.8572903
vn -0.08756912 -0.5074388 -0.8572266
vn 0.09131778 -0.5500844 -0.8301014
vn 0.09122126 -0.5495995 -0.830433
vn 0.07843125 -0.5314012 -0.8434817
vn 0.07859888 -0.5305694 -0.8439895
vn -0.6790805 0.4622418 -0.5702475
vn -0.6690653 0.4614078 -0.5826273
vn -0.6675306 0.4612709 -0.584493
vn -0.6797103 0.4622907 -0.5694569
vn -0.1412889 0.3559332 -0.9237689
vn -0.1399809 0.4128451 -0.8999801
vn -0.1245912 0.3582308 -0.9252825
vn -0.150801 0.3650595 -0.9186897
vn -0.1497929 0.310024 -0.9388542
vn -0.1384674 0.3592824 -0.9228992
vn -0.1621083 0.2955817 -0.9414629
vn -0.1880436 0.4819191 -0.8557999
vn -0.1291551 0.3458414 -0.9293614
vn -0.1329518 0.3332576 -0.9334148
vn -0.1177949 0.3251339 -0.9383029
vn -0.1459967 0.2984215 -0.9432018
vn -0.07883928 0.9601835 -0.2680151
vn -0.0616709 0.9586942 -0.2776728
vn -0.07896084 0.9606169 -0.2664214
vn -0.06160679 0.9582846 -0.2790975
vn -0.09637604 0.9689506 -0.2276979
vn -0.09635961 0.9695507 -0.2251363
vn -0.09762122 0.9756479 -0.1964211
vn -0.09756258 0.9761407 -0.1939868
vn -0.7980635 0.5291514 -0.2882593
vn -0.7926244 0.546085 -0.2711785
vn -0.7940485 0.5334553 -0.2913975
vn -0.7952088 0.5441148 -0.2675483
vn -0.8198042 0.4643194 -0.3351546
vn -0.8178117 0.4665017 -0.336987
vn -0.8417017 0.3905466 -0.3728425
vn -0.8454228 0.3503745 -0.4031105
vn -0.8553599 0.3152595 -0.4110607
vn -0.8661166 0.2987228 -0.4007577
vn 0.06907251 -0.5099338 -0.857436
vn -0.1464523 -0.5508161 -0.8216772
vn 0.06773061 -0.5102115 -0.8573779
vn -0.1463458 -0.5512241 -0.8214226
vn 0.08771048 -0.5077611 -0.8570213
vn 0.08863342 -0.5077264 -0.8569469
vn -0.09132294 -0.5500636 -0.8301145
vn -0.09122169 -0.5495995 -0.830433
vn -0.07843132 -0.5314017 -0.8434813
vn -0.07859894 -0.5305699 -0.8439893
vn 0.6790721 0.4622456 -0.5702544
vn 0.6690605 0.46141 -0.5826311
vn 0.6797016 0.4622946 -0.5694641
vn 0.6675264 0.4612729 -0.5844963
g Taillights_26_0
f 3/3/3 2/2/2 1/1/1
f 1/1/1 2/2/2 4/4/4
f 1/1/1 4/4/4 5/5/5
f 1/1/1 5/5/5 6/6/6
f 7/7/7 6/6/6 5/5/5
f 8/8/8 2/2/2 3/3/3
f 1/1/1 9/9/9 3/3/3
f 3/3/3 9/9/9 10/10/10
f 9/9/9 11/11/11 10/10/10
f 10/10/10 11/11/11 12/12/12
f 15/15/15 14/14/14 13/13/13
f 16/16/16 13/13/13 14/14/14
f 13/13/13 16/16/16 17/17/17
f 18/18/18 17/17/17 16/16/16
f 17/17/17 18/18/18 19/19/19
f 20/20/20 19/19/19 18/18/18
f 23/23/23 22/22/22 21/21/21
f 24/24/24 21/21/21 22/22/22
f 21/21/21 24/24/24 25/25/25
f 26/26/26 25/25/25 24/24/24
f 25/25/25 26/26/26 27/27/27
f 28/28/28 27/27/27 26/26/26
f 27/27/27 28/28/28 29/29/29
f 30/30/30 29/29/29 28/28/28
f 33/33/33 32/32/32 31/31/31
f 34/34/34 31/31/31 32/32/32
f 31/31/31 34/34/34 35/35/35
f 35/35/35 34/34/34 36/36/36
f 35/35/35 36/36/36 37/37/37
f 38/38/38 37/37/37 36/36/36
f 37/37/37 38/38/38 39/39/39
f 40/40/40 39/39/39 38/38/38
f 43/43/43 42/42/42 41/41/41
f 44/44/44 41/41/41 42/42/42
f 47/47/47 46/46/46 45/45/45
f 48/48/48 45/45/45 46/46/46
f 45/45/45 49/49/49 47/47/47
f 45/45/45 50/50/50 49/49/49
f 51/51/51 49/49/49 50/50/50
f 46/46/46 52/52/52 48/48/48
f 53/53/53 45/45/45 48/48/48
f 53/53/53 48/48/48 54/54/54
f 55/55/55 53/53/53 54/54/54
f 55/55/55 54/54/54 56/56/56
f 59/59/59 58/58/58 57/57/57
f 60/60/60 57/57/57 58/58/58
f 57/57/57 61/61/61 59/59/59
f 62/62/62 59/59/59 61/61/61
f 61/61/61 63/63/63 62/62/62
f 64/64/64 62/62/62 63/63/63
f 67/67/67 66/66/66 65/65/65
f 68/68/68 65/65/65 66/66/66
f 65/65/65 69/69/69 67/67/67
f 70/70/70 67/67/67 69/69/69
f 69/69/69 71/71/71 70/70/70
f 72/72/72 70/70/70 71/71/71
f 71/71/71 73/73/73 72/72/72
f 74/74/74 72/72/72 73/73/73
f 77/77/77 76/76/76 75/75/75
f 78/78/78 75/75/75 76/76/76
f 75/75/75 79/79/79 77/77/77
f 80/80/80 77/77/77 79/79/79
f 79/79/79 81/81/81 80/80/80
f 82/82/82 80/80/80 81/81/81
f 81/81/81 83/83/83 82/82/82
f 84/84/84 82/82/82 83/83/83
f 87/87/87 86/86/86 85/85/85
f 88/88/88 85/85/85 86/86/86
