g model_car_111_matte_tile_LOD1
v 0.5171559 0.2025673 1.873897
v 0.5500805 0.4339817 1.823647
v 0.8571906 0.4771957 1.787856
v 0.7596557 0.2034659 1.861861
v 0.3363488 0.4459147 1.9617
v 0.2798856 0.4342628 2.124799
v 0.03200269 0.4286625 2.15051
v 0.02468181 0.4389048 1.983833
v 0.08048487 0.1893268 2.224136
v 0.07491851 0.2490222 2.250144
v 0.1490216 0.2496397 2.241733
v 0.1595919 0.1897357 2.215426
v 2.145767E-06 0.2486773 2.253091
v 2.145767E-06 0.1891649 2.227104
v 2.145767E-06 0.1367605 2.202824
v 0.08539081 0.1367605 2.199835
v 0.1689398 0.1367605 2.190832
v 0.2359393 0.1903276 2.201168
v 0.2214381 0.250679 2.22836
v 0.2964567 0.2521524 2.205482
v 0.3101615 0.1914902 2.179401
v 0.2488093 0.1367605 2.175764
v 0.3297093 0.1367605 2.152605
v 0.3684601 0.1931939 2.154355
v 0.3468935 0.1446095 2.14735
v 0.3257189 0.2524931 2.194464
v 0.3735791 0.2418165 2.170109
v 0.3827398 0.2232738 2.159508
v -0.5171559 0.2025673 1.873897
v -0.759656 0.2034659 1.861861
v -0.8571908 0.4771957 1.787856
v -0.5500808 0.4339817 1.823647
v -0.3363488 0.4459147 1.9617
v -0.02468181 0.4389048 1.983833
v -0.03200269 0.4286625 2.15051
v -0.2798858 0.4342628 2.124799
v -0.08048487 0.1893268 2.224136
v -0.1595919 0.1897357 2.215426
v -0.1490216 0.2496397 2.241733
v -0.07491851 0.2490222 2.250144
v 2.145767E-06 0.2486773 2.253091
v 2.145767E-06 0.1891649 2.227104
v 2.145767E-06 0.1367605 2.202824
v -0.08539104 0.1367605 2.199835
v -0.1689401 0.1367605 2.190832
v -0.2359393 0.1903276 2.201168
v -0.2214382 0.250679 2.22836
v -0.2964568 0.2521524 2.205482
v -0.3101616 0.1914902 2.179401
v -0.2488093 0.1367605 2.175764
v -0.3297095 0.1367605 2.152605
v -0.3684602 0.1931939 2.154355
v -0.3468935 0.1446095 2.14735
v -0.3257189 0.2524931 2.194464
v -0.3735793 0.2418165 2.170109
v -0.38274 0.2232738 2.159508
v 0.5652078 0.6189752 -1.290749
v 0.5655357 0.7335069 -1.290749
v 0.5665748 0.7391882 -1.534714
v 0.566247 0.6189752 -1.534714
v 0.6944622 0.4614041 -2.070385
v 0.6654938 0.6908166 -2.038286
v 0.4822295 0.6496 -2.137976
v 0.479606 0.4676857 -2.146515
v 0.8010044 0.4722128 -2.017831
v 0.7443156 0.6878695 -1.961619
v 0.7726195 0.666384 -1.939857
v 0.823197 0.5413034 -1.982598
v 0.1848381 0.6210492 -2.204217
v 0.1822274 0.4695554 -2.199277
v 2.145767E-06 0.4715827 -2.210039
v 2.145767E-06 0.6204743 -2.212573
v -0.565208 0.6189752 -1.290749
v -0.566247 0.6189752 -1.534714
v -0.5665751 0.7391882 -1.534714
v -0.5655358 0.7335069 -1.290749
v -0.6944623 0.4614041 -2.070385
v -0.4796062 0.4676857 -2.146515
v -0.4822295 0.6496 -2.137976
v -0.665494 0.6908166 -2.038286
v -0.8010044 0.4722128 -2.017831
v -0.7443156 0.6878695 -1.961619
v -0.7726197 0.666384 -1.939857
v -0.8231971 0.5413034 -1.982598
v -0.1848338 0.6210492 -2.204217
v -0.1822274 0.4695554 -2.199277
v 2.145767E-06 0.4715827 -2.210039
v 2.145767E-06 0.6204743 -2.212573
v 0.7302318 0.7148151 -0.3898903
v 0.8841062 0.7484083 -0.3916705
v 0.8841062 0.6621764 -0.3916705
v 0.7302318 0.6720226 -0.3898903
v 0.8270043 0.6982057 -0.8188785
v 0.9341598 0.714304 -0.8188785
v 0.952511 0.5982432 -0.8188785
v 0.8317699 0.5918765 -0.8188785
v 0.9215155 0.4508679 -0.8292061
v 0.9643035 0.4539213 -0.8292061
v 0.9613054 0.3111367 -0.8406708
v 0.9192966 0.3077254 -0.8406708
v 0.9233766 0.5711701 -0.8195727
v 0.9572297 0.5739214 -0.8195727
v -0.7302318 0.7148151 -0.3898903
v -0.7302318 0.6720226 -0.3898903
v -0.8841064 0.6621764 -0.3916705
v -0.8841064 0.7484083 -0.3916705
v -0.8270044 0.6982057 -0.8188785
v -0.8317699 0.5918765 -0.8188785
v -0.9525111 0.5982432 -0.8188785
v -0.93416 0.714304 -0.8188785
v -0.9215155 0.4508679 -0.8292061
v -0.9192967 0.3077254 -0.8406708
v -0.9613054 0.3111367 -0.8406708
v -0.9643037 0.4539213 -0.8292061
v -0.9233766 0.5711701 -0.8195727
v -0.9572299 0.5739214 -0.8195727
vt 2.058848 0.04843471
vt 2.09866 0.3081802
vt 2.438122 0.3582461
vt 2.3257 0.04843471
vt 2.640751 0.616509
vt 2.565879 0.4417422
vt 2.292055 0.4328697
vt 2.297249 0.616509
vt 2.616012 0.1552436
vt 2.607095 0.2265174
vt 2.689086 0.2266759
vt 2.703458 0.1552776
vt 2.524708 0.2242088
vt 2.527526 0.1528784
vt 2.530106 0.08944715
vt 2.624002 0.09188028
vt 2.716382 0.09156341
vt 2.788765 0.1530255
vt 2.770036 0.2250915
vt 2.856123 0.2202818
vt 2.87363 0.1482497
vt 2.805672 0.08853048
vt 2.897962 0.0822496
vt 2.943161 0.1424555
vt 2.918457 0.08893789
vt 2.890379 0.217396
vt 2.947609 0.1987458
vt 2.959062 0.1759082
vt 2.058848 0.04843471
vt 2.3257 0.04843471
vt 2.438122 0.3582461
vt 2.09866 0.3081802
vt 2.640751 0.616509
vt 2.297249 0.616509
vt 2.292055 0.4328697
vt 2.565879 0.4417422
vt 2.616012 0.1552436
vt 2.703458 0.1552776
vt 2.689086 0.2266759
vt 2.607095 0.2265174
vt 2.524708 0.2242088
vt 2.527526 0.1528784
vt 2.530106 0.08944715
vt 2.624002 0.09188028
vt 2.716382 0.09156341
vt 2.788765 0.1530255
vt 2.770036 0.2250915
vt 2.856123 0.2202818
vt 2.87363 0.1482497
vt 2.805672 0.08853048
vt 2.897962 0.0822496
vt 2.943161 0.1424555
vt 2.918457 0.08893789
vt 2.890379 0.217396
vt 2.947609 0.1987458
vt 2.959062 0.1759082
vt 2.551551 0.2829435
vt 2.551551 0.4088213
vt 2.819694 0.4150569
vt 2.819694 0.2829435
vt 2.190554 0.7136533
vt 2.202799 0.969947
vt 2.433165 0.9236836
vt 2.441065 0.7236574
vt 2.059674 0.7240535
vt 2.0819 0.9758205
vt 2.040299 0.956661
vt 2.018616 0.8026267
vt 2.76896 0.8967946
vt 2.773295 0.7302325
vt 2.973898 0.7346008
vt 2.972314 0.8982658
vt 2.551551 0.2829435
vt 2.819694 0.2829435
vt 2.819694 0.4150569
vt 2.551551 0.4088213
vt 2.190554 0.7136533
vt 2.441065 0.7236574
vt 2.433165 0.9236836
vt 2.202799 0.969947
vt 2.059674 0.7240535
vt 2.0819 0.9758205
vt 2.040299 0.956661
vt 2.018616 0.8026267
vt 2.76896 0.8967946
vt 2.773295 0.7302325
vt 2.973898 0.7346008
vt 2.972314 0.8982658
vt 2.042189 0.5151549
vt 2.211332 0.5520819
vt 2.211332 0.4573029
vt 2.042189 0.4681332
vt 2.702428 0.6095265
vt 2.820961 0.6210018
vt 2.834395 0.4925551
vt 2.7015 0.4925551
vt 2.905849 0.4531496
vt 2.952815 0.457235
vt 2.952011 0.2997604
vt 2.905906 0.2952902
vt 2.905804 0.5858063
vt 2.942958 0.5894051
vt 2.042189 0.5151549
vt 2.042189 0.4681332
vt 2.211332 0.4573029
vt 2.211332 0.5520819
vt 2.702428 0.6095265
vt 2.7015 0.4925551
vt 2.834395 0.4925551
vt 2.820961 0.6210018
vt 2.905849 0.4531496
vt 2.905906 0.2952902
vt 2.952011 0.2997604
vt 2.952815 0.457235
vt 2.905804 0.5858063
vt 2.942958 0.5894051
vn 0.06744784 0.2218935 0.9727353
vn 0.06744784 0.2218935 0.9727353
vn 0.06744784 0.2218935 0.9727353
vn 0.06744784 0.2218935 0.9727353
vn -0.01661754 0.9980322 0.06046117
vn -0.01661754 0.9980322 0.06046117
vn -0.01661754 0.9980322 0.06046117
vn -0.01661754 0.9980322 0.06046117
vn 0.06940281 -0.4037094 0.9122511
vn 0.07135785 -0.3919794 0.9172024
vn 0.1397832 -0.3782943 0.9150705
vn 0.1378282 -0.3880693 0.9112659
vn -0.0009775162 -0.3978444 0.9174524
vn -0.0009775162 -0.4076194 0.9131514
vn -0.0009775162 -0.4193495 0.9078243
vn 0.06549281 -0.4134845 0.9081526
vn 0.1358731 -0.3978444 0.9073358
vn 0.2218935 -0.3626542 0.9051216
vn 0.2258036 -0.3509242 0.9087712
vn 0.311824 -0.3255091 0.892642
vn 0.307914 -0.3294191 0.8925649
vn 0.2179835 -0.3724293 0.9020973
vn 0.304004 -0.3352841 0.8917209
vn 0.3743843 -0.307914 0.8746573
vn 0.3880693 -0.2942289 0.8734023
vn 0.3685192 -0.313779 0.8750636
vn 0.3704743 -0.321599 0.8713914
vn 0.3606992 -0.321599 0.8754828
vn -0.06744778 0.2218935 0.9727353
vn -0.06744778 0.2218935 0.9727353
vn -0.06744778 0.2218935 0.9727353
vn -0.06744778 0.2218935 0.9727353
vn 0.0166176 0.9980322 0.06046117
vn 0.0166176 0.9980322 0.06046117
vn 0.0166176 0.9980322 0.06046117
vn 0.0166176 0.9980322 0.06046117
vn -0.06744778 -0.4017544 0.9132602
vn -0.1378281 -0.3880693 0.9112659
vn -0.1397831 -0.3782943 0.9150705
vn -0.07135785 -0.3919794 0.9172024
vn -0.0009775162 -0.3978444 0.9174524
vn -0.0009775162 -0.4076194 0.9131514
vn -0.0009775162 -0.4193495 0.9078243
vn -0.06549275 -0.4134845 0.9081526
vn -0.1358731 -0.3978444 0.9073359
vn -0.2218935 -0.3626542 0.9051216
vn -0.2258036 -0.3509242 0.9087712
vn -0.3098689 -0.3255091 0.8933225
vn -0.3079139 -0.3294191 0.8925649
vn -0.2179835 -0.3724293 0.9020973
vn -0.304004 -0.3352841 0.8917209
vn -0.3743843 -0.307914 0.8746573
vn -0.3880693 -0.2942289 0.8734023
vn -0.3685192 -0.313779 0.8750636
vn -0.3704742 -0.321599 0.8713914
vn -0.3606992 -0.321599 0.8754829
vn 0.9999872 -0.002932549 0.004112292
vn 0.9999872 -0.002932549 0.004112292
vn 0.9999872 -0.002932549 0.004112292
vn 0.9999872 -0.002932549 0.004112292
vn 0.4506297 0.1710633 -0.876168
vn 0.4506297 0.1710633 -0.876168
vn 0.2903189 0.05962777 -0.9550704
vn 0.2903189 0.05962777 -0.9550704
vn 0.5366501 0.2903188 -0.7922889
vn 0.5366501 0.2903188 -0.7922889
vn 0.5073249 0.3841593 -0.7713903
vn 0.5073249 0.3841593 -0.7713903
vn 0.1456482 -0.004887521 -0.9893243
vn 0.1456482 -0.004887521 -0.9893243
vn -0.0009775162 -0.02443761 -0.9997009
vn -0.0009775162 -0.02443761 -0.9997009
vn -0.9999872 -0.002932549 0.004112292
vn -0.9999872 -0.002932549 0.004112292
vn -0.9999872 -0.002932549 0.004112292
vn -0.9999872 -0.002932549 0.004112292
vn -0.4506296 0.1710633 -0.876168
vn -0.2903188 0.05962777 -0.9550704
vn -0.2903188 0.05962777 -0.9550704
vn -0.4506296 0.1710633 -0.876168
vn -0.5366501 0.2903188 -0.7922889
vn -0.5366501 0.2903188 -0.7922889
vn -0.5073249 0.3841593 -0.7713903
vn -0.5073249 0.3841593 -0.7713903
vn -0.1456481 -0.004887521 -0.9893244
vn -0.1456481 -0.004887521 -0.9893244
vn -0.0009775162 -0.02443761 -0.9997009
vn -0.0009775162 -0.02443761 -0.9997009
vn 0.01075256 0.0009775162 0.9999417
vn 0.01075256 0.0009775162 0.9999417
vn 0.01075256 0.0009775162 0.9999417
vn 0.01075256 0.0009775162 0.9999417
vn -0.0009775162 0.0009775162 0.999999
vn -0.0009775162 0.0009775162 0.999999
vn -0.0009775162 0.0009775162 0.999999
vn -0.0009775162 0.0009775162 0.999999
vn 0.006842554 -0.07917792 0.996837
vn 0.006842554 -0.07917792 0.996837
vn 0.006842554 -0.07917792 0.996837
vn 0.006842554 -0.07917792 0.996837
vn 0.006842554 -0.07917792 0.996837
vn 0.006842554 -0.07917792 0.996837
vn -0.01075256 0.0009775162 0.9999417
vn -0.01075256 0.0009775162 0.9999417
vn -0.01075256 0.0009775162 0.9999417
vn -0.01075256 0.0009775162 0.9999417
vn -0.0009775162 0.0009775162 0.999999
vn -0.0009775162 0.0009775162 0.999999
vn -0.0009775162 0.0009775162 0.999999
vn -0.0009775162 0.0009775162 0.999999
vn -0.006842494 -0.07917792 0.996837
vn -0.006842494 -0.07917792 0.996837
vn -0.006842494 -0.07917792 0.996837
vn -0.006842494 -0.07917792 0.996837
vn -0.006842494 -0.07917792 0.996837
vn -0.006842494 -0.07917792 0.996837
g model_car_111_matte_tile_LOD1_0
f 3/3/3 2/2/2 1/1/1
f 4/4/4 3/3/3 1/1/1
f 7/7/7 6/6/6 5/5/5
f 8/8/8 7/7/7 5/5/5
f 11/11/11 10/10/10 9/9/9
f 12/12/12 11/11/11 9/9/9
f 10/10/10 13/13/13 9/9/9
f 13/13/13 14/14/14 9/9/9
f 14/14/14 15/15/15 9/9/9
f 15/15/15 16/16/16 9/9/9
f 17/17/17 12/12/12 9/9/9
f 16/16/16 17/17/17 9/9/9
f 11/11/11 12/12/12 18/18/18
f 12/12/12 17/17/17 18/18/18
f 19/19/19 11/11/11 18/18/18
f 20/20/20 19/19/19 18/18/18
f 21/21/21 20/20/20 18/18/18
f 17/17/17 22/22/22 18/18/18
f 23/23/23 21/21/21 18/18/18
f 22/22/22 23/23/23 18/18/18
f 21/21/21 23/23/23 24/24/24
f 23/23/23 25/25/25 24/24/24
f 26/26/26 20/20/20 21/21/21
f 24/24/24 26/26/26 21/21/21
f 27/27/27 26/26/26 24/24/24
f 28/28/28 27/27/27 24/24/24
f 31/31/31 30/30/30 29/29/29
f 32/32/32 31/31/31 29/29/29
f 35/35/35 34/34/34 33/33/33
f 36/36/36 35/35/35 33/33/33
f 39/39/39 38/38/38 37/37/37
f 40/40/40 39/39/39 37/37/37
f 41/41/41 40/40/40 37/37/37
f 42/42/42 41/41/41 37/37/37
f 43/43/43 42/42/42 37/37/37
f 44/44/44 43/43/43 37/37/37
f 45/45/45 44/44/44 37/37/37
f 38/38/38 45/45/45 37/37/37
f 38/38/38 39/39/39 46/46/46
f 45/45/45 38/38/38 46/46/46
f 39/39/39 47/47/47 46/46/46
f 47/47/47 48/48/48 46/46/46
f 48/48/48 49/49/49 46/46/46
f 50/50/50 45/45/45 46/46/46
f 51/51/51 50/50/50 46/46/46
f 49/49/49 51/51/51 46/46/46
f 51/51/51 49/49/49 52/52/52
f 53/53/53 51/51/51 52/52/52
f 54/54/54 52/52/52 49/49/49
f 48/48/48 54/54/54 49/49/49
f 54/54/54 55/55/55 52/52/52
f 55/55/55 56/56/56 52/52/52
f 59/59/59 58/58/58 57/57/57
f 60/60/60 59/59/59 57/57/57
f 63/63/63 62/62/62 61/61/61
f 64/64/64 63/63/63 61/61/61
f 61/61/61 62/62/62 65/65/65
f 62/62/62 66/66/66 65/65/65
f 65/65/65 66/66/66 67/67/67
f 68/68/68 65/65/65 67/67/67
f 69/69/69 63/63/63 64/64/64
f 70/70/70 69/69/69 64/64/64
f 70/70/70 71/71/71 69/69/69
f 71/71/71 72/72/72 69/69/69
f 75/75/75 74/74/74 73/73/73
f 76/76/76 75/75/75 73/73/73
f 79/79/79 78/78/78 77/77/77
f 80/80/80 79/79/79 77/77/77
f 80/80/80 77/77/77 81/81/81
f 82/82/82 80/80/80 81/81/81
f 82/82/82 81/81/81 83/83/83
f 81/81/81 84/84/84 83/83/83
f 79/79/79 85/85/85 78/78/78
f 85/85/85 86/86/86 78/78/78
f 87/87/87 86/86/86 85/85/85
f 88/88/88 87/87/87 85/85/85
f 91/91/91 90/90/90 89/89/89
f 92/92/92 91/91/91 89/89/89
f 95/95/95 94/94/94 93/93/93
f 96/96/96 95/95/95 93/93/93
f 99/99/99 98/98/98 97/97/97
f 100/100/100 99/99/99 97/97/97
f 97/97/97 98/98/98 101/101/101
f 98/98/98 102/102/102 101/101/101
f 105/105/105 104/104/104 103/103/103
f 106/106/106 105/105/105 103/103/103
f 109/109/109 108/108/108 107/107/107
f 110/110/110 109/109/109 107/107/107
f 113/113/113 112/112/112 111/111/111
f 114/114/114 113/113/113 111/111/111
f 114/114/114 111/111/111 115/115/115
f 116/116/116 114/114/114 115/115/115
