g Tailllights_60
v 0.6597 0.8739994 -2.289001
v 0.7115 0.7250994 -2.296
v 0.6654 0.8668994 -2.296
v 0.71 0.7180994 -2.289
v 0.6654 0.8668994 -2.296
v 0.7754 0.7250994 -2.296
v 0.7294 0.8668994 -2.296
v 0.7115 0.7250994 -2.296
v 0.7294 0.8668994 -2.296
v 0.7811 0.7180994 -2.289
v 0.7308 0.8739994 -2.289001
v 0.7754 0.7250994 -2.296
v 0.7115 0.7250994 -2.296
v 0.7811 0.7180994 -2.289
v 0.7754 0.7250994 -2.296
v 0.71 0.7180994 -2.289
v 0.6654 0.8668994 -2.296
v 0.7294 0.8668994 -2.296
v 0.6597 0.8739994 -2.289001
v 0.7308 0.8739994 -2.289001
v 0.5631 0.8739994 -2.289001
v 0.6148 0.7250994 -2.296
v 0.5688 0.8668994 -2.296
v 0.6134 0.7180994 -2.289
v 0.5688 0.8668994 -2.296
v 0.6788 0.7250994 -2.296
v 0.6328 0.8668994 -2.296
v 0.6148 0.7250994 -2.296
v 0.6328 0.8668994 -2.296
v 0.6845 0.7180994 -2.289
v 0.6342 0.8739994 -2.289001
v 0.6788 0.7250994 -2.296
v 0.6148 0.7250994 -2.296
v 0.6845 0.7180994 -2.289
v 0.6788 0.7250994 -2.296
v 0.6134 0.7180994 -2.289
v 0.6328 0.8668994 -2.296
v 0.5631 0.8739994 -2.289001
v 0.5688 0.8668994 -2.296
v 0.6342 0.8739994 -2.289001
v 0.4665 0.8739994 -2.289001
v 0.5182 0.7250994 -2.296
v 0.4722 0.8668994 -2.296
v 0.5168 0.7180994 -2.289
v 0.4722 0.8668994 -2.296
v 0.5822 0.7250994 -2.296
v 0.5361 0.8668994 -2.296
v 0.5182 0.7250994 -2.296
v 0.5361 0.8668994 -2.296
v 0.5879 0.7180994 -2.289
v 0.5376 0.8739994 -2.289001
v 0.5822 0.7250994 -2.296
v 0.5182 0.7250994 -2.296
v 0.5879 0.7180994 -2.289
v 0.5822 0.7250994 -2.296
v 0.5168 0.7180994 -2.289
v 0.5361 0.8668994 -2.296
v 0.4665 0.8739994 -2.289001
v 0.4722 0.8668994 -2.296
v 0.5376 0.8739994 -2.289001
v -0.6597 0.8739994 -2.289001
v -0.6654 0.8668994 -2.296
v -0.7115 0.7250994 -2.296
v -0.71 0.7180994 -2.289
v -0.6654 0.8668994 -2.296
v -0.7294 0.8668994 -2.296
v -0.7754 0.7250994 -2.296
v -0.7115 0.7250994 -2.296
v -0.7294 0.8668994 -2.296
v -0.7308 0.8739994 -2.289001
v -0.7811 0.7180994 -2.289
v -0.7754 0.7250994 -2.296
v -0.7115 0.7250994 -2.296
v -0.7754 0.7250994 -2.296
v -0.7811 0.7180994 -2.289
v -0.71 0.7180994 -2.289
v -0.7294 0.8668994 -2.296
v -0.6654 0.8668994 -2.296
v -0.6597 0.8739994 -2.289001
v -0.7308 0.8739994 -2.289001
v -0.5631 0.8739994 -2.289001
v -0.5688 0.8668994 -2.296
v -0.6148 0.7250994 -2.296
v -0.6134 0.7180994 -2.289
v -0.5688 0.8668994 -2.296
v -0.6327 0.8668994 -2.296
v -0.6788 0.7250994 -2.296
v -0.6148 0.7250994 -2.296
v -0.6327 0.8668994 -2.296
v -0.6342 0.8739994 -2.289001
v -0.6845 0.7180994 -2.289
v -0.6788 0.7250994 -2.296
v -0.6148 0.7250994 -2.296
v -0.6788 0.7250994 -2.296
v -0.6845 0.7180994 -2.289
v -0.6134 0.7180994 -2.289
v -0.6327 0.8668994 -2.296
v -0.5688 0.8668994 -2.296
v -0.5631 0.8739994 -2.289001
v -0.6342 0.8739994 -2.289001
v -0.4665 0.8739994 -2.289001
v -0.4722 0.8668994 -2.296
v -0.5182 0.7250994 -2.296
v -0.5168 0.7180994 -2.289
v -0.4722 0.8668994 -2.296
v -0.5361 0.8668994 -2.296
v -0.5822 0.7250994 -2.296
v -0.5182 0.7250994 -2.296
v -0.5361 0.8668994 -2.296
v -0.5376 0.8739994 -2.289001
v -0.5879 0.7180994 -2.289
v -0.5822 0.7250994 -2.296
v -0.5182 0.7250994 -2.296
v -0.5822 0.7250994 -2.296
v -0.5879 0.7180994 -2.289
v -0.5168 0.7180994 -2.289
v -0.5361 0.8668994 -2.296
v -0.4722 0.8668994 -2.296
v -0.4665 0.8739994 -2.289001
v -0.5376 0.8739994 -2.289001
vt 0.2813 0.7333
vt 0.1709 0.3836
vt 0.2689 0.7233
vt 0.1807 0.364
vt 0.2689 0.7233
vt 0.0194 0.3839
vt 0.121 0.722
vt 0.1709 0.3836
vt 0.121 0.722
vt 0.0043 0.364
vt 0.1114 0.7335
vt 0.0194 0.3839
vt 0.1709 0.3836
vt 0.0043 0.364
vt 0.0194 0.3839
vt 0.1807 0.364
vt 0.2689 0.7233
vt 0.121 0.722
vt 0.2813 0.7333
vt 0.1114 0.7335
vt 0.2819 0.7333
vt 0.1715 0.3836
vt 0.2695 0.7233
vt 0.1809 0.364
vt 0.2695 0.7233
vt 0.0197 0.3839
vt 0.1191 0.722
vt 0.1715 0.3836
vt 0.1191 0.722
vt 0.0046 0.364
vt 0.1101 0.7335
vt 0.0197 0.3839
vt 0.1715 0.3836
vt 0.0046 0.364
vt 0.0197 0.3839
vt 0.1809 0.364
vt 0.1191 0.722
vt 0.2819 0.7333
vt 0.2695 0.7233
vt 0.1101 0.7335
vt 0.2825 0.7333
vt 0.1725 0.3836
vt 0.268 0.7233
vt 0.1825 0.364
vt 0.268 0.7233
vt 0.0207 0.3839
vt 0.1201 0.722
vt 0.1725 0.3836
vt 0.1201 0.722
vt 0.0034 0.364
vt 0.1105 0.7335
vt 0.0207 0.3839
vt 0.1725 0.3836
vt 0.0034 0.364
vt 0.0207 0.3839
vt 0.1825 0.364
vt 0.1201 0.722
vt 0.2825 0.7333
vt 0.268 0.7233
vt 0.1105 0.7335
vt 0.2813 0.7333
vt 0.2689 0.7233
vt 0.1709 0.3836
vt 0.1807 0.364
vt 0.2689 0.7233
vt 0.121 0.722
vt 0.0194 0.3839
vt 0.1709 0.3836
vt 0.121 0.722
vt 0.1114 0.7335
vt 0.0043 0.364
vt 0.0194 0.3839
vt 0.1709 0.3836
vt 0.0194 0.3839
vt 0.0043 0.364
vt 0.1807 0.364
vt 0.121 0.722
vt 0.2689 0.7233
vt 0.2813 0.7333
vt 0.1114 0.7335
vt 0.2819 0.7333
vt 0.2695 0.7233
vt 0.1715 0.3836
vt 0.1809 0.364
vt 0.2695 0.7233
vt 0.1191 0.722
vt 0.0197 0.3839
vt 0.1715 0.3836
vt 0.1191 0.722
vt 0.1101 0.7335
vt 0.0046 0.364
vt 0.0197 0.3839
vt 0.1715 0.3836
vt 0.0197 0.3839
vt 0.0046 0.364
vt 0.1809 0.364
vt 0.1191 0.722
vt 0.2695 0.7233
vt 0.2819 0.7333
vt 0.1101 0.7335
vt 0.2825 0.7333
vt 0.268 0.7233
vt 0.1725 0.3836
vt 0.1825 0.364
vt 0.268 0.7233
vt 0.1201 0.722
vt 0.0207 0.3839
vt 0.1725 0.3836
vt 0.1201 0.722
vt 0.1105 0.7335
vt 0.0034 0.364
vt 0.0207 0.3839
vt 0.1725 0.3836
vt 0.0207 0.3839
vt 0.0034 0.364
vt 0.1825 0.364
vt 0.1201 0.722
vt 0.268 0.7233
vt 0.2825 0.7333
vt 0.1105 0.7335
vn -0.8636846 -0.2808 -0.4185693
vn -0.8636846 -0.2808 -0.4185693
vn -0.8636846 -0.2808 -0.4185693
vn -0.8474584 -0.2734256 -0.4550304
vn 0 0 -1
vn 0 0 -1
vn 0 0 -1
vn 0 0 -1
vn 0.8505839 0.2744404 -0.4485417
vn 0.8505839 0.2744404 -0.4485417
vn 0.8505839 0.2744404 -0.4485417
vn 0.8621905 0.2796963 -0.4223714
vn 0 -0.707106 -0.7071076
vn 0 -0.7071047 -0.7071088
vn 0 -0.7071046 -0.707109
vn 0 -0.7071061 -0.7071074
vn 0 0.7020216 -0.7121556
vn 0 0.7020261 -0.7121513
vn 0 0.7020223 -0.712155
vn 0 0.7020264 -0.7121509
vn -0.8636093 -0.2801665 -0.4191488
vn -0.8636093 -0.2801665 -0.4191488
vn -0.8636093 -0.2801665 -0.4191488
vn -0.8521063 -0.2749245 -0.4453441
vn 0 0 -1
vn 0 0 -1
vn 0 0 -1
vn 0 0 -1
vn 0.8505839 0.27444 -0.4485417
vn 0.8505839 0.27444 -0.4485417
vn 0.8505839 0.27444 -0.4485417
vn 0.8621905 0.2796963 -0.4223714
vn 0 -0.7071055 -0.707108
vn 0 -0.7070997 -0.7071139
vn 0 -0.7070987 -0.7071149
vn 0 -0.7071061 -0.7071074
vn 0 0.7020261 -0.7121512
vn 0 0.7020229 -0.7121543
vn 0 0.7020224 -0.7121549
vn 0 0.7020264 -0.7121509
vn -0.8636095 -0.2801657 -0.4191489
vn -0.8636095 -0.2801657 -0.4191489
vn -0.8636095 -0.2801657 -0.4191489
vn -0.852106 -0.2749254 -0.4453439
vn 0 0 -1
vn 0 0 -1
vn 0 0 -1
vn 0 0 -1
vn 0.8459217 0.272936 -0.458173
vn 0.8459217 0.272936 -0.458173
vn 0.8459217 0.272936 -0.458173
vn 0.8622651 0.2803288 -0.4217995
vn 0 -0.7071055 -0.7071081
vn 0 -0.7070994 -0.7071142
vn 0 -0.7070983 -0.7071152
vn 0 -0.7071061 -0.7071074
vn 0 0.7020263 -0.712151
vn 0 0.7020258 -0.7121515
vn 0 0.7020258 -0.7121516
vn 0 0.7020264 -0.7121509
vn 0.8636846 -0.2808 -0.4185693
vn 0.8636846 -0.2808 -0.4185693
vn 0.8636846 -0.2808 -0.4185693
vn 0.8474584 -0.2734256 -0.4550304
vn 0 0 -1
vn 0 0 -1
vn 0 0 -1
vn 0 0 -1
vn -0.8505839 0.2744404 -0.4485417
vn -0.8505839 0.2744404 -0.4485417
vn -0.8505839 0.2744404 -0.4485417
vn -0.8621905 0.2796963 -0.4223714
vn 0 -0.7071046 -0.707109
vn 0 -0.7071046 -0.707109
vn 0 -0.7071046 -0.707109
vn 0 -0.7071061 -0.7071074
vn 0 0.7020224 -0.7121549
vn 0 0.7020224 -0.7121549
vn 0 0.7020224 -0.7121549
vn 0 0.7020264 -0.7121509
vn 0.8636093 -0.2801665 -0.4191488
vn 0.8636093 -0.2801665 -0.4191488
vn 0.8636093 -0.2801665 -0.4191488
vn 0.8521063 -0.2749245 -0.4453441
vn 0 0 -1
vn 0 0 -1
vn 0 0 -1
vn 0 0 -1
vn -0.8459241 0.2729357 -0.4581685
vn -0.8459241 0.2729357 -0.4581685
vn -0.8459241 0.2729357 -0.4581685
vn -0.8622651 0.2803288 -0.4217995
vn 0 -0.7070987 -0.7071149
vn 0 -0.7070987 -0.7071149
vn 0 -0.7070987 -0.7071149
vn 0 -0.7071061 -0.7071074
vn 0 0.7020268 -0.7121505
vn 0 0.7020268 -0.7121505
vn 0 0.7020268 -0.7121505
vn 0 0.7020264 -0.7121509
vn 0.8636095 -0.2801657 -0.4191489
vn 0.8636095 -0.2801657 -0.4191489
vn 0.8636095 -0.2801657 -0.4191489
vn 0.852106 -0.2749254 -0.4453439
vn 0 0 -1
vn 0 0 -1
vn 0 0 -1
vn 0 0 -1
vn -0.8459217 0.272936 -0.458173
vn -0.8459217 0.272936 -0.458173
vn -0.8459217 0.272936 -0.458173
vn -0.8622651 0.2803288 -0.4217995
vn 0 -0.7070983 -0.7071152
vn 0 -0.7070983 -0.7071152
vn 0 -0.7070983 -0.7071152
vn 0 -0.7071061 -0.7071074
vn 0 0.7020258 -0.7121516
vn 0 0.7020258 -0.7121516
vn 0 0.7020258 -0.7121516
vn 0 0.7020264 -0.7121509
g Tailllights_60_0
f 3/3/3 2/2/2 1/1/1
f 1/1/1 2/2/2 4/4/4
f 7/7/7 6/6/6 5/5/5
f 5/5/5 6/6/6 8/8/8
f 11/11/11 10/10/10 9/9/9
f 9/9/9 10/10/10 12/12/12
f 15/15/15 14/14/14 13/13/13
f 13/13/13 14/14/14 16/16/16
f 19/19/19 18/18/18 17/17/17
f 19/19/19 20/20/20 18/18/18
f 23/23/23 22/22/22 21/21/21
f 21/21/21 22/22/22 24/24/24
f 27/27/27 26/26/26 25/25/25
f 25/25/25 26/26/26 28/28/28
f 31/31/31 30/30/30 29/29/29
f 29/29/29 30/30/30 32/32/32
f 35/35/35 34/34/34 33/33/33
f 33/33/33 34/34/34 36/36/36
f 39/39/39 38/38/38 37/37/37
f 37/37/37 38/38/38 40/40/40
f 43/43/43 42/42/42 41/41/41
f 41/41/41 42/42/42 44/44/44
f 47/47/47 46/46/46 45/45/45
f 45/45/45 46/46/46 48/48/48
f 51/51/51 50/50/50 49/49/49
f 49/49/49 50/50/50 52/52/52
f 55/55/55 54/54/54 53/53/53
f 53/53/53 54/54/54 56/56/56
f 59/59/59 58/58/58 57/57/57
f 57/57/57 58/58/58 60/60/60
f 63/63/63 62/62/62 61/61/61
f 63/63/63 61/61/61 64/64/64
f 67/67/67 66/66/66 65/65/65
f 67/67/67 65/65/65 68/68/68
f 71/71/71 70/70/70 69/69/69
f 71/71/71 69/69/69 72/72/72
f 75/75/75 74/74/74 73/73/73
f 75/75/75 73/73/73 76/76/76
f 79/79/79 78/78/78 77/77/77
f 79/79/79 77/77/77 80/80/80
f 83/83/83 82/82/82 81/81/81
f 83/83/83 81/81/81 84/84/84
f 87/87/87 86/86/86 85/85/85
f 87/87/87 85/85/85 88/88/88
f 91/91/91 90/90/90 89/89/89
f 91/91/91 89/89/89 92/92/92
f 95/95/95 94/94/94 93/93/93
f 95/95/95 93/93/93 96/96/96
f 99/99/99 98/98/98 97/97/97
f 99/99/99 97/97/97 100/100/100
f 103/103/103 102/102/102 101/101/101
f 103/103/103 101/101/101 104/104/104
f 107/107/107 106/106/106 105/105/105
f 107/107/107 105/105/105 108/108/108
f 111/111/111 110/110/110 109/109/109
f 111/111/111 109/109/109 112/112/112
f 115/115/115 114/114/114 113/113/113
f 115/115/115 113/113/113 116/116/116
f 119/119/119 118/118/118 117/117/117
f 119/119/119 117/117/117 120/120/120
