g model_car_107_matte_detail_LOD1
v -0.5072377 0.5089607 2.287214
v -0.5237961 0.4213319 2.287214
v -0.6285556 0.4230868 2.24592
v -0.6086854 0.5081679 2.24592
v -0.5098878 0.3633453 2.287214
v -0.6118661 0.3633932 2.24592
v -0.5787364 0.2987354 2.24592
v -0.4822817 0.3000748 2.287214
v -0.5398336 0.2579114 2.24592
v -0.4498617 0.2566679 2.287214
v -0.3858239 0.3014142 2.31398
v -0.3598898 0.2554212 2.31398
v -0.2893693 0.3027535 2.332143
v -0.2699179 0.2541777 2.332143
v -0.1349569 0.2523109 2.350782
v -0.1446841 0.304761 2.350782
v -0.4079093 0.3632942 2.31398
v -0.4190368 0.4195737 2.31398
v -0.3059341 0.3632463 2.332143
v -0.3142774 0.4178188 2.332143
v -0.1571382 0.4151816 2.350782
v -0.1529667 0.3631727 2.350782
v 9.536743E-07 0.3630992 2.360628
v 9.536743E-07 0.3067717 2.360628
v 9.536743E-07 0.4125476 2.360628
v 9.536743E-07 0.5129213 2.360628
v -0.1521707 0.5117354 2.350782
v -0.3043422 0.5105461 2.332143
v -0.40579 0.5097534 2.31398
v 9.536743E-07 0.250441 2.360628
v 9.536743E-07 0.250441 2.360628
v 9.536743E-07 0.3067717 2.360628
v 0.1446828 0.304761 2.350782
v 0.1349587 0.2523109 2.350782
v 0.1529652 0.3631727 2.350782
v 9.536743E-07 0.3630992 2.360628
v 0.2699166 0.2541777 2.332143
v 0.289368 0.3027535 2.332143
v 0.3598884 0.2554212 2.31398
v 0.3858226 0.3014142 2.31398
v 0.4498603 0.2566679 2.287214
v 0.4822804 0.3000748 2.287214
v 0.5398322 0.2579114 2.24592
v 0.578735 0.2987354 2.24592
v 0.5098864 0.3633453 2.287214
v 0.6118647 0.3633932 2.24592
v 0.6285542 0.4230868 2.24592
v 0.5237948 0.4213319 2.287214
v 0.5072396 0.5089607 2.287214
v 0.6086873 0.5081679 2.24592
v 0.4079112 0.3632942 2.31398
v 0.4190354 0.4195737 2.31398
v 0.3059328 0.3632463 2.332143
v 0.3142792 0.4178188 2.332143
v 0.1571401 0.4151816 2.350782
v 9.536743E-07 0.4125476 2.360628
v 0.1521725 0.5117354 2.350782
v 9.536743E-07 0.5129213 2.360628
v 0.3043441 0.5105461 2.332143
v 0.4057918 0.5097534 2.31398
v -0.4969733 0.723674 1.679049
v -0.4000297 0.7320747 1.554704
v -0.2986811 0.7248344 1.627935
v -0.4246979 0.7097303 1.79671
v -0.4794464 0.7412618 1.47773
v -0.5563344 0.7384551 1.548912
v -0.5647383 0.7487739 1.478452
v -0.5502705 0.7557393 1.367603
v -0.3804983 0.7005689 1.850947
v -0.3363052 0.6902215 1.901591
v -0.247043 0.6689864 2.003083
v -0.191115 0.7211263 1.678669
v -0.1411071 0.6424801 2.111388
v -0.06452912 0.7242046 1.704801
v -0.04980546 0.6244511 2.180499
v -0.9175902 0.5747182 -0.5261155
v -0.8668248 0.5739191 -0.4625925
v -0.8633788 0.5373083 -0.4210492
v -0.8987941 0.5006655 -0.4268416
v -0.9324481 0.6482691 -0.5980074
v -0.8714727 0.6151682 -0.4971766
v -0.8797007 0.6685516 -0.5236158
v -0.8522897 0.4813259 -0.3392959
v -0.8455353 0.4590583 -0.3049546
v -0.8811424 0.4472436 -0.3290987
v -0.8842815 0.726714 -0.5467976
v -0.93965 0.7154492 -0.6480248
v -0.9366133 0.7628294 -0.661767
v -0.8863944 0.745216 -0.5433965
v -0.9320645 0.7657383 -0.6613963
v -0.8074124 0.2962676 1.024744
v -0.838343 0.4007681 1.038489
v -0.946852 0.4009088 1.038476
v -0.9098544 0.2954972 1.024753
v -0.975663 0.5018993 1.037495
v -0.8652552 0.4931055 1.037562
v -0.9912625 0.6021675 1.03644
v -0.8817849 0.6008058 1.035948
v -0.9900798 0.7064219 1.03108
v -0.8833768 0.6670141 1.033106
v -0.8815132 0.7062109 1.031022
v -0.9768106 0.7471276 1.028359
v -0.8696633 0.7471276 1.028359
v -0.9565728 0.7801934 1.02577
v -0.8565988 0.7852024 1.025636
v -0.9144223 0.7875647 1.025639
v 0.496972 0.723674 1.679049
v 0.4246966 0.7097303 1.79671
v 0.2986797 0.7320587 1.627935
v 0.4000315 0.7360864 1.554704
v 0.479445 0.7489944 1.47773
v 0.5563363 0.7384551 1.548912
v 0.5647371 0.7487739 1.478452
v 0.5502723 0.7557393 1.367603
v 0.3805002 0.7005689 1.850947
v 0.3363038 0.6902215 1.901591
v 0.2470448 0.6689864 2.003083
v 0.1911169 0.7283507 1.678669
v 0.1411058 0.6424801 2.111388
v 0.06452775 0.731429 1.704801
v 0.04980415 0.6244511 2.180499
v 0.8074144 0.2962676 1.024744
v 0.909853 0.2954972 1.024753
v 0.9468507 0.4009088 1.038476
v 0.8383416 0.4007681 1.038489
v 0.9756617 0.5018993 1.037495
v 0.8652571 0.4931055 1.037562
v 0.9912612 0.6021675 1.03644
v 0.8817835 0.6008058 1.035948
v 0.9900784 0.7064219 1.03108
v 0.8833787 0.6670141 1.033106
v 0.8815119 0.7062109 1.031022
v 0.9768093 0.7471276 1.028359
v 0.869662 0.7471276 1.028359
v 0.9565715 0.7801934 1.02577
v 0.8565974 0.7852024 1.025636
v 0.9144242 0.7875647 1.025639
v 0.9175888 0.5747182 -0.5261155
v 0.8987927 0.5006655 -0.4268416
v 0.8633775 0.5373083 -0.4210492
v 0.8668266 0.5739191 -0.4625925
v 0.9324467 0.6482691 -0.5980074
v 0.8714713 0.6151682 -0.4971766
v 0.8797026 0.6685516 -0.5236158
v 0.8522884 0.4813259 -0.3392959
v 0.845534 0.4590583 -0.3049546
v 0.8811442 0.4472436 -0.3290987
v 0.8842801 0.726714 -0.5467976
v 0.9396487 0.7154492 -0.6480248
v 0.9366119 0.7628294 -0.661767
v 0.8863931 0.745216 -0.5433965
v 0.9320631 0.7657383 -0.6613963
vn -0.304081 0.05795479 0.9508817
vn -0.3188856 -0.00866586 0.9477536
vn -0.3707017 -0.006815314 0.928727
vn -0.3707017 0.07831109 0.9254445
vn -0.3188856 -0.112298 0.9411169
vn -0.3725523 -0.1289532 0.9190081
vn -0.3799546 -0.225183 0.8971773
vn -0.3281385 -0.2066773 0.9217427
vn -0.3836557 -0.325114 0.8643548
vn -0.3077822 -0.2233324 0.9248744
vn -0.2282075 -0.112298 0.9671145
vn -0.2189547 -0.1215509 0.9681344
vn -0.1578857 -0.05493021 0.9859284
vn -0.1541846 -0.05863136 0.9863009
vn -0.09681684 -0.01976931 0.9951059
vn -0.09866738 -0.01976931 0.9949241
vn -0.2171041 -0.06233251 0.9741563
vn -0.2171041 -0.004964709 0.9761358
vn -0.1504834 -0.03272331 0.9880708
vn -0.1486329 -0.003114164 0.9888875
vn -0.09311569 -0.001263559 0.9956545
vn -0.09311569 -0.01236701 0.9955785
vn -0.0005869865 -0.003114164 0.9999949
vn -0.0005869865 -0.004964709 0.9999875
vn -0.0005869865 -0.001263559 0.999999
vn -0.0005869865 0.002437592 0.9999968
vn -0.09126508 0.006138742 0.9958077
vn -0.1449317 0.01539159 0.9893219
vn -0.2078512 0.03019619 0.9776942
vn -0.0005869865 -0.006815314 0.9999766
vn -0.0005869865 -0.006815314 0.9999766
vn -0.0005869865 -0.004964709 0.9999875
vn 0.09934396 -0.01976931 0.9948568
vn 0.09749341 -0.01976931 0.9950398
vn 0.09379226 -0.01236701 0.995515
vn -0.0005869865 -0.003114164 0.9999949
vn 0.1548612 -0.05863136 0.9861949
vn 0.1585624 -0.05493021 0.9858198
vn 0.2177807 -0.1215509 0.9683992
vn 0.2270336 -0.112298 0.9673908
vn 0.3066082 -0.2233324 0.9252644
vn 0.3288151 -0.2066773 0.9215016
vn 0.3824818 -0.325114 0.8648749
vn 0.3806311 -0.225183 0.8968905
vn 0.3177117 -0.112298 0.9415139
vn 0.3732288 -0.1289532 0.9187335
vn 0.3713783 -0.006815314 0.9284567
vn 0.3195623 -0.00866586 0.9475256
vn 0.3047577 0.05795479 0.9506651
vn 0.3695278 0.07831109 0.9259139
vn 0.2177807 -0.06233251 0.9740053
vn 0.2159301 -0.004964709 0.9763962
vn 0.1493095 -0.03272331 0.9882489
vn 0.1493095 -0.003114164 0.9887856
vn 0.09194165 -0.001263559 0.9957636
vn -0.0005869865 -0.001263559 0.999999
vn 0.09009111 0.006138742 0.9959146
vn -0.0005869865 0.002437592 0.9999968
vn 0.1437578 0.01539159 0.9894932
vn 0.2085278 0.03019619 0.9775501
vn 0.02532101 0.9961956 0.08338537
vn 0.02717161 0.9961956 0.08280075
vn 0.02347046 0.9924945 0.1200157
vn 0.03827506 0.9924945 0.116145
vn 0.06418306 0.994345 0.08460803
vn 0.05493021 0.9924945 0.109258
vn 0.08824056 0.9906439 0.1041067
vn 0.08824056 0.9924945 0.08466542
vn 0.06788421 0.9887933 0.1329643
vn 0.02902216 0.9887933 0.1464429
vn 0.001263559 0.9850922 0.1720223
vn 0.004964709 0.9869427 0.1609951
vn 0.02532101 0.9795404 0.1996482
vn 0.001263559 0.9832416 0.1823028
vn 0.03827506 0.9776899 0.2065368
vn -0.7001038 0.4428741 0.5601046
vn -0.6723452 0.503943 0.5422115
vn -0.6575406 0.5539085 0.5107109
vn -0.6519889 0.5687131 0.5014736
vn -0.8240922 0.2356098 0.5151311
vn -0.7482187 0.3429431 0.5679426
vn -0.8370463 0.1708397 0.5197761
vn -0.6057246 0.6334832 0.4814526
vn -0.5927705 0.6464372 0.4803561
vn -0.5927705 0.6464372 0.4803561
vn -0.8759083 0.1430811 0.4607737
vn -0.88146 0.1282765 0.4545034
vn -0.7722762 0.4761844 0.4205209
vn -0.894414 0.09866738 0.4362205
vn -0.5261499 0.7796785 0.3395109
vn -0.0005869865 0.1301271 -0.9914972
vn -0.0005869865 0.07275939 -0.9973494
vn -0.0005869865 0.04685134 -0.9989017
vn -0.0005869865 0.1301271 -0.9914972
vn -0.002437592 -0.01236701 -0.9999205
vn -0.0005869865 -0.01051646 -0.9999445
vn -0.002437592 -0.03087276 -0.9995204
vn -0.002437592 -0.02902216 -0.9995758
vn -0.0005869865 -0.05678076 -0.9983865
vn -0.0005869865 -0.04937851 -0.99878
vn -0.0005869865 -0.06048191 -0.9981691
vn -0.0005869865 -0.06973481 -0.9975654
vn 0.001263559 -0.07158536 -0.9974337
vn 0.001263559 -0.07158536 -0.9974337
vn 0.001263559 -0.07158536 -0.9974337
vn -0.0005869865 -0.01421762 -0.9998987
vn 0.004964709 0.994345 0.1060816
vn -0.007989287 0.9906439 0.1362379
vn 0.003114164 0.9906439 0.1364364
vn 0.001263559 0.9924945 0.1222825
vn -0.004288137 0.994345 0.1061111
vn -0.006138742 0.9906439 0.1363339
vn 0.001263559 0.994345 0.1061902
vn 0.001263559 0.9980462 0.06246709
vn -0.04129964 0.9869427 0.1556871
vn -0.01169044 0.9869427 0.1606469
vn 0.01236701 0.981391 0.1916213
vn 0.00866586 0.9832416 0.1821011
vn -0.01354104 0.9776899 0.2096164
vn 0.01051646 0.9795404 0.2009727
vn -0.02649504 0.9758393 0.216877
vn 0.001263559 0.1301271 -0.9914965
vn 0.001263559 0.1301271 -0.9914965
vn -0.0005869865 0.04685134 -0.9989017
vn -0.0005869865 0.07275939 -0.9973494
vn 0.001263559 -0.01236701 -0.9999227
vn 0.001263559 -0.01051646 -0.9999439
vn 0.003114164 -0.03087276 -0.9995185
vn 0.003114164 -0.02902216 -0.9995739
vn 0.001263559 -0.05678076 -0.9983858
vn 0.001263559 -0.04937851 -0.9987794
vn 0.001263559 -0.06048191 -0.9981685
vn -0.0005869865 -0.06973481 -0.9975654
vn -0.0005869865 -0.07158536 -0.9974343
vn -0.0005869865 -0.07158536 -0.9974343
vn -0.0005869865 -0.07158536 -0.9974343
vn 0.001263559 -0.01421762 -0.9998981
vn 0.7007804 0.4428741 0.5592579
vn 0.6508149 0.5687131 0.5029964
vn 0.6582172 0.5539085 0.5098387
vn 0.6730218 0.503943 0.5413715
vn 0.8247688 0.2356098 0.514047
vn 0.7488953 0.3429431 0.5670502
vn 0.8377228 0.1708397 0.5186851
vn 0.6064011 0.6334832 0.4806003
vn 0.5934471 0.6464372 0.4795199
vn 0.5934471 0.6464372 0.4795199
vn 0.8747343 0.1430811 0.4629985
vn 0.880286 0.1282765 0.456773
vn 0.7729528 0.4761844 0.419276
vn 0.8950906 0.09866738 0.4348304
vn 0.5268265 0.7796785 0.3384601
g model_car_107_matte_detail_LOD1_0
f 3/3/3 2/2/2 1/1/1
f 4/4/4 3/3/3 1/1/1
f 5/5/5 2/2/2 3/3/3
f 6/6/6 5/5/5 3/3/3
f 6/6/6 7/7/7 5/5/5
f 7/7/7 8/8/8 5/5/5
f 7/7/7 9/9/9 8/8/8
f 9/9/9 10/10/10 8/8/8
f 8/8/8 10/10/10 11/11/11
f 10/10/10 12/12/12 11/11/11
f 11/11/11 12/12/12 13/13/13
f 12/12/12 14/14/14 13/13/13
f 14/14/14 15/15/15 13/13/13
f 15/15/15 16/16/16 13/13/13
f 5/5/5 17/17/17 2/2/2
f 8/8/8 11/11/11 17/17/17
f 5/5/5 8/8/8 17/17/17
f 17/17/17 18/18/18 2/2/2
f 17/17/17 19/19/19 18/18/18
f 13/13/13 16/16/16 19/19/19
f 11/11/11 13/13/13 19/19/19
f 17/17/17 11/11/11 19/19/19
f 19/19/19 20/20/20 18/18/18
f 21/21/21 20/20/20 19/19/19
f 22/22/22 21/21/21 19/19/19
f 16/16/16 22/22/22 19/19/19
f 22/22/22 16/16/16 23/23/23
f 22/22/22 23/23/23 21/21/21
f 16/16/16 24/24/24 23/23/23
f 16/16/16 15/15/15 24/24/24
f 23/23/23 25/25/25 21/21/21
f 21/21/21 25/25/25 26/26/26
f 27/27/27 21/21/21 26/26/26
f 21/21/21 27/27/27 28/28/28
f 20/20/20 21/21/21 28/28/28
f 18/18/18 20/20/20 28/28/28
f 29/29/29 18/18/18 28/28/28
f 2/2/2 18/18/18 29/29/29
f 1/1/1 2/2/2 29/29/29
f 15/15/15 30/30/30 24/24/24
f 33/33/33 32/32/32 31/31/31
f 34/34/34 33/33/33 31/31/31
f 33/33/33 35/35/35 32/32/32
f 35/35/35 36/36/36 32/32/32
f 33/33/33 34/34/34 37/37/37
f 38/38/38 33/33/33 37/37/37
f 35/35/35 33/33/33 38/38/38
f 37/37/37 39/39/39 38/38/38
f 39/39/39 40/40/40 38/38/38
f 39/39/39 41/41/41 40/40/40
f 41/41/41 42/42/42 40/40/40
f 41/41/41 43/43/43 42/42/42
f 43/43/43 44/44/44 42/42/42
f 42/42/42 44/44/44 45/45/45
f 44/44/44 46/46/46 45/45/45
f 45/45/45 46/46/46 47/47/47
f 48/48/48 45/45/45 47/47/47
f 48/48/48 47/47/47 49/49/49
f 47/47/47 50/50/50 49/49/49
f 51/51/51 45/45/45 48/48/48
f 42/42/42 45/45/45 51/51/51
f 40/40/40 42/42/42 51/51/51
f 52/52/52 51/51/51 48/48/48
f 53/53/53 51/51/51 52/52/52
f 40/40/40 51/51/51 53/53/53
f 38/38/38 40/40/40 53/53/53
f 54/54/54 53/53/53 52/52/52
f 35/35/35 53/53/53 54/54/54
f 55/55/55 35/35/35 54/54/54
f 36/36/36 35/35/35 55/55/55
f 56/56/56 36/36/36 55/55/55
f 53/53/53 35/35/35 38/38/38
f 55/55/55 57/57/57 56/56/56
f 57/57/57 55/55/55 54/54/54
f 57/57/57 58/58/58 56/56/56
f 59/59/59 57/57/57 54/54/54
f 54/54/54 52/52/52 59/59/59
f 52/52/52 60/60/60 59/59/59
f 48/48/48 49/49/49 60/60/60
f 52/52/52 48/48/48 60/60/60
f 63/63/63 62/62/62 61/61/61
f 64/64/64 63/63/63 61/61/61
f 62/62/62 65/65/65 61/61/61
f 65/65/65 66/66/66 61/61/61
f 66/66/66 65/65/65 67/67/67
f 65/65/65 68/68/68 67/67/67
f 69/69/69 63/63/63 64/64/64
f 70/70/70 63/63/63 69/69/69
f 63/63/63 70/70/70 71/71/71
f 72/72/72 63/63/63 71/71/71
f 72/72/72 71/71/71 73/73/73
f 74/74/74 72/72/72 73/73/73
f 75/75/75 74/74/74 73/73/73
f 78/78/78 77/77/77 76/76/76
f 79/79/79 78/78/78 76/76/76
f 76/76/76 77/77/77 80/80/80
f 77/77/77 81/81/81 80/80/80
f 81/81/81 82/82/82 80/80/80
f 79/79/79 83/83/83 78/78/78
f 84/84/84 83/83/83 79/79/79
f 85/85/85 84/84/84 79/79/79
f 80/80/80 82/82/82 86/86/86
f 87/87/87 80/80/80 86/86/86
f 87/87/87 86/86/86 88/88/88
f 86/86/86 89/89/89 88/88/88
f 90/90/90 88/88/88 89/89/89
f 93/93/93 92/92/92 91/91/91
f 94/94/94 93/93/93 91/91/91
f 92/92/92 93/93/93 95/95/95
f 96/96/96 92/92/92 95/95/95
f 96/96/96 95/95/95 97/97/97
f 98/98/98 96/96/96 97/97/97
f 98/98/98 97/97/97 99/99/99
f 100/100/100 98/98/98 99/99/99
f 100/100/100 99/99/99 101/101/101
f 101/101/101 99/99/99 102/102/102
f 103/103/103 101/101/101 102/102/102
f 103/103/103 102/102/102 104/104/104
f 105/105/105 103/103/103 104/104/104
f 106/106/106 105/105/105 104/104/104
f 109/109/109 108/108/108 107/107/107
f 110/110/110 109/109/109 107/107/107
f 111/111/111 110/110/110 107/107/107
f 112/112/112 111/111/111 107/107/107
f 111/111/111 112/112/112 113/113/113
f 114/114/114 111/111/111 113/113/113
f 109/109/109 115/115/115 108/108/108
f 109/109/109 116/116/116 115/115/115
f 116/116/116 109/109/109 117/117/117
f 109/109/109 118/118/118 117/117/117
f 117/117/117 118/118/118 119/119/119
f 118/118/118 120/120/120 119/119/119
f 120/120/120 121/121/121 119/119/119
f 124/124/124 123/123/123 122/122/122
f 125/125/125 124/124/124 122/122/122
f 124/124/124 125/125/125 126/126/126
f 125/125/125 127/127/127 126/126/126
f 126/126/126 127/127/127 128/128/128
f 127/127/127 129/129/129 128/128/128
f 128/128/128 129/129/129 130/130/130
f 129/129/129 131/131/131 130/130/130
f 130/130/130 131/131/131 132/132/132
f 130/130/130 132/132/132 133/133/133
f 132/132/132 134/134/134 133/133/133
f 133/133/133 134/134/134 135/135/135
f 134/134/134 136/136/136 135/135/135
f 136/136/136 137/137/137 135/135/135
f 140/140/140 139/139/139 138/138/138
f 141/141/141 140/140/140 138/138/138
f 141/141/141 138/138/138 142/142/142
f 143/143/143 141/141/141 142/142/142
f 144/144/144 143/143/143 142/142/142
f 145/145/145 139/139/139 140/140/140
f 145/145/145 146/146/146 139/139/139
f 146/146/146 147/147/147 139/139/139
f 144/144/144 142/142/142 148/148/148
f 142/142/142 149/149/149 148/148/148
f 148/148/148 149/149/149 150/150/150
f 151/151/151 148/148/148 150/150/150
f 150/150/150 152/152/152 151/151/151
