g model_car_107_glass_LOD1
v -0.1787835 1.178055 0.5712239
v -0.1877663 1.099289 0.7504715
v -0.3715131 1.091634 0.7272211
v -0.3598489 1.168305 0.5671269
v -0.2029163 0.9448008 1.07626
v -0.3985769 0.935157 1.030519
v -0.2142469 0.8610465 1.25194
v -0.4085606 0.8564506 1.186149
v -0.3512933 0.8079665 1.302267
v -0.2599717 0.8082659 1.339249
v -0.5301917 0.8438697 1.107845
v -0.5121326 0.8055438 1.197913
v -0.4398585 0.806791 1.251099
v -0.5706938 0.804939 1.141727
v -0.513174 0.9231529 0.9785994
v -0.6453126 0.8039631 1.055609
v -0.6293798 0.8319405 1.016754
v -0.723729 0.807795 0.9269692
v -0.6091787 0.9113982 0.910943
v -0.4816204 1.082935 0.700151
v -0.5649443 1.075056 0.6676496
v -0.6903139 0.9073636 0.8202731
v -0.6127269 1.063099 0.6441527
v -0.5339645 1.134472 0.5688481
v -0.498872 1.146189 0.5665595
v -0.4316614 1.160067 0.5668338
v -0.5594568 1.119736 0.5792869
v -0.5819902 1.103931 0.5979416
v -3.576279E-07 0.8089206 1.374532
v -0.1295604 0.8088614 1.370048
v -3.576279E-07 0.8748994 1.266158
v -0.1640231 0.8076017 1.367105
v -3.576279E-07 0.9519596 1.100137
v -3.576279E-07 1.103336 0.7670934
v -3.576279E-07 1.181983 0.5726706
v 0.1295598 0.8088614 1.370048
v 0.1640224 0.8076017 1.367105
v 0.2142463 0.8610465 1.25194
v 0.2029157 0.9448008 1.07626
v 0.3985763 0.935157 1.030519
v 0.4085599 0.8564506 1.186149
v 0.3715156 1.091634 0.7272211
v 0.1877656 1.099289 0.7504715
v 0.1787859 1.178055 0.5712239
v 0.3598482 1.168305 0.5671269
v 0.3512926 0.8079665 1.302267
v 0.259971 0.8082659 1.339249
v 0.5301911 0.8438697 1.107845
v 0.5121319 0.8055438 1.197913
v 0.4398579 0.806791 1.251099
v 0.5706932 0.804939 1.141727
v 0.5131733 0.9231529 0.9785994
v 0.6453119 0.8039631 1.055609
v 0.6293792 0.8319405 1.016754
v 0.7237283 0.807795 0.9269692
v 0.609178 0.9113982 0.910943
v 0.4816197 1.082935 0.700151
v 0.5649437 1.075056 0.6676496
v 0.6903163 0.9073636 0.8202731
v 0.6127262 1.063099 0.6441527
v 0.5339638 1.134472 0.5688481
v 0.4988713 1.146189 0.5665595
v 0.4316608 1.160067 0.5668338
v 0.5594561 1.119736 0.5792869
v 0.5819926 1.103931 0.5979416
v -0.6339446 1.073207 0.3727822
v -0.6912711 0.9647556 0.5139752
v -0.6956238 0.9651703 0.1648586
v -0.6377141 1.073641 0.130686
v -0.6949534 0.9697132 -0.09773797
v -0.7395557 0.8743882 -0.09296125
v -0.7398986 0.8627831 0.07054394
v -0.7395495 0.8496909 0.2514753
v -0.6411688 1.067576 -0.1024804
v -0.7427828 0.8407143 0.5361595
v -0.6338572 1.074464 0.5508139
v -0.7456668 0.84039 0.6897433
v -0.6930608 0.9600601 0.6394508
v -0.6427996 1.057184 0.5642022
v -0.6397159 1.059442 0.5651128
v -0.6338759 1.074539 0.5574706
v -0.6925121 0.9624141 0.651377
v -0.6880565 0.9653419 -0.2640462
v -0.6421198 1.054649 -0.2781642
v -0.738218 0.8848302 -0.2543525
v -0.8504767 0.6697728 2.112962
v -0.8741388 0.6191748 2.101422
v -0.9160627 0.6565591 2.038006
v -0.8905453 0.7134429 2.050459
v -0.8067225 0.6263742 2.165406
v -0.8253397 0.5886064 2.153719
v -0.7610071 0.5943528 2.199329
v -0.7761728 0.5676227 2.192984
v -0.9466279 0.6906568 1.979738
v -0.9241725 0.7464775 1.984331
v -0.9639357 0.738586 1.902594
v -0.9501761 0.778583 1.901409
v -0.8572083 0.783263 1.96026
v -0.9047508 0.8098186 1.867769
v -0.8024634 0.7643371 1.904508
v -0.7592549 0.7267783 1.986024
v -0.8187016 0.7493085 2.035858
v -0.8754389 0.801662 1.825116
v -0.720664 0.6012216 2.202815
v -0.7481986 0.651168 2.160853
v -0.6871211 0.588226 2.203441
v -0.7039674 0.6381693 2.13239
v -0.7821218 0.7022588 2.102264
v -0.7265912 0.6833889 2.061749
v -0.9626386 0.780778 1.842692
v -0.6913241 0.5655648 2.225697
v -0.7116407 0.5578167 2.226948
v -0.7313804 0.5546084 2.221703
v -0.9391822 0.8103393 1.803443
v -0.9295228 0.8136069 1.80035
v -0.7073846 0.450709 2.28651
v -0.7549084 0.4703178 2.255106
v -0.7349349 0.4894027 2.25157
v -0.6842558 0.4650609 2.284221
v -0.7797803 0.5036393 2.220113
v -0.7854798 0.4863471 2.228055
v -0.7908958 0.5024794 2.212568
v -0.7973624 0.4963962 2.209113
v -0.6760244 0.4385552 2.303958
v -0.661716 0.4462284 2.302386
v -0.6747865 0.4219927 2.296362
v -0.7125854 0.4279979 2.272875
v -0.7897422 0.462261 2.218769
v -0.799018 0.4873417 2.209487
v -0.7556412 0.4415578 2.24394
v -0.657697 0.4353375 2.305467
v -0.6631004 0.4268723 2.303752
v 0.6339439 1.073207 0.3727822
v 0.6377134 1.073641 0.130686
v 0.6956231 0.9651703 0.1648586
v 0.6912705 0.9647556 0.5139752
v 0.6949527 0.9697132 -0.09773797
v 0.739555 0.8743882 -0.09296125
v 0.7399011 0.8627831 0.07054394
v 0.7395487 0.8496909 0.2514753
v 0.6411681 1.067576 -0.1024804
v 0.7427852 0.8407143 0.5361595
v 0.6338565 1.074464 0.5508139
v 0.7456661 0.84039 0.6897433
v 0.6930602 0.9600601 0.6394508
v 0.6427988 1.057184 0.5642022
v 0.6397152 1.059442 0.5651128
v 0.6338784 1.074539 0.5574706
v 0.6925114 0.9624141 0.651377
v 0.6880559 0.9653419 -0.2640462
v 0.6421192 1.054649 -0.2781642
v 0.7382174 0.8848302 -0.2543525
v 0.850476 0.6697728 2.112962
v 0.8905478 0.7134429 2.050459
v 0.916062 0.6565591 2.038006
v 0.8741381 0.6191748 2.101422
v 0.8067218 0.6263742 2.165406
v 0.8253391 0.5886064 2.153719
v 0.7610065 0.5943528 2.199329
v 0.7761722 0.5676227 2.192984
v 0.9466304 0.6906568 1.979738
v 0.9241718 0.7464775 1.984331
v 0.963935 0.738586 1.902594
v 0.9501786 0.778583 1.901409
v 0.8572076 0.783263 1.96026
v 0.9047501 0.8098186 1.867769
v 0.8024627 0.7643371 1.904508
v 0.7592542 0.7267783 1.986024
v 0.818701 0.7493085 2.035858
v 0.8754383 0.801662 1.825116
v 0.7206633 0.6012216 2.202815
v 0.7481979 0.651168 2.160853
v 0.6871204 0.588226 2.203441
v 0.7039667 0.6381693 2.13239
v 0.7821212 0.7022588 2.102264
v 0.7265937 0.6833889 2.061749
v 0.9626379 0.780778 1.842692
v 0.6913235 0.5655648 2.225697
v 0.71164 0.5578167 2.226948
v 0.7313797 0.5546084 2.221703
v 0.9391816 0.8103393 1.803443
v 0.9295222 0.8136069 1.80035
v 0.707384 0.450709 2.28651
v 0.6842551 0.4650609 2.284221
v 0.7349373 0.4894027 2.25157
v 0.7549109 0.4703178 2.255106
v 0.7797828 0.5036393 2.220113
v 0.7854792 0.4863471 2.228055
v 0.7908951 0.5024794 2.212568
v 0.7973648 0.4963962 2.209113
v 0.6760237 0.4385552 2.303958
v 0.6617154 0.4462284 2.302386
v 0.6747859 0.4219927 2.296362
v 0.7125847 0.4279979 2.272875
v 0.7897415 0.462261 2.218769
v 0.7990205 0.4873417 2.209487
v 0.7556405 0.4415578 2.24394
v 0.6576964 0.4353375 2.305467
v 0.6630998 0.4268723 2.303752
vn -0.05620688 0.9144621 0.400749
vn -0.07494611 0.9069665 0.4144814
vn -0.1461551 0.8901013 0.4316925
vn -0.1086766 0.8994709 0.4232512
vn -0.1068028 0.8994709 0.4237279
vn -0.2136162 0.873236 0.4379806
vn -0.125542 0.8882273 0.441918
vn -0.2604641 0.8563706 0.4458562
vn -0.2023726 0.8657402 0.4577545
vn -0.1536507 0.8769838 0.455292
vn -0.3972604 0.8132705 0.4251768
vn -0.3710254 0.8207662 0.4343767
vn -0.3223035 0.8245141 0.4650775
vn -0.4366127 0.8039009 0.4038722
vn -0.3466645 0.8245141 0.4472139
vn -0.4797128 0.7945313 0.3722844
vn -0.498452 0.7664226 0.4051445
vn -0.5602913 0.708331 0.4293492
vn -0.4665954 0.7626746 0.447902
vn -0.2492207 0.8601186 0.4450675
vn -0.3691515 0.8188923 0.4394799
vn -0.5153173 0.7345659 0.4414307
vn -0.4516039 0.777666 0.4373665
vn -0.2623381 0.8601186 0.437464
vn -0.2211118 0.8694881 0.4417013
vn -0.1611465 0.8844795 0.4378674
vn -0.264212 0.8619924 0.4326212
vn -0.2998164 0.8526228 0.4279538
vn 1.072884E-05 0.8544968 0.5194567
vn -0.0674504 0.8788577 0.4722919
vn 1.072884E-05 0.8901013 0.4557628
vn -0.099307 0.8844795 0.4558884
vn 1.072884E-05 0.9069665 0.4212027
vn 1.072884E-05 0.9144621 0.4046715
vn 1.072884E-05 0.9219579 0.3872901
vn 0.0674718 0.8788577 0.4722889
vn 0.09932846 0.8844795 0.4558837
vn 0.1255633 0.8882273 0.4419119
vn 0.1068242 0.8994709 0.4237225
vn 0.2136376 0.873236 0.4379702
vn 0.2604856 0.8563706 0.4458437
vn 0.1461765 0.8901013 0.4316853
vn 0.0749675 0.9069665 0.4144775
vn 0.05622828 0.9144621 0.400746
vn 0.1086981 0.8994709 0.4232457
vn 0.2023941 0.8657402 0.457745
vn 0.1536722 0.8769838 0.4552848
vn 0.3972817 0.8132705 0.4251569
vn 0.3710468 0.8207662 0.4343584
vn 0.3223249 0.8245141 0.4650626
vn 0.436634 0.8039009 0.4038491
vn 0.3466859 0.8245141 0.4471973
vn 0.4797342 0.7945313 0.3722569
vn 0.4984734 0.7664226 0.4051183
vn 0.5603127 0.708331 0.4293212
vn 0.4666167 0.7626746 0.4478797
vn 0.2492421 0.8601186 0.4450555
vn 0.3691729 0.8188923 0.4394619
vn 0.5153387 0.7345659 0.4414057
vn 0.4516254 0.777666 0.4373443
vn 0.2623595 0.8601186 0.4374512
vn 0.2211332 0.8694881 0.4416907
vn 0.1611678 0.8844795 0.4378596
vn 0.2642334 0.8619924 0.4326082
vn 0.2998379 0.8526228 0.4279388
vn -0.8805333 0.4739843 0
vn -0.9050331 0.4253411 0
vn -0.9032187 0.4291169 0.007394076
vn -0.8788577 0.475965 0.03265832
vn -0.8895074 0.4569207 0
vn -0.8994709 0.4366127 0.01793229
vn -0.9182101 0.3953864 0.02366024
vn -0.9275796 0.3728994 0.02328473
vn -0.8807316 0.4722171 -0.03636958
vn -0.9238318 0.382269 -0.02013198
vn -0.8769838 0.4778388 0.05068991
vn -0.9200839 0.3916386 -0.008047388
vn -0.8914129 0.4531921 0
vn -0.873236 0.4853346 0.04369486
vn -0.848875 0.5059476 0.1530628
vn -0.8432532 0.5059476 0.1814966
vn -0.8601186 0.5078216 0.04809601
vn -0.8825106 0.4702925 0
vn -0.8826056 0.4665954 -0.05741186
vn -0.8805333 0.4739843 0
vn -0.5115694 0.4665954 0.7215161
vn -0.7233223 0.1742639 0.6681593
vn -0.7757922 0.2304814 0.5873882
vn -0.5546696 0.5434261 0.630103
vn -0.4553518 0.3841428 0.8031743
vn -0.6427438 0.1142984 0.7575066
vn -0.3522863 0.3504123 0.8678166
vn -0.5246869 0.1161724 0.8433313
vn -0.8282619 0.2810773 0.484745
vn -0.6146351 0.6015176 0.5102943
vn -0.8882273 0.3185557 0.3310205
vn -0.6783482 0.6483656 0.3456382
vn 0.07684141 0.944445 0.3195608
vn -0.05808079 0.9800494 0.1900782
vn 0.4216427 0.8994709 0.1147591
vn 0.4853559 0.848875 0.2093821
vn 0.1255633 0.8863534 0.4456584
vn 0.3072346 0.9516339 0
vn 0.1049502 0.6502395 0.7524453
vn 0.1480504 0.7533051 0.6407905
vn 0.320451 0.7045832 0.6331458
vn 0.4703646 0.7720442 0.4274399
vn 0.1536722 0.8207662 0.5502071
vn 0.505969 0.802027 0.3174082
vn -0.6221307 0.7514312 0.2197831
vn -0.001863241 0.5452999 0.8382389
vn -0.2267336 0.3860168 0.894194
vn -0.4384865 0.170516 0.8824137
vn -0.382269 0.9069665 0.1768677
vn -0.1086766 0.989419 0.09612167
vn -0.4722171 0.1086766 0.8747573
vn -0.5471739 0.1405333 0.8251371
vn -0.3316731 0.5171912 0.7889906
vn -0.2548423 0.5284347 0.8098223
vn -0.5021998 0.4797128 0.7194936
vn -0.6502395 0.193003 0.734805
vn -0.5996436 0.4403605 0.6682141
vn -0.7270702 0.2211118 0.6499835
vn -0.3410427 0.05433297 0.9384763
vn -0.1311637 0.3991342 0.9074624
vn -0.4328648 -0.3373163 0.8359699
vn -0.5790306 -0.3167031 0.7512807
vn -0.7308181 -0.1424286 0.667547
vn -0.8076487 -0.01312816 0.5895178
vn -0.6408699 -0.251116 0.7254147
vn -0.1592725 -0.03748912 0.9865226
vn -0.2567163 -0.2998379 0.9188003
vn 0.8805382 0.4739753 0
vn 0.8788791 0.475965 0.03207547
vn 0.9032401 0.4291169 0.004006064
vn 0.9050369 0.4253329 0
vn 0.8895119 0.456912 0
vn 0.8994923 0.4366127 0.01682446
vn 0.9182314 0.3953864 0.02281768
vn 0.927601 0.3728994 0.02241345
vn 0.880753 0.4722171 -0.03584796
vn 0.9238532 0.382269 -0.01912223
vn 0.8770052 0.4778388 0.05031815
vn 0.9201053 0.3916386 -0.005036048
vn 0.8914173 0.4531834 0
vn 0.8732573 0.4853346 0.04326648
vn 0.8488964 0.5059476 0.1529442
vn 0.8432747 0.5059476 0.1813969
vn 0.8601399 0.5078216 0.04771279
vn 0.8825153 0.4702837 0
vn 0.882627 0.4665954 -0.05708285
vn 0.8805382 0.4739753 0
vn 0.5115908 0.4665954 0.7215009
vn 0.554691 0.5434261 0.6300842
vn 0.7758135 0.2304814 0.5873599
vn 0.7233438 0.1742639 0.6681361
vn 0.4553732 0.3841428 0.8031622
vn 0.6427652 0.1142984 0.7574884
vn 0.3523076 0.3504123 0.8678079
vn 0.5247083 0.1161724 0.843318
vn 0.8282833 0.2810773 0.4847085
vn 0.6146564 0.6015176 0.5102686
vn 0.8882487 0.3185557 0.3309629
vn 0.6783697 0.6483656 0.3455961
vn -0.07681996 0.944445 0.319566
vn 0.05810219 0.9800494 0.1900716
vn -0.4216213 0.8994709 0.1148377
vn -0.4853346 0.848875 0.2094317
vn -0.125542 0.8863534 0.4456645
vn -0.3072152 0.9516401 0
vn -0.1049288 0.6502395 0.7524483
vn -0.1480289 0.7533051 0.6407954
vn -0.3204296 0.7045832 0.6331567
vn -0.4703432 0.7720442 0.4274635
vn -0.1536507 0.8207662 0.550213
vn -0.5059476 0.802027 0.3174423
vn 0.6221521 0.7514312 0.2197225
vn 0.001884639 0.5452999 0.8382388
vn 0.226755 0.3860168 0.8941886
vn 0.4385079 0.170516 0.882403
vn 0.3822904 0.9069665 0.1768214
vn 0.1086981 0.989419 0.09609748
vn 0.4722385 0.1086766 0.8747458
vn 0.2548638 0.5284347 0.8098156
vn 0.3316945 0.5171912 0.7889816
vn 0.5471953 0.1405333 0.8251228
vn 0.5022212 0.4797128 0.7194786
vn 0.6502609 0.193003 0.734786
vn 0.599665 0.4403605 0.6681949
vn 0.7270916 0.2211118 0.6499595
vn 0.3410641 0.05433297 0.9384685
vn 0.1311851 0.3991342 0.9074593
vn 0.4328862 -0.3373163 0.8359589
vn 0.579052 -0.3167031 0.7512642
vn 0.7308394 -0.1424286 0.6675236
vn 0.8076702 -0.01312816 0.5894884
vn 0.6408913 -0.251116 0.7253958
vn 0.1592939 -0.03748912 0.9865192
vn 0.2567377 -0.2998379 0.9187943
g model_car_107_glass_LOD1_0
f 3/3/3 2/2/2 1/1/1
f 4/4/4 3/3/3 1/1/1
f 5/5/5 2/2/2 3/3/3
f 6/6/6 5/5/5 3/3/3
f 5/5/5 6/6/6 7/7/7
f 6/6/6 8/8/8 7/7/7
f 8/8/8 9/9/9 7/7/7
f 9/9/9 10/10/10 7/7/7
f 8/8/8 6/6/6 11/11/11
f 11/11/11 12/12/12 8/8/8
f 12/12/12 13/13/13 8/8/8
f 8/8/8 13/13/13 9/9/9
f 14/14/14 12/12/12 11/11/11
f 6/6/6 15/15/15 11/11/11
f 6/6/6 3/3/3 15/15/15
f 16/16/16 14/14/14 11/11/11
f 17/17/17 16/16/16 11/11/11
f 11/11/11 15/15/15 17/17/17
f 18/18/18 16/16/16 17/17/17
f 18/18/18 17/17/17 19/19/19
f 15/15/15 19/19/19 17/17/17
f 15/15/15 20/20/20 19/19/19
f 20/20/20 21/21/21 19/19/19
f 22/22/22 19/19/19 21/21/21
f 22/22/22 18/18/18 19/19/19
f 23/23/23 22/22/22 21/21/21
f 21/21/21 20/20/20 24/24/24
f 24/24/24 20/20/20 25/25/25
f 20/20/20 26/26/26 25/25/25
f 27/27/27 21/21/21 24/24/24
f 28/28/28 21/21/21 27/27/27
f 23/23/23 21/21/21 28/28/28
f 4/4/4 26/26/26 20/20/20
f 3/3/3 4/4/4 20/20/20
f 3/3/3 20/20/20 15/15/15
f 31/31/31 30/30/30 29/29/29
f 32/32/32 30/30/30 31/31/31
f 7/7/7 32/32/32 31/31/31
f 7/7/7 31/31/31 33/33/33
f 5/5/5 7/7/7 33/33/33
f 5/5/5 33/33/33 2/2/2
f 33/33/33 34/34/34 2/2/2
f 2/2/2 34/34/34 35/35/35
f 1/1/1 2/2/2 35/35/35
f 7/7/7 10/10/10 32/32/32
f 36/36/36 31/31/31 29/29/29
f 36/36/36 37/37/37 31/31/31
f 37/37/37 38/38/38 31/31/31
f 31/31/31 38/38/38 33/33/33
f 38/38/38 39/39/39 33/33/33
f 40/40/40 39/39/39 38/38/38
f 41/41/41 40/40/40 38/38/38
f 39/39/39 40/40/40 42/42/42
f 43/43/43 39/39/39 42/42/42
f 33/33/33 39/39/39 43/43/43
f 34/34/34 33/33/33 43/43/43
f 34/34/34 43/43/43 35/35/35
f 43/43/43 42/42/42 44/44/44
f 43/43/43 44/44/44 35/35/35
f 42/42/42 45/45/45 44/44/44
f 46/46/46 41/41/41 38/38/38
f 47/47/47 46/46/46 38/38/38
f 47/47/47 38/38/38 37/37/37
f 40/40/40 41/41/41 48/48/48
f 49/49/49 48/48/48 41/41/41
f 50/50/50 49/49/49 41/41/41
f 50/50/50 41/41/41 46/46/46
f 49/49/49 51/51/51 48/48/48
f 52/52/52 40/40/40 48/48/48
f 42/42/42 40/40/40 52/52/52
f 51/51/51 53/53/53 48/48/48
f 53/53/53 54/54/54 48/48/48
f 52/52/52 48/48/48 54/54/54
f 53/53/53 55/55/55 54/54/54
f 54/54/54 55/55/55 56/56/56
f 56/56/56 52/52/52 54/54/54
f 57/57/57 52/52/52 56/56/56
f 45/45/45 42/42/42 57/57/57
f 57/57/57 42/42/42 52/52/52
f 58/58/58 57/57/57 56/56/56
f 56/56/56 59/59/59 58/58/58
f 55/55/55 59/59/59 56/56/56
f 59/59/59 60/60/60 58/58/58
f 57/57/57 58/58/58 61/61/61
f 57/57/57 61/61/61 62/62/62
f 63/63/63 57/57/57 62/62/62
f 58/58/58 64/64/64 61/61/61
f 58/58/58 65/65/65 64/64/64
f 58/58/58 60/60/60 65/65/65
f 63/63/63 45/45/45 57/57/57
f 68/68/68 67/67/67 66/66/66
f 69/69/69 68/68/68 66/66/66
f 70/70/70 68/68/68 69/69/69
f 68/68/68 70/70/70 71/71/71
f 72/72/72 68/68/68 71/71/71
f 72/72/72 73/73/73 68/68/68
f 68/68/68 73/73/73 67/67/67
f 74/74/74 70/70/70 69/69/69
f 73/73/73 75/75/75 67/67/67
f 67/67/67 76/76/76 66/66/66
f 67/67/67 75/75/75 77/77/77
f 78/78/78 67/67/67 77/77/77
f 67/67/67 78/78/78 76/76/76
f 78/78/78 79/79/79 76/76/76
f 79/79/79 80/80/80 76/76/76
f 80/80/80 81/81/81 76/76/76
f 79/79/79 78/78/78 82/82/82
f 80/80/80 79/79/79 82/82/82
f 70/70/70 74/74/74 83/83/83
f 74/74/74 84/84/84 83/83/83
f 70/70/70 83/83/83 85/85/85
f 71/71/71 70/70/70 85/85/85
f 88/88/88 87/87/87 86/86/86
f 89/89/89 88/88/88 86/86/86
f 86/86/86 87/87/87 90/90/90
f 87/87/87 91/91/91 90/90/90
f 90/90/90 91/91/91 92/92/92
f 91/91/91 93/93/93 92/92/92
f 88/88/88 89/89/89 94/94/94
f 89/89/89 95/95/95 94/94/94
f 94/94/94 95/95/95 96/96/96
f 95/95/95 97/97/97 96/96/96
f 95/95/95 98/98/98 97/97/97
f 98/98/98 99/99/99 97/97/97
f 98/98/98 100/100/100 99/99/99
f 101/101/101 100/100/100 98/98/98
f 102/102/102 101/101/101 98/98/98
f 102/102/102 98/98/98 95/95/95
f 89/89/89 102/102/102 95/95/95
f 100/100/100 103/103/103 99/99/99
f 90/90/90 92/92/92 104/104/104
f 105/105/105 90/90/90 104/104/104
f 105/105/105 104/104/104 106/106/106
f 107/107/107 105/105/105 106/106/106
f 108/108/108 105/105/105 107/107/107
f 109/109/109 108/108/108 107/107/107
f 102/102/102 108/108/108 109/109/109
f 101/101/101 102/102/102 109/109/109
f 108/108/108 86/86/86 105/105/105
f 86/86/86 90/90/90 105/105/105
f 89/89/89 86/86/86 108/108/108
f 102/102/102 89/89/89 108/108/108
f 97/97/97 99/99/99 110/110/110
f 97/97/97 110/110/110 96/96/96
f 104/104/104 111/111/111 106/106/106
f 104/104/104 92/92/92 111/111/111
f 92/92/92 112/112/112 111/111/111
f 112/112/112 92/92/92 113/113/113
f 92/92/92 93/93/93 113/113/113
f 99/99/99 114/114/114 110/110/110
f 99/99/99 115/115/115 114/114/114
f 99/99/99 103/103/103 115/115/115
f 118/118/118 117/117/117 116/116/116
f 119/119/119 118/118/118 116/116/116
f 118/118/118 120/120/120 117/117/117
f 120/120/120 121/121/121 117/117/117
f 120/120/120 122/122/122 121/121/121
f 122/122/122 123/123/123 121/121/121
f 119/119/119 116/116/116 124/124/124
f 125/125/125 119/119/119 124/124/124
f 124/124/124 116/116/116 126/126/126
f 116/116/116 127/127/127 126/126/126
f 116/116/116 117/117/117 127/127/127
f 121/121/121 123/123/123 128/128/128
f 123/123/123 129/129/129 128/128/128
f 121/121/121 128/128/128 130/130/130
f 117/117/117 121/121/121 130/130/130
f 117/117/117 130/130/130 127/127/127
f 124/124/124 131/131/131 125/125/125
f 131/131/131 124/124/124 126/126/126
f 132/132/132 131/131/131 126/126/126
f 135/135/135 134/134/134 133/133/133
f 136/136/136 135/135/135 133/133/133
f 135/135/135 137/137/137 134/134/134
f 137/137/137 135/135/135 138/138/138
f 135/135/135 139/139/139 138/138/138
f 140/140/140 139/139/139 135/135/135
f 140/140/140 135/135/135 136/136/136
f 137/137/137 141/141/141 134/134/134
f 142/142/142 140/140/140 136/136/136
f 143/143/143 136/136/136 133/133/133
f 142/142/142 136/136/136 144/144/144
f 136/136/136 145/145/145 144/144/144
f 145/145/145 136/136/136 143/143/143
f 146/146/146 145/145/145 143/143/143
f 147/147/147 146/146/146 143/143/143
f 148/148/148 147/147/147 143/143/143
f 146/146/146 147/147/147 149/149/149
f 145/145/145 146/146/146 149/149/149
f 141/141/141 137/137/137 150/150/150
f 151/151/151 141/141/141 150/150/150
f 137/137/137 138/138/138 152/152/152
f 150/150/150 137/137/137 152/152/152
f 155/155/155 154/154/154 153/153/153
f 156/156/156 155/155/155 153/153/153
f 156/156/156 153/153/153 157/157/157
f 158/158/158 156/156/156 157/157/157
f 158/158/158 157/157/157 159/159/159
f 160/160/160 158/158/158 159/159/159
f 154/154/154 155/155/155 161/161/161
f 162/162/162 154/154/154 161/161/161
f 162/162/162 161/161/161 163/163/163
f 164/164/164 162/162/162 163/163/163
f 165/165/165 162/162/162 164/164/164
f 166/166/166 165/165/165 164/164/164
f 167/167/167 165/165/165 166/166/166
f 167/167/167 168/168/168 165/165/165
f 168/168/168 169/169/169 165/165/165
f 169/169/169 154/154/154 162/162/162
f 165/165/165 169/169/169 162/162/162
f 170/170/170 167/167/167 166/166/166
f 159/159/159 157/157/157 171/171/171
f 157/157/157 172/172/172 171/171/171
f 171/171/171 172/172/172 173/173/173
f 172/172/172 174/174/174 173/173/173
f 172/172/172 175/175/175 174/174/174
f 175/175/175 176/176/176 174/174/174
f 169/169/169 168/168/168 176/176/176
f 175/175/175 169/169/169 176/176/176
f 153/153/153 175/175/175 172/172/172
f 157/157/157 153/153/153 172/172/172
f 154/154/154 169/169/169 175/175/175
f 153/153/153 154/154/154 175/175/175
f 166/166/166 164/164/164 177/177/177
f 177/177/177 164/164/164 163/163/163
f 178/178/178 171/171/171 173/173/173
f 159/159/159 171/171/171 178/178/178
f 179/179/179 159/159/159 178/178/178
f 159/159/159 179/179/179 180/180/180
f 160/160/160 159/159/159 180/180/180
f 181/181/181 166/166/166 177/177/177
f 182/182/182 166/166/166 181/181/181
f 170/170/170 166/166/166 182/182/182
f 185/185/185 184/184/184 183/183/183
f 186/186/186 185/185/185 183/183/183
f 187/187/187 185/185/185 186/186/186
f 188/188/188 187/187/187 186/186/186
f 189/189/189 187/187/187 188/188/188
f 190/190/190 189/189/189 188/188/188
f 183/183/183 184/184/184 191/191/191
f 184/184/184 192/192/192 191/191/191
f 183/183/183 191/191/191 193/193/193
f 194/194/194 183/183/183 193/193/193
f 186/186/186 183/183/183 194/194/194
f 190/190/190 188/188/188 195/195/195
f 196/196/196 190/190/190 195/195/195
f 188/188/188 186/186/186 197/197/197
f 195/195/195 188/188/188 197/197/197
f 197/197/197 186/186/186 194/194/194
f 198/198/198 191/191/191 192/192/192
f 191/191/191 198/198/198 193/193/193
f 198/198/198 199/199/199 193/193/193
