g model_car_107_matte_mirror_LOD1
v -0.9524704 0.9620942 0.6981326
v -1.000712 0.9689921 0.6692691
v -0.979637 0.9173372 0.6801966
v -0.9399329 0.9142181 0.7046374
v -0.9031069 0.9122329 0.7277349
v -0.9060422 0.9550443 0.7265023
v -0.8727579 0.9451617 0.7470438
v -0.8692557 0.92976 0.7503604
v -0.9272454 0.8653721 0.7116557
v -0.9012283 0.8671914 0.7288885
v -0.8721573 0.890291 0.7477688
v -0.8677208 0.9108126 0.7501609
v -0.8818089 0.8738621 0.741819
v -0.9566917 0.8635035 0.6927992
v -1.004637 0.8916993 0.6638469
v -0.9842573 0.8696053 0.6757264
v -1.020781 0.9210211 0.6550822
v -1.035642 0.9488022 0.6473607
v -1.03402 0.9673544 0.6492373
v 0.9524702 0.9620942 0.6981326
v 0.9399328 0.9142181 0.7046374
v 0.979637 0.9173372 0.6801966
v 1.000712 0.9689921 0.6692691
v 0.9031067 0.9122329 0.7277349
v 0.906042 0.9550443 0.7265023
v 0.8727577 0.9451617 0.7470438
v 0.8692554 0.92976 0.7503604
v 0.9272453 0.8653721 0.7116557
v 0.9012281 0.8671914 0.7288885
v 0.8721572 0.890291 0.7477669
v 0.8677206 0.9108126 0.7501609
v 0.8818086 0.8738621 0.741819
v 0.9566915 0.8635035 0.6927992
v 1.004637 0.8916993 0.6638469
v 0.9842572 0.8696053 0.6757264
v 1.020781 0.9210211 0.6550822
v 1.035642 0.9488022 0.6473588
v 1.03402 0.9673544 0.6492373
vn 0.5232531 0.0229823 -0.8518674
vn 0.5179083 0.03046495 -0.8548935
vn 0.5243221 0.02832705 -0.8510487
vn 0.5296668 0.01977539 -0.8479752
vn 0.5382184 0.006947935 -0.8427768
vn 0.5328737 0.008016944 -0.8461568
vn 0.5414253 -0.005879462 -0.8407283
vn 0.5392874 0.01870644 -0.8419139
vn 0.5360805 0.01549959 -0.8440245
vn 0.5435632 0.003741086 -0.8393599
vn 0.5414253 -0.01015532 -0.8406875
vn 0.5360805 0.01870644 -0.8439595
vn 0.5467701 -0.003741562 -0.8372744
vn 0.5307358 0.02405125 -0.847196
vn 0.525391 0.03046495 -0.8503153
vn 0.5285979 0.02832705 -0.8483996
vn 0.5232531 0.04008555 -0.851234
vn 0.5189773 0.0358097 -0.8540376
vn 0.5168394 0.03260285 -0.8554614
vn -0.5232526 0.0229823 -0.8518677
vn -0.5296663 0.01977539 -0.8479756
vn -0.5243216 0.02832705 -0.8510491
vn -0.5179079 0.03046495 -0.8548938
vn -0.538218 0.006947935 -0.842777
vn -0.5328733 0.008016944 -0.8461571
vn -0.5414249 -0.005879462 -0.8407286
vn -0.539287 0.01870644 -0.8419142
vn -0.5360801 0.01549959 -0.8440248
vn -0.5435628 0.003741086 -0.8393602
vn -0.5414249 -0.01015532 -0.8406878
vn -0.5360801 0.01870644 -0.8439598
vn -0.5467696 -0.003741562 -0.8372747
vn -0.5296663 0.0251202 -0.8478341
vn -0.5253905 0.03046495 -0.8503156
vn -0.5285974 0.02832705 -0.8483999
vn -0.5232526 0.04008555 -0.8512343
vn -0.5189768 0.0358097 -0.8540379
vn -0.5168389 0.03260285 -0.8554617
g model_car_107_matte_mirror_LOD1_0
f 3/3/3 2/2/2 1/1/1
f 4/4/4 3/3/3 1/1/1
f 4/4/4 1/1/1 5/5/5
f 1/1/1 6/6/6 5/5/5
f 6/6/6 7/7/7 5/5/5
f 7/7/7 8/8/8 5/5/5
f 4/4/4 5/5/5 9/9/9
f 3/3/3 4/4/4 9/9/9
f 5/5/5 10/10/10 9/9/9
f 10/10/10 5/5/5 11/11/11
f 11/11/11 5/5/5 12/12/12
f 5/5/5 8/8/8 12/12/12
f 13/13/13 10/10/10 11/11/11
f 14/14/14 3/3/3 9/9/9
f 3/3/3 14/14/14 15/15/15
f 14/14/14 16/16/16 15/15/15
f 17/17/17 3/3/3 15/15/15
f 18/18/18 3/3/3 17/17/17
f 2/2/2 3/3/3 18/18/18
f 19/19/19 2/2/2 18/18/18
f 22/22/22 21/21/21 20/20/20
f 23/23/23 22/22/22 20/20/20
f 20/20/20 21/21/21 24/24/24
f 25/25/25 20/20/20 24/24/24
f 26/26/26 25/25/25 24/24/24
f 27/27/27 26/26/26 24/24/24
f 24/24/24 21/21/21 28/28/28
f 21/21/21 22/22/22 28/28/28
f 29/29/29 24/24/24 28/28/28
f 24/24/24 29/29/29 30/30/30
f 24/24/24 30/30/30 31/31/31
f 27/27/27 24/24/24 31/31/31
f 29/29/29 32/32/32 30/30/30
f 22/22/22 33/33/33 28/28/28
f 33/33/33 22/22/22 34/34/34
f 35/35/35 33/33/33 34/34/34
f 22/22/22 36/36/36 34/34/34
f 22/22/22 37/37/37 36/36/36
f 22/22/22 23/23/23 37/37/37
f 23/23/23 38/38/38 37/37/37
