g model_car_128_body_roof_LOD1
v 0.4696643 1.15365 -1.12406
v 0.469632 1.169481 -1.124134
v 0.3902639 1.178391 -1.130478
v 0.390368 1.162537 -1.130464
v 0.3159674 1.169319 -1.139554
v 0.315942 1.185165 -1.139559
v 0.2370113 1.174411 -1.145951
v 0.2370113 1.190255 -1.145951
v 0.1566114 1.178023 -1.149975
v 0.1566114 1.193867 -1.149975
v -7.152557E-07 1.181215 -1.15243
v -7.152557E-07 1.197057 -1.15243
v 0.2944458 1.191118 0.04646385
v 0.2944458 1.215527 0.04646385
v 0.4062629 1.212184 0.03077245
v 0.4062722 1.187784 0.03084421
v 0.183237 1.218732 0.05953133
v 0.183237 1.194322 0.05953133
v -7.152557E-07 1.223415 0.07148838
v -7.152557E-07 1.199005 0.07148838
v 0.5036567 1.184263 0.01447964
v 0.5036221 1.208635 0.01419044
v 0.6061892 1.203714 -0.0004388094
v 0.6061336 1.178809 -0.0003185272
v 0.3601978 1.257587 -0.511271
v 0.2638984 1.263661 -0.5118286
v 0.2542319 1.248083 -0.7647077
v 0.3431623 1.242315 -0.7632732
v 0.1639897 1.252396 -0.7658576
v 0.1677077 1.268223 -0.5122358
v 0.2707307 1.264191 -0.3721086
v 0.3712178 1.258018 -0.3722636
v 0.3830985 1.250908 -0.2327171
v 0.2784861 1.256796 -0.2301003
v 0.2864196 1.23881 -0.09107208
v 0.3947409 1.233997 -0.09941053
v 0.4062629 1.212184 0.03077245
v 0.2944458 1.215527 0.04646385
v 0.183237 1.218732 0.05953133
v 0.1789591 1.242863 -0.08417511
v 0.1748083 1.26144 -0.227981
v -7.152557E-07 1.266208 -0.2263175
v -7.152557E-07 1.247609 -0.0780369
v 0.1709075 1.268899 -0.371986
v -7.152557E-07 1.273623 -0.3721063
v 0.4903925 1.228438 -0.1082257
v 0.5036221 1.208635 0.01419044
v 0.4765637 1.243791 -0.2354565
v 0.4615364 1.250246 -0.3723145
v 0.576794 1.235524 -0.2383277
v 0.5588377 1.241005 -0.3722983
v 0.540525 1.240221 -0.5093784
v 0.446847 1.249705 -0.5104659
v 0.4228728 1.234636 -0.7613182
v 0.5093622 1.225291 -0.7587431
v 0.4131646 1.222672 -0.8653939
v 0.49809 1.212998 -0.8616087
v 0.4803002 1.184693 -1.039516
v 0.3972235 1.193918 -1.046054
v 0.3902639 1.178391 -1.130478
v 0.469632 1.169481 -1.124134
v 0.3218326 1.201125 -1.052512
v 0.3353907 1.230309 -0.8682142
v 0.2494333 1.235566 -0.8701068
v 0.1619744 1.239224 -0.8717704
v -7.152557E-07 1.257108 -0.7674958
v -7.152557E-07 1.243275 -0.8750927
v 0.1581962 1.209162 -1.060036
v -7.152557E-07 1.212316 -1.063994
v -7.152557E-07 1.272931 -0.5127587
v 0.2407479 1.205969 -1.056898
v -7.152557E-07 1.197057 -1.15243
v 0.1566114 1.193867 -1.149975
v 0.315942 1.185165 -1.139559
v 0.2370113 1.190255 -1.145951
v 0.5924761 1.222274 -0.1172767
v 0.6061892 1.203714 -0.0004388094
v -7.152557E-07 1.223415 0.07148838
v -0.4696635 1.15365 -1.12406
v -0.3903672 1.162537 -1.130464
v -0.3902631 1.178391 -1.130478
v -0.4696311 1.169481 -1.124134
v -0.3159666 1.169319 -1.139554
v -0.3159412 1.185165 -1.139559
v -0.2370105 1.174411 -1.145951
v -0.2370105 1.190255 -1.145951
v -0.1566129 1.178023 -1.149975
v -0.1566129 1.193867 -1.149975
v -7.152557E-07 1.181215 -1.15243
v -7.152557E-07 1.197057 -1.15243
v -0.2944472 1.191118 0.04646385
v -0.4062713 1.187784 0.03084421
v -0.4062644 1.212184 0.03077245
v -0.2944472 1.215527 0.04646385
v -0.1832362 1.218732 0.05953133
v -0.1832362 1.194322 0.05953133
v -7.152557E-07 1.223415 0.07148838
v -7.152557E-07 1.199005 0.07148838
v -0.5036559 1.184263 0.01447964
v -0.5036235 1.208635 0.01419044
v -0.6061907 1.203714 -0.0004388094
v -0.6061351 1.178809 -0.0003185272
v -0.3601993 1.257587 -0.511271
v -0.3431615 1.242315 -0.7632732
v -0.2542311 1.248083 -0.7647077
v -0.2638975 1.263661 -0.5118286
v -0.1639911 1.252396 -0.7658576
v -0.1677068 1.268223 -0.5122358
v -0.2707322 1.264191 -0.3721086
v -0.3712193 1.258018 -0.3722636
v -0.3830976 1.250908 -0.2327171
v -0.2784852 1.256796 -0.2301003
v -0.2864211 1.23881 -0.09107208
v -0.39474 1.233997 -0.09941053
v -0.4062644 1.212184 0.03077245
v -0.2944472 1.215527 0.04646385
v -0.1832362 1.218732 0.05953133
v -0.1789606 1.242863 -0.08417511
v -0.1748098 1.26144 -0.227981
v -7.152557E-07 1.266208 -0.2263175
v -7.152557E-07 1.247609 -0.0780369
v -0.1709089 1.268899 -0.371986
v -7.152557E-07 1.273623 -0.3721063
v -0.490394 1.228438 -0.1082257
v -0.5036235 1.208635 0.01419044
v -0.4765651 1.243791 -0.2354565
v -0.461538 1.250246 -0.3723145
v -0.5767932 1.235524 -0.2383277
v -0.5588368 1.241005 -0.3722983
v -0.5405241 1.240221 -0.5093784
v -0.4468461 1.249705 -0.5104659
v -0.4228719 1.234636 -0.7613182
v -0.5093637 1.225291 -0.7587431
v -0.4131638 1.222672 -0.8653939
v -0.4980892 1.212998 -0.8616087
v -0.4803017 1.184693 -1.039516
v -0.3972226 1.193918 -1.046054
v -0.3902631 1.178391 -1.130478
v -0.4696311 1.169481 -1.124134
v -0.3218318 1.201125 -1.052512
v -0.3353899 1.230309 -0.8682142
v -0.2494326 1.235566 -0.8701068
v -0.1619736 1.239224 -0.8717704
v -7.152557E-07 1.257108 -0.7674958
v -7.152557E-07 1.243275 -0.8750927
v -0.1581976 1.209162 -1.060036
v -7.152557E-07 1.212316 -1.063994
v -7.152557E-07 1.272931 -0.5127587
v -0.240747 1.205969 -1.056898
v -7.152557E-07 1.197057 -1.15243
v -0.1566129 1.193867 -1.149975
v -0.3159412 1.185165 -1.139559
v -0.2370105 1.190255 -1.145951
v -0.5924753 1.222274 -0.1172767
v -0.6061907 1.203714 -0.0004388094
v -7.152557E-07 1.223415 0.07148838
vt 0.7983817 0.8518673
vt 0.7934145 0.8483044
vt 0.7889609 0.8749529
vt 0.7938337 0.8745862
vt 0.79419 0.8967706
vt 0.7894744 0.8972631
vt 0.7950388 0.9197304
vt 0.7903651 0.9201496
vt 0.7958143 0.9429837
vt 0.7911406 0.9432876
vt 0.7969356 0.9883271
vt 0.7922304 0.9884948
vt 0.4313382 0.9049443
vt 0.4386003 0.9059084
vt 0.4421527 0.873664
vt 0.4349116 0.8726475
vt 0.435488 0.9379118
vt 0.4281945 0.937084
vt 0.4321241 0.990381
vt 0.4248621 0.9898675
vt 0.4378982 0.8443852
vt 0.4451602 0.8452026
vt 0.4445734 0.8126019
vt 0.4360538 0.816301
vt 0.6018343 0.8839127
vt 0.6023478 0.9123322
vt 0.6771376 0.9143965
vt 0.6766766 0.88801
vt 0.6775149 0.9410451
vt 0.6027565 0.9406154
vt 0.5612485 0.9108756
vt 0.5607874 0.8813243
vt 0.5196043 0.8785473
vt 0.5195624 0.9092094
vt 0.478725 0.9074907
vt 0.4801502 0.8758541
vt 0.4421527 0.873664
vt 0.4386003 0.9059084
vt 0.435488 0.9379118
vt 0.4773837 0.9387082
vt 0.519489 0.9394837
vt 0.5195729 0.9904334
vt 0.4760633 0.990622
vt 0.5616257 0.9401439
vt 0.5621811 0.990119
vt 0.4814706 0.8476547
vt 0.4451602 0.8452026
vt 0.5196252 0.851029
vt 0.5602739 0.8546338
vt 0.5196671 0.8212786
vt 0.5596347 0.8257009
vt 0.6005034 0.8302174
vt 0.601258 0.8581862
vt 0.6760478 0.8642013
vt 0.6751361 0.8382235
vt 0.7074748 0.8666954
vt 0.7063116 0.840948
vt 0.7621552 0.8452864
vt 0.7632031 0.8714215
vt 0.7889609 0.8749529
vt 0.7934145 0.8483044
vt 0.7638214 0.8944547
vt 0.708156 0.8900639
vt 0.7085542 0.9156436
vt 0.7089314 0.9414852
vt 0.6781227 0.9892073
vt 0.7098955 0.9890397
vt 0.7647854 0.9426693
vt 0.7659487 0.9888301
vt 0.6033329 0.9897732
vt 0.764272 0.9185044
vt 0.7922304 0.9884948
vt 0.7911406 0.9432876
vt 0.7894744 0.8972631
vt 0.7903651 0.9201496
vt 0.4828957 0.8170451
vt 0.4445734 0.8126019
vt 0.4321241 0.990381
vt 1.798378 0.8518673
vt 1.793829 0.8745862
vt 1.788967 0.8749529
vt 1.793421 0.8483044
vt 1.794186 0.8967706
vt 1.789481 0.8972631
vt 1.795035 0.9197304
vt 1.790371 0.9201496
vt 1.79581 0.9429837
vt 1.791136 0.9432876
vt 1.796942 0.9883271
vt 1.792237 0.9884948
vt 1.431334 0.9049443
vt 1.434907 0.8726475
vt 1.442159 0.873664
vt 1.438596 0.9059084
vt 1.435494 0.9379118
vt 1.42819 0.937084
vt 1.43212 0.990381
vt 1.424858 0.9898675
vt 1.437894 0.8443852
vt 1.445156 0.8452026
vt 1.444569 0.8126019
vt 1.43605 0.816301
vt 1.601841 0.8839127
vt 1.676683 0.88801
vt 1.677144 0.9143965
vt 1.602344 0.9123322
vt 1.677511 0.9410451
vt 1.602752 0.9406154
vt 1.561244 0.9108756
vt 1.560783 0.8813243
vt 1.519611 0.8785473
vt 1.519558 0.9092094
vt 1.478721 0.9074907
vt 1.480156 0.8758541
vt 1.442159 0.873664
vt 1.438596 0.9059084
vt 1.435494 0.9379118
vt 1.47738 0.9387082
vt 1.519485 0.9394837
vt 1.519579 0.9904334
vt 1.47607 0.990622
vt 1.561632 0.9401439
vt 1.562177 0.990119
vt 1.481466 0.8476547
vt 1.445156 0.8452026
vt 1.519632 0.851029
vt 1.56027 0.8546338
vt 1.519673 0.8212786
vt 1.559631 0.8257009
vt 1.60051 0.8302174
vt 1.601254 0.8581862
vt 1.676054 0.8642013
vt 1.675132 0.8382235
vt 1.707481 0.8666954
vt 1.706318 0.840948
vt 1.762161 0.8452864
vt 1.763199 0.8714215
vt 1.788967 0.8749529
vt 1.793421 0.8483044
vt 1.763828 0.8944547
vt 1.708162 0.8900639
vt 1.70855 0.9156436
vt 1.708927 0.9414852
vt 1.678129 0.9892073
vt 1.709891 0.9890397
vt 1.764792 0.9426693
vt 1.765955 0.9888301
vt 1.603329 0.9897732
vt 1.764268 0.9185044
vt 1.792237 0.9884948
vt 1.791136 0.9432876
vt 1.789481 0.8972631
vt 1.790371 0.9201496
vt 1.482892 0.8170451
vt 1.444569 0.8126019
vt 1.43212 0.990381
vn 0.07930635 -0.002998158 -0.9968458
vn 0.07930635 -0.002998158 -0.9968458
vn 0.100768 -0.001805842 -0.9949083
vn 0.0983834 -0.001805842 -0.9951469
vn 0.1019603 -0.0006135255 -0.9947883
vn 0.09957571 -0.0006135255 -0.9950298
vn 0.06619088 -0.0006135255 -0.9978068
vn 0.06499857 -0.0006135255 -0.9978852
vn 0.02803679 0.0005787909 -0.9996067
vn 0.02684447 0.0005787909 -0.9996395
vn -0.0005787909 0.0005787909 -0.9999996
vn -0.0005787909 0.0005787909 -0.9999996
vn 0.1281913 0.0005787909 0.9917493
vn 0.126999 0.0005787909 0.9919026
vn 0.1520376 0.00415574 0.9883659
vn 0.1520376 0.00415574 0.9883659
vn 0.08407561 0.0005787909 0.9964592
vn 0.08526793 0.0005787909 0.9963579
vn -0.0005787909 0.0005787909 0.9999996
vn -0.0005787909 0.0005787909 0.9999996
vn 0.1544222 0.007732689 0.9879747
vn 0.1544222 0.007732689 0.9879747
vn 0.2199996 -0.09480645 0.9708821
vn 0.1162681 0.1460413 0.9824224
vn 0.07692172 0.9961623 -0.04175804
vn 0.05546004 0.9973546 -0.04698867
vn 0.05546004 0.9937776 -0.09659272
vn 0.08049867 0.9925853 -0.09107362
vn 0.0375753 0.99497 -0.09285949
vn 0.0375753 0.998547 -0.03862749
vn 0.05426661 0.9985265 0
vn 0.07334126 0.9973069 0
vn 0.0673832 0.9937776 0.08868759
vn 0.05188309 0.99497 0.08569092
vn 0.05069077 0.9878161 0.1471386
vn 0.06261393 0.9878161 0.142474
vn 0.0602293 0.9854314 0.1590512
vn 0.05069077 0.9854314 0.1623432
vn 0.03876762 0.9854314 0.1655957
vn 0.03876762 0.9890084 0.1426864
vn 0.0375753 0.99497 0.09285949
vn -0.0005787909 0.9961623 0.0875233
vn -0.0005787909 0.9890084 0.1478579
vn 0.0375753 0.998547 0.03862749
vn -0.0005787909 0.9997393 0.02282552
vn 0.07215245 0.9890084 0.1290594
vn 0.06857552 0.9854314 0.155635
vn 0.08049867 0.9937776 0.07698021
vn 0.08883455 0.9960464 0
vn 0.0828833 0.9937776 0.07440684
vn 0.09238112 0.9957237 0
vn 0.100768 0.9937776 -0.04745318
vn 0.09599876 0.99497 -0.02861866
vn 0.1031527 0.9902008 -0.09413798
vn 0.1091142 0.9890084 -0.09978186
vn 0.1103066 0.9830468 -0.1464634
vn 0.1174604 0.9818546 -0.1488779
vn 0.1222297 0.9770852 -0.1742538
vn 0.1150758 0.9770852 -0.1790588
vn 0.1162681 0.9747006 -0.1908941
vn 0.09480645 0.9866238 -0.1326095
vn 0.08884488 0.9806622 -0.1743795
vn 0.08407561 0.9866238 -0.1396597
vn 0.05546004 0.9890084 -0.1370638
vn 0.03638299 0.9890084 -0.143313
vn -0.0005787909 0.99497 -0.1001721
vn -0.0005787909 0.9902008 -0.1396499
vn 0.03519067 0.9854314 -0.1663925
vn -0.0005787909 0.9866238 -0.1630128
vn -0.0005787909 0.9997393 -0.02282552
vn 0.05784467 0.9842391 -0.1671147
vn -0.0005787909 0.9854314 -0.1700721
vn 0.03161372 0.9854314 -0.167109
vn 0.08884488 0.9794699 -0.1809568
vn 0.0602293 0.9830468 -0.1731804
vn 0.07334477 0.9890084 0.1283857
vn -0.06254754 0.998042 0
vn -0.0005787909 0.9866238 0.1630128
vn -0.07927161 -0.002998158 -0.9968485
vn -0.09834868 -0.001805842 -0.9951504
vn -0.1019256 -0.001805842 -0.9947904
vn -0.07927161 -0.002998158 -0.9968485
vn -0.1019256 -0.0006135255 -0.9947918
vn -0.09954098 -0.0006135255 -0.9950333
vn -0.06615615 -0.0006135255 -0.9978091
vn -0.06496382 -0.0006135255 -0.9978874
vn -0.02800205 0.0005787909 -0.9996077
vn -0.02680974 0.0005787909 -0.9996403
vn -0.0005787909 0.0005787909 -0.9999996
vn -0.0005787909 0.0005787909 -0.9999996
vn -0.1281565 0.0005787909 0.9917538
vn -0.1520029 0.00415574 0.9883713
vn -0.1520029 0.00415574 0.9883713
vn -0.1269642 0.0005787909 0.9919071
vn -0.08404088 0.0005787909 0.9964622
vn -0.08523318 0.0005787909 0.9963608
vn -0.0005787909 0.0005787909 0.9999996
vn -0.0005787909 0.0005787909 0.9999996
vn -0.1543875 0.007732689 0.9879801
vn -0.1555798 0.007732689 0.9877931
vn -0.2199649 -0.09480645 0.9708899
vn -0.1162334 0.1460413 0.9824265
vn -0.07688698 0.9961623 -0.04182222
vn -0.08046395 0.9925853 -0.09110437
vn -0.05542532 0.9937776 -0.09661277
vn -0.05542532 0.9973546 -0.04702988
vn -0.03754058 0.99497 -0.09287361
vn -0.03754058 0.998547 -0.03866142
vn -0.05423198 0.9985284 0
vn -0.07330672 0.9973094 0
vn -0.06734845 0.9937776 0.08871413
vn -0.05184835 0.99497 0.08571213
vn -0.05065605 0.9878161 0.1471506
vn -0.06257918 0.9878161 0.1424893
vn -0.06019458 0.9854314 0.1590645
vn -0.05065605 0.9854314 0.1623541
vn -0.03873289 0.9854314 0.1656038
vn -0.03873289 0.9890084 0.1426958
vn -0.03754058 0.99497 0.09287361
vn -0.0005787909 0.9961623 0.0875233
vn -0.0005787909 0.9890084 0.1478579
vn -0.03754058 0.998547 0.03866142
vn -0.0005787909 0.9997393 0.02282552
vn -0.07211772 0.9890084 0.1290788
vn -0.06854078 0.9854314 0.1556503
vn -0.08046395 0.9937776 0.0770166
vn -0.08880009 0.9960495 0
vn -0.08284855 0.9937776 0.07444528
vn -0.0923467 0.9957269 0
vn -0.1007333 0.9937776 -0.0475266
vn -0.09596404 0.99497 -0.02873505
vn -0.1031179 0.9902008 -0.09417628
vn -0.1090795 0.9890084 -0.09981979
vn -0.1102718 0.9830468 -0.1464895
vn -0.1174257 0.9818546 -0.1489054
vn -0.122195 0.9770852 -0.1742781
vn -0.1150411 0.9770852 -0.1790811
vn -0.1174257 0.9747006 -0.1901841
vn -0.09477171 0.9866238 -0.1326342
vn -0.08881015 0.9806622 -0.1743971
vn -0.08404088 0.9866238 -0.1396807
vn -0.05542532 0.9890084 -0.1370779
vn -0.03634825 0.9890084 -0.1433218
vn -0.0005787909 0.99497 -0.1001721
vn -0.0005787909 0.9902008 -0.1396499
vn -0.03515595 0.9854314 -0.1663999
vn -0.0005787909 0.9866238 -0.1630128
vn -0.0005787909 0.9997393 -0.02282552
vn -0.05780995 0.9842391 -0.1671269
vn -0.0005787909 0.9854314 -0.1700721
vn -0.03157899 0.9854314 -0.1671156
vn -0.08881015 0.9794699 -0.1809738
vn -0.06019458 0.9830468 -0.1731926
vn -0.07331005 0.9890084 0.1284054
vn 0.06258214 0.9980398 0
vn -0.0005787909 0.9866238 0.1630128
g model_car_128_body_roof_LOD1_0
f 3/3/3 2/2/2 1/1/1
f 4/4/4 3/3/3 1/1/1
f 4/4/4 5/5/5 3/3/3
f 5/5/5 6/6/6 3/3/3
f 5/5/5 7/7/7 6/6/6
f 7/7/7 8/8/8 6/6/6
f 7/7/7 9/9/9 8/8/8
f 9/9/9 10/10/10 8/8/8
f 10/10/10 9/9/9 11/11/11
f 12/12/12 10/10/10 11/11/11
f 15/15/15 14/14/14 13/13/13
f 16/16/16 15/15/15 13/13/13
f 14/14/14 17/17/17 13/13/13
f 17/17/17 18/18/18 13/13/13
f 18/18/18 17/17/17 19/19/19
f 20/20/20 18/18/18 19/19/19
f 15/15/15 16/16/16 21/21/21
f 22/22/22 15/15/15 21/21/21
f 23/23/23 22/22/22 21/21/21
f 24/24/24 23/23/23 21/21/21
f 27/27/27 26/26/26 25/25/25
f 28/28/28 27/27/27 25/25/25
f 27/27/27 29/29/29 26/26/26
f 29/29/29 30/30/30 26/26/26
f 25/25/25 26/26/26 31/31/31
f 26/26/26 30/30/30 31/31/31
f 32/32/32 25/25/25 31/31/31
f 33/33/33 32/32/32 31/31/31
f 34/34/34 33/33/33 31/31/31
f 33/33/33 34/34/34 35/35/35
f 36/36/36 33/33/33 35/35/35
f 37/37/37 36/36/36 35/35/35
f 38/38/38 37/37/37 35/35/35
f 39/39/39 38/38/38 35/35/35
f 40/40/40 39/39/39 35/35/35
f 41/41/41 40/40/40 35/35/35
f 34/34/34 41/41/41 35/35/35
f 41/41/41 34/34/34 31/31/31
f 40/40/40 41/41/41 42/42/42
f 43/43/43 40/40/40 42/42/42
f 41/41/41 44/44/44 42/42/42
f 44/44/44 41/41/41 31/31/31
f 30/30/30 44/44/44 31/31/31
f 44/44/44 45/45/45 42/42/42
f 45/45/45 44/44/44 30/30/30
f 36/36/36 37/37/37 46/46/46
f 33/33/33 36/36/36 46/46/46
f 37/37/37 47/47/47 46/46/46
f 48/48/48 33/33/33 46/46/46
f 33/33/33 48/48/48 49/49/49
f 48/48/48 50/50/50 49/49/49
f 50/50/50 51/51/51 49/49/49
f 51/51/51 52/52/52 49/49/49
f 52/52/52 53/53/53 49/49/49
f 53/53/53 52/52/52 54/54/54
f 53/53/53 54/54/54 25/25/25
f 53/53/53 25/25/25 49/49/49
f 54/54/54 28/28/28 25/25/25
f 52/52/52 55/55/55 54/54/54
f 54/54/54 55/55/55 56/56/56
f 28/28/28 54/54/54 56/56/56
f 55/55/55 57/57/57 56/56/56
f 57/57/57 58/58/58 56/56/56
f 58/58/58 59/59/59 56/56/56
f 60/60/60 59/59/59 58/58/58
f 61/61/61 60/60/60 58/58/58
f 59/59/59 62/62/62 56/56/56
f 62/62/62 63/63/63 56/56/56
f 63/63/63 28/28/28 56/56/56
f 28/28/28 63/63/63 64/64/64
f 27/27/27 28/28/28 64/64/64
f 29/29/29 27/27/27 64/64/64
f 65/65/65 29/29/29 64/64/64
f 29/29/29 65/65/65 66/66/66
f 65/65/65 67/67/67 66/66/66
f 67/67/67 65/65/65 68/68/68
f 69/69/69 67/67/67 68/68/68
f 30/30/30 29/29/29 66/66/66
f 70/70/70 30/30/30 66/66/66
f 70/70/70 45/45/45 30/30/30
f 65/65/65 64/64/64 71/71/71
f 68/68/68 65/65/65 71/71/71
f 63/63/63 62/62/62 71/71/71
f 64/64/64 63/63/63 71/71/71
f 69/69/69 68/68/68 72/72/72
f 68/68/68 73/73/73 72/72/72
f 73/73/73 68/68/68 71/71/71
f 62/62/62 74/74/74 71/71/71
f 74/74/74 75/75/75 71/71/71
f 75/75/75 73/73/73 71/71/71
f 74/74/74 62/62/62 59/59/59
f 60/60/60 74/74/74 59/59/59
f 32/32/32 33/33/33 49/49/49
f 25/25/25 32/32/32 49/49/49
f 48/48/48 46/46/46 76/76/76
f 50/50/50 48/48/48 76/76/76
f 76/76/76 46/46/46 77/77/77
f 46/46/46 47/47/47 77/77/77
f 40/40/40 43/43/43 78/78/78
f 39/39/39 40/40/40 78/78/78
f 81/81/81 80/80/80 79/79/79
f 82/82/82 81/81/81 79/79/79
f 83/83/83 80/80/80 81/81/81
f 84/84/84 83/83/83 81/81/81
f 85/85/85 83/83/83 84/84/84
f 86/86/86 85/85/85 84/84/84
f 87/87/87 85/85/85 86/86/86
f 88/88/88 87/87/87 86/86/86
f 87/87/87 88/88/88 89/89/89
f 88/88/88 90/90/90 89/89/89
f 93/93/93 92/92/92 91/91/91
f 94/94/94 93/93/93 91/91/91
f 95/95/95 94/94/94 91/91/91
f 96/96/96 95/95/95 91/91/91
f 95/95/95 96/96/96 97/97/97
f 96/96/96 98/98/98 97/97/97
f 92/92/92 93/93/93 99/99/99
f 93/93/93 100/100/100 99/99/99
f 100/100/100 101/101/101 99/99/99
f 101/101/101 102/102/102 99/99/99
f 105/105/105 104/104/104 103/103/103
f 106/106/106 105/105/105 103/103/103
f 107/107/107 105/105/105 106/106/106
f 108/108/108 107/107/107 106/106/106
f 106/106/106 103/103/103 109/109/109
f 108/108/108 106/106/106 109/109/109
f 103/103/103 110/110/110 109/109/109
f 110/110/110 111/111/111 109/109/109
f 111/111/111 112/112/112 109/109/109
f 112/112/112 111/111/111 113/113/113
f 111/111/111 114/114/114 113/113/113
f 114/114/114 115/115/115 113/113/113
f 115/115/115 116/116/116 113/113/113
f 116/116/116 117/117/117 113/113/113
f 117/117/117 118/118/118 113/113/113
f 119/119/119 112/112/112 113/113/113
f 118/118/118 119/119/119 113/113/113
f 112/112/112 119/119/119 109/109/109
f 119/119/119 118/118/118 120/120/120
f 118/118/118 121/121/121 120/120/120
f 122/122/122 119/119/119 120/120/120
f 119/119/119 122/122/122 109/109/109
f 122/122/122 108/108/108 109/109/109
f 123/123/123 122/122/122 120/120/120
f 122/122/122 123/123/123 108/108/108
f 115/115/115 114/114/114 124/124/124
f 114/114/114 111/111/111 124/124/124
f 125/125/125 115/115/115 124/124/124
f 111/111/111 126/126/126 124/124/124
f 126/126/126 111/111/111 127/127/127
f 128/128/128 126/126/126 127/127/127
f 129/129/129 128/128/128 127/127/127
f 130/130/130 129/129/129 127/127/127
f 131/131/131 130/130/130 127/127/127
f 130/130/130 131/131/131 132/132/132
f 132/132/132 131/131/131 103/103/103
f 103/103/103 131/131/131 127/127/127
f 104/104/104 132/132/132 103/103/103
f 133/133/133 130/130/130 132/132/132
f 133/133/133 132/132/132 134/134/134
f 132/132/132 104/104/104 134/134/134
f 135/135/135 133/133/133 134/134/134
f 136/136/136 135/135/135 134/134/134
f 137/137/137 136/136/136 134/134/134
f 137/137/137 138/138/138 136/136/136
f 138/138/138 139/139/139 136/136/136
f 140/140/140 137/137/137 134/134/134
f 141/141/141 140/140/140 134/134/134
f 104/104/104 141/141/141 134/134/134
f 141/141/141 104/104/104 142/142/142
f 104/104/104 105/105/105 142/142/142
f 105/105/105 107/107/107 142/142/142
f 107/107/107 143/143/143 142/142/142
f 143/143/143 107/107/107 144/144/144
f 145/145/145 143/143/143 144/144/144
f 143/143/143 145/145/145 146/146/146
f 145/145/145 147/147/147 146/146/146
f 107/107/107 108/108/108 144/144/144
f 108/108/108 148/148/148 144/144/144
f 123/123/123 148/148/148 108/108/108
f 143/143/143 146/146/146 149/149/149
f 142/142/142 143/143/143 149/149/149
f 141/141/141 142/142/142 149/149/149
f 140/140/140 141/141/141 149/149/149
f 146/146/146 147/147/147 150/150/150
f 151/151/151 146/146/146 150/150/150
f 146/146/146 151/151/151 149/149/149
f 152/152/152 140/140/140 149/149/149
f 153/153/153 152/152/152 149/149/149
f 151/151/151 153/153/153 149/149/149
f 152/152/152 138/138/138 137/137/137
f 140/140/140 152/152/152 137/137/137
f 111/111/111 110/110/110 127/127/127
f 110/110/110 103/103/103 127/127/127
f 126/126/126 128/128/128 154/154/154
f 124/124/124 126/126/126 154/154/154
f 124/124/124 154/154/154 155/155/155
f 125/125/125 124/124/124 155/155/155
f 118/118/118 117/117/117 156/156/156
f 121/121/121 118/118/118 156/156/156
