g model_car_128_matte_mirror_LOD1
v 0.9899938 0.9364365 0.4530557
v 0.9900014 0.9677374 0.4530519
v 0.8524525 0.9666885 0.5019139
v 0.8524564 0.925684 0.501912
v 1.00037 0.9455945 0.4496247
v 0.9996608 0.9675281 0.4498609
v 1.000337 0.9895692 0.4496361
v 0.990011 0.9990366 0.45305
v 0.8524487 1.007693 0.5019139
v 0.8402841 0.9344789 0.5059348
v 0.8402898 0.9666942 0.5059329
v 0.8331663 0.9666982 0.5082843
v 0.832394 0.9483975 0.5085398
v 1.006754 0.9668038 0.4475172
v 1.005176 0.9557745 0.4480377
v 1.002735 0.983896 0.4488447
v 1.00513 0.9782211 0.4480531
v 0.8402937 0.9989078 0.5059309
v 0.8324056 0.9850007 0.508536
v 0.8297698 0.966702 0.5094063
v 0.8310819 0.9575497 0.5089741
v -0.9899937 0.9364365 0.4530557
v -0.8524563 0.925684 0.501912
v -0.8524525 0.9666885 0.5019139
v -0.9900014 0.9677374 0.4530519
v -1.00037 0.9455945 0.4496247
v -0.9996607 0.9675281 0.4498609
v -1.000337 0.9895692 0.4496361
v -0.990011 0.9990366 0.45305
v -0.8524487 1.007693 0.5019139
v -0.8402841 0.9344789 0.5059348
v -0.8402898 0.9666942 0.5059329
v -0.8331662 0.9666982 0.5082843
v -0.832394 0.9483975 0.5085398
v -1.006754 0.9668038 0.4475172
v -1.005176 0.9557745 0.4480377
v -1.002735 0.983896 0.4488447
v -1.00513 0.9782211 0.4480531
v -0.8402936 0.9989078 0.5059309
v -0.8324056 0.9850007 0.508536
v -0.8297697 0.966702 0.5094063
v -0.8310819 0.9575497 0.5089741
vn -0.3341589 0.0003266037 -0.9425167
vn -0.3335056 0.0003266037 -0.9427481
vn -0.3328523 0.0003266037 -0.9429789
vn -0.3335056 0.0003266037 -0.9427481
vn -0.3139068 0.0003266037 -0.9494537
vn -0.3139068 0.0003266037 -0.9494537
vn -0.3139068 0.0003266037 -0.9494537
vn -0.3341589 0.0003266037 -0.9425167
vn -0.3335056 0.0003266037 -0.9427481
vn -0.3139068 0.0003266037 -0.9494537
vn -0.3139068 0.0003266037 -0.9494537
vn -0.3132536 0.0003266037 -0.9496695
vn -0.3132536 0.0003266037 -0.9496695
vn -0.3139068 0.0003266037 -0.9494537
vn -0.3139068 0.0003266037 -0.9494537
vn -0.3132536 -0.0003266931 -0.9496695
vn -0.3132536 0.0003266037 -0.9496695
vn -0.3139068 0.0003266037 -0.9494537
vn -0.3132536 0.0003266037 -0.9496695
vn -0.3132536 0.0003266037 -0.9496695
vn -0.3132536 0.0003266037 -0.9496695
vn 0.334159 0.0003266037 -0.9425167
vn 0.3335057 0.0003266037 -0.942748
vn 0.3328524 0.0003266037 -0.9429789
vn 0.3335057 -0.0003266931 -0.942748
vn 0.3139069 0.0003266037 -0.9494537
vn 0.3139069 0.0003266037 -0.9494537
vn 0.3139069 0.0003266037 -0.9494537
vn 0.334159 0.0003266037 -0.9425167
vn 0.3335057 0.0003266037 -0.942748
vn 0.3139069 0.0003266037 -0.9494537
vn 0.3139069 0.0003266037 -0.9494537
vn 0.3132536 0.0003266037 -0.9496694
vn 0.3132536 0.0003266037 -0.9496694
vn 0.3139069 0.0003266037 -0.9494537
vn 0.3139069 0.0003266037 -0.9494537
vn 0.3132536 -0.0003266931 -0.9496694
vn 0.3132536 0.0003266037 -0.9496694
vn 0.3139069 0.0003266037 -0.9494537
vn 0.3132536 0.0003266037 -0.9496694
vn 0.3132536 0.0003266037 -0.9496694
vn 0.3132536 0.0003266037 -0.9496694
g model_car_128_matte_mirror_LOD1_0
f 3/3/3 2/2/2 1/1/1
f 4/4/4 3/3/3 1/1/1
f 5/5/5 1/1/1 2/2/2
f 6/6/6 5/5/5 2/2/2
f 6/6/6 2/2/2 7/7/7
f 2/2/2 8/8/8 7/7/7
f 9/9/9 8/8/8 2/2/2
f 3/3/3 9/9/9 2/2/2
f 3/3/3 4/4/4 10/10/10
f 11/11/11 3/3/3 10/10/10
f 9/9/9 3/3/3 11/11/11
f 11/11/11 10/10/10 12/12/12
f 10/10/10 13/13/13 12/12/12
f 5/5/5 6/6/6 14/14/14
f 6/6/6 7/7/7 14/14/14
f 15/15/15 5/5/5 14/14/14
f 7/7/7 16/16/16 14/14/14
f 16/16/16 17/17/17 14/14/14
f 11/11/11 12/12/12 18/18/18
f 18/18/18 9/9/9 11/11/11
f 12/12/12 19/19/19 18/18/18
f 19/19/19 12/12/12 20/20/20
f 12/12/12 13/13/13 20/20/20
f 13/13/13 21/21/21 20/20/20
f 24/24/24 23/23/23 22/22/22
f 25/25/25 24/24/24 22/22/22
f 22/22/22 26/26/26 25/25/25
f 26/26/26 27/27/27 25/25/25
f 25/25/25 27/27/27 28/28/28
f 29/29/29 25/25/25 28/28/28
f 30/30/30 24/24/24 25/25/25
f 29/29/29 30/30/30 25/25/25
f 23/23/23 24/24/24 31/31/31
f 24/24/24 32/32/32 31/31/31
f 24/24/24 30/30/30 32/32/32
f 31/31/31 32/32/32 33/33/33
f 34/34/34 31/31/31 33/33/33
f 27/27/27 26/26/26 35/35/35
f 28/28/28 27/27/27 35/35/35
f 26/26/26 36/36/36 35/35/35
f 37/37/37 28/28/28 35/35/35
f 38/38/38 37/37/37 35/35/35
f 33/33/33 32/32/32 39/39/39
f 30/30/30 39/39/39 32/32/32
f 40/40/40 33/33/33 39/39/39
f 33/33/33 40/40/40 41/41/41
f 34/34/34 33/33/33 41/41/41
f 42/42/42 34/34/34 41/41/41
