g model_car_87_matte_mirror_LOD1
v 0.8070757 0.9651681 0.6667243
v 0.8356889 0.9651606 0.6572645
v 0.835668 1.010685 0.6572721
v 0.8070815 0.9985491 0.6667225
v 0.8357098 0.9196358 0.657257
v 0.8070701 0.9317871 0.6667262
v 0.7996942 0.9651738 0.6691614
v 0.7988933 0.9462104 0.6694272
v 0.9432893 0.965115 0.6181893
v 0.9433292 1.004674 0.6181761
v 0.7989066 0.9841373 0.6694216
v 0.9432495 0.9255577 0.6182045
v 0.9621958 0.9338162 0.6119334
v 0.9622054 0.9662482 0.6119314
v 0.9729483 0.9433064 0.6083802
v 0.9722118 0.9660318 0.6086231
v 0.9729141 0.988871 0.6083897
v 0.9622148 0.998682 0.6119276
v 0.979563 0.9652802 0.6061956
v 0.9779288 0.9538538 0.6067346
v 0.9753987 0.9829909 0.6075697
v 0.9778813 0.9771125 0.6067517
v 0.7961752 0.9651757 0.670325
v 0.7975342 0.9556931 0.6698751
v -0.8070757 0.9651681 0.6667243
v -0.8070815 0.9985491 0.6667225
v -0.835668 1.010685 0.6572721
v -0.8356888 0.9651606 0.6572645
v -0.8357097 0.9196358 0.657257
v -0.80707 0.9317871 0.6667262
v -0.7996942 0.9651738 0.6691614
v -0.7988932 0.9462104 0.6694272
v -0.9432893 0.965115 0.6181893
v -0.9433292 1.004674 0.6181761
v -0.7989066 0.9841373 0.6694216
v -0.9432495 0.9255577 0.6182045
v -0.9621958 0.9338162 0.6119334
v -0.9622053 0.9662482 0.6119314
v -0.9729483 0.9433064 0.6083802
v -0.9722118 0.9660318 0.6086231
v -0.9729141 0.988871 0.6083897
v -0.9622148 0.998682 0.6119276
v -0.979563 0.9652802 0.6061956
v -0.9779288 0.9538538 0.6067346
v -0.9753987 0.9829909 0.6075697
v -0.9778813 0.9771125 0.6067517
v -0.7961752 0.9651757 0.670325
v -0.7975342 0.9556931 0.6698751
vn -0.313812 -0.0003224611 -0.9494851
vn -0.3273578 -0.0003224611 -0.9449004
vn -0.3292929 -0.0003224611 -0.9442278
vn -0.313812 -0.0003224611 -0.9494851
vn -0.3292929 -0.0003224611 -0.9442278
vn -0.313812 -0.0003224611 -0.9494851
vn -0.313812 -0.0003224611 -0.9494851
vn -0.313812 -0.0003224611 -0.9494851
vn -0.3280028 -0.0003224611 -0.9446767
vn -0.3292929 -0.0003224611 -0.9442278
vn -0.313812 -0.0003224611 -0.9494851
vn -0.3299379 -0.0003224611 -0.9440026
vn -0.313812 -0.0003224611 -0.9494851
vn -0.313812 -0.0003224611 -0.9494851
vn -0.313812 -0.0003224611 -0.9494851
vn -0.313812 -0.0003224611 -0.9494851
vn -0.313812 -0.0003224611 -0.9494851
vn -0.313812 -0.0003224611 -0.9494851
vn -0.313812 -0.0003224611 -0.9494851
vn -0.313812 0.0003225803 -0.9494851
vn -0.313812 -0.0003224611 -0.9494851
vn -0.3131669 0.0003225803 -0.949698
vn -0.313812 -0.0003224611 -0.9494851
vn -0.313812 -0.0003224611 -0.9494851
vn 0.3138118 -0.0003224611 -0.9494851
vn 0.3138118 -0.0003224611 -0.9494851
vn 0.3292928 -0.0003224611 -0.9442278
vn 0.3273576 -0.0003224611 -0.9449005
vn 0.3292928 -0.0003224611 -0.9442278
vn 0.3138118 -0.0003224611 -0.9494851
vn 0.3138118 -0.0003224611 -0.9494851
vn 0.3138118 -0.0003224611 -0.9494851
vn 0.3280027 -0.0003224611 -0.9446767
vn 0.3292928 -0.0003224611 -0.9442278
vn 0.3138118 -0.0003224611 -0.9494851
vn 0.3299378 -0.0003224611 -0.9440026
vn 0.3138118 -0.0003224611 -0.9494851
vn 0.3138118 -0.0003224611 -0.9494851
vn 0.3138118 -0.0003224611 -0.9494851
vn 0.3138118 -0.0003224611 -0.9494851
vn 0.3138118 -0.0003224611 -0.9494851
vn 0.3138118 -0.0003224611 -0.9494851
vn 0.3138118 -0.0003224611 -0.9494851
vn 0.3138118 0.0003225803 -0.9494851
vn 0.3138118 -0.0003224611 -0.9494851
vn 0.3131668 0.0003225803 -0.9496981
vn 0.3138118 -0.0003224611 -0.9494851
vn 0.3138118 -0.0003224611 -0.9494851
g model_car_87_matte_mirror_LOD1_0
f 3/3/3 2/2/2 1/1/1
f 4/4/4 3/3/3 1/1/1
f 1/1/1 2/2/2 5/5/5
f 6/6/6 1/1/1 5/5/5
f 1/1/1 6/6/6 7/7/7
f 1/1/1 7/7/7 4/4/4
f 6/6/6 8/8/8 7/7/7
f 2/2/2 3/3/3 9/9/9
f 2/2/2 9/9/9 5/5/5
f 3/3/3 10/10/10 9/9/9
f 7/7/7 11/11/11 4/4/4
f 9/9/9 12/12/12 5/5/5
f 13/13/13 12/12/12 9/9/9
f 14/14/14 13/13/13 9/9/9
f 14/14/14 9/9/9 10/10/10
f 15/15/15 13/13/13 14/14/14
f 16/16/16 15/15/15 14/14/14
f 16/16/16 14/14/14 17/17/17
f 14/14/14 18/18/18 17/17/17
f 18/18/18 14/14/14 10/10/10
f 15/15/15 16/16/16 19/19/19
f 16/16/16 17/17/17 19/19/19
f 20/20/20 15/15/15 19/19/19
f 17/17/17 21/21/21 19/19/19
f 21/21/21 22/22/22 19/19/19
f 11/11/11 7/7/7 23/23/23
f 7/7/7 8/8/8 23/23/23
f 8/8/8 24/24/24 23/23/23
f 27/27/27 26/26/26 25/25/25
f 28/28/28 27/27/27 25/25/25
f 28/28/28 25/25/25 29/29/29
f 25/25/25 30/30/30 29/29/29
f 30/30/30 25/25/25 31/31/31
f 31/31/31 25/25/25 26/26/26
f 32/32/32 30/30/30 31/31/31
f 27/27/27 28/28/28 33/33/33
f 33/33/33 28/28/28 29/29/29
f 34/34/34 27/27/27 33/33/33
f 35/35/35 31/31/31 26/26/26
f 36/36/36 33/33/33 29/29/29
f 36/36/36 37/37/37 33/33/33
f 37/37/37 38/38/38 33/33/33
f 33/33/33 38/38/38 34/34/34
f 37/37/37 39/39/39 38/38/38
f 39/39/39 40/40/40 38/38/38
f 38/38/38 40/40/40 41/41/41
f 42/42/42 38/38/38 41/41/41
f 38/38/38 42/42/42 34/34/34
f 40/40/40 39/39/39 43/43/43
f 41/41/41 40/40/40 43/43/43
f 39/39/39 44/44/44 43/43/43
f 45/45/45 41/41/41 43/43/43
f 46/46/46 45/45/45 43/43/43
f 31/31/31 35/35/35 47/47/47
f 32/32/32 31/31/31 47/47/47
f 48/48/48 32/32/32 47/47/47
