g Glass_18
v 0.5834 1.1242 -0.2366998
v 0.7665 0.8438 0.1184001
v 0.6874 0.8383999 0.2203001
v 0.4253 1.1431 -0.1954998
v 0.5074 0.8339999 0.3366002
v 0.2562 1.1518 -0.1639998
v 0.2356 0.8329999 0.4369001
v 0.0001 1.1556 -0.1497998
v 0.0001 0.8331999 0.4549001
v 0.6073 1.0631 -1.272
v 0.5777 1.1 -1.2376
v 0.5427 0.9764003 -1.6055
v 0.4743 1.0157 -1.6026
v 0.542 1.1198 -1.2196
v 0.4419 1.135 -1.2117
v 0.3892 1.0288 -1.599
v 0.2089 1.1528 -1.2081
v 0.1906 1.0441 -1.5905
v 0.3505 0.9292004 -1.8841
v 0.1705 0.9348004 -1.899
v 0.4307 0.9259003 -1.8657
v 0.4849 0.9200003 -1.8364
v 0.0001 1.1555 -1.2082
v 0.0001 1.0484 -1.5875
v 0.0001 0.9369004 -1.9038
v 0.6171 1.1354 -0.4326998
v 0.629 1.1174 -0.3448998
v 0.6202 1.1292 -0.3851998
v 0.6469 1.0939 -0.2978998
v 0.6529 1.0869 -0.9110998
v 0.7115 1.007 -0.8950998
v 0.7218 0.9783 -0.1528998
v 0.7882 0.9013001 -0.8594998
v 0.7856 0.8856 -0.1769999
v 0.6206 1.1281 -0.8831998
v 0.6325 1.1142 -0.9083998
v -0.5832 1.1242 -0.2366998
v -0.6872 0.8383999 0.2203001
v -0.7663 0.8438 0.1184001
v -0.4251 1.1431 -0.1954998
v -0.5072 0.8339999 0.3366002
v -0.256 1.1518 -0.1639998
v -0.2354 0.8329999 0.4369001
v 0.0001 1.1556 -0.1497998
v 0.0001 0.8331999 0.4549001
v -0.6072 1.0631 -1.272
v -0.5426 0.9764003 -1.6055
v -0.5776 1.1 -1.2376
v -0.4741 1.0157 -1.6026
v -0.5418 1.1198 -1.2196
v -0.4417 1.135 -1.2117
v -0.389 1.0288 -1.599
v -0.2087 1.1528 -1.2081
v -0.1904 1.0441 -1.5905
v -0.3503 0.9292004 -1.8841
v -0.1703 0.9348004 -1.899
v -0.4305 0.9259003 -1.8657
v -0.4847 0.9200003 -1.8364
v 0.0001 1.1555 -1.2082
v 0.0001 1.0484 -1.5875
v 0.0001 0.9369004 -1.9038
v -0.6169 1.1354 -0.4326998
v -0.6288 1.1174 -0.3448998
v -0.6467 1.0939 -0.2978998
v -0.6201 1.1292 -0.3851998
v -0.6528 1.0869 -0.9110998
v -0.7113 1.007 -0.8950998
v -0.7217 0.9783 -0.1528998
v -0.788 0.9013001 -0.8594998
v -0.7854 0.8856 -0.1769999
v -0.6204 1.1281 -0.8831998
v -0.6323 1.1142 -0.9082998
vt 0.7306 0.3847
vt 0.8011 0.2206
vt 0.7676 0.1868
vt 0.671 0.3756
vt 0.6984 0.1496
vt 0.6083 0.3679
vt 0.5968 0.1186
vt 0.5142 0.3654
vt 0.5103 0.1141
vt 0.7331 0.6941
vt 0.7192 0.6777
vt 0.7083 0.8204
vt 0.6799 0.8147
vt 0.7051 0.6692
vt 0.6681 0.6648
vt 0.6484 0.812
vt 0.5824 0.6616
vt 0.5756 0.8074
vt 0.6345 0.9228
vt 0.5683 0.9274
vt 0.6642 0.9168
vt 0.685 0.9074
vt 0.5058 0.6613
vt 0.5058 0.8059
vt 0.5058 0.9288
vt 0.7843 0.4645
vt 0.7922 0.4323
vt 0.7868 0.4471
vt 0.803 0.4151
vt 0.8066 0.64
vt 0.8429 0.6341
vt 0.8535 0.3618
vt 0.8908 0.621
vt 0.8947 0.3706
vt 0.7874 0.6298
vt 0.7941 0.639
vt 0.7306 0.3847
vt 0.7676 0.1868
vt 0.8011 0.2206
vt 0.671 0.3756
vt 0.6984 0.1496
vt 0.6083 0.3679
vt 0.5968 0.1186
vt 0.5142 0.3654
vt 0.5103 0.1141
vt 0.7331 0.6941
vt 0.7083 0.8204
vt 0.7192 0.6777
vt 0.6799 0.8147
vt 0.7051 0.6692
vt 0.6681 0.6648
vt 0.6484 0.812
vt 0.5824 0.6616
vt 0.5756 0.8074
vt 0.6345 0.9228
vt 0.5683 0.9274
vt 0.6642 0.9168
vt 0.685 0.9074
vt 0.5058 0.6613
vt 0.5058 0.8059
vt 0.5058 0.9288
vt 0.7843 0.4645
vt 0.7922 0.4323
vt 0.803 0.4151
vt 0.7868 0.4471
vt 0.8066 0.64
vt 0.8429 0.6341
vt 0.8535 0.3618
vt 0.8908 0.621
vt 0.8947 0.3706
vt 0.7874 0.6298
vt 0.7941 0.639
vn 0.2546851 0.84489 0.4704215
vn 0.4549642 0.7978894 0.3954493
vn 0.3309616 0.8360921 0.4375094
vn 0.1860273 0.8583035 0.4782352
vn 0.2076728 0.8618685 0.4626606
vn 0.09508967 0.8749397 0.4748036
vn 0.09328233 0.878 0.469483
vn 0 0.8827357 0.46987
vn 0 0.8824175 0.4704671
vn 0.5808083 0.7533767 -0.3083589
vn 0.4194295 0.8540667 -0.3076505
vn 0.4665089 0.8248224 -0.3194332
vn 0.2913902 0.9017271 -0.3193431
vn 0.2203978 0.9307014 -0.2919241
vn 0.09760167 0.9560064 -0.2766328
vn 0.09601672 0.9466787 -0.3075388
vn 0.04029473 0.9609413 -0.2738034
vn 0.03806306 0.9517052 -0.3046447
vn 0.08199424 0.9372762 -0.3388071
vn 0.03695169 0.9415334 -0.3348873
vn 0.1765224 0.9214799 -0.345998
vn 0.3123274 0.8840548 -0.3477048
vn 0 0.9619168 -0.2733425
vn 0 0.9530966 -0.3026665
vn 0 0.943117 -0.332461
vn 0.8053268 0.592821 0.003452769
vn 0.7670792 0.6409655 0.02743654
vn 0.7267205 0.6856434 0.04207706
vn 0.8250448 0.5649896 0.009371905
vn 0.7993318 0.6008543 0.006534992
vn 0.808796 0.5880574 0.006123095
vn 0.8268086 0.5623194 0.01358407
vn 0.8090372 0.587635 0.01198998
vn 0.8256017 0.564023 0.01611986
vn 0.788911 0.6144789 0.005927115
vn 0.8024223 0.594576 0.05096773
vn -0.2546851 0.8448901 0.4704213
vn -0.3309617 0.8360919 0.4375095
vn -0.4549647 0.7978889 0.3954497
vn -0.1860272 0.8583035 0.4782351
vn -0.2076727 0.8618684 0.4626606
vn -0.09508967 0.8749398 0.4748034
vn -0.09328233 0.878 0.469483
vn 0 0.8827357 0.46987
vn 0 0.8824175 0.4704671
vn -0.5808074 0.7533774 -0.3083589
vn -0.4660026 0.8250762 -0.3195165
vn -0.4189539 0.8543049 -0.3076377
vn -0.2911197 0.9018077 -0.3193621
vn -0.2201014 0.9307812 -0.2918934
vn -0.09760157 0.9560065 -0.2766325
vn -0.09601674 0.9466787 -0.3075389
vn -0.04029473 0.9609413 -0.2738034
vn -0.03806306 0.9517052 -0.3046447
vn -0.0819943 0.9372762 -0.338807
vn -0.03695168 0.9415334 -0.3348872
vn -0.1765226 0.9214799 -0.345998
vn -0.3122717 0.8840708 -0.3477143
vn 0 0.9619168 -0.2733425
vn 0 0.9530966 -0.3026665
vn 0 0.943117 -0.332461
vn -0.8054417 0.5926652 0.003426496
vn -0.7674577 0.6405182 0.02729577
vn -0.8248305 0.5653031 0.009327552
vn -0.7371538 0.6746328 0.03840243
vn -0.7990571 0.6012217 0.006341252
vn -0.8090199 0.5877492 0.006143696
vn -0.8269506 0.5621116 0.01353599
vn -0.8090901 0.5875643 0.01188811
vn -0.8260146 0.5634186 0.01610752
vn -0.787886 0.6157955 0.005615707
vn -0.8011007 0.5964804 0.04948583
g Glass_18_0
f 3/3/3 2/2/2 1/1/1
f 1/1/1 4/4/4 3/3/3
f 3/3/3 4/4/4 5/5/5
f 4/4/4 6/6/6 5/5/5
f 5/5/5 6/6/6 7/7/7
f 6/6/6 8/8/8 7/7/7
f 7/7/7 8/8/8 9/9/9
f 12/12/12 11/11/11 10/10/10
f 13/13/13 11/11/11 12/12/12
f 14/14/14 11/11/11 13/13/13
f 14/14/14 13/13/13 15/15/15
f 13/13/13 16/16/16 15/15/15
f 15/15/15 16/16/16 17/17/17
f 16/16/16 18/18/18 17/17/17
f 16/16/16 19/19/19 18/18/18
f 19/19/19 20/20/20 18/18/18
f 21/21/21 19/19/19 16/16/16
f 13/13/13 21/21/21 16/16/16
f 22/22/22 21/21/21 13/13/13
f 12/12/12 22/22/22 13/13/13
f 18/18/18 23/23/23 17/17/17
f 20/20/20 24/24/24 18/18/18
f 18/18/18 24/24/24 23/23/23
f 20/20/20 25/25/25 24/24/24
f 28/28/28 27/27/27 26/26/26
f 29/29/29 26/26/26 27/27/27
f 30/30/30 26/26/26 29/29/29
f 31/31/31 30/30/30 29/29/29
f 32/32/32 31/31/31 29/29/29
f 33/33/33 31/31/31 32/32/32
f 34/34/34 33/33/33 32/32/32
f 35/35/35 26/26/26 30/30/30
f 36/36/36 35/35/35 30/30/30
f 39/39/39 38/38/38 37/37/37
f 40/40/40 37/37/37 38/38/38
f 40/40/40 38/38/38 41/41/41
f 42/42/42 40/40/40 41/41/41
f 42/42/42 41/41/41 43/43/43
f 44/44/44 42/42/42 43/43/43
f 44/44/44 43/43/43 45/45/45
f 48/48/48 47/47/47 46/46/46
f 48/48/48 49/49/49 47/47/47
f 48/48/48 50/50/50 49/49/49
f 49/49/49 50/50/50 51/51/51
f 52/52/52 49/49/49 51/51/51
f 52/52/52 51/51/51 53/53/53
f 54/54/54 52/52/52 53/53/53
f 55/55/55 52/52/52 54/54/54
f 56/56/56 55/55/55 54/54/54
f 55/55/55 57/57/57 52/52/52
f 57/57/57 49/49/49 52/52/52
f 57/57/57 58/58/58 49/49/49
f 58/58/58 47/47/47 49/49/49
f 59/59/59 54/54/54 53/53/53
f 60/60/60 56/56/56 54/54/54
f 60/60/60 54/54/54 59/59/59
f 61/61/61 56/56/56 60/60/60
f 64/64/64 63/63/63 62/62/62
f 65/65/65 62/62/62 63/63/63
f 62/62/62 66/66/66 64/64/64
f 66/66/66 67/67/67 64/64/64
f 67/67/67 68/68/68 64/64/64
f 67/67/67 69/69/69 68/68/68
f 69/69/69 70/70/70 68/68/68
f 62/62/62 71/71/71 66/66/66
f 71/71/71 72/72/72 66/66/66
