g Taillights_24
v 1.30425 0.4788007 -3.74965
v 1.34975 0.4782007 -3.73505
v 1.34835 0.5355006 -3.72245
v 1.32125 0.5373006 -3.73075
v 1.31985 0.5606006 -3.72595
v 1.16405 0.5687006 -3.76645
v 1.16345 0.5895006 -3.76115
v 1.32025 0.5815006 -3.72095
v 0.95285 0.5924006 -3.79085
v 1.16235 0.6129007 -3.75535
v 1.31995 0.6051006 -3.71565
v 0.95235 0.6166006 -3.78695
v 0.75735 0.6172007 -3.80045
v 1.45025 0.5702005 -3.68145
v 1.44745 0.5939005 -3.67695
v 1.45135 0.5492006 -3.68585
v 1.44445 0.5290006 -3.69275
v 1.43625 0.4776006 -3.70715
v 0.75735 0.5930006 -3.80435
v 0.95325 0.5719007 -3.79415
v 1.16445 0.4934006 -3.78575
v 1.19675 0.5436006 -3.76435
v 1.14445 0.4583006 -3.79315
v 1.24605 0.4178006 -3.78245
v 0.94855 0.5417007 -3.79935
v 1.26215 0.4391006 -3.77245
v 1.28155 0.4591006 -3.76155
v 1.18595 0.5189006 -3.77455
v 1.27295 0.4793006 -3.75965
v 1.35315 0.4377006 -3.74325
v 1.35445 0.4137006 -3.74835
v 1.44955 0.4131007 -3.71765
v 1.35245 0.4588007 -3.73865
v 1.44725 0.4370006 -3.71285
v 1.44615 0.4582006 -3.70845
v 1.53275 0.4432006 -3.68375
v 1.55315 0.4213006 -3.68205
v 1.56785 0.4467006 -3.67155
v 1.54155 0.4560006 -3.67795
v 1.51255 0.4624006 -3.68585
v 1.51835 0.4708006 -3.68205
v 1.51805 0.5523005 -3.66355
v 1.49195 0.4809006 -3.68835
v 1.47965 0.5259005 -3.68205
v 1.50335 0.5348006 -3.67225
v 1.50515 0.5625005 -3.66535
v 1.49375 0.5425006 -3.67365
v 1.54115 0.5680006 -3.65215
v 1.52675 0.5862005 -3.65415
v 0.75735 0.5726007 -3.80765
v 0.75735 0.5425007 -3.81255
v 0.16635 0.5355006 -3.72245
v 0.16495 0.4782007 -3.73505
v 0.21045 0.4788007 -3.74965
v 0.19345 0.5373006 -3.73075
v 0.19485 0.5606006 -3.72595
v 0.35065 0.5687006 -3.76645
v 0.35125 0.5895006 -3.76115
v 0.19445 0.5815006 -3.72095
v 0.56185 0.5924006 -3.79085
v 0.35235 0.6129007 -3.75535
v 0.19475 0.6051006 -3.71565
v 0.56235 0.6166006 -3.78695
v 0.75735 0.6172007 -3.80045
v 0.06445003 0.5702005 -3.68145
v 0.06725001 0.5939005 -3.67695
v 0.06335002 0.5492006 -3.68585
v 0.07025003 0.5290006 -3.69275
v 0.07845002 0.4776006 -3.70715
v 0.75735 0.5930006 -3.80435
v 0.56145 0.5719007 -3.79415
v 0.35025 0.4934006 -3.78575
v 0.31795 0.5436006 -3.76435
v 0.37025 0.4583006 -3.79315
v 0.26865 0.4178006 -3.78245
v 0.56615 0.5417007 -3.79935
v 0.25255 0.4391006 -3.77245
v 0.23315 0.4591006 -3.76155
v 0.16225 0.4588007 -3.73865
v 0.16155 0.4377006 -3.74325
v 0.16025 0.4137006 -3.74835
v 0.06515002 0.4131007 -3.71765
v 0.06744999 0.4370006 -3.71285
v 0.06854999 0.4582006 -3.70845
v -0.01805001 0.4432006 -3.68375
v -0.03845 0.4213006 -3.68205
v -0.05315 0.4467006 -3.67155
v -0.02684999 0.4560006 -3.67795
v 0.002149999 0.4624006 -3.68585
v -0.00365001 0.4708006 -3.68205
v -0.00334996 0.5523005 -3.66355
v 0.02275002 0.4809006 -3.68835
v 0.03505003 0.5259005 -3.68205
v 0.01135004 0.5348006 -3.67225
v 0.009550035 0.5625005 -3.66535
v 0.02095002 0.5425006 -3.67365
v -0.02644998 0.5680006 -3.65215
v -0.01204997 0.5862005 -3.65415
v 0.24175 0.4793006 -3.75965
v 0.32875 0.5189006 -3.77455
v 0.75735 0.5425007 -3.81255
v 0.75735 0.5726007 -3.80765
vt 0.6777 0.0871
vt 0.6488 0.0881
vt 0.6504 0.1443
vt 0.6677 0.1451
vt 0.6689 0.1679
vt 0.7646 0.1712
vt 0.765 0.1913
vt 0.6688 0.1885
vt 0.8833 0.1913
vt 0.7656 0.2147
vt 0.6693 0.2117
vt 0.8845 0.2147
vt 0.9907 0.2147
vt 0.5862 0.182
vt 0.5882 0.2051
vt 0.5851 0.1614
vt 0.5893 0.1413
vt 0.5939 0.0905
vt 0.9907 0.1913
vt 0.8822 0.1712
vt 0.7643 0.0972
vt 0.7446 0.1475
vt 0.7736 0.0628
vt 0.7139 0.0251
vt 0.8835 0.1417
vt 0.704 0.0465
vt 0.6919 0.0669
vt 0.7516 0.1228
vt 0.6976 0.0864
vt 0.6462 0.0484
vt 0.6451 0.0249
vt 0.5846 0.0275
vt 0.6469 0.0691
vt 0.5864 0.051
vt 0.5873 0.0718
vt 0.5321 0.0601
vt 0.5189 0.0393
vt 0.5099 0.0647
vt 0.5267 0.073
vt 0.5452 0.0782
vt 0.5416 0.0867
vt 0.5429 0.1668
vt 0.5585 0.0957
vt 0.5669 0.1395
vt 0.5519 0.1491
vt 0.5511 0.1763
vt 0.5582 0.1563
vt 0.5283 0.1831
vt 0.5382 0.2003
vt 0.9907 0.1712
vt 0.9907 0.1417
vt 0.6504 0.1443
vt 0.6488 0.0881
vt 0.6777 0.0871
vt 0.6677 0.1451
vt 0.6689 0.1679
vt 0.7646 0.1712
vt 0.765 0.1913
vt 0.6688 0.1885
vt 0.8833 0.1913
vt 0.7656 0.2147
vt 0.6693 0.2117
vt 0.8845 0.2147
vt 0.9907 0.2147
vt 0.5862 0.182
vt 0.5882 0.2051
vt 0.5851 0.1614
vt 0.5893 0.1413
vt 0.5939 0.0905
vt 0.9907 0.1913
vt 0.8822 0.1712
vt 0.7643 0.0972
vt 0.7446 0.1475
vt 0.7736 0.0628
vt 0.7139 0.0251
vt 0.8835 0.1417
vt 0.704 0.0465
vt 0.6919 0.0669
vt 0.6469 0.0691
vt 0.6462 0.0484
vt 0.6451 0.0249
vt 0.5846 0.0275
vt 0.5864 0.051
vt 0.5873 0.0718
vt 0.5321 0.0601
vt 0.5189 0.0393
vt 0.5099 0.0647
vt 0.5267 0.073
vt 0.5452 0.0782
vt 0.5416 0.0867
vt 0.5429 0.1668
vt 0.5585 0.0957
vt 0.5669 0.1395
vt 0.5519 0.1491
vt 0.5511 0.1763
vt 0.5582 0.1563
vt 0.5283 0.1831
vt 0.5382 0.2003
vt 0.6976 0.0864
vt 0.7516 0.1228
vt 0.9907 0.1417
vt 0.9907 0.1712
vn 0.3006474 0.2137074 -0.9294839
vn 0.3011501 0.2131625 -0.9294463
vn 0.3009152 0.2122646 -0.9297278
vn 0.2846748 0.217612 -0.933598
vn 0.2773126 0.2150974 -0.9363924
vn 0.1948764 0.2458761 -0.9495094
vn 0.1992645 0.243931 -0.9491003
vn 0.2764664 0.2167509 -0.9362614
vn 0.1022507 0.1615793 -0.9815482
vn 0.1996327 0.2432118 -0.9492075
vn 0.2745453 0.213994 -0.9374601
vn 0.1044274 0.1633659 -0.9810232
vn 0 0.1592136 -0.9872442
vn 0.301389 0.2115934 -0.9297274
vn 0.2996733 0.208216 -0.9310435
vn 0.3012359 0.2125842 -0.9295509
vn 0.3014838 0.2132495 -0.9293181
vn 0.3013707 0.2140225 -0.9291772
vn 0 0.1594219 -0.9872106
vn 0.09391055 0.1633857 -0.9820825
vn 0.1690926 0.1928028 -0.9665582
vn 0.2543686 0.2625768 -0.9307793
vn 0.1213081 0.1382004 -0.9829471
vn 0.2601456 0.2151346 -0.9412977
vn 0.08294931 0.1566114 -0.9841709
vn 0.2820765 0.2288211 -0.9317048
vn 0.287924 0.2181284 -0.9324805
vn 0.169613 0.2887111 -0.9422724
vn 0.2728373 0.2154469 -0.937626
vn 0.3013347 0.2131275 -0.9293944
vn 0.3009095 0.2138003 -0.9293777
vn 0.3012787 0.2149297 -0.9289975
vn 0.3012764 0.2134055 -0.9293495
vn 0.3012556 0.2123563 -0.9295966
vn 0.3016177 0.2126466 -0.9294128
vn 0.3018713 0.2122115 -0.9294299
vn 0.3025438 0.2096391 -0.929795
vn 0.3026242 0.2119599 -0.9292424
vn 0.3010243 0.2132166 -0.9294746
vn 0.3017974 0.213958 -0.9290535
vn 0.3010158 0.2125207 -0.9296367
vn 0.3030402 0.2042246 -0.9308378
vn 0.3021363 0.2117642 -0.9294459
vn 0.3022323 0.213185 -0.9290897
vn 0.3015048 0.2121898 -0.9295538
vn 0.2925445 0.1979995 -0.9355287
vn 0.303429 0.2121944 -0.9289265
vn 0.3277759 0.1897647 -0.9255012
vn 0.3091156 0.1778447 -0.9342477
vn 0 0.1601201 -0.9870976
vn 0 0.160675 -0.9870074
vn -0.3009158 0.2122636 -0.9297279
vn -0.3011496 0.2131625 -0.9294465
vn -0.3006519 0.213706 -0.9294828
vn -0.2846783 0.2176116 -0.933597
vn -0.2773138 0.2150978 -0.936392
vn -0.1948761 0.2458757 -0.9495096
vn -0.1992644 0.2439307 -0.9491004
vn -0.2764677 0.2167509 -0.936261
vn -0.1022508 0.1615792 -0.9815482
vn -0.1996328 0.2432111 -0.9492076
vn -0.2745478 0.2139925 -0.9374597
vn -0.1044275 0.1633661 -0.9810232
vn 0 0.1592136 -0.9872442
vn -0.3013893 0.2115927 -0.9297274
vn -0.2996733 0.208214 -0.9310439
vn -0.3012352 0.2125851 -0.9295509
vn -0.301481 0.2132502 -0.9293188
vn -0.3013696 0.2140225 -0.9291774
vn 0 0.1594219 -0.9872106
vn -0.09391073 0.1633855 -0.9820825
vn -0.1690924 0.1928028 -0.9665583
vn -0.2543698 0.2625754 -0.9307793
vn -0.1213069 0.1382007 -0.9829472
vn -0.2601498 0.2151348 -0.9412965
vn -0.08295038 0.1566112 -0.9841708
vn -0.2820781 0.2288225 -0.9317039
vn -0.2879251 0.2181278 -0.9324802
vn -0.3012761 0.2134045 -0.9293499
vn -0.3013338 0.2131267 -0.9293949
vn -0.3009081 0.213801 -0.929378
vn -0.3012786 0.2149288 -0.9289978
vn -0.3012556 0.2123563 -0.9295966
vn -0.3016175 0.2126476 -0.9294127
vn -0.3018714 0.2122132 -0.9294295
vn -0.3025407 0.2096425 -0.9297953
vn -0.302624 0.2119613 -0.9292423
vn -0.3010269 0.2132168 -0.9294738
vn -0.3017917 0.2139607 -0.9290547
vn -0.3010122 0.2125222 -0.9296375
vn -0.3030384 0.2042258 -0.9308381
vn -0.3021362 0.2117641 -0.9294459
vn -0.3022287 0.2131855 -0.9290909
vn -0.301499 0.2121914 -0.9295553
vn -0.2925437 0.1979993 -0.9355289
vn -0.3034287 0.2121945 -0.9289265
vn -0.327777 0.189766 -0.9255005
vn -0.3091159 0.177846 -0.9342474
vn -0.2728388 0.2154467 -0.9376255
vn -0.1696364 0.2887095 -0.9422687
vn 0 0.160675 -0.9870074
vn 0 0.1601201 -0.9870976
g Taillights_24_0
f 3/3/3 2/2/2 1/1/1
f 1/1/1 4/4/4 3/3/3
f 3/3/3 4/4/4 5/5/5
f 5/5/5 4/4/4 6/6/6
f 6/6/6 7/7/7 5/5/5
f 8/8/8 5/5/5 7/7/7
f 7/7/7 6/6/6 9/9/9
f 7/7/7 10/10/10 8/8/8
f 11/11/11 8/8/8 10/10/10
f 10/10/10 7/7/7 12/12/12
f 9/9/9 12/12/12 7/7/7
f 12/12/12 9/9/9 13/13/13
f 8/8/8 11/11/11 14/14/14
f 15/15/15 14/14/14 11/11/11
f 14/14/14 16/16/16 8/8/8
f 5/5/5 8/8/8 16/16/16
f 16/16/16 17/17/17 5/5/5
f 3/3/3 5/5/5 17/17/17
f 3/3/3 17/17/17 2/2/2
f 18/18/18 2/2/2 17/17/17
f 19/19/19 13/13/13 9/9/9
f 9/9/9 20/20/20 19/19/19
f 20/20/20 9/9/9 6/6/6
f 21/21/21 20/20/20 6/6/6
f 6/6/6 22/22/22 21/21/21
f 21/21/21 23/23/23 20/20/20
f 23/23/23 21/21/21 24/24/24
f 25/25/25 20/20/20 23/23/23
f 26/26/26 24/24/24 21/21/21
f 21/21/21 27/27/27 26/26/26
f 21/21/21 28/28/28 27/27/27
f 28/28/28 21/21/21 22/22/22
f 22/22/22 4/4/4 28/28/28
f 22/22/22 6/6/6 4/4/4
f 29/29/29 28/28/28 4/4/4
f 29/29/29 27/27/27 28/28/28
f 27/27/27 29/29/29 1/1/1
f 29/29/29 4/4/4 1/1/1
f 26/26/26 30/30/30 24/24/24
f 31/31/31 24/24/24 30/30/30
f 31/31/31 30/30/30 32/32/32
f 30/30/30 26/26/26 33/33/33
f 27/27/27 33/33/33 26/26/26
f 30/30/30 33/33/33 34/34/34
f 34/34/34 32/32/32 30/30/30
f 33/33/33 27/27/27 2/2/2
f 1/1/1 2/2/2 27/27/27
f 33/33/33 2/2/2 35/35/35
f 35/35/35 34/34/34 33/33/33
f 34/34/34 35/35/35 36/36/36
f 34/34/34 36/36/36 32/32/32
f 37/37/37 32/32/32 36/36/36
f 37/37/37 36/36/36 38/38/38
f 39/39/39 38/38/38 36/36/36
f 36/36/36 40/40/40 39/39/39
f 40/40/40 36/36/36 35/35/35
f 35/35/35 18/18/18 40/40/40
f 18/18/18 35/35/35 2/2/2
f 41/41/41 39/39/39 40/40/40
f 39/39/39 41/41/41 42/42/42
f 39/39/39 42/42/42 38/38/38
f 40/40/40 43/43/43 41/41/41
f 43/43/43 40/40/40 18/18/18
f 43/43/43 18/18/18 44/44/44
f 41/41/41 43/43/43 45/45/45
f 45/45/45 42/42/42 41/41/41
f 44/44/44 45/45/45 43/43/43
f 42/42/42 45/45/45 46/46/46
f 45/45/45 44/44/44 47/47/47
f 47/47/47 46/46/46 45/45/45
f 46/46/46 47/47/47 14/14/14
f 47/47/47 44/44/44 16/16/16
f 16/16/16 14/14/14 47/47/47
f 48/48/48 38/38/38 42/42/42
f 48/48/48 42/42/42 49/49/49
f 46/46/46 49/49/49 42/42/42
f 49/49/49 46/46/46 15/15/15
f 14/14/14 15/15/15 46/46/46
f 17/17/17 44/44/44 18/18/18
f 17/17/17 16/16/16 44/44/44
f 51/51/51 50/50/50 25/25/25
f 20/20/20 25/25/25 50/50/50
f 50/50/50 19/19/19 20/20/20
f 54/54/54 53/53/53 52/52/52
f 55/55/55 54/54/54 52/52/52
f 56/56/56 55/55/55 52/52/52
f 57/57/57 55/55/55 56/56/56
f 56/56/56 58/58/58 57/57/57
f 58/58/58 56/56/56 59/59/59
f 60/60/60 57/57/57 58/58/58
f 59/59/59 61/61/61 58/58/58
f 61/61/61 59/59/59 62/62/62
f 63/63/63 58/58/58 61/61/61
f 58/58/58 63/63/63 60/60/60
f 64/64/64 60/60/60 63/63/63
f 65/65/65 62/62/62 59/59/59
f 62/62/62 65/65/65 66/66/66
f 59/59/59 67/67/67 65/65/65
f 67/67/67 59/59/59 56/56/56
f 56/56/56 68/68/68 67/67/67
f 68/68/68 53/53/53 69/69/69
f 60/60/60 64/64/64 70/70/70
f 70/70/70 71/71/71 60/60/60
f 57/57/57 60/60/60 71/71/71
f 57/57/57 71/71/71 72/72/72
f 72/72/72 73/73/73 57/57/57
f 71/71/71 74/74/74 72/72/72
f 75/75/75 72/72/72 74/74/74
f 74/74/74 71/71/71 76/76/76
f 72/72/72 75/75/75 77/77/77
f 77/77/77 78/78/78 72/72/72
f 53/53/53 78/78/78 79/79/79
f 77/77/77 79/79/79 78/78/78
f 79/79/79 77/77/77 80/80/80
f 75/75/75 80/80/80 77/77/77
f 80/80/80 75/75/75 81/81/81
f 82/82/82 80/80/80 81/81/81
f 83/83/83 79/79/79 80/80/80
f 80/80/80 82/82/82 83/83/83
f 84/84/84 53/53/53 79/79/79
f 79/79/79 83/83/83 84/84/84
f 85/85/85 84/84/84 83/83/83
f 82/82/82 85/85/85 83/83/83
f 85/85/85 82/82/82 86/86/86
f 87/87/87 85/85/85 86/86/86
f 85/85/85 87/87/87 88/88/88
f 88/88/88 89/89/89 85/85/85
f 84/84/84 85/85/85 89/89/89
f 89/89/89 69/69/69 84/84/84
f 89/89/89 88/88/88 90/90/90
f 91/91/91 90/90/90 88/88/88
f 87/87/87 91/91/91 88/88/88
f 90/90/90 92/92/92 89/89/89
f 69/69/69 89/89/89 92/92/92
f 93/93/93 69/69/69 92/92/92
f 94/94/94 92/92/92 90/90/90
f 90/90/90 91/91/91 94/94/94
f 92/92/92 94/94/94 93/93/93
f 95/95/95 94/94/94 91/91/91
f 96/96/96 93/93/93 94/94/94
f 94/94/94 95/95/95 96/96/96
f 65/65/65 96/96/96 95/95/95
f 67/67/67 93/93/93 96/96/96
f 96/96/96 65/65/65 67/67/67
f 91/91/91 87/87/87 97/97/97
f 98/98/98 91/91/91 97/97/97
f 91/91/91 98/98/98 95/95/95
f 66/66/66 95/95/95 98/98/98
f 95/95/95 66/66/66 65/65/65
f 69/69/69 93/93/93 68/68/68
f 93/93/93 67/67/67 68/68/68
f 53/53/53 84/84/84 69/69/69
f 53/53/53 68/68/68 52/52/52
f 68/68/68 56/56/56 52/52/52
f 78/78/78 53/53/53 54/54/54
f 54/54/54 99/99/99 78/78/78
f 100/100/100 78/78/78 99/99/99
f 78/78/78 100/100/100 72/72/72
f 55/55/55 100/100/100 99/99/99
f 54/54/54 55/55/55 99/99/99
f 100/100/100 55/55/55 73/73/73
f 73/73/73 72/72/72 100/100/100
f 55/55/55 57/57/57 73/73/73
f 76/76/76 102/102/102 101/101/101
f 102/102/102 76/76/76 71/71/71
f 71/71/71 70/70/70 102/102/102
