g ref_32
v 0.7232 0.5318996 2.1302
v 0.4944 0.6590996 2.1515
v 0.6964 0.6588997 2.0935
v 0.5194 0.5317996 2.1983
v 0.4224 0.5316997 2.2252
v 0.3856 0.6592997 2.1816
v -0.7232 0.5318996 2.1302
v -0.4944 0.6590996 2.1515
v -0.5194 0.5317996 2.1983
v -0.6964 0.6588997 2.0935
v -0.4224 0.5316997 2.2252
v -0.3856 0.6592997 2.1816
vt 0.7905 0.7787
vt 0.6957 0.8326
vt 0.783 0.8342
vt 0.7013 0.7756
vt 0.6595 0.775
vt 0.6488 0.832
vt 0.2094 0.7829
vt 0.3029 0.8391
vt 0.2986 0.782
vt 0.2156 0.8386
vt 0.3405 0.7824
vt 0.3498 0.8396
vn 0.2737443 0.341856 0.8989986
vn 0.2638715 0.3679521 0.8916183
vn 0.2618945 0.3185283 0.9110165
vn 0.2712389 0.3785968 0.884926
vn 0.2473914 0.376621 0.8927229
vn 0.2476633 0.3764604 0.8927152
vn -0.2737441 0.3418558 0.8989988
vn -0.2638716 0.367952 0.8916183
vn -0.2712391 0.3785967 0.8849259
vn -0.261894 0.3185281 0.9110167
vn -0.2473914 0.376621 0.8927229
vn -0.2476633 0.3764604 0.8927152
g ref_32_0
f 3/3/3 2/2/2 1/1/1
f 4/4/4 1/1/1 2/2/2
f 2/2/2 5/5/5 4/4/4
f 6/6/6 5/5/5 2/2/2
f 9/9/9 8/8/8 7/7/7
f 10/10/10 7/7/7 8/8/8
f 11/11/11 8/8/8 9/9/9
f 11/11/11 12/12/12 8/8/8
