g Taillights_32
v 0.3644 0.8975003 -2.0795
v 0.4147 0.7747003 -2.0903
v 0.4425 0.8969003 -2.0714
v 0.5034 0.7732003 -2.0776
v 0.5495 0.8954003 -2.0582
v 0.5938 0.6841003 -2.0723
v 0.6103 0.8934003 -2.0428
v 0.647 0.6842003 -2.0582
v 0.6597 0.8890003 -2.0229
v 0.6968 0.6844003 -2.0315
v 0.7101 0.8747003 -1.9751
v 0.7365 0.6849003 -1.961
v 0.7392 0.7785004 -1.9196
v 0.7613 0.6853004 -1.896
v -0.3644 0.8975003 -2.0795
v -0.4425 0.8969003 -2.0714
v -0.4147 0.7747003 -2.0903
v -0.5034 0.7732003 -2.0776
v -0.5495 0.8954003 -2.0582
v -0.5938 0.6841003 -2.0723
v -0.6103 0.8934003 -2.0428
v -0.647 0.6842003 -2.0582
v -0.6597 0.8890003 -2.0229
v -0.6968 0.6844003 -2.0315
v -0.7101 0.8747003 -1.9751
v -0.7365 0.6849003 -1.961
v -0.7392 0.7785004 -1.9196
v -0.7613 0.6853004 -1.896
vt 0.9874 0.2388
vt 0.9474 0.1144
vt 0.9105 0.2332
vt 0.8597 0.1077
vt 0.805 0.2252
vt 0.7765 0.0148
vt 0.7436 0.2202
vt 0.7226 0.0123
vt 0.6916 0.2143
vt 0.6672 0.0115
vt 0.6231 0.2017
vt 0.5879 0.0164
vt 0.5556 0.1115
vt 0.5199 0.0215
vt 0.9874 0.2388
vt 0.9105 0.2332
vt 0.9474 0.1144
vt 0.8597 0.1077
vt 0.805 0.2252
vt 0.7765 0.0148
vt 0.7436 0.2202
vt 0.7226 0.0123
vt 0.6916 0.2143
vt 0.6672 0.0115
vt 0.6231 0.2017
vt 0.5879 0.0164
vt 0.5556 0.1115
vt 0.5199 0.0215
vn 0.1032861 0.1290431 -0.9862453
vn 0.1304101 0.122503 -0.9838629
vn 0.1189599 0.1202746 -0.9855874
vn 0.1444227 0.1066218 -0.983755
vn 0.1828461 0.1106601 -0.9768938
vn 0.2282575 0.111098 -0.9672413
vn 0.3068351 0.1241811 -0.9436266
vn 0.3655661 0.1205452 -0.9229465
vn 0.5307729 0.1448699 -0.8350406
vn 0.6861331 0.1140769 -0.7184761
vn 0.7914761 0.1373856 -0.5955592
vn 0.905755 0.1057678 -0.4103914
vn 0.940914 0.1139157 -0.3189106
vn 0.926118 0.1299308 -0.3541518
vn -0.1032861 0.1290431 -0.9862453
vn -0.1189599 0.1202746 -0.9855874
vn -0.1304101 0.122503 -0.9838629
vn -0.1444228 0.1066218 -0.983755
vn -0.1828461 0.1106601 -0.9768938
vn -0.2282575 0.111098 -0.9672413
vn -0.3068351 0.1241811 -0.9436266
vn -0.3655661 0.1205452 -0.9229465
vn -0.5307729 0.1448699 -0.8350406
vn -0.686133 0.1140769 -0.7184761
vn -0.7914761 0.1373856 -0.5955592
vn -0.905755 0.1057678 -0.4103914
vn -0.940914 0.1139157 -0.3189106
vn -0.926118 0.1299308 -0.3541518
g Taillights_32_0
f 3/3/3 2/2/2 1/1/1
f 4/4/4 2/2/2 3/3/3
f 5/5/5 4/4/4 3/3/3
f 4/4/4 5/5/5 6/6/6
f 5/5/5 7/7/7 6/6/6
f 6/6/6 7/7/7 8/8/8
f 7/7/7 9/9/9 8/8/8
f 8/8/8 9/9/9 10/10/10
f 9/9/9 11/11/11 10/10/10
f 10/10/10 11/11/11 12/12/12
f 11/11/11 13/13/13 12/12/12
f 13/13/13 14/14/14 12/12/12
f 17/17/17 16/16/16 15/15/15
f 17/17/17 18/18/18 16/16/16
f 18/18/18 19/19/19 16/16/16
f 19/19/19 18/18/18 20/20/20
f 21/21/21 19/19/19 20/20/20
f 21/21/21 20/20/20 22/22/22
f 23/23/23 21/21/21 22/22/22
f 23/23/23 22/22/22 24/24/24
f 25/25/25 23/23/23 24/24/24
f 25/25/25 24/24/24 26/26/26
f 27/27/27 25/25/25 26/26/26
f 28/28/28 27/27/27 26/26/26
