g model_car_101_matte_detail_LOD1
v 0.4665654 0.4549841 2.19328
v 0.476936 0.4652273 2.1923
v 0.493125 0.4312323 2.189266
v 0.4781033 0.4103663 2.191
v 0.4505064 0.4915555 2.196311
v 0.4150685 0.488649 2.200954
v 0.4159446 0.4236097 2.200684
v 0.3532946 0.4353348 2.209859
v 0.3535026 0.5158558 2.209872
v 0.3853008 0.5308515 2.205886
v 0.4196156 0.5117638 2.20077
v 0.3588348 0.542873 2.209568
v 0.3141286 0.4380308 2.212908
v 0.314165 0.5220408 2.212934
v 0.2604972 0.4382101 2.214489
v 0.2603152 0.5224542 2.214523
v 0.1855553 0.5224542 2.21602
v 0.2583992 0.5522687 2.215126
v 0.1826435 0.5522687 2.216691
v 0.08274353 0.5522687 2.218163
v 0.08424622 0.5224542 2.217429
v -4.172325E-07 0.5517669 2.218464
v -4.172325E-07 0.5224542 2.217645
v 0.1858335 0.4382101 2.215981
v 0.08438921 0.4382101 2.217382
v -4.172325E-07 0.4382101 2.217598
v 0.3145446 0.5517852 2.21334
v 0.2605934 0.3395243 2.214473
v 0.3141104 0.3395243 2.212895
v 0.1859791 0.3395243 2.215961
v 0.08446458 0.3395243 2.217359
v -4.172325E-07 0.3395243 2.217575
v 0.3141104 0.2935363 2.212895
v 0.2605934 0.2935363 2.214473
v 0.353188 0.2935363 2.209851
v 0.353188 0.3395243 2.209851
v 0.4168936 0.3397036 2.200515
v 0.4875822 0.3410815 2.189606
v 0.5016913 0.3914865 2.187513
v 0.5058952 0.3432472 2.187243
v 0.4170989 0.2936455 2.200577
v -4.172325E-07 0.2937599 2.217396
v 0.4890303 0.2942747 2.190038
v 0.5076241 0.2942227 2.187758
v 0.08446458 0.2935363 2.217359
v 0.1859791 0.2935363 2.215961
v 0.3335855 0.5503423 2.212201
v -0.4665662 0.4549841 2.19328
v -0.4781041 0.4103663 2.191
v -0.4931232 0.4312323 2.189266
v -0.4769342 0.4652273 2.1923
v -0.4505072 0.4915555 2.196311
v -0.4150693 0.488649 2.200954
v -0.4159455 0.4236097 2.200684
v -0.3532954 0.4353348 2.209859
v -0.3535008 0.5158558 2.209872
v -0.385299 0.5308515 2.205886
v -0.4196163 0.5117638 2.20077
v -0.3588356 0.542873 2.209568
v -0.3141294 0.4380308 2.212908
v -0.3141658 0.5220408 2.212934
v -0.260498 0.4382101 2.214489
v -0.2603135 0.5224542 2.214523
v -0.1855561 0.5224542 2.21602
v -0.2584 0.5522687 2.215126
v -0.1826417 0.5522687 2.216691
v -0.0827443 0.5522687 2.218163
v -0.08424699 0.5224542 2.217429
v -4.172325E-07 0.5517669 2.218464
v -4.172325E-07 0.5224542 2.217645
v -0.1858343 0.4382101 2.215981
v -0.08438998 0.4382101 2.217382
v -4.172325E-07 0.4382101 2.217598
v -0.3145453 0.5517852 2.21334
v -0.2605942 0.3395243 2.214473
v -0.3141086 0.3395243 2.212895
v -0.1859799 0.3395243 2.215961
v -0.3531888 0.3395243 2.209851
v -0.4168918 0.3397036 2.200515
v -0.487583 0.3410815 2.189606
v -0.08446538 0.3395243 2.217359
v -4.172325E-07 0.3395243 2.217575
v -0.5016895 0.3914865 2.187513
v -0.505896 0.3432472 2.187243
v -0.3141086 0.2935363 2.212895
v -0.2605942 0.2935363 2.214473
v -0.3531888 0.2935363 2.209851
v -0.4170972 0.2936455 2.200577
v -4.172325E-07 0.2937599 2.217396
v -0.08446538 0.2935363 2.217359
v -0.1859799 0.2935363 2.215961
v -0.4890311 0.2942747 2.190038
v -0.5076249 0.2942227 2.187758
v -0.3335863 0.5503423 2.212201
vt 2.959301 0.1585006
vt 2.969521 0.1685711
vt 2.985668 0.1351897
vt 2.970825 0.1147053
vt 2.94328 0.1944111
vt 2.908205 0.1915501
vt 2.909086 0.1277169
vt 2.846935 0.1392293
vt 2.847141 0.2182713
vt 2.8786 0.2329879
vt 2.912645 0.2142431
vt 2.852382 0.2447865
vt 2.808381 0.1418842
vt 2.808415 0.2243479
vt 2.755717 0.1420559
vt 2.755534 0.2247484
vt 2.682134 0.2247484
vt 2.753634 0.2540101
vt 2.679273 0.2540216
vt 2.581211 0.2540216
vt 2.582687 0.2247484
vt 2.499995 0.2535295
vt 2.499995 0.2247484
vt 2.682408 0.1420559
vt 2.582836 0.1420559
vt 2.499995 0.1420673
vt 2.80877 0.2535409
vt 2.755797 0.04519599
vt 2.808347 0.04519599
vt 2.682557 0.04519599
vt 2.582905 0.04519599
vt 2.499995 0.04519599
vt 2.808347 5.039308E-05
vt 2.755797 5.039308E-05
vt 2.846821 5.039308E-05
vt 2.846821 0.04518455
vt 2.910024 0.0453562
vt 2.98022 0.04670656
vt 2.994228 0.0961779
vt 2.998347 0.04882366
vt 2.910208 0.0001533868
vt 2.499995 0.0002792681
vt 2.981559 0.0007599057
vt 2.999949 0.0007026869
vt 2.582905 6.183684E-05
vt 2.682557 6.183684E-05
vt 2.827481 0.2521219
vt 2.0407 0.1585006
vt 2.029176 0.1147053
vt 2.014333 0.1351897
vt 2.030481 0.1685711
vt 2.056721 0.1944111
vt 2.091796 0.1915501
vt 2.090915 0.1277169
vt 2.153066 0.1392293
vt 2.15286 0.2182713
vt 2.121401 0.2329879
vt 2.087345 0.2142431
vt 2.147608 0.2447865
vt 2.19162 0.1418842
vt 2.191586 0.2243479
vt 2.244284 0.1420559
vt 2.244467 0.2247484
vt 2.317856 0.2247484
vt 2.246367 0.2540101
vt 2.320729 0.2540216
vt 2.41879 0.2540216
vt 2.417314 0.2247484
vt 2.499995 0.2535295
vt 2.499995 0.2247484
vt 2.317593 0.1420559
vt 2.417165 0.1420559
vt 2.499995 0.1420673
vt 2.191231 0.2535409
vt 2.244193 0.04519599
vt 2.191643 0.04519599
vt 2.317444 0.04519599
vt 2.153169 0.04518455
vt 2.089977 0.0453562
vt 2.019781 0.04670656
vt 2.417096 0.04519599
vt 2.499995 0.04519599
vt 2.005774 0.0961779
vt 2.001654 0.04882366
vt 2.191654 5.039308E-05
vt 2.244204 5.039308E-05
vt 2.153181 5.039308E-05
vt 2.089794 0.0001533868
vt 2.499995 0.0002792681
vt 2.417096 6.183684E-05
vt 2.317444 6.183684E-05
vt 2.018442 0.0007599057
vt 2.000052 0.0007026869
vt 2.17252 0.2521219
vn 0.1428378 -0.01158133 0.9896784
vn 0.1300669 -0.02364275 0.9912233
vn 0.1321954 -0.01938578 0.9910341
vn 0.1499327 -0.0023579 0.9886934
vn 0.1293574 -0.02435222 0.991299
vn 0.1428378 -0.00590539 0.9897285
vn 0.1470947 -0.001648426 0.989121
vn 0.117296 -0.0002294183 0.9930969
vn 0.1094916 -0.004486382 0.9939776
vn 0.1350333 -0.02009526 0.9906372
vn 0.1343239 -0.02009526 0.9907337
vn 0.09530166 -0.01796678 0.9952863
vn 0.04989403 -0.0002294183 0.9987545
vn 0.04776555 -0.004486382 0.9988485
vn 0.02364275 -0.0002294183 0.9997205
vn 0.02435222 -0.005195886 0.9996899
vn 0.0165478 -0.00590539 0.9998456
vn 0.02435222 -0.01796678 0.999542
vn 0.0165478 -0.02151427 0.9996316
vn 0.008743346 -0.02435222 0.9996652
vn 0.008743346 -0.006614864 0.9999399
vn 0.0002294183 -0.0264807 0.9996493
vn 0.0002294183 -0.007324368 0.9999731
vn 0.0165478 -0.0002294183 0.999863
vn 0.008743346 -0.0002294183 0.9999617
vn 0.0002294183 -0.0002294183 0.9999999
vn 0.03428516 -0.0158383 0.9992866
vn 0.02364275 -0.0002294183 0.9997205
vn 0.04989403 -0.0002294183 0.9987545
vn 0.0165478 -0.0002294183 0.999863
vn 0.008743346 -0.0002294183 0.9999617
vn 0.0002294183 -0.0002294183 0.9999999
vn 0.2719657 0.002608538 0.9623034
vn 0.177603 0.1544403 0.9719081
vn -0.1154181 0.003318042 0.9933115
vn 0.118715 -0.0002294183 0.9929284
vn 0.1478042 0.001899064 0.9890148
vn 0.1470947 0.004027545 0.9891142
vn 0.1385808 0.0004800558 0.990351
vn 0.1329049 0.006865501 0.991105
vn 0.367038 0.006156027 0.9301856
vn 0.1499327 0.1480549 0.9775479
vn -0.08349091 0.01679844 0.996367
vn -0.3587747 0.129608 0.9243822
vn 0.1591562 0.1501833 0.9757634
vn 0.2329436 -0.0002294183 0.9724903
vn 0.08040228 -0.01796678 0.9966006
vn -0.1430884 -0.01158133 0.9896421
vn -0.1494739 -0.0023579 0.9887629
vn -0.1317365 -0.01938578 0.9910952
vn -0.129608 -0.02364275 0.9912834
vn -0.1288985 -0.02506173 0.9913411
vn -0.142379 -0.00590539 0.9897946
vn -0.1473454 -0.001648426 0.9890837
vn -0.1168371 -0.0002294183 0.9931511
vn -0.1097422 -0.004486382 0.9939499
vn -0.1345745 -0.02009526 0.9906997
vn -0.1345745 -0.02009526 0.9906997
vn -0.0955523 -0.01796678 0.9952623
vn -0.04943517 -0.0002294183 0.9987773
vn -0.04801619 -0.004486382 0.9988365
vn -0.02389339 -0.0002294183 0.9997145
vn -0.02389339 -0.005195886 0.999701
vn -0.01679844 -0.00590539 0.9998415
vn -0.02460286 -0.01796678 0.9995359
vn -0.01679844 -0.02151427 0.9996274
vn -0.008993983 -0.02435222 0.999663
vn -0.008993983 -0.006614864 0.9999377
vn 0.0002294183 -0.0264807 0.9996493
vn 0.0002294183 -0.007324368 0.9999731
vn -0.01679844 -0.0002294183 0.9998589
vn -0.008993983 -0.0002294183 0.9999595
vn 0.0002294183 -0.0002294183 0.9999999
vn -0.0345358 -0.0158383 0.9992779
vn -0.02389339 -0.0002294183 0.9997145
vn -0.04943517 -0.0002294183 0.9987773
vn -0.01608893 -0.0002294183 0.9998705
vn -0.1182561 -0.0002294183 0.9929831
vn -0.1480549 0.001899064 0.9889773
vn -0.1473454 0.004027545 0.9890769
vn -0.008284509 -0.0002294183 0.9999657
vn 0.0002294183 -0.0002294183 0.9999999
vn -0.1388315 0.0004800558 0.9903159
vn -0.1331555 0.006865501 0.9910714
vn 0.1045251 0.1544403 0.9824575
vn 0.1932119 -0.0002294183 0.9811571
vn 0.04705605 0.1622448 0.9856279
vn 0.0165478 0.1643732 0.9862594
vn 0.1499327 0.1480549 0.9775479
vn 0.2066923 -0.0002294183 0.978406
vn 0.1364523 0.1530214 0.978757
vn 0.01796678 0.1679207 0.9856368
vn 0.3585241 0.129608 0.9244794
vn -0.08065292 -0.01796678 0.9965803
g model_car_101_matte_detail_LOD1_0
f 3/3/3 2/2/2 1/1/1
f 4/4/4 3/3/3 1/1/1
f 1/1/1 2/2/2 5/5/5
f 6/6/6 1/1/1 5/5/5
f 1/1/1 6/6/6 7/7/7
f 4/4/4 1/1/1 7/7/7
f 7/7/7 6/6/6 8/8/8
f 6/6/6 9/9/9 8/8/8
f 9/9/9 6/6/6 10/10/10
f 6/6/6 11/11/11 10/10/10
f 6/6/6 5/5/5 11/11/11
f 9/9/9 10/10/10 12/12/12
f 8/8/8 9/9/9 13/13/13
f 9/9/9 14/14/14 13/13/13
f 13/13/13 14/14/14 15/15/15
f 14/14/14 16/16/16 15/15/15
f 16/16/16 17/17/17 15/15/15
f 16/16/16 18/18/18 17/17/17
f 16/16/16 14/14/14 18/18/18
f 18/18/18 19/19/19 17/17/17
f 17/17/17 19/19/19 20/20/20
f 21/21/21 17/17/17 20/20/20
f 21/21/21 20/20/20 22/22/22
f 23/23/23 21/21/21 22/22/22
f 17/17/17 24/24/24 15/15/15
f 17/17/17 21/21/21 25/25/25
f 24/24/24 17/17/17 25/25/25
f 21/21/21 23/23/23 25/25/25
f 23/23/23 26/26/26 25/25/25
f 14/14/14 27/27/27 18/18/18
f 13/13/13 15/15/15 28/28/28
f 15/15/15 24/24/24 28/28/28
f 29/29/29 13/13/13 28/28/28
f 24/24/24 30/30/30 28/28/28
f 24/24/24 25/25/25 31/31/31
f 30/30/30 24/24/24 31/31/31
f 25/25/25 26/26/26 31/31/31
f 26/26/26 32/32/32 31/31/31
f 33/33/33 29/29/29 28/28/28
f 34/34/34 33/33/33 28/28/28
f 33/33/33 35/35/35 29/29/29
f 35/35/35 36/36/36 29/29/29
f 36/36/36 8/8/8 29/29/29
f 8/8/8 13/13/13 29/29/29
f 7/7/7 8/8/8 36/36/36
f 37/37/37 7/7/7 36/36/36
f 4/4/4 7/7/7 37/37/37
f 38/38/38 4/4/4 37/37/37
f 4/4/4 38/38/38 39/39/39
f 4/4/4 39/39/39 3/3/3
f 38/38/38 40/40/40 39/39/39
f 41/41/41 37/37/37 36/36/36
f 35/35/35 41/41/41 36/36/36
f 32/32/32 42/42/42 31/31/31
f 43/43/43 38/38/38 37/37/37
f 41/41/41 43/43/43 37/37/37
f 38/38/38 43/43/43 40/40/40
f 43/43/43 44/44/44 40/40/40
f 42/42/42 45/45/45 31/31/31
f 45/45/45 46/46/46 31/31/31
f 46/46/46 30/30/30 31/31/31
f 30/30/30 46/46/46 28/28/28
f 46/46/46 34/34/34 28/28/28
f 9/9/9 12/12/12 47/47/47
f 14/14/14 9/9/9 47/47/47
f 47/47/47 27/27/27 14/14/14
f 50/50/50 49/49/49 48/48/48
f 51/51/51 50/50/50 48/48/48
f 51/51/51 48/48/48 52/52/52
f 48/48/48 53/53/53 52/52/52
f 48/48/48 49/49/49 54/54/54
f 53/53/53 48/48/48 54/54/54
f 53/53/53 54/54/54 55/55/55
f 56/56/56 53/53/53 55/55/55
f 53/53/53 56/56/56 57/57/57
f 58/58/58 53/53/53 57/57/57
f 52/52/52 53/53/53 58/58/58
f 57/57/57 56/56/56 59/59/59
f 56/56/56 55/55/55 60/60/60
f 61/61/61 56/56/56 60/60/60
f 61/61/61 60/60/60 62/62/62
f 63/63/63 61/61/61 62/62/62
f 64/64/64 63/63/63 62/62/62
f 65/65/65 63/63/63 64/64/64
f 61/61/61 63/63/63 65/65/65
f 66/66/66 65/65/65 64/64/64
f 66/66/66 64/64/64 67/67/67
f 64/64/64 68/68/68 67/67/67
f 67/67/67 68/68/68 69/69/69
f 68/68/68 70/70/70 69/69/69
f 71/71/71 64/64/64 62/62/62
f 64/64/64 71/71/71 72/72/72
f 68/68/68 64/64/64 72/72/72
f 70/70/70 68/68/68 72/72/72
f 73/73/73 70/70/70 72/72/72
f 74/74/74 61/61/61 65/65/65
f 62/62/62 60/60/60 75/75/75
f 71/71/71 62/62/62 75/75/75
f 60/60/60 76/76/76 75/75/75
f 77/77/77 71/71/71 75/75/75
f 60/60/60 55/55/55 76/76/76
f 55/55/55 78/78/78 76/76/76
f 55/55/55 54/54/54 78/78/78
f 54/54/54 79/79/79 78/78/78
f 54/54/54 49/49/49 79/79/79
f 49/49/49 80/80/80 79/79/79
f 71/71/71 77/77/77 81/81/81
f 72/72/72 71/71/71 81/81/81
f 73/73/73 72/72/72 81/81/81
f 82/82/82 73/73/73 81/81/81
f 80/80/80 49/49/49 83/83/83
f 83/83/83 49/49/49 50/50/50
f 84/84/84 80/80/80 83/83/83
f 76/76/76 85/85/85 75/75/75
f 85/85/85 86/86/86 75/75/75
f 87/87/87 85/85/85 76/76/76
f 78/78/78 87/87/87 76/76/76
f 88/88/88 87/87/87 78/78/78
f 79/79/79 88/88/88 78/78/78
f 89/89/89 82/82/82 81/81/81
f 90/90/90 89/89/89 81/81/81
f 91/91/91 90/90/90 81/81/81
f 77/77/77 91/91/91 81/81/81
f 91/91/91 77/77/77 75/75/75
f 86/86/86 91/91/91 75/75/75
f 92/92/92 80/80/80 84/84/84
f 92/92/92 88/88/88 79/79/79
f 80/80/80 92/92/92 79/79/79
f 93/93/93 92/92/92 84/84/84
f 56/56/56 61/61/61 94/94/94
f 59/59/59 56/56/56 94/94/94
f 74/74/74 94/94/94 61/61/61
