g model_car_101_matte_mirror_LOD1
v 0.9205203 1.051269 0.2196875
v 0.8657687 1.060246 0.2449043
v 0.8443589 0.939906 0.2546502
v 0.9314883 0.9438344 0.2149841
v 0.8327085 1.055196 0.260406
v 0.8309409 0.9449544 0.2610537
v 0.8228855 1.041171 0.2649533
v 0.822018 0.9572988 0.2651383
v 0.8175557 0.9957273 0.2671815
v 0.9453959 0.9526378 0.2082067
v 0.9498969 1.037109 0.2060863
v 0.9568343 0.967116 0.2028556
v 0.9609864 1.027145 0.201061
v -0.9205201 1.051269 0.2196875
v -0.9314882 0.9438344 0.2149841
v -0.8443588 0.939906 0.2546502
v -0.8657706 1.060246 0.2449043
v -0.8327084 1.055196 0.260406
v -0.8309426 0.9449544 0.2610537
v -0.8228853 1.041171 0.2649533
v -0.8220198 0.9572988 0.2651383
v -0.8175575 0.9957273 0.2671815
v -0.9453958 0.9526378 0.2082067
v -0.9498967 1.037109 0.2060863
v -0.9568342 0.967116 0.2028556
v -0.9609863 1.027145 0.201061
v -0.9633726 0.9971306 0.199916
vn -0.4193848 -0.001244485 -0.9078077
vn -0.4202144 0.0004147887 -0.9074247
vn -0.4210441 0.0004147887 -0.9070401
vn -0.4202144 -0.001244485 -0.907424
vn -0.4243626 0.002074093 -0.90549
vn -0.4243626 0.002074093 -0.90549
vn -0.4177254 0.002074093 -0.9085709
vn -0.4177254 0.002074093 -0.9085709
vn -0.4011326 0.002074093 -0.9160177
vn -0.4243626 -0.001244485 -0.9054915
vn -0.423533 -0.001244485 -0.9058799
vn -0.4185551 0.0004147887 -0.9081913
vn -0.4185551 0.0004147887 -0.9081913
vn 0.4193848 -0.001244485 -0.9078077
vn 0.4202144 -0.001244485 -0.907424
vn 0.4210441 0.0004147887 -0.9070401
vn 0.4202144 0.0004147887 -0.9074247
vn 0.4243627 0.002074093 -0.90549
vn 0.4243627 0.002074093 -0.90549
vn 0.4177255 0.002074093 -0.9085709
vn 0.4177255 0.002074093 -0.9085709
vn 0.4011326 0.002074093 -0.9160177
vn 0.4243627 -0.001244485 -0.9054915
vn 0.423533 -0.001244485 -0.9058798
vn 0.4185551 0.0004147887 -0.9081913
vn 0.4185551 0.0004147887 -0.9081913
vn 0.4160662 0.001244426 -0.9093335
g model_car_101_matte_mirror_LOD1_0
f 3/3/3 2/2/2 1/1/1
f 4/4/4 3/3/3 1/1/1
f 2/2/2 3/3/3 5/5/5
f 3/3/3 6/6/6 5/5/5
f 5/5/5 6/6/6 7/7/7
f 6/6/6 8/8/8 7/7/7
f 8/8/8 9/9/9 7/7/7
f 4/4/4 1/1/1 10/10/10
f 1/1/1 11/11/11 10/10/10
f 10/10/10 11/11/11 12/12/12
f 11/11/11 13/13/13 12/12/12
f 16/16/16 15/15/15 14/14/14
f 17/17/17 16/16/16 14/14/14
f 16/16/16 17/17/17 18/18/18
f 19/19/19 16/16/16 18/18/18
f 19/19/19 18/18/18 20/20/20
f 21/21/21 19/19/19 20/20/20
f 22/22/22 21/21/21 20/20/20
f 14/14/14 15/15/15 23/23/23
f 24/24/24 14/14/14 23/23/23
f 24/24/24 23/23/23 25/25/25
f 26/26/26 24/24/24 25/25/25
f 27/27/27 26/26/26 25/25/25
