g ref_35
v 0.7337 0.7771997 1.9615
v 0.7548 0.7961997 1.8785
v 0.8642 0.7799997 1.7735
v 0.597 0.7804996 2.0271
v 0.5466 0.7539997 2.1171
v 0.858 0.7395997 1.8834
v 0.8495 0.6909997 1.9554
v 0.7122 0.7376996 2.0566
v 0.4888 0.7168986 2.2059
v 0.6995 0.6970996 2.1092
v 0.8299 0.6511996 2.0321
v 0.4521 0.6642987 2.2445
v 0.8016 0.6373987 2.0808
v 0.6909 0.6563987 2.147
v 0.682 0.6195986 2.1728
v 0.7649 0.6280996 2.1199
v 0.5496 0.6083986 2.2405
v 0.4128 0.6027986 2.2879
v -0.7337 0.7771997 1.9615
v -0.8642 0.7799997 1.7735
v -0.7548 0.7961997 1.8785
v -0.597 0.7804996 2.0271
v -0.5466 0.7539997 2.1171
v -0.858 0.7395997 1.8834
v -0.8495 0.6909997 1.9554
v -0.7122 0.7376996 2.0566
v -0.4888 0.7168986 2.2059
v -0.6995 0.6970996 2.1092
v -0.8299 0.6511996 2.0321
v -0.4521 0.6642987 2.2445
v -0.8016 0.6373987 2.0808
v -0.6909 0.6563987 2.147
v -0.682 0.6195986 2.1728
v -0.7649 0.6280996 2.1199
v -0.5496 0.6083986 2.2405
v -0.4128 0.6027986 2.2879
vt 1 1
vt 1 1
vt 1 1
vt 1 1
vt 1 1
vt 1 1
vt 1 1
vt 1 1
vt 1 1
vt 1 1
vt 1 1
vt 1 1
vt 1 1
vt 1 1
vt 1 1
vt 1 1
vt 1 1
vt 1 1
vt 1 1
vt 1 1
vt 1 1
vt 1 1
vt 1 1
vt 1 1
vt 1 1
vt 1 1
vt 1 1
vt 1 1
vt 1 1
vt 1 1
vt 1 1
vt 1 1
vt 1 1
vt 1 1
vt 1 1
vt 1 1
vn 0.3475878 0.8641554 0.3638933
vn 0.3684545 0.8814502 0.2954435
vn 0.4464423 0.8347415 0.3223289
vn 0.1976285 0.9093549 0.3660826
vn 0.2571723 0.8346345 0.4870808
vn 0.4871161 0.7753114 0.4020076
vn 0.5522779 0.6763216 0.4874198
vn 0.4190521 0.7509498 0.5103623
vn 0.401155 0.4491557 0.7983319
vn 0.4370843 0.6152245 0.6560915
vn 0.5657167 0.6496832 0.5078152
vn 0.3283502 0.4366745 0.8375568
vn 0.5230611 0.6544141 0.5460305
vn 0.402161 0.5294709 0.7469452
vn 0.3804294 0.4740958 0.7940445
vn 0.4678089 0.6216686 0.628238
vn 0.3319359 0.5227749 0.7851911
vn 0.2803176 0.4274157 0.8594986
vn -0.3475878 0.8641554 0.3638933
vn -0.4464423 0.8347415 0.3223289
vn -0.3684545 0.8814502 0.2954435
vn -0.1976285 0.9093549 0.3660826
vn -0.2571723 0.8346345 0.4870808
vn -0.4871161 0.7753114 0.4020076
vn -0.5522779 0.6763217 0.4874198
vn -0.4190521 0.7509498 0.5103623
vn -0.4011551 0.4491557 0.7983319
vn -0.4370843 0.6152244 0.6560915
vn -0.5657166 0.6496832 0.5078152
vn -0.3283502 0.4366746 0.8375568
vn -0.5230611 0.6544141 0.5460305
vn -0.402161 0.5294708 0.7469452
vn -0.3804293 0.4740958 0.7940445
vn -0.4678089 0.6216686 0.628238
vn -0.3319359 0.5227749 0.7851911
vn -0.2803176 0.4274157 0.8594986
g ref_35_0
f 3/3/3 2/2/2 1/1/1
f 1/1/1 2/2/2 4/4/4
f 1/1/1 4/4/4 5/5/5
f 6/6/6 3/3/3 1/1/1
f 6/6/6 1/1/1 7/7/7
f 1/1/1 8/8/8 7/7/7
f 8/8/8 1/1/1 5/5/5
f 5/5/5 9/9/9 8/8/8
f 9/9/9 10/10/10 8/8/8
f 8/8/8 10/10/10 11/11/11
f 7/7/7 8/8/8 11/11/11
f 10/10/10 9/9/9 12/12/12
f 11/11/11 10/10/10 13/13/13
f 13/13/13 10/10/10 14/14/14
f 14/14/14 10/10/10 12/12/12
f 15/15/15 14/14/14 12/12/12
f 16/16/16 14/14/14 15/15/15
f 16/16/16 13/13/13 14/14/14
f 17/17/17 15/15/15 12/12/12
f 17/17/17 12/12/12 18/18/18
f 21/21/21 20/20/20 19/19/19
f 21/21/21 19/19/19 22/22/22
f 22/22/22 19/19/19 23/23/23
f 20/20/20 24/24/24 19/19/19
f 19/19/19 24/24/24 25/25/25
f 26/26/26 19/19/19 25/25/25
f 19/19/19 26/26/26 23/23/23
f 27/27/27 23/23/23 26/26/26
f 28/28/28 27/27/27 26/26/26
f 28/28/28 26/26/26 29/29/29
f 26/26/26 25/25/25 29/29/29
f 27/27/27 28/28/28 30/30/30
f 28/28/28 29/29/29 31/31/31
f 28/28/28 31/31/31 32/32/32
f 28/28/28 32/32/32 30/30/30
f 32/32/32 33/33/33 30/30/30
f 32/32/32 34/34/34 33/33/33
f 31/31/31 34/34/34 32/32/32
f 33/33/33 35/35/35 30/30/30
f 30/30/30 35/35/35 36/36/36
