g Taillights_35
v 0.8382 0.8843002 -1.6239
v 0.8516 0.7766002 -1.6267
v 0.8531 0.8889002 -1.5341
v 0.8199 0.7551003 -1.6831
v 0.8091 0.8810003 -1.6773
v 0.7738 0.7434003 -1.7244
v 0.7577 0.8769003 -1.7265
v 0.7096 0.7336003 -1.7601
v 0.7005 0.8705003 -1.7569
v 0.6294 0.7401003 -1.7936
v 0.627 0.8621003 -1.7908
v 0.5431 0.7488003 -1.8245
v 0.563 0.8551003 -1.8157
v 0.4425 0.7792003 -1.8522
v 0.4766 0.8484003 -1.8389
v -0.8382 0.8843002 -1.6239
v -0.8531 0.8889002 -1.5341
v -0.8517 0.7766002 -1.6267
v -0.82 0.7551003 -1.6831
v -0.8091 0.8810003 -1.6773
v -0.7738 0.7434003 -1.7244
v -0.7577 0.8769003 -1.7265
v -0.7096 0.7336003 -1.7601
v -0.7005 0.8705003 -1.7569
v -0.6294 0.7401003 -1.7936
v -0.627 0.8621003 -1.7908
v -0.5431 0.7488003 -1.8245
v -0.563 0.8551003 -1.8157
v -0.4426 0.7792003 -1.8522
v -0.4766 0.8484003 -1.8389
vt 0.0815 0.4423
vt 0.0783 0.3465
vt 0.0039 0.4518
vt 0.1311 0.3278
vt 0.1343 0.4381
vt 0.1843 0.317
vt 0.1955 0.4351
vt 0.248 0.3092
vt 0.2517 0.4306
vt 0.3243 0.3169
vt 0.322 0.4255
vt 0.4033 0.3269
vt 0.3818 0.4206
vt 0.4926 0.3568
vt 0.4583 0.4171
vt 0.0815 0.4423
vt 0.0039 0.4518
vt 0.0783 0.3465
vt 0.1311 0.3278
vt 0.1343 0.4381
vt 0.1843 0.317
vt 0.1955 0.4351
vt 0.248 0.3092
vt 0.2517 0.4306
vt 0.3243 0.3169
vt 0.322 0.4255
vt 0.4033 0.3269
vt 0.3818 0.4206
vt 0.4926 0.3568
vt 0.4583 0.4171
vn 0.9359648 0.1168132 -0.3321515
vn 0.8932941 0.1223886 -0.4324889
vn 0.9775854 0.126017 -0.1686608
vn 0.7465872 0.1005052 -0.6576521
vn 0.7867644 0.08822043 -0.6109164
vn 0.5725706 0.06391358 -0.8173603
vn 0.5814096 0.06068217 -0.8113449
vn 0.4330807 0.0468609 -0.9001362
vn 0.4358293 0.04417808 -0.8989445
vn 0.3705156 0.03511978 -0.9281621
vn 0.3858356 0.02393614 -0.922257
vn 0.3099489 0.02535851 -0.950415
vn 0.3232093 0.02193261 -0.9460733
vn 0.2659072 0.041005 -0.9631261
vn 0.2545119 0.06009198 -0.9652008
vn -0.935837 0.1176276 -0.3322239
vn -0.9774654 0.1269108 -0.1686866
vn -0.8931239 0.123199 -0.4326103
vn -0.7460942 0.1011102 -0.6581187
vn -0.7865915 0.08864459 -0.6110777
vn -0.5722712 0.06406792 -0.817558
vn -0.5814097 0.06068216 -0.8113449
vn -0.4330807 0.0468609 -0.9001362
vn -0.4358293 0.04417808 -0.8989445
vn -0.3705156 0.03511978 -0.9281621
vn -0.3858356 0.02393614 -0.922257
vn -0.3100707 0.02533305 -0.9503759
vn -0.3232643 0.02197952 -0.9460534
vn -0.2660359 0.04113168 -0.9630852
vn -0.2544783 0.06047292 -0.9651859
g Taillights_35_0
f 3/3/3 2/2/2 1/1/1
f 1/1/1 2/2/2 4/4/4
f 4/4/4 5/5/5 1/1/1
f 5/5/5 4/4/4 6/6/6
f 7/7/7 5/5/5 6/6/6
f 6/6/6 8/8/8 7/7/7
f 7/7/7 8/8/8 9/9/9
f 10/10/10 9/9/9 8/8/8
f 11/11/11 9/9/9 10/10/10
f 10/10/10 12/12/12 11/11/11
f 11/11/11 12/12/12 13/13/13
f 12/12/12 14/14/14 13/13/13
f 13/13/13 14/14/14 15/15/15
f 18/18/18 17/17/17 16/16/16
f 16/16/16 19/19/19 18/18/18
f 20/20/20 19/19/19 16/16/16
f 19/19/19 20/20/20 21/21/21
f 20/20/20 22/22/22 21/21/21
f 23/23/23 21/21/21 22/22/22
f 23/23/23 22/22/22 24/24/24
f 24/24/24 25/25/25 23/23/23
f 24/24/24 26/26/26 25/25/25
f 27/27/27 25/25/25 26/26/26
f 27/27/27 26/26/26 28/28/28
f 29/29/29 27/27/27 28/28/28
f 29/29/29 28/28/28 30/30/30
