g model_car_115_matte_detail_LOD1
v 0.1394951 0.4124916 -2.302492
v 0.1627798 0.3990479 -2.357174
v 0.1659615 0.4045579 -2.357174
v 0.1426766 0.4180017 -2.302492
v 0.168453 0.4045498 -2.286432
v 0.110472 0.3994067 -2.302492
v 0.1092358 0.3703592 -2.286432
v 0.110472 0.3725219 -2.357174
v 0.1426766 0.4441664 -2.302492
v 0.1659615 0.4576104 -2.357174
v 0.1627798 0.4631202 -2.357174
v 0.1394951 0.4496794 -2.302492
v 0.1640351 0.4652748 -2.286432
v 0.1394951 0.4124916 -2.302492
v 0.1640351 0.3968961 -2.286432
v 0.1627798 0.3990479 -2.357174
v 0.1168354 0.4627616 -2.302492
v 0.1168354 0.4896464 -2.357174
v 0.110472 0.4896464 -2.357174
v 0.110472 0.4627616 -2.302492
v 0.1092358 0.4918091 -2.286432
v 0.1426766 0.4441664 -2.302492
v 0.168453 0.4576185 -2.286432
v 0.1659615 0.4576104 -2.357174
v 0.08781219 0.4496794 -2.302492
v 0.06452751 0.4631202 -2.357174
v 0.06134582 0.4576104 -2.357174
v 0.08463049 0.4441664 -2.302492
v 0.05885434 0.4576185 -2.286432
v 0.1168354 0.4627616 -2.302492
v 0.1180742 0.4918091 -2.286432
v 0.1168354 0.4896464 -2.357174
v 0.08463049 0.4180017 -2.302492
v 0.06134582 0.4045579 -2.357174
v 0.06452751 0.3990479 -2.357174
v 0.08781219 0.4124916 -2.302492
v 0.06327486 0.3968961 -2.286432
v 0.08781219 0.4496794 -2.302492
v 0.06327486 0.4652748 -2.286432
v 0.06452751 0.4631202 -2.357174
v 0.08463049 0.4180017 -2.302492
v 0.05885434 0.4045498 -2.286432
v 0.06134582 0.4045579 -2.357174
v 0.110472 0.3994067 -2.302492
v 0.110472 0.3725219 -2.357174
v 0.1168354 0.3725219 -2.357174
v 0.1168354 0.3994067 -2.302492
v 0.1180742 0.3703592 -2.286432
v -0.1394951 0.4124916 -2.302492
v -0.1426768 0.4180017 -2.302492
v -0.1659615 0.4045579 -2.357174
v -0.1627798 0.3990479 -2.357174
v -0.168453 0.4045498 -2.286432
v -0.1104722 0.3994067 -2.302492
v -0.1104722 0.3725219 -2.357174
v -0.1092358 0.3703592 -2.286432
v -0.1426768 0.4441664 -2.302492
v -0.1394951 0.4496794 -2.302492
v -0.1627798 0.4631202 -2.357174
v -0.1659615 0.4576104 -2.357174
v -0.1640351 0.4652748 -2.286432
v -0.1394951 0.4124916 -2.302492
v -0.1627798 0.3990479 -2.357174
v -0.1640351 0.3968961 -2.286432
v -0.1168354 0.4627616 -2.302492
v -0.1104722 0.4627616 -2.302492
v -0.1104722 0.4896464 -2.357174
v -0.1168354 0.4896464 -2.357174
v -0.1092358 0.4918091 -2.286432
v -0.1426768 0.4441664 -2.302492
v -0.1659615 0.4576104 -2.357174
v -0.168453 0.4576185 -2.286432
v -0.08781219 0.4496794 -2.302492
v -0.08463073 0.4441664 -2.302492
v -0.06134582 0.4576104 -2.357174
v -0.06452751 0.4631202 -2.357174
v -0.05885434 0.4576185 -2.286432
v -0.1168354 0.4627616 -2.302492
v -0.1168354 0.4896464 -2.357174
v -0.1180742 0.4918091 -2.286432
v -0.08463073 0.4180017 -2.302492
v -0.08781219 0.4124916 -2.302492
v -0.06452751 0.3990479 -2.357174
v -0.06134582 0.4045579 -2.357174
v -0.0632751 0.3968961 -2.286432
v -0.08781219 0.4496794 -2.302492
v -0.06452751 0.4631202 -2.357174
v -0.0632751 0.4652748 -2.286432
v -0.08463073 0.4180017 -2.302492
v -0.06134582 0.4045579 -2.357174
v -0.05885434 0.4045498 -2.286432
v -0.1104722 0.3994067 -2.302492
v -0.1168354 0.3994067 -2.302492
v -0.1168354 0.3725219 -2.357174
v -0.1104722 0.3725219 -2.357174
v -0.1180742 0.3703592 -2.286432
vt 0.07222407 0.05115435
vt 0.04440954 0.08176473
vt 0.04789764 0.08492063
vt 0.07543853 0.05455603
vt 0.09149262 0.06901056
vt 0.07342038 0.05034785
vt 0.07298832 0.02857149
vt 0.03148255 0.05056388
vt 0.07220967 0.05122636
vt 0.04439514 0.08169273
vt 0.04788323 0.08484862
vt 0.07539436 0.05458484
vt 0.09144941 0.06905377
vt 0.07346357 0.05031905
vt 0.07301712 0.02858589
vt 0.03158337 0.05056388
vt 0.07220967 0.05122636
vt 0.04439514 0.08169273
vt 0.04788323 0.08483422
vt 0.07539436 0.05458484
vt 0.09144941 0.06905377
vt 0.07342038 0.05034785
vt 0.07298832 0.02857149
vt 0.03148255 0.05056388
vt 0.07220967 0.05122636
vt 0.04439514 0.08169273
vt 0.04788323 0.08484862
vt 0.07539436 0.05458484
vt 0.09144941 0.06905377
vt 0.07342038 0.05034785
vt 0.07298832 0.02857149
vt 0.03148255 0.05056388
vt 0.07220967 0.05122636
vt 0.04439514 0.08169273
vt 0.04788323 0.08484862
vt 0.07539436 0.05458484
vt 0.09144941 0.06905377
vt 0.07342038 0.05034785
vt 0.07298832 0.02857149
vt 0.03148255 0.05056388
vt 0.07342038 0.05034785
vt 0.07298832 0.02857149
vt 0.03148255 0.05056388
vt 0.07220967 0.05122636
vt 0.04439514 0.08169273
vt 0.04788323 0.08483422
vt 0.07539436 0.05458484
vt 0.09144941 0.06905377
vt 0.07222407 0.05115435
vt 0.07543853 0.05455603
vt 0.04789764 0.08492063
vt 0.04440954 0.08176473
vt 0.09149262 0.06901056
vt 0.07342038 0.05034785
vt 0.03148255 0.05056388
vt 0.07298832 0.02857149
vt 0.07220967 0.05122636
vt 0.07539436 0.05458484
vt 0.04788323 0.08484862
vt 0.04439514 0.08169273
vt 0.09144941 0.06905377
vt 0.07346357 0.05031905
vt 0.03158337 0.05056388
vt 0.07301712 0.02858589
vt 0.07220967 0.05122636
vt 0.07539436 0.05458484
vt 0.04788323 0.08483422
vt 0.04439514 0.08169273
vt 0.09144941 0.06905377
vt 0.07342038 0.05034785
vt 0.03148255 0.05056388
vt 0.07298832 0.02857149
vt 0.07220967 0.05122636
vt 0.07539436 0.05458484
vt 0.04788323 0.08484862
vt 0.04439514 0.08169273
vt 0.09144941 0.06905377
vt 0.07342038 0.05034785
vt 0.03148255 0.05056388
vt 0.07298832 0.02857149
vt 0.07220967 0.05122636
vt 0.07539436 0.05458484
vt 0.04788323 0.08484862
vt 0.04439514 0.08169273
vt 0.09144941 0.06905377
vt 0.07342038 0.05034785
vt 0.03148255 0.05056388
vt 0.07298832 0.02857149
vt 0.07342038 0.05034785
vt 0.03148255 0.05056388
vt 0.07298832 0.02857149
vt 0.07220967 0.05122636
vt 0.07539436 0.05458484
vt 0.04788323 0.08483422
vt 0.04439514 0.08169273
vt 0.09144941 0.06905377
vn -0.7570487 -0.6320137 -0.1656379
vn -0.9192038 -0.1826686 -0.3488505
vn -0.3018427 0.8879449 -0.3470515
vn 0.1670392 0.9719529 -0.1655459
vn 0.4698587 0.8820839 -0.03407052
vn -0.9250648 0.3409162 -0.1674254
vn -0.9993044 0.03418922 -0.0148927
vn -0.6183379 0.7062533 -0.3447674
vn 0.1670392 -0.971953 -0.1655455
vn -0.3018427 -0.887945 -0.3470514
vn -0.9192038 0.1826686 -0.3488505
vn -0.7570487 0.6320136 -0.1656383
vn -0.5284688 0.8488715 -0.01174162
vn -0.7570487 -0.6320137 -0.1656379
vn -0.5284688 -0.8488715 -0.01174162
vn -0.9192038 -0.1826686 -0.3488505
vn 0.9250648 -0.3409162 -0.1674254
vn 0.6183379 -0.7062533 -0.3447673
vn -0.6183379 -0.7062533 -0.3447674
vn -0.9250648 -0.3409162 -0.1674254
vn -0.9993044 -0.03418934 -0.01489243
vn 0.1670392 -0.971953 -0.1655455
vn 0.4698587 -0.882084 -0.03406877
vn -0.3018427 -0.887945 -0.3470514
vn 0.7570488 0.6320136 -0.1656381
vn 0.9192038 0.1826686 -0.3488505
vn 0.3018427 -0.887945 -0.3470514
vn -0.1670392 -0.971953 -0.1655455
vn -0.4698586 -0.882084 -0.03406965
vn 0.9250648 -0.3409162 -0.1674254
vn 0.9993044 -0.03418934 -0.01489243
vn 0.6183379 -0.7062533 -0.3447673
vn -0.1670392 0.9719529 -0.1655459
vn 0.3018427 0.8879449 -0.3470515
vn 0.9192038 -0.1826686 -0.3488505
vn 0.7570488 -0.6320137 -0.1656377
vn 0.5284689 -0.8488715 -0.01174162
vn 0.7570488 0.6320136 -0.1656381
vn 0.5284689 0.8488715 -0.01174162
vn 0.9192038 0.1826686 -0.3488505
vn -0.1670392 0.9719529 -0.1655459
vn -0.4698586 0.8820839 -0.0340714
vn 0.3018427 0.8879449 -0.3470515
vn -0.9250648 0.3409162 -0.1674254
vn -0.6183379 0.7062533 -0.3447674
vn 0.6183379 0.7062533 -0.3447673
vn 0.9250648 0.3409162 -0.1674254
vn 0.9993044 0.03418922 -0.0148927
vn 0.7570488 -0.6320137 -0.1656377
vn -0.1670392 0.9719529 -0.1655459
vn 0.3018427 0.8879449 -0.3470515
vn 0.9192038 -0.1826686 -0.3488505
vn -0.4698586 0.8820839 -0.0340714
vn 0.9250648 0.3409162 -0.1674254
vn 0.6183379 0.7062533 -0.3447673
vn 0.9993044 0.03418922 -0.0148927
vn -0.1670392 -0.971953 -0.1655455
vn 0.7570488 0.6320136 -0.1656381
vn 0.9192038 0.1826686 -0.3488505
vn 0.3018427 -0.887945 -0.3470514
vn 0.5284689 0.8488715 -0.01174162
vn 0.7570488 -0.6320137 -0.1656377
vn 0.9192038 -0.1826686 -0.3488505
vn 0.5284689 -0.8488715 -0.01174162
vn -0.9250648 -0.3409162 -0.1674254
vn 0.9250648 -0.3409162 -0.1674254
vn 0.6183379 -0.7062533 -0.3447673
vn -0.6183379 -0.7062533 -0.3447674
vn 0.9993044 -0.03418934 -0.01489243
vn -0.1670392 -0.971953 -0.1655455
vn 0.3018427 -0.887945 -0.3470514
vn -0.4698586 -0.882084 -0.03406965
vn -0.7570487 0.6320136 -0.1656383
vn 0.1670392 -0.971953 -0.1655455
vn -0.3018427 -0.887945 -0.3470514
vn -0.9192038 0.1826686 -0.3488505
vn 0.4698587 -0.882084 -0.03406877
vn -0.9250648 -0.3409162 -0.1674254
vn -0.6183379 -0.7062533 -0.3447674
vn -0.9993044 -0.03418934 -0.01489243
vn 0.1670392 0.9719529 -0.1655459
vn -0.7570487 -0.6320137 -0.1656379
vn -0.9192038 -0.1826686 -0.3488505
vn -0.3018427 0.8879449 -0.3470515
vn -0.5284688 -0.8488715 -0.01174162
vn -0.7570487 0.6320136 -0.1656383
vn -0.9192038 0.1826686 -0.3488505
vn -0.5284688 0.8488715 -0.01174162
vn 0.1670392 0.9719529 -0.1655459
vn -0.3018427 0.8879449 -0.3470515
vn 0.4698587 0.8820839 -0.03407052
vn 0.9250648 0.3409162 -0.1674254
vn -0.9250648 0.3409162 -0.1674254
vn -0.6183379 0.7062533 -0.3447674
vn 0.6183379 0.7062533 -0.3447673
vn -0.9993044 0.03418922 -0.0148927
g model_car_115_matte_detail_LOD1_0
f 3/3/3 2/2/2 1/1/1
f 4/4/4 3/3/3 1/1/1
f 4/4/4 5/5/5 3/3/3
f 8/8/8 7/7/7 6/6/6
f 11/11/11 10/10/10 9/9/9
f 12/12/12 11/11/11 9/9/9
f 12/12/12 13/13/13 11/11/11
f 16/16/16 15/15/15 14/14/14
f 19/19/19 18/18/18 17/17/17
f 20/20/20 19/19/19 17/17/17
f 20/20/20 21/21/21 19/19/19
f 24/24/24 23/23/23 22/22/22
f 27/27/27 26/26/26 25/25/25
f 28/28/28 27/27/27 25/25/25
f 28/28/28 29/29/29 27/27/27
f 32/32/32 31/31/31 30/30/30
f 35/35/35 34/34/34 33/33/33
f 36/36/36 35/35/35 33/33/33
f 36/36/36 37/37/37 35/35/35
f 40/40/40 39/39/39 38/38/38
f 43/43/43 42/42/42 41/41/41
f 46/46/46 45/45/45 44/44/44
f 47/47/47 46/46/46 44/44/44
f 47/47/47 48/48/48 46/46/46
f 51/51/51 50/50/50 49/49/49
f 52/52/52 51/51/51 49/49/49
f 53/53/53 50/50/50 51/51/51
f 56/56/56 55/55/55 54/54/54
f 59/59/59 58/58/58 57/57/57
f 60/60/60 59/59/59 57/57/57
f 61/61/61 58/58/58 59/59/59
f 64/64/64 63/63/63 62/62/62
f 67/67/67 66/66/66 65/65/65
f 68/68/68 67/67/67 65/65/65
f 69/69/69 66/66/66 67/67/67
f 72/72/72 71/71/71 70/70/70
f 75/75/75 74/74/74 73/73/73
f 76/76/76 75/75/75 73/73/73
f 77/77/77 74/74/74 75/75/75
f 80/80/80 79/79/79 78/78/78
f 83/83/83 82/82/82 81/81/81
f 84/84/84 83/83/83 81/81/81
f 85/85/85 82/82/82 83/83/83
f 88/88/88 87/87/87 86/86/86
f 91/91/91 90/90/90 89/89/89
f 94/94/94 93/93/93 92/92/92
f 95/95/95 94/94/94 92/92/92
f 96/96/96 93/93/93 94/94/94
