g model_car_115_matte_mirror_LOD1
v 0.8009116 0.8463129 0.2123907
v 0.7655813 0.8449351 0.2399384
v 0.7662192 0.8340695 0.2388045
v 0.801775 0.8361754 0.2111698
v 0.8007246 0.8764142 0.2107239
v 0.7606996 0.8766646 0.2419926
v 0.7990261 0.8866032 0.2105318
v 0.7591081 0.8875519 0.2416921
v 0.7430169 0.8762505 0.2561581
v 0.7459245 0.844434 0.2555186
v 0.7461366 0.8335234 0.2546635
v 0.8354988 0.8769352 0.1822058
v 0.8362036 0.8706875 0.1824913
v 0.8626742 0.8614002 0.1602694
v 0.8617322 0.8603982 0.1613432
v 0.8374461 0.8438963 0.1823761
v 0.8367112 0.8500872 0.1831927
v 0.8618675 0.85638 0.1614368
v 0.86308 0.8550189 0.160236
v 0.8634307 0.8601327 0.1596414
v 0.8636428 0.8560359 0.1596664
v 0.7338282 0.8378189 0.2654321
v 0.7336528 0.8461792 0.2661169
v 0.7152136 0.8521631 0.2833118
v 0.7148946 0.8601294 0.2831498
v 0.7314099 0.8721889 0.2666361
v 0.7303227 0.8805025 0.2664726
v 0.7414237 0.8871378 0.2559744
v -0.8009119 0.8463129 0.2123907
v -0.8017753 0.8361754 0.2111698
v -0.7662196 0.8340695 0.2388045
v -0.7655816 0.8449351 0.2399384
v -0.8007249 0.8764142 0.2107239
v -0.7607 0.8766646 0.2419926
v -0.7990265 0.8866032 0.2105318
v -0.7591084 0.8875519 0.2416921
v -0.7430173 0.8762505 0.2561581
v -0.7459248 0.844434 0.2555186
v -0.7461369 0.8335234 0.2546635
v -0.8354975 0.8769352 0.1822058
v -0.8362039 0.8706875 0.1824913
v -0.8626745 0.8614002 0.1602694
v -0.8617326 0.8603982 0.1613432
v -0.8374448 0.8438963 0.1823761
v -0.8367116 0.8500872 0.1831927
v -0.8618662 0.85638 0.1614368
v -0.8630787 0.8550189 0.160236
v -0.8634294 0.8601327 0.1596414
v -0.8636432 0.8560359 0.1596664
v -0.7338285 0.8378189 0.2654321
v -0.7336515 0.8461792 0.2661169
v -0.7152139 0.8521631 0.2833118
v -0.7148949 0.8601294 0.2831498
v -0.7314086 0.8721889 0.2666361
v -0.7303231 0.8805025 0.2664726
v -0.741424 0.8871378 0.2559744
vn -0.6212546 -0.02429473 -0.7832321
vn -0.6170898 -0.02290642 -0.7865593
vn -0.6170898 0.04511917 -0.7855982
vn -0.6226429 0.0395661 -0.7815052
vn -0.6198663 -0.0631665 -0.7821609
vn -0.6170898 -0.0631665 -0.7843534
vn -0.6184781 -0.1145328 -0.7774104
vn -0.6157015 -0.1117563 -0.7800142
vn -0.6351374 -0.06038994 -0.7700348
vn -0.6337492 -0.01874161 -0.7733116
vn -0.6295843 0.04789573 -0.7754545
vn -0.6351374 -0.1145328 -0.7638604
vn -0.6337492 -0.06038994 -0.7711776
vn -0.662903 -0.1159211 -0.7396769
vn -0.6531851 -0.06177825 -0.7546739
vn -0.6393023 0.03401297 -0.7682029
vn -0.6351374 -0.02429473 -0.7720171
vn -0.6531851 -0.02012992 -0.7569306
vn -0.6601264 0.0298481 -0.7505613
vn -0.7101044 -0.04234236 -0.7028221
vn -0.7101044 -0.03678924 -0.7031346
vn -0.6545733 0.04789573 -0.7544799
vn -0.6684561 -0.02290642 -0.7433987
vn -0.6892803 -0.04095405 -0.7233363
vn -0.6892803 -0.04650718 -0.7230005
vn -0.6670678 -0.05761343 -0.7427659
vn -0.6517968 -0.1034266 -0.7513081
vn -0.6309726 -0.1062031 -0.7685015
vn 0.6212544 -0.02429473 -0.7832323
vn 0.6226426 0.0395661 -0.7815054
vn 0.6170895 0.04511917 -0.7855983
vn 0.6170895 -0.02290642 -0.7865595
vn 0.6198661 -0.0631665 -0.7821611
vn 0.6170895 -0.0631665 -0.7843536
vn 0.6184778 -0.1145328 -0.7774107
vn 0.6157013 -0.1117563 -0.7800145
vn 0.6351371 -0.06038994 -0.7700349
vn 0.6337489 -0.01874161 -0.7733117
vn 0.629584 0.04789573 -0.7754547
vn 0.6351371 -0.1145328 -0.7638606
vn 0.6337489 -0.06038994 -0.7711779
vn 0.6629027 -0.1159211 -0.7396771
vn 0.6531848 -0.06177825 -0.7546742
vn 0.639302 0.03401297 -0.7682032
vn 0.6351371 -0.02429473 -0.7720172
vn 0.6531848 -0.02012992 -0.7569309
vn 0.6601261 0.0298481 -0.7505615
vn 0.7101042 -0.04234236 -0.7028223
vn 0.7101042 -0.03678924 -0.7031349
vn 0.654573 0.04789573 -0.7544801
vn 0.6684558 -0.02290642 -0.743399
vn 0.68928 -0.04095405 -0.7233366
vn 0.68928 -0.04650718 -0.7230008
vn 0.6670675 -0.05761343 -0.7427662
vn 0.6517965 -0.1034266 -0.7513084
vn 0.6309723 -0.1062031 -0.7685017
g model_car_115_matte_mirror_LOD1_0
f 3/3/3 2/2/2 1/1/1
f 4/4/4 3/3/3 1/1/1
f 5/5/5 1/1/1 2/2/2
f 6/6/6 5/5/5 2/2/2
f 7/7/7 5/5/5 6/6/6
f 8/8/8 7/7/7 6/6/6
f 9/9/9 6/6/6 2/2/2
f 6/6/6 9/9/9 8/8/8
f 10/10/10 9/9/9 2/2/2
f 2/2/2 3/3/3 10/10/10
f 3/3/3 11/11/11 10/10/10
f 5/5/5 7/7/7 12/12/12
f 13/13/13 5/5/5 12/12/12
f 12/12/12 14/14/14 13/13/13
f 14/14/14 15/15/15 13/13/13
f 16/16/16 4/4/4 1/1/1
f 17/17/17 16/16/16 1/1/1
f 5/5/5 13/13/13 17/17/17
f 13/13/13 15/15/15 17/17/17
f 17/17/17 18/18/18 16/16/16
f 15/15/15 18/18/18 17/17/17
f 18/18/18 19/19/19 16/16/16
f 15/15/15 20/20/20 18/18/18
f 20/20/20 15/15/15 14/14/14
f 20/20/20 21/21/21 18/18/18
f 19/19/19 18/18/18 21/21/21
f 11/11/11 22/22/22 10/10/10
f 22/22/22 23/23/23 10/10/10
f 9/9/9 10/10/10 23/23/23
f 23/23/23 22/22/22 24/24/24
f 23/23/23 24/24/24 25/25/25
f 26/26/26 23/23/23 25/25/25
f 25/25/25 27/27/27 26/26/26
f 27/27/27 28/28/28 26/26/26
f 28/28/28 9/9/9 26/26/26
f 26/26/26 9/9/9 23/23/23
f 9/9/9 28/28/28 8/8/8
f 1/1/1 5/5/5 17/17/17
f 31/31/31 30/30/30 29/29/29
f 32/32/32 31/31/31 29/29/29
f 29/29/29 33/33/33 32/32/32
f 33/33/33 34/34/34 32/32/32
f 33/33/33 35/35/35 34/34/34
f 35/35/35 36/36/36 34/34/34
f 34/34/34 37/37/37 32/32/32
f 37/37/37 34/34/34 36/36/36
f 37/37/37 38/38/38 32/32/32
f 31/31/31 32/32/32 38/38/38
f 39/39/39 31/31/31 38/38/38
f 35/35/35 33/33/33 40/40/40
f 33/33/33 41/41/41 40/40/40
f 42/42/42 40/40/40 41/41/41
f 43/43/43 42/42/42 41/41/41
f 30/30/30 44/44/44 29/29/29
f 44/44/44 45/45/45 29/29/29
f 41/41/41 33/33/33 45/45/45
f 43/43/43 41/41/41 45/45/45
f 46/46/46 45/45/45 44/44/44
f 46/46/46 43/43/43 45/45/45
f 47/47/47 46/46/46 44/44/44
f 48/48/48 43/43/43 46/46/46
f 43/43/43 48/48/48 42/42/42
f 49/49/49 48/48/48 46/46/46
f 46/46/46 47/47/47 49/49/49
f 50/50/50 39/39/39 38/38/38
f 51/51/51 50/50/50 38/38/38
f 38/38/38 37/37/37 51/51/51
f 50/50/50 51/51/51 52/52/52
f 52/52/52 51/51/51 53/53/53
f 51/51/51 54/54/54 53/53/53
f 55/55/55 53/53/53 54/54/54
f 56/56/56 55/55/55 54/54/54
f 37/37/37 56/56/56 54/54/54
f 37/37/37 54/54/54 51/51/51
f 56/56/56 37/37/37 36/36/36
f 33/33/33 29/29/29 45/45/45
