g ref_7
v -0.7110049 0.6185288 2.11814
v -0.7182029 0.680864 2.061972
v -0.6761282 0.6821303 2.075847
v -0.6830044 0.7306284 2.011742
v -0.6667658 0.6405302 2.128936
v -0.5273423 0.6789654 2.120735
v -0.6018582 0.7277642 2.03054
v -0.666802 0.7574083 1.970964
v -0.7239327 0.7315806 1.999564
v -0.7300318 0.7859474 1.910819
v -0.4857971 0.6388724 2.190539
v -0.5959853 0.5996034 2.195381
v -0.65931 0.5998123 2.155836
v -0.7088708 0.5984035 2.125593
v -0.4569893 0.5998926 2.251594
v 0.7151033 0.6185291 2.118141
v 0.6802267 0.6821306 2.075847
v 0.7223014 0.6808644 2.061972
v 0.687103 0.7306288 2.011742
v 0.6708642 0.6405305 2.128936
v 0.5314408 0.6789657 2.120736
v 0.6059567 0.7277645 2.03054
v 0.6709005 0.7574086 1.970965
v 0.7280313 0.731581 1.999565
v 0.7341304 0.7859477 1.91082
v 0.4898955 0.6388726 2.190539
v 0.6000836 0.5996037 2.195381
v 0.6634085 0.5998127 2.155836
v 0.7129692 0.5984038 2.125594
v 0.4610876 0.5998928 2.251594
vt 0.1141695 0.7501634
vt 0.08990086 0.7143593
vt 0.07509365 0.7317755
vt 0.05353838 0.6963315
vt 0.09153108 0.7625632
vt 0.02386809 0.7932287
vt 0.024681 0.7280055
vt 0.03218375 0.680792
vt 0.06757811 0.6794585
vt 0.03905728 0.6341034
vt 0.03050976 0.8394387
vt 0.08614276 0.8163894
vt 0.1058704 0.783402
vt 0.1218288 0.758172
vt 0.04027374 0.8783248
vt 0.9276716 0.8445293
vt 0.9179581 0.8924263
vt 0.9437477 0.8908302
vt 0.9353936 0.9359971
vt 0.9011571 0.8567068
vt 0.8276508 0.8973803
vt 0.8872057 0.9406368
vt 0.9349335 0.9658756
vt 0.9601581 0.9347612
vt 0.981783 0.9913657
vt 0.7902303 0.8601969
vt 0.8486827 0.8253127
vt 0.8918934 0.8296805
vt 0.9255565 0.8321354
vt 0.7615725 0.825052
vn -0.4445077 0.4863702 0.7522346
vn -0.2298945 0.7117043 0.6637963
vn -0.2211455 0.7412111 0.6337987
vn -0.134841 0.8122348 0.567532
vn -0.3509289 0.6346937 0.6884858
vn -0.1771601 0.7965727 0.578002
vn -0.1290502 0.8115018 0.5699219
vn -0.1115267 0.8469502 0.5198434
vn -0.1429494 0.8131782 0.5641867
vn -0.1185033 0.8430522 0.5246141
vn -0.225768 0.7631385 0.605515
vn -0.2662193 0.6822915 0.6808859
vn -0.4663163 0.411746 0.7829523
vn -0.50942 0.2508181 0.8231534
vn -0.2447022 0.7607509 0.601148
vn 0.4445102 0.4863696 0.7522336
vn 0.2211432 0.7412111 0.6337994
vn 0.2298898 0.7117049 0.6637973
vn 0.1348418 0.8122334 0.5675338
vn 0.3509313 0.6346941 0.6884843
vn 0.1771592 0.7965722 0.5780028
vn 0.1290502 0.8115008 0.5699232
vn 0.1115264 0.8469493 0.5198449
vn 0.1429536 0.8131767 0.5641878
vn 0.1185031 0.843052 0.5246144
vn 0.2257673 0.7631381 0.6055158
vn 0.2662178 0.6822919 0.6808861
vn 0.4663155 0.4117495 0.7829509
vn 0.5094191 0.2508168 0.8231543
vn 0.2447023 0.7607504 0.6011486
g ref_7_0
f 3/3/3 2/2/2 1/1/1
f 4/4/4 2/2/2 3/3/3
f 5/5/5 3/3/3 1/1/1
f 5/5/5 6/6/6 3/3/3
f 3/3/3 6/6/6 7/7/7
f 4/4/4 3/3/3 7/7/7
f 4/4/4 7/7/7 8/8/8
f 4/4/4 8/8/8 9/9/9
f 9/9/9 2/2/2 4/4/4
f 9/9/9 8/8/8 10/10/10
f 11/11/11 6/6/6 5/5/5
f 12/12/12 11/11/11 5/5/5
f 5/5/5 13/13/13 12/12/12
f 5/5/5 1/1/1 13/13/13
f 1/1/1 14/14/14 13/13/13
f 15/15/15 11/11/11 12/12/12
f 18/18/18 17/17/17 16/16/16
f 18/18/18 19/19/19 17/17/17
f 17/17/17 20/20/20 16/16/16
f 21/21/21 20/20/20 17/17/17
f 21/21/21 17/17/17 22/22/22
f 17/17/17 19/19/19 22/22/22
f 22/22/22 19/19/19 23/23/23
f 23/23/23 19/19/19 24/24/24
f 18/18/18 24/24/24 19/19/19
f 23/23/23 24/24/24 25/25/25
f 21/21/21 26/26/26 20/20/20
f 26/26/26 27/27/27 20/20/20
f 28/28/28 20/20/20 27/27/27
f 16/16/16 20/20/20 28/28/28
f 29/29/29 16/16/16 28/28/28
f 26/26/26 30/30/30 27/27/27
