g model_car_112_matte_mirror_LOD1
v 0.8090506 0.8506824 -0.04626447
v 0.8126177 0.8910666 -0.04799008
v 0.8042305 0.8774048 -0.04393411
v 0.8028507 0.8617421 -0.04326779
v 0.821682 0.8378046 -0.05237383
v 0.8267213 0.9001527 -0.054811
v 0.8460162 0.8277895 -0.06414163
v 0.8515388 0.9070388 -0.0668124
v 0.8729939 0.8258394 -0.07718778
v 0.8775804 0.9087355 -0.0794059
v 0.8997634 0.8263627 -0.09013253
v 0.9034156 0.9070914 -0.09189975
v 0.926187 0.8290173 -0.1029107
v 0.92834 0.9006995 -0.1039518
v 0.94045 0.840097 -0.1098077
v 0.9412739 0.8853067 -0.1102079
v 0.9484026 0.8527701 -0.1136536
v 0.9481546 0.870687 -0.1135341
v 0.903173 0.9085906 -0.09289384
v 0.9286152 0.9020666 -0.1051958
v 0.9419257 0.8862247 -0.1116329
v 0.8725249 0.8243275 -0.07807136
v 0.8452955 0.8262975 -0.06490391
v 0.877144 0.9102492 -0.08030581
v 0.9409624 0.8389925 -0.1111675
v 0.9262341 0.8275487 -0.1040442
v 0.9490744 0.871004 -0.1150895
v 0.9493315 0.8523917 -0.1152144
v 0.820525 0.8364918 -0.05292428
v 0.8075694 0.8496991 -0.04665923
v 0.8010237 0.8614597 -0.04349411
v 0.8024687 0.8778502 -0.04419303
v 0.8112451 0.8922073 -0.04843736
v 0.8257706 0.9015669 -0.05546105
v 0.8508978 0.9085381 -0.06761271
v 0.8994012 0.8248526 -0.09106863
v -0.8090506 0.8506824 -0.04626447
v -0.8028507 0.8617421 -0.04326779
v -0.8042305 0.8774048 -0.04393411
v -0.8126177 0.8910666 -0.04799008
v -0.8216821 0.8378046 -0.05237383
v -0.8267213 0.9001527 -0.054811
v -0.8460162 0.8277895 -0.06414163
v -0.8515388 0.9070388 -0.0668124
v -0.8729939 0.8258394 -0.07718778
v -0.8775804 0.9087355 -0.0794059
v -0.8997633 0.8263627 -0.09013253
v -0.9034156 0.9070914 -0.09189975
v -0.926187 0.8290173 -0.1029107
v -0.92834 0.9006995 -0.1039518
v -0.9404482 0.840097 -0.1098077
v -0.9412739 0.8853067 -0.1102079
v -0.9484026 0.8527701 -0.1136536
v -0.9481546 0.870687 -0.1135341
v -0.8112451 0.8922073 -0.04843736
v -0.8257706 0.9015669 -0.05546105
v -0.903173 0.9085906 -0.09289384
v -0.9286152 0.9020666 -0.1051958
v -0.9419258 0.8862247 -0.1116329
v -0.877144 0.9102492 -0.08030581
v -0.9409624 0.8389925 -0.1111675
v -0.9262341 0.8275487 -0.1040442
v -0.9490744 0.871004 -0.1150895
v -0.9493315 0.8523917 -0.1152144
v -0.8024687 0.8778502 -0.04419303
v -0.8010237 0.8614597 -0.04349411
v -0.8075694 0.8496991 -0.04665923
v -0.8205231 0.8364918 -0.05292428
v -0.8452955 0.8262975 -0.06490391
v -0.872525 0.8243275 -0.07807136
v -0.8994013 0.8248526 -0.09106863
v -0.8508978 0.9085381 -0.06761271
vn -0.4156333 0.01892996 -0.9093353
vn -0.4156333 -0.02386791 -0.909219
vn -0.362959 -0.02880615 -0.9313598
vn -0.362959 0.01563781 -0.9316739
vn -0.4271558 0.01563781 -0.9040428
vn -0.4304479 -0.01563758 -0.9024799
vn -0.432094 0.01563781 -0.901693
vn -0.4337401 -0.01399148 -0.9009294
vn -0.4353861 0.01234567 -0.9001592
vn -0.4353861 -0.01234543 -0.9001592
vn -0.4353861 0.01399177 -0.9001351
vn -0.4370322 -0.01399148 -0.8993371
vn -0.4403244 0.01728392 -0.8976724
vn -0.4436164 -0.01728362 -0.89605
vn -0.4518469 0.01892996 -0.8918946
vn -0.455139 -0.01563758 -0.8902831
vn -0.502875 0.0222221 -0.8640734
vn -0.501229 -0.01892972 -0.8651076
vn -0.4337401 -0.5456727 -0.7170153
vn -0.5901169 -0.4748916 -0.6528705
vn -0.7629544 -0.3267452 -0.5577976
vn -0.3514364 0.5522572 -0.7559791
vn -0.2625486 0.5357965 -0.8024901
vn -0.362959 -0.5522569 -0.7505152
vn -0.706988 0.3958804 -0.5860432
vn -0.5078133 0.5160436 -0.6898004
vn -0.8419659 -0.1259243 -0.52463
vn -0.8337355 0.1390932 -0.5343577
vn -0.1259246 0.4765379 -0.8700889
vn 0.01069933 0.362959 -0.9317437
vn 0.1045254 0.0995875 -0.9895235
vn 0.09464902 -0.1835369 -0.9784456
vn -0.03374463 -0.4024644 -0.9148135
vn -0.1934136 -0.5143973 -0.835456
vn -0.2888858 -0.5440266 -0.7877691
vn -0.3892961 0.5506112 -0.7384279
vn 0.415633 0.01892996 -0.9093354
vn 0.3629587 0.01728392 -0.9316449
vn 0.3629587 -0.02880615 -0.9313598
vn 0.415633 -0.02386791 -0.9092192
vn 0.4271555 0.01563781 -0.9040429
vn 0.4304477 -0.01563758 -0.9024801
vn 0.4320937 0.01563781 -0.9016931
vn 0.4337398 -0.01399148 -0.9009295
vn 0.4353859 0.01234567 -0.9001592
vn 0.4353859 -0.01234543 -0.9001592
vn 0.4353859 0.01399177 -0.9001352
vn 0.437032 -0.01399148 -0.8993372
vn 0.4403241 0.01728392 -0.8976725
vn 0.4436162 -0.01728362 -0.8960502
vn 0.4518466 0.01892996 -0.8918948
vn 0.4551387 -0.01563758 -0.8902832
vn 0.5028749 0.0222221 -0.8640736
vn 0.5012287 -0.01892972 -0.8651078
vn 0.03374434 -0.4024644 -0.9148135
vn 0.1934133 -0.5143973 -0.835456
vn 0.4337398 -0.5456727 -0.7170154
vn 0.5901166 -0.4748916 -0.6528708
vn 0.7629542 -0.3267452 -0.5577979
vn 0.3629587 -0.5522569 -0.7505153
vn 0.7069877 0.3958804 -0.5860435
vn 0.507813 0.5160436 -0.6898006
vn 0.8419656 -0.1259243 -0.5246303
vn 0.8337352 0.1390932 -0.5343581
vn -0.09464926 -0.1835369 -0.9784456
vn -0.1045257 0.0995875 -0.9895235
vn -0.01069963 0.362959 -0.9317437
vn 0.1259243 0.4765379 -0.8700889
vn 0.2625483 0.5357965 -0.8024902
vn 0.3514362 0.5522572 -0.7559792
vn 0.3892958 0.5506112 -0.7384281
vn 0.2888855 -0.5440266 -0.7877691
g model_car_112_matte_mirror_LOD1_0
f 3/3/3 2/2/2 1/1/1
f 4/4/4 3/3/3 1/1/1
f 1/1/1 2/2/2 5/5/5
f 2/2/2 6/6/6 5/5/5
f 5/5/5 6/6/6 7/7/7
f 6/6/6 8/8/8 7/7/7
f 7/7/7 8/8/8 9/9/9
f 8/8/8 10/10/10 9/9/9
f 9/9/9 10/10/10 11/11/11
f 10/10/10 12/12/12 11/11/11
f 11/11/11 12/12/12 13/13/13
f 12/12/12 14/14/14 13/13/13
f 13/13/13 14/14/14 15/15/15
f 14/14/14 16/16/16 15/15/15
f 15/15/15 16/16/16 17/17/17
f 16/16/16 18/18/18 17/17/17
f 12/12/12 19/19/19 14/14/14
f 19/19/19 20/20/20 14/14/14
f 14/14/14 20/20/20 16/16/16
f 20/20/20 21/21/21 16/16/16
f 16/16/16 21/21/21 18/18/18
f 9/9/9 22/22/22 7/7/7
f 22/22/22 23/23/23 7/7/7
f 24/24/24 19/19/19 12/12/12
f 10/10/10 24/24/24 12/12/12
f 15/15/15 25/25/25 13/13/13
f 25/25/25 26/26/26 13/13/13
f 13/13/13 26/26/26 11/11/11
f 21/21/21 27/27/27 18/18/18
f 18/18/18 27/27/27 17/17/17
f 28/28/28 25/25/25 15/15/15
f 17/17/17 28/28/28 15/15/15
f 27/27/27 28/28/28 17/17/17
f 23/23/23 29/29/29 5/5/5
f 5/5/5 29/29/29 1/1/1
f 29/29/29 30/30/30 1/1/1
f 1/1/1 30/30/30 4/4/4
f 30/30/30 31/31/31 4/4/4
f 7/7/7 23/23/23 5/5/5
f 4/4/4 31/31/31 3/3/3
f 31/31/31 32/32/32 3/3/3
f 3/3/3 32/32/32 2/2/2
f 32/32/32 33/33/33 2/2/2
f 2/2/2 33/33/33 6/6/6
f 33/33/33 34/34/34 6/6/6
f 6/6/6 34/34/34 8/8/8
f 34/34/34 35/35/35 8/8/8
f 8/8/8 35/35/35 10/10/10
f 35/35/35 24/24/24 10/10/10
f 26/26/26 36/36/36 11/11/11
f 11/11/11 36/36/36 9/9/9
f 36/36/36 22/22/22 9/9/9
f 39/39/39 38/38/38 37/37/37
f 40/40/40 39/39/39 37/37/37
f 40/40/40 37/37/37 41/41/41
f 42/42/42 40/40/40 41/41/41
f 42/42/42 41/41/41 43/43/43
f 44/44/44 42/42/42 43/43/43
f 44/44/44 43/43/43 45/45/45
f 46/46/46 44/44/44 45/45/45
f 46/46/46 45/45/45 47/47/47
f 48/48/48 46/46/46 47/47/47
f 48/48/48 47/47/47 49/49/49
f 50/50/50 48/48/48 49/49/49
f 50/50/50 49/49/49 51/51/51
f 52/52/52 50/50/50 51/51/51
f 52/52/52 51/51/51 53/53/53
f 54/54/54 52/52/52 53/53/53
f 55/55/55 40/40/40 42/42/42
f 56/56/56 55/55/55 42/42/42
f 56/56/56 42/42/42 44/44/44
f 57/57/57 48/48/48 50/50/50
f 58/58/58 57/57/57 50/50/50
f 58/58/58 50/50/50 52/52/52
f 59/59/59 58/58/58 52/52/52
f 59/59/59 52/52/52 54/54/54
f 60/60/60 46/46/46 48/48/48
f 57/57/57 60/60/60 48/48/48
f 61/61/61 51/51/51 49/49/49
f 62/62/62 61/61/61 49/49/49
f 62/62/62 49/49/49 47/47/47
f 63/63/63 59/59/59 54/54/54
f 63/63/63 54/54/54 53/53/53
f 64/64/64 53/53/53 51/51/51
f 61/61/61 64/64/64 51/51/51
f 64/64/64 63/63/63 53/53/53
f 55/55/55 65/65/65 40/40/40
f 65/65/65 39/39/39 40/40/40
f 65/65/65 66/66/66 39/39/39
f 66/66/66 38/38/38 39/39/39
f 66/66/66 67/67/67 38/38/38
f 67/67/67 37/37/37 38/38/38
f 67/67/67 68/68/68 37/37/37
f 68/68/68 41/41/41 37/37/37
f 68/68/68 69/69/69 41/41/41
f 69/69/69 43/43/43 41/41/41
f 69/69/69 70/70/70 43/43/43
f 70/70/70 45/45/45 43/43/43
f 70/70/70 71/71/71 45/45/45
f 71/71/71 47/47/47 45/45/45
f 71/71/71 62/62/62 47/47/47
f 72/72/72 56/56/56 44/44/44
f 72/72/72 44/44/44 46/46/46
f 60/60/60 72/72/72 46/46/46
