g model_car_112_matte_tile_LOD1
v 0.8414694 0.2663572 1.814574
v 0.8535889 0.2604966 1.813811
v 0.849506 0.2376888 1.817724
v 0.840138 0.2403958 1.81758
v 0.839677 0.2867825 1.81523
v 0.8538249 0.2807007 1.813932
v 0.8286787 0.3220158 1.831094
v 0.8447815 0.3225322 1.840738
v 0.8157368 0.3445065 1.857759
v 0.8251343 0.3474572 1.884631
v 0.8091866 0.4598145 0.8331792
v 0.8743055 0.4591582 0.8382025
v 0.8768983 0.5098968 0.8424439
v 0.8120707 0.5099964 0.8383832
v 0.8056532 0.4138927 0.8151512
v 0.8693228 0.4115913 0.8197763
v 0.8009619 0.3674657 0.7885849
v 0.860814 0.3663297 0.7925315
v 0.794655 0.3246419 0.7502241
v 0.847057 0.3217504 0.7562284
v 0.8762787 0.5711393 0.826308
v 0.8133432 0.5698891 0.8237262
v 0.8721479 0.6538291 0.7814927
v 0.8110602 0.6508009 0.7784793
v 0.7910259 0.2955086 0.7075477
v 0.8292541 0.2869632 0.7160158
v 0.8713181 0.6543601 0.780755
v 0.8118236 0.6513984 0.7778227
v 0.7818053 0.5081191 -1.823307
v 0.7761145 0.4961989 -1.823997
v 0.781584 0.4934807 -1.822805
v 0.7897017 0.4924109 -1.821146
v 0.8030604 0.4913082 -1.818442
v 0.7909704 0.5235727 -1.822057
v 0.8221138 0.4958594 -1.814813
v 0.8039862 0.5408518 -1.820105
v 0.8393155 0.5093102 -1.811885
v 0.8242455 0.5530746 -1.816521
v 0.8490008 0.5310559 -1.810763
v 0.8399204 0.5572608 -1.813552
v 0.8522353 0.5501647 -1.810833
v 0.8503248 0.5539746 -1.811357
v 1.430511E-06 0.4172528 2.043365
v 0.03287077 0.4175036 2.042214
v 0.06802309 0.3146467 1.997775
v 1.430511E-06 0.3146431 2.001861
v 0.09346426 0.4173265 2.038135
v 0.1689029 0.4175625 2.030471
v 0.1817894 0.3146467 1.984095
v 0.2448578 0.4174261 2.019624
v 0.2859554 0.3146467 1.9643
v 0.3125179 0.4171126 2.007231
v 0.391062 0.4160872 1.990841
v 0.3843532 0.3146467 1.943392
v 0.4593564 0.4104407 1.96288
v 0.454868 0.3146467 1.925154
v 0.496187 0.403765 1.940958
v 0.5202414 0.3152885 1.906019
v 0.5267547 0.3899601 1.923306
v 0.5504994 0.3756571 1.911334
v 0.5668492 0.3160925 1.886114
v 0.5737277 0.3537381 1.895807
v 0.5812997 0.3195705 1.884897
v 0.591575 0.3304102 1.883149
v 0.07955241 0.20732 1.977209
v 1.430511E-06 0.2068405 1.982236
v 1.430511E-06 0.2904375 1.994164
v 0.07486832 0.2904375 1.989222
v 0.1815755 0.2904375 1.975992
v 0.1795802 0.2077994 1.967697
v 0.2857231 0.2904375 1.956157
v 0.2846572 0.2082531 1.954128
v 0.3841023 0.2904375 1.935385
v 0.4042584 0.2093596 1.938531
v 0.4317614 0.2093818 1.932777
v 0.4546098 0.2904375 1.918482
v 0.4912964 0.2120926 1.920337
v 0.5199832 0.2910793 1.900258
v 0.5390881 0.2197418 1.90034
v 0.5698293 0.2920787 1.881028
v 0.5701059 0.2290103 1.883378
v 0.587636 0.2908616 1.878196
v 0.6001943 0.2524526 1.870325
v 0.6056123 0.2813127 1.870583
v -0.8414664 0.2663572 1.814574
v -0.8401387 0.2403958 1.81758
v -0.849503 0.2376888 1.817724
v -0.8535898 0.2604966 1.813811
v -0.8396778 0.2867825 1.81523
v -0.8538258 0.2807007 1.813932
v -0.8286796 0.3220158 1.831094
v -0.8447824 0.3225322 1.840738
v -0.8157377 0.3445065 1.857759
v -0.8251352 0.3474572 1.884631
v -0.8091874 0.4598145 0.8331792
v -0.8120716 0.5099964 0.8383832
v -0.8768954 0.5098968 0.8424439
v -0.8743064 0.4591582 0.8382025
v -0.805654 0.4138927 0.8151512
v -0.8693235 0.4115913 0.8197763
v -0.8009627 0.3674657 0.7885849
v -0.8608148 0.3663297 0.7925315
v -0.7946558 0.3246419 0.7502241
v -0.8470542 0.3217504 0.7562284
v -0.8762796 0.5711393 0.826308
v -0.813344 0.5698891 0.8237262
v -0.8721488 0.6538291 0.7814927
v -0.8110609 0.6508009 0.7784793
v -0.791023 0.2955086 0.7075477
v -0.8292549 0.2869632 0.7160158
v -0.8713152 0.6543601 0.780755
v -0.8118243 0.6513984 0.7778227
v -0.781806 0.5081191 -1.823307
v -0.7896988 0.4924109 -1.821146
v -0.7815812 0.4934807 -1.822805
v -0.7761116 0.4961989 -1.823997
v -0.8030612 0.4913082 -1.818442
v -0.7909677 0.5235727 -1.822057
v -0.8221145 0.4958594 -1.814813
v -0.803987 0.5408518 -1.820105
v -0.8393164 0.5093102 -1.811885
v -0.8242464 0.5530746 -1.816521
v -0.8490016 0.5310559 -1.810763
v -0.8399174 0.5572608 -1.813552
v -0.852236 0.5501647 -1.810833
v -0.8503256 0.5539746 -1.811357
v 1.430511E-06 0.4172528 2.043365
v 1.430511E-06 0.3146431 2.001861
v -0.0680238 0.3146467 1.997775
v -0.03287148 0.4175036 2.042214
v -0.09346509 0.4173265 2.038135
v -0.1689037 0.4175625 2.030471
v -0.1817904 0.3146467 1.984095
v -0.2448585 0.4174261 2.019624
v -0.2859564 0.3146467 1.9643
v -0.312515 0.4171126 2.007231
v -0.3910627 0.4160872 1.990841
v -0.3843539 0.3146467 1.943392
v -0.4593573 0.4104407 1.96288
v -0.4548688 0.3146467 1.925154
v -0.4961841 0.403765 1.940958
v -0.5202384 0.3152885 1.906019
v -0.5267556 0.3899601 1.923306
v -0.5505002 0.3756571 1.911334
v -0.5668499 0.3160925 1.886114
v -0.5737286 0.3537381 1.895807
v -0.5812967 0.3195705 1.884897
v -0.5915759 0.3304102 1.883149
v -0.07955313 0.20732 1.977209
v -0.07486546 0.2904375 1.989222
v 1.430511E-06 0.2904375 1.994164
v 1.430511E-06 0.2068405 1.982236
v -0.1815763 0.2904375 1.975992
v -0.1795774 0.2077994 1.967697
v -0.2857239 0.2904375 1.956157
v -0.2846544 0.2082531 1.954128
v -0.3841031 0.2904375 1.935385
v -0.4042592 0.2093596 1.938531
v -0.4317584 0.2093818 1.932777
v -0.4546106 0.2904375 1.918482
v -0.4912972 0.2120926 1.920337
v -0.519984 0.2910793 1.900258
v -0.539089 0.2197418 1.90034
v -0.5698302 0.2920787 1.881028
v -0.5701067 0.2290103 1.883378
v -0.5876367 0.2908616 1.878196
v -0.6001952 0.2524526 1.870325
v -0.6056132 0.2813127 1.870583
vt 1.491875 0.1870713
vt 1.491875 0.1502446
vt 1.459537 0.1502446
vt 1.459537 0.1870713
vt 1.517225 0.1870713
vt 1.517225 0.1502446
vt 1.566857 0.1870713
vt 1.566857 0.1502446
vt 1.612835 0.1870713
vt 1.612835 0.1502446
vt 1.438086 0.3726934
vt 1.329684 0.3845876
vt 1.334309 0.468438
vt 1.43982 0.4565683
vt 1.438996 0.2895072
vt 1.329648 0.2988307
vt 1.440448 0.1984613
vt 1.336929 0.2077602
vt 1.447865 0.09969082
vt 1.355269 0.1066281
vt 1.348725 0.5746255
vt 1.446425 0.5609108
vt 1.370619 0.68823
vt 1.458123 0.6787219
vt 1.458209 0.007697757
vt 1.384888 0.0106006
vt 1.372009 0.6897182
vt 1.45725 0.6803824
vt 1.54404 0.02534852
vt 1.542527 0.003601796
vt 1.533105 0.004413608
vt 1.520805 0.008964675
vt 1.501161 0.01849732
vt 1.542305 0.05538556
vt 1.477262 0.04060074
vt 1.535823 0.09092078
vt 1.462022 0.07378663
vt 1.515294 0.1243896
vt 1.463301 0.1132579
vt 1.49629 0.143418
vt 1.473338 0.1435533
vt 1.479021 0.1474278
vt 1.189401 0.976005
vt 1.189401 0.9018472
vt 1.011048 0.8673944
vt 1.011048 0.976005
vt 1.189401 0.8329416
vt 1.189401 0.6848105
vt 1.011048 0.6848105
vt 1.189401 0.5747977
vt 1.011048 0.5158429
vt 1.189401 0.4568881
vt 1.189401 0.3555592
vt 1.011048 0.3555592
vt 1.189401 0.239507
vt 1.011048 0.239507
vt 1.189401 0.1309702
vt 1.011048 0.1309702
vt 1.140249 0.1137868
vt 1.114099 0.07304862
vt 1.011048 0.04101895
vt 1.074296 0.03223662
vt 1.017272 0.01793151
vt 1.034025 0.000637452
vt 1.327581 0.1301215
vt 1.328368 0.001781369
vt 1.190791 0.000637452
vt 1.190889 0.1213268
vt 1.192107 0.2942797
vt 1.327347 0.2918935
vt 1.193878 0.4649324
vt 1.327864 0.4624847
vt 1.195293 0.626852
vt 1.328073 0.6566677
vt 1.328368 0.7018462
vt 1.195858 0.7436054
vt 1.324617 0.7993867
vt 1.194997 0.8528679
vt 1.311468 0.8822531
vt 1.19271 0.9389691
vt 1.295416 0.9387355
vt 1.194333 0.9681083
vt 1.256978 0.9911096
vt 1.210016 0.9993631
vt 1.491875 0.1870713
vt 1.459537 0.1870713
vt 1.459537 0.1502446
vt 1.491875 0.1502446
vt 1.517225 0.1870713
vt 1.517225 0.1502446
vt 1.566857 0.1870713
vt 1.566857 0.1502446
vt 1.612835 0.1870713
vt 1.612835 0.1502446
vt 1.438086 0.3726934
vt 1.43982 0.4565683
vt 1.334309 0.468438
vt 1.329684 0.3845876
vt 1.438996 0.2895072
vt 1.329648 0.2988307
vt 1.440448 0.1984613
vt 1.336929 0.2077602
vt 1.447865 0.09969082
vt 1.355269 0.1066281
vt 1.348725 0.5746255
vt 1.446425 0.5609108
vt 1.370619 0.68823
vt 1.458123 0.6787219
vt 1.458209 0.007697757
vt 1.384888 0.0106006
vt 1.372009 0.6897182
vt 1.45725 0.6803824
vt 1.54404 0.02534852
vt 1.520805 0.008964675
vt 1.533105 0.004413608
vt 1.542527 0.003601796
vt 1.501161 0.01849732
vt 1.542305 0.05538556
vt 1.477262 0.04060074
vt 1.535823 0.09092078
vt 1.462022 0.07378663
vt 1.515294 0.1243896
vt 1.463301 0.1132579
vt 1.49629 0.143418
vt 1.473338 0.1435533
vt 1.479021 0.1474278
vt 1.189401 0.976005
vt 1.011048 0.976005
vt 1.011048 0.8673944
vt 1.189401 0.9018472
vt 1.189401 0.8329416
vt 1.189401 0.6848105
vt 1.011048 0.6848105
vt 1.189401 0.5747977
vt 1.011048 0.5158429
vt 1.189401 0.4568881
vt 1.189401 0.3555592
vt 1.011048 0.3555592
vt 1.189401 0.239507
vt 1.011048 0.239507
vt 1.189401 0.1309702
vt 1.011048 0.1309702
vt 1.140249 0.1137868
vt 1.114099 0.07304862
vt 1.011048 0.04101895
vt 1.074296 0.03223662
vt 1.017272 0.01793151
vt 1.034025 0.000637452
vt 1.327581 0.1301215
vt 1.190889 0.1213268
vt 1.190791 0.000637452
vt 1.328368 0.001781369
vt 1.192107 0.2942797
vt 1.327347 0.2918935
vt 1.193878 0.4649324
vt 1.327864 0.4624847
vt 1.195293 0.626852
vt 1.328073 0.6566677
vt 1.328368 0.7018462
vt 1.195858 0.7436054
vt 1.324617 0.7993867
vt 1.194997 0.8528679
vt 1.311468 0.8822531
vt 1.19271 0.9389691
vt 1.295416 0.9387355
vt 1.194333 0.9681083
vt 1.256978 0.9911096
vt 1.210016 0.9993631
vn 0.07530826 0.03772354 0.9964465
vn 0.07685667 0.07643312 0.9941081
vn 0.07995343 0.1306264 0.9882025
vn 0.07995343 0.1306264 0.9882025
vn -0.2637873 -0.4577585 0.8490427
vn -0.1600457 -0.3261461 0.9316728
vn -0.3830127 -0.7178865 0.5813263
vn -0.3876578 -0.7349187 0.5564314
vn -0.4139802 -0.8324667 0.3682656
vn -0.4139802 -0.8324667 0.3682656
vn 0.07530826 0.2297229 -0.9703381
vn 0.07375991 0.2157874 -0.9736505
vn 0.06137282 -0.09698558 -0.9933918
vn 0.06137282 -0.09234047 -0.9938343
vn 0.07530826 0.4310124 -0.8991979
vn 0.07685667 0.4217222 -0.9034619
vn 0.08305019 0.5719151 -0.8160979
vn 0.08150178 0.5564313 -0.8268868
vn 0.1403403 0.6926888 -0.7074509
vn 0.1264049 0.6756567 -0.7262987
vn 0.0551793 -0.3865329 -0.9206234
vn 0.0551793 -0.3880813 -0.9199718
vn 0.05672771 -0.4809842 -0.8748921
vn 0.05672771 -0.4809842 -0.8748921
vn 0.196082 0.7515273 -0.6298878
vn 0.196082 0.7515273 -0.6298878
vn 0.06911474 -0.7736282 -0.6298591
vn 0.06911474 -0.7736282 -0.6298591
vn 0.196082 -0.03659874 -0.9799042
vn 0.196082 -0.03659874 -0.9799042
vn 0.196082 -0.03659874 -0.9799042
vn 0.196082 -0.03659874 -0.9799042
vn 0.196082 -0.03659874 -0.9799042
vn 0.196082 -0.03659874 -0.9799042
vn 0.196082 -0.03659874 -0.9799042
vn 0.196082 -0.03659874 -0.9799042
vn 0.196082 -0.03659874 -0.9799042
vn 0.196082 -0.03659874 -0.9799042
vn 0.196082 -0.03659874 -0.9799042
vn 0.196082 -0.03659874 -0.9799042
vn 0.196082 -0.03659874 -0.9799042
vn 0.196082 -0.03659874 -0.9799042
vn -0.0005624294 -0.378791 0.9254821
vn 0.05208254 -0.378791 0.9240156
vn 0.08459854 -0.3865329 0.9183874
vn -0.0005624294 -0.378791 0.9254821
vn 0.09543723 -0.3896297 0.9160134
vn 0.1248565 -0.3973716 0.9091241
vn 0.13105 -0.39892 0.907573
vn 0.1542757 -0.4082102 0.8997574
vn 0.1697595 -0.4159521 0.8934011
vn 0.1790498 -0.4221457 0.8886699
vn 0.2208561 -0.4128554 0.8836136
vn 0.2255012 -0.411307 0.8831624
vn 0.2967268 -0.3679523 0.8812289
vn 0.3013719 -0.3617588 0.8822163
vn 0.3431782 -0.3075655 0.8874865
vn 0.3478234 -0.2905332 0.8914086
vn 0.378791 -0.248727 0.8914327
vn 0.3524685 -0.2595657 0.899106
vn 0.3307912 -0.2673076 0.9050546
vn 0.2735011 -0.2827914 0.9193618
vn 0.2858881 -0.2735011 0.9184036
vn 0.3725975 -0.2069207 0.9046298
vn 0.09079206 -0.1279532 0.9876157
vn -0.0005624294 -0.1403403 0.9901032
vn -0.0005624294 -0.1403403 0.9901032
vn 0.08924371 -0.1279532 0.9877568
vn 0.1341467 -0.09234047 0.9866498
vn 0.1325984 -0.09234047 0.9868591
vn 0.1604692 -0.01801819 0.9868764
vn 0.1604692 -0.01956654 0.9868469
vn 0.1790498 0.04546547 0.9827889
vn 0.1867917 0.05475575 0.9808724
vn 0.216211 0.104304 0.9707592
vn 0.2316948 0.1182394 0.965576
vn 0.2673076 0.1213362 0.9559415
vn 0.346275 0.1058524 0.9321421
vn 0.3880813 0.08417499 0.9177731
vn 0.3756942 0.04856223 0.9254704
vn 0.3849845 0.05785251 0.921108
vn 0.3230492 -0.01646978 0.9462388
vn 0.3215009 -0.01492143 0.9467917
vn 0.3555653 -0.07530826 0.9316126
vn -0.07488471 0.03772354 0.9964784
vn -0.08107823 0.1306264 0.9881108
vn -0.08107823 0.1306264 0.9881108
vn -0.07798147 0.07643312 0.9940206
vn 0.2642108 -0.4577585 0.848911
vn 0.1604692 -0.3261461 0.9315999
vn 0.3834361 -0.7178865 0.5810471
vn 0.3880813 -0.7349187 0.5561361
vn 0.4144038 -0.8324667 0.3677889
vn 0.4144038 -0.8324667 0.3677889
vn -0.07488471 0.2297229 -0.9703709
vn -0.06094927 -0.09234047 -0.9938604
vn -0.06094927 -0.09698558 -0.9934179
vn -0.07488471 0.2157874 -0.9735646
vn -0.07643312 0.4325608 -0.8983591
vn -0.07643312 0.4217222 -0.9034979
vn -0.08262664 0.5719151 -0.8161408
vn -0.08107823 0.5564313 -0.8269284
vn -0.1414651 0.6926888 -0.7072269
vn -0.1259813 0.6756567 -0.7263723
vn -0.05475575 -0.3865329 -0.9206488
vn -0.05475575 -0.3880813 -0.9199972
vn -0.05630416 -0.4809842 -0.8749195
vn -0.05630416 -0.4809842 -0.8749195
vn -0.1956584 0.7515273 -0.6300194
vn -0.1956584 0.7515273 -0.6300194
vn -0.07023954 -0.7736282 -0.6297346
vn -0.07023954 -0.7736282 -0.6297346
vn -0.1956584 -0.03659874 -0.9799889
vn -0.1956584 -0.03659874 -0.9799889
vn -0.1956584 -0.03659874 -0.9799889
vn -0.1956584 -0.03659874 -0.9799889
vn -0.1956584 -0.03659874 -0.9799889
vn -0.1956584 -0.03659874 -0.9799889
vn -0.1956584 -0.03659874 -0.9799889
vn -0.1956584 -0.03659874 -0.9799889
vn -0.1956584 -0.03659874 -0.9799889
vn -0.1956584 -0.03659874 -0.9799889
vn -0.1956584 -0.03659874 -0.9799889
vn -0.1956584 -0.03659874 -0.9799889
vn -0.1956584 -0.03659874 -0.9799889
vn -0.1956584 -0.03659874 -0.9799889
vn -0.0005624294 -0.378791 0.9254821
vn -0.0005624294 -0.378791 0.9254821
vn -0.08417499 -0.3865329 0.9184263
vn -0.05165899 -0.378791 0.9240394
vn -0.09501368 -0.3896297 0.9160574
vn -0.1259813 -0.3973716 0.908969
vn -0.1306264 -0.39892 0.9076341
vn -0.1538522 -0.4082102 0.8998299
vn -0.169336 -0.4159521 0.8934815
vn -0.1786263 -0.4221457 0.8887551
vn -0.2219809 -0.4128554 0.8833317
vn -0.2250777 -0.411307 0.8832703
vn -0.2963033 -0.3679523 0.8813714
vn -0.3024968 -0.3617588 0.8818312
vn -0.344303 -0.3075655 0.8870507
vn -0.3473998 -0.2905332 0.8915737
vn -0.3799158 -0.248727 0.8909539
vn -0.3520449 -0.2595657 0.8992719
vn -0.3303677 -0.2673076 0.9052093
vn -0.2730775 -0.2827914 0.9194878
vn -0.2854645 -0.2735011 0.9185354
vn -0.3721739 -0.2069207 0.9048041
vn -0.09036851 -0.1279532 0.9876545
vn -0.08882016 -0.1279532 0.987795
vn -0.0005624294 -0.1403403 0.9901032
vn -0.0005624294 -0.1403403 0.9901032
vn -0.1337232 -0.09234047 0.9867073
vn -0.1337232 -0.09234047 0.9867073
vn -0.1615941 -0.01801819 0.9866928
vn -0.1615941 -0.01956654 0.9866633
vn -0.1801746 0.04546547 0.9825833
vn -0.1879165 0.05475575 0.9806576
vn -0.2173358 0.104304 0.970508
vn -0.2328196 0.1182394 0.9653054
vn -0.266884 0.1213362 0.9560599
vn -0.3458514 0.1058524 0.9322993
vn -0.3892062 0.08417499 0.9172966
vn -0.3752707 0.04856223 0.9256423
vn -0.3845609 0.05785251 0.921285
vn -0.3226258 -0.01646978 0.9463833
vn -0.3210773 -0.01492143 0.9469354
vn -0.3551418 -0.07530826 0.9317741
g model_car_112_matte_tile_LOD1_0
f 3/3/3 2/2/2 1/1/1
f 4/4/4 3/3/3 1/1/1
f 5/5/5 1/1/1 2/2/2
f 6/6/6 5/5/5 2/2/2
f 7/7/7 5/5/5 6/6/6
f 8/8/8 7/7/7 6/6/6
f 7/7/7 8/8/8 9/9/9
f 8/8/8 10/10/10 9/9/9
f 13/13/13 12/12/12 11/11/11
f 14/14/14 13/13/13 11/11/11
f 11/11/11 12/12/12 15/15/15
f 12/12/12 16/16/16 15/15/15
f 15/15/15 16/16/16 17/17/17
f 16/16/16 18/18/18 17/17/17
f 17/17/17 18/18/18 19/19/19
f 18/18/18 20/20/20 19/19/19
f 21/21/21 13/13/13 14/14/14
f 22/22/22 21/21/21 14/14/14
f 23/23/23 21/21/21 22/22/22
f 24/24/24 23/23/23 22/22/22
f 19/19/19 20/20/20 25/25/25
f 20/20/20 26/26/26 25/25/25
f 23/23/23 24/24/24 27/27/27
f 24/24/24 28/28/28 27/27/27
f 31/31/31 30/30/30 29/29/29
f 32/32/32 31/31/31 29/29/29
f 33/33/33 32/32/32 29/29/29
f 34/34/34 33/33/33 29/29/29
f 35/35/35 33/33/33 34/34/34
f 36/36/36 35/35/35 34/34/34
f 37/37/37 35/35/35 36/36/36
f 38/38/38 37/37/37 36/36/36
f 39/39/39 37/37/37 38/38/38
f 40/40/40 39/39/39 38/38/38
f 41/41/41 39/39/39 40/40/40
f 42/42/42 41/41/41 40/40/40
f 45/45/45 44/44/44 43/43/43
f 46/46/46 45/45/45 43/43/43
f 44/44/44 45/45/45 47/47/47
f 47/47/47 45/45/45 48/48/48
f 45/45/45 49/49/49 48/48/48
f 48/48/48 49/49/49 50/50/50
f 49/49/49 51/51/51 50/50/50
f 50/50/50 51/51/51 52/52/52
f 52/52/52 51/51/51 53/53/53
f 51/51/51 54/54/54 53/53/53
f 53/53/53 54/54/54 55/55/55
f 54/54/54 56/56/56 55/55/55
f 55/55/55 56/56/56 57/57/57
f 56/56/56 58/58/58 57/57/57
f 59/59/59 57/57/57 58/58/58
f 59/59/59 58/58/58 60/60/60
f 58/58/58 61/61/61 60/60/60
f 60/60/60 61/61/61 62/62/62
f 61/61/61 63/63/63 62/62/62
f 63/63/63 64/64/64 62/62/62
f 67/67/67 66/66/66 65/65/65
f 68/68/68 67/67/67 65/65/65
f 68/68/68 65/65/65 69/69/69
f 65/65/65 70/70/70 69/69/69
f 69/69/69 70/70/70 71/71/71
f 70/70/70 72/72/72 71/71/71
f 71/71/71 72/72/72 73/73/73
f 72/72/72 74/74/74 73/73/73
f 74/74/74 75/75/75 73/73/73
f 75/75/75 76/76/76 73/73/73
f 75/75/75 77/77/77 76/76/76
f 76/76/76 77/77/77 78/78/78
f 77/77/77 79/79/79 78/78/78
f 78/78/78 79/79/79 80/80/80
f 79/79/79 81/81/81 80/80/80
f 80/80/80 81/81/81 82/82/82
f 81/81/81 83/83/83 82/82/82
f 83/83/83 84/84/84 82/82/82
f 87/87/87 86/86/86 85/85/85
f 88/88/88 87/87/87 85/85/85
f 85/85/85 89/89/89 88/88/88
f 89/89/89 90/90/90 88/88/88
f 89/89/89 91/91/91 90/90/90
f 91/91/91 92/92/92 90/90/90
f 92/92/92 91/91/91 93/93/93
f 94/94/94 92/92/92 93/93/93
f 97/97/97 96/96/96 95/95/95
f 98/98/98 97/97/97 95/95/95
f 98/98/98 95/95/95 99/99/99
f 100/100/100 98/98/98 99/99/99
f 100/100/100 99/99/99 101/101/101
f 102/102/102 100/100/100 101/101/101
f 102/102/102 101/101/101 103/103/103
f 104/104/104 102/102/102 103/103/103
f 97/97/97 105/105/105 96/96/96
f 105/105/105 106/106/106 96/96/96
f 105/105/105 107/107/107 106/106/106
f 107/107/107 108/108/108 106/106/106
f 104/104/104 103/103/103 109/109/109
f 110/110/110 104/104/104 109/109/109
f 108/108/108 107/107/107 111/111/111
f 112/112/112 108/108/108 111/111/111
f 115/115/115 114/114/114 113/113/113
f 116/116/116 115/115/115 113/113/113
f 114/114/114 117/117/117 113/113/113
f 117/117/117 118/118/118 113/113/113
f 117/117/117 119/119/119 118/118/118
f 119/119/119 120/120/120 118/118/118
f 119/119/119 121/121/121 120/120/120
f 121/121/121 122/122/122 120/120/120
f 121/121/121 123/123/123 122/122/122
f 123/123/123 124/124/124 122/122/122
f 123/123/123 125/125/125 124/124/124
f 125/125/125 126/126/126 124/124/124
f 129/129/129 128/128/128 127/127/127
f 130/130/130 129/129/129 127/127/127
f 129/129/129 130/130/130 131/131/131
f 129/129/129 131/131/131 132/132/132
f 133/133/133 129/129/129 132/132/132
f 133/133/133 132/132/132 134/134/134
f 135/135/135 133/133/133 134/134/134
f 135/135/135 134/134/134 136/136/136
f 135/135/135 136/136/136 137/137/137
f 138/138/138 135/135/135 137/137/137
f 138/138/138 137/137/137 139/139/139
f 140/140/140 138/138/138 139/139/139
f 140/140/140 139/139/139 141/141/141
f 142/142/142 140/140/140 141/141/141
f 141/141/141 143/143/143 142/142/142
f 142/142/142 143/143/143 144/144/144
f 145/145/145 142/142/142 144/144/144
f 145/145/145 144/144/144 146/146/146
f 147/147/147 145/145/145 146/146/146
f 148/148/148 147/147/147 146/146/146
f 151/151/151 150/150/150 149/149/149
f 152/152/152 151/151/151 149/149/149
f 149/149/149 150/150/150 153/153/153
f 154/154/154 149/149/149 153/153/153
f 154/154/154 153/153/153 155/155/155
f 156/156/156 154/154/154 155/155/155
f 156/156/156 155/155/155 157/157/157
f 158/158/158 156/156/156 157/157/157
f 159/159/159 158/158/158 157/157/157
f 160/160/160 159/159/159 157/157/157
f 161/161/161 159/159/159 160/160/160
f 161/161/161 160/160/160 162/162/162
f 163/163/163 161/161/161 162/162/162
f 163/163/163 162/162/162 164/164/164
f 165/165/165 163/163/163 164/164/164
f 165/165/165 164/164/164 166/166/166
f 167/167/167 165/165/165 166/166/166
f 168/168/168 167/167/167 166/166/166
