g model_car_71_matte_mirror_LOD1
v 0.9317652 1.054097 0.206306
v 0.9480331 1.060486 0.1986543
v 0.9445168 1.062507 0.2003073
v 0.9341844 1.057509 0.205168
v 0.926502 1.045589 0.2087824
v 0.883501 1.045589 0.229012
v 0.8783501 1.054097 0.2314352
v 0.830615 1.034317 0.2538919
v 0.8427087 1.026283 0.2482038
v 0.8807182 1.057509 0.2303216
v 0.9310583 1.057509 0.2066391
v 0.9392985 1.03919 0.2027632
v 0.9902025 1.038945 0.1788149
v 0.9902229 1.035535 0.1788048
v 0.9414193 1.035745 0.201764
v 0.9915919 1.060149 0.1781611
v 1.051974 1.041632 0.1497546
v 1.047453 1.057203 0.1518816
v 0.991457 1.063557 0.1782244
v 1.047968 1.060574 0.1516405
v 1.061863 1.053294 0.1451023
v 1.063042 1.056486 0.1445485
v 1.06712 1.049857 0.14263
v 1.069687 1.052142 0.1414225
v 1.067764 1.047714 0.1423277
v 1.071219 1.047032 0.1407013
v 1.066052 1.045346 0.1431327
v 1.067897 1.042435 0.1422642
v 1.052514 1.038269 0.1495012
v 0.9502132 1.063896 0.1976286
v 0.9473875 1.063896 0.1989567
v 0.8870623 1.042177 0.2273366
v 0.9227098 1.042177 0.210566
v 0.8841364 1.042177 0.2287138
v 0.8816539 1.040998 0.2298824
v 0.8460248 1.024081 0.2466427
v 0.9258359 1.042177 0.209095
v 0.9367015 1.036744 0.203985
v 0.938612 1.03579 0.203086
v 0.8752342 1.056455 0.2329001
v 0.8271192 1.036642 0.2555367
v 0.8777944 1.057509 0.2316967
v -0.9317652 1.054097 0.206306
v -0.9341844 1.057509 0.205168
v -0.9445168 1.062507 0.2003073
v -0.9480332 1.060486 0.1986543
v -0.926502 1.045589 0.2087824
v -0.8835011 1.045589 0.229012
v -0.8783501 1.054097 0.2314352
v -0.8306171 1.034317 0.2538919
v -0.8427087 1.026283 0.2482038
v -0.8807182 1.057509 0.2303216
v -0.9310583 1.057509 0.2066391
v -0.9392985 1.03919 0.2027632
v -0.9902025 1.038945 0.1788149
v -0.9902231 1.035535 0.1788048
v -0.9414192 1.035745 0.201764
v -0.9915918 1.060149 0.1781611
v -1.051974 1.041632 0.1497546
v -1.047453 1.057203 0.1518816
v -0.9914571 1.063557 0.1782244
v -1.047968 1.060574 0.1516405
v -1.061863 1.053294 0.1451023
v -1.063042 1.056486 0.1445485
v -1.06712 1.049857 0.14263
v -1.069687 1.052142 0.1414225
v -1.067764 1.047714 0.1423277
v -1.071219 1.047032 0.1407013
v -1.066052 1.045346 0.1431327
v -1.067897 1.042435 0.1422642
v -1.052514 1.038269 0.1495012
v -0.9502133 1.063896 0.1976286
v -0.9473876 1.063896 0.1989567
v -0.9227098 1.042177 0.210566
v -0.8870603 1.042177 0.2273366
v -0.8841364 1.042177 0.2287138
v -0.8816539 1.040998 0.2298824
v -0.8460249 1.024081 0.2466427
v -0.925836 1.042177 0.209095
v -0.9367017 1.036744 0.203985
v -0.9386119 1.03579 0.203086
v -0.8271192 1.036642 0.2555367
v -0.8752342 1.056455 0.2329001
v -0.8777944 1.057509 0.2316967
vn -0.4257036 0.0004143715 -0.9048626
vn -0.4257036 0.0004143715 -0.9048626
vn -0.4257036 0.0004143715 -0.9048626
vn -0.4257036 -0.0004178882 -0.9048626
vn -0.4257036 0.0004143715 -0.9048626
vn -0.4257036 0.0004143715 -0.9048626
vn -0.4257036 0.0004143715 -0.9048626
vn -0.4257036 0.0004143715 -0.9048626
vn -0.4257036 0.0004143715 -0.9048626
vn -0.4257036 -0.0004178882 -0.9048626
vn -0.4257036 -0.0004178882 -0.9048626
vn -0.4257036 0.0004143715 -0.9048626
vn -0.4257036 0.0004143715 -0.9048626
vn -0.4257036 -0.0004178882 -0.9048626
vn -0.4257036 -0.0004178882 -0.9048626
vn -0.4257036 0.0004143715 -0.9048626
vn -0.4257036 0.0004143715 -0.9048626
vn -0.4257036 0.0004143715 -0.9048626
vn -0.4257036 0.0004143715 -0.9048626
vn -0.4257036 0.0004143715 -0.9048626
vn -0.4257036 0.0004143715 -0.9048626
vn -0.4257036 0.0004143715 -0.9048626
vn -0.4257036 -0.0004178882 -0.9048626
vn -0.4257036 0.0004143715 -0.9048626
vn -0.4257036 0.0004143715 -0.9048626
vn -0.4257036 0.0004143715 -0.9048626
vn -0.4257036 0.0004143715 -0.9048626
vn -0.4257036 0.0004143715 -0.9048626
vn -0.4257036 0.0004143715 -0.9048626
vn -0.4257036 0.0004143715 -0.9048626
vn -0.4257036 0.0004143715 -0.9048626
vn -0.4257036 0.0004143715 -0.9048626
vn -0.4257036 0.0004143715 -0.9048626
vn -0.4257036 0.0004143715 -0.9048626
vn -0.4257036 0.0004143715 -0.9048626
vn -0.4257036 0.0004143715 -0.9048626
vn -0.4257036 0.0004143715 -0.9048626
vn -0.4257036 -0.0004178882 -0.9048626
vn -0.4257036 -0.0004178882 -0.9048626
vn -0.4257036 0.0004143715 -0.9048626
vn -0.4257036 0.0004143715 -0.9048626
vn -0.4257036 -0.0004178882 -0.9048626
vn 0.4257072 0.0004143715 -0.9048609
vn 0.4257072 -0.0004178882 -0.9048609
vn 0.4257072 -0.0004178882 -0.9048609
vn 0.4257072 0.0004143715 -0.9048609
vn 0.4257072 0.0004143715 -0.9048609
vn 0.4257072 0.0004143715 -0.9048609
vn 0.4257072 0.0004143715 -0.9048609
vn 0.4257072 0.0004143715 -0.9048609
vn 0.4257072 0.0004143715 -0.9048609
vn 0.4257072 -0.0004178882 -0.9048609
vn 0.4257072 -0.0004178882 -0.9048609
vn 0.4257072 0.0004143715 -0.9048609
vn 0.4257072 0.0004143715 -0.9048609
vn 0.4257072 0.0004143715 -0.9048609
vn 0.4257072 -0.0004178882 -0.9048609
vn 0.4257072 0.0004143715 -0.9048609
vn 0.4257072 0.0004143715 -0.9048609
vn 0.4257072 0.0004143715 -0.9048609
vn 0.4257072 0.0004143715 -0.9048609
vn 0.4257072 0.0004143715 -0.9048609
vn 0.4257072 0.0004143715 -0.9048609
vn 0.4257072 0.0004143715 -0.9048609
vn 0.4257072 -0.0004178882 -0.9048609
vn 0.4257072 0.0004143715 -0.9048609
vn 0.4257072 0.0004143715 -0.9048609
vn 0.4257072 0.0004143715 -0.9048609
vn 0.4257072 0.0004143715 -0.9048609
vn 0.4257072 0.0004143715 -0.9048609
vn 0.4257072 0.0004143715 -0.9048609
vn 0.4257072 0.0004143715 -0.9048609
vn 0.4257072 0.0004143715 -0.9048609
vn 0.4257072 0.0004143715 -0.9048609
vn 0.4257072 0.0004143715 -0.9048609
vn 0.4257072 0.0004143715 -0.9048609
vn 0.4257072 0.0004143715 -0.9048609
vn 0.4257072 0.0004143715 -0.9048609
vn 0.4257072 0.0004143715 -0.9048609
vn 0.4257072 0.0004143715 -0.9048609
vn 0.4257072 -0.0004178882 -0.9048609
vn 0.4257072 -0.0004178882 -0.9048609
vn 0.4257072 0.0004143715 -0.9048609
vn 0.4257072 -0.0004178882 -0.9048609
g model_car_71_matte_mirror_LOD1_0
f 3/3/3 2/2/2 1/1/1
f 4/4/4 3/3/3 1/1/1
f 1/1/1 2/2/2 5/5/5
f 1/1/1 5/5/5 6/6/6
f 7/7/7 1/1/1 6/6/6
f 8/8/8 7/7/7 6/6/6
f 9/9/9 8/8/8 6/6/6
f 7/7/7 10/10/10 1/1/1
f 10/10/10 11/11/11 1/1/1
f 1/1/1 11/11/11 4/4/4
f 2/2/2 12/12/12 5/5/5
f 12/12/12 2/2/2 13/13/13
f 13/13/13 14/14/14 12/12/12
f 14/14/14 15/15/15 12/12/12
f 2/2/2 16/16/16 13/13/13
f 13/13/13 16/16/16 17/17/17
f 14/14/14 13/13/13 17/17/17
f 16/16/16 18/18/18 17/17/17
f 16/16/16 19/19/19 18/18/18
f 19/19/19 20/20/20 18/18/18
f 18/18/18 20/20/20 21/21/21
f 20/20/20 22/22/22 21/21/21
f 21/21/21 22/22/22 23/23/23
f 22/22/22 24/24/24 23/23/23
f 23/23/23 24/24/24 25/25/25
f 21/21/21 23/23/23 25/25/25
f 24/24/24 26/26/26 25/25/25
f 25/25/25 26/26/26 27/27/27
f 18/18/18 21/21/21 27/27/27
f 17/17/17 18/18/18 27/27/27
f 27/27/27 21/21/21 25/25/25
f 27/27/27 28/28/28 17/17/17
f 26/26/26 28/28/28 27/27/27
f 28/28/28 29/29/29 17/17/17
f 29/29/29 14/14/14 17/17/17
f 30/30/30 19/19/19 16/16/16
f 2/2/2 30/30/30 16/16/16
f 31/31/31 30/30/30 2/2/2
f 3/3/3 31/31/31 2/2/2
f 33/33/33 32/32/32 6/6/6
f 5/5/5 33/33/33 6/6/6
f 6/6/6 32/32/32 34/34/34
f 6/6/6 34/34/34 35/35/35
f 6/6/6 35/35/35 9/9/9
f 35/35/35 36/36/36 9/9/9
f 37/37/37 33/33/33 5/5/5
f 5/5/5 12/12/12 37/37/37
f 12/12/12 38/38/38 37/37/37
f 12/12/12 39/39/39 38/38/38
f 12/12/12 15/15/15 39/39/39
f 41/41/41 40/40/40 7/7/7
f 8/8/8 41/41/41 7/7/7
f 40/40/40 42/42/42 7/7/7
f 42/42/42 10/10/10 7/7/7
f 45/45/45 44/44/44 43/43/43
f 46/46/46 45/45/45 43/43/43
f 46/46/46 43/43/43 47/47/47
f 47/47/47 43/43/43 48/48/48
f 43/43/43 49/49/49 48/48/48
f 49/49/49 50/50/50 48/48/48
f 50/50/50 51/51/51 48/48/48
f 52/52/52 49/49/49 43/43/43
f 53/53/53 52/52/52 43/43/43
f 53/53/53 43/43/43 44/44/44
f 54/54/54 46/46/46 47/47/47
f 46/46/46 54/54/54 55/55/55
f 56/56/56 55/55/55 54/54/54
f 57/57/57 56/56/56 54/54/54
f 58/58/58 46/46/46 55/55/55
f 58/58/58 55/55/55 59/59/59
f 55/55/55 56/56/56 59/59/59
f 60/60/60 58/58/58 59/59/59
f 61/61/61 58/58/58 60/60/60
f 62/62/62 61/61/61 60/60/60
f 62/62/62 60/60/60 63/63/63
f 64/64/64 62/62/62 63/63/63
f 64/64/64 63/63/63 65/65/65
f 66/66/66 64/64/64 65/65/65
f 66/66/66 65/65/65 67/67/67
f 65/65/65 63/63/63 67/67/67
f 68/68/68 66/66/66 67/67/67
f 68/68/68 67/67/67 69/69/69
f 60/60/60 59/59/59 69/69/69
f 63/63/63 60/60/60 69/69/69
f 63/63/63 69/69/69 67/67/67
f 70/70/70 69/69/69 59/59/59
f 70/70/70 68/68/68 69/69/69
f 71/71/71 70/70/70 59/59/59
f 56/56/56 71/71/71 59/59/59
f 61/61/61 72/72/72 58/58/58
f 72/72/72 46/46/46 58/58/58
f 72/72/72 73/73/73 46/46/46
f 73/73/73 45/45/45 46/46/46
f 74/74/74 47/47/47 48/48/48
f 75/75/75 74/74/74 48/48/48
f 75/75/75 48/48/48 76/76/76
f 76/76/76 48/48/48 77/77/77
f 77/77/77 48/48/48 51/51/51
f 78/78/78 77/77/77 51/51/51
f 74/74/74 79/79/79 47/47/47
f 54/54/54 47/47/47 79/79/79
f 80/80/80 54/54/54 79/79/79
f 81/81/81 54/54/54 80/80/80
f 57/57/57 54/54/54 81/81/81
f 82/82/82 50/50/50 49/49/49
f 83/83/83 82/82/82 49/49/49
f 84/84/84 83/83/83 49/49/49
f 52/52/52 84/84/84 49/49/49
