g model_car_110_matte_mirror_LOD1
v 1.022742 0.8117479 0.4283354
v 0.9894128 0.808929 0.4386226
v 0.9890633 0.781023 0.4387432
v 1.022085 0.7892849 0.4285464
v 1.042193 0.8009987 0.422133
v 1.051443 0.8150592 0.4191815
v 1.022844 0.7873721 0.4283034
v 0.9893827 0.7789958 0.4386427
v 1.051443 0.8284104 0.4191815
v 1.022667 0.8297043 0.4283596
v 1.040787 0.8433911 0.4225811
v 1.021659 0.8567765 0.428681
v 0.9894631 0.830289 0.4386005
v 0.9893787 0.8643813 0.4386207
v 0.9895716 0.8664167 0.4385563
v 1.022545 0.8586329 0.4283998
v 1.042157 0.844908 0.4221431
v 1.053406 0.8290935 0.4185547
v 1.053406 0.8144162 0.4185547
v 1.043547 0.7994314 0.4217011
v 0.9425499 0.8310344 0.4526751
v 0.9424415 0.8703246 0.452655
v 0.9202235 0.8313498 0.4591889
v 0.9201572 0.803251 0.4592593
v 0.8965007 0.8009665 0.4677463
v 0.8964686 0.8320169 0.4676939
v 0.920559 0.8707566 0.4590062
v 0.897429 0.8648193 0.4672539
v 0.92032 0.8728141 0.4590865
v 0.9426383 0.872372 0.4526007
v 0.8753135 0.7990236 0.4761167
v 0.8751026 0.8323504 0.4761167
v 0.9424977 0.8050532 0.4527233
v 0.8831093 0.8489064 0.4729279
v 0.8973265 0.7706474 0.467489
v 0.9200407 0.7677703 0.4593477
v 0.8821951 0.7842197 0.4734262
v 0.8964344 0.8666819 0.4676337
v 0.9420778 0.7713486 0.4528841
v 0.9424012 0.7693213 0.4527936
v 0.9200688 0.7656927 0.4593498
v 0.8965349 0.7686744 0.4678025
v 0.8806621 0.7829137 0.474035
v 0.8734008 0.7985333 0.4768741
v 0.8731838 0.8328487 0.4768721
v 0.8815381 0.850124 0.4735448
v -1.022742 0.8117479 0.4283354
v -1.022085 0.7892849 0.4285464
v -0.9890631 0.781023 0.4387432
v -0.9894127 0.808929 0.4386226
v -1.042193 0.8009987 0.422133
v -1.051443 0.8150592 0.4191815
v -1.022844 0.7873721 0.4283034
v -0.9893826 0.7789958 0.4386427
v -1.051443 0.8284104 0.4191815
v -1.022667 0.8297043 0.4283596
v -1.040786 0.8433911 0.4225811
v -1.021661 0.8567765 0.428681
v -0.989463 0.830289 0.4386005
v -0.9893786 0.8643813 0.4386207
v -0.9895715 0.8664167 0.4385563
v -1.022545 0.8586329 0.4283998
v -1.042157 0.844908 0.4221431
v -1.053406 0.8290935 0.4185547
v -1.053406 0.8144162 0.4185547
v -1.043547 0.7994314 0.4217011
v -0.9425498 0.8310344 0.4526751
v -0.9424413 0.8703246 0.452655
v -0.9202235 0.8313498 0.4591889
v -0.9201572 0.803251 0.4592593
v -0.8965006 0.8009665 0.4677463
v -0.8964685 0.8320169 0.4676939
v -0.9205589 0.8707566 0.4590062
v -0.8974289 0.8648193 0.4672539
v -0.9203199 0.8728141 0.4590865
v -0.9426383 0.872372 0.4526007
v -0.8753154 0.7990236 0.4761167
v -0.8751025 0.8323504 0.4761167
v -0.9424976 0.8050532 0.4527233
v -0.8831092 0.8489064 0.4729279
v -0.8973265 0.7706474 0.467489
v -0.9200406 0.7677703 0.4593477
v -0.882195 0.7842197 0.4734262
v -0.8964343 0.8666819 0.4676337
v -0.9420776 0.7713486 0.4528841
v -0.9424012 0.7693213 0.4527936
v -0.9200687 0.7656927 0.4593498
v -0.8965348 0.7686744 0.4678025
v -0.880662 0.7829137 0.474035
v -0.8734007 0.7985333 0.4768741
v -0.8731837 0.8328487 0.4768721
v -0.881538 0.850124 0.4735448
vn -0.297438 -0.0002498031 -0.9547411
vn -0.2903078 -0.0002498031 -0.9569333
vn -0.2903078 -0.0002498031 -0.9569333
vn -0.297438 -0.0002498031 -0.9547411
vn -0.3045683 -0.0002498031 -0.9524904
vn -0.3045683 -0.0002498031 -0.9524904
vn -0.3206114 0.7947727 -0.5153102
vn 0.2676341 0.700297 -0.6617825
vn -0.3045683 -0.0002498031 -0.9524904
vn -0.297438 -0.0002498031 -0.9547411
vn -0.3045683 -0.0002498031 -0.9524904
vn -0.2956555 -0.0002498031 -0.9552946
vn -0.2903078 -0.0002498031 -0.9569333
vn -0.2885252 -0.0002498031 -0.9574723
vn -0.1405725 -0.8380539 -0.527167
vn -0.8696404 -0.3478494 -0.3503234
vn -0.9124218 -0.05729175 -0.405221
vn -0.8268589 -0.2694166 -0.4936791
vn -0.5434315 0.6004735 -0.586612
vn -0.6004735 0.6236469 -0.5004959
vn -0.2849602 -0.0002498031 -0.9585394
vn -0.2849602 -0.0002498031 -0.9585394
vn -0.309916 -0.00203234 -0.9507618
vn -0.309916 -0.00203234 -0.9507618
vn -0.3509148 -0.00203234 -0.9364052
vn -0.3491323 -0.00203234 -0.9370713
vn -0.3063508 -0.00203234 -0.9519165
vn -0.342002 -0.00203234 -0.939697
vn -0.6539505 -0.6954489 -0.2978249
vn -0.7644693 -0.5546265 -0.3285973
vn -0.3669579 -0.00203234 -0.9302353
vn -0.3669579 -0.00203234 -0.9302353
vn -0.2849602 -0.0002498031 -0.9585394
vn -0.3669579 -0.00203234 -0.9302353
vn -0.3437847 -0.00203234 -0.9390463
vn -0.309916 -0.00203234 -0.9507618
vn -0.3669579 -0.00203234 -0.9302353
vn 0.4405426 -0.7311001 -0.5209749
vn -0.2849602 -0.0002498031 -0.9585394
vn -0.1494853 0.8357717 -0.5283369
vn 0.4013262 0.6165166 -0.6773807
vn 0.6580151 0.3972615 -0.6396869
vn 0.8255759 -0.05729175 -0.5613751
vn 0.8737051 0.1405725 -0.4657025
vn 0.5207579 -0.7899247 -0.323775
vn 0.7257525 -0.4494554 -0.5208389
vn 0.2979376 -0.0002498031 -0.9545853
vn 0.296155 -0.0002498031 -0.9551398
vn 0.2908074 -0.0002498031 -0.9567816
vn 0.2908074 -0.0002498031 -0.9567816
vn 0.3032853 -0.0002498031 -0.9528998
vn 0.3032853 -0.0002498031 -0.9528998
vn 0.8665748 0.3616103 -0.3439274
vn 0.1802886 0.8322066 -0.524336
vn 0.3032853 -0.0002498031 -0.9528998
vn 0.2979376 -0.0002498031 -0.9545853
vn 0.3032853 -0.0002498031 -0.9528998
vn 0.296155 -0.0002498031 -0.9551398
vn 0.2890248 -0.0002498031 -0.9573216
vn 0.2890248 -0.0002498031 -0.9573216
vn -0.3027858 -0.6847535 -0.6628977
vn 0.3496319 -0.784577 -0.5120512
vn 0.6170162 -0.6081034 -0.499501
vn 0.5296707 -0.6116685 -0.5876314
vn 0.8327062 0.2493088 -0.4944144
vn 0.9111389 0.094226 -0.4011825
vn 0.2854597 -0.0002498031 -0.9583907
vn 0.2836771 -0.0002498031 -0.9589198
vn 0.308633 -0.00203234 -0.951179
vn 0.3104156 -0.00203234 -0.9505988
vn 0.3496319 -0.00203234 -0.9368849
vn 0.3496319 -0.00203234 -0.9368849
vn 0.3050679 -0.00203234 -0.9523284
vn 0.3407191 -0.00203234 -0.940163
vn -0.09957361 -0.8327062 -0.5446885
vn 0.06620461 -0.8434016 -0.5331892
vn 0.3674575 -0.00203234 -0.9300381
vn 0.3674575 -0.00203234 -0.9300381
vn 0.2854597 -0.0002498031 -0.9583907
vn 0.365675 -0.00203234 -0.9307404
vn 0.3442842 -0.00203234 -0.9388633
vn 0.3104156 -0.00203234 -0.9505988
vn 0.3674575 -0.00203234 -0.9300381
vn -0.7181226 -0.3050679 -0.6254866
vn 0.2854597 -0.0002498031 -0.9583907
vn 0.813098 0.4792594 -0.3304271
vn 0.02164054 0.8393369 -0.5431808
vn -0.3437847 0.7787297 -0.5247782
vn -0.700297 0.4953024 -0.5140619
vn -0.5202583 0.7876425 -0.3300766
vn -0.8732055 -0.1446373 -0.4653946
vn -0.8197286 0.1209644 -0.5598327
g model_car_110_matte_mirror_LOD1_0
f 3/3/3 2/2/2 1/1/1
f 4/4/4 3/3/3 1/1/1
f 5/5/5 4/4/4 1/1/1
f 6/6/6 5/5/5 1/1/1
f 4/4/4 7/7/7 3/3/3
f 7/7/7 8/8/8 3/3/3
f 9/9/9 6/6/6 1/1/1
f 10/10/10 9/9/9 1/1/1
f 1/1/1 2/2/2 10/10/10
f 11/11/11 9/9/9 10/10/10
f 12/12/12 11/11/11 10/10/10
f 10/10/10 13/13/13 12/12/12
f 2/2/2 13/13/13 10/10/10
f 13/13/13 14/14/14 12/12/12
f 14/14/14 15/15/15 12/12/12
f 15/15/15 16/16/16 12/12/12
f 12/12/12 16/16/16 11/11/11
f 11/11/11 17/17/17 9/9/9
f 16/16/16 17/17/17 11/11/11
f 17/17/17 18/18/18 9/9/9
f 9/9/9 18/18/18 6/6/6
f 6/6/6 19/19/19 5/5/5
f 18/18/18 19/19/19 6/6/6
f 19/19/19 20/20/20 5/5/5
f 20/20/20 7/7/7 4/4/4
f 5/5/5 20/20/20 4/4/4
f 14/14/14 13/13/13 21/21/21
f 22/22/22 14/14/14 21/21/21
f 15/15/15 14/14/14 22/22/22
f 21/21/21 23/23/23 22/22/22
f 24/24/24 23/23/23 21/21/21
f 23/23/23 24/24/24 25/25/25
f 26/26/26 23/23/23 25/25/25
f 27/27/27 23/23/23 26/26/26
f 23/23/23 27/27/27 22/22/22
f 28/28/28 27/27/27 26/26/26
f 27/27/27 29/29/29 22/22/22
f 29/29/29 30/30/30 22/22/22
f 26/26/26 25/25/25 31/31/31
f 32/32/32 26/26/26 31/31/31
f 33/33/33 24/24/24 21/21/21
f 26/26/26 32/32/32 34/34/34
f 28/28/28 26/26/26 34/34/34
f 25/25/25 24/24/24 35/35/35
f 24/24/24 36/36/36 35/35/35
f 36/36/36 24/24/24 33/33/33
f 25/25/25 35/35/35 37/37/37
f 31/31/31 25/25/25 37/37/37
f 38/38/38 29/29/29 27/27/27
f 28/28/28 38/38/38 27/27/27
f 39/39/39 36/36/36 33/33/33
f 39/39/39 40/40/40 36/36/36
f 40/40/40 41/41/41 36/36/36
f 36/36/36 41/41/41 35/35/35
f 41/41/41 42/42/42 35/35/35
f 35/35/35 42/42/42 37/37/37
f 37/37/37 43/43/43 31/31/31
f 42/42/42 43/43/43 37/37/37
f 43/43/43 44/44/44 31/31/31
f 31/31/31 44/44/44 32/32/32
f 32/32/32 45/45/45 34/34/34
f 44/44/44 45/45/45 32/32/32
f 45/45/45 46/46/46 34/34/34
f 46/46/46 38/38/38 28/28/28
f 34/34/34 46/46/46 28/28/28
f 33/33/33 2/2/2 39/39/39
f 2/2/2 3/3/3 39/39/39
f 39/39/39 3/3/3 40/40/40
f 3/3/3 8/8/8 40/40/40
f 13/13/13 2/2/2 33/33/33
f 21/21/21 13/13/13 33/33/33
f 30/30/30 15/15/15 22/22/22
f 49/49/49 48/48/48 47/47/47
f 50/50/50 49/49/49 47/47/47
f 48/48/48 51/51/51 47/47/47
f 51/51/51 52/52/52 47/47/47
f 53/53/53 48/48/48 49/49/49
f 54/54/54 53/53/53 49/49/49
f 52/52/52 55/55/55 47/47/47
f 55/55/55 56/56/56 47/47/47
f 50/50/50 47/47/47 56/56/56
f 55/55/55 57/57/57 56/56/56
f 57/57/57 58/58/58 56/56/56
f 59/59/59 56/56/56 58/58/58
f 59/59/59 50/50/50 56/56/56
f 60/60/60 59/59/59 58/58/58
f 61/61/61 60/60/60 58/58/58
f 62/62/62 61/61/61 58/58/58
f 62/62/62 58/58/58 57/57/57
f 63/63/63 57/57/57 55/55/55
f 63/63/63 62/62/62 57/57/57
f 64/64/64 63/63/63 55/55/55
f 64/64/64 55/55/55 52/52/52
f 65/65/65 52/52/52 51/51/51
f 65/65/65 64/64/64 52/52/52
f 66/66/66 65/65/65 51/51/51
f 66/66/66 51/51/51 48/48/48
f 53/53/53 66/66/66 48/48/48
f 59/59/59 60/60/60 67/67/67
f 60/60/60 68/68/68 67/67/67
f 60/60/60 61/61/61 68/68/68
f 69/69/69 67/67/67 68/68/68
f 69/69/69 70/70/70 67/67/67
f 70/70/70 69/69/69 71/71/71
f 69/69/69 72/72/72 71/71/71
f 69/69/69 73/73/73 72/72/72
f 73/73/73 69/69/69 68/68/68
f 73/73/73 74/74/74 72/72/72
f 75/75/75 73/73/73 68/68/68
f 76/76/76 75/75/75 68/68/68
f 71/71/71 72/72/72 77/77/77
f 72/72/72 78/78/78 77/77/77
f 70/70/70 79/79/79 67/67/67
f 72/72/72 74/74/74 80/80/80
f 78/78/78 72/72/72 80/80/80
f 70/70/70 71/71/71 81/81/81
f 82/82/82 70/70/70 81/81/81
f 70/70/70 82/82/82 79/79/79
f 71/71/71 77/77/77 83/83/83
f 81/81/81 71/71/71 83/83/83
f 84/84/84 74/74/74 73/73/73
f 75/75/75 84/84/84 73/73/73
f 82/82/82 85/85/85 79/79/79
f 86/86/86 85/85/85 82/82/82
f 87/87/87 86/86/86 82/82/82
f 87/87/87 82/82/82 81/81/81
f 88/88/88 87/87/87 81/81/81
f 88/88/88 81/81/81 83/83/83
f 89/89/89 83/83/83 77/77/77
f 89/89/89 88/88/88 83/83/83
f 90/90/90 89/89/89 77/77/77
f 90/90/90 77/77/77 78/78/78
f 91/91/91 78/78/78 80/80/80
f 91/91/91 90/90/90 78/78/78
f 92/92/92 91/91/91 80/80/80
f 92/92/92 80/80/80 74/74/74
f 84/84/84 92/92/92 74/74/74
f 50/50/50 79/79/79 85/85/85
f 49/49/49 50/50/50 85/85/85
f 49/49/49 85/85/85 86/86/86
f 54/54/54 49/49/49 86/86/86
f 50/50/50 59/59/59 79/79/79
f 59/59/59 67/67/67 79/79/79
f 61/61/61 76/76/76 68/68/68
