g model_car_62_matte_exhaust_LOD1
v 1.072884E-06 0.7329412 -1.580425
v 0.009025216 0.7637532 -1.677502
v 0.02438784 0.7636614 -1.674914
v 0.01895022 0.7331386 -1.578334
v 1.072884E-06 0.7638803 -1.677685
v 0.02851069 0.7343874 -1.573868
v 0.0326736 0.7643859 -1.670484
v 0.03566277 0.7367134 -1.566643
v 0.04013848 0.7663639 -1.661074
v 0.0478338 0.7707784 -1.640076
v 0.05178273 0.7738028 -1.624358
v 0.04508924 0.7414949 -1.550937
v 0.05475783 0.7765241 -1.610223
v 0.05398643 0.7783067 -1.600964
v 0.04793739 0.7438068 -1.539528
v 0.04339814 0.7452767 -1.535732
v 0.05113125 0.7799554 -1.595331
v 0.009074688 0.7636404 -1.678548
v 1.072884E-06 0.7637651 -1.678732
v 0.009544969 0.7572315 -1.680449
v 1.072884E-06 0.757309 -1.680604
v 0.02724063 0.7575607 -1.677603
v 0.02461827 0.7635486 -1.675947
v 0.03290164 0.7642801 -1.671535
v 0.03553104 0.7587297 -1.673263
v 0.04041123 0.7662909 -1.662125
v 0.04343343 0.7614555 -1.663882
v 0.05255878 0.7677045 -1.641508
v 0.0482502 0.7708395 -1.640951
v 0.0570792 0.7721376 -1.624516
v 0.05227184 0.7739768 -1.625073
v 0.0600661 0.7763593 -1.609814
v 0.05528939 0.7768321 -1.610828
v 0.05902183 0.7797744 -1.599515
v 0.05448735 0.7787654 -1.601423
v 0.05152392 0.7805316 -1.595656
v 0.05529642 0.782759 -1.592822
v 0.06052232 0.7760277 -1.609087
v 0.05749547 0.7716861 -1.623806
v 0.04966366 0.739778 -1.552226
v 0.05238712 0.7431107 -1.544655
v 0.04678965 0.7372215 -1.557943
v 0.05290687 0.7671611 -1.640857
v 0.05272341 0.7459753 -1.537853
v 0.05945933 0.7795861 -1.598739
v 0.05564916 0.7826908 -1.591977
v 0.04827368 0.7488611 -1.532362
v 0.04366398 0.7608063 -1.663261
v 0.03572154 0.7580428 -1.672626
v 0.03267121 0.7289405 -1.575552
v 0.0236423 0.726805 -1.579893
v 0.02741468 0.7568598 -1.676958
v 0.007731676 0.7256784 -1.582417
v 0.009563804 0.7565165 -1.679816
v 1.072884E-06 0.7256219 -1.582593
v 1.072884E-06 0.7565939 -1.679969
v 0.03997386 0.7323601 -1.568461
v 0.02866352 0.7853413 -1.580818
v 0.04481637 0.7854872 -1.584548
v 0.03957164 0.7500417 -1.528554
v 0.0244137 0.7491291 -1.52671
v 0.04451764 0.7854543 -1.585366
v 0.02854121 0.7852731 -1.581636
v 0.02811551 0.7807975 -1.585613
v 0.04098284 0.7817147 -1.588433
v 1.072884E-06 0.7854564 -1.578917
v 1.072884E-06 0.7855341 -1.578118
v 0.0406183 0.7810209 -1.588106
v 0.02793217 0.7800708 -1.58531
v 0.02383506 0.7437034 -1.531167
v 0.03621554 0.744931 -1.532543
v 1.072884E-06 0.7799625 -1.58285
v 1.072884E-06 0.7478473 -1.525823
v 1.072884E-06 0.779191 -1.582546
v 1.072884E-06 0.7419512 -1.530339
v 1.072884E-06 0.7329412 -1.580425
v -0.01895058 0.7331386 -1.578334
v -0.02438807 0.7636614 -1.674914
v -0.009025574 0.7637532 -1.677502
v 1.072884E-06 0.7638803 -1.677685
v -0.02851105 0.7343874 -1.573868
v -0.03267384 0.7643859 -1.670484
v -0.03566313 0.7367134 -1.566643
v -0.04013872 0.7663639 -1.661074
v -0.04783416 0.7707784 -1.640076
v -0.05178058 0.7738028 -1.624358
v -0.04508948 0.7414949 -1.550937
v -0.05475819 0.7765241 -1.610223
v -0.05398667 0.7783067 -1.600964
v -0.04793763 0.7438068 -1.539528
v -0.0433985 0.7452767 -1.535732
v -0.05112922 0.7799554 -1.595331
v -0.009074926 0.7636404 -1.678548
v 1.072884E-06 0.7637651 -1.678732
v -0.009545326 0.7572315 -1.680449
v 1.072884E-06 0.757309 -1.680604
v -0.02724099 0.7575607 -1.677603
v -0.02461863 0.7635486 -1.675947
v -0.032902 0.7642801 -1.671535
v -0.0355314 0.7587297 -1.673263
v -0.04041159 0.7662909 -1.662125
v -0.04343379 0.7614555 -1.663882
v -0.05255914 0.7677045 -1.641508
v -0.04825044 0.7708395 -1.640951
v -0.05707943 0.7721376 -1.624516
v -0.05226982 0.7739768 -1.625073
v -0.06006634 0.7763593 -1.609814
v -0.05528963 0.7768321 -1.610828
v -0.05902207 0.7797744 -1.599515
v -0.05448771 0.7787654 -1.601423
v -0.05152428 0.7805316 -1.595656
v -0.05529678 0.782759 -1.592822
v -0.06052268 0.7760277 -1.609087
v -0.05749571 0.7716861 -1.623806
v -0.0496639 0.739778 -1.552226
v -0.05238748 0.7431107 -1.544655
v -0.04678988 0.7372215 -1.557943
v -0.05290723 0.7671611 -1.640857
v -0.05272377 0.7459753 -1.537853
v -0.05945957 0.7795861 -1.598739
v -0.05564952 0.7826908 -1.591977
v -0.04827392 0.7488611 -1.532362
v -0.04366422 0.7608063 -1.663261
v -0.0357219 0.7580428 -1.672626
v -0.03267145 0.7289405 -1.575552
v -0.02364254 0.726805 -1.579893
v -0.02741265 0.7568598 -1.676958
v -0.007732034 0.7256784 -1.582417
v -0.009564161 0.7565165 -1.679816
v 1.072884E-06 0.7256219 -1.582593
v 1.072884E-06 0.7565939 -1.679969
v -0.03997409 0.7323601 -1.568461
v -0.02866387 0.7853413 -1.580818
v -0.02441394 0.7491291 -1.52671
v -0.039572 0.7500417 -1.528554
v -0.04481673 0.7854872 -1.584548
v -0.04451799 0.7854543 -1.585366
v -0.02854156 0.7852731 -1.581636
v -0.02811587 0.7807975 -1.585613
v -0.04098308 0.7817147 -1.588433
v 1.072884E-06 0.7854564 -1.578917
v 1.072884E-06 0.7855341 -1.578118
v -0.04061854 0.7810209 -1.588106
v -0.02793002 0.7800708 -1.58531
v -0.02383542 0.7437034 -1.531167
v -0.03621578 0.744931 -1.532543
v 1.072884E-06 0.7799625 -1.58285
v 1.072884E-06 0.7478473 -1.525823
v 1.072884E-06 0.7419512 -1.530339
v 1.072884E-06 0.779191 -1.582546
vt 0.09101257 0.1419623
vt 0.07959328 0.1476373
vt 0.07952391 0.1595838
vt 0.09091544 0.1595144
vt 0.07962103 0.1419207
vt 0.09087382 0.1666602
vt 0.07948228 0.1671597
vt 0.09079057 0.180355
vt 0.07942678 0.1751102
vt 0.07937127 0.1850448
vt 0.07934353 0.1901509
vt 0.09072119 0.1930092
vt 0.0793019 0.196589
vt 0.07927415 0.2020558
vt 0.0906657 0.2016118
vt 0.09062406 0.2078279
vt 0.07923253 0.2080777
vt 0.07898277 0.1476373
vt 0.07901052 0.1419068
vt 0.07397382 0.1476095
vt 0.07401545 0.1418791
vt 0.07390445 0.1595561
vt 0.07891339 0.1595838
vt 0.0788579 0.1671597
vt 0.07386282 0.1671319
vt 0.07881626 0.1750963
vt 0.07382119 0.1750686
vt 0.0737657 0.1850171
vt 0.07876077 0.1850448
vt 0.07373795 0.1901231
vt 0.07873301 0.1901509
vt 0.07369632 0.1965612
vt 0.07869139 0.196589
vt 0.07366857 0.2020281
vt 0.07866364 0.2020558
vt 0.07862201 0.2080777
vt 0.07362694 0.2080499
vt 0.07309969 0.1965612
vt 0.07314131 0.1901093
vt 0.02545224 0.1898318
vt 0.02541061 0.1962699
vt 0.02547999 0.1847396
vt 0.07316906 0.1850171
vt 0.02538286 0.2017506
vt 0.07307193 0.2020281
vt 0.07303031 0.208036
vt 0.02534124 0.2077585
vt 0.07322456 0.1750686
vt 0.07326619 0.1671181
vt 0.02559099 0.1668406
vt 0.02563261 0.1592647
vt 0.07332169 0.1595422
vt 0.02570199 0.1473182
vt 0.07339107 0.1475957
vt 0.02572974 0.1416016
vt 0.07341881 0.1418791
vt 0.02553549 0.1747911
vt 0.07291931 0.2264901
vt 0.07298868 0.2151818
vt 0.02529961 0.2149043
vt 0.02524411 0.2262125
vt 0.07358532 0.2151818
vt 0.07351594 0.2265039
vt 0.07852489 0.2265317
vt 0.07858039 0.2152095
vt 0.07341881 0.2446111
vt 0.07282218 0.2445972
vt 0.07919089 0.2152095
vt 0.0791354 0.2265317
vt 0.09051307 0.2270173
vt 0.09058245 0.2153899
vt 0.07841389 0.2446388
vt 0.02513311 0.2443197
vt 0.0790244 0.2446388
vt 0.09041594 0.2446666
vt 0.09101257 0.1419623
vt 0.09091544 0.1595144
vt 0.07952391 0.1595838
vt 0.07959328 0.1476373
vt 0.07962103 0.1419207
vt 0.09087382 0.1666602
vt 0.07948228 0.1671597
vt 0.09079057 0.180355
vt 0.07942678 0.1751102
vt 0.07937127 0.1850448
vt 0.07934353 0.1901509
vt 0.09072119 0.1930092
vt 0.0793019 0.196589
vt 0.07927415 0.2020558
vt 0.0906657 0.2016118
vt 0.09062406 0.2078279
vt 0.07923253 0.2080777
vt 0.07898277 0.1476373
vt 0.07901052 0.1419068
vt 0.07397382 0.1476095
vt 0.07401545 0.1418791
vt 0.07390445 0.1595561
vt 0.07891339 0.1595838
vt 0.0788579 0.1671597
vt 0.07386282 0.1671319
vt 0.07881626 0.1750963
vt 0.07382119 0.1750686
vt 0.0737657 0.1850171
vt 0.07876077 0.1850448
vt 0.07373795 0.1901231
vt 0.07873301 0.1901509
vt 0.07369632 0.1965612
vt 0.07869139 0.196589
vt 0.07366857 0.2020281
vt 0.07866364 0.2020558
vt 0.07862201 0.2080777
vt 0.07362694 0.2080499
vt 0.07309969 0.1965612
vt 0.07314131 0.1901093
vt 0.02545224 0.1898318
vt 0.02541061 0.1962699
vt 0.02547999 0.1847396
vt 0.07316906 0.1850171
vt 0.02538286 0.2017506
vt 0.07307193 0.2020281
vt 0.07303031 0.208036
vt 0.02534124 0.2077585
vt 0.07322456 0.1750686
vt 0.07326619 0.1671181
vt 0.02559099 0.1668406
vt 0.02563261 0.1592647
vt 0.07332169 0.1595422
vt 0.02570199 0.1473182
vt 0.07339107 0.1475957
vt 0.02572974 0.1416016
vt 0.07341881 0.1418791
vt 0.02553549 0.1747911
vt 0.07291931 0.2264901
vt 0.02524411 0.2262125
vt 0.02529961 0.2149043
vt 0.07298868 0.2151818
vt 0.07358532 0.2151818
vt 0.07351594 0.2265039
vt 0.07852489 0.2265317
vt 0.07858039 0.2152095
vt 0.07341881 0.2446111
vt 0.07282218 0.2445972
vt 0.07919089 0.2152095
vt 0.0791354 0.2265317
vt 0.09051307 0.2270173
vt 0.09058245 0.2153899
vt 0.07841389 0.2446388
vt 0.02513311 0.2443197
vt 0.09041594 0.2446666
vt 0.0790244 0.2446388
vn -0.04930323 0.9638229 0.2619439
vn -0.03190225 0.9541556 0.2976059
vn -0.09763938 0.9522222 0.2893777
vn -0.1498424 0.9618894 0.2287268
vn 0.0009663105 0.9560891 0.2930746
vn -0.4553267 0.8768179 0.1544926
vn -0.3180521 0.9096864 0.267046
vn -0.6892737 0.7202088 -0.07874699
vn -0.5558659 0.8014135 0.2207929
vn -0.7685449 0.6196696 0.1592118
vn -0.782079 0.6003352 0.1671828
vn -0.695074 0.7105415 0.1095574
vn -0.9154868 0.39539 0.0745035
vn -0.9889577 0.1382417 -0.05340294
vn -0.7105415 -0.04930246 -0.7019259
vn -0.8342821 0.07057112 -0.5468026
vn -0.5848677 -0.6622046 -0.4684174
vn 0.099572 0.412791 -0.9053668
vn 0.0009663105 0.4050573 -0.9142908
vn 0.1092393 0.1865779 -0.976348
vn 0.0009663105 0.1711103 -0.9852514
vn 0.2658483 0.2271802 -0.9368638
vn 0.2097784 0.4417927 -0.8722455
vn 0.4630597 0.5616663 -0.6856432
vn 0.5403975 0.3876562 -0.7467886
vn 0.5616654 0.6873402 -0.4605381
vn 0.6602712 0.5461987 -0.5154697
vn 0.6235357 0.6796064 -0.3864433
vn 0.4804608 0.8014135 -0.3562218
vn 0.4495257 0.8362154 -0.3141185
vn 0.3064507 0.9077529 -0.2864832
vn 0.2735821 0.9174202 -0.2889515
vn 0.1092393 0.9580225 -0.2650653
vn 0.08023757 0.9464219 -0.3128058
vn -0.1073067 0.9406216 -0.3220503
vn -0.2368475 0.816881 -0.525936
vn -0.1034397 0.890352 -0.4433662
vn 0.9367539 -0.3431861 -0.06866924
vn 0.8729501 -0.472727 -0.120363
vn 0.8903512 -0.4437253 -0.1018954
vn 0.9773332 -0.2117069 0
vn 0.8188137 -0.5558651 -0.143381
vn 0.7859451 -0.598401 -0.1555845
vn 0.9193528 0.2871171 0.2689873
vn 0.98509 0.07830495 0.1531865
vn 0.6796056 0.6022686 0.4188182
vn 0.5558651 0.6873402 0.4675227
vn 0.6332029 -0.7453427 -0.2086104
vn 0.3953891 -0.8806839 -0.2608895
vn 0.472727 -0.8478154 -0.2402878
vn 0.1788433 -0.9406207 -0.2885268
vn 0.1517751 -0.9444876 -0.2913889
vn 0.06090313 -0.9522214 -0.2992745
vn 0.05896968 -0.9502879 -0.3057376
vn 0.0009663105 -0.9522214 -0.305407
vn -0.000967145 -0.9522214 -0.305407
vn 0.7202079 -0.6718718 -0.1728836
vn 0.0415687 0.8304152 0.5555922
vn 0.2639149 0.8091473 0.5250044
vn 0.1923774 0.8188145 0.5408639
vn 0.03770179 0.8246148 0.5644369
vn -0.1614431 0.8304152 -0.5332417
vn -0.1034397 0.7144085 -0.692041
vn -0.1208407 0.5713335 -0.8117731
vn -0.2310471 0.6834733 -0.6924461
vn 0.0009663105 0.6931406 -0.7208018
vn -0.000967145 0.8246148 0.5656938
vn -0.1981786 -0.8130133 -0.5474802
vn -0.006767452 -0.8226806 -0.5684636
vn -0.2310471 -0.134374 -0.9636186
vn 0.3064507 -0.1053724 -0.9460363
vn 0.0009663105 0.5403984 -0.8414087
vn 0.0009663105 0.8207479 0.5712897
vn 0.0009663105 -0.8188137 -0.5740585
vn 0.0009663105 -0.1401744 -0.9901264
vn -0.04930323 0.9638229 0.2619439
vn 0.1073058 0.959956 0.2587855
vn 0.09763861 0.9522222 0.289378
vn 0.03190142 0.9541556 0.297606
vn 0.0009663105 0.9560891 0.2930746
vn 0.3489864 0.9174202 0.1911769
vn 0.3180513 0.9096864 0.2670469
vn 0.5094625 0.8536165 0.1085671
vn 0.5558651 0.8014135 0.2207951
vn 0.7685441 0.6196696 0.1592155
vn 0.7820782 0.6003352 0.1671867
vn 0.7047404 0.6506048 0.2829388
vn 0.915486 0.39539 0.0745131
vn 0.9889569 0.1382417 -0.05341856
vn 0.9502879 0.1672434 -0.2626452
vn 0.9599552 -0.02416766 -0.2791091
vn 0.5848668 -0.6622046 -0.4684185
vn -0.09957284 0.412791 -0.9053667
vn 0.0009663105 0.4050573 -0.9142908
vn -0.1092401 0.1865779 -0.9763479
vn 0.0009663105 0.1711103 -0.9852514
vn -0.2658492 0.2271802 -0.9368636
vn -0.2097792 0.4417927 -0.8722453
vn -0.4630606 0.5616663 -0.6856427
vn -0.5403984 0.3876562 -0.746788
vn -0.5616663 0.6873402 -0.4605371
vn -0.6602719 0.5461987 -0.5154687
vn -0.6235365 0.6796064 -0.386442
vn -0.4804615 0.8014135 -0.3562207
vn -0.4495265 0.8362154 -0.3141173
vn -0.3064515 0.9077529 -0.2864822
vn -0.2735829 0.9174202 -0.2889508
vn -0.1092401 0.9580225 -0.265065
vn -0.0802384 0.9464219 -0.3128056
vn 0.1073058 0.9406216 -0.3220505
vn 0.2368466 0.816881 -0.5259364
vn 0.1034389 0.890352 -0.4433664
vn -0.9367546 -0.3431861 -0.06865883
vn -0.872951 -0.472727 -0.1203568
vn -0.890352 -0.4437253 -0.1018886
vn -0.9773332 -0.2117067 0
vn -0.8188145 -0.5558651 -0.1433767
vn -0.785946 -0.598401 -0.1555803
vn -0.9193537 0.2871171 0.2689845
vn -0.9850908 0.07830495 0.1531812
vn -0.6796064 0.6022686 0.418817
vn -0.5558659 0.6873402 0.4675216
vn -0.6332037 -0.7453427 -0.208608
vn -0.39539 -0.8806839 -0.2608882
vn -0.4727278 -0.8478154 -0.2402861
vn -0.178844 -0.9406207 -0.2885264
vn -0.1517759 -0.9444876 -0.2913884
vn -0.06090397 -0.9522214 -0.2992743
vn -0.05897051 -0.9502879 -0.3057374
vn 0.0009663105 -0.9522214 -0.305407
vn -0.000967145 -0.9522214 -0.305407
vn -0.7202088 -0.6718718 -0.1728798
vn -0.04156953 0.8304152 0.5555921
vn -0.03770262 0.8246148 0.5644368
vn -0.1923782 0.8188145 0.5408637
vn -0.2639157 0.8091473 0.525004
vn 0.1614423 0.8304152 -0.533242
vn 0.1073058 0.7144085 -0.6914521
vn 0.12084 0.5713335 -0.8117732
vn 0.2310463 0.6834733 -0.6924463
vn 0.0009663105 0.6931406 -0.7208018
vn -0.000967145 0.8246148 0.5656938
vn 0.1981778 -0.8130133 -0.5474805
vn 0.006766677 -0.8226806 -0.5684636
vn 0.5790665 -0.2619814 -0.7720413
vn 0.542331 -0.02610111 -0.8397593
vn 0.0009663105 0.5403984 -0.8414087
vn 0.0009663105 0.8207479 0.5712897
vn 0.0009663105 -0.1401744 -0.9901264
vn 0.0009663105 -0.8188137 -0.5740585
g model_car_62_matte_exhaust_LOD1_0
f 3/3/3 2/2/2 1/1/1
f 4/4/4 3/3/3 1/1/1
f 2/2/2 5/5/5 1/1/1
f 3/3/3 4/4/4 6/6/6
f 7/7/7 3/3/3 6/6/6
f 7/7/7 6/6/6 8/8/8
f 9/9/9 7/7/7 8/8/8
f 10/10/10 9/9/9 8/8/8
f 11/11/11 10/10/10 8/8/8
f 12/12/12 11/11/11 8/8/8
f 13/13/13 11/11/11 12/12/12
f 13/13/13 12/12/12 14/14/14
f 12/12/12 15/15/15 14/14/14
f 15/15/15 16/16/16 14/14/14
f 16/16/16 17/17/17 14/14/14
f 2/2/2 18/18/18 5/5/5
f 18/18/18 19/19/19 5/5/5
f 18/18/18 20/20/20 19/19/19
f 20/20/20 21/21/21 19/19/19
f 22/22/22 20/20/20 18/18/18
f 23/23/23 22/22/22 18/18/18
f 18/18/18 2/2/2 23/23/23
f 22/22/22 23/23/23 24/24/24
f 25/25/25 22/22/22 24/24/24
f 25/25/25 24/24/24 26/26/26
f 27/27/27 25/25/25 26/26/26
f 28/28/28 27/27/27 26/26/26
f 29/29/29 28/28/28 26/26/26
f 30/30/30 28/28/28 29/29/29
f 31/31/31 30/30/30 29/29/29
f 32/32/32 30/30/30 31/31/31
f 33/33/33 32/32/32 31/31/31
f 34/34/34 32/32/32 33/33/33
f 35/35/35 34/34/34 33/33/33
f 35/35/35 36/36/36 34/34/34
f 36/36/36 37/37/37 34/34/34
f 33/33/33 31/31/31 11/11/11
f 13/13/13 33/33/33 11/11/11
f 33/33/33 13/13/13 35/35/35
f 10/10/10 11/11/11 31/31/31
f 29/29/29 10/10/10 31/31/31
f 32/32/32 38/38/38 30/30/30
f 38/38/38 39/39/39 30/30/30
f 28/28/28 30/30/30 39/39/39
f 39/39/39 38/38/38 40/40/40
f 38/38/38 41/41/41 40/40/40
f 39/39/39 40/40/40 42/42/42
f 43/43/43 39/39/39 42/42/42
f 41/41/41 38/38/38 44/44/44
f 38/38/38 45/45/45 44/44/44
f 45/45/45 46/46/46 44/44/44
f 46/46/46 45/45/45 34/34/34
f 37/37/37 46/46/46 34/34/34
f 46/46/46 47/47/47 44/44/44
f 43/43/43 28/28/28 39/39/39
f 45/45/45 38/38/38 32/32/32
f 34/34/34 45/45/45 32/32/32
f 27/27/27 28/28/28 43/43/43
f 48/48/48 27/27/27 43/43/43
f 27/27/27 48/48/48 25/25/25
f 48/48/48 49/49/49 25/25/25
f 49/49/49 48/48/48 50/50/50
f 49/49/49 50/50/50 51/51/51
f 52/52/52 49/49/49 51/51/51
f 52/52/52 51/51/51 53/53/53
f 54/54/54 52/52/52 53/53/53
f 54/54/54 53/53/53 55/55/55
f 56/56/56 54/54/54 55/55/55
f 48/48/48 57/57/57 50/50/50
f 54/54/54 56/56/56 21/21/21
f 20/20/20 54/54/54 21/21/21
f 54/54/54 20/20/20 52/52/52
f 49/49/49 52/52/52 22/22/22
f 25/25/25 49/49/49 22/22/22
f 20/20/20 22/22/22 52/52/52
f 48/48/48 43/43/43 57/57/57
f 43/43/43 42/42/42 57/57/57
f 60/60/60 59/59/59 58/58/58
f 61/61/61 60/60/60 58/58/58
f 58/58/58 59/59/59 62/62/62
f 63/63/63 58/58/58 62/62/62
f 63/63/63 62/62/62 64/64/64
f 62/62/62 65/65/65 64/64/64
f 63/63/63 66/66/66 58/58/58
f 66/66/66 67/67/67 58/58/58
f 58/58/58 67/67/67 61/61/61
f 65/65/65 68/68/68 64/64/64
f 68/68/68 69/69/69 64/64/64
f 70/70/70 69/69/69 68/68/68
f 71/71/71 70/70/70 68/68/68
f 72/72/72 66/66/66 63/63/63
f 64/64/64 72/72/72 63/63/63
f 67/67/67 73/73/73 61/61/61
f 68/68/68 65/65/65 36/36/36
f 17/17/17 68/68/68 36/36/36
f 71/71/71 68/68/68 17/17/17
f 14/14/14 17/17/17 36/36/36
f 35/35/35 14/14/14 36/36/36
f 13/13/13 14/14/14 35/35/35
f 16/16/16 71/71/71 17/17/17
f 36/36/36 65/65/65 37/37/37
f 65/65/65 62/62/62 37/37/37
f 37/37/37 62/62/62 46/46/46
f 62/62/62 59/59/59 46/46/46
f 46/46/46 59/59/59 47/47/47
f 59/59/59 60/60/60 47/47/47
f 74/74/74 72/72/72 64/64/64
f 69/69/69 74/74/74 64/64/64
f 74/74/74 69/69/69 75/75/75
f 69/69/69 70/70/70 75/75/75
f 7/7/7 9/9/9 26/26/26
f 24/24/24 7/7/7 26/26/26
f 3/3/3 7/7/7 24/24/24
f 23/23/23 3/3/3 24/24/24
f 26/26/26 9/9/9 29/29/29
f 9/9/9 10/10/10 29/29/29
f 2/2/2 3/3/3 23/23/23
f 78/78/78 77/77/77 76/76/76
f 79/79/79 78/78/78 76/76/76
f 80/80/80 79/79/79 76/76/76
f 77/77/77 78/78/78 81/81/81
f 78/78/78 82/82/82 81/81/81
f 81/81/81 82/82/82 83/83/83
f 82/82/82 84/84/84 83/83/83
f 84/84/84 85/85/85 83/83/83
f 85/85/85 86/86/86 83/83/83
f 86/86/86 87/87/87 83/83/83
f 86/86/86 88/88/88 87/87/87
f 87/87/87 88/88/88 89/89/89
f 90/90/90 87/87/87 89/89/89
f 91/91/91 90/90/90 89/89/89
f 92/92/92 91/91/91 89/89/89
f 93/93/93 79/79/79 80/80/80
f 94/94/94 93/93/93 80/80/80
f 95/95/95 93/93/93 94/94/94
f 96/96/96 95/95/95 94/94/94
f 95/95/95 97/97/97 93/93/93
f 97/97/97 98/98/98 93/93/93
f 98/98/98 97/97/97 99/99/99
f 97/97/97 100/100/100 99/99/99
f 99/99/99 100/100/100 101/101/101
f 100/100/100 102/102/102 101/101/101
f 102/102/102 103/103/103 101/101/101
f 103/103/103 104/104/104 101/101/101
f 103/103/103 105/105/105 104/104/104
f 105/105/105 106/106/106 104/104/104
f 105/105/105 107/107/107 106/106/106
f 107/107/107 108/108/108 106/106/106
f 107/107/107 109/109/109 108/108/108
f 109/109/109 110/110/110 108/108/108
f 111/111/111 110/110/110 109/109/109
f 112/112/112 111/111/111 109/109/109
f 106/106/106 108/108/108 86/86/86
f 108/108/108 88/88/88 86/86/86
f 88/88/88 108/108/108 110/110/110
f 85/85/85 104/104/104 106/106/106
f 86/86/86 85/85/85 106/106/106
f 113/113/113 107/107/107 105/105/105
f 114/114/114 113/113/113 105/105/105
f 105/105/105 103/103/103 114/114/114
f 113/113/113 114/114/114 115/115/115
f 116/116/116 113/113/113 115/115/115
f 115/115/115 114/114/114 117/117/117
f 114/114/114 118/118/118 117/117/117
f 113/113/113 116/116/116 119/119/119
f 120/120/120 113/113/113 119/119/119
f 121/121/121 120/120/120 119/119/119
f 121/121/121 112/112/112 109/109/109
f 120/120/120 121/121/121 109/109/109
f 122/122/122 121/121/121 119/119/119
f 103/103/103 118/118/118 114/114/114
f 113/113/113 120/120/120 107/107/107
f 120/120/120 109/109/109 107/107/107
f 103/103/103 102/102/102 118/118/118
f 102/102/102 123/123/123 118/118/118
f 123/123/123 102/102/102 100/100/100
f 124/124/124 123/123/123 100/100/100
f 123/123/123 124/124/124 125/125/125
f 125/125/125 124/124/124 126/126/126
f 124/124/124 127/127/127 126/126/126
f 126/126/126 127/127/127 128/128/128
f 127/127/127 129/129/129 128/128/128
f 128/128/128 129/129/129 130/130/130
f 129/129/129 131/131/131 130/130/130
f 132/132/132 123/123/123 125/125/125
f 131/131/131 129/129/129 96/96/96
f 129/129/129 95/95/95 96/96/96
f 95/95/95 129/129/129 127/127/127
f 124/124/124 100/100/100 97/97/97
f 127/127/127 124/124/124 97/97/97
f 97/97/97 95/95/95 127/127/127
f 118/118/118 123/123/123 132/132/132
f 117/117/117 118/118/118 132/132/132
f 135/135/135 134/134/134 133/133/133
f 136/136/136 135/135/135 133/133/133
f 136/136/136 133/133/133 137/137/137
f 133/133/133 138/138/138 137/137/137
f 137/137/137 138/138/138 139/139/139
f 140/140/140 137/137/137 139/139/139
f 141/141/141 138/138/138 133/133/133
f 142/142/142 141/141/141 133/133/133
f 142/142/142 133/133/133 134/134/134
f 143/143/143 140/140/140 139/139/139
f 144/144/144 143/143/143 139/139/139
f 144/144/144 145/145/145 143/143/143
f 145/145/145 146/146/146 143/143/143
f 147/147/147 139/139/139 138/138/138
f 141/141/141 147/147/147 138/138/138
f 148/148/148 142/142/142 134/134/134
f 140/140/140 143/143/143 111/111/111
f 143/143/143 92/92/92 111/111/111
f 143/143/143 146/146/146 92/92/92
f 92/92/92 89/89/89 111/111/111
f 89/89/89 110/110/110 111/111/111
f 89/89/89 88/88/88 110/110/110
f 146/146/146 91/91/91 92/92/92
f 140/140/140 111/111/111 112/112/112
f 137/137/137 140/140/140 112/112/112
f 137/137/137 112/112/112 121/121/121
f 136/136/136 137/137/137 121/121/121
f 136/136/136 121/121/121 122/122/122
f 135/135/135 136/136/136 122/122/122
f 145/145/145 144/144/144 149/149/149
f 144/144/144 150/150/150 149/149/149
f 150/150/150 144/144/144 139/139/139
f 147/147/147 150/150/150 139/139/139
f 82/82/82 99/99/99 101/101/101
f 84/84/84 82/82/82 101/101/101
f 82/82/82 78/78/78 99/99/99
f 78/78/78 98/98/98 99/99/99
f 84/84/84 101/101/101 104/104/104
f 85/85/85 84/84/84 104/104/104
f 78/78/78 79/79/79 98/98/98
f 79/79/79 93/93/93 98/98/98
