g model_car_67_matte_detail_LOD1
v 0.05927902 0.7447658 1.972633
v 0.1321349 0.7462457 1.969233
v 0.1321349 0.5808868 1.951858
v 0.05927902 0.5813274 1.955513
v 0.2008882 0.5803141 1.94753
v 0.2008882 0.7480339 1.965278
v 0.2830247 0.5819883 1.936316
v 0.2830247 0.7511516 1.954577
v 7.152557E-07 0.7435634 1.9754
v 7.152557E-07 0.581685 1.958488
v 0.343039 0.5883222 1.923931
v 0.343039 0.7536785 1.94237
v 0.3730112 0.5939019 1.917226
v 0.3730112 0.7545699 1.935606
v 0.4287908 0.6060671 1.904763
v 0.4292107 0.7579262 1.92243
v 0.4671054 0.6166798 1.891678
v 0.4696115 0.7606836 1.911963
v 0.5264641 0.6336939 1.872052
v 0.5308414 0.7669761 1.892554
v 0.5896713 0.6541132 1.850036
v 0.5924936 0.7731985 1.873767
v -0.05927759 0.7447658 1.972633
v -0.05927759 0.5813274 1.955513
v -0.132136 0.5808868 1.951858
v -0.132136 0.7462457 1.969233
v -0.2008893 0.5803141 1.94753
v -0.2008893 0.7480339 1.965278
v -0.2830232 0.5819883 1.936316
v -0.2830232 0.7511516 1.954577
v 7.152557E-07 0.7435634 1.9754
v 7.152557E-07 0.581685 1.958488
v -0.3430375 0.5883222 1.923931
v -0.3430375 0.7536785 1.94237
v -0.3730123 0.5939019 1.917226
v -0.3730123 0.7545699 1.935606
v -0.4287919 0.6060671 1.904763
v -0.4292092 0.7579262 1.92243
v -0.4671065 0.6166798 1.891678
v -0.46961 0.7606836 1.911963
v -0.5264626 0.6336939 1.872052
v -0.5308399 0.7669761 1.892554
v -0.5896699 0.6541132 1.850036
v -0.5924947 0.7731985 1.873767
v 0.3456203 0.3686325 2.107022
v 0.3411108 0.3632134 2.106698
v 0.330524 0.3644677 2.106711
v 0.3311486 0.3707861 2.107255
v 0.3294692 0.3538395 2.106698
v 0.3477454 0.3564803 2.106698
v 0.3301482 0.2979717 2.106698
v 0.2792202 0.2968677 2.108898
v 0.2790776 0.3529816 2.108898
v 0.2009012 0.2965567 2.113993
v 0.2009012 0.3530283 2.113993
v 0.1325496 0.2965541 2.118331
v 0.1325496 0.3532045 2.118331
v 0.3598276 0.3057855 2.106698
v 0.377049 0.3117359 2.106539
v 0.354735 0.360741 2.10669
v 0.2793627 0.3646725 2.108898
v 0.2009012 0.365056 2.113993
v 0.2796633 0.372748 2.109263
v 0.2008623 0.374334 2.114283
v 0.1325496 0.3654629 2.118331
v 0.1325133 0.3751634 2.118593
v 0.3308221 0.2423528 2.106698
v 0.1325496 0.2409015 2.118331
v 0.2009012 0.2409041 2.113993
v 0.1325496 0.1867442 2.118331
v 0.2008727 0.1867442 2.113996
v 0.2793627 0.2412151 2.108898
v 0.3315166 0.1867442 2.106698
v 0.2793653 0.1867442 2.108911
v 0.2791787 0.1814703 2.108634
v 0.331825 0.1814703 2.106436
v 0.3742914 0.2453979 2.106698
v 0.4004384 0.2485986 2.106596
v 0.4260981 0.1877601 2.106524
v 0.3873636 0.1867442 2.106698
v 0.4309185 0.1825199 2.10626
v 0.3881204 0.1814703 2.106436
v 0.2007042 0.1814703 2.113731
v 0.1320598 0.1814703 2.118067
v 0.05884624 0.1814703 2.121719
v 0.05913389 0.1867442 2.121983
v 7.152557E-07 0.1814703 2.124492
v 7.152557E-07 0.1867417 2.124753
v 0.0591132 0.2410414 2.121983
v 7.152557E-07 0.2411814 2.124753
v 0.05909503 0.296694 2.121983
v 7.152557E-07 0.296834 2.124753
v 0.05907428 0.3535026 2.121983
v 7.152557E-07 0.3537695 2.124753
v 0.05907172 0.3660434 2.121983
v 7.152557E-07 0.3665384 2.124753
v 0.05904841 0.375762 2.122247
v 7.152557E-07 0.3762 2.125023
v -0.3456214 0.3686325 2.107022
v -0.3311498 0.3707861 2.107255
v -0.3305226 0.3644677 2.106711
v -0.341112 0.3632134 2.106698
v -0.3294704 0.3538395 2.106698
v -0.3477439 0.3564803 2.106698
v -0.3301494 0.2979717 2.106698
v -0.2792213 0.2968677 2.108898
v -0.2790762 0.3529816 2.108898
v -0.2009023 0.2965567 2.113993
v -0.2009023 0.3530283 2.113993
v -0.1325507 0.2965541 2.118331
v -0.1325507 0.3532045 2.118331
v -0.3598287 0.3057855 2.106698
v -0.3770501 0.3117359 2.106539
v -0.3547361 0.360741 2.10669
v -0.2793638 0.3646725 2.108898
v -0.2009023 0.365056 2.113993
v -0.2796619 0.372748 2.109263
v -0.2008634 0.374334 2.114283
v -0.1325507 0.3654629 2.118331
v -0.1325118 0.3751634 2.118593
v -0.3308232 0.2423528 2.106698
v -0.2793612 0.2412151 2.108898
v -0.3315152 0.1867442 2.106698
v -0.2793638 0.1867442 2.108911
v -0.2008712 0.1867442 2.113996
v -0.2009023 0.2409041 2.113993
v -0.1325507 0.1867442 2.118331
v -0.1325507 0.2409015 2.118331
v -0.2791798 0.1814703 2.108634
v -0.3318262 0.1814703 2.106436
v -0.3742926 0.2453979 2.106698
v -0.4004395 0.2485986 2.106596
v -0.4260992 0.1877601 2.106524
v -0.3873647 0.1867442 2.106698
v -0.4309171 0.1825199 2.10626
v -0.3881215 0.1814703 2.106436
v -0.05911434 0.2410414 2.121983
v -0.05909616 0.296694 2.121983
v 7.152557E-07 0.2411814 2.124753
v 7.152557E-07 0.1867417 2.124753
v -0.05913246 0.1867442 2.121983
v 7.152557E-07 0.296834 2.124753
v -0.05907542 0.3535026 2.121983
v 7.152557E-07 0.3537695 2.124753
v -0.05907023 0.3660434 2.121983
v 7.152557E-07 0.3665384 2.124753
v -0.05904955 0.375762 2.122247
v 7.152557E-07 0.3762 2.125023
v 7.152557E-07 0.1814703 2.124492
v -0.0588448 0.1814703 2.121719
v -0.1320609 0.1814703 2.118067
v -0.2007053 0.1814703 2.113731
vn 0.04870376 -0.1043652 0.9933458
vn 0.05466747 -0.1043652 0.9930354
vn 0.05466747 -0.1043652 0.9930354
vn 0.04870376 -0.1043652 0.9933458
vn 0.09773883 -0.1050278 0.9896546
vn 0.09840147 -0.1050278 0.989589
vn 0.1699662 -0.1063531 0.9796941
vn 0.1712915 -0.1063531 0.9794633
vn -0.0003313422 -0.1043652 0.994539
vn -0.0003313422 -0.1043652 0.994539
vn 0.2170134 -0.1076784 0.9702116
vn 0.2183386 -0.1076784 0.9699143
vn 0.232254 -0.1103289 0.9663776
vn 0.2329166 -0.1103289 0.9662181
vn 0.2660484 -0.1169553 0.9568384
vn 0.2713495 -0.1182806 0.9551854
vn 0.3150835 -0.1335212 0.9396246
vn 0.3177341 -0.1355091 0.9384468
vn 0.3336373 -0.1567135 0.9295843
vn 0.3349626 -0.159364 0.9286566
vn 0.3389384 -0.1719541 0.9249609
vn 0.3389384 -0.1719541 0.9249609
vn -0.04870379 -0.1043652 0.9933458
vn -0.04870379 -0.1043652 0.9933458
vn -0.0546675 -0.1043652 0.9930354
vn -0.0546675 -0.1043652 0.9930354
vn -0.09773886 -0.1050278 0.9896546
vn -0.09840149 -0.1050278 0.989589
vn -0.1699662 -0.1063531 0.9796941
vn -0.1712915 -0.1063531 0.9794633
vn -0.0003313422 -0.1043652 0.994539
vn -0.0003313422 -0.1043652 0.994539
vn -0.2170134 -0.1076784 0.9702116
vn -0.2183387 -0.1076784 0.9699142
vn -0.232254 -0.1103289 0.9663776
vn -0.2329167 -0.1103289 0.9662181
vn -0.2660484 -0.1169553 0.9568384
vn -0.2713495 -0.1182806 0.9551854
vn -0.3150836 -0.1335212 0.9396246
vn -0.3177341 -0.1355091 0.9384468
vn -0.3336374 -0.1567135 0.9295843
vn -0.3349626 -0.159364 0.9286566
vn -0.3389384 -0.1719541 0.9249609
vn -0.3389384 -0.1719541 0.9249609
vn -0.002981871 -0.0460532 0.9989345
vn -0.0009939671 -0.03280047 0.9994614
vn 0.02087304 -0.0367763 0.9991055
vn 0.01954776 -0.06924546 0.9974081
vn 0.02219829 -0.0009939373 0.9997531
vn 0.0009939373 -0.007620305 0.9999704
vn 0.02153566 0.0003313422 0.999768
vn 0.05400485 0.0003313422 0.9985406
vn 0.05400485 -0.0009939373 0.9985402
vn 0.06394437 0.0003313422 0.9979534
vn 0.06394437 -0.0003313124 0.9979534
vn 0.05665538 0.0003313422 0.9983937
vn 0.05665538 0.0003313422 0.9983937
vn 0.002981842 0.0009939671 0.9999951
vn 0.006295025 0.001656592 0.9999788
vn 0.001656592 -0.01225877 0.9999235
vn 0.05267957 -0.02683675 0.9982508
vn 0.06394437 -0.0168972 0.9978104
vn 0.05135429 -0.05201694 0.9973249
vn 0.06328174 -0.03346312 0.9974345
vn 0.05665538 -0.01358402 0.9983014
vn 0.05599275 -0.02749938 0.9980524
vn 0.02153566 0.0003313422 0.999768
vn 0.05665538 0.0003313422 0.9983937
vn 0.06394437 0.0003313422 0.9979534
vn 0.05665538 -0.02683675 0.998033
vn 0.06394437 -0.02683675 0.9975926
vn 0.05400485 0.0003313422 0.9985406
vn 0.02153566 -0.02484885 0.9994593
vn 0.05334219 -0.02617413 0.9982332
vn 0.05334219 -0.05201694 0.9972206
vn 0.02021039 -0.05002901 0.9985433
vn 0.002319217 0.0009939671 0.9999968
vn 0.004969746 0.001656592 0.9999863
vn 0.004969746 -0.03081256 0.9995129
vn 0.002319217 -0.02418622 0.9997048
vn 0.005632401 -0.04737848 0.9988611
vn 0.002981842 -0.04870376 0.9988088
vn 0.06394437 -0.05400485 0.9964911
vn 0.05599275 -0.05400485 0.9969695
vn 0.04804111 -0.05201694 0.99749
vn 0.04804111 -0.02617413 0.9985024
vn -0.0003313422 -0.05135429 0.9986804
vn -0.0003313422 -0.02551147 0.9996745
vn 0.04804111 0.0003313422 0.9988453
vn -0.0003313422 0.0003313422 0.9999999
vn 0.04804111 0.0003313422 0.9988453
vn -0.0003313422 0.0003313422 0.9999999
vn 0.04804111 0.0003313422 0.9988453
vn -0.0003313422 0.0003313422 0.9999999
vn 0.04804111 -0.01358402 0.998753
vn -0.0003313422 -0.01358402 0.9999077
vn 0.04804111 -0.02683675 0.9984848
vn -0.0003313422 -0.02749938 0.9996217
vn 0.002981842 -0.0460532 0.9989345
vn -0.01954779 -0.06924546 0.9974081
vn -0.02087304 -0.0367763 0.9991055
vn 0.0009939373 -0.03280047 0.9994614
vn -0.02219832 -0.0009939373 0.9997531
vn -0.0009939671 -0.007620305 0.9999704
vn -0.02153569 0.0003313422 0.999768
vn -0.05400488 0.0003313422 0.9985406
vn -0.05400488 -0.0009939373 0.9985402
vn -0.0639444 0.0003313422 0.9979534
vn -0.0639444 -0.0003313124 0.9979534
vn -0.05665541 0.0003313422 0.9983937
vn -0.05665541 0.0003313422 0.9983937
vn -0.002981871 0.0009939671 0.9999951
vn -0.006295055 0.001656592 0.9999788
vn -0.001656592 -0.01225877 0.9999235
vn -0.0526796 -0.02683675 0.9982508
vn -0.0639444 -0.0168972 0.9978104
vn -0.05135432 -0.05201694 0.9973249
vn -0.06328177 -0.03346312 0.9974345
vn -0.05665541 -0.01358402 0.9983014
vn -0.05599278 -0.02749938 0.9980524
vn -0.02153569 0.0003313422 0.999768
vn -0.05400488 0.0003313422 0.9985406
vn -0.02153569 -0.02484885 0.9994593
vn -0.05334222 -0.02617413 0.9982332
vn -0.0639444 -0.02683675 0.9975926
vn -0.0639444 0.0003313422 0.9979534
vn -0.05665541 -0.02683675 0.998033
vn -0.05665541 0.0003313422 0.9983937
vn -0.05334222 -0.05201694 0.9972206
vn -0.02021042 -0.05002901 0.9985433
vn -0.002319247 0.0009939671 0.9999968
vn -0.004969776 0.001656592 0.9999863
vn -0.004969776 -0.03081256 0.9995129
vn -0.002319247 -0.02418622 0.9997048
vn -0.00563243 -0.04737848 0.9988611
vn -0.002981871 -0.04870376 0.9988088
vn -0.04804114 0.0003313422 0.9988453
vn -0.04804114 0.0003313422 0.9988453
vn -0.0003313422 0.0003313422 0.9999999
vn -0.0003313422 -0.02551147 0.9996745
vn -0.04804114 -0.02617413 0.9985024
vn -0.0003313422 0.0003313422 0.9999999
vn -0.04804114 0.0003313422 0.9988453
vn -0.0003313422 0.0003313422 0.9999999
vn -0.04804114 -0.01358402 0.998753
vn -0.0003313422 -0.01358402 0.9999077
vn -0.04804114 -0.02683675 0.9984848
vn -0.0003313422 -0.02749938 0.9996217
vn -0.0003313422 -0.05135429 0.9986804
vn -0.04804114 -0.05201694 0.99749
vn -0.05599278 -0.05400485 0.9969695
vn -0.0639444 -0.05400485 0.9964911
g model_car_67_matte_detail_LOD1_0
f 3/3/3 2/2/2 1/1/1
f 4/4/4 3/3/3 1/1/1
f 3/3/3 5/5/5 2/2/2
f 5/5/5 6/6/6 2/2/2
f 5/5/5 7/7/7 6/6/6
f 7/7/7 8/8/8 6/6/6
f 4/4/4 1/1/1 9/9/9
f 10/10/10 4/4/4 9/9/9
f 8/8/8 7/7/7 11/11/11
f 12/12/12 8/8/8 11/11/11
f 11/11/11 13/13/13 12/12/12
f 13/13/13 14/14/14 12/12/12
f 13/13/13 15/15/15 14/14/14
f 15/15/15 16/16/16 14/14/14
f 15/15/15 17/17/17 16/16/16
f 17/17/17 18/18/18 16/16/16
f 17/17/17 19/19/19 18/18/18
f 19/19/19 20/20/20 18/18/18
f 19/19/19 21/21/21 20/20/20
f 21/21/21 22/22/22 20/20/20
f 25/25/25 24/24/24 23/23/23
f 26/26/26 25/25/25 23/23/23
f 27/27/27 25/25/25 26/26/26
f 28/28/28 27/27/27 26/26/26
f 29/29/29 27/27/27 28/28/28
f 30/30/30 29/29/29 28/28/28
f 23/23/23 24/24/24 31/31/31
f 24/24/24 32/32/32 31/31/31
f 29/29/29 30/30/30 33/33/33
f 30/30/30 34/34/34 33/33/33
f 35/35/35 33/33/33 34/34/34
f 36/36/36 35/35/35 34/34/34
f 37/37/37 35/35/35 36/36/36
f 38/38/38 37/37/37 36/36/36
f 39/39/39 37/37/37 38/38/38
f 40/40/40 39/39/39 38/38/38
f 41/41/41 39/39/39 40/40/40
f 42/42/42 41/41/41 40/40/40
f 43/43/43 41/41/41 42/42/42
f 44/44/44 43/43/43 42/42/42
f 47/47/47 46/46/46 45/45/45
f 48/48/48 47/47/47 45/45/45
f 47/47/47 49/49/49 46/46/46
f 49/49/49 50/50/50 46/46/46
f 50/50/50 49/49/49 51/51/51
f 52/52/52 51/51/51 49/49/49
f 53/53/53 52/52/52 49/49/49
f 54/54/54 52/52/52 53/53/53
f 55/55/55 54/54/54 53/53/53
f 56/56/56 54/54/54 55/55/55
f 57/57/57 56/56/56 55/55/55
f 58/58/58 50/50/50 51/51/51
f 58/58/58 59/59/59 50/50/50
f 59/59/59 60/60/60 50/50/50
f 46/46/46 50/50/50 60/60/60
f 45/45/45 46/46/46 60/60/60
f 55/55/55 53/53/53 61/61/61
f 61/61/61 53/53/53 49/49/49
f 47/47/47 61/61/61 49/49/49
f 62/62/62 55/55/55 61/61/61
f 57/57/57 55/55/55 62/62/62
f 62/62/62 61/61/61 63/63/63
f 64/64/64 62/62/62 63/63/63
f 65/65/65 62/62/62 64/64/64
f 65/65/65 57/57/57 62/62/62
f 66/66/66 65/65/65 64/64/64
f 51/51/51 52/52/52 67/67/67
f 56/56/56 68/68/68 54/54/54
f 68/68/68 69/69/69 54/54/54
f 68/68/68 70/70/70 69/69/69
f 70/70/70 71/71/71 69/69/69
f 69/69/69 71/71/71 72/72/72
f 67/67/67 72/72/72 73/73/73
f 72/72/72 74/74/74 73/73/73
f 71/71/71 74/74/74 72/72/72
f 52/52/52 72/72/72 67/67/67
f 69/69/69 72/72/72 52/52/52
f 54/54/54 69/69/69 52/52/52
f 73/73/73 74/74/74 75/75/75
f 76/76/76 73/73/73 75/75/75
f 67/67/67 77/77/77 51/51/51
f 77/77/77 58/58/58 51/51/51
f 77/77/77 78/78/78 58/58/58
f 79/79/79 78/78/78 77/77/77
f 80/80/80 79/79/79 77/77/77
f 80/80/80 73/73/73 76/76/76
f 78/78/78 59/59/59 58/58/58
f 67/67/67 73/73/73 80/80/80
f 77/77/77 67/67/67 80/80/80
f 79/79/79 80/80/80 81/81/81
f 80/80/80 82/82/82 81/81/81
f 82/82/82 80/80/80 76/76/76
f 75/75/75 74/74/74 83/83/83
f 74/74/74 71/71/71 83/83/83
f 83/83/83 71/71/71 84/84/84
f 71/71/71 70/70/70 84/84/84
f 84/84/84 70/70/70 85/85/85
f 70/70/70 86/86/86 85/85/85
f 85/85/85 86/86/86 87/87/87
f 86/86/86 88/88/88 87/87/87
f 88/88/88 86/86/86 89/89/89
f 90/90/90 88/88/88 89/89/89
f 90/90/90 89/89/89 91/91/91
f 92/92/92 90/90/90 91/91/91
f 92/92/92 91/91/91 93/93/93
f 94/94/94 92/92/92 93/93/93
f 94/94/94 93/93/93 95/95/95
f 96/96/96 94/94/94 95/95/95
f 96/96/96 95/95/95 97/97/97
f 98/98/98 96/96/96 97/97/97
f 91/91/91 89/89/89 56/56/56
f 89/89/89 68/68/68 56/56/56
f 89/89/89 86/86/86 68/68/68
f 95/95/95 93/93/93 65/65/65
f 93/93/93 57/57/57 65/65/65
f 91/91/91 56/56/56 57/57/57
f 93/93/93 91/91/91 57/57/57
f 95/95/95 65/65/65 66/66/66
f 97/97/97 95/95/95 66/66/66
f 86/86/86 70/70/70 68/68/68
f 63/63/63 61/61/61 47/47/47
f 48/48/48 63/63/63 47/47/47
f 101/101/101 100/100/100 99/99/99
f 102/102/102 101/101/101 99/99/99
f 103/103/103 101/101/101 102/102/102
f 104/104/104 103/103/103 102/102/102
f 103/103/103 104/104/104 105/105/105
f 105/105/105 106/106/106 103/103/103
f 106/106/106 107/107/107 103/103/103
f 106/106/106 108/108/108 107/107/107
f 108/108/108 109/109/109 107/107/107
f 108/108/108 110/110/110 109/109/109
f 110/110/110 111/111/111 109/109/109
f 104/104/104 112/112/112 105/105/105
f 113/113/113 112/112/112 104/104/104
f 114/114/114 113/113/113 104/104/104
f 102/102/102 99/99/99 114/114/114
f 104/104/104 102/102/102 114/114/114
f 107/107/107 109/109/109 115/115/115
f 115/115/115 101/101/101 103/103/103
f 107/107/107 115/115/115 103/103/103
f 109/109/109 116/116/116 115/115/115
f 109/109/109 111/111/111 116/116/116
f 115/115/115 116/116/116 117/117/117
f 116/116/116 118/118/118 117/117/117
f 116/116/116 119/119/119 118/118/118
f 111/111/111 119/119/119 116/116/116
f 119/119/119 120/120/120 118/118/118
f 106/106/106 105/105/105 121/121/121
f 122/122/122 106/106/106 121/121/121
f 122/122/122 121/121/121 123/123/123
f 124/124/124 122/122/122 123/123/123
f 124/124/124 125/125/125 122/122/122
f 125/125/125 126/126/126 122/122/122
f 122/122/122 126/126/126 106/106/106
f 125/125/125 127/127/127 126/126/126
f 127/127/127 128/128/128 126/126/126
f 126/126/126 108/108/108 106/106/106
f 126/126/126 128/128/128 108/108/108
f 128/128/128 110/110/110 108/108/108
f 124/124/124 123/123/123 129/129/129
f 123/123/123 130/130/130 129/129/129
f 131/131/131 121/121/121 105/105/105
f 112/112/112 131/131/131 105/105/105
f 132/132/132 131/131/131 112/112/112
f 132/132/132 133/133/133 131/131/131
f 133/133/133 134/134/134 131/131/131
f 123/123/123 134/134/134 130/130/130
f 113/113/113 132/132/132 112/112/112
f 121/121/121 131/131/131 134/134/134
f 123/123/123 121/121/121 134/134/134
f 134/134/134 133/133/133 135/135/135
f 136/136/136 134/134/134 135/135/135
f 134/134/134 136/136/136 130/130/130
f 128/128/128 137/137/137 110/110/110
f 137/137/137 138/138/138 110/110/110
f 137/137/137 139/139/139 138/138/138
f 140/140/140 139/139/139 137/137/137
f 141/141/141 140/140/140 137/137/137
f 139/139/139 142/142/142 138/138/138
f 138/138/138 142/142/142 143/143/143
f 142/142/142 144/144/144 143/143/143
f 143/143/143 144/144/144 145/145/145
f 144/144/144 146/146/146 145/145/145
f 145/145/145 146/146/146 147/147/147
f 146/146/146 148/148/148 147/147/147
f 140/140/140 141/141/141 149/149/149
f 141/141/141 150/150/150 149/149/149
f 141/141/141 127/127/127 150/150/150
f 127/127/127 151/151/151 150/150/150
f 127/127/127 125/125/125 151/151/151
f 125/125/125 152/152/152 151/151/151
f 125/125/125 124/124/124 152/152/152
f 124/124/124 129/129/129 152/152/152
f 143/143/143 145/145/145 119/119/119
f 111/111/111 143/143/143 119/119/119
f 138/138/138 143/143/143 111/111/111
f 110/110/110 138/138/138 111/111/111
f 145/145/145 147/147/147 120/120/120
f 119/119/119 145/145/145 120/120/120
f 127/127/127 141/141/141 128/128/128
f 141/141/141 137/137/137 128/128/128
f 117/117/117 100/100/100 101/101/101
f 115/115/115 117/117/117 101/101/101
