g ref_37
v -0.7449 0.7873997 1.6515
v -0.7061 0.8297998 1.6062
v -0.7108 0.7953997 1.754
v -0.6581 0.8005997 1.7691
v -0.6649 0.7529997 1.897
v -0.744 0.7357997 1.7389
v -0.5831 0.7513996 1.9265
v -0.5829 0.6698997 2.0422
v -0.7075 0.6352996 1.9634
v -0.7468 0.6749997 1.8401
v -0.6419 0.6216997 2.0317
v -0.5372 0.6082997 2.0964
v -0.4583 0.6795997 2.0801
v -0.4325 0.5948997 2.1534
v 0.7449 0.7873997 1.6515
v 0.7108 0.7953997 1.754
v 0.7061 0.8297998 1.6062
v 0.6581 0.8005997 1.7691
v 0.6649 0.7529997 1.897
v 0.744 0.7357997 1.7389
v 0.5831 0.7513996 1.9265
v 0.5829 0.6698997 2.0422
v 0.7076 0.6352996 1.9634
v 0.7468 0.6749997 1.8401
v 0.6419 0.6216997 2.0317
v 0.5372 0.6082997 2.0964
v 0.4583 0.6795997 2.0801
v 0.4325 0.5948997 2.1534
vt 0 1
vt 1 1
vt 0.5409 0.7193
vt 1 0.7193
vt 0.5409 0.4903
vt 0 0.7193
vt 1 0.4903
vt 0.5409 0.2861
vt 0 0.2861
vt 0 0.4903
vt 0 0
vt 0.5409 0
vt 1 0.2861
vt 1 0
vt 0 1
vt 0.5409 0.7193
vt 1 1
vt 1 0.7193
vt 0.5409 0.4903
vt 0 0.7193
vt 1 0.4903
vt 0.5409 0.2861
vt 0 0.2861
vt 0 0.4903
vt 0 0
vt 0.5409 0
vt 1 0.2861
vt 1 0
vn -0.7118397 0.6778352 0.1839123
vn -0.5089993 0.841792 0.1797383
vn -0.5784671 0.7516118 0.3169472
vn -0.1659348 0.9396354 0.2992506
vn -0.460832 0.7598506 0.4585422
vn -0.8389631 0.4431734 0.3158137
vn -0.1779844 0.8391745 0.5139142
vn -0.3781064 0.6040527 0.7015382
vn -0.6298449 0.5395523 0.5587295
vn -0.7621931 0.5412695 0.3550902
vn -0.5269294 0.4943973 0.6913152
vn -0.3425225 0.4953173 0.7983352
vn -0.3000727 0.6122795 0.7314849
vn -0.342726 0.552888 0.7595089
vn 0.7118397 0.6778352 0.1839123
vn 0.5784671 0.7516117 0.3169472
vn 0.5089993 0.841792 0.1797383
vn 0.1659348 0.9396354 0.2992506
vn 0.4607516 0.7599509 0.458457
vn 0.8389631 0.4431734 0.3158137
vn 0.1779844 0.8391745 0.5139142
vn 0.3780316 0.6040556 0.7015761
vn 0.6296982 0.5398142 0.5586419
vn 0.7621869 0.5414105 0.3548884
vn 0.5267548 0.4941099 0.6916536
vn 0.3425225 0.4953174 0.7983352
vn 0.3000727 0.6122795 0.7314849
vn 0.342726 0.552888 0.7595089
g ref_37_0
f 3/3/3 2/2/2 1/1/1
f 4/4/4 2/2/2 3/3/3
f 4/4/4 3/3/3 5/5/5
f 5/5/5 3/3/3 6/6/6
f 6/6/6 3/3/3 1/1/1
f 7/7/7 4/4/4 5/5/5
f 7/7/7 5/5/5 8/8/8
f 8/8/8 5/5/5 9/9/9
f 9/9/9 5/5/5 10/10/10
f 10/10/10 5/5/5 6/6/6
f 11/11/11 8/8/8 9/9/9
f 12/12/12 8/8/8 11/11/11
f 13/13/13 8/8/8 12/12/12
f 13/13/13 7/7/7 8/8/8
f 14/14/14 13/13/13 12/12/12
f 17/17/17 16/16/16 15/15/15
f 17/17/17 18/18/18 16/16/16
f 16/16/16 18/18/18 19/19/19
f 16/16/16 19/19/19 20/20/20
f 16/16/16 20/20/20 15/15/15
f 18/18/18 21/21/21 19/19/19
f 19/19/19 21/21/21 22/22/22
f 19/19/19 22/22/22 23/23/23
f 19/19/19 23/23/23 24/24/24
f 19/19/19 24/24/24 20/20/20
f 22/22/22 25/25/25 23/23/23
f 22/22/22 26/26/26 25/25/25
f 22/22/22 27/27/27 26/26/26
f 21/21/21 27/27/27 22/22/22
f 27/27/27 28/28/28 26/26/26
