g model_car_124_matte_mirror_LOD1
v 1.089458 1.001394 0.3573248
v 1.1028 1.00051 0.3493969
v 1.09898 1.021873 0.3517213
v 1.089403 1.036044 0.3574468
v 1.089521 0.9635994 0.3571901
v 1.099651 0.9788303 0.3512123
v 1.063889 1.003085 0.3725178
v 1.063975 1.049156 0.3725852
v 1.063796 0.9525418 0.3724421
v 1.013057 1.006446 0.4027209
v 1.012851 1.06407 0.4029922
v 1.01327 0.9473212 0.4024433
v 0.962432 0.9493845 0.4326485
v 0.9620702 1.00982 0.4330187
v 0.9616979 1.072027 0.4333994
v 0.9364273 0.9582505 0.4481192
v 0.9363621 1.01152 0.4482938
v 0.9362948 1.066362 0.4484746
v 0.9213205 1.012515 0.4572333
v 0.9255337 1.048672 0.4548228
v 0.9254537 0.9763546 0.454684
v -1.08946 1.001394 0.3573248
v -1.089403 1.036044 0.3574468
v -1.09898 1.021873 0.3517213
v -1.1028 1.00051 0.3493969
v -1.089521 0.9635994 0.3571901
v -1.099651 0.9788303 0.3512123
v -1.063889 1.003085 0.3725178
v -1.063975 1.049156 0.3725852
v -1.063796 0.9525418 0.3724421
v -1.013057 1.006446 0.4027209
v -1.012851 1.06407 0.4029922
v -1.01327 0.9473212 0.4024433
v -0.9624321 0.9493845 0.4326485
v -0.9620702 1.00982 0.4330187
v -0.9616981 1.072027 0.4333994
v -0.9364274 0.9582505 0.4481192
v -0.9363623 1.01152 0.4482938
v -0.9362948 1.066362 0.4484746
v -0.9213207 1.012515 0.4572333
v -0.9255338 1.048672 0.4548228
v -0.9254539 0.9763546 0.454684
vn -0.5107188 0.002496421 -0.8597441
vn -0.5107188 0.002496421 -0.8597441
vn -0.5107188 0.002496421 -0.8597441
vn -0.5107188 0.002496421 -0.8597441
vn -0.5107188 0.002496421 -0.8597441
vn -0.5107188 0.002496421 -0.8597441
vn -0.5107188 0.002496421 -0.8597441
vn -0.5107188 0.002496421 -0.8597441
vn -0.5107188 0.002496421 -0.8597441
vn -0.5107188 0.002496421 -0.8597441
vn -0.5107188 0.002496421 -0.8597441
vn -0.5107188 0.002496421 -0.8597441
vn -0.5107188 0.002496421 -0.8597441
vn -0.5107188 0.002496421 -0.8597441
vn -0.5107188 0.002496421 -0.8597441
vn -0.5107188 0.002496421 -0.8597441
vn -0.5107188 0.002496421 -0.8597441
vn -0.5107188 0.002496421 -0.8597441
vn -0.5107188 0.002496421 -0.8597441
vn -0.5107188 0.002496421 -0.8597441
vn -0.5107188 0.002496421 -0.8597441
vn 0.5107183 0.002496421 -0.8597444
vn 0.5107183 0.002496421 -0.8597444
vn 0.5107183 0.002496421 -0.8597444
vn 0.5107183 0.002496421 -0.8597444
vn 0.5107183 0.002496421 -0.8597444
vn 0.5107183 0.002496421 -0.8597444
vn 0.5107183 0.002496421 -0.8597444
vn 0.5107183 0.002496421 -0.8597444
vn 0.5107183 0.002496421 -0.8597444
vn 0.5107183 0.002496421 -0.8597444
vn 0.5107183 0.002496421 -0.8597444
vn 0.5107183 0.002496421 -0.8597444
vn 0.5107183 0.002496421 -0.8597444
vn 0.5107183 0.002496421 -0.8597444
vn 0.5107183 0.002496421 -0.8597444
vn 0.5107183 0.002496421 -0.8597444
vn 0.5107183 0.002496421 -0.8597444
vn 0.5107183 0.002496421 -0.8597444
vn 0.5107183 0.002496421 -0.8597444
vn 0.5107183 0.002496421 -0.8597444
vn 0.5107183 0.002496421 -0.8597444
g model_car_124_matte_mirror_LOD1_0
f 3/3/3 2/2/2 1/1/1
f 4/4/4 3/3/3 1/1/1
f 1/1/1 2/2/2 5/5/5
f 2/2/2 6/6/6 5/5/5
f 4/4/4 1/1/1 7/7/7
f 8/8/8 4/4/4 7/7/7
f 1/1/1 5/5/5 9/9/9
f 7/7/7 1/1/1 9/9/9
f 8/8/8 7/7/7 10/10/10
f 11/11/11 8/8/8 10/10/10
f 7/7/7 9/9/9 12/12/12
f 10/10/10 7/7/7 12/12/12
f 10/10/10 12/12/12 13/13/13
f 14/14/14 10/10/10 13/13/13
f 11/11/11 10/10/10 14/14/14
f 15/15/15 11/11/11 14/14/14
f 14/14/14 13/13/13 16/16/16
f 17/17/17 14/14/14 16/16/16
f 15/15/15 14/14/14 17/17/17
f 18/18/18 15/15/15 17/17/17
f 18/18/18 17/17/17 19/19/19
f 20/20/20 18/18/18 19/19/19
f 17/17/17 16/16/16 21/21/21
f 19/19/19 17/17/17 21/21/21
f 24/24/24 23/23/23 22/22/22
f 25/25/25 24/24/24 22/22/22
f 25/25/25 22/22/22 26/26/26
f 27/27/27 25/25/25 26/26/26
f 22/22/22 23/23/23 28/28/28
f 23/23/23 29/29/29 28/28/28
f 22/22/22 28/28/28 30/30/30
f 26/26/26 22/22/22 30/30/30
f 28/28/28 29/29/29 31/31/31
f 29/29/29 32/32/32 31/31/31
f 28/28/28 31/31/31 33/33/33
f 30/30/30 28/28/28 33/33/33
f 33/33/33 31/31/31 34/34/34
f 31/31/31 35/35/35 34/34/34
f 31/31/31 32/32/32 35/35/35
f 32/32/32 36/36/36 35/35/35
f 34/34/34 35/35/35 37/37/37
f 35/35/35 38/38/38 37/37/37
f 35/35/35 36/36/36 38/38/38
f 36/36/36 39/39/39 38/38/38
f 38/38/38 39/39/39 40/40/40
f 39/39/39 41/41/41 40/40/40
f 38/38/38 40/40/40 42/42/42
f 37/37/37 38/38/38 42/42/42
