g ref_54
v -0.482 0.4570011 2.1053
v -0.5054 0.4405012 2.1035
v -0.88 0.588901 1.834
v -0.9116 0.7060009 1.7578
v -0.895 0.7326009 1.7475
v -0.5049 0.5518011 2.0131
v 0.482 0.4570011 2.1053
v 0.88 0.588901 1.834
v 0.5054 0.4405012 2.1035
v 0.9116 0.7060009 1.7578
v 0.895 0.7326009 1.7475
v 0.5049 0.5518011 2.0131
vt 0.2755 0.6613
vt 0.2639 0.668
vt 0.266 0.8945
vt 0.3132 0.9421
vt 0.3286 0.9424
vt 0.3192 0.7064
vt 0.7324 0.6576
vt 0.7387 0.8909
vt 0.7439 0.6644
vt 0.6909 0.9378
vt 0.6755 0.9379
vt 0.6881 0.702
vn -0.3285924 0.5292416 0.7822598
vn -0.3886235 0.4643153 0.7958537
vn -0.4139302 0.4162061 0.809589
vn -0.3594066 0.4890657 0.7947589
vn -0.3240411 0.5309466 0.7830027
vn -0.1882073 0.6610077 0.726393
vn 0.3285924 0.5292416 0.7822598
vn 0.4139302 0.4162061 0.809589
vn 0.3886235 0.4643153 0.7958537
vn 0.3594066 0.4890657 0.7947589
vn 0.3240411 0.5309466 0.7830027
vn 0.1882073 0.6610077 0.726393
g ref_54_0
f 3/3/3 2/2/2 1/1/1
f 4/4/4 3/3/3 1/1/1
f 5/5/5 4/4/4 1/1/1
f 6/6/6 5/5/5 1/1/1
f 9/9/9 8/8/8 7/7/7
f 8/8/8 10/10/10 7/7/7
f 10/10/10 11/11/11 7/7/7
f 11/11/11 12/12/12 7/7/7
