g Taillight_15
v 0.5411 0.7696013 -2.175
v 0.623 0.7612014 -2.1493
v 0.5293 0.8890004 -2.0999
v 0.5868 0.8961003 -2.071
v 0.6941 0.7578003 -2.1242
v 0.6384 0.9241003 -2.0346
v 0.7713 0.7811003 -2.0786
v 0.7458 0.7611004 -2.102
v 0.7911 0.8083004 -2.0524
v 0.7994 0.8581004 -2.0152
v 0.7041 0.9392003 -1.9965
v 0.7862 0.8989003 -1.9924
v 0.7518 0.9301013 -1.9843
v 0.4886 0.8558013 -2.1325
v 0.4932 0.8060014 -2.1618
v -0.5411 0.7696013 -2.175
v -0.5293 0.8890004 -2.0999
v -0.623 0.7612014 -2.1493
v -0.5868 0.8961003 -2.071
v -0.694 0.7578003 -2.1242
v -0.6384 0.9241003 -2.0346
v -0.7713 0.7811003 -2.0786
v -0.7458 0.7611004 -2.102
v -0.791 0.8083004 -2.0524
v -0.7994 0.8581004 -2.0152
v -0.7041 0.9392003 -1.9965
v -0.7862 0.8989003 -1.9924
v -0.7518 0.9301013 -1.9843
v -0.4886 0.8558013 -2.1325
v -0.4932 0.8060014 -2.1618
vt 0.865 0.2574
vt 0.7688 0.2527
vt 0.8577 0.4153
vt 0.787 0.4306
vt 0.6846 0.2537
vt 0.7211 0.4706
vt 0.588 0.2911
vt 0.6221 0.2623
vt 0.5594 0.3291
vt 0.5401 0.3965
vt 0.6389 0.4975
vt 0.5483 0.4501
vt 0.5836 0.4891
vt 0.9105 0.3709
vt 0.9134 0.3062
vt 0.865 0.2574
vt 0.8577 0.4153
vt 0.7688 0.2527
vt 0.787 0.4306
vt 0.6846 0.2537
vt 0.7211 0.4706
vt 0.588 0.2911
vt 0.6221 0.2623
vt 0.5594 0.3291
vt 0.5401 0.3965
vt 0.6389 0.4975
vt 0.5483 0.4501
vt 0.5836 0.4891
vt 0.9105 0.3709
vt 0.9134 0.3062
vn 0.2637993 0.5279393 -0.8072732
vn 0.3059986 0.5349495 -0.7875239
vn 0.2871151 0.5360416 -0.7938667
vn 0.301841 0.5330312 -0.7904238
vn 0.3026302 0.532314 -0.7906054
vn 0.3004044 0.5346513 -0.7898766
vn 0.3089005 0.5308903 -0.7891362
vn 0.3044896 0.5343545 -0.7885121
vn 0.3123384 0.5327677 -0.7865134
vn 0.312092 0.5378089 -0.7831731
vn 0.3155296 0.5492892 -0.7737716
vn 0.303311 0.5378866 -0.7865624
vn 0.3037446 0.5388745 -0.7857184
vn 0.2062421 0.5308753 -0.8219706
vn 0.1558786 0.5115549 -0.8449932
vn -0.2637993 0.5279391 -0.8072733
vn -0.2871152 0.5360416 -0.7938667
vn -0.3062002 0.5349556 -0.7874414
vn -0.3019261 0.532979 -0.7904265
vn -0.3026108 0.5322866 -0.7906312
vn -0.3004332 0.5345619 -0.7899262
vn -0.308941 0.5310513 -0.789012
vn -0.3037756 0.5350392 -0.7883232
vn -0.3125968 0.5328173 -0.7863771
vn -0.3120176 0.5375755 -0.783363
vn -0.3155296 0.5492892 -0.7737716
vn -0.303311 0.5378866 -0.7865624
vn -0.3037446 0.5388745 -0.7857184
vn -0.2062422 0.530875 -0.8219708
vn -0.1558786 0.5115544 -0.8449934
g Taillight_15_0
f 3/3/3 2/2/2 1/1/1
f 4/4/4 2/2/2 3/3/3
f 5/5/5 2/2/2 4/4/4
f 6/6/6 5/5/5 4/4/4
f 7/7/7 5/5/5 6/6/6
f 8/8/8 5/5/5 7/7/7
f 6/6/6 9/9/9 7/7/7
f 10/10/10 9/9/9 6/6/6
f 6/6/6 11/11/11 10/10/10
f 11/11/11 12/12/12 10/10/10
f 13/13/13 12/12/12 11/11/11
f 1/1/1 14/14/14 3/3/3
f 1/1/1 15/15/15 14/14/14
f 18/18/18 17/17/17 16/16/16
f 18/18/18 19/19/19 17/17/17
f 18/18/18 20/20/20 19/19/19
f 20/20/20 21/21/21 19/19/19
f 20/20/20 22/22/22 21/21/21
f 20/20/20 23/23/23 22/22/22
f 24/24/24 21/21/21 22/22/22
f 24/24/24 25/25/25 21/21/21
f 26/26/26 21/21/21 25/25/25
f 27/27/27 26/26/26 25/25/25
f 27/27/27 28/28/28 26/26/26
f 16/16/16 17/17/17 29/29/29
f 16/16/16 29/29/29 30/30/30
