g model_car_57_matte_backlight_LOD1
v 4.768372E-07 0.3015406 -2.594427
v 0.1213 0.3015406 -2.594427
v 0.1213 0.3249772 -2.594427
v 4.768372E-07 0.3249772 -2.594427
v 0.4935315 0.8104274 -2.566962
v 0.4880738 0.8688178 -2.578439
v 0.4231846 0.8787837 -2.596247
v 0.4391084 0.812115 -2.581195
v 0.350575 0.8863647 -2.613893
v 0.360347 0.8141327 -2.599497
v 0.2751889 0.8912745 -2.630341
v 0.2772779 0.8158135 -2.616329
v 0.2054136 0.8929043 -2.642511
v 0.1964376 0.8172324 -2.63065
v 0.1087072 0.8929451 -2.653696
v 0.1026235 0.8184233 -2.641814
v 4.768372E-07 0.8928735 -2.657438
v 4.768372E-07 0.8188689 -2.645366
v 0.5587306 0.8083653 -2.547605
v 0.5586352 0.8588009 -2.557265
v 0.631762 0.8051331 -2.520708
v 0.6450284 0.8472629 -2.525254
v 0.6989412 0.801734 -2.490123
v 0.7098022 0.8391991 -2.494073
v 0.7588187 0.7990358 -2.455509
v 0.7610303 0.8332515 -2.462086
v 0.8050078 0.7965722 -2.421025
v 0.804426 0.8289473 -2.427064
v 0.8507036 0.7935951 -2.378589
v 0.8456441 0.8246839 -2.384614
v 0.909169 0.7938468 -2.311192
v 0.8990635 0.82056 -2.315625
v 0.9103531 0.7969737 -2.308949
v 0.9021769 0.8176985 -2.312515
v 4.768372E-07 0.3015406 -2.594427
v 4.768372E-07 0.3249772 -2.594427
v -0.1212993 0.3249772 -2.594427
v -0.1212993 0.3015406 -2.594427
v -0.4935308 0.8104274 -2.566962
v -0.439111 0.812115 -2.581195
v -0.4231839 0.8787837 -2.596247
v -0.4880731 0.8688178 -2.578439
v -0.3505743 0.8863647 -2.613893
v -0.3603463 0.8141327 -2.599497
v -0.2751882 0.8912745 -2.630341
v -0.2772772 0.8158135 -2.616329
v -0.2054129 0.8929043 -2.642511
v -0.1964369 0.8172324 -2.63065
v -0.1087065 0.8929451 -2.653696
v -0.1026227 0.8184233 -2.641814
v 4.768372E-07 0.8928735 -2.657438
v 4.768372E-07 0.8188689 -2.645366
v -0.5587299 0.8083653 -2.547605
v -0.5586345 0.8588009 -2.557265
v -0.6317613 0.8051331 -2.520708
v -0.6450276 0.8472629 -2.525254
v -0.6989405 0.801734 -2.490123
v -0.7098014 0.8391991 -2.494073
v -0.7588179 0.7990358 -2.455509
v -0.7610297 0.8332515 -2.462086
v -0.8050072 0.7965722 -2.421025
v -0.8044252 0.8289473 -2.427064
v -0.8507028 0.7935951 -2.378589
v -0.8456466 0.8246839 -2.384614
v -0.9091716 0.7938468 -2.311192
v -0.8990662 0.82056 -2.315625
v -0.9103522 0.7969737 -2.308949
v -0.9021795 0.8176985 -2.312515
vt 0.2584303 0.006589638
vt 0.7259499 0.006589638
vt 0.7259499 0.09697857
vt 0.2584303 0.09697857
vt 0.6413228 0.1668109
vt 0.6316747 0.126328
vt 0.5843646 0.1239572
vt 0.6022203 0.1694518
vt 0.5320578 0.1239572
vt 0.5460723 0.1737581
vt 0.4782656 0.1261629
vt 0.4872535 0.1788598
vt 0.4291099 0.1304993
vt 0.4303253 0.1841865
vt 0.3618133 0.1386169
vt 0.3649043 0.1912537
vt 0.2867443 0.1487751
vt 0.2939917 0.2004817
vt 0.6886179 0.1639
vt 0.6833963 0.1285187
vt 0.7428303 0.1617843
vt 0.747992 0.1313096
vt 0.7942668 0.160824
vt 0.7983031 0.1338304
vt 0.8424772 0.1606289
vt 0.8404816 0.1363962
vt 0.8826301 0.1615592
vt 0.879359 0.138857
vt 0.926069 0.1634798
vt 0.9205622 0.1418429
vt 0.9882038 0.1635399
vt 0.9813316 0.1446188
vt 0.9899294 0.1613342
vt 0.9843776 0.1466295
vt 0.2584303 0.006589638
vt 0.2584303 0.09697857
vt 0.7259499 0.09697857
vt 0.7259499 0.006589638
vt 0.6413228 0.1668109
vt 0.6022203 0.1694518
vt 0.5843646 0.1239572
vt 0.6316747 0.126328
vt 0.5320578 0.1239572
vt 0.5460723 0.1737581
vt 0.4782656 0.1261629
vt 0.4872535 0.1788598
vt 0.4291099 0.1304993
vt 0.4303253 0.1841865
vt 0.3618133 0.1386169
vt 0.3649043 0.1912537
vt 0.2867443 0.1487751
vt 0.2939917 0.2004817
vt 0.6886179 0.1639
vt 0.6833963 0.1285187
vt 0.7428303 0.1617843
vt 0.747992 0.1313096
vt 0.7942668 0.160824
vt 0.7983031 0.1338304
vt 0.8424772 0.1606289
vt 0.8404816 0.1363962
vt 0.8826301 0.1615592
vt 0.879359 0.138857
vt 0.926069 0.1634798
vt 0.9205622 0.1418429
vt 0.9882038 0.1635399
vt 0.9813316 0.1446188
vt 0.9899294 0.1613342
vt 0.9843776 0.1466295
vn 0.0007537007 -0.0007537007 -0.9999994
vn 0.0007537007 -0.0007537007 -0.9999994
vn 0.0007537007 -0.0007537007 -0.9999994
vn 0.0007537007 -0.0007537007 -0.9999994
vn 0.2555817 -0.1666181 -0.9523216
vn 0.252566 -0.1651102 -0.9533882
vn 0.2254246 -0.1636024 -0.960426
vn 0.2299482 -0.1620945 -0.9596089
vn 0.2043146 -0.168126 -0.9643595
vn 0.2073303 -0.1666181 -0.9639775
vn 0.1801888 -0.1726496 -0.9683616
vn 0.1816967 -0.1711417 -0.9683475
vn 0.1394767 -0.1696338 -0.9755873
vn 0.136461 -0.1696338 -0.9760137
vn 0.07313091 -0.1636024 -0.983812
vn 0.07011521 -0.1636024 -0.9840316
vn 0.0007537007 -0.1605867 -0.9870214
vn 0.0007537007 -0.1605867 -0.9870214
vn 0.2993096 -0.1801888 -0.9369876
vn 0.2932782 -0.178681 -0.939181
vn 0.3520847 -0.1982831 -0.9147241
vn 0.359624 -0.2012988 -0.9111253
vn 0.4350169 -0.2148696 -0.8744091
vn 0.4425562 -0.2148696 -0.8706176
vn 0.5420749 -0.1907439 -0.8183957
vn 0.5345355 -0.1937596 -0.8226354
vn 0.6521485 -0.1138431 -0.7494946
vn 0.6400856 -0.1243981 -0.7581659
vn 0.7471436 0.0324192 -0.6638716
vn 0.7335728 0.002261996 -0.6796071
vn 0.7712693 0.09122568 -0.6299377
vn 0.7712693 0.08971781 -0.6301542
vn 0.7607143 0.1892365 -0.6208891
vn 0.7607143 0.1892365 -0.6208891
vn 0.0007537007 -0.0007537007 -0.9999994
vn 0.0007537007 -0.0007537007 -0.9999994
vn 0.0007537007 -0.0007537007 -0.9999994
vn 0.0007537007 -0.0007537007 -0.9999994
vn -0.2555822 -0.1666181 -0.9523215
vn -0.2299486 -0.1620945 -0.9596088
vn -0.2254251 -0.1636024 -0.9604258
vn -0.2525665 -0.1651102 -0.953388
vn -0.2043151 -0.168126 -0.9643593
vn -0.2073308 -0.1666181 -0.9639774
vn -0.1801893 -0.1726496 -0.9683615
vn -0.1816972 -0.1711417 -0.9683474
vn -0.1394771 -0.1696338 -0.9755872
vn -0.1364614 -0.1696338 -0.9760137
vn -0.07313138 -0.1636024 -0.983812
vn -0.07011563 -0.1636024 -0.9840315
vn 0.0007537007 -0.1605867 -0.9870214
vn 0.0007537007 -0.1605867 -0.9870214
vn -0.2993101 -0.1801888 -0.9369875
vn -0.2932787 -0.178681 -0.9391809
vn -0.3520851 -0.1982831 -0.9147239
vn -0.3596245 -0.2012988 -0.9111251
vn -0.4350173 -0.2148696 -0.874409
vn -0.4425566 -0.2148696 -0.8706174
vn -0.5420753 -0.1907439 -0.8183955
vn -0.534536 -0.1937596 -0.8226351
vn -0.652149 -0.1138431 -0.7494941
vn -0.6415939 -0.1243981 -0.7568899
vn -0.7471441 0.0324192 -0.663871
vn -0.7335733 0.002261996 -0.6796066
vn -0.7712698 0.09122568 -0.6299371
vn -0.7712698 0.08971781 -0.6301537
vn -0.7607148 0.1892365 -0.6208886
vn -0.7607148 0.1892365 -0.6208886
g model_car_57_matte_backlight_LOD1_0
f 3/3/3 2/2/2 1/1/1
f 4/4/4 3/3/3 1/1/1
f 7/7/7 6/6/6 5/5/5
f 8/8/8 7/7/7 5/5/5
f 9/9/9 7/7/7 8/8/8
f 10/10/10 9/9/9 8/8/8
f 11/11/11 9/9/9 10/10/10
f 12/12/12 11/11/11 10/10/10
f 13/13/13 11/11/11 12/12/12
f 14/14/14 13/13/13 12/12/12
f 15/15/15 13/13/13 14/14/14
f 16/16/16 15/15/15 14/14/14
f 17/17/17 15/15/15 16/16/16
f 18/18/18 17/17/17 16/16/16
f 5/5/5 6/6/6 19/19/19
f 6/6/6 20/20/20 19/19/19
f 19/19/19 20/20/20 21/21/21
f 20/20/20 22/22/22 21/21/21
f 21/21/21 22/22/22 23/23/23
f 22/22/22 24/24/24 23/23/23
f 23/23/23 24/24/24 25/25/25
f 24/24/24 26/26/26 25/25/25
f 25/25/25 26/26/26 27/27/27
f 26/26/26 28/28/28 27/27/27
f 27/27/27 28/28/28 29/29/29
f 28/28/28 30/30/30 29/29/29
f 29/29/29 30/30/30 31/31/31
f 30/30/30 32/32/32 31/31/31
f 31/31/31 32/32/32 33/33/33
f 32/32/32 34/34/34 33/33/33
f 37/37/37 36/36/36 35/35/35
f 38/38/38 37/37/37 35/35/35
f 41/41/41 40/40/40 39/39/39
f 42/42/42 41/41/41 39/39/39
f 41/41/41 43/43/43 40/40/40
f 43/43/43 44/44/44 40/40/40
f 43/43/43 45/45/45 44/44/44
f 45/45/45 46/46/46 44/44/44
f 45/45/45 47/47/47 46/46/46
f 47/47/47 48/48/48 46/46/46
f 47/47/47 49/49/49 48/48/48
f 49/49/49 50/50/50 48/48/48
f 49/49/49 51/51/51 50/50/50
f 51/51/51 52/52/52 50/50/50
f 42/42/42 39/39/39 53/53/53
f 54/54/54 42/42/42 53/53/53
f 54/54/54 53/53/53 55/55/55
f 56/56/56 54/54/54 55/55/55
f 56/56/56 55/55/55 57/57/57
f 58/58/58 56/56/56 57/57/57
f 58/58/58 57/57/57 59/59/59
f 60/60/60 58/58/58 59/59/59
f 60/60/60 59/59/59 61/61/61
f 62/62/62 60/60/60 61/61/61
f 62/62/62 61/61/61 63/63/63
f 64/64/64 62/62/62 63/63/63
f 64/64/64 63/63/63 65/65/65
f 66/66/66 64/64/64 65/65/65
f 66/66/66 65/65/65 67/67/67
f 68/68/68 66/66/66 67/67/67
