g model_car_49_matte_mirror_LOD1
v 0.7490443 0.9454899 0.5652007
v 0.7374253 0.9444005 0.5717331
v 0.7384604 0.9328201 0.571936
v 0.7507316 0.934086 0.5650293
v 0.7395935 0.9511516 0.5700737
v 0.7476962 0.9541259 0.5653685
v 0.7844223 0.9475969 0.5453881
v 0.7876763 0.9361178 0.5443512
v 0.7819621 0.9562975 0.5461714
v 0.8177317 0.9482386 0.5268257
v 0.8146403 0.957081 0.5279499
v 0.74703 0.9572226 0.5655311
v 0.7362975 0.9532883 0.5717629
v 0.821909 0.9365672 0.5252887
v 0.7524207 0.922682 0.5648562
v 0.7909321 0.924637 0.5433143
v 0.8436904 0.9468572 0.512486
v 0.8398524 0.9544371 0.5141103
v 0.8487751 0.9364902 0.5103563
v 0.838812 0.9571928 0.5145038
v 0.8137189 0.960272 0.5282472
v 0.8478344 0.9513947 0.5098772
v 0.8492944 0.9527918 0.5089715
v 0.8568568 0.9456666 0.5052453
v 0.8533213 0.9458379 0.5072002
v 0.8589253 0.9363608 0.5047225
v 0.8626584 0.936429 0.5026418
v 0.8260862 0.9248974 0.5237517
v 0.8535591 0.9253713 0.5084434
v 0.8570614 0.9152473 0.5071793
v 0.8291759 0.9146127 0.5227253
v 0.8677012 0.9154817 0.5012465
v 0.8582976 0.9078598 0.5069886
v 0.8691735 0.9081134 0.5009229
v 0.8731916 0.9081693 0.4986866
v 0.8688238 0.902261 0.5015105
v 0.8728471 0.9023064 0.4992723
v 0.8716406 0.9155656 0.4990503
v 0.8709412 0.8967847 0.5007026
v 0.867063 0.8967234 0.5028639
v 0.8565701 0.8962828 0.5087266
v 0.8579165 0.9019568 0.5075953
v 0.8630939 0.8916929 0.5054079
v 0.8532671 0.8910774 0.5109141
v 0.8293822 0.8949679 0.5239319
v 0.827527 0.8893132 0.5253429
v 0.7940776 0.886512 0.5441291
v 0.79491 0.8917716 0.5433125
v 0.8470144 0.8865802 0.5146927
v 0.8230508 0.8843631 0.5281633
v 0.7915563 0.881422 0.5458724
v 0.8298298 0.9010056 0.5232762
v 0.794896 0.8971133 0.5429611
v 0.7563514 0.8868268 0.5650817
v 0.7563339 0.8828664 0.5653597
v 0.755874 0.8780736 0.5659368
v 0.7561486 0.8903711 0.5649576
v 0.7948837 0.9024534 0.5426079
v 0.7559475 0.8939153 0.5648317
v 0.742886 0.8878182 0.5725025
v 0.7426289 0.8906578 0.5724553
v 0.7405045 0.9105368 0.5722997
v 0.7379237 0.8894758 0.5751498
v 0.7357695 0.9098916 0.5749749
v 0.7349144 0.920792 0.5747179
v 0.7394973 0.9212413 0.5721388
v 0.7340909 0.9324861 0.5743874
v 0.7538912 0.9124007 0.5647303
v 0.7916437 0.9151547 0.5435556
v 0.7433948 0.8815463 0.5726423
v 0.7436396 0.8769301 0.5728154
v 0.739277 0.8765315 0.5752686
v 0.7466103 0.8743318 0.5713397
v 0.7552935 0.8741586 0.5665225
v 0.7890401 0.8776295 0.5475265
v 0.7549141 0.872828 0.5668232
v 0.7882201 0.8762727 0.5480738
v 0.8175062 0.8795686 0.5315695
v 0.8187721 0.8808661 0.5307791
v 0.7434577 0.8730168 0.5731809
v 0.7388031 0.8810619 0.5752267
v 0.8396583 0.8822194 0.5190744
v 0.8413124 0.8834189 0.5180761
v 0.8493556 0.8848474 0.5135071
v 0.8501548 0.8841988 0.5131049
v 0.8594953 0.8874894 0.5076915
v 0.8561242 0.8873618 0.5095747
v 0.8667378 0.8917873 0.5033761
v 0.7384657 0.8842984 0.575197
v 0.7431413 0.8849785 0.5725515
v 0.7381947 0.8868862 0.5751742
v 0.8300939 0.9071009 0.5227201
v 0.7332691 0.9441803 0.5740587
v 0.8640013 0.9255706 0.5026243
v 0.8678569 0.9256914 0.5004736
v 0.7810913 0.9594414 0.5464442
v -0.7490444 0.9454899 0.5652007
v -0.7507318 0.934086 0.5650293
v -0.7384607 0.9328201 0.571936
v -0.7374254 0.9444005 0.5717331
v -0.7395936 0.9511516 0.5700737
v -0.7476963 0.9541259 0.5653685
v -0.7844224 0.9475969 0.5453881
v -0.7876765 0.9361178 0.5443512
v -0.7819623 0.9562975 0.5461714
v -0.8177319 0.9482386 0.5268257
v -0.8146405 0.957081 0.5279499
v -0.7470301 0.9572226 0.5655311
v -0.7362977 0.9532883 0.5717629
v -0.8219092 0.9365672 0.5252887
v -0.7524209 0.922682 0.5648562
v -0.7909322 0.924637 0.5433143
v -0.8436905 0.9468572 0.512486
v -0.8398526 0.9544371 0.5141103
v -0.8487753 0.9364902 0.5103563
v -0.8388104 0.9571928 0.5145038
v -0.813719 0.960272 0.5282472
v -0.8478346 0.9513947 0.5098772
v -0.8492945 0.9527918 0.5089715
v -0.8568569 0.9456666 0.5052453
v -0.8533214 0.9458379 0.5072002
v -0.8589255 0.9363608 0.5047225
v -0.8626586 0.936429 0.5026418
v -0.8260864 0.9248974 0.5237517
v -0.8535593 0.9253713 0.5084434
v -0.8570598 0.9152473 0.5071793
v -0.8291761 0.9146127 0.5227253
v -0.8677014 0.9154817 0.5012465
v -0.8582978 0.9078598 0.5069886
v -0.8691736 0.9081134 0.5009229
v -0.8731917 0.9081693 0.4986866
v -0.8688239 0.902261 0.5015105
v -0.8728473 0.9023064 0.4992723
v -0.8716408 0.9155656 0.4990503
v -0.8709414 0.8967847 0.5007026
v -0.8670632 0.8967234 0.5028639
v -0.8565702 0.8962828 0.5087266
v -0.8579166 0.9019568 0.5075953
v -0.863094 0.8916929 0.5054079
v -0.8532672 0.8910774 0.5109141
v -0.8293823 0.8949679 0.5239319
v -0.8275272 0.8893132 0.5253429
v -0.7940778 0.886512 0.5441291
v -0.7949101 0.8917716 0.5433125
v -0.8470145 0.8865802 0.5146927
v -0.823051 0.8843631 0.5281633
v -0.7915565 0.881422 0.5458724
v -0.8298299 0.9010056 0.5232762
v -0.7948961 0.8971133 0.5429611
v -0.7563516 0.8868268 0.5650817
v -0.7563341 0.8828664 0.5653597
v -0.7558742 0.8780736 0.5659368
v -0.7561487 0.8903711 0.5649576
v -0.7948838 0.9024534 0.5426079
v -0.7559476 0.8939153 0.5648317
v -0.7428844 0.8878182 0.5725025
v -0.7426291 0.8906578 0.5724553
v -0.7405046 0.9105368 0.5722997
v -0.7379239 0.8894758 0.5751498
v -0.7357696 0.9098916 0.5749749
v -0.7349129 0.920792 0.5747179
v -0.7394974 0.9212413 0.5721388
v -0.734091 0.9324861 0.5743874
v -0.7538913 0.9124007 0.5647303
v -0.7916439 0.9151547 0.5435556
v -0.743395 0.8815463 0.5726423
v -0.7381948 0.8868862 0.5751742
v -0.7384659 0.8842984 0.575197
v -0.7431414 0.8849785 0.5725515
v -0.7388033 0.8810619 0.5752267
v -0.7392771 0.8765315 0.5752686
v -0.7436397 0.8769301 0.5728154
v -0.7466105 0.8743318 0.5713397
v -0.7552937 0.8741586 0.5665225
v -0.7890403 0.8776295 0.5475265
v -0.7549143 0.872828 0.5668232
v -0.7882203 0.8762727 0.5480738
v -0.8175063 0.8795686 0.5315695
v -0.8187723 0.8808661 0.5307791
v -0.7434579 0.8730168 0.5731809
v -0.8396585 0.8822194 0.5190744
v -0.8413125 0.8834189 0.5180761
v -0.8493558 0.8848474 0.5135071
v -0.8501549 0.8841988 0.5131049
v -0.8594955 0.8874894 0.5076915
v -0.8561244 0.8873618 0.5095747
v -0.866738 0.8917873 0.5033761
v -0.830094 0.9071009 0.5227201
v -0.7332692 0.9441803 0.5740587
v -0.8640015 0.9255706 0.5026243
v -0.867857 0.9256914 0.5004736
v -0.7810915 0.9594414 0.5464442
vn -0.4851125 -0.05832669 -0.8725044
vn -0.4851125 -0.05832669 -0.8725044
vn -0.4851125 -0.05832669 -0.8725044
vn -0.4851125 -0.05832669 -0.8725044
vn -0.4851125 -0.05832669 -0.8725044
vn -0.4851125 -0.05832669 -0.8725044
vn -0.4851125 -0.05832669 -0.8725044
vn -0.4851125 -0.05832669 -0.8725044
vn -0.4851125 -0.05832669 -0.8725044
vn -0.4851125 -0.05832669 -0.8725044
vn -0.4851125 -0.05832669 -0.8725044
vn -0.4851125 -0.05832669 -0.8725044
vn -0.4851125 -0.05832669 -0.8725044
vn -0.4851125 -0.05832669 -0.8725044
vn -0.4851125 -0.05832669 -0.8725044
vn -0.4851125 -0.05832669 -0.8725044
vn -0.4851125 -0.05832669 -0.8725044
vn -0.4851125 -0.05832669 -0.8725044
vn -0.4851125 -0.05832669 -0.8725044
vn -0.4851125 -0.05832669 -0.8725044
vn -0.4851125 -0.05832669 -0.8725044
vn -0.4851125 -0.05832669 -0.8725044
vn -0.4851125 -0.05832669 -0.8725044
vn -0.4851125 -0.05832669 -0.8725044
vn -0.4851125 -0.05832669 -0.8725044
vn -0.4851125 -0.05832669 -0.8725044
vn -0.4851125 -0.05832669 -0.8725044
vn -0.4851125 -0.05832669 -0.8725044
vn -0.4851125 -0.05832669 -0.8725044
vn -0.4851125 -0.05832669 -0.8725044
vn -0.4851125 -0.05832669 -0.8725044
vn -0.4851125 -0.05832669 -0.8725044
vn -0.4851125 -0.05832669 -0.8725044
vn -0.4851125 -0.05832669 -0.8725044
vn -0.4851125 -0.05832669 -0.8725044
vn -0.4851125 -0.05832669 -0.8725044
vn -0.4851125 -0.05832669 -0.8725044
vn -0.4851125 -0.05832669 -0.8725044
vn -0.4851125 -0.05832669 -0.8725044
vn -0.4851125 -0.05832669 -0.8725044
vn -0.4851125 -0.05832669 -0.8725044
vn -0.4851125 -0.05832669 -0.8725044
vn -0.4851125 -0.05832669 -0.8725044
vn -0.4851125 -0.05832669 -0.8725044
vn -0.4851125 -0.05832669 -0.8725044
vn -0.4851125 -0.05832669 -0.8725044
vn -0.4851125 -0.05832669 -0.8725044
vn -0.4851125 -0.05832669 -0.8725044
vn -0.4851125 -0.05832669 -0.8725044
vn -0.4851125 -0.05832669 -0.8725044
vn -0.4851125 -0.05832669 -0.8725044
vn -0.4851125 -0.05832669 -0.8725044
vn -0.4851125 -0.05832669 -0.8725044
vn -0.4851125 -0.05832669 -0.8725044
vn -0.4851125 -0.05832669 -0.8725044
vn -0.4851125 -0.05832669 -0.8725044
vn -0.4851125 -0.05832669 -0.8725044
vn -0.4851125 -0.05832669 -0.8725044
vn -0.4851125 -0.05832669 -0.8725044
vn -0.4851125 -0.05832669 -0.8725044
vn -0.4851125 -0.05832669 -0.8725044
vn -0.4851125 -0.05832669 -0.8725044
vn -0.4851125 -0.05832669 -0.8725044
vn -0.4851125 -0.05832669 -0.8725044
vn -0.4851125 -0.05832669 -0.8725044
vn -0.4851125 -0.05832669 -0.8725044
vn -0.4851125 -0.05832669 -0.8725044
vn -0.4851125 -0.05832669 -0.8725044
vn -0.4851125 -0.05832669 -0.8725044
vn -0.4851125 -0.05832669 -0.8725044
vn -0.4851125 -0.05832669 -0.8725044
vn -0.4851125 -0.05832669 -0.8725044
vn -0.4851125 -0.05832669 -0.8725044
vn -0.4851125 -0.05832669 -0.8725044
vn -0.4851125 -0.05832669 -0.8725044
vn -0.4851125 -0.05832669 -0.8725044
vn -0.4851125 -0.05832669 -0.8725044
vn -0.4851125 -0.05832669 -0.8725044
vn -0.4851125 -0.05832669 -0.8725044
vn -0.4851125 -0.05832669 -0.8725044
vn -0.4851125 -0.05832669 -0.8725044
vn -0.4851125 -0.05832669 -0.8725044
vn -0.4851125 -0.05832669 -0.8725044
vn -0.4851125 -0.05832669 -0.8725044
vn -0.4851125 -0.05832669 -0.8725044
vn -0.4851125 -0.05832669 -0.8725044
vn -0.4851125 -0.05832669 -0.8725044
vn -0.4851125 -0.05832669 -0.8725044
vn -0.4851125 -0.05832669 -0.8725044
vn -0.4851125 -0.05832669 -0.8725044
vn -0.4851125 -0.05832669 -0.8725044
vn -0.4851125 -0.05832669 -0.8725044
vn -0.4851125 -0.05832669 -0.8725044
vn -0.4851125 -0.05832669 -0.8725044
vn -0.4851125 -0.05832669 -0.8725044
vn -0.4851125 -0.05832669 -0.8725044
vn 0.4851114 -0.05832669 -0.872505
vn 0.4851114 -0.05832669 -0.872505
vn 0.4851114 -0.05832669 -0.872505
vn 0.4851114 -0.05832669 -0.872505
vn 0.4851114 -0.05832669 -0.872505
vn 0.4851114 -0.05832669 -0.872505
vn 0.4851114 -0.05832669 -0.872505
vn 0.4851114 -0.05832669 -0.872505
vn 0.4851114 -0.05832669 -0.872505
vn 0.4851114 -0.05832669 -0.872505
vn 0.4851114 -0.05832669 -0.872505
vn 0.4851114 -0.05832669 -0.872505
vn 0.4851114 -0.05832669 -0.872505
vn 0.4851114 -0.05832669 -0.872505
vn 0.4851114 -0.05832669 -0.872505
vn 0.4851114 -0.05832669 -0.872505
vn 0.4851114 -0.05832669 -0.872505
vn 0.4851114 -0.05832669 -0.872505
vn 0.4851114 -0.05832669 -0.872505
vn 0.4851114 -0.05832669 -0.872505
vn 0.4851114 -0.05832669 -0.872505
vn 0.4851114 -0.05832669 -0.872505
vn 0.4851114 -0.05832669 -0.872505
vn 0.4851114 -0.05832669 -0.872505
vn 0.4851114 -0.05832669 -0.872505
vn 0.4851114 -0.05832669 -0.872505
vn 0.4851114 -0.05832669 -0.872505
vn 0.4851114 -0.05832669 -0.872505
vn 0.4851114 -0.05832669 -0.872505
vn 0.4851114 -0.05832669 -0.872505
vn 0.4851114 -0.05832669 -0.872505
vn 0.4851114 -0.05832669 -0.872505
vn 0.4851114 -0.05832669 -0.872505
vn 0.4851114 -0.05832669 -0.872505
vn 0.4851114 -0.05832669 -0.872505
vn 0.4851114 -0.05832669 -0.872505
vn 0.4851114 -0.05832669 -0.872505
vn 0.4851114 -0.05832669 -0.872505
vn 0.4851114 -0.05832669 -0.872505
vn 0.4851114 -0.05832669 -0.872505
vn 0.4851114 -0.05832669 -0.872505
vn 0.4851114 -0.05832669 -0.872505
vn 0.4851114 -0.05832669 -0.872505
vn 0.4851114 -0.05832669 -0.872505
vn 0.4851114 -0.05832669 -0.872505
vn 0.4851114 -0.05832669 -0.872505
vn 0.4851114 -0.05832669 -0.872505
vn 0.4851114 -0.05832669 -0.872505
vn 0.4851114 -0.05832669 -0.872505
vn 0.4851114 -0.05832669 -0.872505
vn 0.4851114 -0.05832669 -0.872505
vn 0.4851114 -0.05832669 -0.872505
vn 0.4851114 -0.05832669 -0.872505
vn 0.4851114 -0.05832669 -0.872505
vn 0.4851114 -0.05832669 -0.872505
vn 0.4851114 -0.05832669 -0.872505
vn 0.4851114 -0.05832669 -0.872505
vn 0.4851114 -0.05832669 -0.872505
vn 0.4851114 -0.05832669 -0.872505
vn 0.4851114 -0.05832669 -0.872505
vn 0.4851114 -0.05832669 -0.872505
vn 0.4851114 -0.05832669 -0.872505
vn 0.4851114 -0.05832669 -0.872505
vn 0.4851114 -0.05832669 -0.872505
vn 0.4851114 -0.05832669 -0.872505
vn 0.4851114 -0.05832669 -0.872505
vn 0.4851114 -0.05832669 -0.872505
vn 0.4851114 -0.05832669 -0.872505
vn 0.4851114 -0.05832669 -0.872505
vn 0.4851114 -0.05832669 -0.872505
vn 0.4851114 -0.05832669 -0.872505
vn 0.4851114 -0.05832669 -0.872505
vn 0.4851114 -0.05832669 -0.872505
vn 0.4851114 -0.05832669 -0.872505
vn 0.4851114 -0.05832669 -0.872505
vn 0.4851114 -0.05832669 -0.872505
vn 0.4851114 -0.05832669 -0.872505
vn 0.4851114 -0.05832669 -0.872505
vn 0.4851114 -0.05832669 -0.872505
vn 0.4851114 -0.05832669 -0.872505
vn 0.4851114 -0.05832669 -0.872505
vn 0.4851114 -0.05832669 -0.872505
vn 0.4851114 -0.05832669 -0.872505
vn 0.4851114 -0.05832669 -0.872505
vn 0.4851114 -0.05832669 -0.872505
vn 0.4851114 -0.05832669 -0.872505
vn 0.4851114 -0.05832669 -0.872505
vn 0.4851114 -0.05832669 -0.872505
vn 0.4851114 -0.05832669 -0.872505
vn 0.4851114 -0.05832669 -0.872505
vn 0.4851114 -0.05832669 -0.872505
vn 0.4851114 -0.05832669 -0.872505
vn 0.4851114 -0.05832669 -0.872505
vn 0.4851114 -0.05832669 -0.872505
vn 0.4851114 -0.05832669 -0.872505
vn 0.4851114 -0.05832669 -0.872505
g model_car_49_matte_mirror_LOD1_0
f 3/3/3 2/2/2 1/1/1
f 4/4/4 3/3/3 1/1/1
f 2/2/2 5/5/5 1/1/1
f 5/5/5 6/6/6 1/1/1
f 4/4/4 1/1/1 7/7/7
f 1/1/1 6/6/6 7/7/7
f 8/8/8 4/4/4 7/7/7
f 6/6/6 9/9/9 7/7/7
f 7/7/7 9/9/9 10/10/10
f 8/8/8 7/7/7 10/10/10
f 9/9/9 11/11/11 10/10/10
f 6/6/6 5/5/5 12/12/12
f 5/5/5 13/13/13 12/12/12
f 14/14/14 8/8/8 10/10/10
f 4/4/4 8/8/8 15/15/15
f 3/3/3 4/4/4 15/15/15
f 8/8/8 16/16/16 15/15/15
f 8/8/8 14/14/14 16/16/16
f 10/10/10 11/11/11 17/17/17
f 14/14/14 10/10/10 17/17/17
f 11/11/11 18/18/18 17/17/17
f 19/19/19 14/14/14 17/17/17
f 18/18/18 11/11/11 20/20/20
f 11/11/11 21/21/21 20/20/20
f 11/11/11 9/9/9 21/21/21
f 22/22/22 18/18/18 20/20/20
f 18/18/18 22/22/22 17/17/17
f 23/23/23 22/22/22 20/20/20
f 22/22/22 23/23/23 24/24/24
f 25/25/25 22/22/22 24/24/24
f 22/22/22 25/25/25 17/17/17
f 26/26/26 25/25/25 24/24/24
f 26/26/26 19/19/19 17/17/17
f 25/25/25 26/26/26 17/17/17
f 27/27/27 26/26/26 24/24/24
f 14/14/14 19/19/19 28/28/28
f 14/14/14 28/28/28 16/16/16
f 19/19/19 29/29/29 28/28/28
f 19/19/19 26/26/26 29/29/29
f 29/29/29 30/30/30 28/28/28
f 30/30/30 31/31/31 28/28/28
f 28/28/28 31/31/31 16/16/16
f 32/32/32 30/30/30 29/29/29
f 30/30/30 32/32/32 33/33/33
f 32/32/32 34/34/34 33/33/33
f 34/34/34 32/32/32 35/35/35
f 36/36/36 34/34/34 35/35/35
f 34/34/34 36/36/36 33/33/33
f 37/37/37 36/36/36 35/35/35
f 32/32/32 38/38/38 35/35/35
f 36/36/36 37/37/37 39/39/39
f 40/40/40 36/36/36 39/39/39
f 36/36/36 40/40/40 41/41/41
f 42/42/42 36/36/36 41/41/41
f 36/36/36 42/42/42 33/33/33
f 40/40/40 43/43/43 41/41/41
f 43/43/43 40/40/40 39/39/39
f 43/43/43 44/44/44 41/41/41
f 41/41/41 44/44/44 45/45/45
f 42/42/42 41/41/41 45/45/45
f 44/44/44 46/46/46 45/45/45
f 46/46/46 47/47/47 45/45/45
f 47/47/47 48/48/48 45/45/45
f 46/46/46 44/44/44 49/49/49
f 44/44/44 43/43/43 49/49/49
f 50/50/50 46/46/46 49/49/49
f 46/46/46 50/50/50 51/51/51
f 47/47/47 46/46/46 51/51/51
f 52/52/52 42/42/42 45/45/45
f 53/53/53 52/52/52 45/45/45
f 48/48/48 53/53/53 45/45/45
f 48/48/48 47/47/47 54/54/54
f 53/53/53 48/48/48 54/54/54
f 47/47/47 55/55/55 54/54/54
f 47/47/47 51/51/51 56/56/56
f 55/55/55 47/47/47 56/56/56
f 57/57/57 53/53/53 54/54/54
f 53/53/53 57/57/57 58/58/58
f 57/57/57 59/59/59 58/58/58
f 57/57/57 60/60/60 59/59/59
f 60/60/60 57/57/57 54/54/54
f 60/60/60 61/61/61 59/59/59
f 59/59/59 61/61/61 62/62/62
f 61/61/61 63/63/63 62/62/62
f 61/61/61 60/60/60 63/63/63
f 63/63/63 64/64/64 62/62/62
f 62/62/62 64/64/64 65/65/65
f 66/66/66 62/62/62 65/65/65
f 3/3/3 66/66/66 65/65/65
f 67/67/67 3/3/3 65/65/65
f 68/68/68 59/59/59 62/62/62
f 58/58/58 59/59/59 68/68/68
f 69/69/69 58/58/58 68/68/68
f 70/70/70 55/55/55 56/56/56
f 71/71/71 70/70/70 56/56/56
f 70/70/70 71/71/71 72/72/72
f 71/71/71 73/73/73 72/72/72
f 73/73/73 71/71/71 56/56/56
f 74/74/74 73/73/73 56/56/56
f 75/75/75 74/74/74 56/56/56
f 74/74/74 75/75/75 76/76/76
f 73/73/73 74/74/74 76/76/76
f 75/75/75 77/77/77 76/76/76
f 77/77/77 75/75/75 78/78/78
f 75/75/75 79/79/79 78/78/78
f 51/51/51 75/75/75 56/56/56
f 79/79/79 75/75/75 51/51/51
f 80/80/80 73/73/73 76/76/76
f 73/73/73 80/80/80 72/72/72
f 81/81/81 70/70/70 72/72/72
f 78/78/78 79/79/79 82/82/82
f 79/79/79 83/83/83 82/82/82
f 83/83/83 79/79/79 49/49/49
f 79/79/79 50/50/50 49/49/49
f 50/50/50 79/79/79 51/51/51
f 83/83/83 84/84/84 82/82/82
f 84/84/84 83/83/83 49/49/49
f 84/84/84 85/85/85 82/82/82
f 85/85/85 84/84/84 86/86/86
f 84/84/84 87/87/87 86/86/86
f 87/87/87 84/84/84 49/49/49
f 87/87/87 43/43/43 86/86/86
f 43/43/43 87/87/87 49/49/49
f 43/43/43 88/88/88 86/86/86
f 88/88/88 43/43/43 39/39/39
f 70/70/70 81/81/81 89/89/89
f 90/90/90 70/70/70 89/89/89
f 60/60/60 90/90/90 89/89/89
f 91/91/91 60/60/60 89/89/89
f 60/60/60 91/91/91 63/63/63
f 70/70/70 90/90/90 54/54/54
f 90/90/90 60/60/60 54/54/54
f 55/55/55 70/70/70 54/54/54
f 53/53/53 58/58/58 92/92/92
f 52/52/52 53/53/53 92/92/92
f 58/58/58 69/69/69 92/92/92
f 69/69/69 31/31/31 92/92/92
f 42/42/42 52/52/52 92/92/92
f 33/33/33 42/42/42 92/92/92
f 31/31/31 69/69/69 16/16/16
f 16/16/16 69/69/69 15/15/15
f 69/69/69 68/68/68 15/15/15
f 68/68/68 62/62/62 15/15/15
f 62/62/62 66/66/66 15/15/15
f 66/66/66 3/3/3 15/15/15
f 30/30/30 33/33/33 92/92/92
f 31/31/31 30/30/30 92/92/92
f 3/3/3 67/67/67 93/93/93
f 2/2/2 3/3/3 93/93/93
f 5/5/5 2/2/2 93/93/93
f 13/13/13 5/5/5 93/93/93
f 94/94/94 32/32/32 29/29/29
f 26/26/26 94/94/94 29/29/29
f 32/32/32 94/94/94 95/95/95
f 94/94/94 26/26/26 95/95/95
f 38/38/38 32/32/32 95/95/95
f 26/26/26 27/27/27 95/95/95
f 9/9/9 96/96/96 21/21/21
f 9/9/9 6/6/6 96/96/96
f 6/6/6 12/12/12 96/96/96
f 99/99/99 98/98/98 97/97/97
f 100/100/100 99/99/99 97/97/97
f 101/101/101 100/100/100 97/97/97
f 102/102/102 101/101/101 97/97/97
f 97/97/97 98/98/98 103/103/103
f 102/102/102 97/97/97 103/103/103
f 98/98/98 104/104/104 103/103/103
f 105/105/105 102/102/102 103/103/103
f 105/105/105 103/103/103 106/106/106
f 103/103/103 104/104/104 106/106/106
f 107/107/107 105/105/105 106/106/106
f 101/101/101 102/102/102 108/108/108
f 109/109/109 101/101/101 108/108/108
f 104/104/104 110/110/110 106/106/106
f 104/104/104 98/98/98 111/111/111
f 98/98/98 99/99/99 111/111/111
f 112/112/112 104/104/104 111/111/111
f 110/110/110 104/104/104 112/112/112
f 107/107/107 106/106/106 113/113/113
f 106/106/106 110/110/110 113/113/113
f 114/114/114 107/107/107 113/113/113
f 110/110/110 115/115/115 113/113/113
f 107/107/107 114/114/114 116/116/116
f 117/117/117 107/107/107 116/116/116
f 105/105/105 107/107/107 117/117/117
f 114/114/114 118/118/118 116/116/116
f 118/118/118 114/114/114 113/113/113
f 118/118/118 119/119/119 116/116/116
f 119/119/119 118/118/118 120/120/120
f 118/118/118 121/121/121 120/120/120
f 121/121/121 118/118/118 113/113/113
f 121/121/121 122/122/122 120/120/120
f 122/122/122 121/121/121 113/113/113
f 115/115/115 122/122/122 113/113/113
f 122/122/122 123/123/123 120/120/120
f 115/115/115 110/110/110 124/124/124
f 124/124/124 110/110/110 112/112/112
f 125/125/125 115/115/115 124/124/124
f 122/122/122 115/115/115 125/125/125
f 126/126/126 125/125/125 124/124/124
f 127/127/127 126/126/126 124/124/124
f 127/127/127 124/124/124 112/112/112
f 126/126/126 128/128/128 125/125/125
f 128/128/128 126/126/126 129/129/129
f 130/130/130 128/128/128 129/129/129
f 128/128/128 130/130/130 131/131/131
f 130/130/130 132/132/132 131/131/131
f 132/132/132 130/130/130 129/129/129
f 132/132/132 133/133/133 131/131/131
f 134/134/134 128/128/128 131/131/131
f 133/133/133 132/132/132 135/135/135
f 132/132/132 136/136/136 135/135/135
f 136/136/136 132/132/132 137/137/137
f 132/132/132 138/138/138 137/137/137
f 138/138/138 132/132/132 129/129/129
f 139/139/139 136/136/136 137/137/137
f 136/136/136 139/139/139 135/135/135
f 140/140/140 139/139/139 137/137/137
f 140/140/140 137/137/137 141/141/141
f 137/137/137 138/138/138 141/141/141
f 142/142/142 140/140/140 141/141/141
f 143/143/143 142/142/142 141/141/141
f 144/144/144 143/143/143 141/141/141
f 140/140/140 142/142/142 145/145/145
f 139/139/139 140/140/140 145/145/145
f 142/142/142 146/146/146 145/145/145
f 142/142/142 143/143/143 147/147/147
f 146/146/146 142/142/142 147/147/147
f 138/138/138 148/148/148 141/141/141
f 149/149/149 144/144/144 141/141/141
f 148/148/148 149/149/149 141/141/141
f 143/143/143 144/144/144 150/150/150
f 144/144/144 149/149/149 150/150/150
f 151/151/151 143/143/143 150/150/150
f 143/143/143 151/151/151 152/152/152
f 147/147/147 143/143/143 152/152/152
f 149/149/149 153/153/153 150/150/150
f 153/153/153 149/149/149 154/154/154
f 155/155/155 153/153/153 154/154/154
f 156/156/156 153/153/153 155/155/155
f 153/153/153 156/156/156 150/150/150
f 157/157/157 156/156/156 155/155/155
f 157/157/157 155/155/155 158/158/158
f 159/159/159 157/157/157 158/158/158
f 156/156/156 157/157/157 159/159/159
f 160/160/160 159/159/159 158/158/158
f 160/160/160 158/158/158 161/161/161
f 158/158/158 162/162/162 161/161/161
f 162/162/162 99/99/99 161/161/161
f 99/99/99 163/163/163 161/161/161
f 155/155/155 164/164/164 158/158/158
f 155/155/155 154/154/154 164/164/164
f 154/154/154 165/165/165 164/164/164
f 151/151/151 166/166/166 152/152/152
f 167/167/167 156/156/156 159/159/159
f 156/156/156 167/167/167 168/168/168
f 166/166/166 169/169/169 168/168/168
f 169/169/169 156/156/156 168/168/168
f 170/170/170 166/166/166 168/168/168
f 166/166/166 170/170/170 171/171/171
f 172/172/172 166/166/166 171/171/171
f 166/166/166 172/172/172 152/152/152
f 172/172/172 173/173/173 152/152/152
f 173/173/173 172/172/172 171/171/171
f 173/173/173 174/174/174 152/152/152
f 174/174/174 175/175/175 152/152/152
f 175/175/175 174/174/174 176/176/176
f 174/174/174 173/173/173 176/176/176
f 177/177/177 175/175/175 176/176/176
f 175/175/175 177/177/177 178/178/178
f 179/179/179 175/175/175 178/178/178
f 175/175/175 147/147/147 152/152/152
f 175/175/175 179/179/179 147/147/147
f 173/173/173 180/180/180 176/176/176
f 180/180/180 173/173/173 171/171/171
f 179/179/179 178/178/178 181/181/181
f 182/182/182 179/179/179 181/181/181
f 179/179/179 182/182/182 145/145/145
f 146/146/146 179/179/179 145/145/145
f 179/179/179 146/146/146 147/147/147
f 183/183/183 182/182/182 181/181/181
f 182/182/182 183/183/183 145/145/145
f 184/184/184 183/183/183 181/181/181
f 183/183/183 184/184/184 185/185/185
f 186/186/186 183/183/183 185/185/185
f 183/183/183 186/186/186 145/145/145
f 139/139/139 186/186/186 185/185/185
f 186/186/186 139/139/139 145/145/145
f 187/187/187 139/139/139 185/185/185
f 139/139/139 187/187/187 135/135/135
f 149/149/149 148/148/148 188/188/188
f 154/154/154 149/149/149 188/188/188
f 165/165/165 154/154/154 188/188/188
f 127/127/127 165/165/165 188/188/188
f 148/148/148 138/138/138 188/188/188
f 138/138/138 129/129/129 188/188/188
f 165/165/165 127/127/127 112/112/112
f 165/165/165 112/112/112 111/111/111
f 164/164/164 165/165/165 111/111/111
f 158/158/158 164/164/164 111/111/111
f 162/162/162 158/158/158 111/111/111
f 99/99/99 162/162/162 111/111/111
f 126/126/126 127/127/127 188/188/188
f 129/129/129 126/126/126 188/188/188
f 99/99/99 100/100/100 189/189/189
f 100/100/100 101/101/101 189/189/189
f 101/101/101 109/109/109 189/189/189
f 163/163/163 99/99/99 189/189/189
f 166/166/166 151/151/151 150/150/150
f 169/169/169 166/166/166 150/150/150
f 156/156/156 169/169/169 150/150/150
f 128/128/128 190/190/190 125/125/125
f 190/190/190 122/122/122 125/125/125
f 190/190/190 128/128/128 191/191/191
f 122/122/122 190/190/190 191/191/191
f 128/128/128 134/134/134 191/191/191
f 123/123/123 122/122/122 191/191/191
f 192/192/192 105/105/105 117/117/117
f 102/102/102 105/105/105 192/192/192
f 108/108/108 102/102/102 192/192/192
