g model_car_90_matte_mirror_LOD1
v 0.8958967 0.9432563 0.2025518
v 0.9007618 0.9254783 0.2000809
v 0.9119428 0.9752005 0.1982239
v 0.899877 0.9622437 0.2019523
v 0.9143534 0.9072859 0.1943436
v 0.9313112 0.9873558 0.1918621
v 0.9393654 0.8903718 0.184395
v 0.9611613 0.991028 0.1808186
v 0.9826801 0.8846346 0.1682864
v 0.99979 0.9904138 0.1652389
v 1.015234 0.8836042 0.1562208
v 1.034472 0.9841 0.1505084
v 1.042934 0.8870972 0.1460056
v 1.065015 0.9666029 0.1380409
v 1.064663 0.8918374 0.1370168
v 1.086172 0.9409455 0.1288792
v 1.084296 0.9002559 0.1283109
v 1.091428 0.9163457 0.1257399
v -0.8958968 0.9432563 0.2025518
v -0.8998771 0.9622437 0.2019523
v -0.9119428 0.9752005 0.1982239
v -0.9007618 0.9254783 0.2000809
v -0.9143535 0.9072859 0.1943436
v -0.9313112 0.9873558 0.1918621
v -0.9393655 0.8903718 0.184395
v -0.9611613 0.991028 0.1808186
v -0.9826802 0.8846346 0.1682864
v -0.9997901 0.9904138 0.1652389
v -1.015234 0.8836042 0.1562208
v -1.034472 0.9841 0.1505084
v -1.042934 0.8870972 0.1460056
v -1.065015 0.9666029 0.1380409
v -1.064663 0.8918374 0.1370168
v -1.086172 0.9409455 0.1288792
v -1.084296 0.9002559 0.1283109
v -1.091428 0.9163457 0.1257399
vn -0.3336065 0.03993654 -0.9418661
vn -0.3368336 0.04155013 -0.9406469
vn -0.3368336 0.04155013 -0.9406469
vn -0.3336065 0.03993654 -0.9418661
vn -0.3449015 0.04316369 -0.9376459
vn -0.3449015 0.04316369 -0.9376459
vn -0.3537761 0.03993654 -0.9344772
vn -0.3537761 0.03993654 -0.9344772
vn -0.3626508 0.0318687 -0.93138
vn -0.3626508 0.03106192 -0.9314073
vn -0.3642643 0.0197669 -0.9310858
vn -0.3642643 0.01896012 -0.9311026
vn -0.3682983 0.01250583 -0.9296236
vn -0.3691051 0.01250583 -0.9293035
vn -0.3908883 0.01896012 -0.9202428
vn -0.3908883 0.01896012 -0.9202428
vn -0.4126715 0.0318687 -0.9103223
vn -0.4126715 0.0318687 -0.9103223
vn 0.3336052 0.03993654 -0.9418666
vn 0.3336052 0.03993654 -0.9418666
vn 0.3368323 0.04155013 -0.9406474
vn 0.3368323 0.04155013 -0.9406474
vn 0.3449002 0.04316369 -0.9376464
vn 0.3449002 0.04316369 -0.9376464
vn 0.3537748 0.03993654 -0.9344776
vn 0.3537748 0.03993654 -0.9344776
vn 0.3626495 0.0318687 -0.9313806
vn 0.3626495 0.03106192 -0.9314078
vn 0.364263 0.0197669 -0.9310863
vn 0.364263 0.01896012 -0.9311031
vn 0.368297 0.01250583 -0.9296241
vn 0.3691037 0.01250583 -0.9293041
vn 0.390887 0.01896012 -0.9202434
vn 0.390887 0.01896012 -0.9202434
vn 0.4126702 0.0318687 -0.9103228
vn 0.4126702 0.0318687 -0.9103228
g model_car_90_matte_mirror_LOD1_0
f 3/3/3 2/2/2 1/1/1
f 4/4/4 3/3/3 1/1/1
f 5/5/5 2/2/2 3/3/3
f 6/6/6 5/5/5 3/3/3
f 5/5/5 6/6/6 7/7/7
f 6/6/6 8/8/8 7/7/7
f 7/7/7 8/8/8 9/9/9
f 8/8/8 10/10/10 9/9/9
f 9/9/9 10/10/10 11/11/11
f 10/10/10 12/12/12 11/11/11
f 11/11/11 12/12/12 13/13/13
f 12/12/12 14/14/14 13/13/13
f 15/15/15 13/13/13 14/14/14
f 16/16/16 15/15/15 14/14/14
f 17/17/17 15/15/15 16/16/16
f 18/18/18 17/17/17 16/16/16
f 21/21/21 20/20/20 19/19/19
f 22/22/22 21/21/21 19/19/19
f 22/22/22 23/23/23 21/21/21
f 23/23/23 24/24/24 21/21/21
f 24/24/24 23/23/23 25/25/25
f 26/26/26 24/24/24 25/25/25
f 26/26/26 25/25/25 27/27/27
f 28/28/28 26/26/26 27/27/27
f 28/28/28 27/27/27 29/29/29
f 30/30/30 28/28/28 29/29/29
f 30/30/30 29/29/29 31/31/31
f 32/32/32 30/30/30 31/31/31
f 31/31/31 33/33/33 32/32/32
f 33/33/33 34/34/34 32/32/32
f 33/33/33 35/35/35 34/34/34
f 35/35/35 36/36/36 34/34/34
