g Glass_47
v 0.6175004 1.0769 -0.2029008
v 0.6006004 1.106 -0.3722008
v 0.7828004 0.8939 -0.3550999
v 0.5959004 1.115 -0.5850008
v 0.7875004 0.9188001 -0.7739998
v 0.5935004 1.115 -0.7699008
v 0.7795004 0.8765 -0.06179986
v 0.6440004 1.0333 -0.04699983
v 0.7058004 0.9459 0.1770002
v 0.7744004 0.8498999 0.3857001
v 0.6298004 1.0434 0.04860017
v 0.4009004 1.0547 0.1214992
v 0.3571004 1.1172 -0.08090082
v 0.5849004 1.1054 -0.1428008
v 0.6807004 0.9534999 0.2657002
v 0.4553004 0.9438999 0.3816001
v 0.7559004 0.8037999 0.5860001
v 0.5218005 0.8001999 0.6752001
v 0.1793004 1.1263 -0.05540082
v 0.1951004 1.055 0.1566992
v 0.2184004 0.9362999 0.4304002
v 0.2559004 0.8116999 0.7028001
v 0.0001004094 1.1284 -0.04660082
v 0.0001004094 1.0543 0.1693992
v 0.0001004094 0.9335999 0.4511001
v 0.0001004094 0.8085999 0.7130001
v 0.2725004 1.090099 -1.2494
v 0.2825004 1.159 -0.9228008
v 0.0001004094 1.1638 -0.9228008
v 0.5358005 1.072699 -1.2494
v 0.0001004094 1.095199 -1.2494
v 0.2549004 1.022699 -1.5042
v 0.4968004 1.009499 -1.5042
v 0.5614004 1.1335 -0.9228008
v 0.4455004 0.9424993 -1.7418
v 0.2002004 0.9424993 -1.756701
v 0.0001004094 1.031999 -1.5042
v 0.0001004094 0.9424993 -1.7587
v -0.6171995 1.0769 -0.2029008
v -0.7791995 0.8765 -0.06179986
v -0.7824996 0.8939 -0.3550999
v -0.6436996 1.0333 -0.04699983
v -0.7054996 0.9459 0.1770002
v -0.7740996 0.8498999 0.3857001
v -0.6002995 1.106 -0.3722008
v -0.5956995 1.115 -0.5850008
v -0.7871996 0.9188001 -0.7739998
v -0.5931996 1.115 -0.7699008
v -0.6294996 1.0434 0.04860017
v -0.5845996 1.1054 -0.1428008
v -0.3567996 1.1172 -0.08090082
v -0.4005996 1.0547 0.1214992
v -0.6803995 0.9534999 0.2657002
v -0.1789996 1.1263 -0.05540082
v -0.4549996 0.9438999 0.3816001
v -0.7555996 0.8037999 0.5860001
v -0.1947996 1.055 0.1566992
v 0.0001004094 1.1284 -0.04660082
v -0.5214996 0.8001999 0.6752001
v -0.2180996 0.9362999 0.4304002
v 0.0001004094 1.0543 0.1693992
v -0.2555996 0.8116999 0.7028001
v 0.0001004094 0.9335999 0.4511001
v 0.0001004094 0.8085999 0.7130001
v -0.2721996 1.090099 -1.2494
v 0.0001004094 1.095199 -1.2494
v 0.0001004094 1.1638 -0.9228008
v -0.2821996 1.159 -0.9228008
v -0.5354996 1.072699 -1.2494
v -0.5610996 1.1335 -0.9228008
v -0.4964996 1.009499 -1.5042
v -0.2545996 1.022699 -1.5042
v -0.4451996 0.9424993 -1.7418
v 0.0001004094 1.031999 -1.5042
v -0.1998996 0.9424993 -1.756701
v 0.0001004094 0.9424993 -1.7587
vt 0.3925 0.9592
vt 0.4973 0.9685
vt 0.4665 0.7916
vt 0.6266 0.9599
vt 0.7211 0.7723
vt 0.7386 0.9483
vt 0.2882 0.8051
vt 0.2945 0.9381
vt 0.1511 0.8858
vt 0.0162 0.8256
vt 0.7934 0.0958
vt 0.7863 0.2343
vt 0.9187 0.2226
vt 0.9199 0.0954
vt 0.6455 0.096
vt 0.6289 0.2462
vt 0.423 0.0963
vt 0.4095 0.2554
vt 0.9349 0.3612
vt 0.7979 0.3821
vt 0.6344 0.4042
vt 0.4354 0.4249
vt 0.9567 0.4736
vt 0.8188 0.5055
vt 0.6537 0.5433
vt 0.4656 0.5862
vt 0.2082 0.437
vt 0.2094 0.6394
vt 0.3725 0.6394
vt 0.0279 0.4368
vt 0.3716 0.4369
vt 0.2068 0.2762
vt 0.0515 0.2762
vt 0.0131 0.6395
vt 0.0834 0.1249
vt 0.2406 0.115
vt 0.3702 0.2768
vt 0.3689 0.1129
vt 0.3925 0.9592
vt 0.2882 0.8051
vt 0.4665 0.7916
vt 0.2945 0.9381
vt 0.1511 0.8858
vt 0.0162 0.8256
vt 0.4973 0.9685
vt 0.6266 0.9599
vt 0.7211 0.7723
vt 0.7386 0.9483
vt 0.7934 0.0958
vt 0.9199 0.0954
vt 0.9187 0.2226
vt 0.7863 0.2343
vt 0.6455 0.096
vt 0.9349 0.3612
vt 0.6289 0.2462
vt 0.423 0.0963
vt 0.7979 0.3821
vt 0.9567 0.4736
vt 0.4095 0.2554
vt 0.6344 0.4042
vt 0.8188 0.5055
vt 0.4354 0.4249
vt 0.6537 0.5433
vt 0.4656 0.5862
vt 0.2082 0.437
vt 0.3716 0.4369
vt 0.3725 0.6394
vt 0.2094 0.6394
vt 0.0279 0.4368
vt 0.0131 0.6395
vt 0.0515 0.2762
vt 0.2068 0.2762
vt 0.0834 0.1249
vt 0.3702 0.2768
vt 0.2406 0.115
vt 0.3689 0.1129
vn 0.7582909 0.6504053 0.04436011
vn 0.7574763 0.6524848 0.02220755
vn 0.7530558 0.6568395 0.03832657
vn 0.7352899 0.6774592 0.01994301
vn 0.7280821 0.684956 0.02704848
vn 0.7109554 0.7031764 -0.009228136
vn 0.7592572 0.6490678 0.04732458
vn 0.7580088 0.6503477 0.0497047
vn 0.7604871 0.6476878 0.04647562
vn 0.761439 0.6465226 0.04710796
vn 0.1417934 0.9405345 0.30869
vn 0.1052118 0.9392878 0.3266019
vn 0.1084773 0.9555117 0.2742811
vn 0.1251442 0.9520876 0.2790483
vn 0.1548623 0.9166673 0.3684275
vn 0.104308 0.9126582 0.3951898
vn 0.1493603 0.9042138 0.4001109
vn 0.1068849 0.9047254 0.4123681
vn 0.04964763 0.9507608 0.305923
vn 0.03978707 0.9337149 0.3557997
vn 0.04326874 0.9131644 0.4052884
vn 0.04975661 0.9088505 0.4141437
vn 0 0.9473054 0.3203317
vn 0 0.932353 0.3615494
vn 0 0.9129129 0.4081544
vn 0 0.902478 0.4307359
vn 0.03990417 0.9720896 -0.2311913
vn 0.04810606 0.9781958 -0.2020367
vn 0 0.9784843 -0.2063212
vn 0.07008835 0.9722957 -0.2229992
vn 0 0.9738299 -0.2272781
vn 0.03727876 0.960099 -0.2771643
vn 0.05556608 0.9622598 -0.2663992
vn 0.08940917 0.9778876 -0.1890552
vn 0.03433061 0.954944 -0.2947941
vn 0.01836552 0.948943 -0.3149125
vn 0 0.9600865 -0.2797035
vn 0 0.9433662 -0.3317532
vn -0.7582909 0.6504053 0.04436009
vn -0.7592571 0.6490678 0.04732455
vn -0.7530992 0.6567858 0.03839191
vn -0.7580087 0.6503478 0.04970463
vn -0.7604873 0.6476875 0.04647563
vn -0.7614393 0.6465223 0.04710798
vn -0.7574651 0.652491 0.02240891
vn -0.7353579 0.6773863 0.01991547
vn -0.7281951 0.684842 0.02689615
vn -0.7109486 0.7031782 -0.009612937
vn -0.1417935 0.9405344 0.3086901
vn -0.1251442 0.9520873 0.2790497
vn -0.1084773 0.9555116 0.2742814
vn -0.1052119 0.9392879 0.3266017
vn -0.1548623 0.9166673 0.3684273
vn -0.04965515 0.9507606 0.3059226
vn -0.104308 0.9126582 0.3951897
vn -0.1493604 0.9042138 0.400111
vn -0.03979246 0.9337149 0.3557993
vn 0 0.9473054 0.3203317
vn -0.1068849 0.9047254 0.4123683
vn -0.04327504 0.9131644 0.4052875
vn 0 0.932353 0.3615494
vn -0.04975823 0.90885 0.4141447
vn 0 0.9129129 0.4081544
vn 0 0.902478 0.4307359
vn -0.03990743 0.9720895 -0.2311914
vn 0 0.9738299 -0.2272781
vn 0 0.9784843 -0.2063212
vn -0.04810895 0.9781955 -0.202037
vn -0.07008837 0.9722958 -0.2229991
vn -0.08940919 0.9778876 -0.1890551
vn -0.0555661 0.9622598 -0.2663991
vn -0.03728493 0.9600987 -0.2771647
vn -0.03433061 0.9549438 -0.2947943
vn 0 0.9600865 -0.2797035
vn -0.01836728 0.948942 -0.3149153
vn 0 0.9433662 -0.3317532
g Glass_47_0
f 3/3/3 2/2/2 1/1/1
f 3/3/3 4/4/4 2/2/2
f 3/3/3 5/5/5 4/4/4
f 5/5/5 6/6/6 4/4/4
f 7/7/7 3/3/3 1/1/1
f 1/1/1 8/8/8 7/7/7
f 7/7/7 8/8/8 9/9/9
f 7/7/7 9/9/9 10/10/10
f 13/13/13 12/12/12 11/11/11
f 14/14/14 13/13/13 11/11/11
f 11/11/11 12/12/12 15/15/15
f 12/12/12 16/16/16 15/15/15
f 15/15/15 16/16/16 17/17/17
f 16/16/16 18/18/18 17/17/17
f 13/13/13 19/19/19 12/12/12
f 19/19/19 20/20/20 12/12/12
f 12/12/12 20/20/20 16/16/16
f 20/20/20 21/21/21 16/16/16
f 16/16/16 21/21/21 18/18/18
f 21/21/21 22/22/22 18/18/18
f 19/19/19 23/23/23 20/20/20
f 23/23/23 24/24/24 20/20/20
f 20/20/20 24/24/24 21/21/21
f 24/24/24 25/25/25 21/21/21
f 21/21/21 25/25/25 22/22/22
f 25/25/25 26/26/26 22/22/22
f 29/29/29 28/28/28 27/27/27
f 30/30/30 27/27/27 28/28/28
f 31/31/31 29/29/29 27/27/27
f 31/31/31 27/27/27 32/32/32
f 33/33/33 32/32/32 27/27/27
f 30/30/30 33/33/33 27/27/27
f 34/34/34 30/30/30 28/28/28
f 33/33/33 35/35/35 32/32/32
f 35/35/35 36/36/36 32/32/32
f 37/37/37 32/32/32 36/36/36
f 37/37/37 31/31/31 32/32/32
f 38/38/38 37/37/37 36/36/36
f 41/41/41 40/40/40 39/39/39
f 39/39/39 40/40/40 42/42/42
f 42/42/42 40/40/40 43/43/43
f 43/43/43 40/40/40 44/44/44
f 45/45/45 41/41/41 39/39/39
f 46/46/46 41/41/41 45/45/45
f 47/47/47 41/41/41 46/46/46
f 48/48/48 47/47/47 46/46/46
f 51/51/51 50/50/50 49/49/49
f 52/52/52 51/51/51 49/49/49
f 52/52/52 49/49/49 53/53/53
f 54/54/54 51/51/51 52/52/52
f 55/55/55 52/52/52 53/53/53
f 55/55/55 53/53/53 56/56/56
f 57/57/57 52/52/52 55/55/55
f 57/57/57 54/54/54 52/52/52
f 58/58/58 54/54/54 57/57/57
f 59/59/59 55/55/55 56/56/56
f 60/60/60 55/55/55 59/59/59
f 60/60/60 57/57/57 55/55/55
f 61/61/61 57/57/57 60/60/60
f 61/61/61 58/58/58 57/57/57
f 62/62/62 60/60/60 59/59/59
f 63/63/63 60/60/60 62/62/62
f 63/63/63 61/61/61 60/60/60
f 64/64/64 63/63/63 62/62/62
f 67/67/67 66/66/66 65/65/65
f 68/68/68 67/67/67 65/65/65
f 65/65/65 69/69/69 68/68/68
f 69/69/69 70/70/70 68/68/68
f 71/71/71 69/69/69 65/65/65
f 65/65/65 66/66/66 72/72/72
f 72/72/72 71/71/71 65/65/65
f 73/73/73 71/71/71 72/72/72
f 66/66/66 74/74/74 72/72/72
f 72/72/72 74/74/74 75/75/75
f 75/75/75 73/73/73 72/72/72
f 74/74/74 76/76/76 75/75/75
