g ref_47
v 0.7455 0.6237007 1.869
v 0.7091 0.5045006 2.0175
v 0.6382 0.6143007 1.9304
v 0.765 0.7156007 1.6815
v 0.5722 0.6742007 1.7952
v 0.4725 0.5993007 1.9721
v 0.6496 0.7115007 1.6953
v 0.7503 0.7216007 1.6699
v 0.5749 0.5086007 2.0782
v 0.4439 0.5086007 2.1271
v 0.4025 0.5069007 2.14
v 0.4183 0.4917006 2.1464
v 0.5728 0.4873007 2.0959
v 0.6922 0.4873007 2.0378
v 0.4463 0.4873006 2.1488
v -0.7476 0.6237007 1.869
v -0.6403 0.6143007 1.9304
v -0.7112 0.5045006 2.0175
v -0.7671 0.7156007 1.6815
v -0.5743 0.6742007 1.7952
v -0.4746 0.5993007 1.9721
v -0.6517 0.7115007 1.6953
v -0.7524 0.7216007 1.6699
v -0.577 0.5086007 2.0782
v -0.4461 0.5086007 2.1271
v -0.4046 0.5069007 2.14
v -0.4204 0.4917006 2.1464
v -0.5749 0.4873007 2.0959
v -0.6943 0.4873007 2.0378
v -0.4484 0.4873006 2.1488
vt 0.9187 0.7115
vt 0.8546 0.6091
vt 0.8236 0.7234
vt 0.9804 0.8248
vt 0.8377 0.8056
vt 0.7325 0.7222
vt 0.9091 0.846
vt 0.975 0.8359
vt 0.7628 0.6192
vt 0.684 0.6296
vt 0.6455 0.6307
vt 0.6524 0.6179
vt 0.7548 0.6013
vt 0.839 0.5971
vt 0.6709 0.6112
vt 0.9187 0.7115
vt 0.8236 0.7234
vt 0.8546 0.6091
vt 0.9804 0.8248
vt 0.8377 0.8056
vt 0.7325 0.7222
vt 0.9091 0.846
vt 0.975 0.8359
vt 0.7628 0.6192
vt 0.684 0.6296
vt 0.6455 0.6307
vt 0.6524 0.6179
vt 0.7548 0.6013
vt 0.839 0.5971
vt 0.6709 0.6112
vn 0.2195027 0.8311793 0.510842
vn 0.3232007 0.6651041 0.6731848
vn 0.1577839 0.8296293 0.5355554
vn 0.04722074 0.9096686 0.4126417
vn 0.02535533 0.920956 0.3888409
vn 0.09696931 0.8470032 0.5226686
vn 0.01003713 0.9325197 0.3609797
vn 0.02053701 0.8984135 0.4386701
vn 0.2641111 0.6916324 0.6722276
vn 0.1807456 0.7660886 0.6167976
vn 0.180204 0.7174676 0.6728795
vn 0.1610665 0.626712 0.7624236
vn 0.310828 0.5970293 0.7395552
vn 0.3597823 0.5452114 0.7571666
vn 0.1668323 0.7128109 0.6812251
vn -0.2195027 0.8311793 0.510842
vn -0.1577838 0.8296293 0.5355553
vn -0.3232007 0.6651043 0.6731846
vn -0.04722073 0.9096689 0.4126413
vn -0.02535532 0.920956 0.3888407
vn -0.09696694 0.8470213 0.5226397
vn -0.01003712 0.9325199 0.3609792
vn -0.02053698 0.8984139 0.4386692
vn -0.2641738 0.6916366 0.6721985
vn -0.1807709 0.7659544 0.6169567
vn -0.1797975 0.7174836 0.6729711
vn -0.1609146 0.6263591 0.7627455
vn -0.3109506 0.5969452 0.7395715
vn -0.3597825 0.545211 0.7571669
vn -0.1666799 0.712441 0.6816491
g ref_47_0
f 3/3/3 2/2/2 1/1/1
f 1/1/1 4/4/4 3/3/3
f 4/4/4 5/5/5 3/3/3
f 3/3/3 5/5/5 6/6/6
f 7/7/7 5/5/5 4/4/4
f 8/8/8 7/7/7 4/4/4
f 9/9/9 2/2/2 3/3/3
f 3/3/3 6/6/6 9/9/9
f 6/6/6 10/10/10 9/9/9
f 6/6/6 11/11/11 10/10/10
f 12/12/12 10/10/10 11/11/11
f 13/13/13 9/9/9 10/10/10
f 14/14/14 2/2/2 9/9/9
f 13/13/13 14/14/14 9/9/9
f 15/15/15 10/10/10 12/12/12
f 15/15/15 13/13/13 10/10/10
f 18/18/18 17/17/17 16/16/16
f 19/19/19 16/16/16 17/17/17
f 20/20/20 19/19/19 17/17/17
f 20/20/20 17/17/17 21/21/21
f 20/20/20 22/22/22 19/19/19
f 22/22/22 23/23/23 19/19/19
f 18/18/18 24/24/24 17/17/17
f 21/21/21 17/17/17 24/24/24
f 25/25/25 21/21/21 24/24/24
f 26/26/26 21/21/21 25/25/25
f 25/25/25 27/27/27 26/26/26
f 24/24/24 28/28/28 25/25/25
f 18/18/18 29/29/29 24/24/24
f 29/29/29 28/28/28 24/24/24
f 25/25/25 30/30/30 27/27/27
f 28/28/28 30/30/30 25/25/25
