g model_car_51_matte_detail_LOD1
v 0.7899625 0.8257019 -0.4453855
v 0.7525973 0.8924496 -0.429985
v 0.8665023 0.8922405 -0.4291219
v 0.9043377 0.8267856 -0.4446578
v 0.9371222 0.7547143 -0.4428697
v 0.8276451 0.7542247 -0.4430806
v 0.9629651 0.6808974 -0.4247328
v 0.8583376 0.6814799 -0.4247657
v 0.8776782 0.60805 -0.390942
v 0.9790409 0.6070399 -0.3907195
v 0.8854674 0.5335906 -0.3422074
v 0.9821354 0.53295 -0.3419501
v 0.9734036 0.4588506 -0.2833865
v 0.8855274 0.4591486 -0.2836303
v 0.8835999 0.3860593 -0.2224872
v 0.9541153 0.3860593 -0.2224872
v 0.8250635 0.9472839 -0.3971889
v 0.7206333 0.9513169 -0.3976011
v 0.6939796 1.002978 -0.354318
v 0.7815172 0.9934582 -0.3539716
v 0.7372336 1.030823 -0.3033251
v 0.6724348 1.047085 -0.3033251
v -0.7899624 0.8257019 -0.4453855
v -0.9043376 0.8267856 -0.4446578
v -0.8665021 0.8922405 -0.4291219
v -0.7525972 0.8924496 -0.429985
v -0.937122 0.7547143 -0.4428697
v -0.8276449 0.7542247 -0.4430806
v -0.962965 0.6808974 -0.4247328
v -0.8583375 0.6814799 -0.4247657
v -0.877678 0.60805 -0.390942
v -0.9790408 0.6070399 -0.3907195
v -0.8854672 0.5335906 -0.3422074
v -0.9821352 0.53295 -0.3419501
v -0.9734035 0.4588506 -0.2833865
v -0.8855272 0.4591486 -0.2836303
v -0.8835998 0.3860593 -0.2224872
v -0.9541152 0.3860593 -0.2224872
v -0.8250633 0.9472839 -0.3971889
v -0.7206351 0.9513169 -0.3976011
v -0.6939794 1.002978 -0.354318
v -0.7815171 0.9934582 -0.3539716
v -0.7372335 1.030823 -0.3033251
v -0.6724367 1.047085 -0.3033251
vt 1.11662 0.6441672
vt 1.100666 0.7372436
vt 1.23109 0.6926145
vt 1.248051 0.6007661
vt 1.257481 0.5053872
vt 1.131883 0.5475411
vt 1.257481 0.4082239
vt 1.137831 0.4496392
vt 1.128468 0.3494827
vt 1.244194 0.3088062
vt 1.102651 0.2445008
vt 1.213111 0.2059924
vt 1.166228 0.1012214
vt 1.065726 0.1359884
vt 1.026296 0.0275911
vt 1.107064 4.807936E-05
vt 1.208775 0.7817575
vt 1.090564 0.8267128
vt 1.086908 0.9143401
vt 1.184455 0.8714474
vt 1.160788 0.9615115
vt 1.089662 0.9999528
vt 1.11662 0.6441672
vt 1.248051 0.6007661
vt 1.23109 0.6926145
vt 1.100666 0.7372436
vt 1.257481 0.5053872
vt 1.131883 0.5475411
vt 1.257481 0.4082239
vt 1.137831 0.4496392
vt 1.128468 0.3494827
vt 1.244194 0.3088062
vt 1.102651 0.2445008
vt 1.213111 0.2059924
vt 1.166228 0.1012214
vt 1.065726 0.1359884
vt 1.026296 0.0275911
vt 1.107064 4.807936E-05
vt 1.208775 0.7817575
vt 1.090564 0.8267128
vt 1.086908 0.9143401
vt 1.184455 0.8714474
vt 1.160788 0.9615115
vt 1.089662 0.9999528
vn -0.005295277 -0.1427614 0.989743
vn -0.01241338 -0.4089787 0.9124595
vn -0.008142531 -0.3207141 0.9471411
vn -0.005295277 -0.06446218 0.9979061
vn -0.002448022 0.1604701 0.9870377
vn -0.002448022 0.1049488 0.9944746
vn 0.0003992319 0.3469645 0.9378781
vn 0.0003992319 0.3142212 0.9493497
vn 0.001822829 0.4779378 0.8783918
vn 0.001822829 0.4907504 0.8712983
vn 0.001822829 0.5832857 0.812265
vn 0.001822829 0.5847093 0.8112408
vn 0.0003992319 0.6288417 0.7775332
vn 0.0003992319 0.6302653 0.7763797
vn 0.0003992319 0.6416543 0.7669939
vn 0.0003992319 0.6416543 0.7669939
vn -0.025226 -0.5570353 0.8301056
vn -0.03803861 -0.6196747 0.7839364
vn -0.1077961 -0.7705786 0.6281629
vn -0.0764764 -0.7235991 0.6859706
vn -0.1391158 -0.8147109 0.5629324
vn -0.1391158 -0.8147109 0.5629324
vn 0.004670084 -0.1427614 0.9897462
vn 0.004670084 -0.06446218 0.9979092
vn 0.008940935 -0.3207141 0.9471338
vn 0.01178819 -0.4089787 0.9124678
vn 0.001822829 0.1604701 0.987039
vn 0.003246427 0.1049488 0.9944723
vn -0.001024425 0.3469645 0.9378777
vn 0.0003992319 0.3142212 0.9493497
vn -0.002448022 0.4779378 0.8783903
vn -0.002448022 0.4907504 0.8712968
vn -0.002448022 0.5832857 0.8122633
vn -0.002448022 0.5847093 0.8112391
vn -0.001024425 0.6288417 0.7775326
vn -0.001024425 0.6302653 0.7763792
vn 0.0003992319 0.6416543 0.7669939
vn 0.0003992319 0.6416543 0.7669939
vn 0.0260244 -0.5570353 0.8300809
vn 0.03883702 -0.6196747 0.7838973
vn 0.1071708 -0.7705786 0.6282699
vn 0.0772748 -0.7235991 0.6858811
vn 0.1384905 -0.8147109 0.5630866
vn 0.1384905 -0.8147109 0.5630866
g model_car_51_matte_detail_LOD1_0
f 3/3/3 2/2/2 1/1/1
f 4/4/4 3/3/3 1/1/1
f 5/5/5 4/4/4 1/1/1
f 6/6/6 5/5/5 1/1/1
f 5/5/5 6/6/6 7/7/7
f 6/6/6 8/8/8 7/7/7
f 8/8/8 9/9/9 7/7/7
f 9/9/9 10/10/10 7/7/7
f 10/10/10 9/9/9 11/11/11
f 12/12/12 10/10/10 11/11/11
f 13/13/13 12/12/12 11/11/11
f 14/14/14 13/13/13 11/11/11
f 13/13/13 14/14/14 15/15/15
f 16/16/16 13/13/13 15/15/15
f 2/2/2 3/3/3 17/17/17
f 18/18/18 2/2/2 17/17/17
f 19/19/19 18/18/18 17/17/17
f 20/20/20 19/19/19 17/17/17
f 19/19/19 20/20/20 21/21/21
f 22/22/22 19/19/19 21/21/21
f 25/25/25 24/24/24 23/23/23
f 26/26/26 25/25/25 23/23/23
f 24/24/24 27/27/27 23/23/23
f 27/27/27 28/28/28 23/23/23
f 28/28/28 27/27/27 29/29/29
f 30/30/30 28/28/28 29/29/29
f 31/31/31 30/30/30 29/29/29
f 32/32/32 31/31/31 29/29/29
f 31/31/31 32/32/32 33/33/33
f 32/32/32 34/34/34 33/33/33
f 34/34/34 35/35/35 33/33/33
f 35/35/35 36/36/36 33/33/33
f 36/36/36 35/35/35 37/37/37
f 35/35/35 38/38/38 37/37/37
f 25/25/25 26/26/26 39/39/39
f 26/26/26 40/40/40 39/39/39
f 40/40/40 41/41/41 39/39/39
f 41/41/41 42/42/42 39/39/39
f 42/42/42 41/41/41 43/43/43
f 41/41/41 44/44/44 43/43/43
