g model_car_51_matte_mirror_LOD1
v 1.054528 0.8733225 1.001573
v 0.9895191 0.9072562 1.047935
v 0.9985172 0.874943 1.04046
v 0.9903783 0.9510556 1.043588
v 1.02696 0.9480251 1.018223
v 1.068124 0.9389015 0.9902741
v 1.09629 0.9290613 0.9711698
v 1.097194 0.8755471 0.9720567
v 1.115003 0.8979412 0.9592837
v 1.108138 0.9206671 0.9616657
v 1.108697 0.8792602 0.9635478
v 0.9757679 0.9427763 1.055011
v 0.984985 0.9017247 1.049824
v 0.9740155 0.931775 1.055921
v -1.054528 0.8733225 1.001573
v -0.9985172 0.874943 1.04046
v -0.989519 0.9072562 1.047935
v -0.9903783 0.9510556 1.043588
v -1.02696 0.9480251 1.018223
v -1.068124 0.9389015 0.9902741
v -1.09629 0.9290613 0.9711698
v -1.097194 0.8755471 0.9720567
v -1.115003 0.8979412 0.9592837
v -1.10814 0.9206671 0.9616657
v -1.108697 0.8792602 0.9635478
v -0.9757677 0.9427763 1.055011
v -0.984985 0.9017247 1.049824
v -0.9740154 0.931775 1.055921
vn -0.5715999 -0.02281719 -0.8202152
vn -0.5236253 -0.004095376 -0.8519388
vn -0.5598988 0.03568846 -0.827792
vn -0.5926619 -0.05675042 -0.8034496
vn -0.5692597 -0.02749765 -0.8216978
vn -0.5669195 -0.02398729 -0.8234239
vn -0.5751103 -0.03100795 -0.8174881
vn -0.5786206 -0.0216471 -0.8153095
vn -0.5891516 -0.0345183 -0.807285
vn -0.5868114 -0.04387921 -0.8085338
vn -0.5985125 0.01930684 -0.8008808
vn -0.5587286 -0.04504931 -0.8281261
vn -0.4534186 0.05324012 -0.8897062
vn -0.4393772 0.01462638 -0.8981836
vn 0.5715999 -0.02281719 -0.8202152
vn 0.5598987 0.03568846 -0.8277921
vn 0.5236253 -0.004095376 -0.8519389
vn 0.5926619 -0.05675042 -0.8034496
vn 0.5692596 -0.02749765 -0.8216978
vn 0.5669194 -0.02398729 -0.8234239
vn 0.5751102 -0.03100795 -0.8174881
vn 0.5786206 -0.0216471 -0.8153095
vn 0.5891516 -0.0345183 -0.807285
vn 0.5868114 -0.04387921 -0.8085338
vn 0.5985125 0.01930684 -0.8008808
vn 0.5587286 -0.04504931 -0.8281261
vn 0.4534186 0.05324012 -0.8897062
vn 0.4393772 0.01462638 -0.8981836
g model_car_51_matte_mirror_LOD1_0
f 3/3/3 2/2/2 1/1/1
f 1/1/1 2/2/2 4/4/4
f 5/5/5 1/1/1 4/4/4
f 6/6/6 1/1/1 5/5/5
f 6/6/6 7/7/7 1/1/1
f 7/7/7 8/8/8 1/1/1
f 8/8/8 7/7/7 9/9/9
f 7/7/7 10/10/10 9/9/9
f 8/8/8 9/9/9 11/11/11
f 2/2/2 12/12/12 4/4/4
f 12/12/12 2/2/2 13/13/13
f 13/13/13 2/2/2 3/3/3
f 14/14/14 12/12/12 13/13/13
f 17/17/17 16/16/16 15/15/15
f 17/17/17 15/15/15 18/18/18
f 15/15/15 19/19/19 18/18/18
f 15/15/15 20/20/20 19/19/19
f 21/21/21 20/20/20 15/15/15
f 22/22/22 21/21/21 15/15/15
f 21/21/21 22/22/22 23/23/23
f 24/24/24 21/21/21 23/23/23
f 23/23/23 22/22/22 25/25/25
f 26/26/26 17/17/17 18/18/18
f 17/17/17 26/26/26 27/27/27
f 17/17/17 27/27/27 16/16/16
f 26/26/26 28/28/28 27/27/27
