g model_car_44_matte_mirror_LOD1
v 1.069079 0.869855 0.5811793
v 1.076942 0.829197 0.5777861
v 1.079535 0.8437067 0.5770699
v 1.074726 0.8643484 0.5778129
v 1.076744 0.8653288 0.5769956
v 1.082108 0.8436819 0.5760441
v 1.075211 0.8657002 0.5766158
v 1.081116 0.843684 0.5740379
v 1.066003 0.8726228 0.5805125
v 1.06952 0.8723958 0.5802814
v 1.003391 0.8735598 0.6092347
v 1.003199 0.8735702 0.6070757
v 0.9743719 0.8695701 0.6190839
v 0.9742253 0.8695248 0.6214306
v 1.003688 0.8707054 0.6099529
v 0.9747805 0.8669056 0.6219548
v 0.9678766 0.8622266 0.6213604
v 0.9675608 0.8623443 0.6233748
v 0.9645288 0.8340763 0.6212407
v 0.9641511 0.8339792 0.6232531
v 0.9697155 0.8605899 0.6237504
v 0.9662625 0.8344973 0.623637
v 0.9778785 0.8176327 0.6215069
v 1.006283 0.8164666 0.6095237
v -1.069079 0.869855 0.5811793
v -1.074726 0.8643484 0.5778129
v -1.079535 0.8437067 0.5770699
v -1.076942 0.829197 0.5777861
v -1.076744 0.8653288 0.5769956
v -1.082108 0.8436819 0.5760441
v -1.075211 0.8657002 0.5766158
v -1.081116 0.843684 0.5740379
v -1.066004 0.8726228 0.5805125
v -1.069523 0.8723958 0.5802814
v -1.003391 0.8735598 0.6092347
v -1.003199 0.8735702 0.6070757
v -0.9743719 0.8695701 0.6190839
v -0.9742253 0.8695248 0.6214306
v -1.003688 0.8707054 0.6099529
v -0.9747806 0.8669056 0.6219548
v -0.9678767 0.8622266 0.6213604
v -0.9675608 0.8623443 0.6233748
v -0.9645288 0.8340763 0.6212407
v -0.9641511 0.8339792 0.6232531
v -0.9697156 0.8605899 0.6237504
v -0.9662626 0.8344973 0.623637
v -0.9778786 0.8176327 0.6215069
v -1.006283 0.8164666 0.6095237
vn -0.4373034 -0.1000664 -0.8937295
vn -0.4083086 -0.01114917 -0.9127759
vn -0.3986436 -0.03627795 -0.9163882
vn -0.4334373 -0.04594284 -0.9000118
vn -0.9244156 -0.3706843 -0.08971603
vn -0.9572763 -0.2643702 -0.1171767
vn -0.2903966 -0.4654006 0.8361053
vn -0.6866584 -0.2334424 0.6884801
vn -0.05070639 -0.9911726 0.1224983
vn -0.5416845 -0.8384667 -0.05959432
vn -0.1860154 -0.797874 -0.5734068
vn 0.03047901 -0.9989045 -0.03550883
vn 0.3976646 -0.9175309 0
vn 0.2469733 -0.7746782 -0.5821321
vn -0.3831798 -0.1387262 -0.9131967
vn -0.23434 -0.15419 -0.9598491
vn 0.8964562 -0.4228749 0.1324499
vn 0.7128227 -0.3880812 -0.584189
vn 0.9776416 -0.1174633 0.174411
vn 0.8674615 -0.1019995 -0.486936
vn -0.04684043 -0.05947375 -0.9971303
vn -0.04877341 -0.003417194 -0.998804
vn -0.3464531 -0.007283151 -0.938039
vn -0.3947777 -0.01114917 -0.918709
vn 0.4383388 -0.1000664 -0.8932222
vn 0.4325399 -0.04594284 -0.9004435
vn 0.3977461 -0.03627795 -0.916778
vn 0.4093441 -0.01114917 -0.912312
vn 0.9235181 -0.3706843 -0.09852678
vn 0.9563788 -0.2643702 -0.1242898
vn 0.291432 -0.4654006 0.835745
vn 0.6857609 -0.2334424 0.6893741
vn 0.05174184 -0.9911726 0.1220647
vn 0.54272 -0.8384667 -0.04928013
vn 0.1870508 -0.797874 -0.5730698
vn -0.03137648 -0.9989045 -0.03471865
vn -0.3967106 -0.9177191 0.02030481
vn -0.2478708 -0.7746782 -0.5817505
vn 0.3842152 -0.1387262 -0.9127616
vn 0.2353754 -0.15419 -0.9595957
vn -0.8954208 -0.4228749 0.1392782
vn -0.7137202 -0.3880812 -0.5830922
vn -0.9785391 -0.1174633 0.1693033
vn -0.868359 -0.1019995 -0.4853337
vn 0.04594284 -0.05947375 -0.9971721
vn 0.04787588 -0.003417194 -0.9988474
vn 0.3474885 -0.007283151 -0.9376559
vn 0.3958132 -0.01114917 -0.9182634
g model_car_44_matte_mirror_LOD1_0
f 3/3/3 2/2/2 1/1/1
f 4/4/4 3/3/3 1/1/1
f 4/4/4 5/5/5 3/3/3
f 5/5/5 6/6/6 3/3/3
f 5/5/5 7/7/7 6/6/6
f 7/7/7 8/8/8 6/6/6
f 9/9/9 7/7/7 5/5/5
f 10/10/10 9/9/9 5/5/5
f 10/10/10 5/5/5 4/4/4
f 1/1/1 10/10/10 4/4/4
f 9/9/9 10/10/10 11/11/11
f 12/12/12 9/9/9 11/11/11
f 13/13/13 12/12/12 11/11/11
f 14/14/14 13/13/13 11/11/11
f 14/14/14 11/11/11 15/15/15
f 10/10/10 1/1/1 15/15/15
f 11/11/11 10/10/10 15/15/15
f 16/16/16 14/14/14 15/15/15
f 17/17/17 13/13/13 14/14/14
f 18/18/18 17/17/17 14/14/14
f 18/18/18 14/14/14 16/16/16
f 19/19/19 17/17/17 18/18/18
f 20/20/20 19/19/19 18/18/18
f 21/21/21 18/18/18 16/16/16
f 20/20/20 18/18/18 21/21/21
f 21/21/21 16/16/16 22/22/22
f 22/22/22 20/20/20 21/21/21
f 16/16/16 23/23/23 22/22/22
f 16/16/16 15/15/15 24/24/24
f 23/23/23 16/16/16 24/24/24
f 15/15/15 1/1/1 24/24/24
f 1/1/1 2/2/2 24/24/24
f 27/27/27 26/26/26 25/25/25
f 28/28/28 27/27/27 25/25/25
f 29/29/29 26/26/26 27/27/27
f 30/30/30 29/29/29 27/27/27
f 31/31/31 29/29/29 30/30/30
f 32/32/32 31/31/31 30/30/30
f 31/31/31 33/33/33 29/29/29
f 33/33/33 34/34/34 29/29/29
f 34/34/34 25/25/25 26/26/26
f 29/29/29 34/34/34 26/26/26
f 34/34/34 33/33/33 35/35/35
f 33/33/33 36/36/36 35/35/35
f 36/36/36 37/37/37 35/35/35
f 37/37/37 38/38/38 35/35/35
f 35/35/35 38/38/38 39/39/39
f 34/34/34 35/35/35 39/39/39
f 25/25/25 34/34/34 39/39/39
f 38/38/38 40/40/40 39/39/39
f 37/37/37 41/41/41 38/38/38
f 41/41/41 42/42/42 38/38/38
f 38/38/38 42/42/42 40/40/40
f 41/41/41 43/43/43 42/42/42
f 43/43/43 44/44/44 42/42/42
f 42/42/42 45/45/45 40/40/40
f 42/42/42 44/44/44 45/45/45
f 40/40/40 45/45/45 46/46/46
f 44/44/44 46/46/46 45/45/45
f 47/47/47 40/40/40 46/46/46
f 40/40/40 47/47/47 48/48/48
f 39/39/39 40/40/40 48/48/48
f 25/25/25 39/39/39 48/48/48
f 28/28/28 25/25/25 48/48/48
