g model_car_127_glass_LOD0
v -0.2125841 1.10006 -0.7501126
v -0.2122234 0.9185734 -0.8364612
v -0.1005046 0.9180582 -0.8235986
v -0.1062919 1.108658 -0.7366318
v -0.3188732 1.083302 -0.7761812
v -0.3008302 0.9195437 -0.8544985
v -0.3963262 1.061089 -0.8069122
v -0.3965324 0.9212582 -0.8739555
v 1.788139E-07 0.9155539 -0.8185183
v 1.788139E-07 1.112597 -0.728469
v -0.4231647 1.053393 -0.8175594
v -0.4523273 0.9342151 -0.8855157
v 0.1062922 1.108658 -0.7366318
v 0.1005049 0.9180582 -0.8235986
v 0.2125844 1.10006 -0.7501126
v 0.2122237 0.9185734 -0.8364612
v 0.3188736 1.083302 -0.7761812
v 0.3008305 0.9195437 -0.8544985
v 0.3963265 1.061089 -0.8069122
v 0.3965326 0.9212582 -0.8739555
v 0.4231622 1.053393 -0.8175594
v 0.4523276 0.9342151 -0.8855157
v -0.1946812 0.8610497 1.063313
v -0.1768213 0.9435257 0.8240104
v 1.788139E-07 0.9443844 0.828942
v 1.788139E-07 0.8631591 1.067792
v 1.788139E-07 1.008076 0.664339
v -0.1635152 1.007784 0.6598998
v 1.788139E-07 1.082043 0.4881644
v -0.1494276 1.080429 0.4848242
v -0.3571261 0.9383338 0.8055437
v -0.3272908 1.001038 0.6463017
v -0.5228853 0.9311555 0.7689912
v -0.4883791 0.9911893 0.6285363
v -0.676446 0.9275492 0.6911461
v -0.6360695 0.9815152 0.5690348
v -0.4472241 1.061453 0.4614833
v -0.5938154 1.035084 0.4475275
v -0.2984489 1.07299 0.4745176
v -0.7233368 0.8686859 0.8094936
v -0.5655228 0.8604372 0.9500057
v -0.4046523 0.8607864 1.023206
v -0.5510232 1.085649 0.3003321
v -0.4139715 1.110942 0.3217927
v -0.2759809 1.123086 0.3326545
v -0.1379904 1.128587 0.3397699
v 1.788139E-07 1.130162 0.3418908
v -0.4275438 0.7722053 1.306116
v -0.3692617 0.770551 1.32664
v -0.1948071 0.7672109 1.366902
v -0.2780932 0.7690112 1.351072
v -0.6216127 0.7737136 1.200176
v -0.5199974 0.7746782 1.263378
v -0.4454638 0.7726318 1.298419
v -0.06906092 0.7654392 1.380461
v 1.788139E-07 0.7653247 1.386294
v -0.1326925 0.7661576 1.375151
v 0.1494279 1.080429 0.4848242
v 0.1635154 1.007784 0.6598998
v 0.1768188 0.9435257 0.8240104
v 0.1946787 0.8610497 1.063313
v 0.3571264 0.9383338 0.8055437
v 0.3272912 1.001038 0.6463017
v 0.5228856 0.9311555 0.7689912
v 0.4883794 0.9911893 0.6285363
v 0.6764463 0.9275492 0.6911461
v 0.6360698 0.9815152 0.5690348
v 0.4472243 1.061453 0.4614833
v 0.5938157 1.035084 0.4475275
v 0.2984492 1.07299 0.4745176
v 0.7233371 0.8686859 0.8094936
v 0.5655203 0.8604372 0.9500057
v 0.621613 0.7737136 1.200176
v 0.693333 0.7721252 1.133696
v 0.7593316 0.778482 1.036494
v 0.7258014 0.7754167 1.092473
v 0.7831906 0.7836741 0.9708908
v 0.4046526 0.8607864 1.023206
v 0.5510235 1.085649 0.3003321
v 0.4139718 1.110942 0.3217927
v 0.2759812 1.123086 0.3326545
v 0.1379907 1.128587 0.3397699
v 0.4275441 0.7722053 1.306116
v 0.3692619 0.770551 1.32664
v 0.1948075 0.7672109 1.366902
v 0.2780935 0.7690112 1.351072
v 0.5199949 0.7746782 1.263378
v 0.4454641 0.7726318 1.298419
v 0.06905842 0.7654392 1.380461
v 0.1326928 0.7661576 1.375151
v -0.7593313 0.778482 1.036494
v -0.7831903 0.7836741 0.9708908
v -0.6933327 0.7721252 1.133696
v -0.7258011 0.7754167 1.092473
v -0.5520392 1.065351 -0.3013486
v -0.7097501 0.8540803 -0.3412127
v -0.7026863 0.8595671 -0.3792909
v -0.5572885 1.05104 -0.407343
v -0.7296879 0.8383241 -0.2160161
v -0.547829 1.076465 -0.1703102
v -0.5526947 1.079816 -0.02579683
v -0.7479113 0.8225221 -0.07663453
v -0.5702626 1.062125 0.1263443
v -0.7644231 0.8071867 0.06337667
v -0.6011167 1.028051 0.2702079
v -0.776221 0.7961187 0.1988571
v -0.7865619 0.7859637 0.3324686
v -0.7831474 0.7892924 0.2887948
v -0.6441723 0.9793829 0.4130756
v -0.790755 0.7826923 0.4269771
v -0.6845974 0.9289344 0.535974
v -0.7957724 0.7798645 0.5726811
v -0.732802 0.864324 0.6731803
v -0.7964106 0.7764499 0.7094553
v -0.6940768 0.8660012 -0.4287405
v -0.6567371 0.8897228 -0.6097064
v -0.5599589 1.028108 -0.5550048
v -0.5612525 1.045393 -0.4608082
v -0.5500415 0.9989601 -0.6591331
v -0.6128746 0.9047005 -0.711628
v -0.536764 0.964285 -0.7652935
v -0.5566502 0.9150644 -0.7927788
v -0.5056465 0.9225547 -0.84639
v -0.4514601 0.4915933 2.115675
v -0.5450613 0.4993183 2.047307
v -0.5293052 0.513048 2.045627
v -0.6250158 0.5028215 1.990396
v -0.6015404 0.5433297 1.98156
v -0.509562 0.5231314 2.039365
v -0.5664989 0.5648302 1.957635
v -0.6643705 0.5633877 1.919738
v -0.6873909 0.5084428 1.932282
v -0.7373356 0.5134888 1.879332
v -0.7296364 0.5889784 1.844603
v -0.6184815 0.6025993 1.883402
v -0.6625244 0.6329382 1.822175
v -0.7820683 0.6098091 1.775087
v -0.7064443 0.6567686 1.7666
v -0.8180085 0.6299788 1.722369
v -0.7545829 0.6786842 1.711269
v -0.8304761 0.536764 1.758535
v -0.7906148 0.5236266 1.814828
v -0.8616078 0.5576949 1.708848
v -0.8632764 0.5852374 1.687361
v -0.861605 0.6117926 1.669794
v -0.8583707 0.6335508 1.657904
v -0.8534849 0.6524296 1.648717
v -0.8456998 0.6689329 1.643808
v -0.8161195 0.6916583 1.653439
v -0.8335186 0.6830834 1.645345
v -0.7970632 0.6925284 1.667799
v 0.5520396 1.065351 -0.3013486
v 0.5572888 1.05104 -0.407343
v 0.7026866 0.8595671 -0.3792909
v 0.7097504 0.8540803 -0.3412127
v 0.7296882 0.8383241 -0.2160161
v 0.5478265 1.076465 -0.1703102
v 0.5526922 1.079816 -0.02579683
v 0.7479116 0.8225221 -0.07663453
v 0.570263 1.062125 0.1263443
v 0.7644234 0.8071867 0.06337667
v 0.6011171 1.028051 0.2702079
v 0.7762213 0.7961187 0.1988571
v 0.7865622 0.7859637 0.3324686
v 0.7831477 0.7892924 0.2887948
v 0.6441697 0.9793829 0.4130756
v 0.7907553 0.7826923 0.4269771
v 0.6845977 0.9289344 0.535974
v 0.7957727 0.7798645 0.5726811
v 0.7327994 0.864324 0.6731803
v 0.7964109 0.7764499 0.7094553
v 0.6940743 0.8660012 -0.4287405
v 0.5612528 1.045393 -0.4608082
v 0.5599592 1.028108 -0.5550048
v 0.6567374 0.8897228 -0.6097064
v 0.5500418 0.9989601 -0.6591331
v 0.6128749 0.9047005 -0.711628
v 0.5367643 0.964285 -0.7652935
v 0.5566505 0.9150644 -0.7927788
v 0.5056468 0.9225547 -0.84639
v 0.4514604 0.4915933 2.115675
v 0.5293055 0.513048 2.045627
v 0.5450616 0.4993183 2.047307
v 0.6250161 0.5028215 1.990396
v 0.6015407 0.5433297 1.98156
v 0.5095594 0.5231314 2.039365
v 0.5664992 0.5648302 1.957635
v 0.6643708 0.5633877 1.919738
v 0.6873912 0.5084428 1.932282
v 0.7373331 0.5134888 1.879332
v 0.7296367 0.5889784 1.844603
v 0.6184818 0.6025993 1.883402
v 0.6625248 0.6329382 1.822175
v 0.7820686 0.6098091 1.775087
v 0.7064446 0.6567686 1.7666
v 0.8180088 0.6299788 1.722369
v 0.7545804 0.6786842 1.711269
v 0.8304764 0.536764 1.758535
v 0.7906151 0.5236266 1.814828
v 0.8616081 0.5576949 1.708848
v 0.8632768 0.5852374 1.687361
v 0.8616052 0.6117926 1.669794
v 0.858371 0.6335508 1.657904
v 0.8534853 0.6524296 1.648717
v 0.8457002 0.6689329 1.643808
v 0.8161198 0.6916583 1.653439
v 0.8335189 0.6830834 1.645345
v 0.7970635 0.6925284 1.667799
vn 0.1246354 0.4258245 -0.8961806
vn 0.1315162 0.4275447 -0.8943763
vn 0.07475001 0.4189437 -0.9049301
vn 0.07302982 0.4189437 -0.9050706
vn 0.1814016 0.4327051 -0.8830967
vn 0.184842 0.4327051 -0.882383
vn 0.2244062 0.4292648 -0.8748563
vn 0.231287 0.4275447 -0.8739061
vn 0.0007819533 0.4155033 -0.9095913
vn 0.0007819533 0.4155033 -0.9095913
vn 0.2605302 0.4223841 -0.868168
vn 0.2605302 0.4223841 -0.868168
vn -0.0731861 0.4189437 -0.905058
vn -0.07490629 0.4189437 -0.9049172
vn -0.1247917 0.4258245 -0.8961588
vn -0.1316724 0.4275447 -0.8943533
vn -0.1815578 0.4327051 -0.8830646
vn -0.1849982 0.4327051 -0.8823503
vn -0.2245626 0.4292648 -0.8748162
vn -0.2314432 0.4275447 -0.8738647
vn -0.2606865 0.4223841 -0.8681211
vn -0.2606865 0.4223841 -0.8681211
vn -0.03878236 0.9504815 0.3083519
vn -0.03878236 0.9384401 0.343258
vn 0.0007819533 0.9401603 0.3407315
vn 0.0007819533 0.9504815 0.3107803
vn 0.0007819533 0.928119 0.3722828
vn -0.04050255 0.928119 0.3700739
vn 0.0007819533 0.93672 0.3500788
vn -0.04050255 0.93672 0.3477288
vn -0.09038794 0.93672 0.3382096
vn -0.08522737 0.928119 0.3623967
vn -0.164356 0.9263988 0.3387807
vn -0.1505945 0.9246786 0.349701
vn -0.2073607 0.9177979 0.338598
vn -0.1970395 0.9195181 0.3400911
vn -0.1523147 0.9332796 0.325253
vn -0.2004799 0.928119 0.3136924
vn -0.08522737 0.9349998 0.3442553
vn -0.2503653 0.9160777 0.3132394
vn -0.183278 0.9349998 0.3036192
vn -0.1007091 0.9470411 0.3049112
vn -0.2056405 0.9401603 0.2716809
vn -0.1505945 0.9436007 0.2948543
vn -0.08178699 0.9453209 0.3157202
vn -0.03878236 0.9487613 0.3136048
vn 0.0007819533 0.9504815 0.3107803
vn -0.08006686 0.9539219 0.2891754
vn -0.0559842 0.955642 0.2891609
vn -0.0319016 0.955642 0.2927979
vn -0.04910344 0.955642 0.2904086
vn -0.1798377 0.9418805 0.2837596
vn -0.1282321 0.9504815 0.2830927
vn -0.1075898 0.9504815 0.2915637
vn -0.01814008 0.955642 0.2939715
vn 0.0007819533 0.955642 0.2945296
vn -0.01814008 0.955642 0.2939715
vn 0.04034626 0.93672 0.3477469
vn 0.04034626 0.928119 0.3700909
vn 0.03862607 0.9384401 0.3432756
vn 0.03862607 0.9504815 0.3083715
vn 0.09023166 0.93672 0.3382514
vn 0.08507115 0.928119 0.3624335
vn 0.1641997 0.9263988 0.3388565
vn 0.1504382 0.9246786 0.3497682
vn 0.2072044 0.9177979 0.3386937
vn 0.1968833 0.9195181 0.3401816
vn 0.1521584 0.9332796 0.3253261
vn 0.2003236 0.928119 0.3137922
vn 0.08507115 0.9349998 0.344294
vn 0.2502091 0.9160777 0.3133642
vn 0.1831218 0.9349998 0.3037135
vn 0.1796814 0.9418805 0.2838586
vn 0.2536494 0.9229584 0.289499
vn 0.3757827 0.881674 0.285374
vn 0.3430992 0.8937153 0.2890603
vn 0.5047967 0.826628 0.2487295
vn 0.1005528 0.9470411 0.3049628
vn 0.2054842 0.9401603 0.2717991
vn 0.1504382 0.9436007 0.294934
vn 0.08163077 0.9453209 0.3157607
vn 0.03862607 0.9487613 0.3136241
vn 0.07991058 0.9539219 0.2892187
vn 0.05582792 0.955642 0.2891912
vn 0.03174531 0.955642 0.2928149
vn 0.04894722 0.955642 0.290435
vn 0.1280758 0.9504815 0.2831635
vn 0.1074336 0.9504815 0.2916214
vn 0.01798385 0.955642 0.2939811
vn 0.01798385 0.955642 0.2939811
vn -0.375939 0.881674 0.2851681
vn -0.5032328 0.826628 0.2518787
vn -0.2538057 0.9229584 0.289362
vn -0.3432555 0.8937153 0.2888747
vn -0.7956646 0.6047239 -0.03502716
vn -0.7956646 0.6047239 -0.03502716
vn -0.7973848 0.6012835 -0.05133837
vn -0.7973848 0.6012835 -0.05133837
vn -0.7922242 0.6081643 -0.05017016
vn -0.7922242 0.6081643 -0.05017016
vn -0.7922242 0.6098844 -0.02053686
vn -0.7922242 0.6098844 -0.02053686
vn -0.7938605 0.6080999 0
vn -0.7938605 0.6080999 0
vn -0.7956646 0.6047239 -0.03502716
vn -0.7939444 0.6064441 -0.04333445
vn -0.7973848 0.6030037 -0.0237495
vn -0.7956646 0.6047239 -0.03502716
vn -0.8005063 0.5993245 0
vn -0.8008252 0.5978431 -0.03553399
vn -0.8025454 0.5961229 -0.02362999
vn -0.8042022 0.5943559 0
vn -0.8042022 0.5943559 0
vn -0.8042022 0.5943559 0
vn -0.8025454 0.587522 -0.1036284
vn -0.7767425 0.6064441 -0.1699902
vn -0.7853435 0.6012835 -0.1472881
vn -0.8025454 0.587522 -0.1036284
vn -0.7388985 0.6167652 -0.2713481
vn -0.7320177 0.615045 -0.2930353
vn -0.6993341 0.5944027 -0.3970104
vn -0.6804121 0.5823614 -0.4448535
vn -0.6391276 0.5548385 -0.532607
vn -0.3398151 0.7251369 0.5989175
vn -0.4653887 0.5204347 0.7159337
vn -0.3380949 0.6941736 0.6354643
vn -0.532476 0.458508 0.7115053
vn -0.3707784 0.6632102 0.650135
vn -0.2108011 0.8163069 0.5377787
vn -0.1953194 0.8180271 0.541001
vn -0.4516272 0.6270863 0.6346618
vn -0.6064441 0.4120629 0.6800219
vn -0.6580496 0.3793793 0.6504168
vn -0.5238751 0.587522 0.6167438
vn -0.2589663 0.7973848 0.5450816
vn -0.3243334 0.7698618 0.5496551
vn -0.5703201 0.5479577 0.6119456
vn -0.3776591 0.7337379 0.5648029
vn -0.6184854 0.5221549 0.5872223
vn -0.4120629 0.6907333 0.5942152
vn -0.7216966 0.3449757 0.6001216
vn -0.7010543 0.3552968 0.6182936
vn -0.744059 0.3415353 0.574221
vn -0.7561004 0.3604574 0.5462442
vn -0.7715819 0.3862601 0.5054349
vn -0.7509398 0.4327051 0.4988544
vn -0.7371783 0.4602281 0.4947305
vn -0.6683708 0.5359164 0.5158237
vn -0.541077 0.623646 0.564182
vn -0.6184854 0.5823614 0.5275708
vn -0.4275447 0.6718112 0.6048763
vn 0.7955083 0.6047239 -0.03841318
vn 0.7972285 0.6012835 -0.05371066
vn 0.7972285 0.6012835 -0.05371066
vn 0.7955083 0.6047239 -0.03841318
vn 0.7920679 0.6081643 -0.05257986
vn 0.7920679 0.6081643 -0.05257986
vn 0.7920679 0.6098844 -0.025872
vn 0.7920679 0.6098844 -0.025872
vn 0.7937881 0.6081643 -0.006054491
vn 0.7937881 0.6081643 -0.006054491
vn 0.7955083 0.6047239 -0.03841318
vn 0.7937881 0.6064441 -0.04610866
vn 0.7972285 0.6030037 -0.02851746
vn 0.7955083 0.6047239 -0.03841318
vn 0.8004501 0.5993994 0
vn 0.8006689 0.5978431 -0.03889659
vn 0.8023891 0.5961229 -0.02844631
vn 0.8041093 0.5944027 -0.009678259
vn 0.8041093 0.5944027 0.009678259
vn 0.8041093 0.5944027 0.009678259
vn 0.8023891 0.587522 -0.1048316
vn 0.8023891 0.587522 -0.1048316
vn 0.7851872 0.6012835 -0.1481186
vn 0.7765863 0.6064441 -0.1707024
vn 0.7387422 0.6167652 -0.2717732
vn 0.7318614 0.615045 -0.2934255
vn 0.6991779 0.5944027 -0.3972855
vn 0.6802558 0.5823614 -0.4450924
vn 0.6406915 0.5548385 -0.5307246
vn 0.3396588 0.7251369 0.5990061
vn 0.3379386 0.6941736 0.6355474
vn 0.4652324 0.5204347 0.7160353
vn 0.5323197 0.458508 0.7116222
vn 0.3706222 0.6632102 0.6502241
vn 0.2106448 0.8163069 0.5378399
vn 0.1951631 0.8180271 0.5410574
vn 0.4514709 0.6270863 0.634773
vn 0.6062878 0.4120629 0.6801612
vn 0.6578934 0.3793793 0.6505748
vn 0.5237188 0.587522 0.6168764
vn 0.25881 0.7973848 0.5451558
vn 0.3241771 0.7698618 0.5497473
vn 0.5701638 0.5479577 0.6120911
vn 0.3775029 0.7337379 0.5649073
vn 0.618329 0.5221549 0.587387
vn 0.4119066 0.6907333 0.5943236
vn 0.7215403 0.3449757 0.6003094
vn 0.7008981 0.3552968 0.6184708
vn 0.7439027 0.3415353 0.5744235
vn 0.755944 0.3604574 0.5464606
vn 0.7714257 0.3862601 0.5056733
vn 0.7507835 0.4327051 0.4990896
vn 0.737022 0.4602281 0.4949633
vn 0.6682145 0.5359164 0.5160261
vn 0.5409207 0.623646 0.5643319
vn 0.618329 0.5823614 0.5277541
vn 0.4273883 0.6718112 0.6049867
g model_car_127_glass_LOD0_0
f 3/3/3 2/2/2 1/1/1
f 4/4/4 3/3/3 1/1/1
f 1/1/1 2/2/2 5/5/5
f 2/2/2 6/6/6 5/5/5
f 5/5/5 6/6/6 7/7/7
f 6/6/6 8/8/8 7/7/7
f 9/9/9 3/3/3 4/4/4
f 10/10/10 9/9/9 4/4/4
f 7/7/7 8/8/8 11/11/11
f 8/8/8 12/12/12 11/11/11
f 9/9/9 10/10/10 13/13/13
f 14/14/14 9/9/9 13/13/13
f 14/14/14 13/13/13 15/15/15
f 16/16/16 14/14/14 15/15/15
f 16/16/16 15/15/15 17/17/17
f 18/18/18 16/16/16 17/17/17
f 18/18/18 17/17/17 19/19/19
f 20/20/20 18/18/18 19/19/19
f 20/20/20 19/19/19 21/21/21
f 22/22/22 20/20/20 21/21/21
f 25/25/25 24/24/24 23/23/23
f 26/26/26 25/25/25 23/23/23
f 25/25/25 27/27/27 24/24/24
f 27/27/27 28/28/28 24/24/24
f 27/27/27 29/29/29 28/28/28
f 29/29/29 30/30/30 28/28/28
f 24/24/24 28/28/28 31/31/31
f 28/28/28 32/32/32 31/31/31
f 28/28/28 30/30/30 32/32/32
f 31/31/31 32/32/32 33/33/33
f 32/32/32 34/34/34 33/33/33
f 33/33/33 34/34/34 35/35/35
f 34/34/34 36/36/36 35/35/35
f 34/34/34 37/37/37 36/36/36
f 37/37/37 38/38/38 36/36/36
f 39/39/39 37/37/37 34/34/34
f 32/32/32 39/39/39 34/34/34
f 30/30/30 39/39/39 32/32/32
f 33/33/33 35/35/35 40/40/40
f 41/41/41 33/33/33 40/40/40
f 31/31/31 33/33/33 41/41/41
f 42/42/42 31/31/31 41/41/41
f 24/24/24 31/31/31 42/42/42
f 23/23/23 24/24/24 42/42/42
f 38/38/38 37/37/37 43/43/43
f 37/37/37 44/44/44 43/43/43
f 37/37/37 39/39/39 45/45/45
f 44/44/44 37/37/37 45/45/45
f 45/45/45 39/39/39 46/46/46
f 39/39/39 30/30/30 46/46/46
f 46/46/46 30/30/30 47/47/47
f 30/30/30 29/29/29 47/47/47
f 23/23/23 42/42/42 48/48/48
f 49/49/49 23/23/23 48/48/48
f 50/50/50 23/23/23 49/49/49
f 51/51/51 50/50/50 49/49/49
f 42/42/42 41/41/41 52/52/52
f 53/53/53 42/42/42 52/52/52
f 42/42/42 53/53/53 48/48/48
f 53/53/53 54/54/54 48/48/48
f 55/55/55 23/23/23 50/50/50
f 26/26/26 23/23/23 55/55/55
f 56/56/56 26/26/26 55/55/55
f 57/57/57 55/55/55 50/50/50
f 29/29/29 58/58/58 47/47/47
f 58/58/58 29/29/29 59/59/59
f 29/29/29 27/27/27 59/59/59
f 59/59/59 27/27/27 60/60/60
f 27/27/27 25/25/25 60/60/60
f 25/25/25 26/26/26 61/61/61
f 60/60/60 25/25/25 61/61/61
f 59/59/59 60/60/60 62/62/62
f 63/63/63 59/59/59 62/62/62
f 58/58/58 59/59/59 63/63/63
f 63/63/63 62/62/62 64/64/64
f 65/65/65 63/63/63 64/64/64
f 65/65/65 64/64/64 66/66/66
f 67/67/67 65/65/65 66/66/66
f 68/68/68 65/65/65 67/67/67
f 69/69/69 68/68/68 67/67/67
f 70/70/70 63/63/63 65/65/65
f 68/68/68 70/70/70 65/65/65
f 70/70/70 58/58/58 63/63/63
f 66/66/66 64/64/64 71/71/71
f 64/64/64 72/72/72 71/71/71
f 64/64/64 62/62/62 72/72/72
f 71/71/71 72/72/72 73/73/73
f 74/74/74 71/71/71 73/73/73
f 75/75/75 71/71/71 74/74/74
f 76/76/76 75/75/75 74/74/74
f 75/75/75 77/77/77 71/71/71
f 62/62/62 78/78/78 72/72/72
f 72/72/72 78/78/78 73/73/73
f 62/62/62 60/60/60 78/78/78
f 60/60/60 61/61/61 78/78/78
f 68/68/68 69/69/69 79/79/79
f 80/80/80 68/68/68 79/79/79
f 68/68/68 80/80/80 81/81/81
f 70/70/70 68/68/68 81/81/81
f 70/70/70 81/81/81 82/82/82
f 58/58/58 70/70/70 82/82/82
f 58/58/58 82/82/82 47/47/47
f 78/78/78 61/61/61 83/83/83
f 61/61/61 84/84/84 83/83/83
f 61/61/61 85/85/85 84/84/84
f 85/85/85 86/86/86 84/84/84
f 87/87/87 78/78/78 83/83/83
f 88/88/88 87/87/87 83/83/83
f 61/61/61 89/89/89 85/85/85
f 61/61/61 26/26/26 89/89/89
f 26/26/26 56/56/56 89/89/89
f 89/89/89 90/90/90 85/85/85
f 78/78/78 87/87/87 73/73/73
f 92/92/92 91/91/91 40/40/40
f 40/40/40 91/91/91 93/93/93
f 40/40/40 93/93/93 52/52/52
f 41/41/41 40/40/40 52/52/52
f 91/91/91 94/94/94 93/93/93
f 97/97/97 96/96/96 95/95/95
f 98/98/98 97/97/97 95/95/95
f 95/95/95 96/96/96 99/99/99
f 100/100/100 95/95/95 99/99/99
f 100/100/100 99/99/99 101/101/101
f 99/99/99 102/102/102 101/101/101
f 101/101/101 102/102/102 103/103/103
f 102/102/102 104/104/104 103/103/103
f 103/103/103 104/104/104 105/105/105
f 104/104/104 106/106/106 105/105/105
f 107/107/107 105/105/105 106/106/106
f 108/108/108 107/107/107 106/106/106
f 105/105/105 107/107/107 109/109/109
f 107/107/107 110/110/110 109/109/109
f 109/109/109 110/110/110 111/111/111
f 110/110/110 112/112/112 111/111/111
f 111/111/111 112/112/112 113/113/113
f 112/112/112 114/114/114 113/113/113
f 117/117/117 116/116/116 115/115/115
f 118/118/118 117/117/117 115/115/115
f 116/116/116 117/117/117 119/119/119
f 120/120/120 116/116/116 119/119/119
f 120/120/120 119/119/119 121/121/121
f 122/122/122 120/120/120 121/121/121
f 123/123/123 122/122/122 121/121/121
f 126/126/126 125/125/125 124/124/124
f 125/125/125 126/126/126 127/127/127
f 126/126/126 128/128/128 127/127/127
f 126/126/126 129/129/129 128/128/128
f 129/129/129 126/126/126 124/124/124
f 129/129/129 130/130/130 128/128/128
f 128/128/128 131/131/131 127/127/127
f 131/131/131 132/132/132 127/127/127
f 132/132/132 131/131/131 133/133/133
f 131/131/131 134/134/134 133/133/133
f 131/131/131 135/135/135 134/134/134
f 128/128/128 130/130/130 135/135/135
f 131/131/131 128/128/128 135/135/135
f 135/135/135 136/136/136 134/134/134
f 134/134/134 136/136/136 137/137/137
f 136/136/136 138/138/138 137/137/137
f 137/137/137 138/138/138 139/139/139
f 138/138/138 140/140/140 139/139/139
f 137/137/137 139/139/139 141/141/141
f 134/134/134 137/137/137 141/141/141
f 142/142/142 134/134/134 141/141/141
f 142/142/142 133/133/133 134/134/134
f 141/141/141 139/139/139 143/143/143
f 139/139/139 144/144/144 143/143/143
f 144/144/144 139/139/139 145/145/145
f 139/139/139 146/146/146 145/145/145
f 146/146/146 139/139/139 147/147/147
f 139/139/139 148/148/148 147/147/147
f 139/139/139 149/149/149 148/148/148
f 149/149/149 150/150/150 148/148/148
f 151/151/151 149/149/149 139/139/139
f 140/140/140 151/151/151 139/139/139
f 154/154/154 153/153/153 152/152/152
f 155/155/155 154/154/154 152/152/152
f 155/155/155 152/152/152 156/156/156
f 152/152/152 157/157/157 156/156/156
f 156/156/156 157/157/157 158/158/158
f 159/159/159 156/156/156 158/158/158
f 159/159/159 158/158/158 160/160/160
f 161/161/161 159/159/159 160/160/160
f 161/161/161 160/160/160 162/162/162
f 163/163/163 161/161/161 162/162/162
f 162/162/162 164/164/164 163/163/163
f 164/164/164 165/165/165 163/163/163
f 164/164/164 162/162/162 166/166/166
f 167/167/167 164/164/164 166/166/166
f 167/167/167 166/166/166 168/168/168
f 169/169/169 167/167/167 168/168/168
f 169/169/169 168/168/168 170/170/170
f 171/171/171 169/169/169 170/170/170
f 174/174/174 173/173/173 172/172/172
f 175/175/175 174/174/174 172/172/172
f 174/174/174 175/175/175 176/176/176
f 175/175/175 177/177/177 176/176/176
f 176/176/176 177/177/177 178/178/178
f 177/177/177 179/179/179 178/178/178
f 179/179/179 180/180/180 178/178/178
f 183/183/183 182/182/182 181/181/181
f 182/182/182 183/183/183 184/184/184
f 185/185/185 182/182/182 184/184/184
f 186/186/186 182/182/182 185/185/185
f 182/182/182 186/186/186 181/181/181
f 187/187/187 186/186/186 185/185/185
f 188/188/188 185/185/185 184/184/184
f 189/189/189 188/188/188 184/184/184
f 188/188/188 189/189/189 190/190/190
f 191/191/191 188/188/188 190/190/190
f 192/192/192 188/188/188 191/191/191
f 185/185/185 188/188/188 192/192/192
f 187/187/187 185/185/185 192/192/192
f 193/193/193 192/192/192 191/191/191
f 193/193/193 191/191/191 194/194/194
f 195/195/195 193/193/193 194/194/194
f 195/195/195 194/194/194 196/196/196
f 197/197/197 195/195/195 196/196/196
f 196/196/196 194/194/194 198/198/198
f 194/194/194 191/191/191 198/198/198
f 191/191/191 199/199/199 198/198/198
f 190/190/190 199/199/199 191/191/191
f 196/196/196 198/198/198 200/200/200
f 201/201/201 196/196/196 200/200/200
f 196/196/196 201/201/201 202/202/202
f 203/203/203 196/196/196 202/202/202
f 196/196/196 203/203/203 204/204/204
f 205/205/205 196/196/196 204/204/204
f 206/206/206 196/196/196 205/205/205
f 207/207/207 206/206/206 205/205/205
f 208/208/208 197/197/197 196/196/196
f 206/206/206 208/208/208 196/196/196
