g model_car_127_matte_tile_LOD0
v -0.1824586 0.8477311 -1.751267
v -0.1761696 0.8232656 -1.852261
v -0.1373 0.8228357 -1.852906
v -0.1445103 0.8510118 -1.735665
v -0.1896524 0.8647425 -1.67449
v -0.1524189 0.8702009 -1.643521
v -0.1943545 0.8727791 -1.641521
v -0.2268858 0.8592842 -1.705456
v -0.2362902 0.8753576 -1.639517
v -0.2501407 0.8926871 -1.563728
v -0.2062135 0.8890882 -1.564088
v -0.2204068 0.8444459 -1.766874
v -0.1336844 0.7991717 -1.955214
v -0.1739342 0.8019691 -1.940261
v -0.2150395 0.8236911 -1.851617
v -0.1336803 0.7914779 -1.984928
v -0.1506917 0.7905648 -1.983799
v -0.1993005 0.7910895 -1.976932
v -0.2688875 0.9092028 -1.480216
v -0.2227621 0.9052196 -1.478101
v -0.1622903 0.8854892 -1.564447
v -0.1766407 0.9012363 -1.475989
v -0.2425997 0.9162891 -1.407671
v -0.190516 0.9115083 -1.41096
v -0.266772 0.9263215 -1.342745
v -0.2184277 0.9233549 -1.334489
v -0.2837379 0.9334412 -1.272426
v -0.2492731 0.932127 -1.262964
v -0.318203 0.9347551 -1.281889
v -0.3151124 0.9292884 -1.351
v -0.2946877 0.9210739 -1.404382
v -0.3067036 0.9378085 -1.204662
v -0.2921467 0.9373169 -1.185014
v -0.3263018 0.9372013 -1.131211
v -0.3244176 0.9385688 -1.152784
v -0.3208063 0.938288 -1.223702
v -0.2141881 0.8047624 -1.925307
v -0.2153287 0.7943168 -1.968639
v -0.333822 0.665452 1.66435
v -0.3508334 0.6828477 1.572273
v -0.2066391 0.682009 1.595648
v -0.2061267 0.6647537 1.68387
v -0.0823071 0.6806827 1.608477
v -0.08349299 0.6634521 1.696026
v -0.3019519 0.644325 1.746817
v -0.2080934 0.644325 1.761601
v -0.08296418 0.644325 1.771857
v -0.2633548 0.6314168 1.792219
v -0.2192788 0.6239214 1.820304
v -1.907349E-06 0.6622746 1.703885
v -1.907349E-06 0.644325 1.778121
v -1.907349E-06 0.6795049 1.61289
v -1.907349E-06 0.6186571 1.850084
v -0.04686713 0.619405 1.84715
v -0.157088 0.6203554 1.837452
v -0.1043224 0.6197066 1.843311
v -1.907349E-06 0.1900864 2.134555
v -0.09957075 0.1906564 2.119581
v -0.07639027 0.2727344 2.076914
v -1.907349E-06 0.2720776 2.086062
v -0.1966891 0.1924787 2.072501
v -0.1811075 0.2753417 2.037887
v -0.2840478 0.1947389 2.012508
v -0.2827671 0.2770152 1.982382
v -0.3559074 0.1971478 1.949809
v -0.3298593 0.2748377 1.953747
v -0.4494765 0.2012303 1.844075
v -0.3737576 0.2680404 1.920423
v -0.4184535 0.2479756 1.876938
v -0.4034791 0.2596774 1.892978
v -0.4117515 0.2548966 1.88409
v -0.7412164 0.4061196 1.841704
v -0.6566219 0.3621178 1.890412
v -0.6566219 0.1491299 1.797554
v -0.7412164 0.1491299 1.748846
v -0.821187 0.4487121 1.76813
v -0.821187 0.1491299 1.690113
v -0.8759401 0.4777684 1.698737
v -0.8942904 0.1694386 1.62072
v -0.5899727 0.1491299 1.830502
v -0.5887084 0.3410363 1.923989
v -0.5206668 0.3277893 1.927352
v -0.5236087 0.1491299 1.841233
v -0.4572198 0.1491299 1.837754
v -0.4444437 0.3171327 1.956545
v -1.907349E-06 0.6233263 -2.198155
v -1.907349E-06 0.6754019 -2.195135
v -0.05086684 0.6746829 -2.194407
v -0.06649828 0.6235659 -2.197258
v -0.1056323 0.6238055 -2.196358
v -0.09674859 0.6739597 -2.19368
v -0.1849585 0.623785 -2.19325
v -0.1840494 0.671212 -2.189143
v -0.3175955 0.6239502 -2.184528
v -0.2978199 0.6639397 -2.181569
v 0.3338223 0.665452 1.66435
v 0.2061269 0.6647537 1.68387
v 0.2066393 0.682009 1.595648
v 0.3508337 0.6828477 1.572273
v 0.08230758 0.6806827 1.608477
v 0.08349347 0.6634521 1.696026
v 0.301948 0.644325 1.746817
v 0.2080938 0.644325 1.761601
v 0.08296442 0.644325 1.771857
v 0.2633551 0.6314168 1.792219
v 0.2192791 0.6239214 1.820304
v -1.907349E-06 0.6622746 1.703885
v -1.907349E-06 0.644325 1.778121
v -1.907349E-06 0.6795049 1.61289
v -1.907349E-06 0.6186571 1.850084
v 0.04686737 0.619405 1.84715
v 0.1570883 0.6203554 1.837452
v 0.1043227 0.6197066 1.843311
v -1.907349E-06 0.1900864 2.134555
v -1.907349E-06 0.2720776 2.086062
v 0.0763905 0.2727344 2.076914
v 0.09957099 0.1906564 2.119581
v 0.1966894 0.1924787 2.072501
v 0.1811078 0.2753417 2.037887
v 0.2840482 0.1947389 2.012508
v 0.2827673 0.2770152 1.982382
v 0.3559078 0.1971478 1.949809
v 0.3298596 0.2748377 1.953747
v 0.4494768 0.2012303 1.844075
v 0.373758 0.2680404 1.920423
v 0.4184538 0.2479756 1.876938
v 0.4034795 0.2596774 1.892978
v 0.4117517 0.2548966 1.88409
v -1.907349E-06 0.6233263 -2.198155
v 0.06649852 0.6235659 -2.197258
v 0.05086708 0.6746829 -2.194407
v -1.907349E-06 0.6754019 -2.195135
v 0.1056325 0.6238055 -2.196358
v 0.09674883 0.6739597 -2.19368
v 0.1849587 0.623785 -2.19325
v 0.1840496 0.671212 -2.189143
v 0.3175958 0.6239502 -2.184528
v 0.2978201 0.6639397 -2.181569
v 0.1824589 0.8477311 -1.751267
v 0.1445105 0.8510118 -1.735665
v 0.1373003 0.8228357 -1.852906
v 0.1761699 0.8232656 -1.852261
v 0.1896527 0.8647425 -1.67449
v 0.1524193 0.8702009 -1.643521
v 0.1943548 0.8727791 -1.641521
v 0.2268862 0.8592842 -1.705456
v 0.2362864 0.8753576 -1.639517
v 0.2501369 0.8926871 -1.563728
v 0.2062137 0.8890882 -1.564088
v 0.2204071 0.8444459 -1.766874
v 0.1336806 0.7991717 -1.955214
v 0.1739345 0.8019691 -1.940261
v 0.2150397 0.8236911 -1.851617
v 0.1336806 0.7914779 -1.984928
v 0.1506879 0.7905648 -1.983799
v 0.1993009 0.7910895 -1.976932
v 0.2688879 0.9092028 -1.480216
v 0.2227623 0.9052196 -1.478101
v 0.1622906 0.8854892 -1.564447
v 0.176641 0.9012363 -1.475989
v 0.2426001 0.9162891 -1.407671
v 0.1905122 0.9115083 -1.41096
v 0.2667723 0.9263215 -1.342745
v 0.2184279 0.9233549 -1.334489
v 0.2837383 0.9334412 -1.272426
v 0.2492733 0.932127 -1.262964
v 0.3181992 0.9347551 -1.281889
v 0.3151126 0.9292884 -1.351
v 0.2946881 0.9210739 -1.404382
v 0.3067039 0.9378085 -1.204662
v 0.2921469 0.9373169 -1.185014
v 0.3263021 0.9372013 -1.131211
v 0.3244178 0.9385688 -1.152784
v 0.3208064 0.938288 -1.223702
v 0.2141885 0.8047624 -1.925307
v 0.2153289 0.7943168 -1.968639
v 0.7412167 0.4061196 1.841704
v 0.7412167 0.1491299 1.748846
v 0.6566222 0.1491299 1.797554
v 0.6566222 0.3621178 1.890412
v 0.8211832 0.4487121 1.76813
v 0.8211832 0.1491299 1.690113
v 0.8759363 0.4777684 1.698737
v 0.8942865 0.1694386 1.62072
v 0.5899731 0.1491299 1.830502
v 0.5887086 0.3410363 1.923989
v 0.5206671 0.3277893 1.927352
v 0.523609 0.1491299 1.841233
v 0.4572202 0.1491299 1.837754
v 0.4444441 0.3171327 1.956545
vt 0.7616172 -0.0374811
vt 0.7597821 -0.1347663
vt 0.7235183 -0.1369472
vt 0.7255487 -0.02407958
vt 0.765242 0.03624988
vt 0.7292339 0.06412086
vt 0.7683405 0.06812176
vt 0.8012652 0.008363873
vt 0.8074471 0.07210761
vt 0.8173591 0.145237
vt 0.7762671 0.1424845
vt 0.7976704 -0.05088264
vt 0.7242101 -0.235165
vt 0.7612261 -0.219417
vt 0.796061 -0.1325703
vt 0.7253833 -0.2638181
vt 0.7412666 -0.2623591
vt 0.7864197 -0.2541467
vt 0.8313923 0.2254957
vt 0.7880743 0.224849
vt 0.73516 0.1397319
vt 0.7447712 0.2242172
vt 0.8034312 0.2922928
vt 0.7548186 0.2862915
vt 0.8230445 0.3547129
vt 0.7774101 0.3597818
vt 0.8354534 0.421495
vt 0.8027693 0.4285041
vt 0.8681375 0.4144859
vt 0.8686789 0.3496291
vt 0.8520436 0.2982942
vt 0.8534575 0.4860209
vt 0.8388226 0.5035738
vt 0.8677313 0.5556457
vt 0.8672199 0.5353854
vt 0.8676411 0.4690246
vt 0.798227 -0.2036541
vt 0.8010396 -0.2452123
vt 0.06354928 0.3849303
vt 0.04750055 0.472499
vt 0.1823732 0.4511107
vt 0.1829598 0.3670917
vt 0.2986251 0.4392133
vt 0.2975722 0.355811
vt 0.09333047 0.3053333
vt 0.1811248 0.291992
vt 0.2980836 0.2827267
vt 0.1293537 0.2611429
vt 0.1705359 0.2339337
vt 0.3755748 0.3484258
vt 0.3755748 0.2770863
vt 0.3755748 0.4349717
vt 0.3755748 0.2057168
vt 0.3317454 0.2085596
vt 0.2286844 0.2175541
vt 0.2780189 0.2121092
vt 0.5250221 0.4982342
vt 0.4312114 0.5057847
vt 0.4532766 0.5921351
vt 0.5250221 0.5872618
vt 0.3331442 0.5294442
vt 0.3508625 0.6127564
vt 0.2385814 0.5589998
vt 0.2462222 0.640552
vt 0.1541563 0.5876529
vt 0.1959402 0.6519381
vt 0.02991763 0.6323097
vt 0.1447857 0.660692
vt 0.08355382 0.6608725
vt 0.1064161 0.6650538
vt 0.09424797 0.6642417
vt 0.2451994 0.1840878
vt 0.3423493 0.1600373
vt 0.333099 -0.05692911
vt 0.2430035 -0.07129326
vt 0.1372652 0.1997907
vt 0.1520205 -0.08916198
vt 0.05049369 0.2056566
vt 0.05596861 -0.09204985
vt 0.4019567 -0.04754353
vt 0.4153583 0.1515241
vt 0.478756 0.1378669
vt 0.464783 -0.04700205
vt 0.5267068 -0.05217616
vt 0.5556908 0.1383181
vt 0.3673624 -0.1393688
vt 0.367558 -0.1881167
vt 0.3199983 -0.1876655
vt 0.305198 -0.1398802
vt 0.2686183 -0.1402863
vt 0.2771164 -0.1871992
vt 0.194421 -0.1407225
vt 0.1953987 -0.1852138
vt 0.0701974 -0.1418957
vt 0.08877304 -0.1793328
vt 0.6876154 0.3849303
vt 0.5682049 0.3670917
vt 0.5687915 0.4511107
vt 0.7036642 0.472499
vt 0.4525396 0.4392133
vt 0.4535924 0.355811
vt 0.6578342 0.3053333
vt 0.5700399 0.291992
vt 0.4530811 0.2827267
vt 0.621811 0.2611429
vt 0.5806288 0.2339337
vt 0.3755748 0.3484258
vt 0.3755748 0.2770863
vt 0.3755748 0.4349717
vt 0.3755748 0.2057168
vt 0.4194193 0.2085596
vt 0.5224802 0.2175541
vt 0.4731458 0.2121092
vt 0.5250221 0.4982342
vt 0.5250221 0.5872618
vt 0.5967678 0.5921502
vt 0.6188178 0.5057847
vt 0.7169002 0.5294442
vt 0.6991819 0.6127714
vt 0.811448 0.5590148
vt 0.8038222 0.640552
vt 0.8958881 0.5876529
vt 0.8540891 0.6519381
vt 1.020112 0.6323097
vt 0.9052587 0.660692
vt 0.9664755 0.6608725
vt 0.9436132 0.6650538
vt 0.9557813 0.6642567
vt 0.3673624 -0.1393688
vt 0.4295118 -0.1393839
vt 0.4151026 -0.1872894
vt 0.367558 -0.1881167
vt 0.4661066 -0.1395192
vt 0.4579845 -0.1864923
vt 0.5403038 -0.1393688
vt 0.5396872 -0.1838601
vt 0.6645274 -0.1395644
vt 0.6462526 -0.1771518
vt 0.7616172 -0.0374811
vt 0.7255487 -0.02407958
vt 0.7235183 -0.1369472
vt 0.7597821 -0.1347663
vt 0.765242 0.03624988
vt 0.7292339 0.06412086
vt 0.7683405 0.06812176
vt 0.8012652 0.008363873
vt 0.8074471 0.07210761
vt 0.8173591 0.145237
vt 0.7762671 0.1424845
vt 0.7976704 -0.05088264
vt 0.7242101 -0.235165
vt 0.7612261 -0.219417
vt 0.796061 -0.1325703
vt 0.7253833 -0.2638181
vt 0.7412666 -0.2623591
vt 0.7864197 -0.2541467
vt 0.8313923 0.2254957
vt 0.7880743 0.224849
vt 0.73516 0.1397319
vt 0.7447712 0.2242172
vt 0.8034312 0.2922928
vt 0.7548186 0.2862915
vt 0.8230445 0.3547129
vt 0.7774101 0.3597818
vt 0.8354534 0.421495
vt 0.8027693 0.4285041
vt 0.8681375 0.4144859
vt 0.8686789 0.3496291
vt 0.8520436 0.2982942
vt 0.8534575 0.4860209
vt 0.8388226 0.5035738
vt 0.8677313 0.5556457
vt 0.8672199 0.5353854
vt 0.8676411 0.4690246
vt 0.798227 -0.2036541
vt 0.8010396 -0.2452123
vt 0.2451994 0.1840878
vt 0.2430035 -0.07129326
vt 0.333099 -0.05692911
vt 0.3423493 0.1600373
vt 0.1372652 0.1997907
vt 0.1520205 -0.08916198
vt 0.05049369 0.2056566
vt 0.05596861 -0.09204985
vt 0.4019567 -0.04754353
vt 0.4153583 0.1515241
vt 0.478756 0.1378669
vt 0.464783 -0.04700205
vt 0.5267068 -0.05217616
vt 0.5556908 0.1383181
vn 0.01493096 0.974457 -0.2240772
vn 0.001236975 0.9710336 -0.2389399
vn 0.001236975 0.9727453 -0.2318729
vn 0.01321918 0.9761688 -0.2166098
vn 0.03376013 0.974457 -0.222022
vn 0.04574233 0.9778806 -0.2041008
vn 0.05772454 0.9761688 -0.2091947
vn 0.0320484 0.974457 -0.2222755
vn 0.05772454 0.974457 -0.2170285
vn 0.0765537 0.9795923 -0.1858452
vn 0.07484198 0.9795923 -0.186541
vn 0.01493096 0.9727453 -0.2313951
vn -0.02786267 0.9676101 -0.250907
vn -0.01416868 0.9693218 -0.2453862
vn 0.001236975 0.9710336 -0.2389399
vn -0.04326838 0.9641865 -0.2616717
vn -0.03813314 0.9641865 -0.2624694
vn -0.01245695 0.9658984 -0.2586216
vn 0.08682418 0.9847275 -0.1509083
vn 0.08682418 0.9847275 -0.1509083
vn 0.07484198 0.981304 -0.1773162
vn 0.08682418 0.9847275 -0.1509083
vn 0.08511245 0.9881511 -0.1277238
vn 0.08511245 0.9881511 -0.1277238
vn 0.0765537 0.9915745 -0.1044965
vn 0.0765537 0.9915745 -0.1044965
vn 0.06628329 0.994998 -0.07473654
vn 0.06628329 0.994998 -0.07473654
vn 0.06799501 0.994998 -0.07318275
vn 0.07484198 0.9915745 -0.105729
vn 0.08340067 0.9881511 -0.128848
vn 0.0525893 0.9984214 -0.01972257
vn 0.06283475 0.998024 0
vn 0.06453876 0.9979152 0
vn 0.06113018 0.9981298 0
vn 0.05943626 0.9967097 -0.05510985
vn -0.005609989 0.9693218 -0.2457309
vn -0.002186477 0.9658984 -0.2589121
vn -0.02957439 0.9761688 0.2149882
vn -0.02443916 0.981304 0.1909059
vn -0.01759219 0.981304 0.1916583
vn -0.02272743 0.974457 0.2234211
vn -0.003898263 0.981304 0.1924245
vn -0.01074523 0.9761688 0.2167467
vn -0.03984487 0.9607631 0.2744934
vn -0.03128612 0.9573396 0.2872664
vn -0.01930392 0.9590514 0.2825736
vn -0.04669183 0.9470692 0.317616
vn -0.03642136 0.9470692 0.3189569
vn -0.000474751 0.9761688 0.2170123
vn -0.000474751 0.9573396 0.2889646
vn -0.000474751 0.981304 0.1924634
vn -0.000474751 0.9436457 0.330957
vn -0.01930392 0.9453574 0.3254637
vn -0.02615094 0.9470692 0.3199627
vn -0.01930392 0.9470692 0.3204487
vn -0.000474751 0.4985923 0.8668365
vn -0.2349837 0.4814748 0.8443724
vn -0.219578 0.4831866 0.8475354
vn -0.000474751 0.4985923 0.8668365
vn -0.4078698 0.4164286 0.8125451
vn -0.413005 0.413005 0.8116981
vn -0.5311154 0.3051652 0.790437
vn -0.5448093 0.2897595 0.7869067
vn -0.6612079 0.1613787 0.7326398
vn -0.6389552 0.1836314 0.7470045
vn -0.700578 0.05525059 0.7114336
vn -0.7057133 0.08948547 0.7028236
vn -0.6783254 -0.0765537 0.7307628
vn -0.6783254 -0.0765537 0.7307628
vn -0.7348129 0.01074523 0.6781847
vn -0.6047204 -0.2614221 0.752311
vn -0.4985923 -0.3384506 0.7980332
vn -0.500304 -0.3367388 0.797686
vn -0.6047204 -0.2614221 0.752311
vn -0.7108485 -0.1775466 0.6805671
vn -0.7091367 -0.1809701 0.6814506
vn -0.7519304 -0.1416 0.6438557
vn -0.7519304 -0.1416 0.6438557
vn -0.3154356 -0.4034968 0.8588892
vn -0.3120122 -0.4052086 0.8593337
vn -0.1630904 -0.4616961 0.8719164
vn -0.1630904 -0.4616961 0.8719164
vn -0.1904783 -0.4925075 0.8492081
vn -0.1904783 -0.4925075 0.8492081
vn -0.000474751 0.05867404 -0.9982771
vn -0.000474751 0.05867404 -0.9982771
vn -0.01588047 0.05867404 -0.9981509
vn -0.01759219 0.05867404 -0.9981222
vn -0.03470963 0.06723279 -0.9971334
vn -0.03128612 0.065521 -0.9973606
vn -0.05696231 0.08606195 -0.9946601
vn -0.05696231 0.08435023 -0.9948067
vn -0.06894451 0.09633243 -0.9929585
vn -0.06894451 0.09633243 -0.9929585
vn 0.02862489 0.9761688 0.2151167
vn 0.02177793 0.974457 0.2235156
vn 0.01664269 0.981304 0.191743
vn 0.02520138 0.981304 0.190807
vn 0.004660487 0.981304 0.1924076
vn 0.009795725 0.9761688 0.2167916
vn 0.03889537 0.9607631 0.2746297
vn 0.0320484 0.9573396 0.2871823
vn 0.01835442 0.9590514 0.2826368
vn 0.04574233 0.9470692 0.3177541
vn 0.03547186 0.9470692 0.3190639
vn -0.000474751 0.9761688 0.2170123
vn -0.000474751 0.9573396 0.2889646
vn -0.000474751 0.981304 0.1924634
vn -0.000474751 0.9436457 0.330957
vn 0.01835442 0.9453574 0.3255187
vn 0.02691317 0.9470692 0.3198995
vn 0.02006614 0.9470692 0.3204019
vn -0.000474751 0.4985923 0.8668365
vn -0.000474751 0.4985923 0.8668365
vn 0.2203402 0.4831866 0.8473375
vn 0.2357459 0.4814748 0.8441599
vn 0.408632 0.4164286 0.812162
vn 0.4120555 0.413005 0.8121805
vn 0.5301659 0.3051652 0.7910742
vn 0.5438598 0.2897595 0.7875633
vn 0.6619701 0.1613787 0.7319511
vn 0.6380057 0.1836314 0.7478156
vn 0.7013403 0.05525059 0.7106822
vn 0.7047638 0.08948547 0.7037758
vn 0.6790876 -0.0765537 0.7300545
vn 0.6790876 -0.0765537 0.7300545
vn 0.7355751 0.01074523 0.677358
vn -0.000474751 0.05867404 -0.9982771
vn 0.01664269 0.05867404 -0.9981384
vn 0.01664269 0.05867404 -0.9981384
vn -0.000474751 0.05867404 -0.9982771
vn 0.03547186 0.06723279 -0.9971066
vn 0.0320484 0.065521 -0.9973364
vn 0.05772454 0.08606195 -0.9946161
vn 0.05772454 0.08435023 -0.9947627
vn 0.06799501 0.09633243 -0.9930241
vn 0.06799501 0.09633243 -0.9930241
vn -0.01588047 0.974457 -0.2240119
vn -0.01245695 0.9761688 -0.2166551
vn -0.002186477 0.9727453 -0.231866
vn -0.002186477 0.9710336 -0.2389331
vn -0.03299791 0.974457 -0.2221366
vn -0.04669183 0.9778806 -0.2038858
vn -0.05696231 0.9761688 -0.2094036
vn -0.03128612 0.974457 -0.2223841
vn -0.05867404 0.974457 -0.2167738
vn -0.07750326 0.9795923 -0.1854511
vn -0.07579148 0.9795923 -0.1861573
vn -0.01588047 0.9727453 -0.2313318
vn 0.02862489 0.9676101 -0.2508212
vn 0.01321918 0.9693218 -0.2454392
vn -0.000474751 0.9710336 -0.2389426
vn 0.04231882 0.9641865 -0.261827
vn 0.03718358 0.9641865 -0.2626055
vn 0.01321918 0.9658984 -0.2585836
vn -0.08606195 0.9847275 -0.1513443
vn -0.08606195 0.9847275 -0.1513443
vn -0.07407975 0.981304 -0.1776361
vn -0.08606195 0.9847275 -0.1513443
vn -0.08435023 0.9881511 -0.1282285
vn -0.08435023 0.9881511 -0.1282285
vn -0.07579148 0.9915745 -0.1050506
vn -0.07750326 0.9915745 -0.1037939
vn -0.065521 0.994998 -0.07540547
vn -0.065521 0.994998 -0.07540547
vn -0.06723279 0.994998 -0.0738835
vn -0.07579148 0.9915745 -0.1050506
vn -0.08435023 0.9881511 -0.1282285
vn -0.0535388 0.9984214 -0.01697787
vn -0.06207579 0.9980715 0
vn -0.06378004 0.997964 0
vn -0.06207579 0.9980715 0
vn -0.05867404 0.9967097 -0.05592046
vn 0.006372213 0.9693218 -0.2457124
vn 0.002948701 0.9658984 -0.2589045
vn 0.6037709 -0.2614221 0.7530732
vn 0.6037709 -0.2614221 0.7530732
vn 0.5010662 -0.3367388 0.7972074
vn 0.4993545 -0.3384506 0.7975565
vn 0.7116107 -0.1775466 0.6797701
vn 0.7081872 -0.1809701 0.6824373
vn 0.7526926 -0.1416 0.6429645
vn 0.7526926 -0.1416 0.6429645
vn 0.3144861 -0.4034968 0.8592374
vn 0.3110626 -0.4052086 0.8596779
vn 0.1621409 -0.4616961 0.8720934
vn 0.1621409 -0.4616961 0.8720934
vn 0.1895288 -0.4925075 0.8494205
vn 0.1895288 -0.4925075 0.8494205
g model_car_127_matte_tile_LOD0_0
f 3/3/3 2/2/2 1/1/1
f 4/4/4 3/3/3 1/1/1
f 4/4/4 1/1/1 5/5/5
f 6/6/6 4/4/4 5/5/5
f 7/7/7 6/6/6 5/5/5
f 7/7/7 5/5/5 8/8/8
f 5/5/5 1/1/1 8/8/8
f 9/9/9 7/7/7 8/8/8
f 9/9/9 10/10/10 7/7/7
f 10/10/10 11/11/11 7/7/7
f 7/7/7 11/11/11 6/6/6
f 1/1/1 12/12/12 8/8/8
f 1/1/1 2/2/2 12/12/12
f 2/2/2 3/3/3 13/13/13
f 14/14/14 2/2/2 13/13/13
f 2/2/2 15/15/15 12/12/12
f 15/15/15 2/2/2 14/14/14
f 14/14/14 13/13/13 16/16/16
f 17/17/17 14/14/14 16/16/16
f 18/18/18 14/14/14 17/17/17
f 11/11/11 10/10/10 19/19/19
f 20/20/20 11/11/11 19/19/19
f 21/21/21 11/11/11 20/20/20
f 11/11/11 21/21/21 6/6/6
f 22/22/22 21/21/21 20/20/20
f 22/22/22 20/20/20 23/23/23
f 24/24/24 22/22/22 23/23/23
f 24/24/24 23/23/23 25/25/25
f 26/26/26 24/24/24 25/25/25
f 26/26/26 25/25/25 27/27/27
f 28/28/28 26/26/26 27/27/27
f 27/27/27 25/25/25 29/29/29
f 25/25/25 30/30/30 29/29/29
f 25/25/25 23/23/23 30/30/30
f 23/23/23 31/31/31 30/30/30
f 20/20/20 19/19/19 31/31/31
f 23/23/23 20/20/20 31/31/31
f 27/27/27 32/32/32 28/28/28
f 32/32/32 33/33/33 28/28/28
f 33/33/33 32/32/32 34/34/34
f 32/32/32 35/35/35 34/34/34
f 32/32/32 36/36/36 35/35/35
f 36/36/36 32/32/32 27/27/27
f 29/29/29 36/36/36 27/27/27
f 37/37/37 15/15/15 14/14/14
f 37/37/37 14/14/14 38/38/38
f 14/14/14 18/18/18 38/38/38
f 41/41/41 40/40/40 39/39/39
f 42/42/42 41/41/41 39/39/39
f 41/41/41 42/42/42 43/43/43
f 42/42/42 44/44/44 43/43/43
f 39/39/39 45/45/45 42/42/42
f 45/45/45 46/46/46 42/42/42
f 42/42/42 46/46/46 44/44/44
f 46/46/46 47/47/47 44/44/44
f 46/46/46 45/45/45 48/48/48
f 49/49/49 46/46/46 48/48/48
f 44/44/44 47/47/47 50/50/50
f 47/47/47 51/51/51 50/50/50
f 44/44/44 50/50/50 52/52/52
f 43/43/43 44/44/44 52/52/52
f 51/51/51 47/47/47 53/53/53
f 47/47/47 54/54/54 53/53/53
f 47/47/47 55/55/55 54/54/54
f 46/46/46 49/49/49 55/55/55
f 47/47/47 46/46/46 55/55/55
f 55/55/55 56/56/56 54/54/54
f 59/59/59 58/58/58 57/57/57
f 60/60/60 59/59/59 57/57/57
f 58/58/58 59/59/59 61/61/61
f 59/59/59 62/62/62 61/61/61
f 61/61/61 62/62/62 63/63/63
f 62/62/62 64/64/64 63/63/63
f 63/63/63 64/64/64 65/65/65
f 64/64/64 66/66/66 65/65/65
f 65/65/65 66/66/66 67/67/67
f 66/66/66 68/68/68 67/67/67
f 67/67/67 68/68/68 69/69/69
f 68/68/68 70/70/70 69/69/69
f 69/69/69 70/70/70 71/71/71
f 74/74/74 73/73/73 72/72/72
f 75/75/75 74/74/74 72/72/72
f 75/75/75 72/72/72 76/76/76
f 77/77/77 75/75/75 76/76/76
f 77/77/77 76/76/76 78/78/78
f 79/79/79 77/77/77 78/78/78
f 74/74/74 80/80/80 73/73/73
f 80/80/80 81/81/81 73/73/73
f 81/81/81 80/80/80 82/82/82
f 80/80/80 83/83/83 82/82/82
f 83/83/83 84/84/84 82/82/82
f 84/84/84 85/85/85 82/82/82
f 88/88/88 87/87/87 86/86/86
f 89/89/89 88/88/88 86/86/86
f 88/88/88 89/89/89 90/90/90
f 91/91/91 88/88/88 90/90/90
f 91/91/91 90/90/90 92/92/92
f 93/93/93 91/91/91 92/92/92
f 93/93/93 92/92/92 94/94/94
f 95/95/95 93/93/93 94/94/94
f 98/98/98 97/97/97 96/96/96
f 99/99/99 98/98/98 96/96/96
f 97/97/97 98/98/98 100/100/100
f 101/101/101 97/97/97 100/100/100
f 102/102/102 96/96/96 97/97/97
f 103/103/103 102/102/102 97/97/97
f 103/103/103 97/97/97 101/101/101
f 104/104/104 103/103/103 101/101/101
f 102/102/102 103/103/103 105/105/105
f 103/103/103 106/106/106 105/105/105
f 104/104/104 101/101/101 107/107/107
f 108/108/108 104/104/104 107/107/107
f 101/101/101 100/100/100 109/109/109
f 107/107/107 101/101/101 109/109/109
f 104/104/104 108/108/108 110/110/110
f 111/111/111 104/104/104 110/110/110
f 112/112/112 104/104/104 111/111/111
f 103/103/103 104/104/104 112/112/112
f 106/106/106 103/103/103 112/112/112
f 113/113/113 112/112/112 111/111/111
f 116/116/116 115/115/115 114/114/114
f 117/117/117 116/116/116 114/114/114
f 116/116/116 117/117/117 118/118/118
f 119/119/119 116/116/116 118/118/118
f 119/119/119 118/118/118 120/120/120
f 121/121/121 119/119/119 120/120/120
f 121/121/121 120/120/120 122/122/122
f 123/123/123 121/121/121 122/122/122
f 123/123/123 122/122/122 124/124/124
f 125/125/125 123/123/123 124/124/124
f 125/125/125 124/124/124 126/126/126
f 127/127/127 125/125/125 126/126/126
f 127/127/127 126/126/126 128/128/128
f 131/131/131 130/130/130 129/129/129
f 132/132/132 131/131/131 129/129/129
f 130/130/130 131/131/131 133/133/133
f 131/131/131 134/134/134 133/133/133
f 133/133/133 134/134/134 135/135/135
f 134/134/134 136/136/136 135/135/135
f 135/135/135 136/136/136 137/137/137
f 136/136/136 138/138/138 137/137/137
f 141/141/141 140/140/140 139/139/139
f 142/142/142 141/141/141 139/139/139
f 139/139/139 140/140/140 143/143/143
f 140/140/140 144/144/144 143/143/143
f 144/144/144 145/145/145 143/143/143
f 143/143/143 145/145/145 146/146/146
f 139/139/139 143/143/143 146/146/146
f 145/145/145 147/147/147 146/146/146
f 148/148/148 147/147/147 145/145/145
f 149/149/149 148/148/148 145/145/145
f 149/149/149 145/145/145 144/144/144
f 150/150/150 139/139/139 146/146/146
f 142/142/142 139/139/139 150/150/150
f 141/141/141 142/142/142 151/151/151
f 142/142/142 152/152/152 151/151/151
f 153/153/153 142/142/142 150/150/150
f 142/142/142 153/153/153 152/152/152
f 151/151/151 152/152/152 154/154/154
f 152/152/152 155/155/155 154/154/154
f 152/152/152 156/156/156 155/155/155
f 148/148/148 149/149/149 157/157/157
f 149/149/149 158/158/158 157/157/157
f 149/149/149 159/159/159 158/158/158
f 159/159/159 149/149/149 144/144/144
f 159/159/159 160/160/160 158/158/158
f 158/158/158 160/160/160 161/161/161
f 160/160/160 162/162/162 161/161/161
f 161/161/161 162/162/162 163/163/163
f 162/162/162 164/164/164 163/163/163
f 163/163/163 164/164/164 165/165/165
f 164/164/164 166/166/166 165/165/165
f 163/163/163 165/165/165 167/167/167
f 168/168/168 163/163/163 167/167/167
f 161/161/161 163/163/163 168/168/168
f 169/169/169 161/161/161 168/168/168
f 158/158/158 161/161/161 169/169/169
f 157/157/157 158/158/158 169/169/169
f 170/170/170 165/165/165 166/166/166
f 171/171/171 170/170/170 166/166/166
f 170/170/170 171/171/171 172/172/172
f 173/173/173 170/170/170 172/172/172
f 174/174/174 170/170/170 173/173/173
f 174/174/174 167/167/167 165/165/165
f 170/170/170 174/174/174 165/165/165
f 153/153/153 175/175/175 152/152/152
f 152/152/152 175/175/175 176/176/176
f 156/156/156 152/152/152 176/176/176
f 179/179/179 178/178/178 177/177/177
f 180/180/180 179/179/179 177/177/177
f 177/177/177 178/178/178 181/181/181
f 178/178/178 182/182/182 181/181/181
f 181/181/181 182/182/182 183/183/183
f 182/182/182 184/184/184 183/183/183
f 185/185/185 179/179/179 180/180/180
f 186/186/186 185/185/185 180/180/180
f 185/185/185 186/186/186 187/187/187
f 188/188/188 185/185/185 187/187/187
f 189/189/189 188/188/188 187/187/187
f 190/190/190 189/189/189 187/187/187
