g model_car_127_body_roof_LOD0
v -0.4401884 1.066725 -0.8243787
v -0.4401884 1.056566 -0.8243787
v -0.427138 1.053311 -0.8191447
v -0.427138 1.063388 -0.8191447
v -0.4231634 1.053393 -0.8175583
v -0.4231634 1.063392 -0.8175583
v -0.3188734 1.083303 -0.7761804
v -0.3188734 1.093302 -0.7761804
v -0.2125837 1.100061 -0.7501141
v -0.2125837 1.11006 -0.7501141
v -0.1062919 1.10866 -0.736631
v -0.1062919 1.118659 -0.736631
v -2.384186E-07 1.112596 -0.7284704
v -2.384186E-07 1.122595 -0.7284704
v -0.1063208 1.121864 -0.7359754
v -2.384186E-07 1.125731 -0.7278013
v -2.384186E-07 1.139274 -0.6418765
v -0.1072034 1.137374 -0.6517446
v -2.384186E-07 1.155549 -0.5375384
v -0.1084648 1.155687 -0.5490006
v -2.384186E-07 1.171082 -0.4190846
v -0.1103011 1.169519 -0.4268568
v -2.384186E-07 1.186146 -0.2891572
v -0.1127104 1.183409 -0.2956699
v -2.384186E-07 1.191881 -0.1529189
v -0.1159312 1.19081 -0.1587374
v -0.1213133 1.188784 -0.003741682
v -2.384186E-07 1.191337 -8.630753E-05
v -2.384186E-07 1.170263 0.1752763
v -0.1282702 1.169582 0.1726997
v -0.2169274 1.144252 -0.5604589
v -0.2206019 1.159368 -0.4346271
v -0.32539 1.132815 -0.5719191
v -0.3309047 1.148704 -0.4423974
v -0.431849 1.103668 -0.5831678
v -0.4391828 1.122899 -0.4500273
v -0.338127 1.165161 -0.3086991
v -0.4488009 1.141872 -0.3150946
v -0.3477932 1.170838 -0.1703765
v -0.4616898 1.146477 -0.1760932
v -0.2426263 1.181929 -0.007396996
v -0.2318622 1.185305 -0.1645579
v -0.3639394 1.169665 -0.01105237
v -0.4832066 1.145558 -0.01464427
v -0.3848101 1.152576 0.1567612
v -0.511063 1.127006 0.1436069
v -0.4135799 1.1137 0.3189696
v -0.5494241 1.089551 0.2959837
v -0.2565402 1.162769 0.1647295
v -0.2254187 1.175095 -0.3021845
v -0.1378614 1.131336 0.336931
v -0.2757245 1.125814 0.3298165
v -2.384186E-07 1.132898 0.3390499
v -0.5152087 1.126518 0.14393
v -0.5541004 1.088424 0.2983623
v -0.5281341 1.126033 0.1471623
v -0.5670105 1.086991 0.3015908
v -0.5510238 1.085649 0.3003314
v -0.1379902 1.128589 0.3397691
v -2.384186E-07 1.13016 0.341892
v -0.1379902 1.116163 0.3432206
v -0.2759821 1.110662 0.3361061
v -0.2759821 1.123087 0.3326546
v -0.4139721 1.098517 0.3252438
v -0.4139721 1.110943 0.3217924
v -0.5489471 1.074051 0.303977
v -2.384186E-07 1.117736 0.3453435
v -0.50032 1.14581 -0.01093894
v -0.4873735 1.145237 -0.01417702
v -0.4788321 1.148896 -0.1724185
v -0.4658066 1.146435 -0.1756759
v -0.4659163 1.142845 -0.3114431
v -0.4529446 1.141639 -0.314687
v -0.4564135 1.128371 -0.4463661
v -0.4431977 1.123197 -0.4496715
v -0.4491777 1.111537 -0.579549
v -0.4357351 1.104153 -0.5829102
v -0.4435092 1.090964 -0.706398
v -0.4301915 1.085907 -0.7055673
v -0.42624 1.085697 -0.7050154
v -0.3216058 1.113304 -0.682643
v -0.4232365 1.066561 -0.8169065
v -0.3189522 1.096498 -0.7755324
v -0.2144046 1.126931 -0.6671947
v -0.2126414 1.113219 -0.7494546
v -0.4272072 1.066467 -0.8185852
v -0.4404653 1.069782 -0.8239999
v 0.440188 1.066725 -0.8243787
v 0.4271376 1.063388 -0.8191447
v 0.4271376 1.053311 -0.8191447
v 0.440188 1.056564 -0.8243787
v 0.423163 1.053393 -0.8175583
v 0.423163 1.063392 -0.8175583
v 0.318873 1.083303 -0.7761804
v 0.318873 1.093302 -0.7761804
v 0.2125832 1.100061 -0.7501141
v 0.2125832 1.11006 -0.7501141
v 0.1062915 1.108658 -0.736631
v 0.1062915 1.118659 -0.736631
v -2.384186E-07 1.112596 -0.7284704
v -2.384186E-07 1.122595 -0.7284704
v 0.1063203 1.121864 -0.7359754
v -2.384186E-07 1.125731 -0.7278013
v -2.384186E-07 1.139274 -0.6418765
v 0.1072029 1.137374 -0.6517446
v -2.384186E-07 1.155549 -0.5375384
v 0.1084643 1.155687 -0.5490006
v -2.384186E-07 1.171082 -0.4190846
v 0.1103026 1.169519 -0.4268568
v -2.384186E-07 1.186146 -0.2891572
v 0.11271 1.183409 -0.2956699
v -2.384186E-07 1.191881 -0.1529189
v 0.1159327 1.19081 -0.1587374
v 0.1213129 1.188784 -0.003741682
v -2.384186E-07 1.191337 -8.630753E-05
v -2.384186E-07 1.170263 0.1752763
v 0.1282697 1.169582 0.1726997
v 0.2169269 1.144252 -0.5604589
v 0.2206035 1.159368 -0.4346271
v 0.3253896 1.132815 -0.5719191
v 0.3309043 1.148704 -0.4423974
v 0.4318486 1.103668 -0.5831678
v 0.4391823 1.122899 -0.4500273
v 0.3381266 1.165161 -0.3086991
v 0.4488005 1.141872 -0.3150965
v 0.3477928 1.170838 -0.1703765
v 0.4616894 1.146477 -0.1760932
v 0.242626 1.181929 -0.007396996
v 0.2318618 1.185305 -0.1645579
v 0.363939 1.169665 -0.01105237
v 0.4832062 1.145558 -0.01464427
v 0.3848097 1.152576 0.1567593
v 0.5110626 1.127006 0.1436069
v 0.4135814 1.1137 0.3189696
v 0.5494236 1.089551 0.2959837
v 0.2565397 1.162769 0.1647295
v 0.2254183 1.175095 -0.3021845
v 0.137861 1.131336 0.336931
v 0.2757241 1.125814 0.3298165
v -2.384186E-07 1.132898 0.3390499
v 0.5152082 1.126518 0.14393
v 0.5541 1.088424 0.2983623
v 0.5281357 1.126033 0.1471623
v 0.56701 1.086991 0.3015908
v 0.5510234 1.085649 0.3003314
v 0.1379917 1.128589 0.3397691
v -2.384186E-07 1.13016 0.341892
v 0.1379917 1.116163 0.3432206
v 0.2759817 1.110662 0.3361042
v 0.2759817 1.123087 0.3326546
v 0.4139718 1.098517 0.3252438
v 0.4139718 1.110943 0.3217924
v 0.5489486 1.074051 0.3039751
v -2.384186E-07 1.117736 0.3453435
v 0.5003196 1.14581 -0.01094085
v 0.487373 1.145237 -0.01417702
v 0.4788336 1.148896 -0.1724185
v 0.4658062 1.146435 -0.1756759
v 0.4659177 1.142845 -0.3114431
v 0.4529442 1.141639 -0.314687
v 0.4564131 1.128371 -0.4463661
v 0.4431973 1.123197 -0.4496715
v 0.4491773 1.111537 -0.579549
v 0.4357346 1.104153 -0.5829102
v 0.4435087 1.090962 -0.706398
v 0.430193 1.085905 -0.7055673
v 0.4262396 1.085697 -0.7050154
v 0.3216054 1.113304 -0.682643
v 0.4232361 1.066561 -0.8169065
v 0.3189518 1.096498 -0.7755324
v 0.2144042 1.126931 -0.6671947
v 0.2126409 1.113219 -0.7494546
v 0.4272068 1.066467 -0.8185852
v 0.4404668 1.069782 -0.8239999
vt 0.7086913 0.8858398
vt 0.7120479 0.883664
vt 0.7111186 0.8788531
vt 0.7075433 0.8800449
vt 0.7106375 0.8774318
vt 0.7070513 0.8784814
vt 0.6939635 0.8358835
vt 0.6901586 0.8361678
vt 0.686452 0.7952974
vt 0.6827564 0.7953303
vt 0.6838498 0.7560344
vt 0.6802198 0.7559578
vt 0.6834999 0.7173946
vt 0.6798809 0.7172852
vt 0.679028 0.7559141
vt 0.6787219 0.7172415
vt 0.6474952 0.7149235
vt 0.6480528 0.7538148
vt 0.609719 0.7118293
vt 0.6104735 0.7510486
vt 0.5670666 0.7081118
vt 0.5663887 0.7477685
vt 0.5204123 0.7039461
vt 0.5192205 0.7443025
vt 0.4718883 0.6997475
vt 0.4703795 0.7410223
vt 0.4154484 0.738114
vt 0.4177772 0.6952537
vt 0.3557173 0.6904538
vt 0.353126 0.7353259
vt 0.6116981 0.7906944
vt 0.5659294 0.7877095
vt 0.6126603 0.8305479
vt 0.5652844 0.8277597
vt 0.6140488 0.870795
vt 0.5650766 0.867974
vt 0.5167276 0.8253652
vt 0.515667 0.8662356
vt 0.4669681 0.8239876
vt 0.4651422 0.8657655
vt 0.4127368 0.781018
vt 0.4687285 0.7823082
vt 0.4095879 0.8241735
vt 0.4060125 0.8675476
vt 0.3490696 0.8258135
vt 0.3466533 0.872271
vt 0.2906834 0.830034
vt 0.2859382 0.8831829
vt 0.3515297 0.7804276
vt 0.5180396 0.7847792
vt 0.2947071 0.7341013
vt 0.2929139 0.7818817
vt 0.2971453 0.6862006
vt 0.3463799 0.8738017
vt 0.2848448 0.8849214
vt 0.3447945 0.8784814
vt 0.2835109 0.889929
vt 0.2836312 0.8836312
vt 0.2933294 0.7340795
vt 0.2957676 0.6861241
vt 0.2888466 0.7339482
vt 0.2870425 0.7819146
vt 0.2915363 0.7819036
vt 0.284812 0.8301651
vt 0.2892621 0.8300886
vt 0.2789515 0.8812367
vt 0.2912629 0.6859273
vt 0.4040773 0.8736486
vt 0.4056845 0.8690456
vt 0.4631851 0.8718774
vt 0.464847 0.8672305
vt 0.5136771 0.8722601
vt 0.5153718 0.8677117
vt 0.5628024 0.8743047
vt 0.5647814 0.8694173
vt 0.6115122 0.8775302
vt 0.6137645 0.8722163
vt 0.6594895 0.8815209
vt 0.6601673 0.8760978
vt 0.6601673 0.8745671
vt 0.6539679 0.8336639
vt 0.7058157 0.878711
vt 0.688934 0.8362225
vt 0.6510267 0.7934278
vt 0.6815647 0.7953193
vt 0.7063296 0.8804276
vt 0.707587 0.8864083
vt 1.708691 0.8858398
vt 1.707543 0.8800449
vt 1.711119 0.8788531
vt 1.712048 0.883664
vt 1.710637 0.8774318
vt 1.707051 0.8784814
vt 1.693964 0.8358835
vt 1.690159 0.8361678
vt 1.686452 0.7952974
vt 1.682756 0.7953303
vt 1.68385 0.7560344
vt 1.68022 0.7559578
vt 1.6835 0.7173946
vt 1.679881 0.7172852
vt 1.679028 0.7559141
vt 1.678722 0.7172415
vt 1.647495 0.7149235
vt 1.648053 0.7538148
vt 1.609719 0.7118293
vt 1.610474 0.7510486
vt 1.567067 0.7081118
vt 1.566389 0.7477685
vt 1.520412 0.7039461
vt 1.51922 0.7443025
vt 1.471888 0.6997475
vt 1.470379 0.7410223
vt 1.415448 0.738114
vt 1.417777 0.6952537
vt 1.355717 0.6904538
vt 1.353126 0.7353259
vt 1.611698 0.7906944
vt 1.565929 0.7877095
vt 1.61266 0.8305479
vt 1.565284 0.8277597
vt 1.614049 0.870795
vt 1.565077 0.867974
vt 1.516728 0.8253652
vt 1.515667 0.8662356
vt 1.466968 0.8239876
vt 1.465142 0.8657655
vt 1.412737 0.781018
vt 1.468728 0.7823082
vt 1.409588 0.8241735
vt 1.406013 0.8675476
vt 1.34907 0.8258135
vt 1.346653 0.872271
vt 1.290683 0.830034
vt 1.285938 0.8831829
vt 1.35153 0.7804276
vt 1.51804 0.7847792
vt 1.294707 0.7341013
vt 1.292903 0.7818817
vt 1.297145 0.6862006
vt 1.34638 0.8738017
vt 1.284845 0.8849214
vt 1.344795 0.8784814
vt 1.283511 0.889929
vt 1.283631 0.8836312
vt 1.293329 0.7340795
vt 1.295768 0.6861241
vt 1.288847 0.7339482
vt 1.287042 0.7819146
vt 1.291536 0.7819036
vt 1.284812 0.8301651
vt 1.289262 0.8300886
vt 1.278952 0.8812367
vt 1.291263 0.6859273
vt 1.404077 0.8736486
vt 1.405684 0.8690456
vt 1.463185 0.8718774
vt 1.464847 0.8672305
vt 1.513677 0.8722601
vt 1.515372 0.8677117
vt 1.562802 0.8743047
vt 1.564781 0.8694173
vt 1.611512 0.8775302
vt 1.613765 0.8722163
vt 1.65949 0.8815209
vt 1.660167 0.8760978
vt 1.660167 0.8745671
vt 1.653968 0.8336639
vt 1.705816 0.878711
vt 1.688934 0.8362225
vt 1.651027 0.7934278
vt 1.681565 0.7953193
vt 1.70633 0.8804276
vt 1.707587 0.8864083
vn 0.523962 0.1677976 -0.8350496
vn 0.3640487 0.1372524 -0.9212113
vn 0.3694391 0.0006972551 -0.9292547
vn 0.3730327 0.0006972551 -0.9278179
vn 0.3694391 0.0006972551 -0.9292547
vn 0.3694391 0.0006972551 -0.9292547
vn 0.3047551 0.0006972551 -0.9524305
vn 0.3047551 0.0006972551 -0.9524305
vn 0.1825742 0.0006972551 -0.9831918
vn 0.1825742 0.0006972551 -0.9831918
vn 0.1017191 0.0006972551 -0.9948129
vn 0.1017191 0.0006972551 -0.9948129
vn 0.07656419 0.0006972551 -0.9970644
vn 0.07656419 0.0006972551 -0.9970644
vn -0.03842962 0.9853318 -0.1662659
vn -0.01327473 0.9853318 -0.1701322
vn -0.002494037 0.9853318 -0.1706311
vn -0.03663284 0.9853318 -0.166671
vn 0.006489873 0.9889254 -0.1482714
vn -0.03842962 0.9889254 -0.1433517
vn -0.002494037 0.992519 -0.1220652
vn -0.04381996 0.992519 -0.1139559
vn -0.01327473 0.9961125 -0.08708397
vn -0.03842962 0.9961125 -0.07926528
vn -0.01507151 0.9997061 -0.01898968
vn -0.03482516 0.9993934 0
vn -0.03663284 0.9979094 0.05324449
vn -0.01507151 0.9979094 0.06284713
vn -0.01327473 0.9853318 0.1701322
vn -0.03663284 0.9853318 0.166671
vn -0.08694261 0.9853318 -0.1468406
vn -0.08334911 0.9889254 -0.1227984
vn -0.1624073 0.9745513 -0.1545111
vn -0.1534234 0.9799415 -0.1271841
vn -0.2324817 0.960177 -0.1549593
vn -0.221701 0.9655673 -0.1361195
vn -0.1498299 0.9835351 -0.101043
vn -0.2073268 0.9727544 -0.1037517
vn -0.1552202 0.9871287 -0.03851855
vn -0.2037333 0.9781447 -0.04154123
vn -0.07975554 0.9961125 0.03740136
vn -0.08155233 0.9961125 -0.03330171
vn -0.1534234 0.9871287 0.04514688
vn -0.2037333 0.9781447 0.04154123
vn -0.1516266 0.9781447 0.1422753
vn -0.20553 0.9691609 0.1359583
vn -0.1534234 0.9673641 0.2016628
vn -0.2073268 0.960177 0.187285
vn -0.07616198 0.9853318 0.1527105
vn -0.07975554 0.992519 -0.09244004
vn -0.03483605 0.9745513 0.2214413
vn -0.07616198 0.9745513 0.2108297
vn -0.01147795 0.9745513 0.2238707
vn 0.01188016 0.9835351 0.1803262
vn 0.2382743 0.895493 0.3759225
vn 0.09812552 0.9386156 0.3307146
vn 0.04242539 0.9961125 0.07720018
vn 0.5904428 -0.3676423 0.718482
vn -0.03842962 0.2666205 0.9630352
vn -0.01866508 0.2684173 0.9631219
vn -0.03842962 0.2666205 0.9630352
vn -0.07975554 0.2666205 0.960496
vn -0.07975554 0.2666205 0.960496
vn -0.1480331 0.2648237 0.9528666
vn -0.1480331 0.2648237 0.9528666
vn -0.8379961 -0.03164476 0.5447579
vn -0.01866508 0.2684173 0.9631219
vn 0.1178901 0.9907222 -0.06761197
vn 0.08015776 0.9943158 0.07007729
vn 0.1664031 0.976348 -0.1380386
vn 0.1285647 0.9917011 0
vn 0.2598356 0.9637706 0.06026417
vn 0.1717935 0.9835351 -0.05608649
vn 0.4017811 0.9152575 0.02959041
vn 0.3083487 0.9458027 -0.1018739
vn 0.4377167 0.8487768 -0.2966178
vn 0.4053747 0.9062737 -0.1197472
vn 0.4805375 0.8769742 0
vn 0.3694391 0.9188511 -0.1386633
vn -0.221701 0.960177 -0.1700259
vn -0.1606106 0.9727544 -0.1671918
vn -0.2109204 0.9619737 -0.1735486
vn -0.1588138 0.9709577 -0.1789394
vn -0.08694261 0.9817383 -0.1692069
vn -0.08514583 0.9817383 -0.170118
vn 0.32991 0.9314285 -0.1536242
vn 0.5652879 0.214514 -0.7965133
vn -0.4462983 0.2450592 -0.8606764
vn -0.3726304 0.0006972551 -0.9279796
vn -0.3708337 0.0006972551 -0.928699
vn -0.3636466 0.1372524 -0.9213701
vn -0.3690369 0.0006972551 -0.9294145
vn -0.3690369 0.0006972551 -0.9294145
vn -0.3043528 0.0006972551 -0.9525591
vn -0.3043528 0.0006972551 -0.9525591
vn -0.1821719 0.0006972551 -0.9832665
vn -0.1821719 0.0006972551 -0.9832665
vn -0.1013169 0.0006972551 -0.994854
vn -0.1013169 0.0006972551 -0.994854
vn 0.07656419 0.0006972551 -0.9970644
vn 0.07656419 0.0006972551 -0.9970644
vn 0.03883183 0.9853318 -0.1661723
vn -0.01327473 0.9853318 -0.1701322
vn -0.002494037 0.9853318 -0.1706311
vn 0.03703505 0.9853318 -0.1665819
vn 0.006489873 0.9889254 -0.1482714
vn 0.03883183 0.9889254 -0.1432431
vn -0.002494037 0.992519 -0.1220652
vn 0.04242539 0.992519 -0.1144822
vn -0.01327473 0.9961125 -0.08708397
vn 0.03883183 0.9961125 -0.07906878
vn -0.01507151 0.9997061 -0.01898968
vn 0.03522681 0.9993793 0
vn 0.03523833 0.9979094 0.05417722
vn -0.01507151 0.9979094 0.06284713
vn -0.01327473 0.9853318 0.1701322
vn 0.03703505 0.9853318 0.1665819
vn 0.08734488 0.9853318 -0.1466015
vn 0.08375132 0.9889254 -0.1225245
vn 0.1628096 0.9745513 -0.1540872
vn 0.1538257 0.9799415 -0.1266975
vn 0.2328839 0.960177 -0.154354
vn 0.2203065 0.9655673 -0.1383651
vn 0.1502321 0.9835351 -0.1004439
vn 0.2059323 0.9727544 -0.1064929
vn 0.1556225 0.9871287 -0.03685958
vn 0.2041355 0.9781447 -0.03951761
vn 0.08015776 0.9961125 0.03653147
vn 0.08015776 0.9961125 -0.03653147
vn 0.1538257 0.9871287 0.04375705
vn 0.2023387 0.9781447 0.0478746
vn 0.1502321 0.9781447 0.143747
vn 0.2059323 0.9691609 0.1353482
vn 0.1520289 0.9673641 0.2027163
vn 0.207729 0.960177 0.1868387
vn 0.07656419 0.9853318 0.1525094
vn 0.08015776 0.992519 -0.09209152
vn 0.03523833 0.9745513 0.2213777
vn 0.07656419 0.9745513 0.210684
vn -0.01147795 0.9745513 0.2238707
vn -0.01147795 0.9835351 0.1803523
vn 0.1664031 0.9350221 0.3131194
vn -0.06717807 0.9961125 0.0569816
vn -0.07077163 0.992519 0.09948603
vn 0.5113846 0.8164347 -0.2681794
vn 0.03883183 0.2666205 0.963019
vn -0.01866508 0.2684173 0.9631219
vn 0.03883183 0.2666205 0.963019
vn 0.08015776 0.2666205 0.9604625
vn 0.08015776 0.2666205 0.9604625
vn 0.1466386 0.2648237 0.9530821
vn 0.1484354 0.2648237 0.952804
vn 0.8383983 -0.03164476 0.5441387
vn -0.01866508 0.2684173 0.9631219
vn -0.1947493 0.9799415 -0.04227653
vn -0.07975554 0.9943158 0.07053468
vn -0.2432624 0.9655673 -0.09221312
vn -0.1281695 0.9917523 0
vn -0.1965461 0.960177 -0.1985692
vn -0.1713912 0.9835351 -0.05730392
vn -0.3205238 0.9062737 -0.2755585
vn -0.3079464 0.9458027 -0.1030834
vn -0.5325437 0.8128411 -0.2359798
vn -0.4067692 0.9062737 -0.114921
vn -0.3744271 0.870338 -0.3198689
vn -0.3690369 0.9188511 -0.1397302
vn 0.2221032 0.960177 -0.1694999
vn 0.1610128 0.9727544 -0.1668045
vn 0.2113226 0.9619737 -0.1730587
vn 0.159216 0.9709577 -0.1785817
vn 0.08734488 0.9817383 -0.1689995
vn 0.0855481 0.9817383 -0.1699161
vn -0.3295078 0.9314285 -0.1544851
vn -0.7230023 0.2612302 -0.6395518
g model_car_127_body_roof_LOD0_0
f 3/3/3 2/2/2 1/1/1
f 4/4/4 3/3/3 1/1/1
f 5/5/5 3/3/3 4/4/4
f 6/6/6 5/5/5 4/4/4
f 7/7/7 5/5/5 6/6/6
f 8/8/8 7/7/7 6/6/6
f 9/9/9 7/7/7 8/8/8
f 10/10/10 9/9/9 8/8/8
f 11/11/11 9/9/9 10/10/10
f 12/12/12 11/11/11 10/10/10
f 13/13/13 11/11/11 12/12/12
f 14/14/14 13/13/13 12/12/12
f 14/14/14 12/12/12 15/15/15
f 16/16/16 14/14/14 15/15/15
f 17/17/17 16/16/16 15/15/15
f 18/18/18 17/17/17 15/15/15
f 19/19/19 17/17/17 18/18/18
f 20/20/20 19/19/19 18/18/18
f 21/21/21 19/19/19 20/20/20
f 22/22/22 21/21/21 20/20/20
f 23/23/23 21/21/21 22/22/22
f 24/24/24 23/23/23 22/22/22
f 25/25/25 23/23/23 24/24/24
f 26/26/26 25/25/25 24/24/24
f 25/25/25 26/26/26 27/27/27
f 28/28/28 25/25/25 27/27/27
f 29/29/29 28/28/28 27/27/27
f 30/30/30 29/29/29 27/27/27
f 22/22/22 20/20/20 31/31/31
f 32/32/32 22/22/22 31/31/31
f 24/24/24 22/22/22 32/32/32
f 32/32/32 31/31/31 33/33/33
f 34/34/34 32/32/32 33/33/33
f 34/34/34 33/33/33 35/35/35
f 36/36/36 34/34/34 35/35/35
f 37/37/37 34/34/34 36/36/36
f 38/38/38 37/37/37 36/36/36
f 39/39/39 37/37/37 38/38/38
f 40/40/40 39/39/39 38/38/38
f 27/27/27 26/26/26 41/41/41
f 30/30/30 27/27/27 41/41/41
f 26/26/26 42/42/42 41/41/41
f 39/39/39 42/42/42 37/37/37
f 42/42/42 39/39/39 43/43/43
f 41/41/41 42/42/42 43/43/43
f 39/39/39 40/40/40 44/44/44
f 43/43/43 39/39/39 44/44/44
f 45/45/45 43/43/43 44/44/44
f 46/46/46 45/45/45 44/44/44
f 45/45/45 46/46/46 47/47/47
f 46/46/46 48/48/48 47/47/47
f 49/49/49 41/41/41 43/43/43
f 45/45/45 49/49/49 43/43/43
f 49/49/49 30/30/30 41/41/41
f 42/42/42 50/50/50 37/37/37
f 42/42/42 26/26/26 50/50/50
f 37/37/37 50/50/50 34/34/34
f 50/50/50 32/32/32 34/34/34
f 50/50/50 24/24/24 32/32/32
f 26/26/26 24/24/24 50/50/50
f 30/30/30 49/49/49 51/51/51
f 49/49/49 52/52/52 51/51/51
f 45/45/45 47/47/47 52/52/52
f 49/49/49 45/45/45 52/52/52
f 30/30/30 51/51/51 53/53/53
f 29/29/29 30/30/30 53/53/53
f 46/46/46 54/54/54 48/48/48
f 54/54/54 55/55/55 48/48/48
f 55/55/55 54/54/54 56/56/56
f 57/57/57 55/55/55 56/56/56
f 55/55/55 58/58/58 48/48/48
f 53/53/53 51/51/51 59/59/59
f 60/60/60 53/53/53 59/59/59
f 59/59/59 61/61/61 60/60/60
f 62/62/62 61/61/61 59/59/59
f 63/63/63 62/62/62 59/59/59
f 51/51/51 52/52/52 63/63/63
f 59/59/59 51/51/51 63/63/63
f 64/64/64 62/62/62 63/63/63
f 65/65/65 64/64/64 63/63/63
f 63/63/63 52/52/52 65/65/65
f 65/65/65 58/58/58 66/66/66
f 64/64/64 65/65/65 66/66/66
f 61/61/61 67/67/67 60/60/60
f 65/65/65 47/47/47 58/58/58
f 47/47/47 48/48/48 58/58/58
f 52/52/52 47/47/47 65/65/65
f 56/56/56 54/54/54 68/68/68
f 54/54/54 69/69/69 68/68/68
f 68/68/68 69/69/69 70/70/70
f 69/69/69 71/71/71 70/70/70
f 70/70/70 71/71/71 72/72/72
f 71/71/71 73/73/73 72/72/72
f 72/72/72 73/73/73 74/74/74
f 73/73/73 75/75/75 74/74/74
f 74/74/74 75/75/75 76/76/76
f 75/75/75 77/77/77 76/76/76
f 76/76/76 77/77/77 78/78/78
f 77/77/77 79/79/79 78/78/78
f 75/75/75 73/73/73 38/38/38
f 36/36/36 75/75/75 38/38/38
f 77/77/77 75/75/75 36/36/36
f 77/77/77 35/35/35 79/79/79
f 35/35/35 77/77/77 36/36/36
f 35/35/35 80/80/80 79/79/79
f 69/69/69 44/44/44 71/71/71
f 44/44/44 40/40/40 71/71/71
f 73/73/73 71/71/71 40/40/40
f 38/38/38 73/73/73 40/40/40
f 35/35/35 33/33/33 80/80/80
f 33/33/33 81/81/81 80/80/80
f 80/80/80 81/81/81 82/82/82
f 81/81/81 83/83/83 82/82/82
f 33/33/33 31/31/31 81/81/81
f 31/31/31 84/84/84 81/81/81
f 81/81/81 84/84/84 83/83/83
f 31/31/31 20/20/20 84/84/84
f 20/20/20 18/18/18 84/84/84
f 84/84/84 18/18/18 85/85/85
f 84/84/84 85/85/85 83/83/83
f 18/18/18 15/15/15 85/85/85
f 82/82/82 86/86/86 80/80/80
f 86/86/86 79/79/79 80/80/80
f 79/79/79 86/86/86 87/87/87
f 78/78/78 79/79/79 87/87/87
f 85/85/85 10/10/10 83/83/83
f 10/10/10 8/8/8 83/83/83
f 82/82/82 83/83/83 8/8/8
f 12/12/12 10/10/10 85/85/85
f 15/15/15 12/12/12 85/85/85
f 86/86/86 82/82/82 6/6/6
f 6/6/6 82/82/82 8/8/8
f 4/4/4 86/86/86 6/6/6
f 87/87/87 86/86/86 4/4/4
f 1/1/1 87/87/87 4/4/4
f 69/69/69 54/54/54 46/46/46
f 44/44/44 69/69/69 46/46/46
f 90/90/90 89/89/89 88/88/88
f 91/91/91 90/90/90 88/88/88
f 90/90/90 92/92/92 89/89/89
f 92/92/92 93/93/93 89/89/89
f 92/92/92 94/94/94 93/93/93
f 94/94/94 95/95/95 93/93/93
f 94/94/94 96/96/96 95/95/95
f 96/96/96 97/97/97 95/95/95
f 96/96/96 98/98/98 97/97/97
f 98/98/98 99/99/99 97/97/97
f 98/98/98 100/100/100 99/99/99
f 100/100/100 101/101/101 99/99/99
f 99/99/99 101/101/101 102/102/102
f 101/101/101 103/103/103 102/102/102
f 103/103/103 104/104/104 102/102/102
f 104/104/104 105/105/105 102/102/102
f 104/104/104 106/106/106 105/105/105
f 106/106/106 107/107/107 105/105/105
f 106/106/106 108/108/108 107/107/107
f 108/108/108 109/109/109 107/107/107
f 108/108/108 110/110/110 109/109/109
f 110/110/110 111/111/111 109/109/109
f 110/110/110 112/112/112 111/111/111
f 112/112/112 113/113/113 111/111/111
f 113/113/113 112/112/112 114/114/114
f 112/112/112 115/115/115 114/114/114
f 115/115/115 116/116/116 114/114/114
f 116/116/116 117/117/117 114/114/114
f 107/107/107 109/109/109 118/118/118
f 109/109/109 119/119/119 118/118/118
f 109/109/109 111/111/111 119/119/119
f 118/118/118 119/119/119 120/120/120
f 119/119/119 121/121/121 120/120/120
f 120/120/120 121/121/121 122/122/122
f 121/121/121 123/123/123 122/122/122
f 121/121/121 124/124/124 123/123/123
f 124/124/124 125/125/125 123/123/123
f 124/124/124 126/126/126 125/125/125
f 126/126/126 127/127/127 125/125/125
f 113/113/113 114/114/114 128/128/128
f 114/114/114 117/117/117 128/128/128
f 129/129/129 113/113/113 128/128/128
f 129/129/129 126/126/126 124/124/124
f 129/129/129 128/128/128 130/130/130
f 126/126/126 129/129/129 130/130/130
f 126/126/126 130/130/130 131/131/131
f 127/127/127 126/126/126 131/131/131
f 130/130/130 132/132/132 131/131/131
f 132/132/132 133/133/133 131/131/131
f 133/133/133 132/132/132 134/134/134
f 135/135/135 133/133/133 134/134/134
f 136/136/136 132/132/132 130/130/130
f 128/128/128 136/136/136 130/130/130
f 117/117/117 136/136/136 128/128/128
f 137/137/137 129/129/129 124/124/124
f 137/137/137 124/124/124 121/121/121
f 119/119/119 137/137/137 121/121/121
f 111/111/111 137/137/137 119/119/119
f 113/113/113 129/129/129 137/137/137
f 111/111/111 113/113/113 137/137/137
f 136/136/136 117/117/117 138/138/138
f 139/139/139 136/136/136 138/138/138
f 132/132/132 136/136/136 139/139/139
f 134/134/134 132/132/132 139/139/139
f 138/138/138 117/117/117 140/140/140
f 117/117/117 116/116/116 140/140/140
f 141/141/141 133/133/133 135/135/135
f 142/142/142 141/141/141 135/135/135
f 141/141/141 142/142/142 143/143/143
f 142/142/142 144/144/144 143/143/143
f 145/145/145 142/142/142 135/135/135
f 138/138/138 140/140/140 146/146/146
f 140/140/140 147/147/147 146/146/146
f 148/148/148 146/146/146 147/147/147
f 148/148/148 149/149/149 146/146/146
f 149/149/149 150/150/150 146/146/146
f 138/138/138 146/146/146 150/150/150
f 139/139/139 138/138/138 150/150/150
f 149/149/149 151/151/151 150/150/150
f 151/151/151 152/152/152 150/150/150
f 139/139/139 150/150/150 152/152/152
f 152/152/152 151/151/151 153/153/153
f 145/145/145 152/152/152 153/153/153
f 154/154/154 148/148/148 147/147/147
f 134/134/134 152/152/152 145/145/145
f 135/135/135 134/134/134 145/145/145
f 134/134/134 139/139/139 152/152/152
f 141/141/141 143/143/143 155/155/155
f 156/156/156 141/141/141 155/155/155
f 156/156/156 155/155/155 157/157/157
f 158/158/158 156/156/156 157/157/157
f 158/158/158 157/157/157 159/159/159
f 160/160/160 158/158/158 159/159/159
f 160/160/160 159/159/159 161/161/161
f 162/162/162 160/160/160 161/161/161
f 162/162/162 161/161/161 163/163/163
f 164/164/164 162/162/162 163/163/163
f 164/164/164 163/163/163 165/165/165
f 166/166/166 164/164/164 165/165/165
f 160/160/160 162/162/162 125/125/125
f 162/162/162 123/123/123 125/125/125
f 162/162/162 164/164/164 123/123/123
f 122/122/122 164/164/164 166/166/166
f 164/164/164 122/122/122 123/123/123
f 167/167/167 122/122/122 166/166/166
f 131/131/131 156/156/156 158/158/158
f 127/127/127 131/131/131 158/158/158
f 160/160/160 125/125/125 127/127/127
f 158/158/158 160/160/160 127/127/127
f 120/120/120 122/122/122 167/167/167
f 168/168/168 120/120/120 167/167/167
f 168/168/168 167/167/167 169/169/169
f 170/170/170 168/168/168 169/169/169
f 118/118/118 120/120/120 168/168/168
f 171/171/171 118/118/118 168/168/168
f 171/171/171 168/168/168 170/170/170
f 107/107/107 118/118/118 171/171/171
f 105/105/105 107/107/107 171/171/171
f 105/105/105 171/171/171 172/172/172
f 172/172/172 171/171/171 170/170/170
f 102/102/102 105/105/105 172/172/172
f 173/173/173 169/169/169 167/167/167
f 166/166/166 173/173/173 167/167/167
f 173/173/173 166/166/166 174/174/174
f 166/166/166 165/165/165 174/174/174
f 97/97/97 172/172/172 170/170/170
f 95/95/95 97/97/97 170/170/170
f 170/170/170 169/169/169 95/95/95
f 99/99/99 102/102/102 172/172/172
f 97/97/97 99/99/99 172/172/172
f 169/169/169 173/173/173 93/93/93
f 169/169/169 93/93/93 95/95/95
f 173/173/173 89/89/89 93/93/93
f 173/173/173 174/174/174 89/89/89
f 174/174/174 88/88/88 89/89/89
f 156/156/156 131/131/131 133/133/133
f 141/141/141 156/156/156 133/133/133
