g Glass_21
v -0.5253 1.1022 -1.3201
v -0.2629 1.1194 -1.3621
v -0.5243 1.1518 -1.1
v -0.3978 0.9913003 -1.7987
v -0.2736 0.9915003 -1.8322
v 0 1.1237 -1.3671
v -0.2623 1.1675 -1.1279
v -0.5235 1.1905 -0.9041998
v -0.2618 1.2049 -0.9193998
v 0 1.2088 -0.9281998
v -0.5218 0.9909003 -1.738
v 0 1.1716 -1.1348
v 0 0.9942003 -1.8632
v 0.5253 1.1022 -1.3201
v 0.5243 1.1518 -1.1
v 0.2629 1.1194 -1.3621
v 0.3978 0.9913003 -1.7987
v 0.2736 0.9915003 -1.8322
v 0 1.1237 -1.3671
v 0.2623 1.1675 -1.1279
v 0.5235 1.1905 -0.9041998
v 0.2618 1.2049 -0.9193998
v 0 1.2088 -0.9281998
v 0.5218 0.9909003 -1.738
v 0 1.1716 -1.1348
v 0 0.9942003 -1.8632
v -0.6668 1.0522 -1.0061
v -0.6282 1.1433 -0.8942998
v -0.7246 0.9421001 -0.8625998
v -0.6329 1.102 -1.0705
v -0.7194 0.9470002 -1.0069
v -0.7303 0.9370001 -0.6888998
v -0.6252 1.1703 -0.7649998
v -0.6123 1.203 -0.4396998
v -0.6135 1.2007 -0.2022998
v -0.623 1.1539 0.005300188
v -0.6908 1.0355 0.2518002
v -0.7745 0.8932999 0.5373001
v -0.6387 1.0437 -1.2946
v -0.6559 1.049 -1.1476
v -0.6559 1.049 -1.1476
v -0.6329 1.102 -1.0705
v -0.6627 1.0514 -1.059
v -0.6668 1.0522 -1.0061
v 0.6668 1.0522 -1.0061
v 0.7246 0.9421001 -0.8625998
v 0.6282 1.1433 -0.8942998
v 0.6329 1.102 -1.0705
v 0.7194 0.9470002 -1.0069
v 0.7303 0.9370001 -0.6888998
v 0.6252 1.1703 -0.7649998
v 0.6123 1.203 -0.4396998
v 0.6135 1.2007 -0.2022998
v 0.623 1.1539 0.005300188
v 0.6908 1.0355 0.2518002
v 0.7745 0.8932999 0.5373001
v 0.6387 1.0437 -1.2946
v 0.6559 1.049 -1.1476
v 0.6559 1.049 -1.1476
v 0.6627 1.0514 -1.059
v 0.6329 1.102 -1.0705
v 0.6668 1.0522 -1.0061
v -0.5867 1.182 -0.02289981
v -0.5366 1.1914 -0.01159981
v -0.6087 1.1363 0.1080002
v -0.5567 1.1457 0.1192002
v -0.2937 1.2036 0.0359002
v -0.3046 1.1579 0.1667002
v 0 1.2054 0.0570002
v -0.5903 0.8921999 0.8240001
v -0.3552 0.9050998 0.9170001
v 0 1.1598 0.1879002
v 0.3047 1.1592 0.1672002
v -0.7099 0.8967999 0.7093001
v 0.2934 1.2043 0.0383002
v 0.3549 0.9057998 0.9194001
v 0 0.9069998 0.9668001
v 0.5568 1.146 0.1193002
v 0.5365 1.1916 -0.01109981
v 0.6087 1.1363 0.1080002
v 0.5903 0.8923999 0.8246001
v 0.7099 0.8967999 0.7093001
v 0.5867 1.182 -0.02289981
vt 0.2786 0.826
vt 0.2666 0.9115
vt 0.3474 0.8267
vt 0.1278 0.8657
vt 0.1175 0.9063
vt 0.2648 0.9969
vt 0.3395 0.9121
vt 0.4081 0.8272
vt 0.4041 0.9125
vt 0.4016 0.9977
vt 0.1462 0.8251
vt 0.3374 0.9975
vt 0.1078 0.9954
vt 0.2786 0.826
vt 0.3474 0.8267
vt 0.2666 0.9115
vt 0.1278 0.8657
vt 0.1175 0.9063
vt 0.2648 0.9969
vt 0.3395 0.9121
vt 0.4081 0.8272
vt 0.4041 0.9125
vt 0.4016 0.9977
vt 0.1462 0.8251
vt 0.3374 0.9975
vt 0.1078 0.9954
vt 0.2061 0.0955
vt 0.2061 0.0955
vt 0.2061 0.0955
vt 0.2061 0.0955
vt 0.2061 0.0955
vt 0.2061 0.0955
vt 0.2061 0.0955
vt 0.2061 0.0955
vt 0.2061 0.0955
vt 0.2061 0.0955
vt 0.2061 0.0955
vt 0.2061 0.0955
vt 0.2061 0.0955
vt 0.0245 0.6545
vt 0.0245 0.6545
vt 0.2061 0.0955
vt 0.0657 0.7354
vt 0.0955 0.7939
vt 0.2061 0.0955
vt 0.2061 0.0955
vt 0.2061 0.0955
vt 0.2061 0.0955
vt 0.2061 0.0955
vt 0.2061 0.0955
vt 0.2061 0.0955
vt 0.2061 0.0955
vt 0.2061 0.0955
vt 0.2061 0.0955
vt 0.2061 0.0955
vt 0.2061 0.0955
vt 0.2061 0.0955
vt 0.0245 0.6545
vt 0.0245 0.6545
vt 0.0657 0.7354
vt 0.2061 0.0955
vt 0.0955 0.7939
vt 0 1
vt 0.2001 1
vt 0 0.8479
vt 0.2001 0.8479
vt 0.3252 1
vt 0.3252 0.8479
vt 0.5024 1
vt 0.2001 0
vt 0.3252 0
vt 0.5024 0.8479
vt 0.7552 0.8501
vt 0 0
vt 0.7548 1
vt 0.7548 0
vt 0.5024 0
vt 0.9271 0.8486
vt 0.927 1
vt 1 0.8479
vt 0.927 0
vt 1 0
vt 1 1
vn -0.1027094 0.9669179 -0.233496
vn -0.05687738 0.9710211 -0.2321273
vn -0.08419645 0.975967 -0.2009955
vn -0.09441827 0.9616831 -0.2573925
vn -0.050328 0.9649447 -0.2575826
vn 0 0.9729919 -0.2308393
vn -0.04795917 0.9805001 -0.1905767
vn -0.07272548 0.9799177 -0.1856672
vn -0.04294852 0.9833999 -0.1762958
vn 0 0.9842276 -0.1769068
vn -0.1285198 0.9580337 -0.2562307
vn 0 0.9818656 -0.1895781
vn 0 0.9675779 -0.2525727
vn 0.1027094 0.966918 -0.233496
vn 0.08419643 0.975967 -0.2009954
vn 0.05687737 0.9710211 -0.2321273
vn 0.09441827 0.9616831 -0.2573924
vn 0.050328 0.9649447 -0.2575826
vn 0 0.9729919 -0.2308393
vn 0.04795918 0.9805001 -0.1905767
vn 0.07272548 0.9799177 -0.1856672
vn 0.04294852 0.9833999 -0.1762958
vn 0 0.9842276 -0.1769068
vn 0.1285198 0.9580337 -0.2562304
vn 0 0.9818656 -0.1895781
vn 0 0.9675779 -0.2525727
vn -0.8860514 0.4600125 -0.05745742
vn -0.9037457 0.4252115 -0.04938531
vn -0.9011554 0.4329682 -0.02138546
vn -0.8651154 0.4940543 -0.08651988
vn -0.8942454 0.4472525 -0.01703715
vn -0.9087359 0.4171414 -0.01385789
vn -0.9154583 0.4008496 -0.03543478
vn -0.9134825 0.4068744 -0.001756243
vn -0.9326563 0.3595994 0.02899258
vn -0.8918452 0.4523274 -0.003478487
vn -0.874938 0.4840343 -0.01394427
vn -0.873897 0.4859042 -0.01418382
vn -0.8373681 0.5339215 -0.1172285
vn -0.8437797 0.5254081 -0.1094631
vn -0.8437797 0.5254081 -0.1094631
vn -0.8651154 0.4940543 -0.08651988
vn -0.8666643 0.4929315 -0.07688608
vn -0.8860514 0.4600125 -0.05745742
vn 0.8860514 0.4600125 -0.05745742
vn 0.9011554 0.4329682 -0.02138546
vn 0.9037457 0.4252115 -0.04938531
vn 0.8651154 0.4940543 -0.08651988
vn 0.8942454 0.4472525 -0.01703715
vn 0.9087359 0.4171414 -0.01385789
vn 0.9154583 0.4008496 -0.03543478
vn 0.9134825 0.4068744 -0.001756243
vn 0.9326563 0.3595994 0.02899258
vn 0.8918452 0.4523274 -0.003478487
vn 0.874938 0.4840343 -0.01394427
vn 0.873897 0.4859042 -0.01418382
vn 0.8373681 0.5339215 -0.1172285
vn 0.8437797 0.5254081 -0.1094631
vn 0.8437797 0.5254081 -0.1094631
vn 0.8666643 0.4929315 -0.07688608
vn 0.8651154 0.4940543 -0.08651988
vn 0.8860514 0.4600125 -0.05745742
vn -0.2383367 0.9286791 0.2841668
vn -0.1734714 0.9381329 0.2996903
vn -0.2339126 0.9225532 0.3068881
vn -0.1736859 0.932856 0.3156153
vn -0.06896571 0.9439408 0.3228303
vn -0.07132626 0.9435666 0.3234108
vn -0.002381501 0.9444287 0.3287076
vn -0.1949938 0.9300119 0.3115368
vn -0.100486 0.9459777 0.3082672
vn -0.002243699 0.9467744 0.32189
vn 0.07115845 0.9435649 0.3234529
vn -0.2657423 0.9110335 0.3152763
vn 0.06860316 0.9439114 0.3229938
vn 0.09991886 0.9460469 0.3082392
vn -0.001867221 0.9511552 0.3087074
vn 0.1786836 0.9322336 0.3146629
vn 0.1785924 0.9375025 0.2986534
vn 0.2397548 0.9215222 0.3054742
vn 0.1984496 0.9294248 0.3111066
vn 0.2685848 0.910359 0.3148156
vn 0.243886 0.9276338 0.2828695
g Glass_21_0
f 3/3/3 2/2/2 1/1/1
f 1/1/1 2/2/2 4/4/4
f 5/5/5 4/4/4 2/2/2
f 6/6/6 5/5/5 2/2/2
f 7/7/7 2/2/2 3/3/3
f 8/8/8 7/7/7 3/3/3
f 9/9/9 7/7/7 8/8/8
f 10/10/10 7/7/7 9/9/9
f 1/1/1 4/4/4 11/11/11
f 7/7/7 12/12/12 2/2/2
f 7/7/7 10/10/10 12/12/12
f 2/2/2 12/12/12 6/6/6
f 5/5/5 6/6/6 13/13/13
f 16/16/16 15/15/15 14/14/14
f 16/16/16 14/14/14 17/17/17
f 17/17/17 18/18/18 16/16/16
f 18/18/18 19/19/19 16/16/16
f 16/16/16 20/20/20 15/15/15
f 20/20/20 21/21/21 15/15/15
f 20/20/20 22/22/22 21/21/21
f 20/20/20 23/23/23 22/22/22
f 14/14/14 24/24/24 17/17/17
f 20/20/20 16/16/16 25/25/25
f 23/23/23 20/20/20 25/25/25
f 25/25/25 16/16/16 19/19/19
f 19/19/19 18/18/18 26/26/26
f 29/29/29 28/28/28 27/27/27
f 27/27/27 28/28/28 30/30/30
f 31/31/31 29/29/29 27/27/27
f 29/29/29 32/32/32 28/28/28
f 28/28/28 32/32/32 33/33/33
f 32/32/32 34/34/34 33/33/33
f 35/35/35 34/34/34 32/32/32
f 35/35/35 32/32/32 36/36/36
f 37/37/37 36/36/36 32/32/32
f 38/38/38 37/37/37 32/32/32
f 40/40/40 30/30/30 39/39/39
f 43/43/43 42/42/42 41/41/41
f 44/44/44 42/42/42 43/43/43
f 47/47/47 46/46/46 45/45/45
f 47/47/47 45/45/45 48/48/48
f 46/46/46 49/49/49 45/45/45
f 50/50/50 46/46/46 47/47/47
f 50/50/50 47/47/47 51/51/51
f 52/52/52 50/50/50 51/51/51
f 52/52/52 53/53/53 50/50/50
f 50/50/50 53/53/53 54/54/54
f 54/54/54 55/55/55 50/50/50
f 55/55/55 56/56/56 50/50/50
f 48/48/48 58/58/58 57/57/57
f 61/61/61 60/60/60 59/59/59
f 61/61/61 62/62/62 60/60/60
f 65/65/65 64/64/64 63/63/63
f 66/66/66 64/64/64 65/65/65
f 67/67/67 64/64/64 66/66/66
f 68/68/68 67/67/67 66/66/66
f 69/69/69 67/67/67 68/68/68
f 66/66/66 70/70/70 68/68/68
f 68/68/68 70/70/70 71/71/71
f 72/72/72 68/68/68 71/71/71
f 72/72/72 69/69/69 68/68/68
f 73/73/73 69/69/69 72/72/72
f 74/74/74 70/70/70 66/66/66
f 65/65/65 74/74/74 66/66/66
f 75/75/75 69/69/69 73/73/73
f 73/73/73 72/72/72 76/76/76
f 76/76/76 72/72/72 77/77/77
f 77/77/77 72/72/72 71/71/71
f 73/73/73 78/78/78 75/75/75
f 75/75/75 78/78/78 79/79/79
f 79/79/79 78/78/78 80/80/80
f 73/73/73 81/81/81 78/78/78
f 76/76/76 81/81/81 73/73/73
f 78/78/78 81/81/81 82/82/82
f 80/80/80 78/78/78 82/82/82
f 83/83/83 79/79/79 80/80/80
