g ref_21
v -0.7969 0.6655997 1.8598
v -0.8069 0.7506997 1.706
v -0.7419 0.7256997 1.8469
v -0.7681 0.6175997 1.9325
v -0.4989 0.6598997 2.0195
v -0.4613 0.5908996 2.1218
v -0.706 0.7507997 1.7464
v 0.7969 0.6655997 1.8598
v 0.7419 0.7256997 1.8469
v 0.8069 0.7506997 1.706
v 0.7681 0.6175997 1.9325
v 0.4989 0.6598997 2.0195
v 0.4613 0.5908996 2.1218
v 0.706 0.7507997 1.7464
vt 0 0.4271
vt 0 1
vt 0.2003 0.4271
vt 0 0
vt 1 0.4271
vt 1 0
vt 1 1
vt 0 0.4271
vt 0.2003 0.4271
vt 0 1
vt 0 0
vt 1 0.4271
vt 1 0
vt 1 1
vn -0.5629908 0.6300281 0.5348886
vn -0.3123999 0.9000576 0.3038137
vn -0.292338 0.843038 0.4514703
vn -0.3741906 0.6434817 0.6677669
vn -0.2777154 0.7523876 0.5973166
vn -0.3111459 0.7309473 0.6073749
vn -0.02715231 0.9720787 0.2330787
vn 0.5629908 0.6300281 0.5348886
vn 0.2923381 0.843038 0.4514702
vn 0.3123999 0.9000576 0.3038137
vn 0.3741909 0.6434817 0.6677667
vn 0.2777158 0.7523876 0.5973164
vn 0.3111463 0.7309473 0.6073747
vn 0.02715231 0.9720787 0.2330787
g ref_21_0
f 3/3/3 2/2/2 1/1/1
f 4/4/4 3/3/3 1/1/1
f 3/3/3 4/4/4 5/5/5
f 6/6/6 5/5/5 4/4/4
f 7/7/7 2/2/2 3/3/3
f 5/5/5 7/7/7 3/3/3
f 10/10/10 9/9/9 8/8/8
f 9/9/9 11/11/11 8/8/8
f 9/9/9 12/12/12 11/11/11
f 13/13/13 11/11/11 12/12/12
f 10/10/10 14/14/14 9/9/9
f 14/14/14 12/12/12 9/9/9
