g Taillights_21
v -0.832 0.7633003 -2.0005
v -0.8139 0.9093013 -1.9827
v -0.8364 0.9073003 -1.9308
v -0.7829 0.9121004 -2.0214
v -0.7956 0.7633004 -2.0383
v -0.7373 0.7633004 -2.0717
v -0.7255 0.9168004 -2.0548
v -0.4387 0.7633014 -2.1505
v -0.5029 0.9265013 -2.126
v -0.7255 0.9168004 -2.0548
v -0.5951 0.9205003 -2.0743
v -0.6933 0.9166003 -2.0069
v -0.5029 0.9265013 -2.126
v -0.7413 0.9143013 -1.973
v -0.783 0.9117003 -1.9325
v -0.8139 0.9093013 -1.9827
v -0.7829 0.9121004 -2.0214
v -0.8364 0.9073003 -1.9308
v -0.7956 0.7633004 -2.0383
v -0.7765 0.7495003 -1.9767
v -0.718 0.7495003 -2.0101
v -0.7373 0.7633004 -2.0717
v -0.4273 0.7495003 -2.0868
v -0.4387 0.7633014 -2.1505
v -0.832 0.7633003 -2.0005
v -0.8042 0.7495003 -1.9479
v 0.832 0.7633003 -2.0005
v 0.8364 0.9073003 -1.9308
v 0.8139 0.9093013 -1.9827
v 0.7829 0.9121004 -2.0214
v 0.7956 0.7633004 -2.0383
v 0.7373 0.7633004 -2.0717
v 0.7255 0.9168004 -2.0548
v 0.4387 0.7633014 -2.1505
v 0.5029 0.9265013 -2.126
v 0.7255 0.9168004 -2.0548
v 0.6933 0.9166003 -2.0069
v 0.5951 0.9205003 -2.0743
v 0.5029 0.9265013 -2.126
v 0.7413 0.9143013 -1.973
v 0.783 0.9117003 -1.9325
v 0.8139 0.9093013 -1.9827
v 0.7829 0.9121004 -2.0214
v 0.8364 0.9073003 -1.9308
v 0.7956 0.7633004 -2.0383
v 0.718 0.7495003 -2.0101
v 0.7765 0.7495003 -1.9767
v 0.7373 0.7633004 -2.0717
v 0.4273 0.7495003 -2.0868
v 0.4387 0.7633014 -2.1505
v 0.832 0.7633003 -2.0005
v 0.8042 0.7495003 -1.9479
vt 0.9559 0.7562
vt 0.9451 0.8997
vt 0.9963 0.9043
vt 0.8994 0.8985
vt 0.9073 0.7529
vt 0.8441 0.7509
vt 0.8367 0.9011
vt 0.5495 0.751
vt 0.6141 0.9097
vt 0.8538 0.9119
vt 0.7303 0.9435
vt 0.8412 0.9645
vt 0.6298 0.9334
vt 0.8958 0.9757
vt 0.9471 0.9947
vt 0.9578 0.9405
vt 0.9167 0.9191
vt 0.9957 0.9764
vt 0.5137 0.9723
vt 0.5504 0.9692
vt 0.5407 0.9306
vt 0.504 0.9339
vt 0.5392 0.7511
vt 0.5024 0.7495
vt 0.5287 0.9986
vt 0.5618 0.9892
vt 0.9559 0.7562
vt 0.9963 0.9043
vt 0.9451 0.8997
vt 0.8994 0.8985
vt 0.9073 0.7529
vt 0.8441 0.7509
vt 0.8367 0.9011
vt 0.5495 0.751
vt 0.6141 0.9097
vt 0.8538 0.9119
vt 0.8412 0.9645
vt 0.7303 0.9435
vt 0.6298 0.9334
vt 0.8958 0.9757
vt 0.9471 0.9947
vt 0.9578 0.9405
vt 0.9167 0.9191
vt 0.9957 0.9764
vt 0.5137 0.9723
vt 0.5407 0.9306
vt 0.5504 0.9692
vt 0.504 0.9339
vt 0.5392 0.7511
vt 0.5024 0.7495
vt 0.5287 0.9986
vt 0.5618 0.9892
vn -0.6396053 -0.5496638 -0.5373777
vn -0.616199 0.7134093 -0.3336856
vn -0.642708 0.7239234 -0.2507216
vn -0.4850508 0.7079788 -0.5133145
vn -0.5138522 -0.5407362 -0.6660032
vn -0.3188775 -0.5503531 -0.7716402
vn -0.292204 0.7283012 -0.6198339
vn -0.2041852 -0.6817599 -0.7025041
vn -0.3072029 0.1270949 -0.9431189
vn -0.292204 0.7283012 -0.6198339
vn -0.01640115 0.9967047 0.07944001
vn -0.02785454 0.9993497 0.02290078
vn -0.3072029 0.1270949 -0.9431189
vn -0.03794739 0.9990106 0.02319291
vn -0.07582054 0.9971042 0.005874536
vn -0.616199 0.7134093 -0.3336856
vn -0.4850508 0.7079788 -0.5133145
vn -0.642708 0.7239234 -0.2507216
vn -0.5138522 -0.5407362 -0.6660032
vn -0.1453347 -0.9741181 -0.1731234
vn -0.08112507 -0.9777002 -0.1937032
vn -0.3188775 -0.5503531 -0.7716402
vn -0.05338554 -0.977865 -0.2023116
vn -0.2041852 -0.6817599 -0.7025041
vn -0.6396053 -0.5496638 -0.5373777
vn -0.1710154 -0.9714414 -0.164485
vn 0.6396053 -0.549664 -0.5373774
vn 0.642708 0.7239234 -0.2507216
vn 0.616199 0.7134092 -0.3336856
vn 0.4850508 0.7079787 -0.5133145
vn 0.5138524 -0.5407364 -0.666003
vn 0.3188775 -0.5503531 -0.7716402
vn 0.292204 0.7283012 -0.6198341
vn 0.2041852 -0.6817598 -0.7025041
vn 0.3072029 0.1270949 -0.9431189
vn 0.292204 0.7283012 -0.6198341
vn 0.02785454 0.9993497 0.02290078
vn 0.01640115 0.9967047 0.07944001
vn 0.3072029 0.1270949 -0.9431189
vn 0.03794739 0.9990106 0.02319291
vn 0.07582054 0.9971042 0.005874536
vn 0.616199 0.7134092 -0.3336856
vn 0.4850508 0.7079787 -0.5133145
vn 0.642708 0.7239234 -0.2507216
vn 0.5138524 -0.5407364 -0.666003
vn 0.08112507 -0.9777002 -0.1937033
vn 0.1453347 -0.9741181 -0.1731234
vn 0.3188775 -0.5503531 -0.7716402
vn 0.05338554 -0.977865 -0.2023116
vn 0.2041852 -0.6817598 -0.7025041
vn 0.6396053 -0.549664 -0.5373774
vn 0.1710154 -0.9714414 -0.164485
g Taillights_21_0
f 3/3/3 2/2/2 1/1/1
f 1/1/1 2/2/2 4/4/4
f 1/1/1 4/4/4 5/5/5
f 4/4/4 6/6/6 5/5/5
f 7/7/7 6/6/6 4/4/4
f 8/8/8 6/6/6 7/7/7
f 9/9/9 8/8/8 7/7/7
f 12/12/12 11/11/11 10/10/10
f 13/13/13 10/10/10 11/11/11
f 12/12/12 10/10/10 14/14/14
f 15/15/15 14/14/14 10/10/10
f 16/16/16 15/15/15 10/10/10
f 17/17/17 16/16/16 10/10/10
f 15/15/15 16/16/16 18/18/18
f 21/21/21 20/20/20 19/19/19
f 22/22/22 21/21/21 19/19/19
f 23/23/23 21/21/21 22/22/22
f 24/24/24 23/23/23 22/22/22
f 19/19/19 20/20/20 25/25/25
f 20/20/20 26/26/26 25/25/25
f 29/29/29 28/28/28 27/27/27
f 27/27/27 30/30/30 29/29/29
f 27/27/27 31/31/31 30/30/30
f 32/32/32 30/30/30 31/31/31
f 32/32/32 33/33/33 30/30/30
f 32/32/32 34/34/34 33/33/33
f 34/34/34 35/35/35 33/33/33
f 38/38/38 37/37/37 36/36/36
f 36/36/36 39/39/39 38/38/38
f 36/36/36 37/37/37 40/40/40
f 40/40/40 41/41/41 36/36/36
f 41/41/41 42/42/42 36/36/36
f 42/42/42 43/43/43 36/36/36
f 42/42/42 41/41/41 44/44/44
f 47/47/47 46/46/46 45/45/45
f 46/46/46 48/48/48 45/45/45
f 46/46/46 49/49/49 48/48/48
f 49/49/49 50/50/50 48/48/48
f 47/47/47 45/45/45 51/51/51
f 52/52/52 47/47/47 51/51/51
