g model_car_116_matte_backlight_LOD1
v 0.5583696 0.6567225 -2.097627
v 0.558195 0.6565647 -2.123998
v 0.4427364 0.6549761 -2.143739
v 0.4428716 0.6551621 -2.129435
v 0.3653272 0.6558859 -2.153268
v 0.3654231 0.6560633 -2.144829
v 0.5715411 0.6605225 -2.09218
v 0.5713468 0.6603563 -2.120587
v 0.5888505 0.6708236 -2.082763
v 0.5886561 0.6706488 -2.114731
v 0.607033 0.6928258 -2.067606
v 0.6068133 0.6926315 -2.105289
v 0.6152469 0.7196109 -2.052544
v 0.6150103 0.7193687 -2.095898
v 0.6122358 0.7466664 -2.039798
v 0.6119907 0.7463651 -2.087926
v 0.3521304 0.6585732 -2.15404
v 0.3522178 0.6587534 -2.146094
v 0.331686 0.6697898 -2.153631
v 0.3317817 0.6700263 -2.145623
v 0.3120471 0.6937749 -2.149674
v 0.3121682 0.6941833 -2.139612
v 0.3053064 0.7238841 -2.141463
v 0.305436 0.7244756 -2.126514
v 0.3117146 0.7534833 -2.130102
v 0.3118076 0.7540298 -2.107816
v 0.3309197 0.7785838 -2.116813
v 0.3309367 0.7787023 -2.085715
v 0.5986699 0.7712686 -2.029897
v 0.5984756 0.7709334 -2.081785
v 0.5795183 0.786623 -2.024736
v 0.579479 0.7865443 -2.0788
v 0.3558571 0.7923384 -2.106999
v 0.3557951 0.791913 -2.069338
v 0.3751636 0.7953694 -2.103424
v 0.3750819 0.7947693 -2.063471
v 0.5609752 0.7936144 -2.024168
v 0.5610456 0.7938285 -2.078653
v 0.5472517 0.7947834 -2.027114
v 0.5473362 0.7950537 -2.080532
v 0.4699074 0.7953496 -2.045764
v 0.4700004 0.7957692 -2.092264
v 0.3794677 0.791899 -2.112187
v 0.4707186 0.7921834 -2.101793
v 0.3579754 0.7890708 -2.115635
v 0.3806423 0.7842147 -2.116365
v 0.3621725 0.7823977 -2.118956
v 0.3344239 0.7759867 -2.124317
v 0.3419167 0.7704968 -2.126455
v 0.3160273 0.7517283 -2.13633
v 0.3253819 0.7482524 -2.137069
v 0.3097936 0.7234728 -2.146592
v 0.3199483 0.7230306 -2.146054
v 0.316185 0.69522 -2.153975
v 0.3252242 0.6987777 -2.152443
v 0.3343788 0.6729982 -2.157578
v 0.3403674 0.6802993 -2.155595
v 0.3549755 0.6623871 -2.157879
v 0.3611414 0.6707277 -2.15573
v 0.3639499 0.6605675 -2.157381
v 0.4423532 0.6598012 -2.148158
v 0.4417392 0.6688998 -2.146572
v 0.558764 0.6614885 -2.129111
v 0.5600485 0.6719306 -2.126948
v 0.5676793 0.6640575 -2.1269
v 0.5855914 0.6742966 -2.121198
v 0.5793775 0.6818767 -2.121029
v 0.6028924 0.6950707 -2.112641
v 0.5945742 0.7003748 -2.113458
v 0.6105372 0.7204785 -2.104131
v 0.6014389 0.7228417 -2.105866
v 0.6078471 0.7459397 -2.096889
v 0.5988615 0.7451143 -2.099571
v 0.595132 0.7690263 -2.091385
v 0.5879322 0.7649956 -2.094827
v 0.5775663 0.7835641 -2.088799
v 0.5734875 0.7772121 -2.092701
v 0.5590062 0.790513 -2.088977
v 0.5546486 0.7833922 -2.093481
v 0.5496826 0.7913525 -2.090202
v 0.5662202 0.7310951 -2.110644
v 0.4564739 0.7285657 -2.129246
v 0.3653696 0.7304642 -2.139266
v 0.4721017 0.7849808 -2.105557
v -0.5583704 0.6567225 -2.097627
v -0.4428723 0.6551621 -2.129435
v -0.4427371 0.6549761 -2.143739
v -0.5581958 0.6565647 -2.123998
v -0.3653281 0.6558859 -2.153268
v -0.3654237 0.6560633 -2.144829
v -0.5715418 0.6605225 -2.09218
v -0.5713475 0.6603563 -2.120587
v -0.5888512 0.6708236 -2.082763
v -0.588654 0.6706488 -2.114731
v -0.6070337 0.6928258 -2.067606
v -0.6068141 0.6926315 -2.105289
v -0.6152477 0.7196109 -2.052544
v -0.615011 0.7193687 -2.095898
v -0.6122365 0.7466664 -2.039798
v -0.6119914 0.7463651 -2.087926
v -0.3521285 0.6585732 -2.15404
v -0.3522186 0.6587534 -2.146094
v -0.3316867 0.6697898 -2.153631
v -0.3317826 0.6700263 -2.145623
v -0.312048 0.6937749 -2.149674
v -0.3121691 0.6941833 -2.139612
v -0.3053071 0.7238841 -2.141463
v -0.3054368 0.7244756 -2.126514
v -0.3117154 0.7534833 -2.130102
v -0.3118083 0.7540298 -2.107816
v -0.3309205 0.7785838 -2.116813
v -0.3309374 0.7787023 -2.085715
v -0.5986707 0.7712686 -2.029897
v -0.5984764 0.7709334 -2.081785
v -0.5795164 0.786623 -2.024736
v -0.5794797 0.7865443 -2.0788
v -0.3558578 0.7923384 -2.106999
v -0.3557959 0.791913 -2.069338
v -0.3751643 0.7953694 -2.103424
v -0.3750827 0.7947693 -2.063471
v -0.5609732 0.7936144 -2.024168
v -0.5610464 0.7938285 -2.078653
v -0.5472496 0.7947834 -2.027114
v -0.5473368 0.7950537 -2.080532
v -0.4699082 0.7953496 -2.045764
v -0.470001 0.7957692 -2.092264
v -0.3794656 0.791899 -2.112187
v -0.4707193 0.7921834 -2.101793
v -0.3579762 0.7890708 -2.115635
v -0.3806431 0.7842147 -2.116365
v -0.3621731 0.7823977 -2.118956
v -0.3344247 0.7759867 -2.124317
v -0.3419147 0.7704968 -2.126455
v -0.3160281 0.7517283 -2.13633
v -0.3253827 0.7482524 -2.137069
v -0.3097944 0.7234728 -2.146592
v -0.3199489 0.7230306 -2.146054
v -0.3161857 0.69522 -2.153975
v -0.3252249 0.6987777 -2.152443
v -0.3343797 0.6729982 -2.157578
v -0.3403683 0.6802993 -2.155595
v -0.3549762 0.6623871 -2.157879
v -0.3611422 0.6707277 -2.15573
v -0.3639505 0.6605675 -2.157381
v -0.442354 0.6598012 -2.148158
v -0.44174 0.6688998 -2.146572
v -0.5587647 0.6614885 -2.129111
v -0.5600464 0.6719306 -2.126948
v -0.5676801 0.6640575 -2.1269
v -0.5855923 0.6742966 -2.121198
v -0.5793784 0.6818767 -2.121029
v -0.6028931 0.6950707 -2.112641
v -0.5945749 0.7003748 -2.113458
v -0.610538 0.7204785 -2.104131
v -0.6014397 0.7228417 -2.105866
v -0.6078479 0.7459397 -2.096889
v -0.5988622 0.7451143 -2.099571
v -0.5951328 0.7690263 -2.091385
v -0.5879331 0.7649956 -2.094827
v -0.5775671 0.7835641 -2.088799
v -0.5734882 0.7772121 -2.092701
v -0.5590069 0.790513 -2.088977
v -0.5546465 0.7833922 -2.093481
v -0.5496833 0.7913525 -2.090202
v -0.566221 0.7310951 -2.110644
v -0.4564748 0.7285657 -2.129246
v -0.3653703 0.7304642 -2.139266
v -0.4721024 0.7849808 -2.105557
vt 0.4132763 0.01192089
vt 0.4325763 0.05089574
vt 0.6121845 0.04996598
vt 0.6088254 0.02718691
vt 0.7325732 0.05242534
vt 0.733083 0.03891386
vt 0.3797751 0.01964388
vt 0.4120617 0.05660925
vt 0.3351917 0.04635192
vt 0.3850087 0.07240014
vt 0.2903384 0.1048067
vt 0.3564712 0.1063513
vt 0.2723281 0.1743586
vt 0.3433646 0.1478155
vt 0.2827353 0.2411062
vt 0.3476985 0.1898495
vt 0.7530578 0.05677421
vt 0.7566419 0.04425247
vt 0.7847146 0.07448459
vt 0.7936373 0.06482711
vt 0.8149317 0.1120648
vt 0.8315024 0.1091406
vt 0.8250091 0.1589876
vt 0.8471733 0.1696798
vt 0.8146468 0.2049356
vt 0.8353564 0.2343879
vt 0.7844446 0.2437155
vt 0.7959766 0.291973
vt 0.3151119 0.2978214
vt 0.3683931 0.2282395
vt 0.3573709 0.3331522
vt 0.3977254 0.2527732
vt 0.7454698 0.264785
vt 0.7471493 0.3246944
vt 0.7154027 0.2692389
vt 0.7120885 0.3328223
vt 0.3961208 0.3487032
vt 0.426308 0.2643651
vt 0.4248683 0.3502478
vt 0.4476174 0.2664496
vt 0.556669 0.3424048
vt 0.5678861 0.2685941
vt 0.7087594 0.2637803
vt 0.5668213 0.2630005
vt 0.7422307 0.2596714
vt 0.7070348 0.2518134
vt 0.7357823 0.2492341
vt 0.779031 0.2396366
vt 0.7674541 0.2309988
vt 0.8079735 0.2021463
vt 0.7934573 0.1966128
vt 0.8180359 0.1582828
vt 0.80226 0.157458
vt 0.8084834 0.1142542
vt 0.7943721 0.1196678
vt 0.7804707 0.0794483
vt 0.7710682 0.09072536
vt 0.748589 0.06266767
vt 0.7388865 0.07556431
vt 0.7346426 0.05971344
vt 0.6127094 0.05747902
vt 0.6135492 0.07163534
vt 0.4316166 0.05854375
vt 0.4294871 0.07476951
vt 0.4177152 0.06242773
vt 0.3897175 0.07811365
vt 0.399285 0.08997555
vt 0.3625296 0.1101903
vt 0.3753962 0.1185581
vt 0.3503078 0.1496
vt 0.3644191 0.153409
vt 0.3541467 0.1892497
vt 0.3681381 0.18808
vt 0.3736267 0.2253303
vt 0.3848737 0.2191519
vt 0.4007396 0.2481693
vt 0.4071729 0.2383469
vt 0.4295171 0.2592215
vt 0.4364003 0.2482143
vt 0.4440033 0.2606611
vt 0.4190948 0.1667106
vt 0.5898253 0.1642362
vt 0.7315084 0.1684201
vt 0.5647669 0.2517834
vt 0.4132763 0.01192089
vt 0.6088254 0.02718691
vt 0.6121845 0.04996598
vt 0.4325763 0.05089574
vt 0.7325732 0.05242534
vt 0.733083 0.03891386
vt 0.3797751 0.01964388
vt 0.4120617 0.05660925
vt 0.3351917 0.04635192
vt 0.3850087 0.07240014
vt 0.2903384 0.1048067
vt 0.3564712 0.1063513
vt 0.2723281 0.1743586
vt 0.3433646 0.1478155
vt 0.2827353 0.2411062
vt 0.3476985 0.1898495
vt 0.7530578 0.05677421
vt 0.7566419 0.04425247
vt 0.7847146 0.07448459
vt 0.7936373 0.06482711
vt 0.8149317 0.1120648
vt 0.8315024 0.1091406
vt 0.8250091 0.1589876
vt 0.8471733 0.1696798
vt 0.8146468 0.2049356
vt 0.8353564 0.2343879
vt 0.7844446 0.2437155
vt 0.7959766 0.291973
vt 0.3151119 0.2978214
vt 0.3683931 0.2282395
vt 0.3573709 0.3331522
vt 0.3977254 0.2527732
vt 0.7454698 0.264785
vt 0.7471493 0.3246944
vt 0.7154027 0.2692389
vt 0.7120885 0.3328223
vt 0.3961208 0.3487032
vt 0.426308 0.2643651
vt 0.4248683 0.3502478
vt 0.4476174 0.2664496
vt 0.556669 0.3424048
vt 0.5678861 0.2685941
vt 0.7087594 0.2637803
vt 0.5668213 0.2630005
vt 0.7422307 0.2596714
vt 0.7070348 0.2518134
vt 0.7357823 0.2492341
vt 0.779031 0.2396366
vt 0.7674541 0.2309988
vt 0.8079735 0.2021463
vt 0.7934573 0.1966128
vt 0.8180359 0.1582828
vt 0.80226 0.157458
vt 0.8084834 0.1142542
vt 0.7943721 0.1196678
vt 0.7804707 0.0794483
vt 0.7710682 0.09072536
vt 0.748589 0.06266767
vt 0.7388865 0.07556431
vt 0.7346426 0.05971344
vt 0.6127094 0.05747902
vt 0.6135492 0.07163534
vt 0.4316166 0.05854375
vt 0.4294871 0.07476951
vt 0.4177152 0.06242773
vt 0.3897175 0.07811365
vt 0.399285 0.08997555
vt 0.3625296 0.1101903
vt 0.3753962 0.1185581
vt 0.3503078 0.1496
vt 0.3644191 0.153409
vt 0.3541467 0.1892497
vt 0.3681381 0.18808
vt 0.3736267 0.2253303
vt 0.3848737 0.2191519
vt 0.4007396 0.2481693
vt 0.4071729 0.2383469
vt 0.4295171 0.2592215
vt 0.4364003 0.2482143
vt 0.4440033 0.2606611
vt 0.4190948 0.1667106
vt 0.5898253 0.1642362
vt 0.7315084 0.1684201
vt 0.5647669 0.2517834
vn 0.1729998 -0.9842962 0.0351011
vn 0.04003497 -0.9991983 0
vn 0.002920806 -0.9999356 0.01096461
vn 0.0009658933 -0.9999356 0.01130453
vn -0.03810754 -0.9992737 0
vn -0.09873557 -0.9940708 0.04554646
vn 0.4271408 -0.904144 0.008624766
vn 0.4036817 -0.9139187 0.04235259
vn 0.6891016 -0.7242904 -0.02329081
vn 0.6558678 -0.7536143 0.04362268
vn 0.9080539 -0.4173662 -0.03526501
vn 0.8664966 -0.4991831 0
vn 0.9995987 -0.02832537 0
vn 0.9921159 -0.1221716 -0.02793014
vn 0.9354229 0.3528767 -0.02149616
vn 0.958171 0.2861966 0
vn -0.3822006 -0.9236933 0.0267097
vn -0.3411471 -0.9393328 0.03567378
vn -0.6617557 -0.7477496 0.05431402
vn -0.6480712 -0.7614341 0.01489658
vn -0.8977306 -0.4405448 0
vn -0.9158968 -0.3997718 0.03627132
vn -0.9998622 -0.01660371 0
vn -0.997979 0.06354519 0
vn -0.9119868 0.4095696 -0.02308097
vn -0.8664923 0.4991904 0
vn -0.6715304 0.7399529 -0.03894407
vn -0.5855134 0.8103305 0.02320749
vn 0.7432346 0.6690308 0
vn 0.7829383 0.6207021 -0.04167052
vn 0.4896986 0.8709333 -0.0408715
vn 0.518786 0.8549041 0
vn -0.3644792 0.9312116 0
vn -0.2746794 0.9608601 0.03604114
vn -0.03420423 0.9994149 0
vn -0.06938286 0.9975901 0
vn 0.2335442 0.9723462 0
vn 0.2453322 0.9686799 0.03835728
vn 0.05179411 0.9980038 0.03613446
vn 0.01855786 0.9998277 0
vn 0.0009658933 0.9999588 0.009029903
vn -0.0009890795 0.9999588 0.009029903
vn 0.09480256 0.4819021 -0.8710814
vn 0.1143519 0.4740824 -0.8730232
vn 0.06938845 0.4682175 -0.8808846
vn 0.09480256 0.425209 -0.9001165
vn 0.08502793 0.427164 -0.9001673
vn 0.05961382 0.425209 -0.9031298
vn 0.08502793 0.4037049 -0.9109296
vn 0.05765891 0.3646063 -0.9293749
vn 0.07720822 0.3548316 -0.9317368
vn 0.05765891 0.2981385 -0.9527795
vn 0.07525325 0.2922738 -0.9533693
vn 0.06547862 0.2434005 -0.9677132
vn 0.08307302 0.2512202 -0.9643584
vn 0.07720822 0.2062567 -0.9754471
vn 0.09089273 0.2297159 -0.9690042
vn 0.08502793 0.1925722 -0.9775921
vn 0.1045772 0.2179863 -0.9703327
vn 0.1143519 0.1847526 -0.9761097
vn 0.139766 0.1827977 -0.9731652
vn 0.1339012 0.2160314 -0.9671612
vn 0.1573604 0.1808426 -0.9708417
vn 0.1710449 0.2082118 -0.9630117
vn 0.1984139 0.1847526 -0.9625479
vn 0.2101435 0.1945271 -0.9581226
vn 0.1945041 0.2199413 -0.9559257
vn 0.2336027 0.2218963 -0.9466741
vn 0.2120984 0.2375357 -0.9479404
vn 0.2472872 0.2629498 -0.9325805
vn 0.2218731 0.2688146 -0.9372892
vn 0.2453322 0.315733 -0.9165832
vn 0.2160083 0.315733 -0.9239335
vn 0.2257829 0.370471 -0.9009846
vn 0.196459 0.3567865 -0.9132947
vn 0.1925491 0.4212992 -0.8862459
vn 0.1749548 0.3841555 -0.9065403
vn 0.1749548 0.4408485 -0.8803655
vn 0.1534505 0.4037049 -0.9019287
vn 0.1358562 0.4623528 -0.8762266
vn 0.1632252 0.2922738 -0.9423023
vn 0.1299914 0.3000935 -0.9450112
vn 0.1084871 0.3098681 -0.9445699
vn 0.1241266 0.4115245 -0.9029065
vn -0.173023 -0.9842962 0.0349863
vn -0.0009890795 -0.9999356 0.01130453
vn -0.002943993 -0.9999356 0.01095917
vn -0.0400581 -0.9991974 0
vn 0.0380844 -0.9992745 0
vn 0.09871244 -0.9940708 0.04559616
vn -0.427164 -0.904144 0.007393068
vn -0.4037049 -0.9139187 0.04213106
vn -0.6891247 -0.7242904 -0.02259719
vn -0.6558909 -0.7536143 0.04327285
vn -0.908077 -0.4173662 -0.0346641
vn -0.8665023 -0.4991731 0
vn -0.9995987 -0.02832471 0
vn -0.9921391 -0.1221716 -0.02709387
vn -0.935446 0.3528767 -0.0204649
vn -0.9581729 0.2861903 0
vn 0.3821774 -0.9236933 0.02703906
vn 0.3411239 -0.9393328 0.03589448
vn 0.6596792 -0.7515473 0
vn 0.648048 -0.7614341 0.01587102
vn 0.8977261 -0.4405539 0
vn 0.9158736 -0.3997718 0.03685169
vn 0.9998622 -0.0166041 0
vn 0.9979789 0.06354667 0
vn 0.9119637 0.4095696 -0.02397773
vn 0.8664865 0.4992004 0
vn 0.6715072 0.7399529 -0.03933999
vn 0.5854902 0.8103305 0.02378336
vn -0.7432451 0.6690193 0
vn -0.7829615 0.6207021 -0.04123267
vn -0.4897218 0.8709333 -0.04059347
vn -0.518803 0.8548939 0
vn 0.3644591 0.9312194 0
vn 0.2746562 0.9608601 0.03621767
vn 0.03418114 0.9994157 0
vn 0.06935979 0.9975917 0
vn -0.233566 0.972341 0
vn -0.2453554 0.9686799 0.03820937
vn -0.0518173 0.9980038 0.03610146
vn -0.01858098 0.9998274 0
vn -0.0009890795 0.9999588 0.009029903
vn 0.0009658933 0.9999588 0.009029903
vn -0.09482574 0.4819021 -0.8710789
vn -0.114375 0.4740824 -0.8730202
vn -0.06941164 0.4682175 -0.8808827
vn -0.09482574 0.425209 -0.9001141
vn -0.08505106 0.427164 -0.9001651
vn -0.05963695 0.425209 -0.9031283
vn -0.08505106 0.4037049 -0.9109274
vn -0.05768204 0.3646063 -0.9293735
vn -0.07723141 0.3548316 -0.9317349
vn -0.05768204 0.2981385 -0.9527782
vn -0.07527637 0.2922738 -0.9533675
vn -0.06550181 0.2434005 -0.9677116
vn -0.08309615 0.2512202 -0.9643565
vn -0.07332146 0.2082118 -0.9753317
vn -0.09091592 0.2297159 -0.969002
vn -0.08505106 0.1925722 -0.97759
vn -0.1046004 0.2179863 -0.9703302
vn -0.114375 0.1847526 -0.976107
vn -0.1397891 0.1827977 -0.9731619
vn -0.1319695 0.2160314 -0.9674267
vn -0.1573836 0.1808426 -0.970838
vn -0.1710681 0.2082118 -0.9630076
vn -0.1984371 0.1847526 -0.9625431
vn -0.2121216 0.1964822 -0.9572874
vn -0.1945271 0.2199413 -0.955921
vn -0.2336258 0.2218963 -0.9466684
vn -0.2101667 0.2375357 -0.9483706
vn -0.2473104 0.2629498 -0.9325744
vn -0.2218963 0.2688146 -0.9372837
vn -0.2453554 0.315733 -0.916577
vn -0.2140765 0.315733 -0.924383
vn -0.2258061 0.370471 -0.9009789
vn -0.1964822 0.3567865 -0.9132897
vn -0.1867075 0.425209 -0.8856283
vn -0.1749779 0.3841555 -0.9065359
vn -0.1749779 0.4408485 -0.880361
vn -0.1534736 0.4037049 -0.9019247
vn -0.1358793 0.4623528 -0.876223
vn -0.1632483 0.2922738 -0.9422983
vn -0.1300145 0.3000935 -0.945008
vn -0.1085103 0.3098681 -0.9445673
vn -0.1241497 0.4115245 -0.9029033
g model_car_116_matte_backlight_LOD1_0
f 3/3/3 2/2/2 1/1/1
f 4/4/4 3/3/3 1/1/1
f 5/5/5 3/3/3 4/4/4
f 6/6/6 5/5/5 4/4/4
f 1/1/1 2/2/2 7/7/7
f 2/2/2 8/8/8 7/7/7
f 7/7/7 8/8/8 9/9/9
f 8/8/8 10/10/10 9/9/9
f 9/9/9 10/10/10 11/11/11
f 10/10/10 12/12/12 11/11/11
f 11/11/11 12/12/12 13/13/13
f 12/12/12 14/14/14 13/13/13
f 13/13/13 14/14/14 15/15/15
f 14/14/14 16/16/16 15/15/15
f 17/17/17 5/5/5 6/6/6
f 18/18/18 17/17/17 6/6/6
f 19/19/19 17/17/17 18/18/18
f 20/20/20 19/19/19 18/18/18
f 21/21/21 19/19/19 20/20/20
f 22/22/22 21/21/21 20/20/20
f 23/23/23 21/21/21 22/22/22
f 24/24/24 23/23/23 22/22/22
f 25/25/25 23/23/23 24/24/24
f 26/26/26 25/25/25 24/24/24
f 27/27/27 25/25/25 26/26/26
f 28/28/28 27/27/27 26/26/26
f 15/15/15 16/16/16 29/29/29
f 16/16/16 30/30/30 29/29/29
f 29/29/29 30/30/30 31/31/31
f 30/30/30 32/32/32 31/31/31
f 33/33/33 27/27/27 28/28/28
f 34/34/34 33/33/33 28/28/28
f 35/35/35 33/33/33 34/34/34
f 36/36/36 35/35/35 34/34/34
f 31/31/31 32/32/32 37/37/37
f 32/32/32 38/38/38 37/37/37
f 37/37/37 38/38/38 39/39/39
f 38/38/38 40/40/40 39/39/39
f 39/39/39 40/40/40 41/41/41
f 40/40/40 42/42/42 41/41/41
f 42/42/42 35/35/35 36/36/36
f 41/41/41 42/42/42 36/36/36
f 35/35/35 42/42/42 43/43/43
f 33/33/33 35/35/35 43/43/43
f 42/42/42 44/44/44 43/43/43
f 45/45/45 33/33/33 43/43/43
f 45/45/45 43/43/43 46/46/46
f 43/43/43 44/44/44 46/46/46
f 47/47/47 45/45/45 46/46/46
f 48/48/48 45/45/45 47/47/47
f 49/49/49 48/48/48 47/47/47
f 50/50/50 48/48/48 49/49/49
f 51/51/51 50/50/50 49/49/49
f 52/52/52 50/50/50 51/51/51
f 53/53/53 52/52/52 51/51/51
f 54/54/54 52/52/52 53/53/53
f 55/55/55 54/54/54 53/53/53
f 56/56/56 54/54/54 55/55/55
f 57/57/57 56/56/56 55/55/55
f 57/57/57 55/55/55 53/53/53
f 58/58/58 56/56/56 57/57/57
f 59/59/59 58/58/58 57/57/57
f 60/60/60 58/58/58 59/59/59
f 61/61/61 60/60/60 59/59/59
f 62/62/62 61/61/61 59/59/59
f 63/63/63 61/61/61 62/62/62
f 64/64/64 63/63/63 62/62/62
f 65/65/65 63/63/63 64/64/64
f 66/66/66 65/65/65 64/64/64
f 67/67/67 66/66/66 64/64/64
f 68/68/68 66/66/66 67/67/67
f 69/69/69 68/68/68 67/67/67
f 70/70/70 68/68/68 69/69/69
f 71/71/71 70/70/70 69/69/69
f 69/69/69 67/67/67 71/71/71
f 72/72/72 70/70/70 71/71/71
f 73/73/73 72/72/72 71/71/71
f 74/74/74 72/72/72 73/73/73
f 75/75/75 74/74/74 73/73/73
f 76/76/76 74/74/74 75/75/75
f 77/77/77 76/76/76 75/75/75
f 78/78/78 76/76/76 77/77/77
f 79/79/79 78/78/78 77/77/77
f 80/80/80 78/78/78 79/79/79
f 81/81/81 77/77/77 75/75/75
f 73/73/73 81/81/81 75/75/75
f 73/73/73 71/71/71 81/81/81
f 67/67/67 81/81/81 71/71/71
f 77/77/77 81/81/81 79/79/79
f 67/67/67 64/64/64 81/81/81
f 81/81/81 64/64/64 82/82/82
f 64/64/64 62/62/62 82/82/82
f 82/82/82 62/62/62 83/83/83
f 82/82/82 83/83/83 46/46/46
f 84/84/84 82/82/82 46/46/46
f 81/81/81 82/82/82 84/84/84
f 79/79/79 81/81/81 84/84/84
f 62/62/62 59/59/59 83/83/83
f 59/59/59 57/57/57 83/83/83
f 83/83/83 57/57/57 53/53/53
f 83/83/83 53/53/53 51/51/51
f 46/46/46 83/83/83 47/47/47
f 83/83/83 51/51/51 49/49/49
f 47/47/47 83/83/83 49/49/49
f 44/44/44 84/84/84 46/46/46
f 44/44/44 80/80/80 79/79/79
f 84/84/84 44/44/44 79/79/79
f 44/44/44 42/42/42 80/80/80
f 42/42/42 40/40/40 80/80/80
f 40/40/40 38/38/38 78/78/78
f 78/78/78 38/38/38 76/76/76
f 38/38/38 32/32/32 76/76/76
f 80/80/80 40/40/40 78/78/78
f 76/76/76 32/32/32 74/74/74
f 32/32/32 30/30/30 74/74/74
f 74/74/74 30/30/30 72/72/72
f 30/30/30 16/16/16 72/72/72
f 72/72/72 16/16/16 70/70/70
f 16/16/16 14/14/14 70/70/70
f 70/70/70 14/14/14 68/68/68
f 14/14/14 12/12/12 68/68/68
f 68/68/68 12/12/12 66/66/66
f 12/12/12 10/10/10 66/66/66
f 66/66/66 10/10/10 65/65/65
f 10/10/10 8/8/8 65/65/65
f 65/65/65 8/8/8 63/63/63
f 8/8/8 2/2/2 63/63/63
f 63/63/63 2/2/2 61/61/61
f 2/2/2 3/3/3 61/61/61
f 61/61/61 3/3/3 60/60/60
f 3/3/3 5/5/5 60/60/60
f 60/60/60 5/5/5 58/58/58
f 5/5/5 17/17/17 58/58/58
f 58/58/58 17/17/17 56/56/56
f 17/17/17 19/19/19 56/56/56
f 56/56/56 19/19/19 54/54/54
f 19/19/19 21/21/21 54/54/54
f 54/54/54 21/21/21 52/52/52
f 21/21/21 23/23/23 52/52/52
f 52/52/52 23/23/23 50/50/50
f 23/23/23 25/25/25 50/50/50
f 50/50/50 25/25/25 48/48/48
f 25/25/25 27/27/27 48/48/48
f 45/45/45 48/48/48 27/27/27
f 33/33/33 45/45/45 27/27/27
f 87/87/87 86/86/86 85/85/85
f 88/88/88 87/87/87 85/85/85
f 87/87/87 89/89/89 86/86/86
f 89/89/89 90/90/90 86/86/86
f 88/88/88 85/85/85 91/91/91
f 92/92/92 88/88/88 91/91/91
f 92/92/92 91/91/91 93/93/93
f 94/94/94 92/92/92 93/93/93
f 94/94/94 93/93/93 95/95/95
f 96/96/96 94/94/94 95/95/95
f 96/96/96 95/95/95 97/97/97
f 98/98/98 96/96/96 97/97/97
f 98/98/98 97/97/97 99/99/99
f 100/100/100 98/98/98 99/99/99
f 89/89/89 101/101/101 90/90/90
f 101/101/101 102/102/102 90/90/90
f 101/101/101 103/103/103 102/102/102
f 103/103/103 104/104/104 102/102/102
f 103/103/103 105/105/105 104/104/104
f 105/105/105 106/106/106 104/104/104
f 105/105/105 107/107/107 106/106/106
f 107/107/107 108/108/108 106/106/106
f 107/107/107 109/109/109 108/108/108
f 109/109/109 110/110/110 108/108/108
f 109/109/109 111/111/111 110/110/110
f 111/111/111 112/112/112 110/110/110
f 100/100/100 99/99/99 113/113/113
f 114/114/114 100/100/100 113/113/113
f 114/114/114 113/113/113 115/115/115
f 116/116/116 114/114/114 115/115/115
f 111/111/111 117/117/117 112/112/112
f 117/117/117 118/118/118 112/112/112
f 117/117/117 119/119/119 118/118/118
f 119/119/119 120/120/120 118/118/118
f 116/116/116 115/115/115 121/121/121
f 122/122/122 116/116/116 121/121/121
f 122/122/122 121/121/121 123/123/123
f 124/124/124 122/122/122 123/123/123
f 124/124/124 123/123/123 125/125/125
f 126/126/126 124/124/124 125/125/125
f 126/126/126 125/125/125 120/120/120
f 119/119/119 126/126/126 120/120/120
f 126/126/126 119/119/119 127/127/127
f 119/119/119 117/117/117 127/127/127
f 128/128/128 126/126/126 127/127/127
f 117/117/117 129/129/129 127/127/127
f 127/127/127 129/129/129 130/130/130
f 128/128/128 127/127/127 130/130/130
f 129/129/129 131/131/131 130/130/130
f 129/129/129 132/132/132 131/131/131
f 132/132/132 133/133/133 131/131/131
f 132/132/132 134/134/134 133/133/133
f 134/134/134 135/135/135 133/133/133
f 134/134/134 136/136/136 135/135/135
f 136/136/136 137/137/137 135/135/135
f 136/136/136 138/138/138 137/137/137
f 138/138/138 139/139/139 137/137/137
f 138/138/138 140/140/140 139/139/139
f 140/140/140 141/141/141 139/139/139
f 139/139/139 141/141/141 137/137/137
f 140/140/140 142/142/142 141/141/141
f 142/142/142 143/143/143 141/141/141
f 142/142/142 144/144/144 143/143/143
f 144/144/144 145/145/145 143/143/143
f 145/145/145 146/146/146 143/143/143
f 145/145/145 147/147/147 146/146/146
f 147/147/147 148/148/148 146/146/146
f 147/147/147 149/149/149 148/148/148
f 149/149/149 150/150/150 148/148/148
f 150/150/150 151/151/151 148/148/148
f 150/150/150 152/152/152 151/151/151
f 152/152/152 153/153/153 151/151/151
f 152/152/152 154/154/154 153/153/153
f 154/154/154 155/155/155 153/153/153
f 151/151/151 153/153/153 155/155/155
f 154/154/154 156/156/156 155/155/155
f 156/156/156 157/157/157 155/155/155
f 156/156/156 158/158/158 157/157/157
f 158/158/158 159/159/159 157/157/157
f 158/158/158 160/160/160 159/159/159
f 160/160/160 161/161/161 159/159/159
f 160/160/160 162/162/162 161/161/161
f 162/162/162 163/163/163 161/161/161
f 162/162/162 164/164/164 163/163/163
f 165/165/165 157/157/157 159/159/159
f 161/161/161 165/165/165 159/159/159
f 155/155/155 157/157/157 165/165/165
f 165/165/165 151/151/151 155/155/155
f 165/165/165 161/161/161 163/163/163
f 148/148/148 151/151/151 165/165/165
f 148/148/148 165/165/165 166/166/166
f 146/146/146 148/148/148 166/166/166
f 146/146/146 166/166/166 167/167/167
f 167/167/167 166/166/166 130/130/130
f 166/166/166 168/168/168 130/130/130
f 165/165/165 163/163/163 168/168/168
f 166/166/166 165/165/165 168/168/168
f 143/143/143 146/146/146 167/167/167
f 141/141/141 143/143/143 167/167/167
f 141/141/141 167/167/167 137/137/137
f 137/137/137 167/167/167 135/135/135
f 167/167/167 130/130/130 131/131/131
f 167/167/167 131/131/131 133/133/133
f 135/135/135 167/167/167 133/133/133
f 168/168/168 128/128/128 130/130/130
f 128/128/128 168/168/168 163/163/163
f 164/164/164 128/128/128 163/163/163
f 126/126/126 128/128/128 164/164/164
f 124/124/124 126/126/126 164/164/164
f 124/124/124 164/164/164 162/162/162
f 122/122/122 124/124/124 162/162/162
f 122/122/122 162/162/162 160/160/160
f 116/116/116 122/122/122 160/160/160
f 116/116/116 160/160/160 158/158/158
f 114/114/114 116/116/116 158/158/158
f 114/114/114 158/158/158 156/156/156
f 100/100/100 114/114/114 156/156/156
f 100/100/100 156/156/156 154/154/154
f 98/98/98 100/100/100 154/154/154
f 98/98/98 154/154/154 152/152/152
f 96/96/96 98/98/98 152/152/152
f 96/96/96 152/152/152 150/150/150
f 94/94/94 96/96/96 150/150/150
f 94/94/94 150/150/150 149/149/149
f 92/92/92 94/94/94 149/149/149
f 92/92/92 149/149/149 147/147/147
f 88/88/88 92/92/92 147/147/147
f 88/88/88 147/147/147 145/145/145
f 87/87/87 88/88/88 145/145/145
f 87/87/87 145/145/145 144/144/144
f 89/89/89 87/87/87 144/144/144
f 89/89/89 144/144/144 142/142/142
f 101/101/101 89/89/89 142/142/142
f 101/101/101 142/142/142 140/140/140
f 103/103/103 101/101/101 140/140/140
f 103/103/103 140/140/140 138/138/138
f 105/105/105 103/103/103 138/138/138
f 105/105/105 138/138/138 136/136/136
f 107/107/107 105/105/105 136/136/136
f 107/107/107 136/136/136 134/134/134
f 109/109/109 107/107/107 134/134/134
f 109/109/109 134/134/134 132/132/132
f 111/111/111 109/109/109 132/132/132
f 132/132/132 129/129/129 111/111/111
f 129/129/129 117/117/117 111/111/111
