g model_car_82_matte_tile_LOD1
v 0.7667091 1.039711 -1.00654
v 0.7628068 1.045487 -1.006597
v 0.7633908 1.044378 -1.082203
v 0.7669022 1.038907 -1.080251
v 0.763069 1.031541 -1.081593
v 0.7538173 1.038824 -1.085025
v 0.7074016 1.151689 -1.123264
v 0.6974133 1.145656 -1.123033
v 0.6989247 1.188074 -1.064114
v 0.7629283 1.032378 -1.005393
v 0.6989247 1.188074 -1.064114
v 0.6871223 1.202744 -1.082322
v 0.6898518 1.192717 -1.097629
v 0.6965909 1.171442 -1.126347
v 0.6866384 1.166097 -1.127422
v 0.6974133 1.145656 -1.123033
v 0.7074016 1.151689 -1.123264
v 0.6795298 1.188031 -1.098439
v 0.676724 1.198248 -1.082775
v 0.6905955 1.182247 -1.054248
v 0.6989247 1.188074 -1.064114
v 0.7628068 1.045487 -1.006597
v 0.7495335 1.048612 -1.00135
v -0.7667087 1.039711 -1.00654
v -0.7669019 1.038907 -1.080251
v -0.7633905 1.044378 -1.082203
v -0.7628064 1.045487 -1.006597
v -0.7630711 1.031541 -1.081593
v -0.753817 1.038824 -1.085025
v -0.7074013 1.151689 -1.123264
v -0.6974154 1.145656 -1.123033
v -0.6989243 1.188074 -1.064114
v -0.762928 1.032378 -1.005393
v -0.6905953 1.182247 -1.054248
v -0.7628064 1.045487 -1.006597
v -0.7495332 1.048612 -1.00135
v -0.6989243 1.188074 -1.064114
v -0.6898539 1.192717 -1.097629
v -0.687122 1.202744 -1.082322
v -0.6965905 1.171442 -1.126347
v -0.6866381 1.166097 -1.127422
v -0.6974154 1.145656 -1.123033
v -0.7074013 1.151689 -1.123264
v -0.6795294 1.188031 -1.098439
v -0.6767237 1.198248 -1.082775
v 0.7809263 1.017114 -0.1373259
v 0.7828357 1.013796 -0.06392992
v 0.6643399 1.372211 -0.1309682
v 0.6647571 1.371956 -0.1875748
v 0.659732 1.368537 -0.1273495
v 0.7790836 1.00883 -0.06017542
v 0.7671453 1.022139 -0.1456765
v 0.6565949 1.361431 -0.1940374
v 0.6562515 1.360394 -0.06621361
v 0.6643852 1.371128 -0.07584667
v 0.7861421 1.007143 0.02565944
v 0.7727831 1.011164 0.03154993
v 0.6643137 1.372158 -0.1236022
v 0.7830527 1.013393 -0.05648518
v 0.7790836 1.00883 -0.06017542
v 0.659732 1.368537 -0.1273495
v 0.669675 1.298102 -0.776428
v 0.6782401 1.306319 -0.7847118
v 0.7658366 1.041337 -0.7587876
v 0.7524084 1.045506 -0.7519341
v 0.7653027 1.042125 -0.7875176
v 0.6794106 1.29897 -0.8110151
v 0.7517719 1.04633 -0.795482
v 0.6716154 1.286288 -0.8170104
v -0.780926 1.017114 -0.1373259
v -0.6647568 1.371956 -0.1875748
v -0.6643397 1.372211 -0.1309682
v -0.7828355 1.013796 -0.06392992
v -0.6597317 1.368537 -0.1273495
v -0.7790833 1.00883 -0.06017542
v -0.767145 1.022139 -0.1456765
v -0.6565945 1.361431 -0.1940374
v -0.6562513 1.360394 -0.06621361
v -0.7727852 1.011164 0.03154993
v -0.7861419 1.007143 0.02565944
v -0.664385 1.371128 -0.07584667
v -0.6643134 1.372158 -0.1236022
v -0.7830523 1.013393 -0.05648518
v -0.7790833 1.00883 -0.06017542
v -0.6597317 1.368537 -0.1273495
v -0.6696746 1.298102 -0.776428
v -0.7524081 1.045506 -0.7519341
v -0.7658364 1.041337 -0.7587876
v -0.6782422 1.306319 -0.7847118
v -0.7653023 1.042125 -0.7875176
v -0.6794102 1.29897 -0.8110151
v -0.7517741 1.04633 -0.795482
v -0.6716151 1.286288 -0.8170104
v 0.7272995 1.16198 0.7511472
v 0.7249633 1.171494 0.7316425
v 0.8006787 0.9588032 0.750165
v 0.8010316 0.9573014 0.7677648
v 0.7875795 0.9626222 0.743843
v 0.7167057 1.162738 0.7255137
v 0.7207701 1.14622 0.7592403
v 0.7881565 0.9599783 0.7736577
v -0.7272992 1.16198 0.7511472
v -0.8010312 0.9573014 0.7677648
v -0.8006785 0.9588032 0.750165
v -0.7249631 1.171494 0.7316425
v -0.7875793 0.9626222 0.743843
v -0.7167054 1.162738 0.7255137
v -0.7207699 1.14622 0.7592403
v -0.7881562 0.9599783 0.7736577
v 0.7765806 0.9889851 1.053468
v 0.757157 1.034509 1.004735
v 0.7581797 1.038848 0.9847012
v 0.8067552 0.9319658 1.080643
v 0.8038493 0.9400306 1.001681
v 0.813983 0.9201255 1.083676
v 0.8095013 0.9295917 1.00042
v 0.744835 1.033365 1.005533
v 0.764392 0.9878001 1.05398
v 0.7972246 0.9262495 1.083714
v 0.7907549 0.9424477 0.9925368
v 0.7506778 1.030473 0.9770086
v 0.8097826 0.9129167 1.087678
v 0.8048552 0.9228501 1.000177
v 0.8903587 0.9764817 0.7791119
v 0.9005067 0.9717188 0.7725348
v 0.8449848 0.8869066 0.7824945
v 0.8398023 0.8978436 0.7904398
v 0.9088097 0.9768369 0.7499599
v 0.8426915 0.880723 0.7558647
v 0.8328272 0.8867373 0.7305293
v 0.9066666 0.9899433 0.728279
v 0.8981277 0.9994714 0.7233039
v 0.8244694 0.8976293 0.7249035
v 0.819287 0.9085662 0.7328464
v 0.8879821 1.004232 0.7298809
v 0.8796791 0.9991138 0.7524582
v 0.8215803 0.9147499 0.7594762
v 0.8314446 0.9087355 0.7848116
v 0.8818198 0.9860098 0.7741368
v 0.8903587 0.9764817 0.7791119
v 0.8398023 0.8978436 0.7904398
v -0.7765802 0.9889851 1.053468
v -0.7581794 1.038848 0.9847012
v -0.7571567 1.034509 1.004735
v -0.8067572 0.9319658 1.080643
v -0.803849 0.9400306 1.001681
v -0.8139851 0.9201255 1.083676
v -0.8095011 0.9295917 1.00042
v -0.744837 1.033365 1.005533
v -0.764394 0.9878001 1.05398
v -0.7972243 0.9262495 1.083714
v -0.7907546 0.9424477 0.9925368
v -0.7506775 1.030473 0.9770086
v -0.8097824 0.9129167 1.087678
v -0.8048574 0.9228501 1.000177
v -0.8903584 0.9764817 0.7791119
v -0.839802 0.8978436 0.7904398
v -0.8449845 0.8869066 0.7824945
v -0.9005065 0.9717188 0.7725348
v -0.9088094 0.9768369 0.7499599
v -0.8426912 0.880723 0.7558647
v -0.8328269 0.8867373 0.7305293
v -0.9066663 0.9899433 0.728279
v -0.8981273 0.9994714 0.7233039
v -0.8244692 0.8976293 0.7249035
v -0.8192867 0.9085662 0.7328464
v -0.8879817 1.004232 0.7298809
v -0.8796813 0.9991138 0.7524582
v -0.8215799 0.9147499 0.7594762
v -0.8314443 0.9087355 0.7848116
v -0.8818219 0.9860098 0.7741368
v -0.8903584 0.9764817 0.7791119
v -0.839802 0.8978436 0.7904398
vn 0.8408803 0.3776762 -0.3876609
vn 0.7774538 0.6275381 -0.04197125
vn 0.8812425 0.4718549 -0.02765048
vn 0.8348473 0.5504815 0
vn 0.7524676 -0.3123266 -0.579866
vn 0.2911844 -0.1489554 -0.9449994
vn 0.8966187 0.4314927 -0.09944356
vn 0.1854737 -0.1720195 -0.9674755
vn 0.7601557 0.6409922 -0.1062657
vn 0.8870085 -0.4603216 0.03632961
vn 0.7601557 0.6409922 -0.1062657
vn 0.8850865 0.2296813 -0.4048066
vn 0.8562564 0.489153 -0.165995
vn 0.8716325 0.4622449 -0.1630538
vn -0.09514034 0.3200159 -0.942623
vn 0.1854737 -0.1720195 -0.9674755
vn 0.8966187 0.4314927 -0.09944356
vn -0.3046398 0.7467029 -0.5912947
vn -0.3065618 0.769767 -0.5598916
vn 0.4545556 0.4968411 0.7392755
vn 0.7601557 0.6409922 -0.1062657
vn 0.7774538 0.6275381 -0.04197125
vn 0.4545556 0.4968411 0.7392755
vn -0.8504916 0.02594781 -0.5253481
vn -0.8348477 0.550481 0
vn -0.8812438 0.4718549 -0.02760841
vn -0.8639457 0.5026071 -0.03136708
vn -0.7524689 -0.3123266 -0.5798643
vn -0.2911856 -0.1489554 -0.9449991
vn -0.8966199 0.4314927 -0.09943217
vn -0.185475 -0.1720195 -0.9674752
vn -0.913918 0.3911303 -0.1084939
vn -0.8870099 -0.4603216 0.0362976
vn -0.4545568 0.4968411 0.7392747
vn -0.8639457 0.5026071 -0.03136708
vn -0.4545568 0.4968411 0.7392747
vn -0.913918 0.3911303 -0.1084939
vn -0.8562577 0.489153 -0.1659883
vn -0.910074 0.4084285 -0.07036652
vn -0.8716338 0.4641669 -0.1574918
vn 0.09513903 0.3200159 -0.9426231
vn -0.185475 -0.1720195 -0.9674752
vn -0.8966199 0.4314927 -0.09943217
vn 0.3046385 0.7467029 -0.5912954
vn 0.3065605 0.769767 -0.5598923
vn 0.8889306 0.3949744 -0.2319433
vn 0.4180373 0.7774551 0.4699025
vn 0.950435 0.2335253 -0.2052783
vn 0.9581231 -0.03171259 -0.2845953
vn 0.4353354 0.3027178 0.8478473
vn 0.4353354 0.3027178 0.8478473
vn 0.5487342 0.06054401 -0.8338017
vn 0.5487342 0.06054401 -0.8338017
vn 0.4622436 0.3776762 0.8023039
vn 0.9523571 0.2373693 0.1914989
vn 0.6948072 0.6294601 0.3478835
vn 0.4622436 0.3776762 0.8023039
vn 0.9235268 -0.22968 -0.3071568
vn 0.8216601 0.5583456 -0.1145641
vn 0.6217707 0.06054401 -0.7808557
vn 0.6217707 0.06054401 -0.7808557
vn 0.517982 0.2508234 0.8177911
vn 0.9658111 0.03940189 0.2562349
vn 0.7870639 0.5295154 0.3164552
vn 0.517982 0.2508234 0.8177911
vn 0.8639444 0.4238046 -0.2720104
vn 0.9696552 0.1066724 -0.2199769
vn 0.517982 0.09706235 -0.8498667
vn 0.517982 0.09706235 -0.8498667
vn -0.8658677 0.4141946 -0.2805635
vn -0.9754225 0.02210379 -0.2192314
vn -0.9965646 -0.01057047 -0.0821414
vn -0.6063958 0.7524689 0.2570497
vn -0.4353367 0.3027178 0.8478466
vn -0.4353367 0.3027178 0.8478466
vn -0.5487355 0.06054401 -0.8338008
vn -0.5487355 0.06054401 -0.8338008
vn -0.4622449 0.3776762 0.8023031
vn -0.4622449 0.3776762 0.8023031
vn -0.7524689 0.6025518 0.2659357
vn -0.9485142 0.2143052 0.2332253
vn -0.9888766 -0.09898305 -0.1110201
vn -0.6448362 0.6429142 -0.4133373
vn -0.6217719 0.06054401 -0.7808547
vn -0.6217719 0.06054401 -0.7808547
vn -0.5179833 0.2508234 0.8177903
vn -0.5179833 0.2508234 0.8177903
vn -0.8255054 0.5064511 0.2490946
vn -0.9427482 0.002883673 0.3334929
vn -0.8351154 0.4411027 -0.3286496
vn -0.9715785 0.1431906 -0.1884986
vn -0.5179833 0.09706235 -0.849866
vn -0.5179833 0.09706235 -0.849866
vn 0.9389029 0.2834976 0.1951677
vn 0.8543344 -0.1489554 -0.4979208
vn 0.8677884 0.4507128 -0.2092874
vn 0.7236375 0.5775657 0.3778448
vn 0.4853078 0.09514034 -0.8691517
vn 0.4853078 0.09514034 -0.8691517
vn 0.4603216 0.2335253 0.856487
vn 0.4603216 0.2335253 0.856487
vn -0.9408262 0.2642775 0.2121404
vn -0.7774551 0.5545015 0.2968024
vn -0.8370374 0.4756989 -0.270331
vn -0.9216061 -0.1028271 -0.3742578
vn -0.485309 0.09514034 -0.869151
vn -0.485309 0.09514034 -0.869151
vn -0.4603229 0.2335253 0.8564863
vn -0.4603229 0.2335253 0.8564863
vn 0.8908526 0.4526348 0.03877304
vn 0.9119948 0.4084285 0.03810119
vn 0.9408249 -0.04708868 -0.3356056
vn 0.8754765 0.481465 0.0416224
vn 0.8984261 0.4391247 0
vn 0.8656889 0.5005824 0
vn 0.8658664 -0.07207489 0.4950561
vn -0.03171384 0.7236387 0.68945
vn -0.01441574 0.6140839 0.7891091
vn 0.07207489 0.4007404 0.9133523
vn 0.6025506 0.1393466 -0.7858214
vn 0.6025506 0.1393466 -0.7858214
vn 0.7121054 -0.09706104 0.6953309
vn 0.8255042 -0.5525782 -0.114892
vn 0.1527994 0.03555787 0.9876173
vn 0.808206 -0.5045279 0.3037344
vn 0.808206 -0.5045279 0.3037344
vn 0.2681202 -0.04324466 0.9624144
vn 0.7947519 -0.5564222 -0.2424121
vn 0.806284 -0.5602663 -0.1897573
vn 0.6390688 -0.4680097 -0.6103753
vn 0.5775644 -0.4276474 -0.6953683
vn -0.07784224 0.03555787 -0.9963314
vn 0.02402455 -0.03747863 -0.9990086
vn -0.7197946 0.4968411 -0.484814
vn -0.7178726 0.4949191 -0.489606
vn -0.8139733 0.5756437 0.07798621
vn -0.8082073 0.5756437 0.1242392
vn -0.5794877 0.4718549 0.66449
vn -0.6525242 0.5064511 0.563666
vn 0.1527994 0.03555787 0.9876173
vn 0.2681202 -0.04324466 0.9624144
vn -0.8908539 0.4526348 0.03874382
vn -0.9831105 0.03555787 -0.1795251
vn -0.8062853 0.1547227 0.5709334
vn -0.8754778 0.481465 0.04159446
vn -0.8656892 0.5005819 0
vn -0.8656892 0.5005819 0
vn -0.8677897 0.327704 0.3735654
vn 0.03171259 0.7236387 0.6894501
vn 0.01441449 0.6140839 0.7891091
vn -0.07207608 0.4007404 0.9133522
vn -0.6025518 0.1393466 -0.7858205
vn -0.6025518 0.1393466 -0.7858205
vn -0.7121066 -0.09706104 0.6953297
vn -0.8255054 -0.5525782 -0.1148834
vn -0.1528007 0.03555787 0.9876171
vn -0.2681215 -0.04324466 0.962414
vn -0.8082073 -0.5045279 0.3037311
vn -0.8082073 -0.5045279 0.3037311
vn -0.7947532 -0.5564222 -0.2424081
vn -0.8062853 -0.5602663 -0.1897519
vn -0.6390702 -0.4680097 -0.6103739
vn -0.5775657 -0.4276474 -0.6953673
vn 0.07784092 0.03555787 -0.9963315
vn -0.0240258 -0.03747863 -0.9990086
vn 0.7197934 0.4968411 -0.4848158
vn 0.7178714 0.4949191 -0.4896078
vn 0.8139721 0.5756437 0.0779992
vn 0.808206 0.5756437 0.1242473
vn 0.5794864 0.4718549 0.6644911
vn 0.6525229 0.5064511 0.5636676
vn -0.1528007 0.03555787 0.9876171
vn -0.2681215 -0.04324466 0.962414
g model_car_82_matte_tile_LOD1_0
f 3/3/3 2/2/2 1/1/1
f 4/4/4 3/3/3 1/1/1
f 3/3/3 4/4/4 5/5/5
f 6/6/6 3/3/3 5/5/5
f 7/7/7 3/3/3 6/6/6
f 8/8/8 7/7/7 6/6/6
f 3/3/3 7/7/7 9/9/9
f 2/2/2 3/3/3 9/9/9
f 10/10/10 5/5/5 4/4/4
f 1/1/1 10/10/10 4/4/4
f 13/13/13 12/12/12 11/11/11
f 13/13/13 11/11/11 14/14/14
f 14/14/14 15/15/15 13/13/13
f 15/15/15 14/14/14 16/16/16
f 14/14/14 17/17/17 16/16/16
f 17/17/17 14/14/14 11/11/11
f 15/15/15 18/18/18 13/13/13
f 13/13/13 18/18/18 19/19/19
f 12/12/12 13/13/13 19/19/19
f 22/22/22 21/21/21 20/20/20
f 23/23/23 22/22/22 20/20/20
f 26/26/26 25/25/25 24/24/24
f 27/27/27 26/26/26 24/24/24
f 25/25/25 26/26/26 28/28/28
f 26/26/26 29/29/29 28/28/28
f 26/26/26 30/30/30 29/29/29
f 30/30/30 31/31/31 29/29/29
f 26/26/26 27/27/27 32/32/32
f 30/30/30 26/26/26 32/32/32
f 33/33/33 24/24/24 25/25/25
f 28/28/28 33/33/33 25/25/25
f 32/32/32 35/35/35 34/34/34
f 35/35/35 36/36/36 34/34/34
f 39/39/39 38/38/38 37/37/37
f 37/37/37 38/38/38 40/40/40
f 41/41/41 40/40/40 38/38/38
f 40/40/40 41/41/41 42/42/42
f 43/43/43 40/40/40 42/42/42
f 40/40/40 43/43/43 37/37/37
f 44/44/44 41/41/41 38/38/38
f 38/38/38 39/39/39 45/45/45
f 44/44/44 38/38/38 45/45/45
f 48/48/48 47/47/47 46/46/46
f 49/49/49 48/48/48 46/46/46
f 47/47/47 48/48/48 50/50/50
f 51/51/51 47/47/47 50/50/50
f 49/49/49 46/46/46 52/52/52
f 53/53/53 49/49/49 52/52/52
f 56/56/56 55/55/55 54/54/54
f 57/57/57 56/56/56 54/54/54
f 58/58/58 55/55/55 56/56/56
f 59/59/59 58/58/58 56/56/56
f 59/59/59 60/60/60 58/58/58
f 60/60/60 61/61/61 58/58/58
f 64/64/64 63/63/63 62/62/62
f 65/65/65 64/64/64 62/62/62
f 63/63/63 64/64/64 66/66/66
f 67/67/67 63/63/63 66/66/66
f 67/67/67 66/66/66 68/68/68
f 69/69/69 67/67/67 68/68/68
f 72/72/72 71/71/71 70/70/70
f 73/73/73 72/72/72 70/70/70
f 72/72/72 73/73/73 74/74/74
f 73/73/73 75/75/75 74/74/74
f 70/70/70 71/71/71 76/76/76
f 71/71/71 77/77/77 76/76/76
f 80/80/80 79/79/79 78/78/78
f 81/81/81 80/80/80 78/78/78
f 81/81/81 82/82/82 80/80/80
f 82/82/82 83/83/83 80/80/80
f 84/84/84 83/83/83 82/82/82
f 85/85/85 84/84/84 82/82/82
f 88/88/88 87/87/87 86/86/86
f 89/89/89 88/88/88 86/86/86
f 88/88/88 89/89/89 90/90/90
f 89/89/89 91/91/91 90/90/90
f 90/90/90 91/91/91 92/92/92
f 91/91/91 93/93/93 92/92/92
f 96/96/96 95/95/95 94/94/94
f 97/97/97 96/96/96 94/94/94
f 96/96/96 98/98/98 95/95/95
f 98/98/98 99/99/99 95/95/95
f 97/97/97 94/94/94 100/100/100
f 101/101/101 97/97/97 100/100/100
f 104/104/104 103/103/103 102/102/102
f 105/105/105 104/104/104 102/102/102
f 106/106/106 104/104/104 105/105/105
f 107/107/107 106/106/106 105/105/105
f 102/102/102 103/103/103 108/108/108
f 103/103/103 109/109/109 108/108/108
f 112/112/112 111/111/111 110/110/110
f 112/112/112 110/110/110 113/113/113
f 114/114/114 112/112/112 113/113/113
f 114/114/114 113/113/113 115/115/115
f 116/116/116 114/114/114 115/115/115
f 111/111/111 117/117/117 110/110/110
f 117/117/117 118/118/118 110/110/110
f 110/110/110 118/118/118 113/113/113
f 118/118/118 119/119/119 113/113/113
f 112/112/112 114/114/114 120/120/120
f 121/121/121 112/112/112 120/120/120
f 113/113/113 119/119/119 122/122/122
f 115/115/115 113/113/113 122/122/122
f 115/115/115 122/122/122 116/116/116
f 122/122/122 123/123/123 116/116/116
f 126/126/126 125/125/125 124/124/124
f 127/127/127 126/126/126 124/124/124
f 128/128/128 125/125/125 126/126/126
f 129/129/129 128/128/128 126/126/126
f 129/129/129 130/130/130 128/128/128
f 130/130/130 131/131/131 128/128/128
f 132/132/132 131/131/131 130/130/130
f 133/133/133 132/132/132 130/130/130
f 133/133/133 134/134/134 132/132/132
f 134/134/134 135/135/135 132/132/132
f 136/136/136 135/135/135 134/134/134
f 137/137/137 136/136/136 134/134/134
f 137/137/137 138/138/138 136/136/136
f 138/138/138 139/139/139 136/136/136
f 140/140/140 139/139/139 138/138/138
f 141/141/141 140/140/140 138/138/138
f 144/144/144 143/143/143 142/142/142
f 142/142/142 143/143/143 145/145/145
f 143/143/143 146/146/146 145/145/145
f 145/145/145 146/146/146 147/147/147
f 146/146/146 148/148/148 147/147/147
f 149/149/149 144/144/144 142/142/142
f 150/150/150 149/149/149 142/142/142
f 150/150/150 142/142/142 145/145/145
f 151/151/151 150/150/150 145/145/145
f 146/146/146 143/143/143 152/152/152
f 143/143/143 153/153/153 152/152/152
f 145/145/145 147/147/147 154/154/154
f 151/151/151 145/145/145 154/154/154
f 154/154/154 147/147/147 148/148/148
f 155/155/155 154/154/154 148/148/148
f 158/158/158 157/157/157 156/156/156
f 159/159/159 158/158/158 156/156/156
f 159/159/159 160/160/160 158/158/158
f 160/160/160 161/161/161 158/158/158
f 162/162/162 161/161/161 160/160/160
f 163/163/163 162/162/162 160/160/160
f 163/163/163 164/164/164 162/162/162
f 164/164/164 165/165/165 162/162/162
f 166/166/166 165/165/165 164/164/164
f 167/167/167 166/166/166 164/164/164
f 167/167/167 168/168/168 166/166/166
f 168/168/168 169/169/169 166/166/166
f 170/170/170 169/169/169 168/168/168
f 171/171/171 170/170/170 168/168/168
f 171/171/171 172/172/172 170/170/170
f 172/172/172 173/173/173 170/170/170
