g model_car_100_matte_backlight_LOD1
v 0.4532914 0.8314106 -2.094958
v 0.4471399 0.8297763 -2.089975
v 0.4304475 0.8306217 -2.094447
v 0.4321073 0.8323128 -2.100723
v 0.5231452 0.828681 -2.071589
v 0.5208186 0.826726 -2.065664
v 0.3974798 0.788563 -2.113625
v 0.3987879 0.790271 -2.119938
v 0.5923834 0.8257074 -2.040834
v 0.5893474 0.8236475 -2.035276
v 0.6448184 0.8221378 -2.009872
v 0.6412348 0.8199673 -2.004706
v 0.6973953 0.818367 -1.970467
v 0.6933209 0.8159921 -1.965782
v 0.743293 0.813688 -1.927838
v 0.7387419 0.8112876 -1.923636
v 0.7812064 0.8114409 -1.883725
v 0.7760621 0.8091142 -1.879917
v 0.7926213 0.810286 -1.868318
v 0.7875111 0.8078942 -1.864811
v 0.7982988 0.8080275 -1.862078
v 0.7942584 0.8053463 -1.856557
v 0.8000126 0.8031983 -1.862524
v 0.7955722 0.8014336 -1.856934
v 0.7975725 0.8087113 -1.872438
v 0.7864045 0.8097641 -1.887828
v 0.7996551 0.8052895 -1.871586
v 0.7804403 0.7964027 -1.902256
v 0.744638 0.7818158 -1.949998
v 0.7478557 0.8120878 -1.932363
v 0.7152965 0.7731447 -1.981606
v 0.7014074 0.8167384 -1.975483
v 0.6660194 0.7622404 -2.024045
v 0.64828 0.8203049 -2.015269
v 0.6094843 0.7535694 -2.060784
v 0.5952718 0.8237524 -2.046512
v 0.530426 0.7447367 -2.097664
v 0.5253159 0.8266211 -2.077539
v 0.4644026 0.738239 -2.121181
v 0.4605522 0.8290584 -2.099537
v 0.4351746 0.8302982 -2.106355
v 0.4251586 0.7353561 -2.132397
v 0.403007 0.7894938 -2.125034
v 0.3910815 0.7341588 -2.140759
v 0.3815649 0.7348113 -2.142702
v 0.3823282 0.7541256 -2.138205
v 0.3773882 0.7380233 -2.14291
v 0.3772748 0.7426028 -2.141922
v 0.377967 0.754622 -2.133197
v 0.3767697 0.7530417 -2.126838
v 0.3714184 0.740804 -2.130791
v 0.3726044 0.7422624 -2.137184
v 0.3715715 0.7338893 -2.132283
v 0.372942 0.7352824 -2.138699
v 0.3778535 0.7291026 -2.131952
v 0.3792239 0.7303114 -2.138372
v 0.3885193 0.7283337 -2.129775
v 0.3899721 0.72946 -2.136173
v 0.4225936 0.729511 -2.121422
v 0.4242024 0.7306519 -2.12778
v 0.4615057 0.7324052 -2.110311
v 0.4633584 0.7335486 -2.116596
v 0.5267969 0.7387013 -2.08709
v 0.5291321 0.7399611 -2.093195
v 0.6046352 0.7474492 -2.050802
v 0.6077194 0.7487714 -2.056553
v 0.6601688 0.7557201 -2.014835
v 0.6639141 0.7572751 -2.020116
v 0.7087024 0.7664087 -1.97308
v 0.712967 0.7681081 -1.977901
v 0.7374395 0.7750316 -1.942053
v 0.7421156 0.776782 -1.946445
v 0.7725863 0.7895761 -1.894893
v 0.7776568 0.7913663 -1.898876
v 0.7914608 0.798315 -1.864731
v 0.7967837 0.8002191 -1.868312
v 0.8007759 0.8061888 -1.869183
v 0.8001318 0.8077636 -1.869203
v -0.4532907 0.8314106 -2.094958
v -0.4321067 0.8323128 -2.100723
v -0.4304469 0.8306217 -2.094447
v -0.4471421 0.8297763 -2.089975
v -0.5231445 0.828681 -2.071589
v -0.5208178 0.826726 -2.065664
v -0.3974791 0.788563 -2.113625
v -0.398787 0.790271 -2.119938
v -0.5923855 0.8257074 -2.040834
v -0.5893466 0.8236475 -2.035276
v -0.6448205 0.8221378 -2.009872
v -0.641237 0.8199673 -2.004706
v -0.6973975 0.818367 -1.970467
v -0.69332 0.8159921 -1.965782
v -0.7432923 0.813688 -1.927838
v -0.7387412 0.8112876 -1.923636
v -0.7812057 0.8114409 -1.883725
v -0.7760615 0.8091142 -1.879917
v -0.7926204 0.810286 -1.868318
v -0.7875104 0.8078942 -1.864811
v -0.7982981 0.8080275 -1.862078
v -0.7942605 0.8053463 -1.856557
v -0.8000119 0.8031983 -1.862524
v -0.7955713 0.8014336 -1.856934
v -0.7975745 0.8087113 -1.872438
v -0.7864037 0.8097641 -1.887828
v -0.7996545 0.8052895 -1.871586
v -0.7804396 0.7964027 -1.902256
v -0.7446373 0.7818158 -1.949998
v -0.7478549 0.8120878 -1.932363
v -0.7152958 0.7731447 -1.981606
v -0.7014067 0.8167384 -1.975483
v -0.6660187 0.7622404 -2.024045
v -0.6482794 0.8203049 -2.015269
v -0.6094863 0.7535694 -2.060784
v -0.5952711 0.8237524 -2.046512
v -0.5304282 0.7447367 -2.097664
v -0.5253179 0.8266211 -2.077539
v -0.464402 0.738239 -2.121181
v -0.4605515 0.8290584 -2.099537
v -0.4351766 0.8302982 -2.106355
v -0.4251578 0.7353561 -2.132397
v -0.4030092 0.7894938 -2.125034
v -0.3910835 0.7341588 -2.140759
v -0.3815641 0.7348113 -2.142702
v -0.3823273 0.7541256 -2.138205
v -0.3773875 0.7380233 -2.14291
v -0.3772769 0.7426028 -2.141922
v -0.3779664 0.754622 -2.133197
v -0.3767688 0.7530417 -2.126838
v -0.3714175 0.740804 -2.130791
v -0.3726037 0.7422624 -2.137184
v -0.3715708 0.7338893 -2.132283
v -0.3729413 0.7352824 -2.138699
v -0.3778555 0.7291026 -2.131952
v -0.3792233 0.7303114 -2.138372
v -0.3885186 0.7283337 -2.129775
v -0.3899741 0.72946 -2.136173
v -0.4225929 0.729511 -2.121422
v -0.4242046 0.7306519 -2.12778
v -0.4615049 0.7324052 -2.110311
v -0.4633577 0.7335486 -2.116596
v -0.5267963 0.7387013 -2.08709
v -0.5291314 0.7399611 -2.093195
v -0.6046345 0.7474492 -2.050802
v -0.6077187 0.7487714 -2.056553
v -0.6601679 0.7557201 -2.014835
v -0.6639135 0.7572751 -2.020116
v -0.7087016 0.7664087 -1.97308
v -0.7129662 0.7681081 -1.977901
v -0.7374415 0.7750316 -1.942053
v -0.7421176 0.776782 -1.946445
v -0.7725885 0.7895761 -1.894893
v -0.7776561 0.7913663 -1.898876
v -0.79146 0.798315 -1.864731
v -0.796783 0.8002191 -1.868312
v -0.8007779 0.8061888 -1.869183
v -0.8001311 0.8077636 -1.869203
vt 0.8555953 0.1509165
vt 0.8625838 0.1593327
vt 0.8853527 0.1543431
vt 0.8819411 0.1469638
vt 0.7594549 0.1541176
vt 0.7595451 0.1629998
vt 0.9376836 0.1094816
vt 0.9313414 0.1036053
vt 0.6582949 0.1545986
vt 0.6582798 0.1635108
vt 0.5766875 0.1544182
vt 0.5766724 0.1634056
vt 0.4881968 0.1545385
vt 0.4881818 0.1635258
vt 0.403253 0.1547188
vt 0.4033282 0.1637512
vt 0.3247266 0.1559061
vt 0.3243208 0.1652992
vt 0.3010259 0.1530356
vt 0.2968028 0.1620379
vt 0.2932259 0.1477454
vt 0.2830813 0.1497893
vt 0.292249 0.1425604
vt 0.28242 0.1427858
vt 0.3032202 0.1461673
vt 0.3248469 0.1468737
vt 0.3012363 0.142395
vt 0.3428365 0.1267198
vt 0.4202057 0.1014711
vt 0.4031779 0.1456714
vt 0.4759031 0.08582597
vt 0.4882269 0.1457014
vt 0.5594793 0.06702472
vt 0.5767025 0.1454008
vt 0.6460462 0.05106394
vt 0.6583099 0.1457766
vt 0.7597555 0.03418639
vt 0.7593797 0.1452656
vt 0.8521386 0.02569502
vt 0.8474796 0.1426956
vt 0.8787249 0.1399754
vt 0.9059123 0.02673202
vt 0.9252396 0.09795436
vt 0.9494963 0.03411125
vt 0.9592803 0.03731242
vt 0.9563797 0.0568501
vt 0.9628421 0.0406188
vt 0.9625415 0.044872
vt 0.9634733 0.06087786
vt 0.9710329 0.06471025
vt 0.9776306 0.04655525
vt 0.9691392 0.04583386
vt 0.9767138 0.03585461
vt 0.968478 0.03849971
vt 0.9699508 0.02543953
vt 0.9634733 0.03197714
vt 0.9553126 0.01727879
vt 0.951901 0.02613086
vt 0.9075505 0.008877593
vt 0.9067088 0.01794007
vt 0.8517479 0.007765449
vt 0.8519433 0.01681289
vt 0.7575763 0.01646723
vt 0.7586734 0.02534936
vt 0.6430705 0.03381067
vt 0.6445734 0.04248239
vt 0.5561429 0.04974139
vt 0.5578111 0.05838305
vt 0.4716499 0.06854264
vt 0.473784 0.07719933
vt 0.4150358 0.08424792
vt 0.4176358 0.09290462
vt 0.3367047 0.1099174
vt 0.3398458 0.1183337
vt 0.2904906 0.1291996
vt 0.2972987 0.1363684
vt 0.2988317 0.1436124
vt 0.2993126 0.1451153
vt 1.855593 0.1509165
vt 1.881939 0.1469638
vt 1.885351 0.1543431
vt 1.862582 0.1593327
vt 1.759453 0.1541176
vt 1.759543 0.1629998
vt 1.937682 0.1094816
vt 1.93134 0.1036053
vt 1.658293 0.1545986
vt 1.658278 0.1635108
vt 1.576686 0.1544182
vt 1.576671 0.1634056
vt 1.48821 0.1545385
vt 1.48818 0.1635258
vt 1.403251 0.1547188
vt 1.403326 0.1637512
vt 1.324725 0.1559061
vt 1.324319 0.1652992
vt 1.301024 0.1530356
vt 1.296801 0.1620379
vt 1.293239 0.1477454
vt 1.28308 0.1497893
vt 1.292247 0.1425604
vt 1.282418 0.1427858
vt 1.303218 0.1461673
vt 1.324845 0.1468737
vt 1.301234 0.142395
vt 1.342835 0.1267198
vt 1.420204 0.1014711
vt 1.403176 0.1456714
vt 1.475901 0.08582597
vt 1.488225 0.1457014
vt 1.559477 0.06702472
vt 1.576701 0.1454008
vt 1.646059 0.05106394
vt 1.658308 0.1457766
vt 1.759754 0.03418639
vt 1.759378 0.1452656
vt 1.852137 0.02569502
vt 1.847478 0.1426956
vt 1.878723 0.1399754
vt 1.90591 0.02673202
vt 1.925238 0.09795436
vt 1.949494 0.03411125
vt 1.959278 0.03731242
vt 1.956378 0.0568501
vt 1.96284 0.0406188
vt 1.96254 0.044872
vt 1.963472 0.06087786
vt 1.971031 0.06471025
vt 1.977629 0.04655525
vt 1.969137 0.04583386
vt 1.976712 0.03585461
vt 1.968476 0.03849971
vt 1.969949 0.02543953
vt 1.963487 0.03197714
vt 1.955311 0.01727879
vt 1.951899 0.02613086
vt 1.907564 0.008877593
vt 1.906707 0.01794007
vt 1.851746 0.007765449
vt 1.851941 0.01681289
vt 1.757574 0.01646723
vt 1.758672 0.02534936
vt 1.643069 0.03381067
vt 1.644572 0.04248239
vt 1.556141 0.04974139
vt 1.557809 0.05838305
vt 1.471648 0.06854264
vt 1.473782 0.07719933
vt 1.415034 0.08424792
vt 1.417634 0.09290462
vt 1.336718 0.1099174
vt 1.339844 0.1183337
vt 1.290489 0.1291996
vt 1.297297 0.1363684
vt 1.29883 0.1436124
vt 1.299311 0.1451153
vn -0.05079329 0.9608437 0.2723957
vn -0.04316175 0.9608437 0.2737088
vn -0.4495366 0.8826213 0.1374648
vn -0.636507 0.7681495 0.06931917
vn -0.0698719 0.9570279 0.2814524
vn -0.0698719 0.9570279 0.2814524
vn -0.8215697 0.5697318 -0.02070954
vn -0.8158461 0.5773633 -0.03235485
vn -0.09848976 0.9493965 0.2982382
vn -0.1003977 0.9493965 0.2976014
vn -0.1385549 0.9417651 0.3064002
vn -0.1366471 0.9417651 0.3072558
vn -0.1767122 0.9341335 0.3101087
vn -0.1767122 0.9341335 0.3101087
vn -0.2186852 0.9341335 0.282084
vn -0.2186852 0.9341335 0.282084
vn -0.2453952 0.9341335 0.2591828
vn -0.2453952 0.9341335 0.2591828
vn -0.1996065 0.9303179 0.3076782
vn -0.1805279 0.9265021 0.3301567
vn 0.1552559 0.8215697 0.5485607
vn 0.4547903 0.6078891 0.6508738
vn 0.6780102 -0.6303136 0.3781625
vn 0.7734033 -0.3498579 0.5286272
vn 0.7753112 0.3369726 -0.5341741
vn 0.7390618 0.2930918 -0.6065351
vn 0.7810348 0.289276 -0.5534474
vn 0.7237989 0.304539 -0.6191697
vn 0.6703788 0.3140782 -0.6722702
vn 0.6894574 0.3102626 -0.6545117
vn 0.611235 0.3007232 -0.7320911
vn 0.6093272 0.3007232 -0.7336798
vn 0.5406442 0.2816446 -0.7927044
vn 0.5330127 0.2797368 -0.7985266
vn 0.4357117 0.2587502 -0.8620926
vn 0.431896 0.2587502 -0.8640105
vn 0.3498579 0.2434874 -0.9046068
vn 0.3536736 0.2453952 -0.9026052
vn 0.2907141 0.2358559 -0.9272849
vn 0.292622 0.2358559 -0.9266846
vn 0.2525569 0.2320402 -0.9393468
vn 0.2487411 0.2301323 -0.9408331
vn 0.2411097 0.2263166 -0.9437409
vn 0.237294 0.2244087 -0.9451625
vn 0.2220311 0.2186852 -0.9501994
vn 0.2239389 0.2186852 -0.9497516
vn 0.2143996 0.2129616 -0.9532471
vn 0.2143996 0.2129616 -0.9532471
vn -0.8692663 0.4915094 -0.05286391
vn -0.8826213 0.4667072 -0.05624992
vn -0.9665673 0.2186852 -0.1338823
vn -0.9513043 0.2835525 -0.1209052
vn -0.8673584 -0.4223567 -0.2632568
vn -0.8540033 -0.445251 -0.269128
vn -0.3236176 -0.9145852 -0.2424988
vn -0.2778289 -0.931756 -0.2337561
vn 0.0178898 -0.9851761 -0.1706108
vn 0.04650772 -0.9851761 -0.1651214
vn 0.09420431 -0.9832682 -0.1559139
vn 0.09420431 -0.9832682 -0.1559139
vn 0.1304537 -0.9813604 -0.1411156
vn 0.1342694 -0.9813604 -0.1374902
vn 0.1590716 -0.9775447 -0.1382123
vn 0.1590716 -0.9775447 -0.1382123
vn 0.1972288 -0.9718211 -0.1290913
vn 0.1934131 -0.9737289 -0.1201807
vn 0.2525569 -0.9622818 -0.1011379
vn 0.250649 -0.9622818 -0.1057774
vn 0.3040692 -0.9508346 -0.05878367
vn 0.3021613 -0.9508346 -0.06791279
vn 0.3403186 -0.9393874 -0.0416487
vn 0.3439834 -0.9389757 0
vn 0.3593972 -0.931756 0.05161828
vn 0.3593972 -0.931756 0.05161828
vn 0.4128174 -0.9050459 0.1023418
vn 0.3822916 -0.9222167 0.05804851
vn 0.7886662 0.3407884 -0.5117313
vn 0.7886662 0.3407884 -0.5117313
vn 0.05032349 0.9608437 0.2724829
vn 0.6360372 0.7681495 0.07350498
vn 0.4490667 0.8826213 0.1389922
vn 0.04459989 0.9608437 0.2734782
vn 0.0694021 0.9570279 0.2815687
vn 0.0694021 0.9570279 0.2815687
vn 0.8210999 0.5697318 -0.03465034
vn 0.8153763 0.5773633 -0.04258067
vn 0.0999279 0.9493965 0.2977595
vn 0.0999279 0.9493965 0.2977595
vn 0.1380851 0.9417651 0.3066121
vn 0.1361773 0.9417651 0.3074643
vn 0.1762424 0.9341335 0.3103758
vn 0.1781502 0.9341335 0.3092847
vn 0.2201232 0.9341335 0.2809632
vn 0.2201232 0.9341335 0.2809632
vn 0.2449254 0.9341335 0.2596268
vn 0.2449254 0.9341335 0.2596268
vn 0.2010446 0.9303179 0.3067405
vn 0.1800581 0.9265021 0.3304132
vn -0.1557257 0.8215697 0.5484275
vn -0.4533522 0.6078891 0.6518763
vn -0.67848 -0.6303136 0.3773189
vn -0.7738731 -0.3498579 0.5279393
vn -0.7738731 0.3369726 -0.5362554
vn -0.7395316 0.2930918 -0.6059622
vn -0.7815046 0.289276 -0.5527838
vn -0.7223608 0.304539 -0.6208469
vn -0.6708486 0.3140782 -0.6718013
vn -0.6899272 0.3102626 -0.6540164
vn -0.6117048 0.3007232 -0.7316985
vn -0.6078891 0.3007232 -0.7348717
vn -0.539206 0.2816446 -0.7936834
vn -0.5315746 0.2797368 -0.7994847
vn -0.4342736 0.2587502 -0.8628179
vn -0.4323658 0.2587502 -0.8637755
vn -0.3503276 0.2434874 -0.9044249
vn -0.3579592 0.2453952 -0.9009143
vn -0.2911839 0.2358559 -0.9271375
vn -0.2949996 0.2358559 -0.9259305
vn -0.2530267 0.2320402 -0.9392203
vn -0.249211 0.2301323 -0.9407088
vn -0.2415795 0.2263166 -0.9436207
vn -0.2377638 0.2244087 -0.9450445
vn -0.2225009 0.2186852 -0.9500896
vn -0.2225009 0.2186852 -0.9500896
vn -0.2129616 0.2129616 -0.9535695
vn -0.2129616 0.2129616 -0.9535695
vn 0.8707044 0.4915094 -0.01709943
vn 0.8821515 0.4667072 -0.06319093
vn 0.9660975 0.2186852 -0.1372316
vn 0.9527424 0.2835525 -0.1089949
vn 0.8668886 -0.4223567 -0.2647998
vn 0.8554415 -0.445251 -0.2645213
vn 0.3231478 -0.9145852 -0.2431245
vn 0.2773591 -0.931756 -0.2343133
vn -0.01835954 -0.9851761 -0.1705608
vn -0.04697752 -0.9851761 -0.1649885
vn -0.09467411 -0.9832682 -0.1556293
vn -0.09467411 -0.9832682 -0.1556293
vn -0.1290156 -0.9813604 -0.1424317
vn -0.1328313 -0.9813604 -0.13888
vn -0.1595414 -0.9775447 -0.1376698
vn -0.1595414 -0.9775447 -0.1376698
vn -0.1957908 -0.9718211 -0.1312623
vn -0.1938829 -0.9737289 -0.1194212
vn -0.2511188 -0.9622818 -0.1046575
vn -0.2511188 -0.9622818 -0.1046575
vn -0.304539 -0.9508346 -0.05629917
vn -0.2988154 -0.9508346 -0.08138163
vn -0.3407884 -0.9393874 -0.03761113
vn -0.3443973 -0.938824 0
vn -0.359867 -0.931756 0.04823492
vn -0.3596455 -0.933089 0
vn -0.4132872 -0.9050459 0.1004276
vn -0.3827614 -0.9222167 0.05486541
vn -0.7891361 0.3407884 -0.5110065
vn -0.7891361 0.3407884 -0.5110065
g model_car_100_matte_backlight_LOD1_0
f 3/3/3 2/2/2 1/1/1
f 4/4/4 3/3/3 1/1/1
f 1/1/1 2/2/2 5/5/5
f 2/2/2 6/6/6 5/5/5
f 7/7/7 3/3/3 4/4/4
f 8/8/8 7/7/7 4/4/4
f 5/5/5 6/6/6 9/9/9
f 6/6/6 10/10/10 9/9/9
f 9/9/9 10/10/10 11/11/11
f 10/10/10 12/12/12 11/11/11
f 11/11/11 12/12/12 13/13/13
f 12/12/12 14/14/14 13/13/13
f 13/13/13 14/14/14 15/15/15
f 14/14/14 16/16/16 15/15/15
f 15/15/15 16/16/16 17/17/17
f 16/16/16 18/18/18 17/17/17
f 17/17/17 18/18/18 19/19/19
f 18/18/18 20/20/20 19/19/19
f 19/19/19 20/20/20 21/21/21
f 20/20/20 22/22/22 21/21/21
f 21/21/21 22/22/22 23/23/23
f 22/22/22 24/24/24 23/23/23
f 17/17/17 19/19/19 25/25/25
f 26/26/26 17/17/17 25/25/25
f 15/15/15 17/17/17 26/26/26
f 26/26/26 25/25/25 27/27/27
f 28/28/28 26/26/26 27/27/27
f 26/26/26 28/28/28 29/29/29
f 30/30/30 26/26/26 29/29/29
f 30/30/30 15/15/15 26/26/26
f 30/30/30 29/29/29 31/31/31
f 32/32/32 30/30/30 31/31/31
f 32/32/32 31/31/31 33/33/33
f 34/34/34 32/32/32 33/33/33
f 34/34/34 33/33/33 35/35/35
f 36/36/36 34/34/34 35/35/35
f 36/36/36 35/35/35 37/37/37
f 38/38/38 36/36/36 37/37/37
f 38/38/38 37/37/37 39/39/39
f 40/40/40 38/38/38 39/39/39
f 41/41/41 40/40/40 39/39/39
f 42/42/42 41/41/41 39/39/39
f 43/43/43 41/41/41 42/42/42
f 44/44/44 43/43/43 42/42/42
f 43/43/43 44/44/44 45/45/45
f 46/46/46 43/43/43 45/45/45
f 46/46/46 45/45/45 47/47/47
f 48/48/48 46/46/46 47/47/47
f 46/46/46 49/49/49 43/43/43
f 49/49/49 8/8/8 43/43/43
f 43/43/43 8/8/8 41/41/41
f 49/49/49 50/50/50 8/8/8
f 51/51/51 50/50/50 49/49/49
f 52/52/52 51/51/51 49/49/49
f 52/52/52 49/49/49 46/46/46
f 48/48/48 52/52/52 46/46/46
f 53/53/53 51/51/51 52/52/52
f 54/54/54 53/53/53 52/52/52
f 54/54/54 52/52/52 48/48/48
f 47/47/47 54/54/54 48/48/48
f 55/55/55 53/53/53 54/54/54
f 56/56/56 55/55/55 54/54/54
f 56/56/56 54/54/54 47/47/47
f 45/45/45 56/56/56 47/47/47
f 57/57/57 55/55/55 56/56/56
f 58/58/58 57/57/57 56/56/56
f 58/58/58 56/56/56 45/45/45
f 44/44/44 58/58/58 45/45/45
f 59/59/59 57/57/57 58/58/58
f 60/60/60 59/59/59 58/58/58
f 50/50/50 7/7/7 8/8/8
f 61/61/61 59/59/59 60/60/60
f 62/62/62 61/61/61 60/60/60
f 63/63/63 61/61/61 62/62/62
f 64/64/64 63/63/63 62/62/62
f 65/65/65 63/63/63 64/64/64
f 66/66/66 65/65/65 64/64/64
f 67/67/67 65/65/65 66/66/66
f 68/68/68 67/67/67 66/66/66
f 69/69/69 67/67/67 68/68/68
f 70/70/70 69/69/69 68/68/68
f 71/71/71 69/69/69 70/70/70
f 72/72/72 71/71/71 70/70/70
f 73/73/73 71/71/71 72/72/72
f 74/74/74 73/73/73 72/72/72
f 75/75/75 73/73/73 74/74/74
f 76/76/76 75/75/75 74/74/74
f 72/72/72 70/70/70 31/31/31
f 29/29/29 72/72/72 31/31/31
f 74/74/74 72/72/72 29/29/29
f 76/76/76 74/74/74 28/28/28
f 28/28/28 74/74/74 29/29/29
f 27/27/27 76/76/76 28/28/28
f 24/24/24 75/75/75 76/76/76
f 23/23/23 24/24/24 76/76/76
f 23/23/23 76/76/76 27/27/27
f 70/70/70 68/68/68 33/33/33
f 31/31/31 70/70/70 33/33/33
f 33/33/33 68/68/68 35/35/35
f 68/68/68 66/66/66 35/35/35
f 35/35/35 66/66/66 37/37/37
f 66/66/66 64/64/64 37/37/37
f 37/37/37 64/64/64 39/39/39
f 64/64/64 62/62/62 39/39/39
f 77/77/77 23/23/23 27/27/27
f 27/27/27 25/25/25 77/77/77
f 25/25/25 78/78/78 77/77/77
f 21/21/21 23/23/23 77/77/77
f 78/78/78 21/21/21 77/77/77
f 39/39/39 62/62/62 42/42/42
f 62/62/62 60/60/60 42/42/42
f 42/42/42 60/60/60 44/44/44
f 60/60/60 58/58/58 44/44/44
f 19/19/19 21/21/21 78/78/78
f 25/25/25 19/19/19 78/78/78
f 9/9/9 11/11/11 34/34/34
f 36/36/36 9/9/9 34/34/34
f 34/34/34 11/11/11 32/32/32
f 11/11/11 13/13/13 32/32/32
f 5/5/5 9/9/9 36/36/36
f 38/38/38 5/5/5 36/36/36
f 1/1/1 5/5/5 38/38/38
f 40/40/40 1/1/1 38/38/38
f 4/4/4 1/1/1 40/40/40
f 41/41/41 4/4/4 40/40/40
f 8/8/8 4/4/4 41/41/41
f 32/32/32 13/13/13 30/30/30
f 13/13/13 15/15/15 30/30/30
f 81/81/81 80/80/80 79/79/79
f 82/82/82 81/81/81 79/79/79
f 82/82/82 79/79/79 83/83/83
f 84/84/84 82/82/82 83/83/83
f 81/81/81 85/85/85 80/80/80
f 85/85/85 86/86/86 80/80/80
f 84/84/84 83/83/83 87/87/87
f 88/88/88 84/84/84 87/87/87
f 88/88/88 87/87/87 89/89/89
f 90/90/90 88/88/88 89/89/89
f 90/90/90 89/89/89 91/91/91
f 92/92/92 90/90/90 91/91/91
f 92/92/92 91/91/91 93/93/93
f 94/94/94 92/92/92 93/93/93
f 94/94/94 93/93/93 95/95/95
f 96/96/96 94/94/94 95/95/95
f 96/96/96 95/95/95 97/97/97
f 98/98/98 96/96/96 97/97/97
f 98/98/98 97/97/97 99/99/99
f 100/100/100 98/98/98 99/99/99
f 100/100/100 99/99/99 101/101/101
f 102/102/102 100/100/100 101/101/101
f 97/97/97 95/95/95 103/103/103
f 95/95/95 104/104/104 103/103/103
f 95/95/95 93/93/93 104/104/104
f 103/103/103 104/104/104 105/105/105
f 104/104/104 106/106/106 105/105/105
f 106/106/106 104/104/104 107/107/107
f 104/104/104 108/108/108 107/107/107
f 93/93/93 108/108/108 104/104/104
f 107/107/107 108/108/108 109/109/109
f 108/108/108 110/110/110 109/109/109
f 109/109/109 110/110/110 111/111/111
f 110/110/110 112/112/112 111/111/111
f 111/111/111 112/112/112 113/113/113
f 112/112/112 114/114/114 113/113/113
f 113/113/113 114/114/114 115/115/115
f 114/114/114 116/116/116 115/115/115
f 115/115/115 116/116/116 117/117/117
f 116/116/116 118/118/118 117/117/117
f 118/118/118 119/119/119 117/117/117
f 119/119/119 120/120/120 117/117/117
f 119/119/119 121/121/121 120/120/120
f 121/121/121 122/122/122 120/120/120
f 122/122/122 121/121/121 123/123/123
f 121/121/121 124/124/124 123/123/123
f 123/123/123 124/124/124 125/125/125
f 124/124/124 126/126/126 125/125/125
f 127/127/127 124/124/124 121/121/121
f 86/86/86 127/127/127 121/121/121
f 86/86/86 121/121/121 119/119/119
f 128/128/128 127/127/127 86/86/86
f 128/128/128 129/129/129 127/127/127
f 129/129/129 130/130/130 127/127/127
f 130/130/130 126/126/126 124/124/124
f 127/127/127 130/130/130 124/124/124
f 129/129/129 131/131/131 130/130/130
f 131/131/131 132/132/132 130/130/130
f 132/132/132 125/125/125 126/126/126
f 130/130/130 132/132/132 126/126/126
f 131/131/131 133/133/133 132/132/132
f 133/133/133 134/134/134 132/132/132
f 134/134/134 123/123/123 125/125/125
f 132/132/132 134/134/134 125/125/125
f 133/133/133 135/135/135 134/134/134
f 135/135/135 136/136/136 134/134/134
f 136/136/136 122/122/122 123/123/123
f 134/134/134 136/136/136 123/123/123
f 135/135/135 137/137/137 136/136/136
f 137/137/137 138/138/138 136/136/136
f 85/85/85 128/128/128 86/86/86
f 137/137/137 139/139/139 138/138/138
f 139/139/139 140/140/140 138/138/138
f 139/139/139 141/141/141 140/140/140
f 141/141/141 142/142/142 140/140/140
f 141/141/141 143/143/143 142/142/142
f 143/143/143 144/144/144 142/142/142
f 143/143/143 145/145/145 144/144/144
f 145/145/145 146/146/146 144/144/144
f 145/145/145 147/147/147 146/146/146
f 147/147/147 148/148/148 146/146/146
f 147/147/147 149/149/149 148/148/148
f 149/149/149 150/150/150 148/148/148
f 149/149/149 151/151/151 150/150/150
f 151/151/151 152/152/152 150/150/150
f 151/151/151 153/153/153 152/152/152
f 153/153/153 154/154/154 152/152/152
f 148/148/148 150/150/150 109/109/109
f 150/150/150 107/107/107 109/109/109
f 150/150/150 152/152/152 107/107/107
f 152/152/152 154/154/154 106/106/106
f 152/152/152 106/106/106 107/107/107
f 154/154/154 105/105/105 106/106/106
f 153/153/153 102/102/102 154/154/154
f 102/102/102 101/101/101 154/154/154
f 154/154/154 101/101/101 105/105/105
f 148/148/148 109/109/109 111/111/111
f 146/146/146 148/148/148 111/111/111
f 146/146/146 111/111/111 113/113/113
f 144/144/144 146/146/146 113/113/113
f 144/144/144 113/113/113 115/115/115
f 142/142/142 144/144/144 115/115/115
f 142/142/142 115/115/115 117/117/117
f 140/140/140 142/142/142 117/117/117
f 101/101/101 155/155/155 105/105/105
f 103/103/103 105/105/105 155/155/155
f 156/156/156 103/103/103 155/155/155
f 99/99/99 156/156/156 155/155/155
f 101/101/101 99/99/99 155/155/155
f 140/140/140 117/117/117 120/120/120
f 138/138/138 140/140/140 120/120/120
f 138/138/138 120/120/120 122/122/122
f 136/136/136 138/138/138 122/122/122
f 97/97/97 103/103/103 156/156/156
f 99/99/99 97/97/97 156/156/156
f 87/87/87 114/114/114 112/112/112
f 89/89/89 87/87/87 112/112/112
f 89/89/89 112/112/112 110/110/110
f 91/91/91 89/89/89 110/110/110
f 87/87/87 83/83/83 114/114/114
f 83/83/83 116/116/116 114/114/114
f 83/83/83 79/79/79 116/116/116
f 79/79/79 118/118/118 116/116/116
f 79/79/79 80/80/80 118/118/118
f 80/80/80 119/119/119 118/118/118
f 80/80/80 86/86/86 119/119/119
f 91/91/91 110/110/110 108/108/108
f 93/93/93 91/91/91 108/108/108
