g model_car_100_matte_detail_LOD1
v 0.8681281 0.4191806 1.672146
v 0.8440377 0.4107423 1.709304
v 0.8667271 0.4210322 1.674108
v 0.8588336 0.383682 1.689252
v 0.8309458 0.3507643 1.730375
v 0.8490351 0.3301229 1.705678
v 0.7938211 0.3416171 1.777884
v 0.8030378 0.3936813 1.764653
v 0.68463 0.3138688 1.894522
v 0.7021416 0.2614894 1.877502
v 0.7836827 0.270829 1.79005
v 0.6992251 0.3539429 1.880222
v 0.5651612 0.2822084 1.988508
v 0.5622857 0.2513673 1.990326
v 0.6430074 0.2563732 1.930594
v 0.5838158 0.3113372 1.975707
v 0.526275 0.2510519 2.013651
v 0.5062482 0.2516458 2.026079
v 0.4982686 0.2577248 2.031072
v 0.4995672 0.2677813 2.030466
v 0.8188003 0.2774076 1.747067
v 0.5189878 0.2883039 2.018607
v 0.5097506 0.2827368 2.024404
v 0.8327606 0.288353 1.728687
v 0.840519 0.3041565 1.718012
v 0.3060864 0.4340584 2.163113
v 0.297013 0.4104843 2.167156
v 0.2335409 0.4024556 2.184167
v 0.2403039 0.4277787 2.181526
v 0.2265812 0.3779883 2.185421
v 0.1134864 0.3680792 2.205935
v 0.1176113 0.3934026 2.205689
v -1.66893E-06 0.3901379 2.216979
v -1.66893E-06 0.4163706 2.216225
v 0.1215683 0.4196599 2.204297
v -1.66893E-06 0.3648555 2.216594
v 0.2909014 0.3938 2.1689
v 0.3427606 0.4148304 2.156038
v 0.1265454 0.4579768 2.195773
v -1.66893E-06 0.4546669 2.208692
v -1.66893E-06 0.4871221 2.191549
v 0.1296626 0.490272 2.177777
v -1.66893E-06 0.5176189 2.164915
v 0.1320262 0.5208099 2.15025
v -1.66893E-06 0.5456705 2.131415
v 0.1348281 0.5488575 2.116017
v 0.2684045 0.553056 2.088089
v 0.2619364 0.5256765 2.122875
v 0.3620625 0.5576234 2.059808
v 0.3476311 0.5316365 2.095319
v 0.4337395 0.5621376 2.032743
v 0.4179237 0.5381129 2.066243
v 0.2554684 0.4953883 2.152049
v 0.3321307 0.5006645 2.128441
v 0.3922071 0.5050557 2.105429
v 0.494287 0.544466 2.032539
v 0.499813 0.5668483 2.005081
v 0.4552083 0.5085702 2.081297
v 0.2491928 0.4648421 2.171014
v 0.3193585 0.4695981 2.150488
v 0.5242925 0.5685115 1.994734
v 0.3729135 0.4732273 2.132571
v 0.3502978 0.4382284 2.151413
v 0.393309 0.4495096 2.129453
v 0.4262105 0.4799986 2.109074
v 0.6258439 0.7800446 1.353597
v 0.6454037 0.7924278 1.2535
v 0.7371283 0.7960448 1.179791
v 0.7321513 0.7899618 1.264752
v 0.5889977 0.7479706 1.519112
v 0.6763104 0.7606077 1.456873
v 0.5625806 0.7245398 1.617698
v 0.641672 0.7421496 1.54344
v 0.5104141 0.7366362 1.572438
v 0.5512502 0.7734783 1.398832
v 0.4829772 0.7101042 1.676337
v 0.5775567 0.7868485 1.313687
v 0.6571479 0.3538322 -1.997836
v 0.619511 0.3499777 -2.02109
v 0.6599252 0.3077407 -1.99369
v 0.7447474 0.3644745 -1.930005
v 0.745837 0.3103623 -1.926412
v 0.8165597 0.3737445 -1.864476
v 0.8163958 0.3264978 -1.862666
v 0.6518145 0.4164076 -2.001575
v 0.5732433 0.4004359 -2.046196
v 0.7418594 0.4306502 -1.931865
v 0.8151587 0.4390929 -1.86455
v 0.7370545 0.4981821 -1.931242
v 0.6430852 0.4963427 -2.002735
v 0.8128566 0.4947369 -1.862555
v 0.5746647 0.4939914 -2.041117
v 0.5210359 0.4381137 -2.068284
v 0.5260948 0.4932501 -2.063032
v 0.4920013 0.4637895 -2.078303
v 0.4910264 0.4907186 -2.076906
v -0.8681273 0.4191806 1.672146
v -0.8667264 0.4210322 1.674108
v -0.8440371 0.4107423 1.709304
v -0.8588328 0.383682 1.689252
v -0.8309453 0.3507643 1.730375
v -0.8490345 0.3301229 1.705678
v -0.7938204 0.3416171 1.777884
v -0.8030372 0.3936813 1.764653
v -0.6846294 0.3138688 1.894522
v -0.702141 0.2614894 1.877502
v -0.7836821 0.270829 1.79005
v -0.6992245 0.3539429 1.880222
v -0.5651608 0.2822084 1.988508
v -0.5622849 0.2513673 1.990326
v -0.6430109 0.2563732 1.930594
v -0.5838153 0.3113372 1.975707
v -0.5262744 0.2510519 2.013651
v -0.5062475 0.2516458 2.026079
v -0.4982681 0.2577248 2.031072
v -0.4995666 0.2677813 2.030466
v -0.8187997 0.2774076 1.747067
v -0.8327599 0.288353 1.728687
v -0.8405182 0.3041565 1.718012
v -0.5189872 0.2883039 2.018607
v -0.5097539 0.2827368 2.024404
v -0.3060899 0.4340584 2.163113
v -0.2403073 0.4277787 2.181526
v -0.2335403 0.4024556 2.184167
v -0.2970126 0.4104843 2.167156
v -0.2265847 0.3779883 2.185421
v -0.1134858 0.3680792 2.205935
v -0.1176107 0.3934026 2.205689
v -1.66893E-06 0.3901379 2.216979
v -1.66893E-06 0.4163706 2.216225
v -0.1215677 0.4196599 2.204297
v -1.66893E-06 0.3648555 2.216594
v -0.2909007 0.3938 2.1689
v -0.3427601 0.4148304 2.156038
v -0.1265447 0.4579768 2.195773
v -1.66893E-06 0.4546669 2.208692
v -1.66893E-06 0.4871221 2.191549
v -0.129662 0.490272 2.177777
v -1.66893E-06 0.5176189 2.164915
v -0.1320257 0.5208099 2.15025
v -1.66893E-06 0.5456705 2.131415
v -0.1348276 0.5488575 2.116017
v -0.2684081 0.553056 2.088089
v -0.2619359 0.5256765 2.122875
v -0.3620617 0.5576234 2.059808
v -0.3476305 0.5316365 2.095319
v -0.4337389 0.5621376 2.032743
v -0.4179232 0.5381129 2.066243
v -0.2554677 0.4953883 2.152049
v -0.3321302 0.5006645 2.128441
v -0.3922064 0.5050557 2.105429
v -0.4942906 0.544466 2.032539
v -0.4998124 0.5668483 2.005081
v -0.4552076 0.5085702 2.081297
v -0.2491922 0.4648421 2.171014
v -0.3193619 0.4695981 2.150488
v -0.5242918 0.5685115 1.994734
v -0.3729129 0.4732273 2.132571
v -0.3503013 0.4382284 2.151413
v -0.3933084 0.4495096 2.129453
v -0.4262099 0.4799986 2.109074
v -0.6258433 0.7800446 1.353597
v -0.7321506 0.7899618 1.264752
v -0.7371275 0.7960448 1.179791
v -0.6454031 0.7924278 1.2535
v -0.5889971 0.7479706 1.519112
v -0.6763098 0.7606077 1.456873
v -0.5625801 0.7245398 1.617698
v -0.6416755 0.7421496 1.54344
v -0.5104136 0.7366362 1.572438
v -0.5512495 0.7734783 1.398832
v -0.4829764 0.7101042 1.676337
v -0.5775561 0.7868485 1.313687
v -0.6571472 0.3538322 -1.997836
v -0.6599245 0.3077407 -1.99369
v -0.6195145 0.3499777 -2.02109
v -0.7447467 0.3644745 -1.930005
v -0.7458405 0.3103623 -1.926412
v -0.8165591 0.3737445 -1.864476
v -0.8163953 0.3264978 -1.862666
v -0.651814 0.4164076 -2.001575
v -0.5732427 0.4004359 -2.046196
v -0.741859 0.4306502 -1.931865
v -0.8151581 0.4390929 -1.86455
v -0.7370539 0.4981821 -1.931242
v -0.6430888 0.4963427 -2.002735
v -0.812856 0.4947369 -1.862555
v -0.5746641 0.4939914 -2.041117
v -0.5210352 0.4381137 -2.068284
v -0.5260942 0.4932501 -2.063032
v -0.4920006 0.4637895 -2.078303
v -0.4910257 0.4907186 -2.076906
vn 0.8242555 0.03342742 0.5652305
vn 0.8153213 0.03164059 0.5781437
vn 0.8331897 0.04772216 0.5509242
vn 0.8224686 0.03164059 0.5679297
vn 0.8010266 0.02091956 0.5982631
vn 0.8135344 0.01913273 0.5812019
vn 0.7599292 0.01377219 0.6498599
vn 0.774224 0.02270639 0.6325043
vn 0.6723741 0.006624818 0.7401819
vn 0.7063241 0.003051162 0.707882
vn 0.750995 0.01198536 0.660199
vn 0.7081109 0.01019853 0.7060276
vn 0.5723112 0.01019853 0.8199731
vn 0.5723112 0.01555902 0.8198889
vn 0.6205558 0.02449322 0.7837797
vn 0.6116216 0.003051162 0.7911445
vn 0.5312138 0.02091956 0.8469795
vn 0.5330006 0.01019853 0.8460534
vn 0.5383612 -0.007669866 0.8426793
vn 0.5419348 -0.01660407 0.8402565
vn 0.784945 0.00483799 0.6195465
vn 0.5455085 -0.002309382 0.8381021
vn 0.5455085 -0.03089881 0.8375355
vn 0.7974529 0.006624818 0.6033449
vn 0.8063871 0.008411646 0.5913283
vn 0.25068 0.1620799 0.9544054
vn 0.2471064 0.03521425 0.9683483
vn 0.2203038 0.01555902 0.9753072
vn 0.2185169 0.1299167 0.9671463
vn 0.2077959 -0.01124358 0.9781076
vn 0.1327487 -0.01124358 0.9910859
vn 0.1381091 0.01198536 0.9903445
vn 0.0005225539 0.01198536 0.999928
vn 0.0005225539 0.115622 0.9932932
vn 0.1381091 0.1191957 0.9832183
vn 0.0005225539 -0.01124358 0.9999366
vn 0.25068 -0.00409621 0.9680613
vn 0.28463 0.07273787 0.9558739
vn 0.1273881 0.3425506 0.930823
vn 0.0005225539 0.3354033 0.9420745
vn 0.0005225539 0.5676923 0.8232406
vn 0.1077329 0.5730529 0.8124062
vn 0.0005225539 0.7142132 0.699928
vn 0.08807766 0.7177868 0.6906695
vn 0.0005225539 0.7696052 0.6385198
vn 0.08271712 0.7678184 0.6353053
vn 0.1327487 0.7660316 0.6289463
vn 0.1416829 0.7177868 0.681695
vn 0.1774196 0.7570973 0.6287495
vn 0.1899275 0.7124264 0.6755562
vn 0.2095827 0.7428027 0.635861
vn 0.2203038 0.7088527 0.6700702
vn 0.1720591 0.5802003 0.7960925
vn 0.2220906 0.5873476 0.7782664
vn 0.2578274 0.5873476 0.7671687
vn 0.2238774 0.7231475 0.6534039
vn 0.2185169 0.7374421 0.6390849
vn 0.2542537 0.6355923 0.7289565
vn 0.2024354 0.3550585 0.9126627
vn 0.2453195 0.3818612 0.891067
vn 0.2220906 0.7338684 0.6419603
vn 0.3132194 0.3711401 0.8741559
vn 0.3364483 0.1549325 0.9288694
vn 0.3918403 0.194243 0.8992946
vn 0.3078589 0.4586952 0.8335596
vn 0.02017778 0.9875997 0.1556911
vn 0.01660407 0.9929602 0.1172795
vn 0.01481724 0.994747 0.1012863
vn 0.01660407 0.9929602 0.1172795
vn 0.01303041 0.9768786 0.2133973
vn 0.01839089 0.9822391 0.1867304
vn 0.01303041 0.9715181 0.2366068
vn 0.005883038 0.9750918 0.2217238
vn 0.01481724 0.9715181 0.2365017
vn 0.01660407 0.9822391 0.1868977
vn 0.01481724 0.9697313 0.2437247
vn 0.02196461 0.9893865 0.1436381
vn 0.5669506 -0.01660407 -0.8235845
vn 0.5097717 -0.00409621 -0.8602999
vn 0.5883927 -0.03983301 -0.8075936
vn 0.6455715 -0.01303041 -0.7635886
vn 0.6455715 -0.03447247 -0.7629214
vn 0.674161 -0.009456694 -0.738524
vn 0.6759478 -0.03268564 -0.7362244
vn 0.5526559 0.02628005 -0.8329951
vn 0.4704613 0.03342742 -0.8817872
vn 0.6419979 0.03164059 -0.7660533
vn 0.674161 0.03342742 -0.7378276
vn 0.6384242 0.05308264 -0.7678521
vn 0.5455085 0.04593527 -0.8368455
vn 0.6723741 0.05486947 -0.7381751
vn 0.4525929 0.04236162 -0.8907105
vn 0.3989877 0.04950899 -0.9156187
vn 0.3936272 0.05129582 -0.9178379
vn 0.3668246 0.05665636 -0.9285633
vn 0.3668246 0.05665636 -0.9285633
vn -0.8249972 0.03342742 0.5641473
vn -0.8339315 0.04772216 0.5498007
vn -0.8160631 0.03164059 0.5770961
vn -0.8232104 0.03164059 0.5668541
vn -0.8017684 0.02091956 0.5972686
vn -0.8142763 0.01913273 0.5801621
vn -0.7588843 0.01377219 0.6510799
vn -0.7749657 0.02270639 0.6315953
vn -0.6713291 0.006624818 0.7411298
vn -0.7070659 0.003051162 0.7071411
vn -0.74995 0.01198536 0.6613859
vn -0.7088527 0.01019853 0.7052828
vn -0.5712661 0.01019853 0.8207015
vn -0.5712661 0.01555902 0.8206174
vn -0.6195107 0.02449322 0.784606
vn -0.6105766 0.003051162 0.7919514
vn -0.5301687 0.02091956 0.8476341
vn -0.5337425 0.01019853 0.8455856
vn -0.539103 -0.007669866 0.8422049
vn -0.5426766 -0.01660407 0.8397776
vn -0.7856868 0.00483799 0.6186056
vn -0.7964079 0.006624818 0.6047236
vn -0.805342 0.008411646 0.5927508
vn -0.5462503 -0.002309382 0.8376188
vn -0.5444635 -0.03089881 0.8382152
vn -0.249635 0.1620799 0.9546793
vn -0.2192587 0.1299167 0.9669784
vn -0.2192587 0.01555902 0.9755427
vn -0.2460613 0.03521425 0.9686144
vn -0.2085376 -0.01124358 0.9779497
vn -0.1317036 -0.01124358 0.9912254
vn -0.1388509 0.01198536 0.9902408
vn 0.0005225539 0.01198536 0.999928
vn 0.0005225539 0.115622 0.9932932
vn -0.1370641 0.1191957 0.9833646
vn 0.0005225539 -0.01124358 0.9999366
vn -0.249635 -0.00409621 0.9683313
vn -0.2853717 0.07273787 0.9556528
vn -0.1263431 0.3425506 0.9309654
vn 0.0005225539 0.3354033 0.9420745
vn 0.0005225539 0.5676923 0.8232406
vn -0.1066878 0.5730529 0.8125442
vn 0.0005225539 0.7142132 0.699928
vn -0.08881944 0.7177868 0.6905745
vn 0.0005225539 0.7696052 0.6385198
vn -0.0834589 0.7678184 0.6352082
vn -0.1334904 0.7660316 0.6287893
vn -0.1424246 0.7177868 0.6815404
vn -0.1781614 0.7570973 0.6285397
vn -0.1906692 0.7124264 0.6753473
vn -0.2103245 0.7428027 0.6356161
vn -0.2192587 0.7088527 0.6704129
vn -0.171014 0.5802003 0.7963177
vn -0.2228324 0.5873476 0.7780544
vn -0.2585692 0.5873476 0.766919
vn -0.2246192 0.7231475 0.6531492
vn -0.2192587 0.7374421 0.6388308
vn -0.2549955 0.6355923 0.7286973
vn -0.2031772 0.3550585 0.9124979
vn -0.2460613 0.3818612 0.8908625
vn -0.2210456 0.7338684 0.6423208
vn -0.3139612 0.3711401 0.8738898
vn -0.3371901 0.1549325 0.9286004
vn -0.3907953 0.194243 0.8997493
vn -0.3068139 0.4586952 0.8339448
vn -0.02091956 0.9875997 0.1555933
vn -0.01555902 0.9929602 0.1174228
vn -0.01555902 0.994747 0.101175
vn -0.01555902 0.9929602 0.1174228
vn -0.01198536 0.9768786 0.2134586
vn -0.01913273 0.9822391 0.1866558
vn -0.01198536 0.9715181 0.2366621
vn -0.00483799 0.9750918 0.2217491
vn -0.01377219 0.9715181 0.2365648
vn -0.01734585 0.9822391 0.1868303
vn -0.01377219 0.9697313 0.243786
vn -0.02091956 0.9893865 0.1437941
vn -0.5659055 -0.01660407 -0.8243029
vn -0.5891345 -0.03983301 -0.8070526
vn -0.5105135 -0.00409621 -0.8598599
vn -0.6445265 -0.01303041 -0.7644709
vn -0.6445265 -0.03447247 -0.7638044
vn -0.6749027 -0.009456694 -0.7378461
vn -0.6749027 -0.03268564 -0.7371824
vn -0.5533977 0.02628005 -0.8325025
vn -0.4694162 0.03342742 -0.8823441
vn -0.6409528 0.03164059 -0.7669279
vn -0.6731159 0.03342742 -0.7387811
vn -0.6373791 0.05308264 -0.7687198
vn -0.5444635 0.04593527 -0.8375258
vn -0.6713291 0.05486947 -0.7391255
vn -0.4515478 0.04236162 -0.8912407
vn -0.3979426 0.04950899 -0.9160734
vn -0.3925821 0.05129582 -0.9182854
vn -0.3675664 0.05665636 -0.9282699
vn -0.3675664 0.05665636 -0.9282699
g model_car_100_matte_detail_LOD1_0
f 3/3/3 2/2/2 1/1/1
f 1/1/1 2/2/2 4/4/4
f 2/2/2 5/5/5 4/4/4
f 5/5/5 6/6/6 4/4/4
f 7/7/7 5/5/5 2/2/2
f 8/8/8 7/7/7 2/2/2
f 9/9/9 7/7/7 8/8/8
f 9/9/9 10/10/10 7/7/7
f 10/10/10 11/11/11 7/7/7
f 5/5/5 7/7/7 11/11/11
f 12/12/12 9/9/9 8/8/8
f 13/13/13 9/9/9 12/12/12
f 13/13/13 14/14/14 9/9/9
f 14/14/14 15/15/15 9/9/9
f 10/10/10 9/9/9 15/15/15
f 16/16/16 13/13/13 12/12/12
f 13/13/13 17/17/17 14/14/14
f 18/18/18 17/17/17 13/13/13
f 19/19/19 18/18/18 13/13/13
f 20/20/20 19/19/19 13/13/13
f 21/21/21 5/5/5 11/11/11
f 22/22/22 20/20/20 13/13/13
f 16/16/16 22/22/22 13/13/13
f 22/22/22 23/23/23 20/20/20
f 24/24/24 5/5/5 21/21/21
f 25/25/25 5/5/5 24/24/24
f 5/5/5 25/25/25 6/6/6
f 28/28/28 27/27/27 26/26/26
f 29/29/29 28/28/28 26/26/26
f 28/28/28 30/30/30 27/27/27
f 31/31/31 30/30/30 28/28/28
f 32/32/32 31/31/31 28/28/28
f 32/32/32 28/28/28 29/29/29
f 31/31/31 32/32/32 33/33/33
f 33/33/33 32/32/32 34/34/34
f 32/32/32 35/35/35 34/34/34
f 35/35/35 32/32/32 29/29/29
f 36/36/36 31/31/31 33/33/33
f 30/30/30 37/37/37 27/27/27
f 27/27/27 37/37/37 38/38/38
f 26/26/26 27/27/27 38/38/38
f 35/35/35 39/39/39 34/34/34
f 39/39/39 40/40/40 34/34/34
f 40/40/40 39/39/39 41/41/41
f 39/39/39 42/42/42 41/41/41
f 41/41/41 42/42/42 43/43/43
f 42/42/42 44/44/44 43/43/43
f 43/43/43 44/44/44 45/45/45
f 44/44/44 46/46/46 45/45/45
f 46/46/46 44/44/44 47/47/47
f 44/44/44 48/48/48 47/47/47
f 44/44/44 42/42/42 48/48/48
f 47/47/47 48/48/48 49/49/49
f 48/48/48 50/50/50 49/49/49
f 49/49/49 50/50/50 51/51/51
f 50/50/50 52/52/52 51/51/51
f 42/42/42 53/53/53 48/48/48
f 48/48/48 53/53/53 50/50/50
f 42/42/42 39/39/39 53/53/53
f 50/50/50 54/54/54 52/52/52
f 53/53/53 54/54/54 50/50/50
f 54/54/54 55/55/55 52/52/52
f 51/51/51 52/52/52 56/56/56
f 57/57/57 51/51/51 56/56/56
f 52/52/52 55/55/55 58/58/58
f 56/56/56 52/52/52 58/58/58
f 53/53/53 59/59/59 54/54/54
f 59/59/59 60/60/60 54/54/54
f 55/55/55 54/54/54 60/60/60
f 39/39/39 59/59/59 53/53/53
f 61/61/61 57/57/57 56/56/56
f 62/62/62 55/55/55 60/60/60
f 60/60/60 26/26/26 62/62/62
f 26/26/26 63/63/63 62/62/62
f 62/62/62 63/63/63 64/64/64
f 65/65/65 62/62/62 64/64/64
f 55/55/55 62/62/62 65/65/65
f 58/58/58 55/55/55 65/65/65
f 63/63/63 38/38/38 64/64/64
f 63/63/63 26/26/26 38/38/38
f 59/59/59 39/39/39 35/35/35
f 29/29/29 59/59/59 35/35/35
f 60/60/60 59/59/59 29/29/29
f 26/26/26 60/60/60 29/29/29
f 68/68/68 67/67/67 66/66/66
f 69/69/69 68/68/68 66/66/66
f 69/69/69 66/66/66 70/70/70
f 71/71/71 69/69/69 70/70/70
f 71/71/71 70/70/70 72/72/72
f 73/73/73 71/71/71 72/72/72
f 70/70/70 66/66/66 74/74/74
f 66/66/66 75/75/75 74/74/74
f 66/66/66 67/67/67 75/75/75
f 70/70/70 74/74/74 76/76/76
f 72/72/72 70/70/70 76/76/76
f 67/67/67 77/77/77 75/75/75
f 80/80/80 79/79/79 78/78/78
f 80/80/80 78/78/78 81/81/81
f 82/82/82 80/80/80 81/81/81
f 82/82/82 81/81/81 83/83/83
f 84/84/84 82/82/82 83/83/83
f 78/78/78 79/79/79 85/85/85
f 79/79/79 86/86/86 85/85/85
f 78/78/78 85/85/85 87/87/87
f 81/81/81 78/78/78 87/87/87
f 81/81/81 87/87/87 88/88/88
f 83/83/83 81/81/81 88/88/88
f 87/87/87 85/85/85 89/89/89
f 87/87/87 89/89/89 88/88/88
f 85/85/85 90/90/90 89/89/89
f 85/85/85 86/86/86 90/90/90
f 89/89/89 91/91/91 88/88/88
f 86/86/86 92/92/92 90/90/90
f 86/86/86 93/93/93 92/92/92
f 93/93/93 94/94/94 92/92/92
f 93/93/93 95/95/95 94/94/94
f 95/95/95 96/96/96 94/94/94
f 99/99/99 98/98/98 97/97/97
f 99/99/99 97/97/97 100/100/100
f 101/101/101 99/99/99 100/100/100
f 102/102/102 101/101/101 100/100/100
f 101/101/101 103/103/103 99/99/99
f 103/103/103 104/104/104 99/99/99
f 103/103/103 105/105/105 104/104/104
f 106/106/106 105/105/105 103/103/103
f 107/107/107 106/106/106 103/103/103
f 103/103/103 101/101/101 107/107/107
f 105/105/105 108/108/108 104/104/104
f 105/105/105 109/109/109 108/108/108
f 110/110/110 109/109/109 105/105/105
f 111/111/111 110/110/110 105/105/105
f 105/105/105 106/106/106 111/111/111
f 109/109/109 112/112/112 108/108/108
f 113/113/113 109/109/109 110/110/110
f 113/113/113 114/114/114 109/109/109
f 114/114/114 115/115/115 109/109/109
f 115/115/115 116/116/116 109/109/109
f 101/101/101 117/117/117 107/107/107
f 101/101/101 118/118/118 117/117/117
f 101/101/101 119/119/119 118/118/118
f 119/119/119 101/101/101 102/102/102
f 120/120/120 112/112/112 109/109/109
f 116/116/116 120/120/120 109/109/109
f 121/121/121 120/120/120 116/116/116
f 124/124/124 123/123/123 122/122/122
f 125/125/125 124/124/124 122/122/122
f 126/126/126 124/124/124 125/125/125
f 126/126/126 127/127/127 124/124/124
f 127/127/127 128/128/128 124/124/124
f 124/124/124 128/128/128 123/123/123
f 128/128/128 127/127/127 129/129/129
f 128/128/128 129/129/129 130/130/130
f 131/131/131 128/128/128 130/130/130
f 128/128/128 131/131/131 123/123/123
f 127/127/127 132/132/132 129/129/129
f 133/133/133 126/126/126 125/125/125
f 133/133/133 125/125/125 134/134/134
f 125/125/125 122/122/122 134/134/134
f 135/135/135 131/131/131 130/130/130
f 136/136/136 135/135/135 130/130/130
f 135/135/135 136/136/136 137/137/137
f 138/138/138 135/135/135 137/137/137
f 138/138/138 137/137/137 139/139/139
f 140/140/140 138/138/138 139/139/139
f 140/140/140 139/139/139 141/141/141
f 142/142/142 140/140/140 141/141/141
f 140/140/140 142/142/142 143/143/143
f 144/144/144 140/140/140 143/143/143
f 138/138/138 140/140/140 144/144/144
f 144/144/144 143/143/143 145/145/145
f 146/146/146 144/144/144 145/145/145
f 146/146/146 145/145/145 147/147/147
f 148/148/148 146/146/146 147/147/147
f 149/149/149 138/138/138 144/144/144
f 149/149/149 144/144/144 146/146/146
f 135/135/135 138/138/138 149/149/149
f 150/150/150 146/146/146 148/148/148
f 150/150/150 149/149/149 146/146/146
f 151/151/151 150/150/150 148/148/148
f 148/148/148 147/147/147 152/152/152
f 147/147/147 153/153/153 152/152/152
f 148/148/148 152/152/152 154/154/154
f 151/151/151 148/148/148 154/154/154
f 155/155/155 149/149/149 150/150/150
f 156/156/156 155/155/155 150/150/150
f 150/150/150 151/151/151 156/156/156
f 155/155/155 135/135/135 149/149/149
f 153/153/153 157/157/157 152/152/152
f 151/151/151 158/158/158 156/156/156
f 122/122/122 156/156/156 158/158/158
f 159/159/159 122/122/122 158/158/158
f 159/159/159 158/158/158 160/160/160
f 158/158/158 161/161/161 160/160/160
f 151/151/151 154/154/154 161/161/161
f 158/158/158 151/151/151 161/161/161
f 134/134/134 159/159/159 160/160/160
f 122/122/122 159/159/159 134/134/134
f 135/135/135 155/155/155 131/131/131
f 155/155/155 123/123/123 131/131/131
f 156/156/156 122/122/122 123/123/123
f 155/155/155 156/156/156 123/123/123
f 164/164/164 163/163/163 162/162/162
f 165/165/165 164/164/164 162/162/162
f 162/162/162 163/163/163 166/166/166
f 163/163/163 167/167/167 166/166/166
f 166/166/166 167/167/167 168/168/168
f 167/167/167 169/169/169 168/168/168
f 162/162/162 166/166/166 170/170/170
f 171/171/171 162/162/162 170/170/170
f 165/165/165 162/162/162 171/171/171
f 166/166/166 168/168/168 172/172/172
f 170/170/170 166/166/166 172/172/172
f 173/173/173 165/165/165 171/171/171
f 176/176/176 175/175/175 174/174/174
f 174/174/174 175/175/175 177/177/177
f 175/175/175 178/178/178 177/177/177
f 177/177/177 178/178/178 179/179/179
f 178/178/178 180/180/180 179/179/179
f 176/176/176 174/174/174 181/181/181
f 182/182/182 176/176/176 181/181/181
f 174/174/174 177/177/177 183/183/183
f 181/181/181 174/174/174 183/183/183
f 177/177/177 179/179/179 184/184/184
f 183/183/183 177/177/177 184/184/184
f 181/181/181 183/183/183 185/185/185
f 185/185/185 183/183/183 184/184/184
f 186/186/186 181/181/181 185/185/185
f 182/182/182 181/181/181 186/186/186
f 187/187/187 185/185/185 184/184/184
f 188/188/188 182/182/182 186/186/186
f 189/189/189 182/182/182 188/188/188
f 190/190/190 189/189/189 188/188/188
f 191/191/191 189/189/189 190/190/190
f 192/192/192 191/191/191 190/190/190
