g Glass_2
v 2.220086E-05 1.315089 -1.105779
v 2.219625E-05 1.280738 -1.249145
v 0.2740462 1.26837 -1.223737
v 0.2740461 1.303673 -1.087216
v 0.4986686 1.244991 -1.181291
v 0.4986682 1.278103 -1.057431
v 0.5882122 1.229103 -1.155434
v 0.5577834 1.258989 -1.062197
v 0.2740462 1.198926 -1.451355
v 2.218652E-05 1.210374 -1.476764
v 0.4986683 1.176321 -1.40891
v 0.6104794 1.154464 -1.376369
v 0.2740461 1.11896 -1.678974
v 2.217497E-05 1.127865 -1.704383
v 0.4986682 1.099094 -1.636528
v 0.6187647 1.078596 -1.601156
v 0.274046 1.062315 -1.828345
v 2.216663E-05 1.068737 -1.852974
v 0.5938405 1.050809 -1.712747
v 0.4986683 1.050246 -1.77739
v 2.213122E-05 0.9122501 1.115424
v 2.215859E-05 1.086005 0.8314555
v 0.2335363 1.082574 0.8211093
v 0.2411629 0.914652 1.09639
v 0.4670514 1.072282 0.7900712
v 0.4815426 0.9215636 1.039288
v 0.6885667 1.056126 0.741354
v 0.7180252 0.9336492 0.9418613
v 0.2219144 1.206174 0.5908709
v 2.217818E-05 1.209708 0.6012167
v 0.4438078 1.195573 0.5598324
v 0.6463605 1.17965 0.5132125
v 0.2102929 1.295853 0.3879197
v 2.219254E-05 1.299489 0.3982657
v 0.4205642 1.284944 0.3568816
v 0.6006396 1.26845 0.3076604
v 2.219833E-05 1.335003 0.2916483
v 0.2052068 1.330028 0.2862291
v 0.4109278 1.318935 0.2620127
v 0.5799359 1.298156 0.2354313
v 0.7801255 0.9534436 0.2905239
v 0.7050882 1.135291 -0.1424379
v 0.7807145 0.9709665 -0.142826
v 0.770518 0.9909317 -0.5957544
v 0.6552308 1.230154 0.2905239
v 0.6241568 1.292206 0.0777648
v 0.6122384 1.31262 -0.1420191
v 0.70196 1.135978 -0.5957544
v 0.7566436 1.006704 -0.9341657
v 0.6527928 1.215375 -0.9341657
v 0.616738 1.292503 -0.5957544
v 0.738727 1.027097 -1.194348
v 0.7121986 1.091564 0.588554
v 0.7717549 0.9427091 0.5885538
v 2.220086E-05 1.315089 -1.105779
v -0.2740019 1.26837 -1.223737
v 2.219625E-05 1.280738 -1.249145
v -0.2740017 1.303673 -1.087216
v -0.4986242 1.244991 -1.181291
v -0.4986239 1.278103 -1.057431
v -0.5881678 1.229104 -1.155434
v -0.5577389 1.258989 -1.062197
v -0.2740019 1.198926 -1.451355
v 2.218652E-05 1.210374 -1.476764
v -0.4986239 1.176321 -1.40891
v -0.6104351 1.154464 -1.376369
v -0.2740017 1.11896 -1.678974
v 2.217497E-05 1.127865 -1.704383
v -0.4986238 1.099094 -1.636528
v -0.6187204 1.078596 -1.601156
v -0.2740017 1.062315 -1.828345
v 2.216663E-05 1.068737 -1.852974
v -0.5937961 1.050809 -1.712747
v -0.498624 1.050247 -1.77739
v 2.213122E-05 0.9122501 1.115424
v -0.233492 1.082574 0.8211093
v 2.215859E-05 1.086005 0.8314555
v -0.2411187 0.9146521 1.09639
v -0.4670071 1.072282 0.7900712
v -0.4814983 0.9215638 1.039288
v -0.6885223 1.056126 0.741354
v -0.717981 0.9336494 0.9418613
v -0.22187 1.206174 0.5908709
v 2.217818E-05 1.209708 0.6012167
v -0.4437634 1.195573 0.5598324
v -0.646316 1.179651 0.5132125
v -0.2102485 1.295853 0.3879197
v 2.219254E-05 1.299489 0.3982657
v -0.4205198 1.284944 0.3568816
v -0.6005952 1.26845 0.3076604
v 2.219833E-05 1.335003 0.2916483
v -0.2051624 1.330028 0.2862291
v -0.4108834 1.318935 0.2620127
v -0.5798915 1.298156 0.2354313
v -0.7800813 0.9534439 0.2905239
v -0.7806702 0.9709667 -0.142826
v -0.7050438 1.135291 -0.1424379
v -0.7704737 0.990932 -0.5957544
v -0.6551864 1.230154 0.2905239
v -0.6241124 1.292206 0.07776479
v -0.612194 1.31262 -0.1420191
v -0.7019157 1.135978 -0.5957544
v -0.7565992 1.006704 -0.9341657
v -0.6527484 1.215375 -0.9341657
v -0.6166937 1.292503 -0.5957544
v -0.7386826 1.027097 -1.194348
v -0.7121543 1.091564 0.588554
v -0.7717107 0.9427094 0.5885538
vt 0.5000001 0.01104472
vt 0.5000001 0.2
vt 0.7125001 0.2
vt 0.7125001 0.01962578
vt 0.9000002 0.2
vt 0.9000002 0.03675238
vt 0.9718297 0.2
vt 0.9297775 0.05666832
vt 0.7125001 0.5
vt 0.5000001 0.5
vt 0.9000002 0.5
vt 0.9896919 0.5003304
vt 0.7125001 0.8000001
vt 0.5000001 0.8000001
vt 0.9000002 0.8000001
vt 0.9963382 0.8000001
vt 0.7125001 0.9967954
vt 0.5000001 0.995843
vt 0.9486863 0.8918308
vt 0.9000001 0.9856547
vt 0.5000001 0.1178206
vt 0.5000001 0.3
vt 0.6500001 0.3
vt 0.6500001 0.1178206
vt 0.8000001 0.3
vt 0.8000001 0.1178206
vt 0.9500002 0.3
vt 0.9500002 0.1178206
vt 0.6500001 0.5
vt 0.5000001 0.5
vt 0.8000001 0.5
vt 0.9500002 0.5
vt 0.6500001 0.7
vt 0.5000001 0.7
vt 0.8000001 0.7
vt 0.9500002 0.7
vt 0.5000001 0.8000001
vt 0.6500001 0.8000001
vt 0.8000001 0.8000001
vt 0.9500002 0.8000001
vt 0.3 0
vt 0.4998254 0.3206123
vt 0.5000001 0
vt 0.7000001 0
vt 0.3 0.5488012
vt 0.4 0.6445568
vt 0.4996369 0.666597
vt 0.8500001 0.1831153
vt 0.8500001 0
vt 0.8500002 0.3807218
vt 0.7000001 0.5883355
vt 0.9417284 0.1377857
vt 0.15 0.2904005
vt 0.15 0.1396736
vt 0.5000001 0.01104472
vt 0.7125001 0.2
vt 0.5000001 0.2
vt 0.7125001 0.01962578
vt 0.9000002 0.2
vt 0.9000002 0.03675238
vt 0.9718297 0.2
vt 0.9297775 0.05666832
vt 0.7125001 0.5
vt 0.5000001 0.5
vt 0.9000002 0.5
vt 0.9896919 0.5003304
vt 0.7125001 0.8000001
vt 0.5000001 0.8000001
vt 0.9000002 0.8000001
vt 0.9963382 0.8000001
vt 0.7125001 0.9967954
vt 0.5000001 0.995843
vt 0.9486863 0.8918308
vt 0.9000001 0.9856547
vt 0.5000001 0.1178206
vt 0.6500001 0.3
vt 0.5000001 0.3
vt 0.6500001 0.1178206
vt 0.8000001 0.3
vt 0.8000001 0.1178206
vt 0.9500002 0.3
vt 0.9500002 0.1178206
vt 0.6500001 0.5
vt 0.5000001 0.5
vt 0.8000001 0.5
vt 0.9500002 0.5
vt 0.6500001 0.7
vt 0.5000001 0.7
vt 0.8000001 0.7
vt 0.9500002 0.7
vt 0.5000001 0.8000001
vt 0.6500001 0.8000001
vt 0.8000001 0.8000001
vt 0.9500002 0.8000001
vt 0.3 0
vt 0.5000001 0
vt 0.4998254 0.3206123
vt 0.7000001 0
vt 0.3 0.5488012
vt 0.4 0.6445568
vt 0.4996369 0.666597
vt 0.8500001 0.1831153
vt 0.8500001 0
vt 0.8500002 0.3807218
vt 0.7000001 0.5883355
vt 0.9417284 0.1377857
vt 0.15 0.2904005
vt 0.15 0.1396736
vn 0 0.9712183 -0.2381913
vn 0 0.9642487 -0.2649992
vn 0.1068812 0.9573994 -0.2682588
vn 0.1034677 0.962617 -0.2503259
vn 0.1970695 0.9426526 -0.2693877
vn 0.2018403 0.9488045 -0.2429619
vn 0.2496203 0.9319269 -0.2630626
vn 0.2858877 0.9357212 -0.2066253
vn 0.1095078 0.9446517 -0.3092591
vn 0 0.9484303 -0.3169858
vn 0.2070788 0.9321096 -0.2971366
vn 0.2619405 0.9206947 -0.2893241
vn 0.1056998 0.9335575 -0.3424878
vn 0 0.9354873 -0.3533602
vn 0.1896798 0.9290833 -0.3175307
vn 0.2489949 0.9212028 -0.2989763
vn 0.09643551 0.9313424 -0.3511432
vn 0 0.9291407 -0.3697264
vn 0.2257155 0.9254127 -0.3044075
vn 0.1562568 0.9331982 -0.3236123
vn 0 0.8536558 0.5208375
vn 0 0.8672612 0.4978535
vn 0.0696874 0.8667004 0.4939374
vn 0.06401689 0.853586 0.5170037
vn 0.1359321 0.8652343 0.4825888
vn 0.126322 0.8529207 0.5065265
vn 0.1648878 0.8653471 0.4732719
vn 0.1612251 0.8525835 0.4970995
vn 0.0695713 0.8976935 0.4350934
vn 0 0.8982335 0.4395185
vn 0.1363601 0.8969486 0.4205818
vn 0.1620504 0.8991597 0.4065115
vn 0.06689463 0.9309173 0.3590518
vn 0 0.9322514 0.3618111
vn 0.1381079 0.9247715 0.3545755
vn 0.1701065 0.9213254 0.3496044
vn 0 0.9486404 0.3163564
vn 0.06264498 0.9462929 0.3171836
vn 0.1301756 0.936786 0.3247866
vn 0.1665754 0.9277981 0.3338314
vn 0.9137274 0.4058377 0.01994784
vn 0.8987237 0.4385093 0.002324118
vn 0.908389 0.4180434 0.008319221
vn 0.9045796 0.4261698 -0.01072869
vn 0.9075992 0.4196235 0.01340883
vn 0.8891528 0.4576099 0.0007026262
vn 0.8849584 0.4656306 -0.006057982
vn 0.8920702 0.4517054 -0.013155
vn 0.8962924 0.4427657 -0.02487025
vn 0.8918718 0.4516506 -0.02400776
vn 0.878178 0.4781346 -0.01380641
vn 0.8949379 0.4453902 -0.02671638
vn 0.920415 0.3898578 0.02910339
vn 0.9277239 0.3711793 0.03942552
vn 0 0.9712183 -0.2381913
vn -0.1068809 0.9573995 -0.2682586
vn 0 0.9642487 -0.2649992
vn -0.1034674 0.9626171 -0.2503256
vn -0.1970691 0.9426527 -0.2693874
vn -0.2018404 0.9488044 -0.2429621
vn -0.2496197 0.9319269 -0.2630633
vn -0.2858891 0.9357209 -0.206625
vn -0.1095073 0.9446517 -0.3092595
vn 0 0.9484303 -0.3169858
vn -0.2070785 0.9321098 -0.2971359
vn -0.2619405 0.9206949 -0.2893235
vn -0.1056992 0.9335575 -0.342488
vn 0 0.9354873 -0.3533602
vn -0.1896793 0.9290835 -0.3175305
vn -0.2489948 0.921203 -0.298976
vn -0.09643503 0.9313426 -0.3511429
vn 0 0.9291407 -0.3697264
vn -0.2257154 0.9254128 -0.304407
vn -0.1562566 0.9331986 -0.3236112
vn 0 0.8536558 0.5208375
vn -0.06968716 0.8667002 0.4939377
vn 0 0.8672612 0.4978535
vn -0.06401666 0.8535859 0.5170038
vn -0.1359321 0.8652346 0.4825884
vn -0.1263218 0.8529208 0.5065262
vn -0.1648879 0.8653472 0.4732718
vn -0.1612251 0.8525835 0.4970995
vn -0.06957103 0.8976932 0.435094
vn 0 0.8982335 0.4395185
vn -0.13636 0.8969486 0.4205819
vn -0.1620505 0.8991594 0.4065119
vn -0.06689443 0.9309176 0.3590509
vn 0 0.9322514 0.3618111
vn -0.1381075 0.9247717 0.3545752
vn -0.1701061 0.9213254 0.3496047
vn 0 0.9486404 0.3163564
vn -0.06264494 0.9462937 0.3171812
vn -0.1301751 0.9367858 0.3247873
vn -0.1665747 0.9277979 0.3338321
vn -0.9137272 0.4058384 0.01994783
vn -0.9083886 0.4180442 0.008319127
vn -0.8987235 0.4385095 0.002324145
vn -0.9045796 0.4261696 -0.01072877
vn -0.907599 0.4196238 0.01340871
vn -0.889153 0.4576096 0.0007024767
vn -0.8849584 0.4656306 -0.006057826
vn -0.8920701 0.4517055 -0.01315494
vn -0.8962923 0.4427659 -0.02487059
vn -0.8918716 0.4516509 -0.02400793
vn -0.8781777 0.4781352 -0.0138063
vn -0.8949377 0.4453906 -0.02671692
vn -0.9204148 0.3898583 0.02910347
vn -0.9277236 0.3711798 0.03942582
g Glass_2_0
f 3/3/3 2/2/2 1/1/1
f 4/4/4 3/3/3 1/1/1
f 5/5/5 3/3/3 4/4/4
f 6/6/6 5/5/5 4/4/4
f 7/7/7 5/5/5 6/6/6
f 8/8/8 7/7/7 6/6/6
f 3/3/3 9/9/9 2/2/2
f 9/9/9 10/10/10 2/2/2
f 11/11/11 9/9/9 3/3/3
f 5/5/5 11/11/11 3/3/3
f 12/12/12 11/11/11 5/5/5
f 7/7/7 12/12/12 5/5/5
f 9/9/9 13/13/13 10/10/10
f 13/13/13 14/14/14 10/10/10
f 15/15/15 13/13/13 9/9/9
f 11/11/11 15/15/15 9/9/9
f 16/16/16 15/15/15 11/11/11
f 12/12/12 16/16/16 11/11/11
f 15/15/15 17/17/17 13/13/13
f 13/13/13 17/17/17 14/14/14
f 17/17/17 18/18/18 14/14/14
f 16/16/16 19/19/19 15/15/15
f 20/20/20 15/15/15 19/19/19
f 20/20/20 17/17/17 15/15/15
f 23/23/23 22/22/22 21/21/21
f 24/24/24 23/23/23 21/21/21
f 25/25/25 23/23/23 24/24/24
f 26/26/26 25/25/25 24/24/24
f 27/27/27 25/25/25 26/26/26
f 28/28/28 27/27/27 26/26/26
f 23/23/23 29/29/29 22/22/22
f 29/29/29 30/30/30 22/22/22
f 31/31/31 29/29/29 23/23/23
f 25/25/25 31/31/31 23/23/23
f 32/32/32 31/31/31 25/25/25
f 27/27/27 32/32/32 25/25/25
f 29/29/29 33/33/33 30/30/30
f 33/33/33 34/34/34 30/30/30
f 35/35/35 33/33/33 29/29/29
f 31/31/31 35/35/35 29/29/29
f 36/36/36 35/35/35 31/31/31
f 32/32/32 36/36/36 31/31/31
f 34/34/34 33/33/33 37/37/37
f 33/33/33 38/38/38 37/37/37
f 33/33/33 35/35/35 38/38/38
f 35/35/35 39/39/39 38/38/38
f 35/35/35 36/36/36 39/39/39
f 36/36/36 40/40/40 39/39/39
f 43/43/43 42/42/42 41/41/41
f 44/44/44 42/42/42 43/43/43
f 45/45/45 41/41/41 42/42/42
f 46/46/46 45/45/45 42/42/42
f 47/47/47 46/46/46 42/42/42
f 47/47/47 42/42/42 48/48/48
f 48/48/48 42/42/42 44/44/44
f 49/49/49 48/48/48 44/44/44
f 50/50/50 48/48/48 49/49/49
f 50/50/50 51/51/51 48/48/48
f 51/51/51 47/47/47 48/48/48
f 52/52/52 50/50/50 49/49/49
f 45/45/45 53/53/53 41/41/41
f 53/53/53 54/54/54 41/41/41
f 57/57/57 56/56/56 55/55/55
f 56/56/56 58/58/58 55/55/55
f 56/56/56 59/59/59 58/58/58
f 59/59/59 60/60/60 58/58/58
f 59/59/59 61/61/61 60/60/60
f 61/61/61 62/62/62 60/60/60
f 63/63/63 56/56/56 57/57/57
f 64/64/64 63/63/63 57/57/57
f 63/63/63 65/65/65 56/56/56
f 65/65/65 59/59/59 56/56/56
f 65/65/65 66/66/66 59/59/59
f 66/66/66 61/61/61 59/59/59
f 67/67/67 63/63/63 64/64/64
f 68/68/68 67/67/67 64/64/64
f 67/67/67 69/69/69 63/63/63
f 69/69/69 65/65/65 63/63/63
f 69/69/69 70/70/70 65/65/65
f 70/70/70 66/66/66 65/65/65
f 71/71/71 69/69/69 67/67/67
f 71/71/71 67/67/67 68/68/68
f 72/72/72 71/71/71 68/68/68
f 73/73/73 70/70/70 69/69/69
f 69/69/69 74/74/74 73/73/73
f 71/71/71 74/74/74 69/69/69
f 77/77/77 76/76/76 75/75/75
f 76/76/76 78/78/78 75/75/75
f 76/76/76 79/79/79 78/78/78
f 79/79/79 80/80/80 78/78/78
f 79/79/79 81/81/81 80/80/80
f 81/81/81 82/82/82 80/80/80
f 83/83/83 76/76/76 77/77/77
f 84/84/84 83/83/83 77/77/77
f 83/83/83 85/85/85 76/76/76
f 85/85/85 79/79/79 76/76/76
f 85/85/85 86/86/86 79/79/79
f 86/86/86 81/81/81 79/79/79
f 87/87/87 83/83/83 84/84/84
f 88/88/88 87/87/87 84/84/84
f 87/87/87 89/89/89 83/83/83
f 89/89/89 85/85/85 83/83/83
f 89/89/89 90/90/90 85/85/85
f 90/90/90 86/86/86 85/85/85
f 87/87/87 88/88/88 91/91/91
f 92/92/92 87/87/87 91/91/91
f 89/89/89 87/87/87 92/92/92
f 93/93/93 89/89/89 92/92/92
f 90/90/90 89/89/89 93/93/93
f 94/94/94 90/90/90 93/93/93
f 97/97/97 96/96/96 95/95/95
f 97/97/97 98/98/98 96/96/96
f 95/95/95 99/99/99 97/97/97
f 99/99/99 100/100/100 97/97/97
f 100/100/100 101/101/101 97/97/97
f 97/97/97 101/101/101 102/102/102
f 97/97/97 102/102/102 98/98/98
f 102/102/102 103/103/103 98/98/98
f 102/102/102 104/104/104 103/103/103
f 105/105/105 104/104/104 102/102/102
f 101/101/101 105/105/105 102/102/102
f 104/104/104 106/106/106 103/103/103
f 107/107/107 99/99/99 95/95/95
f 108/108/108 107/107/107 95/95/95
