g Taillights_2
v 0.7200307 0.9104993 -2.03254
v 0.7679619 0.766486 -2.040055
v 0.790493 0.8861639 -1.930107
v 0.8032367 0.7635806 -1.96464
v 0.658163 0.7681047 -2.122792
v 0.6506588 0.9190612 -2.087755
v 0.5771353 0.9230471 -2.119929
v 0.5898261 0.769724 -2.16106
v 0.5195584 0.7722922 -2.185233
v 0.4587379 0.9241106 -2.155666
v 0.44116 0.8474562 -2.184583
v 0.3786932 0.9241976 -2.170365
v 0.472132 0.7707161 -2.194548
v 0.3727345 0.8496482 -2.19113
v 0.3439327 0.8683376 -2.18927
v 0.44116 0.8474562 -2.184583
v 0.3727345 0.8496482 -2.19113
v 0.3701159 0.8504079 -2.167155
v 0.3701159 0.8504079 -2.167155
v 0.3727345 0.8496482 -2.19113
v 0.3439327 0.8683376 -2.18927
v 0.3416255 0.8675559 -2.164908
v -0.7199879 0.9104995 -2.03254
v -0.7904502 0.8861641 -1.930107
v -0.7679191 0.7664863 -2.040055
v -0.8031939 0.7635809 -1.96464
v -0.6581202 0.7681049 -2.122792
v -0.650616 0.9190614 -2.087755
v -0.5770925 0.9230472 -2.119929
v -0.5897834 0.7697242 -2.16106
v -0.5195156 0.7722924 -2.185233
v -0.4586951 0.9241107 -2.155666
v -0.4411172 0.8474563 -2.184583
v -0.3786505 0.9241977 -2.170365
v -0.4720892 0.7707162 -2.194548
v -0.3726918 0.8496483 -2.19113
v -0.3438899 0.8683377 -2.18927
v -0.4411172 0.8474563 -2.184583
v -0.3700732 0.850408 -2.167155
v -0.3726918 0.8496483 -2.19113
v -0.3700732 0.850408 -2.167155
v -0.3438899 0.8683377 -2.18927
v -0.3726918 0.8496483 -2.19113
v -0.3415828 0.867556 -2.164908
vt 0.1271491 0.6833819
vt 0.08578312 0.5560205
vt 0.01460557 0.6818982
vt 0.0130896 0.5691895
vt 0.2074277 0.5465802
vt 0.2062185 0.6834911
vt 0.2774498 0.6840643
vt 0.2760416 0.543314
vt 0.3421794 0.5442852
vt 0.3873578 0.6840643
vt 0.4091861 0.613259
vt 0.4603398 0.6846031
vt 0.3847035 0.5437102
vt 0.4686103 0.6177819
vt 0.4934907 0.6353282
vt 0.4196225 0.599335
vt 0.4808171 0.6004834
vt 0.4815197 0.579132
vt 0.4204166 0.5519992
vt 0.4174736 0.573139
vt 0.4480802 0.5724204
vt 0.4500834 0.5508515
vt 0.1271491 0.6833819
vt 0.01460557 0.6818982
vt 0.08578312 0.5560205
vt 0.0130896 0.5691895
vt 0.2074277 0.5465802
vt 0.2062185 0.6834911
vt 0.2774498 0.6840643
vt 0.2760416 0.543314
vt 0.3421794 0.5442852
vt 0.3873578 0.6840643
vt 0.4091861 0.613259
vt 0.4603398 0.6846031
vt 0.3847035 0.5437102
vt 0.4686103 0.6177819
vt 0.4934907 0.6353282
vt 0.4196225 0.599335
vt 0.4815197 0.579132
vt 0.4808171 0.6004834
vt 0.4204166 0.5519992
vt 0.4480802 0.5724204
vt 0.4174736 0.573139
vt 0.4500834 0.5508515
vn 0.7023442 0.2544418 -0.6648097
vn 0.7547913 0.2503193 -0.6063254
vn 0.8432959 0.2688007 -0.4654011
vn 0.8891635 0.2073527 -0.4079133
vn 0.5261495 0.2408754 -0.8155647
vn 0.5175185 0.2177876 -0.8274921
vn 0.3577151 0.2620152 -0.8963191
vn 0.4001193 0.2682087 -0.8763382
vn 0.2686416 0.2592799 -0.9276883
vn 0.2329678 0.2991007 -0.9253457
vn 0.2062455 0.20431 -0.9569327
vn 0.1328482 0.2830054 -0.9498733
vn 0.1825164 0.1987007 -0.9629152
vn -0.1696482 -0.6360869 -0.7527369
vn -0.3511506 -0.4917226 -0.7968075
vn 0.2062455 0.20431 -0.9569327
vn -0.1696482 -0.6360869 -0.7527369
vn -0.3412376 -0.9397937 -0.01856614
vn -0.3412376 -0.9397937 -0.01856614
vn -0.1696482 -0.6360869 -0.7527369
vn -0.3511506 -0.4917226 -0.7968075
vn -0.5185898 -0.8515997 -0.07643744
vn -0.7023439 0.2544424 -0.6648099
vn -0.8432955 0.2688015 -0.4654014
vn -0.754791 0.2503198 -0.6063254
vn -0.8891633 0.207352 -0.4079139
vn -0.5261497 0.2408757 -0.8155645
vn -0.5175177 0.2177872 -0.8274927
vn -0.3577149 0.2620152 -0.8963192
vn -0.4001195 0.2682086 -0.8763381
vn -0.2686408 0.2592796 -0.9276887
vn -0.2329672 0.2991008 -0.9253459
vn -0.2062439 0.2043101 -0.956933
vn -0.1328482 0.2830053 -0.9498734
vn -0.1825162 0.1987002 -0.9629154
vn 0.1696478 -0.6360884 -0.7527358
vn 0.351151 -0.4917232 -0.7968069
vn -0.2062439 0.2043101 -0.956933
vn 0.3412376 -0.9397938 -0.01856331
vn 0.1696478 -0.6360884 -0.7527358
vn 0.3412376 -0.9397938 -0.01856331
vn 0.351151 -0.4917232 -0.7968069
vn 0.1696478 -0.6360884 -0.7527358
vn 0.5185909 -0.8515992 -0.07643472
g Taillights_2_0
f 3/3/3 2/2/2 1/1/1
f 4/4/4 2/2/2 3/3/3
f 2/2/2 5/5/5 1/1/1
f 1/1/1 5/5/5 6/6/6
f 7/7/7 6/6/6 5/5/5
f 8/8/8 7/7/7 5/5/5
f 9/9/9 7/7/7 8/8/8
f 9/9/9 10/10/10 7/7/7
f 11/11/11 10/10/10 9/9/9
f 12/12/12 10/10/10 11/11/11
f 13/13/13 11/11/11 9/9/9
f 14/14/14 12/12/12 11/11/11
f 15/15/15 12/12/12 14/14/14
f 18/18/18 17/17/17 16/16/16
f 21/21/21 20/20/20 19/19/19
f 22/22/22 21/21/21 19/19/19
f 25/25/25 24/24/24 23/23/23
f 25/25/25 26/26/26 24/24/24
f 27/27/27 25/25/25 23/23/23
f 27/27/27 23/23/23 28/28/28
f 28/28/28 29/29/29 27/27/27
f 29/29/29 30/30/30 27/27/27
f 29/29/29 31/31/31 30/30/30
f 32/32/32 31/31/31 29/29/29
f 32/32/32 33/33/33 31/31/31
f 32/32/32 34/34/34 33/33/33
f 33/33/33 35/35/35 31/31/31
f 34/34/34 36/36/36 33/33/33
f 34/34/34 37/37/37 36/36/36
f 40/40/40 39/39/39 38/38/38
f 43/43/43 42/42/42 41/41/41
f 42/42/42 44/44/44 41/41/41
