g model_car_85_body_roof_LOD1
v -0.5862615 1.233615 -0.8020855
v -0.5275261 1.267378 -0.809808
v -0.5283325 1.28696 -0.8071426
v -0.5867051 1.256724 -0.7990636
v -0.4162441 1.29041 -0.8146641
v -0.4158815 1.314171 -0.8131428
v -0.5296775 1.301383 -0.6808405
v -0.4118938 1.329181 -0.6841463
v -0.2231153 1.326517 -0.8159905
v -0.2193598 1.340352 -0.6856717
v -0.4067061 1.340178 -0.4657089
v -0.5316631 1.312133 -0.4657731
v -0.5361731 1.292116 -0.1614285
v -0.4080698 1.322671 -0.1628234
v -0.213542 1.333846 -0.1610679
v -0.4115808 1.269718 0.07570791
v -0.2174281 1.283272 0.08221173
v -0.2139689 1.350307 -0.4654436
v -0.5372757 1.246045 0.07054919
v -0.5950266 1.223474 0.07489544
v -0.5985873 1.265848 -0.1555216
v -0.593012 1.276269 -0.4568236
v -0.6555216 1.209762 -0.1472354
v -0.6435046 1.193618 0.08628023
v 0 1.346344 -0.686279
v 0 1.335166 -0.8177253
v 0 1.315611 -0.8202373
v -0.2227464 1.306488 -0.8180341
v 0 1.290902 0.08706778
v 0 1.337282 -0.159101
v -0.6562243 1.213011 -0.447385
v -0.6562243 1.201245 -0.447385
v -0.6555216 1.197995 -0.1472354
v -0.6476685 1.192391 -0.66581
v -0.6506593 1.204634 -0.6665272
v -0.5892296 1.2667 -0.6738061
v -0.643513 1.19911 -0.7908313
v -0.6425824 1.187199 -0.7928624
v -0.6476022 1.184264 0.09050417
v -0.2174281 1.283272 0.08221173
v -0.217654 1.271233 0.08239615
v -0.4120928 1.256768 0.07632554
v -0.4115808 1.269718 0.07570791
v -0.5382519 1.233304 0.07240415
v -0.5372757 1.246045 0.07054919
v 0 1.279973 0.08803988
v -0.59501 1.214746 0.07629442
v -0.5950266 1.223474 0.07489544
v -0.6476022 1.184264 0.09050417
v -0.6435046 1.193618 0.08628023
v 0 1.353038 -0.4646435
v 0.5862616 1.233613 -0.8020855
v 0.5867051 1.256724 -0.7990636
v 0.5283325 1.28696 -0.8071426
v 0.5275262 1.267378 -0.809808
v 0.4162442 1.29041 -0.8146641
v 0.4158815 1.314171 -0.8131428
v 0.5296775 1.301383 -0.6808405
v 0.4118938 1.329181 -0.6841463
v 0.2231153 1.326517 -0.8159905
v 0.2193598 1.340352 -0.6856717
v 0.4067061 1.340178 -0.4657089
v 0.5316631 1.312133 -0.4657731
v 0.5361731 1.292116 -0.1614285
v 0.4080699 1.322671 -0.1628234
v 0.213542 1.333846 -0.1610679
v 0.4115809 1.269718 0.07570791
v 0.2174281 1.283272 0.08221173
v 0.2139689 1.350307 -0.4654436
v 0.5372757 1.246045 0.07054919
v 0.5950266 1.223474 0.07489544
v 0.5985873 1.265848 -0.1555216
v 0.593012 1.276269 -0.4568236
v 0.6555195 1.209762 -0.1472354
v 0.6435047 1.193618 0.08628023
v 0 1.346344 -0.686279
v 0 1.335166 -0.8177253
v 0 1.315611 -0.8202373
v 0.2227464 1.306488 -0.8180341
v 0 1.290902 0.08706778
v 0 1.337282 -0.159101
v 0.6562243 1.213011 -0.447385
v 0.6562243 1.201245 -0.447385
v 0.6555195 1.197995 -0.1472354
v 0.6476685 1.192391 -0.66581
v 0.6506593 1.204634 -0.6665272
v 0.5892274 1.2667 -0.6738061
v 0.643513 1.19911 -0.7908313
v 0.6425824 1.187199 -0.7928624
v 0 1.353038 -0.4646435
v 0.6476022 1.184264 0.09050417
v 0.2174281 1.283272 0.08221173
v 0.4115809 1.269718 0.07570791
v 0.4120928 1.256768 0.07632554
v 0.217654 1.271233 0.08239615
v 0.5382519 1.233304 0.07240415
v 0.5372757 1.246045 0.07054919
v 0 1.279973 0.08803988
v 0.59501 1.214746 0.07629442
v 0.5950266 1.223474 0.07489544
v 0.6476022 1.184264 0.09050417
v 0.6435047 1.193618 0.08628023
vt 0.2064794 0.0620936
vt 0.2108473 0.06256226
vt 0.211106 0.06185365
vt 0.2067943 0.06139998
vt 0.217926 0.06366831
vt 0.2181997 0.06268225
vt 0.211316 0.05392762
vt 0.219047 0.05435129
vt 0.2308274 0.06396826
vt 0.2316897 0.05513864
vt 0.2197857 0.04019391
vt 0.2114547 0.04010392
vt 0.211091 0.02437558
vt 0.2198157 0.02425561
vt 0.232642 0.02393692
vt 0.2183797 0.00426056
vt 0.231341 0.003203255
vt 0.232537 0.04039262
vt 0.2080503 0.004897941
vt 0.2053733 0.004459272
vt 0.2062807 0.02369696
vt 0.2063406 0.03954528
vt 0.2011254 0.0229696
vt 0.2024114 0.003836888
vt 0.2465557 0.05595599
vt 0.2459483 0.0651193
vt 0.2458583 0.06596664
vt 0.2307224 0.0648156
vt 0.2460271 0.002145951
vt 0.2470544 0.02354324
vt 0.2008817 0.03894164
vt 0.2000943 0.03895663
vt 0.200353 0.02292461
vt 0.200413 0.05359393
vt 0.2011853 0.05350394
vt 0.2064156 0.0536989
vt 0.2021827 0.06099131
vt 0.201729 0.06157995
vt 0.201924 0.003383222
vt 0.231341 0.003203255
vt 0.231236 0.002445895
vt 0.2182297 0.003536943
vt 0.2183797 0.00426056
vt 0.2078404 0.00420057
vt 0.2080503 0.004897941
vt 0.2459483 0.001373594
vt 0.2050884 0.003821891
vt 0.2053733 0.004459272
vt 0.201924 0.003383222
vt 0.2024114 0.003836888
vt 0.2470843 0.04058759
vt 0.2064794 0.0620936
vt 0.2067943 0.06139998
vt 0.211106 0.06185365
vt 0.2108473 0.06256226
vt 0.217926 0.06366831
vt 0.2181997 0.06268225
vt 0.211316 0.05392762
vt 0.219047 0.05435129
vt 0.2308274 0.06396826
vt 0.2316897 0.05513864
vt 0.2197857 0.04019391
vt 0.2114547 0.04010392
vt 0.211091 0.02437558
vt 0.2198157 0.02425561
vt 0.232642 0.02393692
vt 0.2183797 0.00426056
vt 0.231341 0.003203255
vt 0.232537 0.04039262
vt 0.2080503 0.004897941
vt 0.2053733 0.004459272
vt 0.2062807 0.02369696
vt 0.2063406 0.03954528
vt 0.2011254 0.0229696
vt 0.2024114 0.003836888
vt 0.2465557 0.05595599
vt 0.2459483 0.0651193
vt 0.2458583 0.06596664
vt 0.2307224 0.0648156
vt 0.2460271 0.002145951
vt 0.2470544 0.02354324
vt 0.2008817 0.03894164
vt 0.2000943 0.03895663
vt 0.200353 0.02292461
vt 0.200413 0.05359393
vt 0.2011853 0.05350394
vt 0.2064156 0.0536989
vt 0.2021827 0.06099131
vt 0.201729 0.06157995
vt 0.2470843 0.04058759
vt 0.201924 0.003383222
vt 0.231341 0.003203255
vt 0.2183797 0.00426056
vt 0.2182297 0.003536943
vt 0.231236 0.002445895
vt 0.2078404 0.00420057
vt 0.2080503 0.004897941
vt 0.2459483 0.001373594
vt 0.2050884 0.003821891
vt 0.2053733 0.004459272
vt 0.201924 0.003383222
vt 0.2024114 0.003836888
vn -0.2422085 0.1269819 -0.9618787
vn -0.1465119 0.111358 -0.982921
vn -0.3652471 0.925756 -0.09782791
vn -0.6074182 0.7890466 -0.09191594
vn -0.04886216 0.08792204 -0.9949282
vn -0.1484649 0.9823928 -0.113413
vn -0.3711061 0.925756 -0.07249825
vn -0.1445588 0.9862989 -0.07948156
vn -0.03323823 0.9941109 -0.1031444
vn -0.02737933 0.9980168 -0.05668218
vn -0.1406325 0.9900618 0
vn -0.3534969 0.9354358 0
vn -0.3105633 0.943333 0.1169332
vn -0.1406528 0.9804398 0.1376754
vn -0.02152032 0.9921579 0.1231244
vn -0.1367469 0.9687219 0.2070704
vn -0.02737933 0.9804398 0.1949053
vn -0.01761211 0.9998448 0
vn -0.2832214 0.9394271 0.1930347
vn -0.4902386 0.8574013 0.1566177
vn -0.5390635 0.8378714 0.08591912
vn -0.599381 0.8004638 0
vn -0.660149 0.7480337 0.06818258
vn -0.6132771 0.7812346 0.1164633
vn -3.737211E-05 0.9980168 -0.06294852
vn -3.737211E-05 0.9960638 -0.08863952
vn -0.01761431 0.09768707 -0.9950613
vn -0.01761431 0.09768707 -0.9950613
vn -3.737211E-05 0.9804398 0.196819
vn -3.737211E-05 0.9921579 0.1249909
vn -0.7070208 0.7070208 -0.0155935
vn -0.9980168 -0.0624584 -0.007840004
vn -0.9941109 0.103546 0.03196528
vn -0.9900723 -0.1405593 0
vn -0.7128798 0.6992089 -0.05393712
vn -0.6113243 0.7890466 -0.0607302
vn -0.7148328 0.6972559 -0.05336889
vn -0.8456834 -0.04488146 -0.5317944
vn -0.8105295 0.3066573 0.4990022
vn -0.02737933 0.9804398 0.1949053
vn -0.03128523 0.04105026 0.9986672
vn -0.04495627 0.0683921 0.9966451
vn -0.1367469 0.9687219 0.2070704
vn -0.01175541 0.1289349 0.9915834
vn -0.2832214 0.9394271 0.1930347
vn -0.03128523 0.04105026 0.9986672
vn 0.05269343 0.2324435 0.9711815
vn -0.4902386 0.8574013 0.1566177
vn -0.8105295 0.3066573 0.4990022
vn -0.6132771 0.7812346 0.1164633
vn -3.737211E-05 0.9999698 0.007774259
vn 0.2421337 0.1269819 -0.9618975
vn 0.6073434 0.7890466 -0.09240876
vn 0.3651723 0.925756 -0.09810656
vn 0.1464371 0.111358 -0.9829321
vn 0.04878742 0.08792204 -0.9949319
vn 0.1483901 0.9823928 -0.1135107
vn 0.3710313 0.925756 -0.07288037
vn 0.1444841 0.9862989 -0.07961755
vn 0.03121048 0.9941109 -0.1037759
vn 0.02730453 0.9980168 -0.05671844
vn 0.1405593 0.9900723 0
vn 0.3534314 0.9354604 0
vn 0.3104885 0.943333 0.1171315
vn 0.1405781 0.9804398 0.1377516
vn 0.02144551 0.9921579 0.1231374
vn 0.1366721 0.9687219 0.2071198
vn 0.02925748 0.9804398 0.1946323
vn 0.01753739 0.9998462 0
vn 0.2831466 0.9394271 0.1931444
vn 0.4921169 0.8574013 0.150612
vn 0.5389887 0.8378714 0.08638681
vn 0.5993332 0.8004997 0
vn 0.6600742 0.7480337 0.06890261
vn 0.6132025 0.7812346 0.1168562
vn -3.737211E-05 0.9980168 -0.06294852
vn -3.737211E-05 0.9960638 -0.08863952
vn -0.01761431 0.09768707 -0.9950613
vn 0.01753956 0.09768707 -0.9950626
vn -3.737211E-05 0.9804398 0.196819
vn -3.737211E-05 0.9921579 0.1249909
vn 0.7069461 0.7070208 -0.01867556
vn 0.997942 -0.0624584 -0.014514
vn 0.994036 0.103546 0.03421421
vn 0.9900708 -0.1405697 0
vn 0.712805 0.6992089 -0.05491672
vn 0.6112494 0.7890466 -0.06147837
vn 0.714758 0.6972559 -0.05436146
vn 0.8456086 -0.04488146 -0.5319133
vn -3.737211E-05 0.9999698 0.007774259
vn 0.8104547 0.3066573 0.4991237
vn 0.02925748 0.9804398 0.1946323
vn 0.1366721 0.9687219 0.2071198
vn 0.04488146 0.0683921 0.9966485
vn 0.03121048 0.04105026 0.9986695
vn 0.01168054 0.1289349 0.9915842
vn 0.2831466 0.9394271 0.1931444
vn -0.03128523 0.04105026 0.9986672
vn -0.05276817 0.2324435 0.9711774
vn 0.4921169 0.8574013 0.150612
vn 0.8104547 0.3066573 0.4991237
vn 0.6132025 0.7812346 0.1168562
g model_car_85_body_roof_LOD1_0
f 3/3/3 2/2/2 1/1/1
f 4/4/4 3/3/3 1/1/1
f 2/2/2 3/3/3 5/5/5
f 3/3/3 6/6/6 5/5/5
f 3/3/3 7/7/7 6/6/6
f 7/7/7 8/8/8 6/6/6
f 9/9/9 6/6/6 8/8/8
f 10/10/10 9/9/9 8/8/8
f 8/8/8 7/7/7 11/11/11
f 10/10/10 8/8/8 11/11/11
f 7/7/7 12/12/12 11/11/11
f 12/12/12 13/13/13 11/11/11
f 13/13/13 14/14/14 11/11/11
f 14/14/14 15/15/15 11/11/11
f 15/15/15 14/14/14 16/16/16
f 17/17/17 15/15/15 16/16/16
f 15/15/15 18/18/18 11/11/11
f 18/18/18 10/10/10 11/11/11
f 14/14/14 13/13/13 19/19/19
f 16/16/16 14/14/14 19/19/19
f 19/19/19 13/13/13 20/20/20
f 13/13/13 21/21/21 20/20/20
f 13/13/13 12/12/12 22/22/22
f 21/21/21 13/13/13 22/22/22
f 21/21/21 23/23/23 20/20/20
f 21/21/21 22/22/22 23/23/23
f 23/23/23 24/24/24 20/20/20
f 9/9/9 10/10/10 25/25/25
f 26/26/26 9/9/9 25/25/25
f 9/9/9 26/26/26 27/27/27
f 28/28/28 9/9/9 27/27/27
f 15/15/15 17/17/17 29/29/29
f 30/30/30 15/15/15 29/29/29
f 22/22/22 31/31/31 23/23/23
f 23/23/23 31/31/31 32/32/32
f 33/33/33 23/23/23 32/32/32
f 24/24/24 23/23/23 33/33/33
f 32/32/32 31/31/31 34/34/34
f 31/31/31 35/35/35 34/34/34
f 35/35/35 31/31/31 22/22/22
f 36/36/36 35/35/35 22/22/22
f 36/36/36 4/4/4 35/35/35
f 4/4/4 37/37/37 35/35/35
f 38/38/38 34/34/34 35/35/35
f 37/37/37 38/38/38 35/35/35
f 6/6/6 9/9/9 28/28/28
f 5/5/5 6/6/6 28/28/28
f 1/1/1 38/38/38 37/37/37
f 4/4/4 1/1/1 37/37/37
f 4/4/4 36/36/36 3/3/3
f 36/36/36 7/7/7 3/3/3
f 12/12/12 7/7/7 36/36/36
f 22/22/22 12/12/12 36/36/36
f 39/39/39 24/24/24 33/33/33
f 42/42/42 41/41/41 40/40/40
f 43/43/43 42/42/42 40/40/40
f 44/44/44 42/42/42 43/43/43
f 45/45/45 44/44/44 43/43/43
f 40/40/40 41/41/41 29/29/29
f 41/41/41 46/46/46 29/29/29
f 47/47/47 44/44/44 45/45/45
f 48/48/48 47/47/47 45/45/45
f 49/49/49 47/47/47 48/48/48
f 50/50/50 49/49/49 48/48/48
f 30/30/30 51/51/51 18/18/18
f 15/15/15 30/30/30 18/18/18
f 51/51/51 25/25/25 18/18/18
f 25/25/25 10/10/10 18/18/18
f 54/54/54 53/53/53 52/52/52
f 55/55/55 54/54/54 52/52/52
f 54/54/54 55/55/55 56/56/56
f 57/57/57 54/54/54 56/56/56
f 58/58/58 54/54/54 57/57/57
f 59/59/59 58/58/58 57/57/57
f 57/57/57 60/60/60 59/59/59
f 60/60/60 61/61/61 59/59/59
f 58/58/58 59/59/59 62/62/62
f 59/59/59 61/61/61 62/62/62
f 63/63/63 58/58/58 62/62/62
f 64/64/64 63/63/63 62/62/62
f 65/65/65 64/64/64 62/62/62
f 66/66/66 65/65/65 62/62/62
f 65/65/65 66/66/66 67/67/67
f 66/66/66 68/68/68 67/67/67
f 69/69/69 66/66/66 62/62/62
f 61/61/61 69/69/69 62/62/62
f 65/65/65 67/67/67 70/70/70
f 64/64/64 65/65/65 70/70/70
f 64/64/64 70/70/70 71/71/71
f 72/72/72 64/64/64 71/71/71
f 64/64/64 72/72/72 73/73/73
f 63/63/63 64/64/64 73/73/73
f 74/74/74 72/72/72 71/71/71
f 73/73/73 72/72/72 74/74/74
f 75/75/75 74/74/74 71/71/71
f 61/61/61 60/60/60 76/76/76
f 61/61/61 76/76/76 69/69/69
f 60/60/60 77/77/77 76/76/76
f 77/77/77 60/60/60 78/78/78
f 60/60/60 79/79/79 78/78/78
f 68/68/68 66/66/66 80/80/80
f 66/66/66 81/81/81 80/80/80
f 81/81/81 66/66/66 69/69/69
f 82/82/82 73/73/73 74/74/74
f 82/82/82 74/74/74 83/83/83
f 74/74/74 84/84/84 83/83/83
f 74/74/74 75/75/75 84/84/84
f 82/82/82 83/83/83 85/85/85
f 86/86/86 82/82/82 85/85/85
f 82/82/82 86/86/86 73/73/73
f 86/86/86 87/87/87 73/73/73
f 53/53/53 87/87/87 86/86/86
f 88/88/88 53/53/53 86/86/86
f 89/89/89 88/88/88 86/86/86
f 85/85/85 89/89/89 86/86/86
f 63/63/63 73/73/73 87/87/87
f 58/58/58 63/63/63 87/87/87
f 52/52/52 53/53/53 88/88/88
f 89/89/89 52/52/52 88/88/88
f 87/87/87 53/53/53 54/54/54
f 58/58/58 87/87/87 54/54/54
f 90/90/90 81/81/81 69/69/69
f 76/76/76 90/90/90 69/69/69
f 75/75/75 91/91/91 84/84/84
f 94/94/94 93/93/93 92/92/92
f 95/95/95 94/94/94 92/92/92
f 94/94/94 96/96/96 93/93/93
f 96/96/96 97/97/97 93/93/93
f 95/95/95 92/92/92 80/80/80
f 98/98/98 95/95/95 80/80/80
f 96/96/96 99/99/99 97/97/97
f 99/99/99 100/100/100 97/97/97
f 99/99/99 101/101/101 100/100/100
f 101/101/101 102/102/102 100/100/100
f 57/57/57 56/56/56 79/79/79
f 60/60/60 57/57/57 79/79/79
