g model_car_85_glass_LOD1
v -0.7043189 1.094084 0.1069039
v -0.7444248 1.024981 0.2112352
v -0.7584252 0.9926184 0.1243836
v -0.7566015 1.001156 -0.1428108
v -0.7864395 0.8953781 -0.1462545
v -0.7933351 0.8813832 0.1374598
v -0.7822036 0.9178528 -0.4407262
v -0.7522556 1.017742 -0.4379481
v -0.7786307 0.937522 -0.6403174
v -0.7456433 1.030802 -0.6434091
v -0.7116162 1.102283 -0.1428988
v -0.7098998 1.112009 -0.4407894
v -0.6555213 1.197994 -0.1472337
v -0.6562255 1.201245 -0.4473853
v -0.7020277 1.116215 -0.6526427
v -0.6478418 1.193101 -0.6658536
v -0.6476025 1.184263 0.09050506
v -0.7611675 0.9865176 0.2246523
v -0.8023598 0.8759701 0.2538715
v -0.6836045 1.116328 -0.7803977
v -0.6425827 1.187201 -0.7928632
v -0.7316732 1.030185 -0.7648626
v -0.7746012 0.9493907 -0.7467172
v -0.70068 1.102091 0.1573573
v -0.7415422 1.033043 0.227568
v -0.6427451 0.5800928 1.934001
v -0.654842 0.5988654 1.915364
v -0.6388503 0.6254991 1.909684
v -0.573442 0.5715083 1.982276
v -0.544586 0.5745258 1.992973
v -0.6188152 0.6424975 1.900813
v -0.5306434 0.5776256 1.995289
v -0.5712333 0.6434575 1.888243
v -0.6969447 0.6938834 1.798944
v -0.644819 0.7118142 1.766154
v -0.5241494 0.5848265 1.992605
v -0.7259383 0.6783565 1.81227
v -0.8077921 0.7364234 1.722632
v -0.7795026 0.7538784 1.699976
v -0.8558856 0.8103446 1.604243
v -0.8735606 0.7758004 1.624949
v -0.8724577 0.735535 1.636744
v -0.8207472 0.6952999 1.727116
v -0.8846343 0.7733386 1.588848
v -0.7524096 0.6437435 1.812754
v -0.8310315 0.6532192 1.734509
v -0.7635081 0.6132508 1.816269
v -0.6976873 0.5911419 1.882783
v -0.8239021 0.8259953 1.563128
v -0.8792185 0.8362246 1.545304
v -0.8865432 0.8259347 1.54913
v -0.7169247 0.7703571 1.665107
v -0.8888729 0.8017078 1.567165
v -7.748604E-07 1.269013 0.1365274
v -7.748604E-07 1.228682 0.2368813
v -0.2251173 1.223871 0.2187085
v -0.2181419 1.261749 0.1335347
v -0.4435773 1.206609 0.1877702
v -0.4128537 1.248841 0.1281436
v -7.748604E-07 1.148107 0.3935007
v -0.2485822 1.148712 0.3657668
v -7.748604E-07 1.057235 0.5893155
v -0.2872028 1.057361 0.5457329
v -7.748604E-07 0.9687628 0.7709209
v -0.3234358 0.9649808 0.709424
v -7.748604E-07 0.8982083 0.944437
v -0.3648042 0.8813584 0.8691158
v -0.5666206 0.8738219 0.7486414
v -0.5389115 0.9543197 0.5895823
v -0.778815 0.8694568 0.5075855
v -0.7428735 0.9610971 0.3993182
v -0.5094889 1.046584 0.4509158
v -0.7050561 1.048268 0.303376
v -0.4774999 1.135507 0.3061981
v -0.6671837 1.115805 0.2273397
v -0.611826 1.18085 0.1573766
v -0.5754142 1.205476 0.1381144
v -0.5302941 1.223428 0.1268921
v 0.3234342 0.9649808 0.709424
v 0.2872012 1.057361 0.5457329
v 0.2485834 1.148712 0.3657668
v 0.2251184 1.223871 0.2187057
v 0.218143 1.261749 0.1335347
v 0.4435785 1.206609 0.1877702
v 0.412852 1.248841 0.1281436
v 0.50949 1.046584 0.4509158
v 0.4775011 1.135507 0.3061981
v 0.7050573 1.048268 0.303376
v 0.7428746 0.9610971 0.3993182
v 0.5389128 0.9543197 0.5895823
v 0.5666218 0.8738219 0.7486414
v 0.7788162 0.8694568 0.5075855
v 0.6671821 1.115805 0.2273397
v 0.6118272 1.18085 0.1573766
v 0.5754154 1.205476 0.1381144
v 0.5302925 1.223428 0.1268921
v 0.3648026 0.8813584 0.8691158
v 0.7043201 1.094084 0.1069039
v 0.7584236 0.9926184 0.1243836
v 0.744426 1.024981 0.2112352
v 0.7566026 1.001156 -0.1428108
v 0.7864407 0.8953781 -0.1462545
v 0.7933336 0.8813832 0.1374598
v 0.7822049 0.9178528 -0.4407262
v 0.7522568 1.017742 -0.4379481
v 0.7786319 0.9375193 -0.6403174
v 0.7456417 1.030802 -0.6434091
v 0.7116174 1.102283 -0.1429015
v 0.709901 1.112009 -0.4407894
v 0.6555198 1.197994 -0.1472364
v 0.6562239 1.201245 -0.4473853
v 0.7020261 1.116215 -0.6526427
v 0.6478429 1.193101 -0.6658536
v 0.6476036 1.184263 0.09050506
v 0.6836057 1.116328 -0.7803977
v 0.6425812 1.187201 -0.7928632
v 0.7316716 1.030185 -0.7648626
v 0.7746023 0.9493907 -0.7467172
v 0.7006811 1.102091 0.1573573
v 0.7415406 1.033043 0.227568
v 0.7611686 0.9865176 0.2246523
v 0.8023582 0.8759701 0.2538715
v 0.6427462 0.5800928 1.934001
v 0.5734404 0.5715083 1.982274
v 0.6388514 0.6254991 1.909684
v 0.6548431 0.5988654 1.915364
v 0.5445871 0.5745258 1.992973
v 0.6188136 0.6424975 1.900813
v 0.5306445 0.5776284 1.995289
v 0.5712317 0.6434575 1.888241
v 0.6969459 0.6938834 1.798944
v 0.6448201 0.7118142 1.766154
v 0.5241477 0.5848265 1.992605
v 0.7259367 0.6783565 1.81227
v 0.8077933 0.7364234 1.722632
v 0.779501 0.7538784 1.699976
v 0.855884 0.8103446 1.604243
v 0.873559 0.7758004 1.624949
v 0.8724561 0.735535 1.636744
v 0.8207484 0.6952999 1.727116
v 0.8846328 0.7733386 1.588848
v 0.7524081 0.6437435 1.812754
v 0.83103 0.6532192 1.734509
v 0.7635093 0.6132508 1.816269
v 0.6976885 0.5911419 1.882783
v 0.8239005 0.8259953 1.563128
v 0.8792169 0.8362246 1.545304
v 0.8865444 0.8259347 1.54913
v 0.7169259 0.7703571 1.665107
v 0.8888741 0.8017078 1.567165
vn -0.8699274 0.4931798 0
vn -0.896876 0.4422821 0
vn -0.9218225 0.3855929 -0.03951478
vn -0.9362902 0.3512273 0
vn -0.9590937 0.2830889 0
vn -0.9521394 0.3022215 -0.045746
vn -0.9556355 0.2945517 0
vn -0.9331914 0.3571708 0.03978631
vn -0.9350862 0.3514864 -0.04550964
vn -0.9161381 0.3988565 -0.04005599
vn -0.8820316 0.470859 0.01766396
vn -0.8801368 0.4727538 -0.04316338
vn -0.8555043 0.5163344 0.03887398
vn -0.84982 0.5258084 -0.03649065
vn -0.868768 0.4898071 -0.07301478
vn -0.8422408 0.5352824 -0.06405656
vn -0.84982 0.5258084 0.03649065
vn -0.9331914 0.3571708 -0.03978631
vn -0.9464549 0.3192747 -0.04781909
vn -0.8649784 0.4917019 -0.100208
vn -0.8441356 0.5277032 -0.09468061
vn -0.9009797 0.4253837 -0.08534784
vn -0.9180329 0.3931721 -0.05129568
vn -0.868768 0.4935967 -0.04005469
vn -0.887716 0.4557006 -0.06555381
vn -0.5428616 0.3874876 0.745087
vn -0.5618096 0.3855929 0.7319072
vn -0.3912773 0.5845473 0.7107788
vn -0.383698 0.5466512 0.744277
vn -0.2756942 0.6489707 0.7091049
vn -0.1506371 0.7778174 0.6101709
vn -0.1260046 0.7740278 0.6204867
vn 0.02747458 0.8744524 0.4843327
vn -0.06726569 0.8403459 0.5378606
vn 0.03315896 0.8801368 0.4735607
vn 0.01800054 0.8555043 0.5174827
vn -0.3818032 0.6186538 0.686654
vn -0.4727538 0.5750733 0.6676784
vn -0.07673973 0.8403459 0.5365908
vn -0.2472721 0.7626589 0.5976688
vn -0.7664486 0.3912773 0.5093709
vn -0.84982 0.1961123 0.48923
vn -0.7020252 0.2946422 0.6483414
vn -0.9691927 -0.03505379 0.2437966
vn -0.6016006 0.3552759 0.7154409
vn -0.7152888 0.2946422 0.6336781
vn -0.6357071 0.3079059 0.7078633
vn -0.6110746 0.3230643 0.722646
vn 0.05210704 0.9066641 0.4186229
vn -0.2984318 0.8251875 0.4795873
vn -0.6489707 0.5693889 0.504612
vn 0.04452783 0.8801368 0.4726273
vn -0.7550797 0.480333 0.4462453
vn 0.0009472966 0.9218225 0.3876111
vn 0.0009472966 0.9066641 0.4218523
vn -0.08810848 0.8952952 0.4366731
vn -0.0748449 0.9028745 0.4233389
vn -0.1866383 0.8479251 0.4961745
vn -0.1487423 0.8611888 0.4860346
vn 0.0009472966 0.89719 0.4416437
vn -0.1146358 0.887716 0.4458912
vn 0.0009472966 0.8952952 0.4454724
vn -0.1525319 0.8801368 0.4495479
vn 0.0009472966 0.9009797 0.4338602
vn -0.1809539 0.8839265 0.4311956
vn 0.0009472966 0.9123484 0.4094135
vn -0.1866383 0.8952952 0.4044906
vn -0.3476967 0.8441356 0.4080957
vn -0.3401175 0.8308719 0.4404225
vn -0.4253837 0.8024499 0.4184768
vn -0.4102253 0.7929758 0.4504492
vn -0.2946422 0.8327667 0.4687063
vn -0.3571708 0.8005551 0.4811867
vn -0.2321137 0.8536095 0.4663411
vn -0.2870629 0.8270823 0.4832491
vn -0.2396929 0.8119238 0.5322847
vn -0.209376 0.8138186 0.5420894
vn -0.1923228 0.8403459 0.5067846
vn 0.1809537 0.8839265 0.4311957
vn 0.1525317 0.8801368 0.4495479
vn 0.1146356 0.887716 0.4458912
vn 0.0881083 0.8952952 0.4366731
vn 0.07484466 0.9028745 0.423339
vn 0.1866382 0.8479251 0.4961745
vn 0.1487421 0.8611888 0.4860346
vn 0.294642 0.8327667 0.4687064
vn 0.2321135 0.8536095 0.4663413
vn 0.3571706 0.8005551 0.4811869
vn 0.4102251 0.7929758 0.4504494
vn 0.3401173 0.8308719 0.4404227
vn 0.3476965 0.8441356 0.4080959
vn 0.4253835 0.8024499 0.4184771
vn 0.2870628 0.8270823 0.4832492
vn 0.2396927 0.8119238 0.5322849
vn 0.2093758 0.8138186 0.5420895
vn 0.1923226 0.8403459 0.5067847
vn 0.1866382 0.8952952 0.4044907
vn 0.8699273 0.4931799 0
vn 0.9218223 0.3855929 -0.03951931
vn 0.8968759 0.4422822 0
vn 0.9362902 0.3512273 0
vn 0.9590937 0.283089 0
vn 0.9521392 0.3022215 -0.04575056
vn 0.9556355 0.2945517 0
vn 0.9331912 0.3571708 0.03979005
vn 0.935086 0.3514864 -0.04551488
vn 0.9161379 0.3988565 -0.04005971
vn 0.8820314 0.470859 0.01767408
vn 0.8801366 0.4727538 -0.04316683
vn 0.8555042 0.5163344 0.03887782
vn 0.8498198 0.5258084 -0.03649474
vn 0.8687678 0.4898071 -0.07301764
vn 0.8422406 0.5352824 -0.06405889
vn 0.8498198 0.5258084 0.03649474
vn 0.8649782 0.4917019 -0.1002095
vn 0.8441353 0.5277032 -0.09468282
vn 0.9009795 0.4253837 -0.08535028
vn 0.9180327 0.3931721 -0.05129975
vn 0.8687678 0.4935967 -0.0400599
vn 0.8877158 0.4557006 -0.06555608
vn 0.9331912 0.3571708 -0.03979005
vn 0.9464548 0.3192747 -0.04782283
vn 0.5428614 0.3874876 0.7450872
vn 0.3836978 0.5466512 0.7442771
vn 0.3912771 0.5845473 0.7107789
vn 0.5618094 0.3855929 0.7319073
vn 0.275694 0.6489707 0.709105
vn 0.1506369 0.7778174 0.6101709
vn 0.1260044 0.7740278 0.6204868
vn -0.02747476 0.8744524 0.4843327
vn 0.06726545 0.8403459 0.5378606
vn -0.0331592 0.8801368 0.4735607
vn -0.01800072 0.8555043 0.5174827
vn 0.381803 0.6186538 0.6866542
vn 0.4727536 0.5750733 0.6676786
vn 0.07673949 0.8403459 0.5365909
vn 0.2472719 0.7626589 0.5976688
vn 0.7664484 0.3912773 0.5093712
vn 0.8498198 0.1961123 0.4892303
vn 0.702025 0.2946422 0.6483417
vn 0.9691924 -0.03505379 0.2437976
vn 0.6016003 0.3552759 0.7154411
vn 0.7152886 0.2946422 0.6336783
vn 0.6357068 0.3079059 0.7078636
vn 0.6110744 0.3230643 0.7226462
vn -0.05210727 0.9066641 0.4186229
vn 0.2984316 0.8251875 0.4795875
vn 0.6489705 0.5693889 0.5046123
vn -0.04452795 0.8801368 0.4726273
vn 0.7550795 0.480333 0.4462456
g model_car_85_glass_LOD1_0
f 3/3/3 2/2/2 1/1/1
f 4/4/4 3/3/3 1/1/1
f 4/4/4 5/5/5 3/3/3
f 5/5/5 6/6/6 3/3/3
f 7/7/7 5/5/5 4/4/4
f 8/8/8 7/7/7 4/4/4
f 9/9/9 7/7/7 8/8/8
f 10/10/10 9/9/9 8/8/8
f 11/11/11 4/4/4 1/1/1
f 8/8/8 4/4/4 11/11/11
f 12/12/12 8/8/8 11/11/11
f 12/12/12 11/11/11 13/13/13
f 14/14/14 12/12/12 13/13/13
f 15/15/15 12/12/12 14/14/14
f 8/8/8 12/12/12 15/15/15
f 10/10/10 8/8/8 15/15/15
f 16/16/16 15/15/15 14/14/14
f 11/11/11 1/1/1 17/17/17
f 13/13/13 11/11/11 17/17/17
f 18/18/18 3/3/3 6/6/6
f 19/19/19 18/18/18 6/6/6
f 20/20/20 15/15/15 16/16/16
f 21/21/21 20/20/20 16/16/16
f 22/22/22 10/10/10 15/15/15
f 20/20/20 22/22/22 15/15/15
f 9/9/9 10/10/10 22/22/22
f 23/23/23 9/9/9 22/22/22
f 17/17/17 1/1/1 24/24/24
f 1/1/1 2/2/2 24/24/24
f 3/3/3 18/18/18 2/2/2
f 24/24/24 2/2/2 25/25/25
f 28/28/28 27/27/27 26/26/26
f 29/29/29 28/28/28 26/26/26
f 29/29/29 30/30/30 28/28/28
f 30/30/30 31/31/31 28/28/28
f 30/30/30 32/32/32 31/31/31
f 31/31/31 32/32/32 33/33/33
f 31/31/31 33/33/33 34/34/34
f 33/33/33 35/35/35 34/34/34
f 32/32/32 36/36/36 33/33/33
f 31/31/31 34/34/34 37/37/37
f 28/28/28 31/31/31 37/37/37
f 38/38/38 37/37/37 34/34/34
f 39/39/39 38/38/38 34/34/34
f 38/38/38 39/39/39 40/40/40
f 41/41/41 38/38/38 40/40/40
f 41/41/41 42/42/42 38/38/38
f 42/42/42 43/43/43 38/38/38
f 38/38/38 43/43/43 37/37/37
f 42/42/42 41/41/41 44/44/44
f 43/43/43 45/45/45 37/37/37
f 43/43/43 46/46/46 45/45/45
f 42/42/42 46/46/46 43/43/43
f 46/46/46 47/47/47 45/45/45
f 47/47/47 48/48/48 45/45/45
f 48/48/48 27/27/27 45/45/45
f 27/27/27 48/48/48 26/26/26
f 45/45/45 27/27/27 28/28/28
f 37/37/37 45/45/45 28/28/28
f 40/40/40 39/39/39 49/49/49
f 49/49/49 50/50/50 40/40/40
f 40/40/40 50/50/50 51/51/51
f 39/39/39 52/52/52 49/49/49
f 39/39/39 34/34/34 52/52/52
f 34/34/34 35/35/35 52/52/52
f 41/41/41 53/53/53 44/44/44
f 53/53/53 41/41/41 40/40/40
f 51/51/51 53/53/53 40/40/40
f 56/56/56 55/55/55 54/54/54
f 57/57/57 56/56/56 54/54/54
f 56/56/56 57/57/57 58/58/58
f 57/57/57 59/59/59 58/58/58
f 55/55/55 56/56/56 60/60/60
f 56/56/56 61/61/61 60/60/60
f 61/61/61 56/56/56 58/58/58
f 60/60/60 61/61/61 62/62/62
f 61/61/61 63/63/63 62/62/62
f 62/62/62 63/63/63 64/64/64
f 63/63/63 65/65/65 64/64/64
f 64/64/64 65/65/65 66/66/66
f 65/65/65 67/67/67 66/66/66
f 68/68/68 67/67/67 65/65/65
f 69/69/69 68/68/68 65/65/65
f 69/69/69 65/65/65 63/63/63
f 68/68/68 69/69/69 70/70/70
f 69/69/69 71/71/71 70/70/70
f 69/69/69 72/72/72 71/71/71
f 72/72/72 63/63/63 61/61/61
f 72/72/72 69/69/69 63/63/63
f 72/72/72 73/73/73 71/71/71
f 72/72/72 74/74/74 73/73/73
f 74/74/74 72/72/72 61/61/61
f 74/74/74 75/75/75 73/73/73
f 74/74/74 58/58/58 75/75/75
f 74/74/74 61/61/61 58/58/58
f 58/58/58 76/76/76 75/75/75
f 58/58/58 77/77/77 76/76/76
f 58/58/58 59/59/59 77/77/77
f 59/59/59 78/78/78 77/77/77
f 79/79/79 64/64/64 66/66/66
f 79/79/79 80/80/80 64/64/64
f 80/80/80 62/62/62 64/64/64
f 80/80/80 81/81/81 62/62/62
f 81/81/81 60/60/60 62/62/62
f 81/81/81 82/82/82 60/60/60
f 82/82/82 55/55/55 60/60/60
f 55/55/55 82/82/82 54/54/54
f 82/82/82 83/83/83 54/54/54
f 83/83/83 82/82/82 84/84/84
f 82/82/82 81/81/81 84/84/84
f 85/85/85 83/83/83 84/84/84
f 80/80/80 86/86/86 81/81/81
f 86/86/86 87/87/87 81/81/81
f 81/81/81 87/87/87 84/84/84
f 87/87/87 86/86/86 88/88/88
f 88/88/88 86/86/86 89/89/89
f 86/86/86 90/90/90 89/89/89
f 90/90/90 86/86/86 80/80/80
f 79/79/79 90/90/90 80/80/80
f 91/91/91 90/90/90 79/79/79
f 90/90/90 91/91/91 92/92/92
f 89/89/89 90/90/90 92/92/92
f 93/93/93 87/87/87 88/88/88
f 84/84/84 87/87/87 93/93/93
f 94/94/94 84/84/84 93/93/93
f 95/95/95 84/84/84 94/94/94
f 85/85/85 84/84/84 95/95/95
f 96/96/96 85/85/85 95/95/95
f 97/97/97 91/91/91 79/79/79
f 97/97/97 79/79/79 66/66/66
f 100/100/100 99/99/99 98/98/98
f 99/99/99 101/101/101 98/98/98
f 102/102/102 101/101/101 99/99/99
f 103/103/103 102/102/102 99/99/99
f 102/102/102 104/104/104 101/101/101
f 104/104/104 105/105/105 101/101/101
f 104/104/104 106/106/106 105/105/105
f 106/106/106 107/107/107 105/105/105
f 101/101/101 108/108/108 98/98/98
f 101/101/101 105/105/105 108/108/108
f 105/105/105 109/109/109 108/108/108
f 108/108/108 109/109/109 110/110/110
f 109/109/109 111/111/111 110/110/110
f 109/109/109 112/112/112 111/111/111
f 105/105/105 107/107/107 112/112/112
f 109/109/109 105/105/105 112/112/112
f 112/112/112 113/113/113 111/111/111
f 108/108/108 110/110/110 114/114/114
f 98/98/98 108/108/108 114/114/114
f 112/112/112 115/115/115 113/113/113
f 115/115/115 116/116/116 113/113/113
f 117/117/117 115/115/115 112/112/112
f 107/107/107 117/117/117 112/112/112
f 107/107/107 106/106/106 117/117/117
f 106/106/106 118/118/118 117/117/117
f 98/98/98 114/114/114 119/119/119
f 100/100/100 98/98/98 119/119/119
f 100/100/100 119/119/119 120/120/120
f 121/121/121 99/99/99 100/100/100
f 99/99/99 121/121/121 103/103/103
f 121/121/121 122/122/122 103/103/103
f 125/125/125 124/124/124 123/123/123
f 126/126/126 125/125/125 123/123/123
f 127/127/127 124/124/124 125/125/125
f 128/128/128 127/127/127 125/125/125
f 129/129/129 127/127/127 128/128/128
f 129/129/129 128/128/128 130/130/130
f 130/130/130 128/128/128 131/131/131
f 132/132/132 130/130/130 131/131/131
f 133/133/133 129/129/129 130/130/130
f 128/128/128 125/125/125 134/134/134
f 131/131/131 128/128/128 134/134/134
f 134/134/134 135/135/135 131/131/131
f 135/135/135 136/136/136 131/131/131
f 136/136/136 135/135/135 137/137/137
f 135/135/135 138/138/138 137/137/137
f 139/139/139 138/138/138 135/135/135
f 140/140/140 139/139/139 135/135/135
f 140/140/140 135/135/135 134/134/134
f 138/138/138 139/139/139 141/141/141
f 142/142/142 140/140/140 134/134/134
f 143/143/143 140/140/140 142/142/142
f 143/143/143 139/139/139 140/140/140
f 144/144/144 143/143/143 142/142/142
f 145/145/145 144/144/144 142/142/142
f 126/126/126 145/145/145 142/142/142
f 145/145/145 126/126/126 123/123/123
f 142/142/142 134/134/134 125/125/125
f 126/126/126 142/142/142 125/125/125
f 136/136/136 137/137/137 146/146/146
f 147/147/147 146/146/146 137/137/137
f 147/147/147 137/137/137 148/148/148
f 149/149/149 136/136/136 146/146/146
f 150/150/150 138/138/138 141/141/141
f 150/150/150 148/148/148 137/137/137
f 138/138/138 150/150/150 137/137/137
f 131/131/131 136/136/136 149/149/149
f 132/132/132 131/131/131 149/149/149
