g Glass_12
v 0.0036 1.2499 0.1471002
v 0.1594 1.2484 0.1421002
v 0.1697 1.1384 0.3679002
v 0.3494 1.1314 0.3470002
v 0.0036 1.1403 0.3745002
v 0.1782 0.9941999 0.6062002
v 0.3274 1.2408 0.1269002
v 0.5304 1.1178 0.2979002
v 0.5054 1.2188 0.0938002
v 0.5595 1.1968 0.09770019
v 0.5901 1.165 0.1378002
v 0.6479 1.0526 0.3144002
v 0.3604 0.9875999 0.5830002
v 0.3714 0.8437999 0.8075001
v 0.5825 0.8367999 0.7352001
v 0.1879 0.8500999 0.8325001
v 0.5526 0.9773999 0.5238002
v 0.708 0.8366999 0.6405001
v 0.7324 0.8430999 0.6135001
v 0.0036 0.9963999 0.6142002
v 0.0036 0.8524999 0.8423001
v -0.1806 0.8500999 0.8325001
v -0.1709 0.9941999 0.6062002
v -0.3641 0.8437999 0.8075001
v -0.3531 0.9875999 0.5830002
v -0.5753 0.8367999 0.7352001
v -0.5453 0.9773999 0.5238002
v -0.7007 0.8366999 0.6405001
v -0.7252 0.8430999 0.6135001
v -0.6406 1.0526 0.3144002
v -0.1624 1.1384 0.3679002
v -0.1521 1.2484 0.1421002
v -0.3421 1.1314 0.3470002
v -0.3202 1.2408 0.1269002
v -0.5232 1.1178 0.2979002
v -0.5829 1.165 0.1378002
v -0.4982 1.2188 0.0938002
v -0.5523 1.1968 0.09770019
v 0.6728 1.0153 0.2474002
v 0.6089 1.1501 0.03980019
v 0.66 1.0242 -0.08379984
v 0.5857 1.1811 -0.05079981
v 0.5705 1.2006 -0.2298998
v 0.6468 1.0281 -0.3728998
v 0.7291 0.8652 -0.1066999
v 0.5662 1.1882 -0.4758998
v 0.6392 1.0276 -0.5698998
v 0.7041 0.8741001 -0.5120999
v 0.5687 1.167 -0.6268998
v 0.7373 0.8576999 0.3160002
v 0.704 0.8756001 -0.6031999
v 0.6412 1.0245 -0.6560998
v 0.6292 1.0105 -0.8941998
v 0.5783 1.1045 -0.9164998
v 0.5906 1.0246 -1.1452
v 0.6579 0.9061002 -1.1216
v 0.5743 1.156 -0.7068998
v 0.6403 0.9191002 -1.2238
v 0.6036 0.9725002 -1.24
v 0.1616 1.1995 -0.9207998
v 0.234 1.1759 -1.0347
v 0.3279 1.1901 -0.9196998
v 0.4208 1.164 -1.019
v 0.3884 1.1004 -1.2962
v 0.4483 1.0851 -1.2827
v 0.4318 1.0414 -1.4552
v 0.4737 1.1526 -1.0085
v 0.4372 1.1753 -0.9177998
v 0.487 1.1622 -0.9302998
v 0.0036 1.1829 -1.0411
v 0.2078 1.1114 -1.3031
v 0.3638 1.0474 -1.5114
v 0.4114 0.9971002 -1.6354
v 0.3521 0.9983003 -1.6764
v 0.288 0.9973003 -1.6881
v 0.1761 1.0499 -1.538
v 0.0036 1.1177 -1.307
v 0.1459 0.9985003 -1.6953
v 0.0036 1.048 -1.5486
v 0.0036 0.9993003 -1.6992
v 0.5109 1.1391 -0.9932998
v 0.4592 0.9858003 -1.5561
v 0.4889 1.0619 -1.2747
v -0.1387 0.9985003 -1.6953
v -0.1688 1.0499 -1.538
v -0.2005 1.1114 -1.3031
v -0.2808 0.9973003 -1.6881
v -0.3565 1.0474 -1.5114
v -0.3811 1.1004 -1.2962
v -0.3449 0.9983003 -1.6764
v -0.4042 0.9971002 -1.6354
v -0.4246 1.0414 -1.4552
v -0.441 1.0851 -1.2827
v -0.4135 1.164 -1.019
v -0.2268 1.1759 -1.0347
v -0.3206 1.1901 -0.9196998
v -0.1544 1.1995 -0.9207998
v -0.4665 1.1526 -1.0085
v -0.4299 1.1753 -0.9177998
v -0.4798 1.1622 -0.9302998
v -0.5036 1.1391 -0.9932998
v -0.4816 1.0619 -1.2747
v -0.4519 0.9858003 -1.5561
v 0.0036 1.2024 -0.9188998
v -0.6656 1.0153 0.2474002
v -0.6527 1.0242 -0.08379984
v -0.6016 1.1501 0.03980019
v -0.5784 1.1811 -0.05079981
v -0.5632 1.2006 -0.2298998
v -0.6395 1.0281 -0.3728998
v -0.7218 0.8652 -0.1066999
v -0.559 1.1882 -0.4758998
v -0.6319 1.0276 -0.5698998
v -0.6968 0.8741001 -0.5120999
v -0.5615 1.167 -0.6268998
v -0.7301 0.8576999 0.3160002
v -0.6967 0.8756001 -0.6031999
v -0.6219 1.0105 -0.8941998
v -0.6339 1.0245 -0.6560998
v -0.571 1.1045 -0.9164998
v -0.5833 1.0246 -1.1452
v -0.6506 0.9061002 -1.1216
v -0.5671 1.156 -0.7068998
v -0.633 0.9191002 -1.2238
v -0.5964 0.9725002 -1.24
vt 0.4916 0.4121
vt 0.5679 0.4128
vt 0.5706 0.29
vt 0.6585 0.2959
vt 0.4898 0.2889
vt 0.573 0.1543
vt 0.6506 0.4161
vt 0.7487 0.3121
vt 0.7396 0.4237
vt 0.7675 0.4165
vt 0.783 0.3916
vt 0.8105 0.2886
vt 0.6624 0.1612
vt 0.6666 0.0309
vt 0.7724 0.0581
vt 0.5762 0.0232
vt 0.7583 0.1823
vt 0.8389 0.097
vt 0.8517 0.1098
vt 0.4878 0.1527
vt 0.4859 0.021
vt 0.3957 0.0258
vt 0.4027 0.1568
vt 0.3056 0.0361
vt 0.3135 0.1663
vt 0.2006 0.0664
vt 0.2182 0.1901
vt 0.1353 0.1072
vt 0.1228 0.1204
vt 0.1692 0.298
vt 0.409 0.2924
vt 0.4152 0.415
vt 0.3213 0.3008
vt 0.3327 0.4207
vt 0.2317 0.3196
vt 0.1996 0.4001
vt 0.244 0.4309
vt 0.2158 0.4246
vt 0.1264 0.8646
vt 0.1899 0.7571
vt 0.1185 0.7029
vt 0.2043 0.7112
vt 0.2081 0.6231
vt 0.1101 0.5618
vt 0.0331 0.6993
vt 0.1927 0.5038
vt 0.1027 0.4659
vt 0.0242 0.5012
vt 0.1761 0.4312
vt 0.0466 0.9054
vt 0.019 0.4548
vt 0.0968 0.4258
vt 0.088 0.3096
vt 0.1396 0.2961
vt 0.0969 0.1857
vt 0.031 0.2006
vt 0.1677 0.3978
vt 0.0382 0.15
vt 0.0693 0.1402
vt 0.4177 0.8432
vt 0.3825 0.7862
vt 0.3363 0.8426
vt 0.2911 0.7922
vt 0.307 0.6535
vt 0.2764 0.658
vt 0.2844 0.571
vt 0.2644 0.796
vt 0.2822 0.8419
vt 0.2572 0.8345
vt 0.495 0.7841
vt 0.3954 0.6515
vt 0.3191 0.5453
vt 0.2949 0.4803
vt 0.3246 0.4612
vt 0.3559 0.4556
vt 0.4108 0.5331
vt 0.495 0.6505
vt 0.4254 0.4522
vt 0.495 0.5278
vt 0.495 0.4505
vt 0.2445 0.8018
vt 0.2664 0.516
vt 0.2532 0.6588
vt 0.5646 0.4522
vt 0.5792 0.5331
vt 0.5947 0.6515
vt 0.6341 0.4556
vt 0.6709 0.5453
vt 0.683 0.6535
vt 0.6655 0.4612
vt 0.6952 0.4803
vt 0.7056 0.571
vt 0.7136 0.658
vt 0.699 0.7922
vt 0.6075 0.7862
vt 0.6538 0.8426
vt 0.5723 0.8432
vt 0.7256 0.796
vt 0.7078 0.8419
vt 0.7328 0.8345
vt 0.7455 0.8018
vt 0.7368 0.6588
vt 0.7237 0.516
vt 0.495 0.8445
vt 0.8639 0.8729
vt 0.8667 0.7111
vt 0.7971 0.7675
vt 0.7812 0.7221
vt 0.7746 0.6341
vt 0.8707 0.5698
vt 0.9519 0.7048
vt 0.7863 0.5144
vt 0.875 0.4737
vt 0.9546 0.5065
vt 0.8006 0.4413
vt 0.9449 0.9112
vt 0.9721 0.4658
vt 0.9032 0.3205
vt 0.8943 0.4368
vt 0.8516 0.3071
vt 0.8943 0.1966
vt 0.9602 0.2115
vt 0.8235 0.4087
vt 0.953 0.161
vt 0.9219 0.1512
vn 0 0.8999341 0.4360259
vn 0.05249928 0.8981688 0.436505
vn 0.05914418 0.8773431 0.4762048
vn 0.1406788 0.8705894 0.4714696
vn 0 0.8792077 0.4764387
vn 0.0659509 0.8488247 0.5245445
vn 0.1325497 0.8934748 0.4291078
vn 0.2903064 0.8492944 0.4409323
vn 0.2479423 0.8800079 0.4051059
vn 0.3377305 0.857749 0.3875625
vn 0.3780848 0.8402192 0.3886947
vn 0.385846 0.8106733 0.4403767
vn 0.1498256 0.841543 0.5189969
vn 0.148346 0.8364235 0.5276261
vn 0.269658 0.8191655 0.5062138
vn 0.06894386 0.8433184 0.5329736
vn 0.2863814 0.8227013 0.4910685
vn 0.3530086 0.7967319 0.4905133
vn 0.3537088 0.7986875 0.4868146
vn 0 0.8510106 0.5251484
vn -1.03991E-05 0.8457621 0.5335603
vn -0.06895462 0.8433179 0.532973
vn -0.06596089 0.8488246 0.5245437
vn -0.1483059 0.8364277 0.5276307
vn -0.1498113 0.8415509 0.5189881
vn -0.2697009 0.8192002 0.5061347
vn -0.2863305 0.8227226 0.4910626
vn -0.3527428 0.7966735 0.4907992
vn -0.353249 0.7986246 0.4872513
vn -0.3860067 0.8105774 0.4404125
vn -0.05915289 0.877343 0.4762039
vn -0.05249286 0.8981646 0.4365144
vn -0.1406341 0.8705785 0.4715031
vn -0.1325218 0.8934631 0.4291406
vn -0.290393 0.8492347 0.4409902
vn -0.3781417 0.840188 0.3887067
vn -0.2479423 0.8800078 0.4051059
vn -0.3377306 0.8577489 0.3875628
vn 0.9229959 0.3844439 -0.01677751
vn 0.908455 0.4152833 -0.04742846
vn 0.9102543 0.4126271 -0.03429409
vn 0.8982081 0.4364111 -0.05260672
vn 0.9020754 0.4302061 -0.03439062
vn 0.9118489 0.4086133 -0.03958162
vn 0.9179884 0.3953893 -0.03105759
vn 0.9009653 0.4320731 -0.03967631
vn 0.9105203 0.4116243 -0.03896545
vn 0.9233585 0.3816227 -0.04210905
vn 0.8989078 0.4356861 -0.04628655
vn 0.9271528 0.3745118 -0.01134073
vn 0.9257652 0.3724136 -0.06532193
vn 0.9154794 0.3954827 -0.0741014
vn 0.9013484 0.4259984 -0.07808024
vn 0.8879166 0.4504355 -0.09333811
vn 0.8696519 0.4803328 -0.1139558
vn 0.882788 0.4606279 -0.09223535
vn 0.9011013 0.4247566 -0.08716859
vn 0.8585585 0.4973306 -0.1246578
vn 0.83543 0.5219027 -0.1722624
vn 0.03793448 0.9843582 -0.1720463
vn 0.05661816 0.9767451 -0.2067932
vn 0.08705968 0.982274 -0.1660071
vn 0.1698367 0.9646435 -0.2015399
vn 0.1829647 0.9509543 -0.2494192
vn 0.4067491 0.8772099 -0.2550647
vn 0.4411421 0.8569092 -0.2666466
vn 0.3308125 0.9183185 -0.2173801
vn 0.1775399 0.9744494 -0.137579
vn 0.2685417 0.950596 -0.1557322
vn 0 0.979174 -0.203023
vn 0.0495438 0.9678924 -0.2464339
vn 0.1693159 0.9480549 -0.2693026
vn 0.3131112 0.9065024 -0.2832221
vn 0.1002546 0.9516691 -0.2903014
vn 0.0386417 0.9535597 -0.298715
vn 0.02981671 0.9576954 -0.2862349
vn 0 0.9677609 -0.2518708
vn 0.01666697 0.9499353 -0.3120018
vn 0 0.9557023 -0.2943351
vn 0 0.9514883 -0.3076849
vn 0.4110473 0.8845895 -0.2203214
vn 0.5968718 0.7601367 -0.2567806
vn 0.5177337 0.8167179 -0.2548013
vn -0.01667096 0.9499374 -0.3119951
vn -0.02981486 0.9576972 -0.286229
vn -0.04954844 0.9678903 -0.2464412
vn -0.03864042 0.9535677 -0.2986897
vn -0.1690965 0.9481008 -0.269279
vn -0.1829362 0.9509687 -0.2493848
vn -0.1002613 0.9516854 -0.290246
vn -0.313149 0.9065131 -0.283146
vn -0.4414834 0.856743 -0.2666155
vn -0.4066995 0.8772519 -0.2549991
vn -0.1696509 0.9646773 -0.2015345
vn -0.05664206 0.9767439 -0.2067921
vn -0.08708343 0.9822762 -0.1659816
vn -0.03794541 0.9843589 -0.1720399
vn -0.3310576 0.9182217 -0.217416
vn -0.1773425 0.9744893 -0.1375508
vn -0.2684329 0.9506286 -0.155721
vn -0.4119944 0.884149 -0.2203204
vn -0.5178595 0.8166488 -0.254767
vn -0.5978475 0.7593965 -0.2567008
vn 0 0.9875057 -0.1575835
vn -0.9229885 0.3844509 -0.01701881
vn -0.9102331 0.4126647 -0.03440379
vn -0.9083895 0.4154086 -0.04758342
vn -0.8982086 0.4364103 -0.0526066
vn -0.9021155 0.4301308 -0.03427831
vn -0.9119073 0.4084898 -0.03951243
vn -0.9179852 0.3953872 -0.0311786
vn -0.9011618 0.4316775 -0.03952095
vn -0.9106528 0.4113325 -0.03894882
vn -0.9233581 0.3816237 -0.04210913
vn -0.8991498 0.4351942 -0.04621353
vn -0.9271832 0.3744296 -0.01156209
vn -0.9257653 0.3724133 -0.06532183
vn -0.9013482 0.4259987 -0.07808002
vn -0.9155529 0.3952985 -0.07417546
vn -0.8879727 0.4503141 -0.09339016
vn -0.8697515 0.4802071 -0.1137255
vn -0.8827874 0.460629 -0.09223495
vn -0.9013797 0.4241105 -0.08743496
vn -0.8588188 0.4970251 -0.1240815
vn -0.8361286 0.5212268 -0.1709139
g Glass_12_0
f 3/3/3 2/2/2 1/1/1
f 2/2/2 3/3/3 4/4/4
f 5/5/5 3/3/3 1/1/1
f 6/6/6 3/3/3 5/5/5
f 7/7/7 2/2/2 4/4/4
f 7/7/7 4/4/4 8/8/8
f 9/9/9 7/7/7 8/8/8
f 10/10/10 9/9/9 8/8/8
f 10/10/10 8/8/8 11/11/11
f 11/11/11 8/8/8 12/12/12
f 3/3/3 6/6/6 13/13/13
f 4/4/4 3/3/3 13/13/13
f 13/13/13 6/6/6 14/14/14
f 15/15/15 13/13/13 14/14/14
f 14/14/14 6/6/6 16/16/16
f 17/17/17 13/13/13 15/15/15
f 4/4/4 13/13/13 17/17/17
f 8/8/8 17/17/17 12/12/12
f 8/8/8 4/4/4 17/17/17
f 18/18/18 17/17/17 15/15/15
f 19/19/19 17/17/17 18/18/18
f 12/12/12 17/17/17 19/19/19
f 16/16/16 6/6/6 20/20/20
f 20/20/20 6/6/6 5/5/5
f 21/21/21 16/16/16 20/20/20
f 22/22/22 21/21/21 20/20/20
f 23/23/23 22/22/22 20/20/20
f 23/23/23 24/24/24 22/22/22
f 23/23/23 25/25/25 24/24/24
f 25/25/25 26/26/26 24/24/24
f 25/25/25 27/27/27 26/26/26
f 27/27/27 28/28/28 26/26/26
f 27/27/27 29/29/29 28/28/28
f 27/27/27 30/30/30 29/29/29
f 23/23/23 31/31/31 25/25/25
f 31/31/31 23/23/23 5/5/5
f 23/23/23 20/20/20 5/5/5
f 31/31/31 5/5/5 1/1/1
f 32/32/32 31/31/31 1/1/1
f 31/31/31 32/32/32 33/33/33
f 25/25/25 33/33/33 27/27/27
f 31/31/31 33/33/33 25/25/25
f 32/32/32 34/34/34 33/33/33
f 33/33/33 34/34/34 35/35/35
f 27/27/27 35/35/35 30/30/30
f 33/33/33 35/35/35 27/27/27
f 35/35/35 36/36/36 30/30/30
f 34/34/34 37/37/37 35/35/35
f 37/37/37 38/38/38 35/35/35
f 35/35/35 38/38/38 36/36/36
f 41/41/41 40/40/40 39/39/39
f 42/42/42 40/40/40 41/41/41
f 43/43/43 42/42/42 41/41/41
f 43/43/43 41/41/41 44/44/44
f 44/44/44 41/41/41 45/45/45
f 45/45/45 41/41/41 39/39/39
f 46/46/46 43/43/43 44/44/44
f 46/46/46 44/44/44 47/47/47
f 47/47/47 44/44/44 48/48/48
f 48/48/48 44/44/44 45/45/45
f 49/49/49 46/46/46 47/47/47
f 50/50/50 45/45/45 39/39/39
f 53/53/53 52/52/52 51/51/51
f 54/54/54 52/52/52 53/53/53
f 54/54/54 53/53/53 55/55/55
f 55/55/55 53/53/53 56/56/56
f 56/56/56 53/53/53 51/51/51
f 57/57/57 52/52/52 54/54/54
f 56/56/56 58/58/58 55/55/55
f 59/59/59 55/55/55 58/58/58
f 62/62/62 61/61/61 60/60/60
f 63/63/63 61/61/61 62/62/62
f 64/64/64 61/61/61 63/63/63
f 63/63/63 65/65/65 64/64/64
f 64/64/64 65/65/65 66/66/66
f 63/63/63 67/67/67 65/65/65
f 68/68/68 63/63/63 62/62/62
f 69/69/69 63/63/63 68/68/68
f 67/67/67 63/63/63 69/69/69
f 61/61/61 70/70/70 60/60/60
f 71/71/71 70/70/70 61/61/61
f 71/71/71 61/61/61 64/64/64
f 72/72/72 71/71/71 64/64/64
f 64/64/64 66/66/66 72/72/72
f 72/72/72 66/66/66 73/73/73
f 74/74/74 72/72/72 73/73/73
f 74/74/74 75/75/75 72/72/72
f 75/75/75 76/76/76 72/72/72
f 76/76/76 71/71/71 72/72/72
f 76/76/76 77/77/77 71/71/71
f 77/77/77 70/70/70 71/71/71
f 75/75/75 78/78/78 76/76/76
f 78/78/78 79/79/79 76/76/76
f 77/77/77 76/76/76 79/79/79
f 80/80/80 79/79/79 78/78/78
f 81/81/81 67/67/67 69/69/69
f 82/82/82 73/73/73 66/66/66
f 81/81/81 83/83/83 67/67/67
f 82/82/82 66/66/66 83/83/83
f 83/83/83 66/66/66 65/65/65
f 83/83/83 65/65/65 67/67/67
f 79/79/79 80/80/80 84/84/84
f 79/79/79 84/84/84 85/85/85
f 85/85/85 77/77/77 79/79/79
f 77/77/77 85/85/85 86/86/86
f 84/84/84 87/87/87 85/85/85
f 85/85/85 87/87/87 88/88/88
f 86/86/86 85/85/85 88/88/88
f 86/86/86 88/88/88 89/89/89
f 87/87/87 90/90/90 88/88/88
f 88/88/88 90/90/90 91/91/91
f 92/92/92 88/88/88 91/91/91
f 92/92/92 89/89/89 88/88/88
f 93/93/93 89/89/89 92/92/92
f 93/93/93 94/94/94 89/89/89
f 95/95/95 89/89/89 94/94/94
f 95/95/95 86/86/86 89/89/89
f 95/95/95 94/94/94 96/96/96
f 95/95/95 96/96/96 97/97/97
f 70/70/70 86/86/86 95/95/95
f 70/70/70 95/95/95 97/97/97
f 98/98/98 94/94/94 93/93/93
f 94/94/94 99/99/99 96/96/96
f 94/94/94 100/100/100 99/99/99
f 94/94/94 98/98/98 100/100/100
f 70/70/70 77/77/77 86/86/86
f 98/98/98 101/101/101 100/100/100
f 93/93/93 102/102/102 98/98/98
f 92/92/92 102/102/102 93/93/93
f 102/102/102 101/101/101 98/98/98
f 91/91/91 103/103/103 92/92/92
f 92/92/92 103/103/103 102/102/102
f 70/70/70 97/97/97 104/104/104
f 60/60/60 70/70/70 104/104/104
f 107/107/107 106/106/106 105/105/105
f 107/107/107 108/108/108 106/106/106
f 108/108/108 109/109/109 106/106/106
f 106/106/106 109/109/109 110/110/110
f 106/106/106 110/110/110 111/111/111
f 106/106/106 111/111/111 105/105/105
f 109/109/109 112/112/112 110/110/110
f 110/110/110 112/112/112 113/113/113
f 110/110/110 113/113/113 114/114/114
f 110/110/110 114/114/114 111/111/111
f 112/112/112 115/115/115 113/113/113
f 111/111/111 116/116/116 105/105/105
f 119/119/119 118/118/118 117/117/117
f 119/119/119 120/120/120 118/118/118
f 118/118/118 120/120/120 121/121/121
f 118/118/118 121/121/121 122/122/122
f 118/118/118 122/122/122 117/117/117
f 119/119/119 123/123/123 120/120/120
f 122/122/122 121/121/121 124/124/124
f 125/125/125 124/124/124 121/121/121
