g ref_12
v 0.6904 0.7150997 1.7533
v 0.769 0.6509997 1.7298
v 0.7206 0.6609997 1.7871
v 0.7708 0.7123998 1.6279
v 0.7184 0.7476997 1.6575
v 0.7492 0.7635998 1.5474
v 0.6128 0.7501997 1.6998
v 0.6547 0.7687998 1.6259
v 0.5579 0.7073997 1.8044
v 0.7315 0.7767997 1.5395
v 0.7044 0.7810997 1.552
v 0.6565 0.6607997 1.8336
v 0.5227 0.6681997 1.8736
v 0.5158 0.6471997 1.903
v 0.5966 0.6171997 1.8957
v 0.6942 0.6244997 1.8366
v 0.7375 0.6309997 1.8024
v 0.549 0.6167997 1.9168
v 0.5247 0.6251987 1.9185
v 0.6486 0.6175997 1.8692
v -0.6831 0.7150997 1.7533
v -0.7133 0.6609997 1.7871
v -0.7617 0.6509997 1.7298
v -0.7635 0.7123998 1.6279
v -0.7111 0.7476997 1.6575
v -0.742 0.7635998 1.5474
v -0.6056 0.7501997 1.6998
v -0.6474 0.7687998 1.6259
v -0.5506 0.7073997 1.8044
v -0.7242 0.7767997 1.5395
v -0.6972 0.7810997 1.552
v -0.6492 0.6607997 1.8336
v -0.5154 0.6681997 1.8736
v -0.5086 0.6471997 1.903
v -0.5893 0.6171997 1.8957
v -0.6869 0.6244997 1.8366
v -0.7303 0.6309997 1.8024
v -0.5417 0.6167997 1.9168
v -0.5174 0.6251987 1.9185
v -0.6413 0.6175997 1.8692
vt 0.2184 0.9172
vt 0.2349 0.8696
vt 0.2019 0.8875
vt 0.2871 0.8956
vt 0.2682 0.9239
vt 0.3243 0.9264
vt 0.2303 0.9642
vt 0.2729 0.9597
vt 0.1688 0.9647
vt 0.326 0.9381
vt 0.3161 0.9494
vt 0.1697 0.9092
vt 0.1265 0.962
vt 0.1092 0.9565
vt 0.123 0.9165
vt 0.1689 0.8834
vt 0.1939 0.8706
vt 0.1045 0.934
vt 0.1003 0.9459
vt 0.1446 0.8974
vt 0.7497 0.9159
vt 0.7667 0.8866
vt 0.7341 0.868
vt 0.6814 0.8929
vt 0.6997 0.9216
vt 0.6435 0.9229
vt 0.7367 0.9627
vt 0.6942 0.9572
vt 0.7982 0.9645
vt 0.6417 0.9345
vt 0.6513 0.9461
vt 0.7985 0.909
vt 0.8406 0.9626
vt 0.858 0.9576
vt 0.845 0.9173
vt 0.7998 0.8831
vt 0.775 0.8698
vt 0.8632 0.9351
vt 0.8671 0.9471
vt 0.8239 0.8977
vn 0.3876356 0.7867856 0.4803197
vn 0.6489762 0.6346725 0.4195484
vn 0.5572721 0.6185946 0.5538849
vn 0.6480662 0.679663 0.343611
vn 0.4332361 0.8297375 0.3519121
vn 0.5396058 0.798694 0.2662959
vn 0.139176 0.9141653 0.3806993
vn 0.1631456 0.9402234 0.2989373
vn 0.151315 0.8412064 0.5191102
vn 0.3914437 0.8823926 0.2610655
vn 0.2409705 0.934015 0.2637217
vn 0.3554838 0.6497509 0.671904
vn 0.2122387 0.776677 0.5930662
vn 0.2657093 0.6864741 0.6768692
vn 0.3125962 0.6140274 0.7247441
vn 0.4629004 0.5528336 0.6928912
vn 0.5419283 0.6035536 0.5848392
vn 0.2964903 0.6439564 0.7052757
vn 0.2673055 0.6249022 0.7335156
vn 0.3985585 0.5387588 0.7422197
vn -0.387666 0.7867547 0.4803458
vn -0.5568709 0.6190646 0.5537633
vn -0.648846 0.6349008 0.419404
vn -0.6481029 0.679495 0.3438737
vn -0.4332187 0.829704 0.3520126
vn -0.538268 0.7995183 0.2665298
vn -0.1392826 0.9141451 0.3807087
vn -0.1631426 0.9402218 0.2989439
vn -0.1513342 0.8411753 0.5191551
vn -0.3909377 0.8826173 0.2610639
vn -0.241653 0.9338175 0.2637965
vn -0.3555006 0.6497537 0.6718923
vn -0.212146 0.7769615 0.5927266
vn -0.2657301 0.6863573 0.6769794
vn -0.3128139 0.6137671 0.7248706
vn -0.4626822 0.5530111 0.6928953
vn -0.541145 0.6046897 0.5843906
vn -0.2965902 0.6433308 0.7058042
vn -0.2670886 0.6241249 0.734256
vn -0.3985584 0.5387591 0.7422195
g ref_12_0
f 3/3/3 2/2/2 1/1/1
f 1/1/1 2/2/2 4/4/4
f 5/5/5 1/1/1 4/4/4
f 5/5/5 4/4/4 6/6/6
f 5/5/5 7/7/7 1/1/1
f 5/5/5 8/8/8 7/7/7
f 7/7/7 9/9/9 1/1/1
f 6/6/6 10/10/10 5/5/5
f 5/5/5 10/10/10 11/11/11
f 11/11/11 8/8/8 5/5/5
f 12/12/12 3/3/3 1/1/1
f 1/1/1 13/13/13 12/12/12
f 9/9/9 13/13/13 1/1/1
f 12/12/12 13/13/13 14/14/14
f 12/12/12 14/14/14 15/15/15
f 16/16/16 3/3/3 12/12/12
f 17/17/17 2/2/2 3/3/3
f 17/17/17 3/3/3 16/16/16
f 18/18/18 15/15/15 14/14/14
f 14/14/14 19/19/19 18/18/18
f 20/20/20 12/12/12 15/15/15
f 20/20/20 16/16/16 12/12/12
f 23/23/23 22/22/22 21/21/21
f 23/23/23 21/21/21 24/24/24
f 21/21/21 25/25/25 24/24/24
f 24/24/24 25/25/25 26/26/26
f 27/27/27 25/25/25 21/21/21
f 28/28/28 25/25/25 27/27/27
f 29/29/29 27/27/27 21/21/21
f 30/30/30 26/26/26 25/25/25
f 30/30/30 25/25/25 31/31/31
f 28/28/28 31/31/31 25/25/25
f 22/22/22 32/32/32 21/21/21
f 33/33/33 21/21/21 32/32/32
f 33/33/33 29/29/29 21/21/21
f 33/33/33 32/32/32 34/34/34
f 34/34/34 32/32/32 35/35/35
f 22/22/22 36/36/36 32/32/32
f 23/23/23 37/37/37 22/22/22
f 22/22/22 37/37/37 36/36/36
f 35/35/35 38/38/38 34/34/34
f 39/39/39 34/34/34 38/38/38
f 32/32/32 40/40/40 35/35/35
f 36/36/36 40/40/40 32/32/32
