g Taillights_58
v 0.6127 0.9291993 -1.9257
v 0.631 0.7975993 -1.939
v 0.6992 0.7986993 -1.8954
v 0.6724 0.9285993 -1.888101
v 0.7472 0.8101993 -1.8093
v 0.7288 0.9265993 -1.8038
v 0.7716 0.8277993 -1.7241
v 0.7586 0.9226993 -1.7189
v 0.7839 0.8463993 -1.6638
v 0.7751 0.9202992 -1.6378
v 0.7816 0.8793992 -1.643901
v 0.4848 0.8239993 -1.9715
v 0.4612 0.9295993 -1.966401
v 0.4288 0.8654993 -1.977
v -0.6147 0.9291993 -1.9257
v -0.7012 0.7986993 -1.8954
v -0.633 0.7975993 -1.939
v -0.6744 0.9285993 -1.888101
v -0.7492 0.8101993 -1.8093
v -0.7308 0.9265993 -1.8038
v -0.7736 0.8277993 -1.7241
v -0.7606 0.9226993 -1.7189
v -0.7859 0.8463993 -1.6638
v -0.7771 0.9202992 -1.6378
v -0.7836 0.8793992 -1.643901
v -0.4868 0.8239993 -1.9715
v -0.4632 0.9295993 -1.966401
v -0.4308 0.8654993 -1.977
vt 0.6231 0.3298
vt 0.6089 0.0323
vt 0.4445 0.0338
vt 0.48 0.3298
vt 0.2643 0.0657
vt 0.2879 0.3298
vt 0.1245 0.1135
vt 0.1395 0.3298
vt 0.0337 0.1612
vt 0.0179 0.3298
vt 0.0142 0.2365
vt 0.8901 0.1007
vt 0.9229 0.3298
vt 0.9896 0.1968
vt 0.6231 0.3298
vt 0.4445 0.0338
vt 0.6089 0.0323
vt 0.48 0.3298
vt 0.2643 0.0657
vt 0.2879 0.3298
vt 0.1245 0.1135
vt 0.1395 0.3298
vt 0.0337 0.1612
vt 0.0179 0.3298
vt 0.0142 0.2365
vt 0.8901 0.1007
vt 0.9229 0.3298
vt 0.9896 0.1968
vn 0.3837685 0.1388927 -0.9129242
vn 0.4057978 0.1475863 -0.9019681
vn 0.7091238 0.1851286 -0.6803461
vn 0.6851931 0.1694613 -0.7083737
vn 0.8889952 0.1750978 -0.4231173
vn 0.8854129 0.1562404 -0.437759
vn 0.9475008 0.1512593 -0.2817141
vn 0.9506666 0.1560058 -0.2681328
vn 0.9626648 0.1630445 -0.2160852
vn 0.9646333 0.1819658 -0.1907117
vn 0.9648946 0.1816395 -0.1896985
vn 0.224843 0.1067111 -0.9685342
vn 0.2249223 0.09708178 -0.9695283
vn 0.1580168 0.08282652 -0.9839565
vn -0.3837685 0.1388926 -0.9129242
vn -0.709124 0.1851289 -0.6803458
vn -0.4057977 0.1475859 -0.9019682
vn -0.6851931 0.1694615 -0.7083736
vn -0.8889952 0.1750982 -0.4231171
vn -0.8854129 0.1562402 -0.437759
vn -0.9475008 0.1512597 -0.2817141
vn -0.9506666 0.1560056 -0.268133
vn -0.962665 0.1630441 -0.2160851
vn -0.9646335 0.1819648 -0.1907119
vn -0.9648951 0.1816396 -0.1896957
vn -0.2248429 0.1067109 -0.9685342
vn -0.2249223 0.09708179 -0.9695283
vn -0.158017 0.08282673 -0.9839565
g Taillights_58_0
f 3/3/3 2/2/2 1/1/1
f 4/4/4 3/3/3 1/1/1
f 5/5/5 3/3/3 4/4/4
f 6/6/6 5/5/5 4/4/4
f 5/5/5 6/6/6 7/7/7
f 6/6/6 8/8/8 7/7/7
f 7/7/7 8/8/8 9/9/9
f 9/9/9 8/8/8 10/10/10
f 11/11/11 9/9/9 10/10/10
f 2/2/2 12/12/12 1/1/1
f 1/1/1 12/12/12 13/13/13
f 12/12/12 14/14/14 13/13/13
f 17/17/17 16/16/16 15/15/15
f 16/16/16 18/18/18 15/15/15
f 16/16/16 19/19/19 18/18/18
f 19/19/19 20/20/20 18/18/18
f 20/20/20 19/19/19 21/21/21
f 22/22/22 20/20/20 21/21/21
f 22/22/22 21/21/21 23/23/23
f 22/22/22 23/23/23 24/24/24
f 23/23/23 25/25/25 24/24/24
f 26/26/26 17/17/17 15/15/15
f 26/26/26 15/15/15 27/27/27
f 28/28/28 26/26/26 27/27/27
