g model_car_41_matte_mirror_LOD1
v 0.7547562 0.9882306 0.4746183
v 0.7737603 0.990499 0.47235
v 0.7718319 1.026341 0.47235
v 0.7530692 1.019562 0.4746183
v 0.7478525 0.9871522 0.4758704
v 0.7465968 1.019587 0.475386
v 0.7745774 0.9753224 0.47235
v 0.859561 0.9833649 0.4661299
v 0.8587458 0.9985415 0.4661299
v 0.8743007 0.9850301 0.4643714
v 0.8615698 0.9460404 0.4661299
v 0.8760335 0.9528235 0.4643714
v 0.8734837 1.000207 0.4643714
v 0.8804166 0.9680147 0.4637555
v 0.8807621 0.9857594 0.4636002
v 0.7765057 0.9394784 0.47235
v 0.7572585 0.9417212 0.4746183
v 0.7555715 0.9730523 0.4746183
v 0.7494555 0.9449272 0.4755231
v 0.7486695 0.9719757 0.4758704
v 0.879945 1.000936 0.4636002
v 0.8717508 1.032411 0.4643714
v 0.8768359 1.02072 0.4638432
v 0.856737 1.035866 0.4661299
v -0.754755 0.9882306 0.4746183
v -0.7530698 1.019562 0.4746183
v -0.7718326 1.026341 0.47235
v -0.7737609 0.990499 0.47235
v -0.7478532 0.9871522 0.4758704
v -0.7465974 1.019587 0.475386
v -0.7745762 0.9753224 0.47235
v -0.8595616 0.9833649 0.4661299
v -0.8587445 0.9985415 0.4661299
v -0.8742995 0.9850301 0.4643714
v -0.8615704 0.9460404 0.4661299
v -0.8760322 0.9528235 0.4643714
v -0.8734843 1.000207 0.4643714
v -0.8804154 0.9680147 0.4637555
v -0.8807627 0.9857594 0.4636002
v -0.7765063 0.9394784 0.47235
v -0.7572573 0.9417212 0.4746183
v -0.7555721 0.9730523 0.4746183
v -0.7494562 0.9449272 0.4755231
v -0.7486683 0.9719757 0.4758704
v -0.8799456 1.000936 0.4636002
v -0.8717514 1.032411 0.4643714
v -0.8768365 1.02072 0.4638432
v -0.8567376 1.035866 0.4661299
vn -0.1395919 -0.009114176 -0.9901671
vn -0.09513994 -0.005276591 -0.9954499
vn -0.09258156 -0.004956797 -0.9956928
vn -0.1319167 -0.01007356 -0.9912096
vn -0.1635767 -0.01167256 -0.9864615
vn -0.1482264 -0.01423094 -0.9888511
vn -0.09513994 -0.005276591 -0.9954499
vn -0.09513994 -0.005276591 -0.9954499
vn -0.09513994 -0.005276591 -0.9954499
vn -0.1178456 -0.006235987 -0.9930124
vn -0.09194197 -0.004956797 -0.995752
vn -0.1178456 -0.006235987 -0.9930124
vn -0.1178456 -0.006235987 -0.9930124
vn -0.1178456 -0.006235987 -0.9930124
vn -0.1178456 -0.006235987 -0.9930124
vn -0.09418054 -0.004956797 -0.9955428
vn -0.1283989 -0.0039974 -0.9917145
vn -0.1399116 -0.005916193 -0.9901463
vn -0.1450284 -0.0001598299 -0.9894275
vn -0.1600589 -0.004637003 -0.9870965
vn -0.1178456 -0.006235987 -0.9930124
vn -0.1178456 -0.006235987 -0.9930124
vn -0.1178456 -0.006235987 -0.9930124
vn -0.09354095 -0.004956797 -0.9956031
vn 0.1395917 -0.009114176 -0.9901672
vn 0.1319166 -0.01007356 -0.9912096
vn 0.09258142 -0.004956797 -0.9956928
vn 0.09513981 -0.005276591 -0.99545
vn 0.1635766 -0.01167256 -0.9864616
vn 0.1482263 -0.01423094 -0.9888511
vn 0.09513981 -0.005276591 -0.99545
vn 0.09513981 -0.005276591 -0.99545
vn 0.09513981 -0.005276591 -0.99545
vn 0.1178455 -0.006235987 -0.9930124
vn 0.09194183 -0.004956797 -0.995752
vn 0.1178455 -0.006235987 -0.9930124
vn 0.1178455 -0.006235987 -0.9930124
vn 0.1178455 -0.006235987 -0.9930124
vn 0.1178455 -0.006235987 -0.9930124
vn 0.09418041 -0.004956797 -0.9955428
vn 0.1283988 -0.0039974 -0.9917146
vn 0.1399115 -0.005916193 -0.9901463
vn 0.1450283 -0.0001598299 -0.9894275
vn 0.1600588 -0.004637003 -0.9870966
vn 0.1178455 -0.006235987 -0.9930124
vn 0.1178455 -0.006235987 -0.9930124
vn 0.1178455 -0.006235987 -0.9930124
vn 0.09354082 -0.004956797 -0.9956031
g model_car_41_matte_mirror_LOD1_0
f 3/3/3 2/2/2 1/1/1
f 4/4/4 3/3/3 1/1/1
f 1/1/1 5/5/5 4/4/4
f 5/5/5 6/6/6 4/4/4
f 2/2/2 7/7/7 1/1/1
f 8/8/8 7/7/7 2/2/2
f 9/9/9 8/8/8 2/2/2
f 8/8/8 9/9/9 10/10/10
f 8/8/8 10/10/10 11/11/11
f 10/10/10 12/12/12 11/11/11
f 9/9/9 13/13/13 10/10/10
f 14/14/14 12/12/12 10/10/10
f 15/15/15 14/14/14 10/10/10
f 10/10/10 13/13/13 15/15/15
f 16/16/16 7/7/7 8/8/8
f 11/11/11 16/16/16 8/8/8
f 7/7/7 16/16/16 17/17/17
f 18/18/18 7/7/7 17/17/17
f 17/17/17 19/19/19 18/18/18
f 19/19/19 20/20/20 18/18/18
f 20/20/20 5/5/5 18/18/18
f 13/13/13 21/21/21 15/15/15
f 21/21/21 13/13/13 22/22/22
f 13/13/13 9/9/9 22/22/22
f 23/23/23 21/21/21 22/22/22
f 9/9/9 24/24/24 22/22/22
f 24/24/24 9/9/9 2/2/2
f 3/3/3 24/24/24 2/2/2
f 7/7/7 18/18/18 1/1/1
f 5/5/5 1/1/1 18/18/18
f 27/27/27 26/26/26 25/25/25
f 28/28/28 27/27/27 25/25/25
f 29/29/29 25/25/25 26/26/26
f 30/30/30 29/29/29 26/26/26
f 31/31/31 28/28/28 25/25/25
f 31/31/31 32/32/32 28/28/28
f 32/32/32 33/33/33 28/28/28
f 33/33/33 32/32/32 34/34/34
f 34/34/34 32/32/32 35/35/35
f 36/36/36 34/34/34 35/35/35
f 37/37/37 33/33/33 34/34/34
f 36/36/36 38/38/38 34/34/34
f 38/38/38 39/39/39 34/34/34
f 37/37/37 34/34/34 39/39/39
f 40/40/40 35/35/35 32/32/32
f 31/31/31 40/40/40 32/32/32
f 40/40/40 31/31/31 41/41/41
f 31/31/31 42/42/42 41/41/41
f 43/43/43 41/41/41 42/42/42
f 44/44/44 43/43/43 42/42/42
f 29/29/29 44/44/44 42/42/42
f 45/45/45 37/37/37 39/39/39
f 37/37/37 45/45/45 46/46/46
f 33/33/33 37/37/37 46/46/46
f 45/45/45 47/47/47 46/46/46
f 48/48/48 33/33/33 46/46/46
f 33/33/33 48/48/48 28/28/28
f 48/48/48 27/27/27 28/28/28
f 42/42/42 31/31/31 25/25/25
f 25/25/25 29/29/29 42/42/42
