g model_car_104_matte_mirror_LOD1
v 0.9699293 0.9535763 0.2562339
v 0.9594769 1.030077 0.2784882
v 0.9544265 0.9485103 0.26083
v 0.9852671 0.9671763 0.253397
v 0.98517 1.016984 0.2652863
v 0.9953447 1.005724 0.2583601
v 0.9544265 0.9485103 0.26083
v 0.9594769 1.030077 0.2784882
v 0.9109179 1.040714 0.2978124
v 0.8621511 0.9574986 0.2948435
v 0.8696909 1.03398 0.3104803
v 0.8529706 0.9684151 0.3005269
v -0.9699296 0.9535763 0.2562339
v -0.9544268 0.9485103 0.26083
v -0.9594772 1.030077 0.2784882
v -0.9852675 0.9671763 0.253397
v -0.9851703 1.016984 0.2652863
v -0.9953451 1.005724 0.2583601
v -0.9544268 0.9485103 0.26083
v -0.8621514 0.9574986 0.2948435
v -0.9109183 1.040714 0.2978124
v -0.9594772 1.030077 0.2784882
v -0.8696912 1.03398 0.3104803
v -0.8529709 0.9684151 0.3005269
vn -0.3506572 0.2163587 -0.9111688
vn -0.3230616 0.2200381 -0.9204425
vn -0.3212219 0.2200381 -0.9210861
vn -0.358016 0.2163587 -0.9083025
vn -0.3598557 0.2163587 -0.9075752
vn -0.376413 0.214519 -0.901274
vn -0.3212219 0.2200381 -0.9210861
vn -0.3230616 0.2200381 -0.9204425
vn -0.3193821 0.2200381 -0.9217257
vn -0.3175425 0.2200381 -0.9223611
vn 0.3373923 -0.9040213 -0.2625107
vn -0.06550294 0.9779964 -0.1980716
vn 0.35211 0.2163587 -0.9106083
vn 0.320835 0.2200381 -0.921221
vn 0.3226747 0.2200381 -0.9205782
vn 0.3576291 0.2163587 -0.9084549
vn 0.3594688 0.2163587 -0.9077286
vn 0.3760262 0.214519 -0.9014355
vn 0.320835 0.2200381 -0.921221
vn 0.3189953 0.2200381 -0.9218596
vn 0.3189953 0.2200381 -0.9218596
vn 0.3226747 0.2200381 -0.9205782
vn -0.3359395 -0.9040213 -0.2643674
vn 0.06511605 0.9779964 -0.1981992
g model_car_104_matte_mirror_LOD1_0
f 3/3/3 2/2/2 1/1/1
f 1/1/1 2/2/2 4/4/4
f 2/2/2 5/5/5 4/4/4
f 5/5/5 6/6/6 4/4/4
f 9/9/9 8/8/8 7/7/7
f 10/10/10 9/9/9 7/7/7
f 9/9/9 10/10/10 11/11/11
f 10/10/10 12/12/12 11/11/11
f 15/15/15 14/14/14 13/13/13
f 15/15/15 13/13/13 16/16/16
f 17/17/17 15/15/15 16/16/16
f 18/18/18 17/17/17 16/16/16
f 21/21/21 20/20/20 19/19/19
f 22/22/22 21/21/21 19/19/19
f 20/20/20 21/21/21 23/23/23
f 24/24/24 20/20/20 23/23/23
