g ref_16
v 0.4212 0.6486996 2.0494
v 0.4338 0.6370996 2.0455
v 0.4247 0.6397997 2.0494
v 0.4493 0.6934996 2.0207
v 0.4941 0.6383997 2.0147
v 0.4921 0.6919987 1.9984
v 0.5911 0.6906997 1.9396
v 0.4953 0.7316997 1.9733
v 0.4696 0.7227997 1.9956
v 0.5924 0.6410997 1.9584
v 0.713 0.6476997 1.8792
v 0.5894 0.7390997 1.8999
v 0.6783 0.6892997 1.876
v 0.7177 0.6887997 1.8458
v 0.6984 0.7394997 1.81
v 0.7191 0.7359997 1.7989
v -0.4212 0.6486996 2.0494
v -0.4247 0.6397997 2.0494
v -0.4338 0.6370996 2.0455
v -0.4493 0.6934996 2.0207
v -0.4941 0.6383997 2.0147
v -0.4921 0.6919987 1.9984
v -0.5911 0.6906997 1.9396
v -0.4953 0.7316997 1.9733
v -0.4696 0.7227997 1.9956
v -0.5924 0.6410997 1.9584
v -0.713 0.6476997 1.8792
v -0.5894 0.7390997 1.8999
v -0.6783 0.6892997 1.876
v -0.7177 0.6887997 1.8458
v -0.6984 0.7394997 1.81
v -0.7191 0.7359997 1.7989
vt 1 1
vt 1 1
vt 1 1
vt 1 1
vt 1 1
vt 1 1
vt 1 1
vt 1 1
vt 1 1
vt 1 1
vt 1 1
vt 1 1
vt 1 1
vt 1 1
vt 1 1
vt 1 1
vt 1 1
vt 1 1
vt 1 1
vt 1 1
vt 1 1
vt 1 1
vt 1 1
vt 1 1
vt 1 1
vt 1 1
vt 1 1
vt 1 1
vt 1 1
vt 1 1
vt 1 1
vt 1 1
vn 0.4693547 0.2225416 0.8545065
vn 0.4545353 0.2360505 0.8588817
vn 0.430249 0.1691901 0.8867133
vn 0.4451734 0.2994817 0.8438788
vn 0.4624873 0.2751635 0.8428467
vn 0.4706397 0.34923 0.8102695
vn 0.4927137 0.4427535 0.7491345
vn 0.4775171 0.466092 0.7448058
vn 0.4702347 0.4143388 0.7792321
vn 0.4831807 0.3213527 0.8144132
vn 0.5251086 0.4622795 0.7145339
vn 0.4904506 0.5731523 0.6564714
vn 0.5114314 0.5471606 0.6626109
vn 0.4972454 0.5783707 0.6467103
vn 0.4720858 0.6179175 0.6287392
vn 0.4488254 0.6231343 0.6405149
vn -0.4693522 0.222541 0.854508
vn -0.430249 0.1691901 0.8867133
vn -0.4545338 0.2360501 0.8588826
vn -0.445173 0.2994817 0.843879
vn -0.4624873 0.2751635 0.8428467
vn -0.4706397 0.34923 0.8102695
vn -0.4927136 0.4427535 0.7491346
vn -0.4775171 0.466092 0.7448058
vn -0.4702347 0.4143388 0.7792321
vn -0.4831807 0.3213527 0.8144132
vn -0.5251086 0.4622794 0.7145339
vn -0.4904506 0.5731523 0.6564714
vn -0.5114315 0.5471606 0.6626109
vn -0.4972455 0.5783707 0.6467103
vn -0.4720858 0.6179174 0.6287392
vn -0.4488254 0.6231343 0.6405149
g ref_16_0
f 3/3/3 2/2/2 1/1/1
f 1/1/1 2/2/2 4/4/4
f 2/2/2 5/5/5 4/4/4
f 4/4/4 5/5/5 6/6/6
f 7/7/7 6/6/6 5/5/5
f 7/7/7 8/8/8 6/6/6
f 6/6/6 9/9/9 4/4/4
f 8/8/8 9/9/9 6/6/6
f 10/10/10 7/7/7 5/5/5
f 7/7/7 10/10/10 11/11/11
f 12/12/12 8/8/8 7/7/7
f 13/13/13 12/12/12 7/7/7
f 13/13/13 7/7/7 11/11/11
f 14/14/14 13/13/13 11/11/11
f 15/15/15 13/13/13 14/14/14
f 15/15/15 12/12/12 13/13/13
f 16/16/16 15/15/15 14/14/14
f 19/19/19 18/18/18 17/17/17
f 17/17/17 20/20/20 19/19/19
f 21/21/21 19/19/19 20/20/20
f 21/21/21 20/20/20 22/22/22
f 22/22/22 23/23/23 21/21/21
f 24/24/24 23/23/23 22/22/22
f 25/25/25 22/22/22 20/20/20
f 25/25/25 24/24/24 22/22/22
f 23/23/23 26/26/26 21/21/21
f 26/26/26 23/23/23 27/27/27
f 24/24/24 28/28/28 23/23/23
f 28/28/28 29/29/29 23/23/23
f 23/23/23 29/29/29 27/27/27
f 29/29/29 30/30/30 27/27/27
f 29/29/29 31/31/31 30/30/30
f 28/28/28 31/31/31 29/29/29
f 31/31/31 32/32/32 30/30/30
