g model_car_16_matte_detail_LOD1
v 0.2499884 0.4093926 1.949181
v 0.3251756 0.4095587 1.905545
v 0.3251756 0.3033568 1.926643
v 0.2499884 0.3033568 1.973939
v 0.3251756 0.678493 1.857307
v 0.2499884 0.6784337 1.894435
v 0.3251756 0.947095 1.811997
v 0.2499884 0.9469384 1.84408
v 0.1587076 0.9466988 1.885492
v 0.1587076 0.6783435 1.9424
v 0.07303262 0.678232 1.991201
v 0.07303262 0.4088182 2.063865
v 0.1587076 0.4091386 2.006077
v 0.01466048 0.4084551 2.110176
v 0.07303262 0.3031764 2.099584
v 0.01466048 0.3030625 2.150924
v 3.874302E-07 0.3030245 2.163443
v 3.874302E-07 0.4083293 2.121335
v 0.01466048 0.6781062 2.030833
v 0.07303262 0.9464045 1.928127
v 0.01466048 0.9460816 1.963879
v 3.874302E-07 0.6780634 2.040604
v 3.874302E-07 0.9459724 1.973123
v 0.1587076 1.036968 1.870808
v 0.07303262 1.036859 1.912679
v 0.01466048 1.036741 1.948241
v 3.874302E-07 1.0367 1.957599
v 0.1587076 0.3032761 2.03609
v -0.01466206 0.9460816 1.963879
v -0.01466206 0.6781062 2.030833
v -0.0730342 0.9464045 1.928127
v -0.0730342 0.678232 1.991201
v -0.01466206 0.4084551 2.110176
v -0.0730342 0.4088182 2.063865
v -0.1587092 0.6783435 1.9424
v -0.1587092 0.4091386 2.006077
v -0.0730342 0.3031764 2.099584
v -0.01466206 0.3030625 2.150924
v 3.874302E-07 0.3030245 2.163443
v -0.1587092 0.9466988 1.885492
v -0.24999 0.6784337 1.894435
v -0.24999 0.9469384 1.84408
v -0.3251748 0.947095 1.811997
v -0.3251748 0.678493 1.857307
v -0.24999 0.4093926 1.949181
v -0.3251748 0.4095587 1.905545
v -0.3251748 0.3033568 1.926643
v -0.24999 0.3033568 1.973939
v -0.3251748 1.031313 1.799926
v -0.24999 1.037056 1.830365
v -0.1587092 1.036968 1.870808
v -0.0730342 1.036859 1.912679
v -0.01466206 1.036741 1.948241
v 3.874302E-07 1.0367 1.957599
v -0.1587092 0.3032761 2.03609
v 0.3251756 1.031313 1.799926
v 0.2499884 1.037056 1.830365
vt 1.861599 0.2077638
vt 1.964794 0.2218889
vt 1.969518 0.09273002
vt 1.864588 0.07773796
vt 1.951686 0.5495021
vt 1.851061 0.5381123
vt 1.94209 0.8788341
vt 1.843543 0.869537
vt 1.722321 0.8578184
vt 1.726715 0.5231352
vt 1.607152 0.5074556
vt 1.610889 0.168079
vt 1.733845 0.1887211
vt 1.521953 0.1500676
vt 1.610515 0.03512345
vt 1.521639 0.01498954
vt 1.499996 0.01037085
vt 1.499996 0.1452695
vt 1.521355 0.4942871
vt 1.605777 0.8462343
vt 1.52143 0.8367727
vt 1.499996 0.4907894
vt 1.499996 0.8339776
vt 1.719869 0.9689808
vt 1.604731 0.9587121
vt 1.521714 0.9513431
vt 1.499996 0.9502071
vt 1.734712 0.05742469
vt 1.478576 0.8367727
vt 1.478651 0.4942871
vt 1.394229 0.8462343
vt 1.392854 0.5074556
vt 1.478053 0.1500676
vt 1.389117 0.168079
vt 1.273276 0.5231352
vt 1.266161 0.1887211
vt 1.389476 0.03512345
vt 1.478367 0.01498954
vt 1.499996 0.01037085
vt 1.277686 0.8578184
vt 1.14893 0.5381123
vt 1.156464 0.869537
vt 1.057917 0.8788341
vt 1.048321 0.5495021
vt 1.138393 0.2077638
vt 1.035197 0.2218889
vt 1.030489 0.09273002
vt 1.135418 0.07773796
vt 1.061474 0.9817009
vt 1.159827 0.9799371
vt 1.280137 0.9689808
vt 1.395261 0.9587121
vt 1.478292 0.9513431
vt 1.499996 0.9502071
vt 1.26528 0.05742469
vt 1.938532 0.9817009
vt 1.840165 0.9799371
vn 0.4992646 0.1870015 0.8460291
vn 0.4862042 0.1739411 0.8563585
vn 0.5087631 0.1822523 0.8413942
vn 0.5218235 0.1976873 0.8298313
vn 0.4387117 0.1632553 0.883674
vn 0.4505849 0.1727538 0.8758593
vn 0.3983431 0.1466329 0.90544
vn 0.4090289 0.1537568 0.8994744
vn 0.4339625 0.1644426 0.8857964
vn 0.4755184 0.1917508 0.8585533
vn 0.5218235 0.2059985 0.8278072
vn 0.5681287 0.2356813 0.7884694
vn 0.5241982 0.2131224 0.8244969
vn 0.5906876 0.253491 0.7660486
vn 0.5930623 0.2582402 0.7626199
vn 0.60731 0.2819865 0.742737
vn -0.0005936027 0.3662856 0.9305023
vn -0.0005936027 0.3306662 0.9437476
vn 0.5515063 0.215497 0.8058547
vn 0.4862042 0.1715665 0.8568375
vn 0.5277601 0.1739411 0.8313926
vn -0.0005936027 0.2653641 0.9641481
vn -0.0005936027 0.2095605 0.9777955
vn 0.4209021 0.1454456 0.8953698
vn 0.4743311 0.1466329 0.8680488
vn 0.5218235 0.1442583 0.8407674
vn -0.0005936027 0.1691918 0.9855829
vn 0.5479444 0.2309321 0.804007
vn -0.52776 0.1739411 0.8313928
vn -0.5515062 0.215497 0.8058547
vn -0.4862041 0.1715665 0.8568375
vn -0.5218235 0.2059985 0.8278072
vn -0.5906875 0.253491 0.7660487
vn -0.5681285 0.2356813 0.7884696
vn -0.4755183 0.1917508 0.8585535
vn -0.524198 0.2131224 0.824497
vn -0.5930621 0.2582402 0.76262
vn -0.6073099 0.2819865 0.7427371
vn -0.0005936027 0.3662856 0.9305023
vn -0.4339624 0.1644426 0.8857964
vn -0.4505847 0.1727538 0.8758593
vn -0.4090288 0.1537568 0.8994744
vn -0.398343 0.1466329 0.90544
vn -0.4387116 0.1632553 0.8836741
vn -0.4992645 0.1870015 0.8460292
vn -0.4862041 0.1739411 0.8563586
vn -0.508763 0.1822523 0.8413942
vn -0.5218235 0.1976873 0.8298313
vn -0.3840953 0.1347598 0.9134061
vn -0.3947811 0.1383218 0.9083034
vn -0.420902 0.1454456 0.8953698
vn -0.474331 0.1466329 0.8680489
vn -0.5218235 0.1442583 0.8407674
vn -0.0005936027 0.1691918 0.9855829
vn -0.5479442 0.2309321 0.8040072
vn 0.3840954 0.1347598 0.913406
vn 0.3947812 0.1383218 0.9083033
g model_car_16_matte_detail_LOD1_0
f 3/3/3 2/2/2 1/1/1
f 4/4/4 3/3/3 1/1/1
f 1/1/1 2/2/2 5/5/5
f 6/6/6 1/1/1 5/5/5
f 6/6/6 5/5/5 7/7/7
f 8/8/8 6/6/6 7/7/7
f 6/6/6 8/8/8 9/9/9
f 10/10/10 6/6/6 9/9/9
f 1/1/1 6/6/6 10/10/10
f 11/11/11 10/10/10 9/9/9
f 11/11/11 12/12/12 10/10/10
f 12/12/12 13/13/13 10/10/10
f 13/13/13 1/1/1 10/10/10
f 14/14/14 12/12/12 11/11/11
f 15/15/15 12/12/12 14/14/14
f 13/13/13 12/12/12 15/15/15
f 16/16/16 15/15/15 14/14/14
f 17/17/17 16/16/16 14/14/14
f 18/18/18 17/17/17 14/14/14
f 19/19/19 14/14/14 11/11/11
f 18/18/18 14/14/14 19/19/19
f 19/19/19 11/11/11 20/20/20
f 20/20/20 11/11/11 9/9/9
f 21/21/21 19/19/19 20/20/20
f 22/22/22 19/19/19 21/21/21
f 22/22/22 18/18/18 19/19/19
f 23/23/23 22/22/22 21/21/21
f 20/20/20 9/9/9 24/24/24
f 25/25/25 20/20/20 24/24/24
f 21/21/21 20/20/20 25/25/25
f 26/26/26 21/21/21 25/25/25
f 23/23/23 21/21/21 26/26/26
f 27/27/27 23/23/23 26/26/26
f 28/28/28 13/13/13 15/15/15
f 1/1/1 13/13/13 28/28/28
f 4/4/4 1/1/1 28/28/28
f 22/22/22 23/23/23 29/29/29
f 30/30/30 22/22/22 29/29/29
f 18/18/18 22/22/22 30/30/30
f 30/30/30 29/29/29 31/31/31
f 32/32/32 30/30/30 31/31/31
f 33/33/33 30/30/30 32/32/32
f 34/34/34 33/33/33 32/32/32
f 34/34/34 32/32/32 35/35/35
f 36/36/36 34/34/34 35/35/35
f 34/34/34 37/37/37 33/33/33
f 34/34/34 36/36/36 37/37/37
f 37/37/37 38/38/38 33/33/33
f 38/38/38 39/39/39 33/33/33
f 39/39/39 18/18/18 33/33/33
f 33/33/33 18/18/18 30/30/30
f 32/32/32 31/31/31 40/40/40
f 35/35/35 32/32/32 40/40/40
f 41/41/41 35/35/35 40/40/40
f 42/42/42 41/41/41 40/40/40
f 41/41/41 42/42/42 43/43/43
f 44/44/44 41/41/41 43/43/43
f 45/45/45 41/41/41 44/44/44
f 45/45/45 36/36/36 35/35/35
f 41/41/41 45/45/45 35/35/35
f 46/46/46 45/45/45 44/44/44
f 46/46/46 47/47/47 45/45/45
f 47/47/47 48/48/48 45/45/45
f 43/43/43 42/42/42 49/49/49
f 42/42/42 50/50/50 49/49/49
f 42/42/42 40/40/40 50/50/50
f 40/40/40 51/51/51 50/50/50
f 40/40/40 31/31/31 51/51/51
f 31/31/31 52/52/52 51/51/51
f 31/31/31 29/29/29 52/52/52
f 29/29/29 53/53/53 52/52/52
f 29/29/29 23/23/23 53/53/53
f 23/23/23 54/54/54 53/53/53
f 45/45/45 48/48/48 55/55/55
f 36/36/36 45/45/45 55/55/55
f 36/36/36 55/55/55 37/37/37
f 8/8/8 7/7/7 56/56/56
f 57/57/57 8/8/8 56/56/56
f 9/9/9 8/8/8 57/57/57
f 24/24/24 9/9/9 57/57/57
