g model_car_95_matte_tile_LOD1
v 0.5123793 0.4181792 2.013216
v 0.5125091 0.3045246 1.988303
v 0.4325511 0.3045246 2.025385
v 0.4326047 0.4181792 2.049629
v 0.3447931 0.3045246 2.05887
v 0.3411568 0.4181792 2.082603
v 0.5144105 0.4859393 2.02637
v 0.4375555 0.4859393 2.061982
v 0.2538642 0.3045246 2.085509
v 0.2533451 0.4181792 2.108009
v 0.1137458 0.3045246 2.120433
v 0.1155936 0.4181792 2.140981
v 0.2493958 0.4859393 2.122481
v 0.3447705 0.4859393 2.094446
v 0.1132494 0.2737984 2.114875
v 0.2553283 0.2737984 2.079181
v 8.34465E-07 0.3045246 2.133872
v 8.34465E-07 0.4181792 2.157038
v 8.34465E-07 0.2737984 2.127609
v 0.3452726 0.2737984 2.052822
v 0.430283 0.2737984 2.019845
v 0.5121255 0.2737984 1.982249
v 0.5903119 0.3045302 1.939791
v 0.5872399 0.2737984 1.935001
v 0.1166937 0.4859393 2.153235
v 8.34465E-07 0.4859393 2.170849
v 0.583014 0.4181849 1.969468
v 0.5790646 0.4859393 1.987962
v 0.6545317 0.4859393 1.932154
v 0.6635165 0.418405 1.907981
v 0.7622256 0.4859393 1.841093
v 0.7871659 0.4204078 1.790253
v 0.6837825 0.3045838 1.871551
v 0.7742176 0.3064795 1.775875
v 0.7408594 0.2737984 1.816765
v 0.6797202 0.2737984 1.868744
v -0.5123777 0.4181792 2.013216
v -0.4326058 0.4181792 2.049629
v -0.4325494 0.3045246 2.025385
v -0.5125102 0.3045246 1.988303
v -0.3447914 0.3045246 2.05887
v -0.3411579 0.4181792 2.082603
v -0.5144115 0.4859393 2.02637
v -0.4375566 0.4859393 2.061982
v -0.2538653 0.3045246 2.085509
v -0.2533463 0.4181792 2.108009
v -0.1137469 0.3045246 2.120433
v -0.1155947 0.4181792 2.140981
v -0.2493969 0.4859393 2.122481
v -0.3447687 0.4859393 2.094446
v -0.1132476 0.2737984 2.114875
v -0.2553294 0.2737984 2.079181
v -0.3452737 0.2737984 2.052822
v -0.4302841 0.2737984 2.019845
v -0.5121265 0.2737984 1.982249
v -0.5903102 0.3045302 1.939791
v -0.587241 0.2737984 1.935001
v -0.1166949 0.4859393 2.153235
v -0.5830151 0.4181849 1.969468
v -0.5790657 0.4859393 1.987962
v -0.6545299 0.4859393 1.932154
v -0.6635175 0.418405 1.907981
v -0.7622268 0.4859393 1.841093
v -0.787167 0.4204078 1.790253
v -0.6837836 0.3045838 1.871551
v -0.7742187 0.3064795 1.775875
v -0.7408605 0.2737984 1.816765
v -0.6797213 0.2737984 1.868744
vn 0.4612528 -0.1884763 0.8670194
vn 0.4681065 -0.1871055 0.8636364
vn 0.3776379 -0.189847 0.9062824
vn 0.3707842 -0.189847 0.9091079
vn 0.3104718 -0.1871055 0.9319865
vn 0.3049889 -0.1871055 0.9337952
vn 0.4585114 -0.189847 0.8681737
vn 0.3680427 -0.1871055 0.9107887
vn 0.2515301 -0.1829934 0.9503926
vn 0.2487887 -0.1843641 0.9508492
vn 0.1857348 -0.1857348 0.9648861
vn 0.1857348 -0.1857348 0.9648861
vn 0.2446765 -0.1829934 0.9521801
vn 0.3022474 -0.1843641 0.9352307
vn 0.1843641 -0.1843641 0.9654117
vn 0.2542716 -0.1816226 0.9499259
vn -0.0006853342 -0.189847 0.9818134
vn -0.0006853342 -0.189847 0.9818134
vn -0.0006853342 -0.189847 0.9818134
vn 0.3159548 -0.1829934 0.9309598
vn 0.3817501 -0.1843641 0.9056913
vn 0.470848 -0.1816226 0.8633165
vn 0.5613166 -0.169286 0.8101024
vn 0.5544629 -0.1706567 0.8145227
vn 0.1857348 -0.1857348 0.9648861
vn -0.0006853342 -0.189847 0.9818134
vn 0.5558336 -0.1775104 0.8121201
vn 0.5503507 -0.189847 0.8130635
vn 0.6229997 -0.215891 0.7518393
vn 0.6408193 -0.1775104 0.7468873
vn 0.6517852 -0.2391935 0.7196961
vn 0.6887951 -0.1624323 0.7065247
vn 0.6627511 -0.1295346 0.7375512
vn 0.7011317 -0.1240517 0.7021577
vn 0.6970195 0.01850492 0.7168133
vn 0.6380779 -0.0801881 0.7657849
vn -0.4612528 -0.1884763 0.8670194
vn -0.3707842 -0.189847 0.9091079
vn -0.3776379 -0.189847 0.9062824
vn -0.4681065 -0.1871055 0.8636364
vn -0.3104718 -0.1871055 0.9319865
vn -0.3049889 -0.1871055 0.9337952
vn -0.4585114 -0.189847 0.8681737
vn -0.3680427 -0.1871055 0.9107887
vn -0.2515301 -0.1829934 0.9503926
vn -0.2487887 -0.1843641 0.9508492
vn -0.1857347 -0.1857348 0.9648861
vn -0.1857347 -0.1857348 0.9648861
vn -0.2446764 -0.1829934 0.9521801
vn -0.3022474 -0.1843641 0.9352307
vn -0.184364 -0.1843641 0.9654117
vn -0.2542716 -0.1816226 0.9499259
vn -0.3159547 -0.1829934 0.9309598
vn -0.3817501 -0.1843641 0.9056913
vn -0.470848 -0.1816226 0.8633165
vn -0.5613166 -0.169286 0.8101024
vn -0.5544629 -0.1706567 0.8145227
vn -0.1857347 -0.1857348 0.9648861
vn -0.5558336 -0.1775104 0.8121201
vn -0.5503507 -0.189847 0.8130635
vn -0.6229997 -0.215891 0.7518394
vn -0.6408193 -0.1775104 0.7468873
vn -0.6517851 -0.2391935 0.7196962
vn -0.6887951 -0.1624323 0.7065247
vn -0.6627511 -0.1295346 0.7375512
vn -0.7011317 -0.1240517 0.7021577
vn -0.6970195 0.01850492 0.7168134
vn -0.6380777 -0.0801881 0.765785
g model_car_95_matte_tile_LOD1_0
f 3/3/3 2/2/2 1/1/1
f 4/4/4 3/3/3 1/1/1
f 3/3/3 4/4/4 5/5/5
f 4/4/4 6/6/6 5/5/5
f 4/4/4 1/1/1 7/7/7
f 8/8/8 4/4/4 7/7/7
f 4/4/4 8/8/8 6/6/6
f 9/9/9 5/5/5 6/6/6
f 10/10/10 9/9/9 6/6/6
f 11/11/11 9/9/9 10/10/10
f 12/12/12 11/11/11 10/10/10
f 13/13/13 10/10/10 6/6/6
f 14/14/14 13/13/13 6/6/6
f 8/8/8 14/14/14 6/6/6
f 9/9/9 11/11/11 15/15/15
f 16/16/16 9/9/9 15/15/15
f 5/5/5 9/9/9 16/16/16
f 17/17/17 11/11/11 12/12/12
f 18/18/18 17/17/17 12/12/12
f 19/19/19 15/15/15 11/11/11
f 17/17/17 19/19/19 11/11/11
f 20/20/20 5/5/5 16/16/16
f 5/5/5 20/20/20 21/21/21
f 3/3/3 5/5/5 21/21/21
f 3/3/3 21/21/21 2/2/2
f 21/21/21 22/22/22 2/2/2
f 2/2/2 22/22/22 23/23/23
f 22/22/22 24/24/24 23/23/23
f 12/12/12 25/25/25 18/18/18
f 25/25/25 26/26/26 18/18/18
f 1/1/1 2/2/2 23/23/23
f 27/27/27 1/1/1 23/23/23
f 1/1/1 27/27/27 7/7/7
f 27/27/27 28/28/28 7/7/7
f 29/29/29 28/28/28 27/27/27
f 30/30/30 29/29/29 27/27/27
f 27/27/27 23/23/23 30/30/30
f 25/25/25 12/12/12 10/10/10
f 13/13/13 25/25/25 10/10/10
f 31/31/31 29/29/29 30/30/30
f 32/32/32 31/31/31 30/30/30
f 30/30/30 33/33/33 32/32/32
f 23/23/23 33/33/33 30/30/30
f 33/33/33 34/34/34 32/32/32
f 34/34/34 33/33/33 35/35/35
f 33/33/33 36/36/36 35/35/35
f 36/36/36 33/33/33 23/23/23
f 24/24/24 36/36/36 23/23/23
f 39/39/39 38/38/38 37/37/37
f 40/40/40 39/39/39 37/37/37
f 38/38/38 39/39/39 41/41/41
f 42/42/42 38/38/38 41/41/41
f 37/37/37 38/38/38 43/43/43
f 38/38/38 44/44/44 43/43/43
f 44/44/44 38/38/38 42/42/42
f 41/41/41 45/45/45 42/42/42
f 45/45/45 46/46/46 42/42/42
f 45/45/45 47/47/47 46/46/46
f 47/47/47 48/48/48 46/46/46
f 46/46/46 49/49/49 42/42/42
f 49/49/49 50/50/50 42/42/42
f 50/50/50 44/44/44 42/42/42
f 47/47/47 45/45/45 51/51/51
f 45/45/45 52/52/52 51/51/51
f 45/45/45 41/41/41 52/52/52
f 47/47/47 17/17/17 48/48/48
f 17/17/17 18/18/18 48/48/48
f 19/19/19 17/17/17 47/47/47
f 51/51/51 19/19/19 47/47/47
f 41/41/41 53/53/53 52/52/52
f 53/53/53 41/41/41 54/54/54
f 41/41/41 39/39/39 54/54/54
f 54/54/54 39/39/39 40/40/40
f 55/55/55 54/54/54 40/40/40
f 55/55/55 40/40/40 56/56/56
f 57/57/57 55/55/55 56/56/56
f 58/58/58 48/48/48 18/18/18
f 26/26/26 58/58/58 18/18/18
f 40/40/40 37/37/37 56/56/56
f 37/37/37 59/59/59 56/56/56
f 59/59/59 37/37/37 43/43/43
f 60/60/60 59/59/59 43/43/43
f 60/60/60 61/61/61 59/59/59
f 61/61/61 62/62/62 59/59/59
f 56/56/56 59/59/59 62/62/62
f 61/61/61 63/63/63 62/62/62
f 63/63/63 64/64/64 62/62/62
f 65/65/65 62/62/62 64/64/64
f 65/65/65 56/56/56 62/62/62
f 66/66/66 65/65/65 64/64/64
f 65/65/65 66/66/66 67/67/67
f 68/68/68 65/65/65 67/67/67
f 68/68/68 57/57/57 56/56/56
f 65/65/65 68/68/68 56/56/56
f 58/58/58 49/49/49 46/46/46
f 48/48/48 58/58/58 46/46/46
