g Glass_3
v 0.3580184 1.185978 0.6638689
v -5.345408E-07 1.282598 0.4611027
v 0.3276719 1.277785 0.4498694
v -5.345422E-07 1.282575 0.4611569
v 0.7034054 1.169931 0.604435
v 0.6570457 1.260921 0.4247602
v 0.7575621 1.056027 0.804415
v 0.3958473 1.052719 0.9103163
v 0.8198959 0.9273767 1.018105
v 0.6185232 0.9181675 1.097422
v 0.3792459 0.9068127 1.156373
v -5.455386E-07 1.059059 0.9414995
v -5.45538E-07 1.059094 0.9414411
v -5.410138E-07 1.191128 0.6887082
v -5.410129E-07 1.191159 0.6886516
v -5.480532E-07 0.9155291 1.178429
v 0.2661732 1.275047 -0.9329172
v 0.2661735 1.165593 -1.264473
v 0.5503981 1.156833 -1.212039
v 0.5453863 1.040382 -1.535921
v 0.5551544 1.25717 -0.9046595
v 0.2661735 1.039535 -1.613829
v -4.145508E-07 1.170976 -1.272834
v -3.813999E-07 1.046396 -1.62298
v -4.145621E-07 1.171018 -1.272716
v -4.451342E-07 1.279073 -0.9404107
v -4.451446E-07 1.27911 -0.9402986
v 0.6800483 1.233463 0.2412695
v 0.6650058 1.23849 -0.434443
v 0.8124151 0.9626816 0.2592384
v 0.8097683 0.9570686 0.6369475
v 0.7991222 0.9752811 -0.4044646
v 0.7380258 1.107825 0.6273159
v 0.6688219 1.23849 -0.4481196
v 0.675045 1.195653 -0.727566
v 0.800477 0.9801115 -0.417179
v 0.7397504 1.052321 -0.8785713
v -0.3580192 1.185978 0.6638689
v -5.345408E-07 1.282598 0.4611027
v -5.345422E-07 1.282575 0.4611569
v -0.3276728 1.277785 0.4498693
v -0.7034064 1.16993 0.6044349
v -0.6570468 1.260921 0.4247601
v -0.7575632 1.056027 0.8044149
v -0.3958484 1.052718 0.9103163
v -0.8198971 0.9273766 1.018105
v -0.6185241 0.9181674 1.097421
v -0.379247 0.9068127 1.156373
v -5.455386E-07 1.059059 0.9414995
v -5.45538E-07 1.059094 0.9414411
v -5.410138E-07 1.191128 0.6887082
v -5.410129E-07 1.191159 0.6886516
v -5.480532E-07 0.9155291 1.178429
v -0.2661741 1.275047 -0.9329174
v -0.550399 1.156833 -1.212039
v -0.2661743 1.165593 -1.264473
v -0.5453871 1.040382 -1.535922
v -0.5551554 1.25717 -0.9046595
v -0.2661743 1.039534 -1.613829
v -4.145508E-07 1.170976 -1.272834
v -3.813999E-07 1.046396 -1.62298
v -4.145621E-07 1.171018 -1.272716
v -4.451342E-07 1.279073 -0.9404107
v -4.451446E-07 1.27911 -0.9402986
v -0.6800495 1.233463 0.2412694
v -0.8124163 0.9626813 0.2592382
v -0.6650068 1.23849 -0.4344431
v -0.8097692 0.9570684 0.6369473
v -0.7991232 0.9752809 -0.4044647
v -0.738027 1.107825 0.6273158
v -0.6688228 1.23849 -0.4481196
v -0.8004779 0.9801114 -0.4171792
v -0.6750458 1.195653 -0.7275661
v -0.7397513 1.052321 -0.8785714
vt 0.5957775 0.3064702
vt 0.4186918 0.4091431
vt 0.5770148 0.4189165
vt 0.4186929 0.4091146
vt 0.7652912 0.3360268
vt 0.7381217 0.4326765
vt 0.7971351 0.2265392
vt 0.6193247 0.1723183
vt 0.8270347 0.109329
vt 0.7316456 0.06756814
vt 0.6168437 0.03502854
vt 0.4282183 0.1527611
vt 0.428217 0.1527937
vt 0.4253711 0.2265237
vt 0.4253699 0.2265562
vt 0.4336195 0.02027125
vt 0.4338937 0.4717232
vt 0.4338937 0.6321199
vt 0.5713931 0.6067541
vt 0.5689685 0.7634386
vt 0.5736942 0.4580529
vt 0.4338937 0.8011278
vt 0.3051267 0.6361647
vt 0.3051267 0.805555
vt 0.3051267 0.6361076
vt 0.3051267 0.4753482
vt 0.3051267 0.475294
vt 0.3633617 0.8333647
vt 0.03647216 0.8309329
vt 0.3720545 0.9643606
vt 0.5547789 0.9670761
vt 0.05097478 0.9582654
vt 0.5501195 0.8941448
vt 0.6012197 0.7606393
vt 0.7378163 0.7531811
vt 0.5990707 0.6195725
vt 0.817555 0.6841446
vt 0.5957775 0.3064702
vt 0.4186918 0.4091431
vt 0.4186929 0.4091146
vt 0.5770148 0.4189165
vt 0.7652912 0.3360268
vt 0.7381217 0.4326765
vt 0.7971351 0.2265392
vt 0.6193247 0.1723183
vt 0.8270347 0.109329
vt 0.7316456 0.06756814
vt 0.6168437 0.03502854
vt 0.4282183 0.1527611
vt 0.428217 0.1527937
vt 0.4253711 0.2265237
vt 0.4253699 0.2265562
vt 0.4336195 0.02027125
vt 0.4338937 0.4717232
vt 0.5713931 0.6067541
vt 0.4338937 0.6321199
vt 0.5689685 0.7634386
vt 0.5736942 0.4580529
vt 0.4338937 0.8011278
vt 0.3051267 0.6361647
vt 0.3051267 0.805555
vt 0.3051267 0.6361076
vt 0.3051267 0.4753482
vt 0.3051267 0.475294
vt 0.3633617 0.8333647
vt 0.3720545 0.9643606
vt 0.03647216 0.8309329
vt 0.5547789 0.9670761
vt 0.05097478 0.9582654
vt 0.5501195 0.8941448
vt 0.6012197 0.7606393
vt 0.5990707 0.6195725
vt 0.7378163 0.7531811
vt 0.817555 0.6841446
vn 0.07746465 0.901886 0.4249716
vn 0.0002069746 0.9203856 0.3910118
vn 0.06053191 0.9169403 0.3944064
vn 0.0002218473 0.9228417 0.3851795
vn 0.1068315 0.891009 0.4412369
vn 0.07903714 0.8974057 0.4340693
vn 0.1281202 0.8720956 0.4722652
vn 0.08714849 0.8715166 0.4825599
vn 0.1367803 0.8700423 0.4736216
vn 0.1227007 0.8691855 0.479021
vn 0.06688321 0.8555024 0.5134611
vn 1.669454E-05 0.8575168 0.514456
vn 2.332013E-05 0.8721285 0.4892768
vn 0 0.8837583 0.4679436
vn 0 0.9055609 0.4242163
vn 0 0.8553002 0.5181327
vn 0.05653777 0.9482503 -0.3124498
vn 0.05871453 0.9435841 -0.3258858
vn 0.0892903 0.9420634 -0.3233323
vn 0.09137557 0.9366753 -0.338068
vn 0.08889736 0.9464644 -0.3103262
vn 0.05964529 0.939465 -0.3374136
vn 0 0.9409899 -0.3384346
vn 0 0.9421441 -0.3352082
vn 0 0.945881 -0.3245137
vn 0 0.9500809 -0.3120038
vn 0 0.9499861 -0.3122923
vn 0.8990459 0.4378207 -0.00542565
vn 0.8934695 0.4489804 -0.01134967
vn 0.8975055 0.4410031 -0.000272179
vn 0.9007825 0.434197 0.007986807
vn 0.8913878 0.4531471 -0.009250627
vn 0.9028519 0.4299299 0.0043277
vn 0.8922906 0.4488025 -0.04892659
vn 0.8914941 0.4505464 -0.04739393
vn 0.8918416 0.4497873 -0.04806133
vn 0.8910986 0.4514071 -0.0466364
vn -0.07746483 0.9018861 0.4249713
vn 0.0002069746 0.9203856 0.3910118
vn 0.0002218473 0.9228417 0.3851795
vn -0.06053218 0.9169405 0.394406
vn -0.1068318 0.891009 0.441237
vn -0.07903756 0.8974055 0.4340696
vn -0.1281204 0.8720958 0.472265
vn -0.08714882 0.8715164 0.4825601
vn -0.1367801 0.8700424 0.4736215
vn -0.1227006 0.8691852 0.4790215
vn -0.06688383 0.8555024 0.5134611
vn 1.669454E-05 0.8575168 0.514456
vn 2.332013E-05 0.8721285 0.4892768
vn 0 0.8837583 0.4679436
vn 0 0.9055609 0.4242163
vn 0 0.8553002 0.5181327
vn -0.05653679 0.9482505 -0.3124495
vn -0.08928993 0.9420636 -0.323332
vn -0.05871451 0.9435841 -0.3258859
vn -0.09137496 0.9366753 -0.3380681
vn -0.08889667 0.9464648 -0.3103254
vn -0.0596451 0.9394649 -0.3374139
vn 0 0.9409899 -0.3384346
vn 0 0.9421441 -0.3352082
vn 0 0.945881 -0.3245137
vn 0 0.9500809 -0.3120038
vn 0 0.9499861 -0.3122923
vn -0.8990461 0.4378203 -0.005425852
vn -0.8975057 0.4410028 -0.0002720606
vn -0.8934696 0.4489802 -0.01134979
vn -0.9007831 0.4341959 0.007986495
vn -0.8913878 0.4531469 -0.009250625
vn -0.9028527 0.4299283 0.004326762
vn -0.8922909 0.4488017 -0.04892766
vn -0.8918417 0.4497871 -0.04806187
vn -0.891494 0.4505465 -0.04739404
vn -0.8910982 0.4514078 -0.04663603
g Glass_3_0
f 3/3/3 2/2/2 1/1/1
f 4/4/4 1/1/1 2/2/2
f 1/1/1 5/5/5 3/3/3
f 5/5/5 6/6/6 3/3/3
f 7/7/7 5/5/5 1/1/1
f 8/8/8 7/7/7 1/1/1
f 9/9/9 7/7/7 8/8/8
f 10/10/10 9/9/9 8/8/8
f 11/11/11 10/10/10 8/8/8
f 11/11/11 8/8/8 12/12/12
f 13/13/13 12/12/12 8/8/8
f 14/14/14 13/13/13 8/8/8
f 8/8/8 1/1/1 14/14/14
f 15/15/15 14/14/14 1/1/1
f 1/1/1 4/4/4 15/15/15
f 11/11/11 12/12/12 16/16/16
f 19/19/19 18/18/18 17/17/17
f 20/20/20 18/18/18 19/19/19
f 21/21/21 19/19/19 17/17/17
f 22/22/22 18/18/18 20/20/20
f 22/22/22 23/23/23 18/18/18
f 22/22/22 24/24/24 23/23/23
f 25/25/25 18/18/18 23/23/23
f 18/18/18 25/25/25 26/26/26
f 18/18/18 26/26/26 17/17/17
f 27/27/27 17/17/17 26/26/26
f 30/30/30 29/29/29 28/28/28
f 28/28/28 31/31/31 30/30/30
f 32/32/32 29/29/29 30/30/30
f 33/33/33 31/31/31 28/28/28
f 36/36/36 35/35/35 34/34/34
f 37/37/37 35/35/35 36/36/36
f 40/40/40 39/39/39 38/38/38
f 41/41/41 38/38/38 39/39/39
f 42/42/42 38/38/38 41/41/41
f 43/43/43 42/42/42 41/41/41
f 42/42/42 44/44/44 38/38/38
f 44/44/44 45/45/45 38/38/38
f 44/44/44 46/46/46 45/45/45
f 46/46/46 47/47/47 45/45/45
f 47/47/47 48/48/48 45/45/45
f 48/48/48 49/49/49 45/45/45
f 50/50/50 45/45/45 49/49/49
f 50/50/50 51/51/51 45/45/45
f 45/45/45 51/51/51 38/38/38
f 52/52/52 38/38/38 51/51/51
f 40/40/40 38/38/38 52/52/52
f 49/49/49 48/48/48 53/53/53
f 56/56/56 55/55/55 54/54/54
f 56/56/56 57/57/57 55/55/55
f 55/55/55 58/58/58 54/54/54
f 56/56/56 59/59/59 57/57/57
f 59/59/59 56/56/56 60/60/60
f 61/61/61 59/59/59 60/60/60
f 62/62/62 60/60/60 56/56/56
f 62/62/62 56/56/56 63/63/63
f 56/56/56 54/54/54 63/63/63
f 64/64/64 63/63/63 54/54/54
f 67/67/67 66/66/66 65/65/65
f 68/68/68 65/65/65 66/66/66
f 67/67/67 69/69/69 66/66/66
f 68/68/68 70/70/70 65/65/65
f 73/73/73 72/72/72 71/71/71
f 73/73/73 74/74/74 72/72/72
