g model_car_106_glass_LOD1
v 0.7162962 0.8316987 -0.1376255
v 0.6141239 1.089013 -0.183513
v 0.6123399 1.087717 -0.2682304
v 0.6963696 0.8536884 -0.3441882
v 0.6190366 1.086973 -0.06546998
v 0.7368851 0.8095117 0.08336765
v 0.6270269 1.078348 0.08660042
v 0.7574965 0.7853885 0.3161336
v 0.6366548 1.062906 0.229615
v 0.6452398 1.04741 0.3271199
v 0.7707067 0.7685453 0.4562705
v 0.650158 1.03845 0.369583
v 0.6547775 1.029992 0.4031114
v 0.6570661 1.025832 0.4176039
v 0.7778938 0.7608227 0.534669
v 0.672345 0.9999048 0.5064928
v 0.7813295 0.7578323 0.5687217
v 0.7850048 0.7551971 0.6038623
v 0.6975421 0.9593217 0.6310408
v 0.7892184 0.7524266 0.6457729
v 0.7939844 0.7524942 0.6929597
v 0.796397 0.7559665 0.7431538
v 0.736809 0.8999141 0.7931252
v 0.797282 0.7806197 0.8416479
v 0.7720765 0.8504387 0.9194461
v 0.7958841 0.8071273 0.9490399
v 0.7937195 0.8203261 0.9958068
v 0.7946017 0.8184941 0.9956828
v 0.4082688 1.034039 0.5632482
v 0.331257 1.086618 0.4489115
v 0.4637954 1.081643 0.4352476
v 0.5639806 1.075527 0.422401
v 0.5826163 1.029163 0.5361401
v 0.6011168 1.071147 0.4181677
v 0.628329 1.026511 0.5255653
v 0.4202107 0.9768751 0.7052595
v 0.6041861 0.9754912 0.6677993
v 0.6598282 0.974843 0.6498851
v 0.4373526 0.8947957 0.9091586
v 0.6351582 0.8984343 0.8568395
v 0.7050562 0.9006582 0.8283842
v 0.4548862 0.810859 1.117677
v 0.6668321 0.8196301 1.050161
v 0.5339808 0.7523871 1.254841
v 0.3591796 0.743616 1.304801
v 0.6897829 0.7625251 1.19025
v 0.75131 0.8247935 1.010928
v 0.7806954 0.7695008 1.145253
v 0.7693482 0.8286464 1.000745
v 0.7283085 0.9054213 0.8210506
v 0.6911132 0.9797612 0.6420694
v 0.6664939 1.026694 0.5171944
v 0.651432 1.053898 0.4418033
v 0.6450285 1.057917 0.4317583
v 0.6366379 1.062334 0.4251038
v 0.6236701 1.066748 0.4198193
v 0.7975639 0.7707691 1.13686
v 0.7997369 0.7722065 1.132593
v 0.15687 0.7397603 1.329722
v 0.1536401 0.8035957 1.170825
v -1.788139E-07 0.8034042 1.176671
v -1.788139E-07 0.8916729 0.956227
v 0.1491812 0.891687 0.951554
v -1.788139E-07 0.9779856 0.7406707
v 0.1448239 0.977825 0.737142
v -1.788139E-07 1.038098 0.5905394
v 0.1417884 1.037819 0.5878083
v -1.788139E-07 1.090031 0.4608421
v 0.1391672 1.089645 0.4588014
v -1.788139E-07 0.7394418 1.336413
v -0.1417888 1.037819 0.5878083
v -0.1391648 1.089645 0.4588014
v -0.1448243 0.977825 0.737142
v -0.1491817 0.891687 0.951554
v -0.1536376 0.8035957 1.170825
v -0.1568676 0.7397603 1.329722
v -0.437353 0.8947957 0.9091586
v -0.420211 0.9768751 0.7052595
v -0.6041865 0.9754912 0.6677993
v -0.5826139 1.029163 0.5361401
v -0.4082692 1.034039 0.5632482
v -0.563981 1.075527 0.422401
v -0.4637958 1.081643 0.4352476
v -0.3312574 1.086618 0.4489115
v -0.6011171 1.071147 0.4181677
v -0.6283295 1.026511 0.5255653
v -0.6598286 0.974843 0.6498851
v -0.6351586 0.8984343 0.8568395
v -0.7050565 0.9006582 0.8283842
v -0.4548866 0.810859 1.117677
v -0.6668325 0.8196301 1.050161
v -0.5339813 0.7523871 1.254841
v -0.3591799 0.743616 1.304801
v -0.6897833 0.7625251 1.19025
v -0.7513075 0.8247935 1.010928
v -0.7806957 0.7695008 1.145253
v -0.7693486 0.8286464 1.000745
v -0.7283089 0.9054213 0.8210506
v -0.6911108 0.9797612 0.6420694
v -0.6664943 1.026694 0.5171944
v -0.6236705 1.066748 0.4198193
v -0.6366382 1.062334 0.4251038
v -0.6450289 1.057917 0.4317583
v -0.6514325 1.053898 0.4418033
v -0.7975642 0.7707691 1.13686
v -0.7997373 0.7722065 1.132593
v 0.6848928 0.5654804 1.852764
v 0.6803636 0.5148495 1.928136
v 0.5841693 0.4955881 1.993389
v 0.5102607 0.5183585 1.995582
v 0.4942349 0.4779417 2.047478
v 0.779117 0.5347986 1.857711
v 0.7499036 0.5800435 1.800544
v 0.7828402 0.5371943 1.85284
v 0.7306507 0.6172866 1.74909
v 0.5248462 0.5514248 1.953031
v 0.8183106 0.5963032 1.742379
v 0.8511599 0.651204 1.636464
v 0.5192375 0.5475127 1.958347
v 0.4612165 0.5020649 2.033924
v 0.4125247 0.4610844 2.095113
v 0.7828402 0.5371943 1.85284
v 0.7868283 0.5335642 1.85131
v 0.782254 0.530678 1.857356
v 0.779117 0.5347986 1.857711
v 0.6827847 0.5104386 1.928159
v 0.6803636 0.5148495 1.928136
v 0.5864382 0.4910052 1.993372
v 0.5841693 0.4955881 1.993389
v 0.4963374 0.4731869 2.047413
v 0.4942349 0.4779417 2.047478
v 0.4093624 0.4561775 2.095863
v 0.4125247 0.4610844 2.095113
v 0.8183106 0.5963032 1.742379
v 0.8224651 0.5928872 1.740139
v 0.8511599 0.651204 1.636464
v 0.859511 0.6548286 1.620768
v 0.4125247 0.4610844 2.095113
v 0.4093624 0.4561775 2.095863
v 0.4081532 0.4581955 2.092957
v 0.4125247 0.4610844 2.095113
v 0.4081532 0.4581955 2.092957
v 0.4574736 0.5021297 2.029519
v 0.4612165 0.5020649 2.033924
v 0.5157059 0.5478565 1.95386
v 0.5192375 0.5475127 1.958347
v 0.5216501 0.5520448 1.948268
v 0.5248462 0.5514248 1.953031
v 0.7277223 0.6180053 1.744121
v 0.7306507 0.6172866 1.74909
v 0.859511 0.6548286 1.620768
v 0.8511599 0.651204 1.636464
v -0.7162966 0.8316987 -0.1376255
v -0.6963701 0.8536884 -0.3441882
v -0.6123403 1.087717 -0.2682304
v -0.6141215 1.089013 -0.183513
v -0.619037 1.086973 -0.06546998
v -0.7368855 0.8095117 0.08336765
v -0.6270273 1.078348 0.08660042
v -0.7574969 0.7853885 0.3161336
v -0.6366552 1.062906 0.229615
v -0.6452402 1.04741 0.3271199
v -0.7707043 0.7685453 0.4562705
v -0.6501585 1.03845 0.369583
v -0.6547779 1.029992 0.4031114
v -0.6570665 1.025832 0.4176039
v -0.7778942 0.7608227 0.534669
v -0.6723455 0.9999048 0.5064928
v -0.7813271 0.7578323 0.5687217
v -0.7850052 0.7551971 0.6038623
v -0.6975425 0.9593217 0.6310408
v -0.7892187 0.7524266 0.6457729
v -0.7939848 0.7524942 0.6929597
v -0.7963974 0.7559665 0.7431538
v -0.7368094 0.8999141 0.7931252
v -0.7972824 0.7806197 0.8416479
v -0.7720769 0.8504387 0.9194461
v -0.7958844 0.8071273 0.9490399
v -0.7937198 0.8203261 0.9958068
v -0.7946021 0.8184941 0.9956828
v -0.6848932 0.5654804 1.852764
v -0.5841697 0.4955881 1.993389
v -0.680364 0.5148495 1.928136
v -0.510261 0.5183585 1.995582
v -0.4942352 0.4779417 2.047478
v -0.7791174 0.5347986 1.857711
v -0.749904 0.5800435 1.800544
v -0.7828405 0.5371943 1.85284
v -0.7306511 0.6172866 1.74909
v -0.5248466 0.5514248 1.953031
v -0.818311 0.5963032 1.742379
v -0.8511574 0.651204 1.636464
v -0.5192378 0.5475127 1.958347
v -0.4612169 0.5020649 2.033924
v -0.4125251 0.4610844 2.095113
v -0.7828405 0.5371943 1.85284
v -0.7791174 0.5347986 1.857711
v -0.7822544 0.530678 1.857356
v -0.7868287 0.5335642 1.85131
v -0.682785 0.5104386 1.928159
v -0.680364 0.5148495 1.928136
v -0.5864386 0.4910052 1.993372
v -0.5841697 0.4955881 1.993389
v -0.4963378 0.4731869 2.047413
v -0.4942352 0.4779417 2.047478
v -0.4093627 0.4561775 2.095863
v -0.4125251 0.4610844 2.095113
v -0.818311 0.5963032 1.742379
v -0.8224654 0.5928872 1.740139
v -0.8511574 0.651204 1.636464
v -0.8595113 0.6548286 1.620768
v -0.4125251 0.4610844 2.095113
v -0.4081536 0.4581955 2.092957
v -0.4093627 0.4561775 2.095863
v -0.4125251 0.4610844 2.095113
v -0.4612169 0.5020649 2.033924
v -0.4574739 0.5021297 2.029519
v -0.4081536 0.4581955 2.092957
v -0.5157035 0.5478565 1.95386
v -0.5192378 0.5475127 1.958347
v -0.5216505 0.5520448 1.948268
v -0.5248466 0.5514248 1.953031
v -0.7277227 0.6180053 1.744121
v -0.7306511 0.6172866 1.74909
v -0.8595113 0.6548286 1.620768
v -0.8511574 0.651204 1.636464
vn 0.9295493 0.3653111 -0.04985791
vn 0.9332863 0.3578372 -0.0304824
vn 0.9332863 0.3559687 -0.04757016
vn 0.9332863 0.3559687 -0.04757016
vn 0.9295493 0.3653111 -0.04985791
vn 0.9239439 0.3783906 -0.05611
vn 0.9239439 0.380259 -0.04160288
vn 0.9202069 0.3896015 -0.03781501
vn 0.9220754 0.3858645 -0.02975888
vn 0.9183384 0.3952069 -0.02158747
vn 0.9164699 0.3970754 -0.04913235
vn 0.9164699 0.3970754 -0.04913235
vn 0.9162099 0.4006986 0
vn 0.9164699 0.3989439 -0.03044082
vn 0.9164699 0.3989439 -0.03044082
vn 0.9164699 0.3989439 -0.03044082
vn 0.9146014 0.3989439 -0.06593899
vn 0.9146014 0.3989439 -0.06593899
vn 0.9146014 0.4008124 -0.05341926
vn 0.912733 0.3989439 -0.08810382
vn 0.912733 0.4026809 -0.06904078
vn 0.908996 0.4064178 -0.09247082
vn 0.908996 0.4082862 -0.08383725
vn 0.9033905 0.4176286 -0.09732366
vn 0.901522 0.4213656 -0.09853434
vn 0.8977851 0.4325765 -0.08282199
vn 0.8959166 0.4363135 -0.08345048
vn 0.8959166 0.4363135 -0.08345048
vn 0.06630903 0.9258567 0.3720114
vn 0.05322963 0.9239882 0.3786983
vn 0.08312541 0.9239882 0.3732773
vn 0.1130212 0.9239882 0.3653381
vn 0.1111527 0.9258567 0.3611571
vn 0.1429169 0.9258567 0.3498058
vn 0.09994179 0.9295937 0.3547778
vn 0.06444055 0.9277252 0.3676593
vn 0.1036788 0.9277252 0.3585759
vn 0.07378298 0.9277252 0.365899
vn 0.06257206 0.9277252 0.367982
vn 0.0980733 0.9277252 0.3601494
vn 0.07751995 0.9277252 0.3651255
vn 0.06070358 0.9295937 0.3635528
vn 0.09433633 0.9277252 0.3611463
vn 0.07004601 0.9295937 0.361869
vn 0.04015023 0.9314622 0.361616
vn 0.09059936 0.9295937 0.3572778
vn 0.09433633 0.9277252 0.3611463
vn 0.1074157 0.9277252 0.3574742
vn -0.01590431 0.9202513 0.3910047
vn -0.04206312 0.9183828 0.3934512
vn -0.01964128 0.9258567 0.377364
vn 0.02893931 0.9351991 0.3529378
vn 0.07191449 0.9426731 0.3258769
vn 0.1802866 0.9221197 0.3423331
vn 0.1821551 0.9221197 0.3413426
vn 0.1597333 0.9239882 0.3474638
vn 0.1074157 0.9277252 0.3574742
vn 0.07751995 0.9258567 0.3698378
vn 0.02333385 0.9295937 0.3678466
vn 0.02520233 0.9295937 0.3677233
vn 0.0009120703 0.9277252 0.3732628
vn 0.0009120703 0.9277252 0.3732628
vn 0.02893931 0.9277252 0.3721404
vn 0.0009120703 0.9277252 0.3732628
vn 0.02893931 0.9277252 0.3721404
vn 0.0009120703 0.9277252 0.3732628
vn 0.02707082 0.9277252 0.372281
vn 0.0009120703 0.9277252 0.3732628
vn 0.02520233 0.9258567 0.3770334
vn 0.0009120703 0.9277252 0.3732628
vn -0.02711523 0.9277252 0.3722778
vn -0.02524674 0.9258567 0.3770304
vn -0.02898371 0.9277252 0.372137
vn -0.02711523 0.9277252 0.3722778
vn -0.02524674 0.9295937 0.3677203
vn -0.02524674 0.9295937 0.3677203
vn -0.06261647 0.9277252 0.3679744
vn -0.06448495 0.9277252 0.3676516
vn -0.1037232 0.9277252 0.358563
vn -0.1111971 0.9258567 0.3611434
vn -0.06635344 0.9258567 0.3720035
vn -0.1186711 0.9239882 0.3635422
vn -0.08690679 0.9239882 0.3724151
vn -0.05327404 0.9239882 0.378692
vn -0.1504353 0.9239882 0.3515892
vn -0.1018547 0.9295937 0.3542333
vn -0.06074798 0.9202513 0.3865842
vn -0.09811771 0.9277252 0.3601373
vn -0.05327404 0.9109088 0.409154
vn -0.06074798 0.9295937 0.3635455
vn -0.09438074 0.9277252 0.3611346
vn -0.07009041 0.9295937 0.3618604
vn -0.04206312 0.9314622 0.3613985
vn -0.09251225 0.9295937 0.3567872
vn -0.04766858 0.9389361 0.3407736
vn -0.1074601 0.9277252 0.3574609
vn 0.01585996 0.9183828 0.3953753
vn 0.04201871 0.9183828 0.3934559
vn 0.01959693 0.9258567 0.3773663
vn -0.02711523 0.9389361 0.3430215
vn -0.1635146 0.9239882 0.3457004
vn -0.1859365 0.9202513 0.3443331
vn -0.176594 0.9258567 0.3340717
vn -0.0719589 0.9408046 0.3312229
vn -0.1037232 0.9258567 0.3633605
vn -0.07943285 0.9314622 0.3550615
vn 0.2494206 0.7987998 0.5474561
vn 0.2195249 0.8062737 0.549301
vn 0.2475522 0.7726409 0.5845887
vn 0.2568946 0.7520876 0.6069344
vn 0.2512891 0.7315342 0.6338071
vn 0.2344728 0.8062737 0.5430886
vn 0.2344728 0.8193531 0.5231472
vn 0.2494206 0.8100107 0.5307279
vn 0.2382097 0.8230901 0.5155374
vn 0.2905273 0.765167 0.574555
vn 0.2400782 0.826827 0.5086447
vn 0.2363412 0.8286955 0.5073525
vn 0.1709442 0.7558246 0.6320659
vn 0.2512891 0.7128494 0.6547515
vn 0.2512891 0.7109809 0.65678
vn 0.6829093 0.5185269 0.514553
vn 0.6847777 0.5222639 0.5082518
vn 0.5222195 0.311125 0.7940328
vn 0.5166141 0.3073881 0.7991385
vn 0.5091401 0.2868347 0.8114815
vn 0.5072716 0.2793608 0.8152503
vn 0.4904552 0.2438595 0.8366517
vn 0.4867183 0.2363856 0.840968
vn 0.4829813 0.1317505 0.8656621
vn 0.4867183 0.1055917 0.8671538
vn 0.4941922 0.006561875 0.8693279
vn 0.4941922 0.006561875 0.8693279
vn 0.6903832 0.5278693 0.4946969
vn 0.6903832 0.5278693 0.4946969
vn 0.6941202 0.5297378 0.4874167
vn 0.6941202 0.5297378 0.4874167
vn -0.6250306 0.4942366 0.6042077
vn -0.6250306 0.4942366 0.6042077
vn -0.6250306 0.4942366 0.6042077
vn -0.4699463 0.8567228 0.2125475
vn -0.4699463 0.8567228 0.2125475
vn -0.3783906 0.8866186 0.2659474
vn -0.3970754 0.8810132 0.2571904
vn -0.3167305 0.8996979 0.3003756
vn -0.3167305 0.8996979 0.3003756
vn -0.122408 0.9669634 0.2236024
vn -0.129882 0.9650949 0.2274257
vn -0.1093286 0.9763058 0.1867462
vn -0.1093286 0.9744374 0.1962628
vn -0.1093286 0.9781743 0.1766981
vn -0.1093286 0.9781743 0.1766981
vn -0.9295937 0.3653111 -0.04902427
vn -0.9333307 0.3559687 -0.04669249
vn -0.9333307 0.3559687 -0.04669249
vn -0.9333307 0.3578372 -0.02909374
vn -0.9295937 0.3653111 -0.04902427
vn -0.9239882 0.3783906 -0.05537487
vn -0.9239882 0.380259 -0.04060595
vn -0.9202513 0.3896015 -0.03671943
vn -0.9221197 0.3858645 -0.0283516
vn -0.9183828 0.3952069 -0.01961119
vn -0.9165143 0.3970754 -0.0482979
vn -0.9183828 0.3952069 -0.01961119
vn -0.9146458 0.4008124 -0.05265449
vn -0.9183828 0.3952069 -0.01961119
vn -0.9146458 0.3989439 -0.06532096
vn -0.9165143 0.3989439 -0.02907478
vn -0.9146458 0.3989439 -0.06532096
vn -0.9146458 0.3989439 -0.06532096
vn -0.9146458 0.4008124 -0.05265449
vn -0.9127773 0.3989439 -0.08764325
vn -0.9109088 0.4026809 -0.08996234
vn -0.9090403 0.4064178 -0.09203373
vn -0.9071718 0.4101547 -0.09387429
vn -0.9034349 0.4176286 -0.09691092
vn -0.9015664 0.4194971 -0.1058312
vn -0.8978294 0.434445 -0.07183244
vn -0.8959609 0.4363135 -0.08297307
vn -0.8959609 0.4363135 -0.08297307
vn -0.2644129 0.7913258 0.5512615
vn -0.245728 0.7726409 0.5853578
vn -0.2195692 0.8062737 0.5492833
vn -0.2475965 0.7446136 0.6198761
vn -0.245728 0.7296658 0.6381267
vn -0.2214377 0.8006682 0.5566828
vn -0.2345171 0.8193531 0.5231273
vn -0.2307801 0.7913258 0.566166
vn -0.2401226 0.8230901 0.5146493
vn -0.2588074 0.7502191 0.6084324
vn -0.2401226 0.826827 0.5086238
vn -0.2363856 0.8286955 0.5073318
vn -0.1186711 0.7128494 0.691204
vn -0.253202 0.7147179 0.6519717
vn -0.2513335 0.7109809 0.656763
vn -0.5895294 0.4269711 0.6856754
vn -0.6212937 0.3484948 0.7018159
vn -0.6567948 0.3634427 0.6607042
vn -0.6194252 0.4587353 0.6370826
vn -0.5091845 0.2868347 0.8114536
vn -0.507316 0.2793608 0.8152227
vn -0.4886311 0.241991 0.8382601
vn -0.4848942 0.2363856 0.8420211
vn -0.4811572 0.1317505 0.8666773
vn -0.4848942 0.1055917 0.8681751
vn -0.4942366 0.006561875 0.8693027
vn -0.4942366 0.006561875 0.8693027
vn -0.6904275 0.5278693 0.494635
vn -0.6904275 0.5278693 0.494635
vn -0.692296 0.5297378 0.4900041
vn -0.692296 0.5297378 0.4900041
vn 0.6249862 0.4942366 0.6042536
vn 0.6249862 0.4942366 0.6042536
vn 0.6249862 0.4942366 0.6042536
vn 0.4699019 0.8567228 0.2126456
vn 0.3988994 0.8791447 0.2607373
vn 0.3802146 0.8847501 0.2695441
vn 0.4699019 0.8567228 0.2126456
vn 0.327897 0.8903556 0.315833
vn 0.3260285 0.8922241 0.3124765
vn 0.2400782 0.9109088 0.3355705
vn 0.2737109 0.8884871 0.3683381
vn 0.1092842 0.9763058 0.1867722
vn 0.1092842 0.9744374 0.1962875
vn 0.1092842 0.9781743 0.1767256
vn 0.1092842 0.9781743 0.1767256
g model_car_106_glass_LOD1_0
f 3/3/3 2/2/2 1/1/1
f 4/4/4 3/3/3 1/1/1
f 5/5/5 1/1/1 2/2/2
f 6/6/6 1/1/1 5/5/5
f 7/7/7 6/6/6 5/5/5
f 6/6/6 7/7/7 8/8/8
f 7/7/7 9/9/9 8/8/8
f 10/10/10 8/8/8 9/9/9
f 8/8/8 10/10/10 11/11/11
f 10/10/10 12/12/12 11/11/11
f 13/13/13 11/11/11 12/12/12
f 14/14/14 11/11/11 13/13/13
f 11/11/11 14/14/14 15/15/15
f 14/14/14 16/16/16 15/15/15
f 16/16/16 17/17/17 15/15/15
f 17/17/17 16/16/16 18/18/18
f 16/16/16 19/19/19 18/18/18
f 19/19/19 20/20/20 18/18/18
f 20/20/20 19/19/19 21/21/21
f 21/21/21 19/19/19 22/22/22
f 19/19/19 23/23/23 22/22/22
f 22/22/22 23/23/23 24/24/24
f 23/23/23 25/25/25 24/24/24
f 25/25/25 26/26/26 24/24/24
f 26/26/26 25/25/25 27/27/27
f 28/28/28 26/26/26 27/27/27
f 31/31/31 30/30/30 29/29/29
f 31/31/31 29/29/29 32/32/32
f 29/29/29 33/33/33 32/32/32
f 32/32/32 33/33/33 34/34/34
f 33/33/33 35/35/35 34/34/34
f 29/29/29 36/36/36 33/33/33
f 36/36/36 37/37/37 33/33/33
f 33/33/33 37/37/37 35/35/35
f 37/37/37 38/38/38 35/35/35
f 36/36/36 39/39/39 37/37/37
f 39/39/39 40/40/40 37/37/37
f 37/37/37 40/40/40 38/38/38
f 40/40/40 41/41/41 38/38/38
f 39/39/39 42/42/42 40/40/40
f 42/42/42 43/43/43 40/40/40
f 40/40/40 43/43/43 41/41/41
f 42/42/42 44/44/44 43/43/43
f 45/45/45 44/44/44 42/42/42
f 44/44/44 46/46/46 43/43/43
f 43/43/43 46/46/46 47/47/47
f 43/43/43 47/47/47 41/41/41
f 46/46/46 48/48/48 47/47/47
f 47/47/47 49/49/49 41/41/41
f 49/49/49 50/50/50 41/41/41
f 41/41/41 50/50/50 38/38/38
f 50/50/50 51/51/51 38/38/38
f 38/38/38 51/51/51 35/35/35
f 51/51/51 52/52/52 35/35/35
f 53/53/53 35/35/35 52/52/52
f 54/54/54 35/35/35 53/53/53
f 55/55/55 35/35/35 54/54/54
f 56/56/56 35/35/35 55/55/55
f 35/35/35 56/56/56 34/34/34
f 57/57/57 47/47/47 48/48/48
f 57/57/57 58/58/58 47/47/47
f 49/49/49 47/47/47 58/58/58
f 60/60/60 59/59/59 45/45/45
f 60/60/60 61/61/61 59/59/59
f 62/62/62 61/61/61 60/60/60
f 63/63/63 62/62/62 60/60/60
f 64/64/64 62/62/62 63/63/63
f 65/65/65 64/64/64 63/63/63
f 66/66/66 64/64/64 65/65/65
f 67/67/67 66/66/66 65/65/65
f 68/68/68 66/66/66 67/67/67
f 69/69/69 68/68/68 67/67/67
f 61/61/61 70/70/70 59/59/59
f 65/65/65 63/63/63 39/39/39
f 36/36/36 65/65/65 39/39/39
f 67/67/67 65/65/65 36/36/36
f 69/69/69 67/67/67 29/29/29
f 29/29/29 67/67/67 36/36/36
f 30/30/30 69/69/69 29/29/29
f 63/63/63 60/60/60 42/42/42
f 39/39/39 63/63/63 42/42/42
f 42/42/42 60/60/60 45/45/45
f 66/66/66 68/68/68 71/71/71
f 68/68/68 72/72/72 71/71/71
f 66/66/66 71/71/71 73/73/73
f 64/64/64 66/66/66 73/73/73
f 64/64/64 73/73/73 74/74/74
f 62/62/62 64/64/64 74/74/74
f 62/62/62 74/74/74 75/75/75
f 61/61/61 62/62/62 75/75/75
f 61/61/61 75/75/75 76/76/76
f 70/70/70 61/61/61 76/76/76
f 74/74/74 73/73/73 77/77/77
f 73/73/73 78/78/78 77/77/77
f 73/73/73 71/71/71 78/78/78
f 77/77/77 78/78/78 79/79/79
f 79/79/79 78/78/78 80/80/80
f 78/78/78 81/81/81 80/80/80
f 71/71/71 72/72/72 81/81/81
f 71/71/71 81/81/81 78/78/78
f 80/80/80 81/81/81 82/82/82
f 81/81/81 83/83/83 82/82/82
f 84/84/84 83/83/83 81/81/81
f 80/80/80 82/82/82 85/85/85
f 86/86/86 80/80/80 85/85/85
f 79/79/79 80/80/80 86/86/86
f 87/87/87 79/79/79 86/86/86
f 88/88/88 77/77/77 79/79/79
f 88/88/88 79/79/79 87/87/87
f 89/89/89 88/88/88 87/87/87
f 90/90/90 77/77/77 88/88/88
f 91/91/91 90/90/90 88/88/88
f 91/91/91 88/88/88 89/89/89
f 92/92/92 90/90/90 91/91/91
f 92/92/92 93/93/93 90/90/90
f 94/94/94 92/92/92 91/91/91
f 94/94/94 91/91/91 95/95/95
f 95/95/95 91/91/91 89/89/89
f 96/96/96 94/94/94 95/95/95
f 97/97/97 95/95/95 89/89/89
f 98/98/98 97/97/97 89/89/89
f 98/98/98 89/89/89 87/87/87
f 99/99/99 98/98/98 87/87/87
f 99/99/99 87/87/87 86/86/86
f 100/100/100 99/99/99 86/86/86
f 101/101/101 86/86/86 85/85/85
f 86/86/86 101/101/101 102/102/102
f 86/86/86 102/102/102 103/103/103
f 86/86/86 103/103/103 104/104/104
f 86/86/86 104/104/104 100/100/100
f 75/75/75 90/90/90 93/93/93
f 76/76/76 75/75/75 93/93/93
f 95/95/95 105/105/105 96/96/96
f 106/106/106 105/105/105 95/95/95
f 95/95/95 97/97/97 106/106/106
f 75/75/75 74/74/74 90/90/90
f 74/74/74 77/77/77 90/90/90
f 109/109/109 108/108/108 107/107/107
f 109/109/109 107/107/107 110/110/110
f 111/111/111 109/109/109 110/110/110
f 108/108/108 112/112/112 107/107/107
f 112/112/112 113/113/113 107/107/107
f 114/114/114 113/113/113 112/112/112
f 107/107/107 113/113/113 115/115/115
f 107/107/107 115/115/115 116/116/116
f 110/110/110 107/107/107 116/116/116
f 115/115/115 113/113/113 117/117/117
f 114/114/114 117/117/117 113/113/113
f 118/118/118 115/115/115 117/117/117
f 110/110/110 116/116/116 119/119/119
f 119/119/119 120/120/120 110/110/110
f 110/110/110 120/120/120 121/121/121
f 111/111/111 110/110/110 121/121/121
f 124/124/124 123/123/123 122/122/122
f 125/125/125 124/124/124 122/122/122
f 126/126/126 124/124/124 125/125/125
f 127/127/127 126/126/126 125/125/125
f 128/128/128 126/126/126 127/127/127
f 129/129/129 128/128/128 127/127/127
f 130/130/130 128/128/128 129/129/129
f 131/131/131 130/130/130 129/129/129
f 132/132/132 130/130/130 131/131/131
f 133/133/133 132/132/132 131/131/131
f 122/122/122 123/123/123 134/134/134
f 123/123/123 135/135/135 134/134/134
f 134/134/134 135/135/135 136/136/136
f 135/135/135 137/137/137 136/136/136
f 140/140/140 139/139/139 138/138/138
f 143/143/143 142/142/142 141/141/141
f 144/144/144 143/143/143 141/141/141
f 145/145/145 143/143/143 144/144/144
f 146/146/146 145/145/145 144/144/144
f 147/147/147 145/145/145 146/146/146
f 148/148/148 147/147/147 146/146/146
f 149/149/149 147/147/147 148/148/148
f 150/150/150 149/149/149 148/148/148
f 151/151/151 149/149/149 150/150/150
f 152/152/152 151/151/151 150/150/150
f 155/155/155 154/154/154 153/153/153
f 156/156/156 155/155/155 153/153/153
f 153/153/153 157/157/157 156/156/156
f 153/153/153 158/158/158 157/157/157
f 158/158/158 159/159/159 157/157/157
f 159/159/159 158/158/158 160/160/160
f 161/161/161 159/159/159 160/160/160
f 160/160/160 162/162/162 161/161/161
f 162/162/162 160/160/160 163/163/163
f 164/164/164 162/162/162 163/163/163
f 163/163/163 165/165/165 164/164/164
f 163/163/163 166/166/166 165/165/165
f 166/166/166 163/163/163 167/167/167
f 168/168/168 166/166/166 167/167/167
f 169/169/169 168/168/168 167/167/167
f 168/168/168 169/169/169 170/170/170
f 171/171/171 168/168/168 170/170/170
f 172/172/172 171/171/171 170/170/170
f 171/171/171 172/172/172 173/173/173
f 171/171/171 173/173/173 174/174/174
f 175/175/175 171/171/171 174/174/174
f 175/175/175 174/174/174 176/176/176
f 177/177/177 175/175/175 176/176/176
f 178/178/178 177/177/177 176/176/176
f 177/177/177 178/178/178 179/179/179
f 178/178/178 180/180/180 179/179/179
f 72/72/72 84/84/84 81/81/81
f 183/183/183 182/182/182 181/181/181
f 181/181/181 182/182/182 184/184/184
f 182/182/182 185/185/185 184/184/184
f 186/186/186 183/183/183 181/181/181
f 187/187/187 186/186/186 181/181/181
f 187/187/187 188/188/188 186/186/186
f 187/187/187 181/181/181 189/189/189
f 181/181/181 184/184/184 190/190/190
f 189/189/189 181/181/181 190/190/190
f 187/187/187 189/189/189 191/191/191
f 191/191/191 188/188/188 187/187/187
f 189/189/189 192/192/192 191/191/191
f 190/190/190 184/184/184 193/193/193
f 194/194/194 193/193/193 184/184/184
f 184/184/184 185/185/185 195/195/195
f 194/194/194 184/184/184 195/195/195
f 198/198/198 197/197/197 196/196/196
f 199/199/199 198/198/198 196/196/196
f 198/198/198 200/200/200 197/197/197
f 200/200/200 201/201/201 197/197/197
f 200/200/200 202/202/202 201/201/201
f 202/202/202 203/203/203 201/201/201
f 202/202/202 204/204/204 203/203/203
f 204/204/204 205/205/205 203/203/203
f 204/204/204 206/206/206 205/205/205
f 206/206/206 207/207/207 205/205/205
f 199/199/199 196/196/196 208/208/208
f 209/209/209 199/199/199 208/208/208
f 209/209/209 208/208/208 210/210/210
f 211/211/211 209/209/209 210/210/210
f 214/214/214 213/213/213 212/212/212
f 217/217/217 216/216/216 215/215/215
f 218/218/218 217/217/217 215/215/215
f 217/217/217 219/219/219 216/216/216
f 219/219/219 220/220/220 216/216/216
f 219/219/219 221/221/221 220/220/220
f 221/221/221 222/222/222 220/220/220
f 221/221/221 223/223/223 222/222/222
f 223/223/223 224/224/224 222/222/222
f 223/223/223 225/225/225 224/224/224
f 225/225/225 226/226/226 224/224/224
