g model_car_106_matte_backlight_LOD1
v 0.808538 0.7644238 -1.963137
v 0.7810205 0.6980131 -1.994444
v 0.815698 0.6966784 -1.954437
v 0.7764821 0.7968829 -2.002084
v 0.7742726 0.6993954 -2.00264
v 0.8427914 0.6964903 -1.921533
v 0.8378856 0.7304153 -1.927537
v 0.8621336 0.6966934 -1.896992
v 0.8625009 0.6981893 -1.89658
v 0.7668976 0.7024529 -2.012126
v 0.7605258 0.8077333 -2.019157
v 0.7152039 0.7607393 -2.072248
v 0.7404521 0.8150067 -2.037198
v 0.7199006 0.8194857 -2.052602
v 0.7036427 0.7676337 -2.080328
v 0.6837213 0.8243434 -2.075345
v 0.6855785 0.7720497 -2.090432
v 0.6218132 0.8295388 -2.104206
v 0.6272503 0.7748563 -2.118645
v 0.5650824 0.7769046 -2.140773
v 0.5627385 0.832638 -2.121691
v 0.4942346 0.8357046 -2.137925
v 0.4947213 0.7789707 -2.159712
v 0.4461508 0.837523 -2.147835
v 0.4414213 0.7802489 -2.169351
v 0.398067 0.7816193 -2.174313
v 0.3949827 0.8388755 -2.156855
v 0.3570179 0.8396847 -2.163059
v 0.8944193 0.5289524 -1.910849
v 0.897247 0.5292659 -1.913131
v 0.9010599 0.5221806 -1.907093
v 0.8980322 0.5222373 -1.905129
v 0.8924577 0.5343268 -1.914026
v 0.8951777 0.5349391 -1.916484
v 0.9049115 0.5181079 -1.900957
v 0.9016839 0.5183766 -1.899315
v 0.8918366 0.5388565 -1.914934
v 0.8945209 0.5397193 -1.917439
v 0.9247017 0.5019069 -1.861162
v 0.9208767 0.5026712 -1.860738
v 0.89261 0.5416303 -1.913504
v 0.8954614 0.5430813 -1.915704
v 0.9424912 0.4871955 -1.821355
v 0.9381319 0.4884079 -1.822149
v 0.943572 0.4861088 -1.818414
v 0.9391799 0.4873538 -1.819301
v 0.9509321 0.4766376 -1.792999
v 0.9461907 0.4783993 -1.795041
v 0.9040606 0.5375814 -1.894012
v 0.8918366 0.5388565 -1.914934
v 0.8924577 0.5343268 -1.914026
v 0.8944193 0.5289524 -1.910849
v 0.8980322 0.5222373 -1.905129
v 0.9016839 0.5183766 -1.899315
v 0.9208767 0.5026712 -1.860738
v 0.9246479 0.5253336 -1.853214
v 0.9381319 0.4884079 -1.822149
v 0.9436557 0.5130978 -1.812443
v 0.9391799 0.4873538 -1.819301
v 0.9447126 0.5122287 -1.809534
v 0.9461907 0.4783993 -1.795041
v 0.9514756 0.5047135 -1.784504
v 0.9246479 0.5253336 -1.853214
v 0.9074764 0.5388296 -1.89524
v 0.9287444 0.5261815 -1.853104
v 0.9436557 0.5130978 -1.812443
v 0.9483852 0.5135427 -1.810997
v 0.9447126 0.5122287 -1.809534
v 0.949475 0.5126438 -1.808
v 0.9514756 0.5047135 -1.784504
v 0.9565514 0.5047612 -1.781754
v 0.9565514 0.5047612 -1.781754
v 0.9514756 0.5047135 -1.784504
v 0.9461907 0.4783993 -1.795041
v 0.9509321 0.4766376 -1.792999
v -0.8085394 0.7644238 -1.963137
v -0.8156996 0.6966784 -1.954437
v -0.7810192 0.6980131 -1.994444
v -0.7764807 0.7968829 -2.002084
v -0.7742712 0.6993954 -2.00264
v -0.8427899 0.6964903 -1.921533
v -0.8378873 0.7304153 -1.927537
v -0.8621321 0.6966934 -1.896992
v -0.8625023 0.6981893 -1.89658
v -0.7668991 0.7024529 -2.012126
v -0.7605274 0.8077333 -2.019157
v -0.7152054 0.7607393 -2.072248
v -0.7404506 0.8150067 -2.037198
v -0.7199023 0.8194857 -2.052602
v -0.7036414 0.7676337 -2.080328
v -0.6837199 0.8243434 -2.075345
v -0.68558 0.7720497 -2.090432
v -0.6218147 0.8295388 -2.104206
v -0.627249 0.7748563 -2.118645
v -0.5650809 0.7769046 -2.140773
v -0.562737 0.832638 -2.121691
v -0.4942362 0.8357046 -2.137925
v -0.4947228 0.7789707 -2.159712
v -0.4461493 0.837523 -2.147835
v -0.4414227 0.7802489 -2.169351
v -0.3980656 0.7816193 -2.174313
v -0.3949842 0.8388755 -2.156855
v -0.3570163 0.8396847 -2.163059
v -0.8944209 0.5289524 -1.910849
v -0.8980339 0.5222373 -1.905129
v -0.9010584 0.5221806 -1.907093
v -0.8972485 0.5292659 -1.913131
v -0.8924592 0.5343268 -1.914026
v -0.8951793 0.5349391 -1.916484
v -0.9049101 0.5181079 -1.900957
v -0.9016824 0.5183766 -1.899315
v -0.8918352 0.5388565 -1.914934
v -0.8945224 0.5397193 -1.917439
v -0.9247031 0.5019069 -1.861162
v -0.9208753 0.5026712 -1.860738
v -0.8926115 0.5416303 -1.913504
v -0.8954599 0.5430813 -1.915704
v -0.9424927 0.4871955 -1.821355
v -0.9381335 0.4884079 -1.822149
v -0.9435706 0.4861088 -1.818414
v -0.9391785 0.4873538 -1.819301
v -0.9509308 0.4766376 -1.792999
v -0.9461892 0.4783993 -1.795041
v -0.9040592 0.5375814 -1.894012
v -0.8918352 0.5388565 -1.914934
v -0.8924592 0.5343268 -1.914026
v -0.8944209 0.5289524 -1.910849
v -0.8980339 0.5222373 -1.905129
v -0.9016824 0.5183766 -1.899315
v -0.9208753 0.5026712 -1.860738
v -0.9246495 0.5253336 -1.853214
v -0.9381335 0.4884079 -1.822149
v -0.9436543 0.5130978 -1.812443
v -0.9391785 0.4873538 -1.819301
v -0.9447143 0.5122287 -1.809534
v -0.9461892 0.4783993 -1.795041
v -0.9514771 0.5047135 -1.784504
v -0.9246495 0.5253336 -1.853214
v -0.907475 0.5388296 -1.89524
v -0.9287431 0.5261815 -1.853104
v -0.9436543 0.5130978 -1.812443
v -0.9483838 0.5135427 -1.810997
v -0.9447143 0.5122287 -1.809534
v -0.9494767 0.5126438 -1.808
v -0.9514771 0.5047135 -1.784504
v -0.956553 0.5047612 -1.781754
v -0.956553 0.5047612 -1.781754
v -0.9509308 0.4766376 -1.792999
v -0.9461892 0.4783993 -1.795041
v -0.9514771 0.5047135 -1.784504
vt 1.367684 0.4286389
vt 1.400908 0.3490336
vt 1.34372 0.3555531
vt 1.430093 0.4558546
vt 1.412576 0.348421
vt 1.296509 0.3609496
vt 1.310437 0.3993812
vt 1.262511 0.3692923
vt 1.262161 0.3710133
vt 1.426272 0.3485523
vt 1.458753 0.4645619
vt 1.535514 0.3915053
vt 1.492036 0.4695208
vt 1.524634 0.4717961
vt 1.554941 0.3983311
vt 1.580057 0.4737651
vt 1.582799 0.4026629
vt 1.668938 0.474786
vt 1.665088 0.4017003
vt 1.7478 0.3986812
vt 1.748208 0.4738088
vt 1.837104 0.4727733
vt 1.838665 0.3955016
vt 1.896946 0.4689665
vt 1.904385 0.3943639
vt 1.95727 0.3964934
vt 1.955928 0.4683394
vt 1.993923 0.4621407
vt 1.965569 0.1114429
vt 1.971403 0.105113
vt 1.951043 0.09468464
vt 1.94814 0.1026189
vt 1.975385 0.1199751
vt 1.983917 0.1165914
vt 1.932505 0.09019244
vt 1.931732 0.09847675
vt 1.979133 0.1278511
vt 1.988453 0.1296159
vt 1.83477 0.08559814
vt 1.837498 0.09399914
vt 1.977777 0.1335392
vt 1.984136 0.1403942
vt 1.738232 0.08224358
vt 1.743978 0.09077584
vt 1.73126 0.08253527
vt 1.736934 0.09065916
vt 1.67782 0.0891569
vt 1.687461 0.0951076
vt 1.933176 0.1422465
vt 1.979133 0.1278511
vt 1.975385 0.1199751
vt 1.965569 0.1114429
vt 1.94814 0.1026189
vt 1.931732 0.09847675
vt 1.837498 0.09399914
vt 1.835193 0.1464179
vt 1.743978 0.09077584
vt 1.736671 0.1505017
vt 1.736934 0.09065916
vt 1.729743 0.150385
vt 1.687417 0.09502009
vt 1.678287 0.1418819
vt 1.835193 0.1464179
vt 1.933628 0.1506329
vt 1.83213 0.1551106
vt 1.736671 0.1505017
vt 1.730254 0.1594277
vt 1.729743 0.150385
vt 1.723122 0.1588881
vt 1.678287 0.1418819
vt 1.667378 0.1477305
vt 1.667378 0.1477305
vt 1.678389 0.1417506
vt 1.687461 0.0951076
vt 1.67782 0.0891569
vt 1.367684 0.4286389
vt 1.34372 0.3555531
vt 1.400908 0.3490336
vt 1.430093 0.4558546
vt 1.412576 0.348421
vt 1.296509 0.3609496
vt 1.310437 0.3993812
vt 1.262511 0.3692923
vt 1.262161 0.3710133
vt 1.426272 0.3485523
vt 1.458753 0.4645619
vt 1.535514 0.3915053
vt 1.492036 0.4695208
vt 1.524634 0.4717961
vt 1.554941 0.3983311
vt 1.580057 0.4737651
vt 1.582799 0.4026629
vt 1.668938 0.474786
vt 1.665088 0.4017003
vt 1.7478 0.3986812
vt 1.748208 0.4738088
vt 1.837104 0.4727733
vt 1.838665 0.3955016
vt 1.896946 0.4689665
vt 1.904385 0.3943639
vt 1.95727 0.3964934
vt 1.955928 0.4683394
vt 1.993923 0.4621407
vt 1.965569 0.1114429
vt 1.94814 0.1026189
vt 1.951043 0.09468464
vt 1.971403 0.105113
vt 1.975385 0.1199751
vt 1.983917 0.1165914
vt 1.932505 0.09019244
vt 1.931732 0.09847675
vt 1.979133 0.1278511
vt 1.988453 0.1296159
vt 1.83477 0.08559814
vt 1.837498 0.09399914
vt 1.977777 0.1335392
vt 1.984136 0.1403942
vt 1.738232 0.08224358
vt 1.743978 0.09077584
vt 1.73126 0.08253527
vt 1.736934 0.09065916
vt 1.67782 0.0891569
vt 1.687461 0.0951076
vt 1.933176 0.1422465
vt 1.979133 0.1278511
vt 1.975385 0.1199751
vt 1.965569 0.1114429
vt 1.94814 0.1026189
vt 1.931732 0.09847675
vt 1.837498 0.09399914
vt 1.835193 0.1464179
vt 1.743978 0.09077584
vt 1.736671 0.1505017
vt 1.736934 0.09065916
vt 1.729743 0.150385
vt 1.687417 0.09502009
vt 1.678287 0.1418819
vt 1.835193 0.1464179
vt 1.933628 0.1506329
vt 1.83213 0.1551106
vt 1.736671 0.1505017
vt 1.730254 0.1594277
vt 1.729743 0.150385
vt 1.723122 0.1588881
vt 1.678287 0.1418819
vt 1.667378 0.1477305
vt 1.667378 0.1477305
vt 1.67782 0.0891569
vt 1.687461 0.0951076
vt 1.678389 0.1417506
vn 0.765867 -0.01023668 -0.6429175
vn 0.7640058 -0.01209784 -0.6450959
vn 0.765867 -0.00279206 -0.642993
vn 0.7584223 -0.01023668 -0.651683
vn 0.7621447 -0.01209784 -0.6472937
vn 0.7751728 0.0009302497 -0.6317486
vn 0.7733116 -0.0009309053 -0.6340255
vn 0.7844785 0.002791405 -0.6201497
vn 0.7844785 0.002791405 -0.6201497
vn 0.7491165 0.01209724 -0.6623278
vn 0.7491165 0.02326417 -0.6620296
vn 0.7230603 0.06979316 -0.6872501
vn 0.7342273 0.0511815 -0.6769717
vn 0.5816123 0.2279915 -0.780863
vn 0.566723 0.2372974 -0.7889962
vn 0.4624982 0.2652147 -0.846024
vn 0.4624982 0.2652147 -0.846024
vn 0.3657179 0.2838263 -0.8863933
vn 0.3694403 0.2819652 -0.8854431
vn 0.27266 0.3191883 -0.9076207
vn 0.27266 0.3173272 -0.908273
vn 0.2205476 0.3396611 -0.9143245
vn 0.2186864 0.3396611 -0.9147714
vn 0.1702963 0.3303552 -0.9283667
vn 0.166574 0.3303552 -0.9290417
vn 0.1498235 0.3136049 -0.9376593
vn 0.1516847 0.3098826 -0.9385971
vn 0.1609905 0.2949932 -0.9418392
vn 0.425275 0.6616414 0.6175531
vn 0.4327196 0.6486134 0.6261424
vn 0.343384 0.7900614 0.5078291
vn 0.343384 0.7900614 0.5078291
vn 0.5369445 0.4587752 0.707966
vn 0.5574173 0.4141074 0.7195839
vn 0.2261311 0.9296482 0.2908933
vn 0.2279922 0.9277871 0.2953483
vn 0.6895595 -0.04187638 0.7230174
vn 0.6970041 -0.1219062 0.7066287
vn 0.2168252 0.9408153 0.260487
vn 0.2168252 0.9389541 0.2671182
vn 0.8626472 0.02326417 -0.5052708
vn 0.2968551 -0.9277877 -0.2260243
vn 0.2149641 0.9426764 0.2552483
vn 0.2168252 0.9426764 0.2536693
vn 0.2168252 0.9333705 0.286018
vn 0.2168252 0.9333705 0.286018
vn 0.2168252 0.9333705 0.286018
vn 0.2168252 0.9333705 0.286018
vn 0.8942869 0.02326417 -0.446889
vn 0.8645083 0.0176807 -0.5023074
vn 0.8645083 0.0176807 -0.5023074
vn 0.8626472 0.02326417 -0.5052708
vn 0.8589249 0.03256994 -0.5110648
vn 0.8924257 0.006513715 -0.4511473
vn 0.9017315 -0.01023668 -0.4321753
vn 0.9017315 -0.01209784 -0.4321272
vn 0.9054539 -0.02512598 -0.4237004
vn 0.9054539 -0.02512598 -0.4237004
vn 0.9519828 -0.084683 -0.2942067
vn 0.9519828 -0.084683 -0.2942067
vn 0.9110373 -0.02884829 -0.4113134
vn 0.8942869 -0.01023668 -0.447377
vn 0.1982137 -0.907315 -0.3707975
vn 0.2056583 -0.9110373 -0.3573733
vn 0.1982137 -0.9091762 -0.3662104
vn 0.1982137 -0.9091762 -0.3662104
vn 0.1963525 -0.9110373 -0.3625695
vn 0.1870467 -0.9240654 -0.3333416
vn 0.1870467 -0.9259266 -0.3281364
vn 0.1870467 -0.9259266 -0.3281364
vn 0.1870467 -0.9259266 -0.3281364
vn 0.4587758 0.2484643 -0.8531062
vn 0.8942869 -0.01023668 -0.447377
vn 0.9110373 -0.02884829 -0.4113134
vn 0.4587758 0.2484643 -0.8531062
vn -0.7658663 -0.01023668 -0.6429183
vn -0.7658663 -0.00279206 -0.6429937
vn -0.7640051 -0.01209784 -0.6450968
vn -0.7584217 -0.01023668 -0.6516837
vn -0.762144 -0.01209784 -0.6472945
vn -0.7751722 0.0009302497 -0.6317493
vn -0.773311 -0.0009309053 -0.6340263
vn -0.7844779 0.002791405 -0.6201505
vn -0.7844779 0.002791405 -0.6201505
vn -0.7491159 0.01209724 -0.6623285
vn -0.7491159 0.02326417 -0.6620303
vn -0.7230597 0.06979316 -0.6872507
vn -0.7342266 0.0511815 -0.6769724
vn -0.5816117 0.2279915 -0.7808635
vn -0.5667223 0.2372974 -0.7889966
vn -0.4624975 0.2652147 -0.8460243
vn -0.4624975 0.2652147 -0.8460243
vn -0.3675784 0.2819652 -0.8862177
vn -0.3694397 0.2819652 -0.8854433
vn -0.2726594 0.3191883 -0.9076209
vn -0.2726594 0.3173272 -0.9082732
vn -0.2205469 0.3396611 -0.9143246
vn -0.2186858 0.3396611 -0.9147715
vn -0.1702957 0.3303552 -0.9283667
vn -0.1665733 0.3303552 -0.9290419
vn -0.1498229 0.3136049 -0.9376594
vn -0.1516841 0.3098826 -0.9385972
vn -0.1609898 0.2949932 -0.9418393
vn -0.4252743 0.6616414 0.6175535
vn -0.3433834 0.7900614 0.5078295
vn -0.3433834 0.7900614 0.5078295
vn -0.4327189 0.6486134 0.626143
vn -0.5369439 0.4587752 0.7079664
vn -0.5574166 0.4141074 0.7195845
vn -0.2261304 0.9296482 0.2908938
vn -0.2279915 0.9277871 0.2953488
vn -0.6895588 -0.04187638 0.723018
vn -0.6970034 -0.1219062 0.7066295
vn -0.2168246 0.9408153 0.2604874
vn -0.2168246 0.9389541 0.2671186
vn -0.8626465 0.02326417 -0.505272
vn -0.2968544 -0.9277877 -0.2260252
vn -0.2149635 0.9426764 0.2552488
vn -0.2168246 0.9426764 0.2536697
vn -0.2168246 0.9333705 0.2860184
vn -0.2168246 0.9333705 0.2860184
vn -0.2168246 0.9333705 0.2860184
vn -0.2168246 0.9333705 0.2860184
vn -0.8942862 0.02326417 -0.4468903
vn -0.8645077 0.0176807 -0.5023084
vn -0.8645077 0.0176807 -0.5023084
vn -0.8626465 0.02326417 -0.505272
vn -0.8589242 0.03256994 -0.5110659
vn -0.8924251 0.006513715 -0.4511485
vn -0.9017308 -0.01023668 -0.4321767
vn -0.9017308 -0.01209784 -0.4321286
vn -0.9054531 -0.02512598 -0.4237019
vn -0.9054531 -0.02512598 -0.4237019
vn -0.9519822 -0.084683 -0.2942086
vn -0.9519822 -0.084683 -0.2942086
vn -0.9110367 -0.02884829 -0.4113149
vn -0.8942862 -0.01023668 -0.4473784
vn -0.198213 -0.907315 -0.3707978
vn -0.2056577 -0.9110373 -0.3573736
vn -0.198213 -0.9091762 -0.3662107
vn -0.198213 -0.9091762 -0.3662107
vn -0.1963518 -0.9110373 -0.36257
vn -0.1870461 -0.9240654 -0.333342
vn -0.1870461 -0.9259266 -0.3281368
vn -0.1870461 -0.9259266 -0.3281368
vn -0.1870461 -0.9259266 -0.3281368
vn -0.4587752 0.2484643 -0.8531066
vn -0.4587752 0.2484643 -0.8531066
vn -0.9110367 -0.02884829 -0.4113149
vn -0.8942862 -0.01023668 -0.4473784
g model_car_106_matte_backlight_LOD1_0
f 3/3/3 2/2/2 1/1/1
f 1/1/1 2/2/2 4/4/4
f 2/2/2 5/5/5 4/4/4
f 6/6/6 3/3/3 1/1/1
f 7/7/7 6/6/6 1/1/1
f 8/8/8 6/6/6 7/7/7
f 9/9/9 8/8/8 7/7/7
f 4/4/4 5/5/5 10/10/10
f 11/11/11 4/4/4 10/10/10
f 10/10/10 12/12/12 11/11/11
f 12/12/12 13/13/13 11/11/11
f 13/13/13 12/12/12 14/14/14
f 12/12/12 15/15/15 14/14/14
f 16/16/16 14/14/14 15/15/15
f 17/17/17 16/16/16 15/15/15
f 18/18/18 16/16/16 17/17/17
f 19/19/19 18/18/18 17/17/17
f 19/19/19 20/20/20 18/18/18
f 20/20/20 21/21/21 18/18/18
f 22/22/22 21/21/21 20/20/20
f 23/23/23 22/22/22 20/20/20
f 24/24/24 22/22/22 23/23/23
f 25/25/25 24/24/24 23/23/23
f 24/24/24 25/25/25 26/26/26
f 27/27/27 24/24/24 26/26/26
f 26/26/26 28/28/28 27/27/27
f 31/31/31 30/30/30 29/29/29
f 32/32/32 31/31/31 29/29/29
f 29/29/29 30/30/30 33/33/33
f 30/30/30 34/34/34 33/33/33
f 35/35/35 31/31/31 32/32/32
f 36/36/36 35/35/35 32/32/32
f 33/33/33 34/34/34 37/37/37
f 34/34/34 38/38/38 37/37/37
f 39/39/39 35/35/35 36/36/36
f 40/40/40 39/39/39 36/36/36
f 37/37/37 38/38/38 41/41/41
f 38/38/38 42/42/42 41/41/41
f 43/43/43 39/39/39 40/40/40
f 44/44/44 43/43/43 40/40/40
f 45/45/45 43/43/43 44/44/44
f 46/46/46 45/45/45 44/44/44
f 45/45/45 46/46/46 47/47/47
f 46/46/46 48/48/48 47/47/47
f 41/41/41 42/42/42 49/49/49
f 50/50/50 41/41/41 49/49/49
f 49/49/49 51/51/51 50/50/50
f 49/49/49 52/52/52 51/51/51
f 49/49/49 53/53/53 52/52/52
f 53/53/53 49/49/49 54/54/54
f 54/54/54 49/49/49 55/55/55
f 49/49/49 56/56/56 55/55/55
f 55/55/55 56/56/56 57/57/57
f 56/56/56 58/58/58 57/57/57
f 57/57/57 58/58/58 59/59/59
f 58/58/58 60/60/60 59/59/59
f 59/59/59 60/60/60 61/61/61
f 60/60/60 62/62/62 61/61/61
f 49/49/49 64/64/64 63/63/63
f 64/64/64 65/65/65 63/63/63
f 63/63/63 65/65/65 66/66/66
f 65/65/65 67/67/67 66/66/66
f 66/66/66 67/67/67 68/68/68
f 67/67/67 69/69/69 68/68/68
f 68/68/68 69/69/69 70/70/70
f 69/69/69 71/71/71 70/70/70
f 42/42/42 64/64/64 49/49/49
f 74/74/74 73/73/73 72/72/72
f 75/75/75 74/74/74 72/72/72
f 78/78/78 77/77/77 76/76/76
f 78/78/78 76/76/76 79/79/79
f 80/80/80 78/78/78 79/79/79
f 77/77/77 81/81/81 76/76/76
f 81/81/81 82/82/82 76/76/76
f 81/81/81 83/83/83 82/82/82
f 83/83/83 84/84/84 82/82/82
f 80/80/80 79/79/79 85/85/85
f 79/79/79 86/86/86 85/85/85
f 87/87/87 85/85/85 86/86/86
f 88/88/88 87/87/87 86/86/86
f 87/87/87 88/88/88 89/89/89
f 90/90/90 87/87/87 89/89/89
f 89/89/89 91/91/91 90/90/90
f 91/91/91 92/92/92 90/90/90
f 91/91/91 93/93/93 92/92/92
f 93/93/93 94/94/94 92/92/92
f 95/95/95 94/94/94 93/93/93
f 96/96/96 95/95/95 93/93/93
f 96/96/96 97/97/97 95/95/95
f 97/97/97 98/98/98 95/95/95
f 97/97/97 99/99/99 98/98/98
f 99/99/99 100/100/100 98/98/98
f 100/100/100 99/99/99 101/101/101
f 99/99/99 102/102/102 101/101/101
f 103/103/103 101/101/101 102/102/102
f 106/106/106 105/105/105 104/104/104
f 107/107/107 106/106/106 104/104/104
f 107/107/107 104/104/104 108/108/108
f 109/109/109 107/107/107 108/108/108
f 106/106/106 110/110/110 105/105/105
f 110/110/110 111/111/111 105/105/105
f 109/109/109 108/108/108 112/112/112
f 113/113/113 109/109/109 112/112/112
f 110/110/110 114/114/114 111/111/111
f 114/114/114 115/115/115 111/111/111
f 113/113/113 112/112/112 116/116/116
f 117/117/117 113/113/113 116/116/116
f 114/114/114 118/118/118 115/115/115
f 118/118/118 119/119/119 115/115/115
f 118/118/118 120/120/120 119/119/119
f 120/120/120 121/121/121 119/119/119
f 121/121/121 120/120/120 122/122/122
f 123/123/123 121/121/121 122/122/122
f 117/117/117 116/116/116 124/124/124
f 116/116/116 125/125/125 124/124/124
f 126/126/126 124/124/124 125/125/125
f 127/127/127 124/124/124 126/126/126
f 128/128/128 124/124/124 127/127/127
f 124/124/124 128/128/128 129/129/129
f 124/124/124 129/129/129 130/130/130
f 131/131/131 124/124/124 130/130/130
f 131/131/131 130/130/130 132/132/132
f 133/133/133 131/131/131 132/132/132
f 133/133/133 132/132/132 134/134/134
f 135/135/135 133/133/133 134/134/134
f 135/135/135 134/134/134 136/136/136
f 137/137/137 135/135/135 136/136/136
f 139/139/139 124/124/124 138/138/138
f 140/140/140 139/139/139 138/138/138
f 140/140/140 138/138/138 141/141/141
f 142/142/142 140/140/140 141/141/141
f 142/142/142 141/141/141 143/143/143
f 144/144/144 142/142/142 143/143/143
f 144/144/144 143/143/143 145/145/145
f 146/146/146 144/144/144 145/145/145
f 139/139/139 117/117/117 124/124/124
f 149/149/149 148/148/148 147/147/147
f 150/150/150 149/149/149 147/147/147
