g model_car_106_matte_mirror_LOD1
v 0.984755 0.8593931 0.4891869
v 0.9021941 0.8685615 0.5323035
v 0.8817564 0.7695737 0.5428952
v 0.9181246 0.7674261 0.5240364
v 0.8875974 0.8653198 0.5400097
v 0.8817564 0.7695737 0.5428952
v 0.9021941 0.8685615 0.5323035
v 0.8777981 0.7738045 0.5449493
v 0.8728274 0.8420063 0.5476731
v 0.873612 0.7821903 0.5471144
v 0.8777981 0.7738045 0.5449493
v 0.8875974 0.8653198 0.5400097
v 0.870084 0.8053032 0.5489542
v 0.9791263 0.7683082 0.4924248
v 0.984755 0.8593931 0.4891869
v 0.9181246 0.7674261 0.5240364
v 0.9978078 0.7712364 0.4825963
v 0.984755 0.8593931 0.4891869
v 1.004918 0.7757788 0.4787354
v 1.007619 0.8507055 0.4772635
v 1.011375 0.7815847 0.4752951
v 1.007619 0.8507055 0.4772635
v 1.004918 0.7757788 0.4787354
v 1.016532 0.7898849 0.4725926
v 1.020792 0.839154 0.4704607
v -0.984755 0.8593931 0.4891869
v -0.9181247 0.7674261 0.5240364
v -0.8817564 0.7695737 0.5428952
v -0.9021941 0.8685615 0.5323035
v -0.8875974 0.8653198 0.5400097
v -0.9021941 0.8685615 0.5323035
v -0.8817564 0.7695737 0.5428952
v -0.8777982 0.7738045 0.5449493
v -0.8728274 0.8420063 0.5476731
v -0.8875974 0.8653198 0.5400097
v -0.8777982 0.7738045 0.5449493
v -0.8736122 0.7821903 0.5471144
v -0.8700842 0.8053032 0.5489542
v -0.9791263 0.7683082 0.4924248
v -0.9181247 0.7674261 0.5240364
v -0.984755 0.8593931 0.4891869
v -0.997808 0.7712364 0.4825963
v -0.984755 0.8593931 0.4891869
v -1.004918 0.7757788 0.4787354
v -1.007619 0.8507055 0.4772635
v -1.011375 0.7815847 0.4752951
v -1.004918 0.7757788 0.4787354
v -1.007619 0.8507055 0.4772635
v -1.016532 0.7898849 0.4725926
v -1.020792 0.839154 0.4704607
vn -0.4632063 -0.00137195 -0.8862494
vn -0.4641208 0.000457108 -0.8857718
vn -0.4613773 0.000457108 -0.8872039
vn -0.4613773 -0.00137195 -0.887203
vn -0.4659499 0.002286166 -0.8848081
vn -0.4613773 0.000457108 -0.8872039
vn -0.4641208 0.000457108 -0.8857718
vn -0.4604628 0.001371622 -0.8876779
vn -0.4613773 0.001371622 -0.887203
vn -0.4604628 0.002286166 -0.8876761
vn -0.4604628 0.001371622 -0.8876779
vn -0.4659499 0.002286166 -0.8848081
vn -0.4494885 0.002286166 -0.8932832
vn -0.4622918 -0.003200978 -0.8867221
vn -0.4632063 -0.00137195 -0.8862494
vn -0.4613773 -0.00137195 -0.887203
vn -0.4659499 -0.002286464 -0.8848081
vn -0.4632063 -0.00137195 -0.8862494
vn -0.4668644 -0.00137195 -0.8843278
vn -0.4641208 -0.00137195 -0.8857708
vn -0.467779 -0.000457406 -0.8838454
vn -0.4641208 -0.00137195 -0.8857708
vn -0.4668644 -0.00137195 -0.8843278
vn -0.4604628 0.000457108 -0.8876789
vn -0.4604628 0.000457108 -0.8876789
vn 0.4632066 -0.00137195 -0.8862492
vn 0.4613776 -0.00137195 -0.8872028
vn 0.4613776 0.000457108 -0.8872038
vn 0.4641212 0.000457108 -0.8857716
vn 0.4659502 0.002286166 -0.884808
vn 0.4641212 0.000457108 -0.8857716
vn 0.4613776 0.000457108 -0.8872038
vn 0.460463 0.001371622 -0.8876778
vn 0.4613776 0.001371622 -0.8872028
vn 0.4659502 0.002286166 -0.884808
vn 0.460463 0.001371622 -0.8876778
vn 0.460463 0.002286166 -0.8876759
vn 0.4494888 0.002286166 -0.8932831
vn 0.4622921 -0.003200978 -0.8867219
vn 0.4613776 -0.00137195 -0.8872028
vn 0.4632066 -0.00137195 -0.8862492
vn 0.4659502 -0.002286464 -0.884808
vn 0.4632066 -0.00137195 -0.8862492
vn 0.4668647 -0.00137195 -0.8843277
vn 0.4641212 -0.00137195 -0.8857707
vn 0.4677792 -0.000457406 -0.8838452
vn 0.4668647 -0.00137195 -0.8843277
vn 0.4641212 -0.00137195 -0.8857707
vn 0.460463 0.000457108 -0.8876787
vn 0.460463 0.000457108 -0.8876787
g model_car_106_matte_mirror_LOD1_0
f 3/3/3 2/2/2 1/1/1
f 4/4/4 3/3/3 1/1/1
f 7/7/7 6/6/6 5/5/5
f 6/6/6 8/8/8 5/5/5
f 11/11/11 10/10/10 9/9/9
f 12/12/12 11/11/11 9/9/9
f 10/10/10 13/13/13 9/9/9
f 16/16/16 15/15/15 14/14/14
f 14/14/14 18/18/18 17/17/17
f 17/17/17 18/18/18 19/19/19
f 18/18/18 20/20/20 19/19/19
f 23/23/23 22/22/22 21/21/21
f 21/21/21 22/22/22 24/24/24
f 22/22/22 25/25/25 24/24/24
f 28/28/28 27/27/27 26/26/26
f 29/29/29 28/28/28 26/26/26
f 32/32/32 31/31/31 30/30/30
f 33/33/33 32/32/32 30/30/30
f 36/36/36 35/35/35 34/34/34
f 37/37/37 36/36/36 34/34/34
f 38/38/38 37/37/37 34/34/34
f 41/41/41 40/40/40 39/39/39
f 43/43/43 39/39/39 42/42/42
f 43/43/43 42/42/42 44/44/44
f 45/45/45 43/43/43 44/44/44
f 48/48/48 47/47/47 46/46/46
f 48/48/48 46/46/46 49/49/49
f 50/50/50 48/48/48 49/49/49
