g model_car_106_body_hood_LOD1
v 0.5914349 0.6570148 1.694312
v 0.4257446 0.6406696 1.762963
v 0.5008503 0.7424505 1.473588
v 0.7073804 0.7573627 1.385612
v 0.3672537 0.5423808 1.990798
v 0.2419201 0.5306718 2.018204
v 0.2822632 0.6335698 1.797231
v 0.4750901 0.5506248 1.963834
v 0.3660691 0.5349599 1.995356
v 0.4783121 0.5439919 1.96633
v 0.3313119 0.7349189 1.528592
v 0.1478382 0.7339231 1.554258
v 0.1324188 0.6307175 1.8158
v -1.311302E-06 0.6298404 1.824916
v -1.311302E-06 0.7342712 1.562289
v -1.311302E-06 0.7885335 1.381225
v 0.1567677 0.788493 1.374241
v 0.3645714 0.7914183 1.346432
v 0.1571292 0.7850524 1.361771
v -1.311302E-06 0.7850848 1.36876
v 0.1568675 0.7397601 1.32972
v -1.311302E-06 0.7394416 1.336415
v 0.3631574 0.7878372 1.334745
v 0.3591797 0.7436163 1.304799
v 0.5316839 0.793747 1.285507
v 0.5339803 0.7523865 1.254841
v 0.6941656 0.8010305 1.21796
v 0.6897832 0.7625249 1.190252
v 0.7806943 0.7695007 1.145253
v 0.7750058 0.8052832 1.177663
v 0.6922659 0.8043253 1.230495
v 0.7726473 0.8085675 1.190589
v 0.5294954 0.7970015 1.297899
v 0.7816442 0.7975655 1.174355
v 0.7792479 0.8008496 1.18731
v 0.7132227 0.7527158 1.383038
v 0.5960845 0.6522654 1.692191
v 0.1161385 0.5231051 2.034889
v 0.1157364 0.5154386 2.039528
v -1.311302E-06 0.5135307 2.047977
v -1.311302E-06 0.5211325 2.043373
v 0.2410268 0.5230079 2.022711
v -0.5914348 0.6570148 1.694312
v -0.707383 0.7573627 1.385612
v -0.5008503 0.7424505 1.473588
v -0.4257445 0.6406696 1.762963
v -0.3672536 0.5423808 1.990798
v -0.2419199 0.5306718 2.018204
v -0.2822631 0.6335698 1.797231
v -0.47509 0.5506248 1.963834
v -0.366069 0.5349599 1.995356
v -0.4783121 0.5439919 1.96633
v -0.3313118 0.7349189 1.528592
v -0.1478381 0.7339231 1.554258
v -0.1324186 0.6307175 1.8158
v -1.311302E-06 0.6298404 1.824916
v -1.311302E-06 0.7342712 1.562289
v -1.311302E-06 0.7885335 1.381225
v -0.1567675 0.788493 1.374241
v -0.3645713 0.7914183 1.346432
v -0.1571292 0.7850524 1.361771
v -1.311302E-06 0.7850848 1.36876
v -0.1568674 0.7397601 1.32972
v -1.311302E-06 0.7394416 1.336415
v -0.3631573 0.7878372 1.334745
v -0.3591797 0.7436163 1.304799
v -0.5316837 0.793747 1.285507
v -0.5339802 0.7523865 1.254841
v -0.6941655 0.8010305 1.21796
v -0.6897832 0.7625249 1.190252
v -0.7806942 0.7695007 1.145253
v -0.7750056 0.8052832 1.177663
v -0.6922658 0.8043253 1.230495
v -0.7726472 0.8085675 1.190589
v -0.5294979 0.7970015 1.297899
v -0.781644 0.7975655 1.174355
v -0.7792478 0.8008496 1.18731
v -0.7132226 0.7527158 1.383038
v -0.5960844 0.6522654 1.692191
v -0.1161383 0.5231051 2.034889
v -1.311302E-06 0.5211325 2.043373
v -1.311302E-06 0.5135307 2.047977
v -0.1157363 0.5154386 2.039528
v -0.2410268 0.5230079 2.022711
vt 0.2351129 0.5687096
vt 0.1714318 0.5443441
vt 0.2043603 0.6603258
vt 0.2858292 0.6900958
vt 0.1476779 0.4507324
vt 0.09987947 0.4394622
vt 0.116444 0.5325022
vt 0.1883473 0.4611104
vt 0.1474273 0.4474235
vt 0.1900418 0.4588543
vt 0.1382426 0.6419364
vt 0.06729189 0.6346768
vt 0.05884919 0.5265964
vt 0.007731807 0.5241799
vt 0.01024857 0.6333132
vt 0.0123041 0.706179
vt 0.07287689 0.7071516
vt 0.1537643 0.7151531
vt 0.07312757 0.7121751
vt 0.0124545 0.7110621
vt 0.07285684 0.7335325
vt 0.01259488 0.7325398
vt 0.1533231 0.719946
vt 0.1504153 0.7403408
vt 0.2198118 0.7358487
vt 0.2181975 0.7557021
vt 0.2845558 0.7583893
vt 0.2801941 0.7763877
vt 0.3171935 0.7903152
vt 0.3172136 0.7714444
vt 0.2836233 0.7533458
vt 0.3159302 0.7668922
vt 0.2187991 0.7308954
vt 0.3205325 0.7740514
vt 0.319981 0.7677846
vt 0.2889476 0.6900256
vt 0.2376498 0.5684187
vt 0.05139917 0.4326238
vt 0.05132898 0.4291043
vt 0.006287926 0.4261865
vt 0.006338061 0.429746
vt 0.09968895 0.436053
vt 1.235121 0.5687096
vt 1.285827 0.6900958
vt 1.204368 0.6603258
vt 1.171439 0.5443441
vt 1.147686 0.4507324
vt 1.099887 0.4394622
vt 1.116442 0.5325022
vt 1.188345 0.4611104
vt 1.147435 0.4474235
vt 1.190039 0.4588543
vt 1.13824 0.6419364
vt 1.06729 0.6346768
vt 1.058847 0.5265964
vt 1.007729 0.5241799
vt 1.010246 0.6333132
vt 1.012302 0.706179
vt 1.072875 0.7071516
vt 1.153762 0.7151531
vt 1.073125 0.7121751
vt 1.012452 0.7110621
vt 1.072855 0.7335325
vt 1.012603 0.7325398
vt 1.153321 0.719946
vt 1.150423 0.7403408
vt 1.21982 0.7358487
vt 1.218195 0.7557021
vt 1.284564 0.7583893
vt 1.280192 0.7763877
vt 1.317191 0.7903152
vt 1.317211 0.7714444
vt 1.283621 0.7533458
vt 1.315928 0.7668922
vt 1.218807 0.7308954
vt 1.32053 0.7740514
vt 1.319979 0.7677846
vt 1.288945 0.6900256
vt 1.237647 0.5684187
vt 1.051397 0.4326238
vt 1.006336 0.429746
vt 1.006286 0.4261865
vt 1.051327 0.4291043
vt 1.099687 0.436053
vn 0.06155097 0.9357516 0.3472469
vn 0.05324012 0.9241164 0.3783838
vn 0.06155097 0.9440625 0.3239713
vn 0.06321317 0.9490491 0.3087231
vn 0.03994274 0.9124812 0.407164
vn 0.02498323 0.9041705 0.4264407
vn 0.03661841 0.9191299 0.392249
vn 0.05656445 0.9158056 0.3976186
vn 0.1562947 0.4836411 0.8611987
vn 0.5618644 0.5135602 0.6485093
vn 0.04492927 0.9424004 0.3314557
vn 0.02664536 0.9440625 0.3286883
vn 0.02498323 0.9141434 0.4046204
vn 5.066395E-05 0.9124812 0.4091185
vn 5.066395E-05 0.9440625 0.3297665
vn 5.066395E-05 0.9573599 0.2888981
vn 0.02498323 0.9556977 0.2932877
vn 0.04659146 0.9523733 0.3013541
vn -0.07807142 0.5733984 -0.8155483
vn 5.066395E-05 0.5783849 -0.815764
vn -0.07973355 0.5733984 -0.8153875
vn 5.066395E-05 0.5783849 -0.815764
vn -0.1744773 0.5684119 -0.8040308
vn -0.1761395 0.5684119 -0.8036684
vn -0.2891671 0.5617632 -0.7751158
vn -0.3008023 0.5617632 -0.7706751
vn -0.3589783 0.5650875 -0.7428396
vn -0.3623026 0.5650875 -0.741224
vn -0.3938839 0.5733984 -0.71838
vn -0.3938839 0.5733984 -0.71838
vn 0.0648753 0.9556977 0.2871116
vn 0.06321317 0.9573599 0.2818975
vn 0.06986183 0.9490491 0.3072868
vn 0.5302832 0.6747908 -0.5132807
vn 0.7430411 0.5717362 0.3478616
vn 0.7197707 0.5567767 0.4146442
vn 0.7014868 0.5384927 0.4668424
vn 0.02165884 0.8975217 0.4404382
vn 0.06819963 0.5102358 0.8573262
vn 5.066395E-05 0.5168845 0.8560551
vn 5.066395E-05 0.8958595 0.4443373
vn 0.1080918 0.5019251 0.8581302
vn -0.06144971 0.9357516 0.3472648
vn -0.06311184 0.9490491 0.3087439
vn -0.06144971 0.9440625 0.3239905
vn -0.05313885 0.9241164 0.378398
vn -0.03984147 0.9124812 0.4071739
vn -0.0248819 0.9041705 0.4264466
vn -0.03651714 0.9191299 0.3922585
vn -0.05646318 0.9158056 0.397633
vn -0.1561934 0.4836411 0.8612171
vn -0.5617632 0.5135602 0.6485969
vn -0.044828 0.9424004 0.3314693
vn -0.02654409 0.9440625 0.3286964
vn -0.0248819 0.9141434 0.4046267
vn 5.066395E-05 0.9124812 0.4091185
vn 5.066395E-05 0.9440625 0.3297665
vn 5.066395E-05 0.9573599 0.2888981
vn -0.0248819 0.9556977 0.2932963
vn -0.04649013 0.9523733 0.3013697
vn 0.07817268 0.5733984 -0.8155386
vn 5.066395E-05 0.5783849 -0.815764
vn 0.07983488 0.5733984 -0.8153777
vn 5.066395E-05 0.5783849 -0.815764
vn 0.1745786 0.5684119 -0.8040088
vn 0.1762408 0.5684119 -0.8036461
vn 0.2892684 0.5617632 -0.7750779
vn 0.3009036 0.5617632 -0.7706355
vn 0.3590796 0.5650875 -0.7427907
vn 0.3624039 0.5650875 -0.7411744
vn 0.3939852 0.5733984 -0.7183244
vn 0.3939852 0.5733984 -0.7183244
vn -0.06477404 0.9556977 0.2871344
vn -0.06311184 0.9573599 0.2819203
vn -0.06976056 0.9490491 0.3073098
vn -0.5301819 0.6747908 -0.5133854
vn -0.7429398 0.5717362 0.3480779
vn -0.7196694 0.5567767 0.41482
vn -0.7013856 0.5384927 0.4669945
vn -0.02155757 0.8975217 0.4404431
vn 5.066395E-05 0.8958595 0.4443373
vn 5.066395E-05 0.5168845 0.8560551
vn -0.06809837 0.5102358 0.8573343
vn -0.1079905 0.5019251 0.8581429
g model_car_106_body_hood_LOD1_0
f 3/3/3 2/2/2 1/1/1
f 4/4/4 3/3/3 1/1/1
f 2/2/2 5/5/5 1/1/1
f 6/6/6 5/5/5 2/2/2
f 7/7/7 6/6/6 2/2/2
f 5/5/5 8/8/8 1/1/1
f 8/8/8 5/5/5 9/9/9
f 10/10/10 8/8/8 9/9/9
f 8/8/8 10/10/10 1/1/1
f 11/11/11 7/7/7 2/2/2
f 3/3/3 11/11/11 2/2/2
f 11/11/11 12/12/12 7/7/7
f 12/12/12 13/13/13 7/7/7
f 7/7/7 13/13/13 6/6/6
f 14/14/14 13/13/13 12/12/12
f 15/15/15 14/14/14 12/12/12
f 16/16/16 15/15/15 12/12/12
f 17/17/17 16/16/16 12/12/12
f 17/17/17 12/12/12 11/11/11
f 18/18/18 17/17/17 11/11/11
f 11/11/11 3/3/3 18/18/18
f 16/16/16 17/17/17 19/19/19
f 20/20/20 16/16/16 19/19/19
f 20/20/20 19/19/19 21/21/21
f 22/22/22 20/20/20 21/21/21
f 19/19/19 23/23/23 21/21/21
f 17/17/17 18/18/18 23/23/23
f 19/19/19 17/17/17 23/23/23
f 23/23/23 24/24/24 21/21/21
f 24/24/24 23/23/23 25/25/25
f 23/23/23 18/18/18 25/25/25
f 26/26/26 24/24/24 25/25/25
f 26/26/26 25/25/25 27/27/27
f 28/28/28 26/26/26 27/27/27
f 28/28/28 27/27/27 29/29/29
f 27/27/27 30/30/30 29/29/29
f 27/27/27 31/31/31 30/30/30
f 31/31/31 32/32/32 30/30/30
f 18/18/18 33/33/33 25/25/25
f 33/33/33 31/31/31 27/27/27
f 25/25/25 33/33/33 27/27/27
f 3/3/3 31/31/31 33/33/33
f 32/32/32 31/31/31 3/3/3
f 4/4/4 32/32/32 3/3/3
f 30/30/30 32/32/32 34/34/34
f 30/30/30 34/34/34 29/29/29
f 32/32/32 35/35/35 34/34/34
f 35/35/35 32/32/32 4/4/4
f 36/36/36 35/35/35 4/4/4
f 37/37/37 36/36/36 4/4/4
f 1/1/1 37/37/37 4/4/4
f 10/10/10 37/37/37 1/1/1
f 3/3/3 33/33/33 18/18/18
f 40/40/40 39/39/39 38/38/38
f 41/41/41 40/40/40 38/38/38
f 38/38/38 39/39/39 6/6/6
f 39/39/39 42/42/42 6/6/6
f 5/5/5 6/6/6 42/42/42
f 9/9/9 5/5/5 42/42/42
f 38/38/38 13/13/13 41/41/41
f 13/13/13 38/38/38 6/6/6
f 13/13/13 14/14/14 41/41/41
f 45/45/45 44/44/44 43/43/43
f 46/46/46 45/45/45 43/43/43
f 47/47/47 46/46/46 43/43/43
f 47/47/47 48/48/48 46/46/46
f 48/48/48 49/49/49 46/46/46
f 50/50/50 47/47/47 43/43/43
f 47/47/47 50/50/50 51/51/51
f 50/50/50 52/52/52 51/51/51
f 52/52/52 50/50/50 43/43/43
f 53/53/53 45/45/45 46/46/46
f 49/49/49 53/53/53 46/46/46
f 54/54/54 53/53/53 49/49/49
f 55/55/55 54/54/54 49/49/49
f 55/55/55 49/49/49 48/48/48
f 55/55/55 56/56/56 54/54/54
f 56/56/56 57/57/57 54/54/54
f 57/57/57 58/58/58 54/54/54
f 58/58/58 59/59/59 54/54/54
f 54/54/54 59/59/59 53/53/53
f 59/59/59 60/60/60 53/53/53
f 45/45/45 53/53/53 60/60/60
f 59/59/59 58/58/58 61/61/61
f 58/58/58 62/62/62 61/61/61
f 61/61/61 62/62/62 63/63/63
f 62/62/62 64/64/64 63/63/63
f 65/65/65 61/61/61 63/63/63
f 59/59/59 61/61/61 65/65/65
f 60/60/60 59/59/59 65/65/65
f 66/66/66 65/65/65 63/63/63
f 65/65/65 66/66/66 67/67/67
f 60/60/60 65/65/65 67/67/67
f 66/66/66 68/68/68 67/67/67
f 67/67/67 68/68/68 69/69/69
f 68/68/68 70/70/70 69/69/69
f 69/69/69 70/70/70 71/71/71
f 72/72/72 69/69/69 71/71/71
f 73/73/73 69/69/69 72/72/72
f 74/74/74 73/73/73 72/72/72
f 75/75/75 60/60/60 67/67/67
f 75/75/75 67/67/67 69/69/69
f 73/73/73 75/75/75 69/69/69
f 73/73/73 45/45/45 75/75/75
f 73/73/73 74/74/74 45/45/45
f 74/74/74 44/44/44 45/45/45
f 74/74/74 72/72/72 76/76/76
f 76/76/76 72/72/72 71/71/71
f 77/77/77 74/74/74 76/76/76
f 74/74/74 77/77/77 44/44/44
f 77/77/77 78/78/78 44/44/44
f 78/78/78 79/79/79 44/44/44
f 79/79/79 43/43/43 44/44/44
f 79/79/79 52/52/52 43/43/43
f 75/75/75 45/45/45 60/60/60
f 82/82/82 81/81/81 80/80/80
f 83/83/83 82/82/82 80/80/80
f 83/83/83 80/80/80 48/48/48
f 84/84/84 83/83/83 48/48/48
f 48/48/48 47/47/47 84/84/84
f 47/47/47 51/51/51 84/84/84
f 55/55/55 80/80/80 81/81/81
f 80/80/80 55/55/55 48/48/48
f 56/56/56 55/55/55 81/81/81
