g Glass_5
v 0.4677144 1.121376 0.1215716
v 0.4094561 1.131117 0.1430649
v 0.3741468 1.170965 0.05654087
v 0.557096 0.9687248 0.3751399
v 0.2634194 1.178494 0.07759106
v 0.4785039 1.150367 0.0293086
v 0.5056977 1.134047 0.03886038
v 0.5324365 1.103853 0.09133935
v 0.6238372 0.9622277 0.3203089
v 0.2961738 1.138887 0.1681954
v 0.4721427 0.9749056 0.4239301
v 0.3381201 0.978763 0.4632273
v 0.5378917 0.7984382 0.6940274
v 0.6471629 0.7971177 0.6162499
v 0.7089326 0.7984382 0.5408286
v 0.3786605 0.7984383 0.7479693
v 0.1525896 1.141551 0.185907
v 0.148692 1.179881 0.08724821
v 0.0004027091 1.180969 0.09562986
v 0.1671051 0.9815055 0.4912369
v 0.1786035 0.7933527 0.7853078
v 0.000402789 0.9826519 0.5029727
v 0.0004027286 1.141773 0.1918327
v 0.0004028425 0.7931869 0.7972187
v 0.511898 1.062174 -0.9599701
v 0.6137709 0.9443941 -1.008927
v 0.56946 1.029989 -0.9022469
v 0.5253006 1.089897 -0.8413411
v 0.492748 1.12432 -0.8105835
v 0.4563513 1.147714 -0.7908
v 0.4195537 1.099296 -0.9797493
v 0.6240664 0.9063827 -1.0685
v 0.5498092 0.9340672 -1.219292
v 0.6202886 0.8868676 -1.126443
v 0.4485468 0.9503411 -1.347917
v 0.3485538 1.112817 -0.9864706
v 0.3444788 1.176264 -0.7795675
v 0.6016823 0.8758268 -1.236283
v 0.5554709 0.8756908 -1.348179
v 0.4996997 0.8752175 -1.461446
v 0.4290772 0.8763749 -1.552111
v 0.3572074 0.9566954 -1.405714
v 0.0004024447 1.126819 -0.9935192
v 0.0004025008 1.191718 -0.7821144
v 0.0004023203 0.9634641 -1.455605
v 0.258088 0.8753964 -1.644486
v 0.3613079 0.8752895 -1.599885
v 0.1246515 0.8755345 -1.673117
v 0.000402259 0.8755977 -1.680264
v 0.4047602 1.164747 -0.7850799
v 0.5184984 1.136313 -0.08531877
v 0.5067137 1.149904 -0.1580218
v 0.5763415 1.066061 -0.1288305
v 0.4976868 1.155508 -0.2409554
v 0.5371337 1.111658 -0.01632654
v 0.5562907 1.082375 0.04334372
v 0.5837054 1.03471 0.1232268
v 0.734904 0.8135086 0.07453696
v 0.7349674 0.832733 -0.4137702
v 0.5658302 1.075806 -0.3588682
v 0.4964468 1.155763 -0.3263652
v 0.7236095 0.8118942 0.2942014
v 0.5705175 1.066787 -0.5194547
v 0.4950829 1.149874 -0.4874926
v 0.5116597 1.13052 -0.5514897
v 0.5371143 1.101217 -0.5947847
v 0.5753775 1.05515 -0.6403744
v 0.6597782 0.9434505 -0.7075598
v 0.7224959 0.8567767 -0.7263107
v 0.6435856 0.9343418 0.2761313
v -0.466909 1.121376 0.1215718
v -0.3733414 1.170965 0.05654105
v -0.4086507 1.131117 0.1430651
v -0.5562905 0.9687248 0.3751402
v -0.262614 1.178494 0.07759118
v -0.4776986 1.150367 0.02930882
v -0.5048923 1.134047 0.03886062
v -0.5316311 1.103853 0.0913396
v -0.6230317 0.9622278 0.3203092
v -0.2953684 1.138887 0.1681956
v -0.4713372 0.9749056 0.4239303
v -0.3373146 0.9787631 0.4632275
v -0.5370861 0.7984383 0.6940277
v -0.6463572 0.7971178 0.6162503
v -0.7081271 0.7984383 0.540829
v -0.3778548 0.7984384 0.7479695
v -0.1517842 1.141551 0.1859071
v -0.1478866 1.179881 0.08724829
v 0.0004027091 1.180969 0.09562986
v -0.1662996 0.9815056 0.491237
v -0.1777977 0.7933527 0.7853078
v 0.000402789 0.9826519 0.5029727
v 0.0004027286 1.141773 0.1918327
v 0.0004028425 0.7931869 0.7972187
v -0.5110929 1.062174 -0.9599699
v -0.568655 1.029989 -0.9022467
v -0.6129661 0.9443942 -1.008926
v -0.5244955 1.089898 -0.8413408
v -0.491943 1.12432 -0.8105832
v -0.4555463 1.147714 -0.7907998
v -0.4187488 1.099296 -0.9797491
v -0.6232617 0.9063828 -1.0685
v -0.5490044 0.9340672 -1.219292
v -0.6194838 0.8868676 -1.126443
v -0.4477421 0.9503412 -1.347917
v -0.3477489 1.112817 -0.9864703
v -0.3436738 1.176265 -0.7795673
v -0.6008776 0.8758268 -1.236283
v -0.5546662 0.8756909 -1.348179
v -0.4988951 0.8752176 -1.461446
v -0.4282726 0.876375 -1.55211
v -0.3564028 0.9566954 -1.405714
v 0.0004024447 1.126819 -0.9935192
v 0.0004025008 1.191718 -0.7821144
v 0.0004023203 0.9634641 -1.455605
v -0.2572834 0.8753964 -1.644486
v -0.3605033 0.8752896 -1.599885
v -0.123847 0.8755345 -1.673117
v 0.000402259 0.8755977 -1.680264
v -0.4039552 1.164747 -0.7850797
v -0.517693 1.136313 -0.08531853
v -0.575536 1.066061 -0.1288302
v -0.5059084 1.149904 -0.1580216
v -0.4968816 1.155508 -0.2409551
v -0.5363283 1.111658 -0.01632628
v -0.5554852 1.082375 0.04334399
v -0.5829 1.03471 0.1232271
v -0.7340987 0.8135087 0.07453731
v -0.7341623 0.8327332 -0.4137698
v -0.565025 1.075806 -0.3588679
v -0.4956416 1.155763 -0.326365
v -0.7228041 0.8118944 0.2942018
v -0.5697123 1.066787 -0.5194544
v -0.4942777 1.149874 -0.4874924
v -0.5108546 1.13052 -0.5514894
v -0.5363093 1.101217 -0.5947845
v -0.5745724 1.05515 -0.6403741
v -0.6589733 0.9434506 -0.7075595
v -0.7216909 0.8567768 -0.7263103
v -0.6427801 0.934342 0.2761316
vt 0.9328374 0.1370614
vt 0.9256403 0.1709622
vt 0.979139 0.1861004
vt 0.7669317 0.09218773
vt 0.97118 0.2514439
vt 0.9856621 0.1261327
vt 0.9773206 0.1128102
vt 0.9422199 0.09718516
vt 0.7912681 0.05052167
vt 0.9166865 0.2323972
vt 0.7457562 0.1421332
vt 0.7293718 0.2121495
vt 0.5658637 0.1061455
vt 0.6022233 0.04140489
vt 0.6388074 0.001274171
vt 0.5418979 0.1926143
vt 0.9068201 0.3016557
vt 0.9638287 0.3067701
vt 0.9600929 0.3806404
vt 0.7143962 0.2911352
vt 0.5202326 0.2895064
vt 0.7071103 0.373074
vt 0.9023249 0.3772224
vt 0.5123973 0.3774716
vt 0.4152618 0.6564389
vt 0.370764 0.7309585
vt 0.4406191 0.6965316
vt 0.4825415 0.665731
vt 0.5011629 0.6446692
vt 0.5084158 0.6240411
vt 0.4026971 0.6047791
vt 0.3337681 0.7411743
vt 0.2623962 0.6839879
vt 0.3000633 0.7385721
vt 0.1966663 0.6249499
vt 0.3981739 0.5650587
vt 0.5123973 0.5607124
vt 0.2419989 0.7221316
vt 0.185046 0.6904172
vt 0.1302741 0.6549261
vt 0.08201865 0.6162132
vt 0.163301 0.5743744
vt 0.3905149 0.3700125
vt 0.5089967 0.3677607
vt 0.1315395 0.3749346
vt 0.02842529 0.5213662
vt 0.05452174 0.5787407
vt 0.0109583 0.4468868
vt 0.005629048 0.3773276
vt 0.5111488 0.5948705
vt 0.6829208 0.8355943
vt 0.6521084 0.8302569
vt 0.6668287 0.8738313
vt 0.6172005 0.8285919
vt 0.7125108 0.8468268
vt 0.7382407 0.8594315
vt 0.7729435 0.880356
vt 0.7586086 0.9919758
vt 0.6821994 0.9941837
vt 0.5702754 0.8733727
vt 0.5814162 0.8297951
vt 0.8502198 0.9841296
vt 0.5033433 0.8813652
vt 0.514037 0.8345594
vt 0.4879123 0.846929
vt 0.4707143 0.8637807
vt 0.4544777 0.8901357
vt 0.4296184 0.9496029
vt 0.4349032 0.9939941
vt 0.8394936 0.9256975
vt 0.9328374 0.1370614
vt 0.979139 0.1861004
vt 0.9256403 0.1709622
vt 0.7669317 0.09218773
vt 0.97118 0.2514439
vt 0.9856621 0.1261327
vt 0.9773206 0.1128102
vt 0.9422199 0.09718516
vt 0.7912681 0.05052167
vt 0.9166865 0.2323972
vt 0.7457562 0.1421332
vt 0.7293718 0.2121495
vt 0.5658637 0.1061455
vt 0.6022233 0.04140489
vt 0.6388074 0.001274171
vt 0.5418979 0.1926143
vt 0.9068201 0.3016557
vt 0.9638287 0.3067701
vt 0.9600929 0.3806404
vt 0.7143962 0.2911352
vt 0.5202326 0.2895064
vt 0.7071103 0.373074
vt 0.9023249 0.3772224
vt 0.5123973 0.3774716
vt 0.4152618 0.6564389
vt 0.4406191 0.6965316
vt 0.370764 0.7309585
vt 0.4825415 0.665731
vt 0.5011629 0.6446692
vt 0.5084158 0.6240411
vt 0.4026971 0.6047791
vt 0.3337681 0.7411743
vt 0.2623962 0.6839879
vt 0.3000633 0.7385721
vt 0.1966663 0.6249499
vt 0.3981739 0.5650587
vt 0.5123973 0.5607124
vt 0.2419989 0.7221316
vt 0.185046 0.6904172
vt 0.1302741 0.6549261
vt 0.08201865 0.6162132
vt 0.163301 0.5743744
vt 0.3905149 0.3700125
vt 0.5089967 0.3677607
vt 0.1315395 0.3749346
vt 0.02842529 0.5213662
vt 0.05452174 0.5787407
vt 0.0109583 0.4468868
vt 0.005629048 0.3773276
vt 0.5111488 0.5948705
vt 0.6829208 0.8355943
vt 0.6668287 0.8738313
vt 0.6521084 0.8302569
vt 0.6172005 0.8285919
vt 0.7125108 0.8468268
vt 0.7382407 0.8594315
vt 0.7729435 0.880356
vt 0.7586086 0.9919758
vt 0.6821994 0.9941837
vt 0.5702754 0.8733727
vt 0.5814162 0.8297951
vt 0.8502198 0.9841296
vt 0.5033433 0.8813652
vt 0.514037 0.8345594
vt 0.4879123 0.846929
vt 0.4707143 0.8637807
vt 0.4544777 0.8901357
vt 0.4296184 0.9496029
vt 0.4349032 0.9939941
vt 0.8394936 0.9256975
vn 0.3283737 0.8762023 0.352761
vn 0.2196376 0.8958762 0.3862191
vn 0.1906443 0.9185008 0.3464259
vn 0.3634343 0.8319527 0.4192497
vn 0.08464416 0.922807 0.3758491
vn 0.3328194 0.8877945 0.3178871
vn 0.3950306 0.863454 0.3136845
vn 0.3896219 0.8569407 0.3374129
vn 0.4059672 0.8242128 0.3947958
vn 0.1101199 0.9039973 0.4131133
vn 0.2411783 0.853251 0.4623806
vn 0.1293624 0.8632034 0.4880013
vn 0.244003 0.8378912 0.4882631
vn 0.3846897 0.8147137 0.4338841
vn 0.4574447 0.795177 0.3980424
vn 0.1256745 0.8438501 0.521654
vn 0.0457827 0.9083291 0.415743
vn 0.04118478 0.9298338 0.3656678
vn 0 0.9285837 0.371123
vn 0.06472246 0.8656617 0.4964281
vn 0.05703482 0.841156 0.5377765
vn 0 0.8665015 0.4991746
vn 0 0.9072311 0.4206325
vn 0 0.8407795 0.5413777
vn 0.5400534 0.7871115 -0.2979897
vn 0.6462659 0.6923644 -0.3208923
vn 0.656936 0.7074617 -0.2606398
vn 0.6012202 0.7603945 -0.2456307
vn 0.4334025 0.8504254 -0.2982261
vn 0.3266165 0.8973634 -0.2967499
vn 0.3081958 0.8952398 -0.3218092
vn 0.7057182 0.6617813 -0.2529969
vn 0.6099624 0.7449238 -0.2702488
vn 0.7382899 0.630347 -0.2399807
vn 0.4135506 0.8475695 -0.3325686
vn 0.1281562 0.9388053 -0.3197197
vn 0.1008953 0.9497058 -0.2964441
vn 0.6904093 0.683808 -0.2360965
vn 0.623968 0.7217768 -0.2995029
vn 0.4171463 0.8595564 -0.2952145
vn 0.304128 0.8839978 -0.3550409
vn 0.1750493 0.9209455 -0.3481626
vn 0 0.9482101 -0.317644
vn 0 0.9559682 -0.2934703
vn 0 0.9396095 -0.3422483
vn 0.09550358 0.9307899 -0.3528585
vn 0.1931476 0.9063107 -0.3758922
vn 0.05369513 0.936056 -0.3477297
vn 0 0.9313046 -0.3642415
vn 0.2025132 0.9327658 -0.298222
vn 0.7736964 0.6335313 0.005656912
vn 0.7739378 0.6325931 -0.0290909
vn 0.8048406 0.5934115 0.009711785
vn 0.761057 0.6484736 -0.0165605
vn 0.7934955 0.6078271 0.03018396
vn 0.8252825 0.5630994 0.04275535
vn 0.8303123 0.5555423 0.0442073
vn 0.8323349 0.5529244 0.0386427
vn 0.823131 0.5678271 0.005272008
vn 0.7860959 0.6180007 -0.01132502
vn 0.7507181 0.660493 -0.0130898
vn 0.8309347 0.5547083 0.04296743
vn 0.7786522 0.6272934 -0.01427685
vn 0.7353274 0.6772476 -0.0250849
vn 0.7385939 0.6739562 -0.01619085
vn 0.7468904 0.6643769 -0.02753335
vn 0.7795067 0.6257274 -0.02888699
vn 0.8100943 0.5862789 0.00493212
vn 0.8113733 0.584393 0.01258048
vn 0.8342496 0.5503054 0.03451823
vn -0.3283734 0.8762024 0.3527608
vn -0.1906442 0.9185008 0.346426
vn -0.2196374 0.8958762 0.3862191
vn -0.3634336 0.8319528 0.41925
vn -0.08464403 0.9228071 0.375849
vn -0.3328196 0.8877943 0.3178873
vn -0.3950309 0.8634539 0.3136844
vn -0.3896217 0.856941 0.3374122
vn -0.4059666 0.824213 0.3947964
vn -0.1101198 0.9039973 0.4131132
vn -0.241178 0.8532511 0.4623805
vn -0.1293623 0.8632035 0.4880011
vn -0.2440026 0.8378909 0.4882638
vn -0.384689 0.8147138 0.4338846
vn -0.457444 0.7951776 0.3980421
vn -0.125674 0.8438501 0.5216542
vn -0.04578249 0.9083293 0.4157425
vn -0.04118462 0.9298342 0.3656669
vn 0 0.9285837 0.371123
vn -0.06472198 0.8656617 0.496428
vn -0.05703422 0.8411559 0.5377768
vn 0 0.8665015 0.4991746
vn 0 0.9072311 0.4206325
vn 0 0.8407795 0.5413777
vn -0.5400534 0.7871119 -0.2979884
vn -0.6569356 0.7074625 -0.2606383
vn -0.6462648 0.6923652 -0.3208929
vn -0.601221 0.7603949 -0.2456278
vn -0.4334013 0.8504266 -0.2982248
vn -0.3266165 0.8973635 -0.2967496
vn -0.3081963 0.8952397 -0.321809
vn -0.7057172 0.6617821 -0.2529975
vn -0.6099619 0.7449243 -0.2702486
vn -0.7382889 0.6303467 -0.2399841
vn -0.413551 0.8475693 -0.3325685
vn -0.1281563 0.9388051 -0.31972
vn -0.1008951 0.9497059 -0.2964436
vn -0.6904086 0.6838092 -0.2360954
vn -0.6239668 0.7217781 -0.2995026
vn -0.4171475 0.859556 -0.2952142
vn -0.3041289 0.8839978 -0.3550402
vn -0.1750497 0.9209455 -0.3481623
vn 0 0.9482101 -0.317644
vn 0 0.9559682 -0.2934703
vn 0 0.9396095 -0.3422483
vn -0.09550325 0.9307899 -0.3528585
vn -0.1931471 0.906311 -0.3758916
vn -0.05369516 0.9360558 -0.3477304
vn 0 0.9313046 -0.3642415
vn -0.2025131 0.932766 -0.2982216
vn -0.7736959 0.6335319 0.005656917
vn -0.8048403 0.593412 0.009712227
vn -0.773937 0.6325941 -0.02908983
vn -0.761058 0.6484726 -0.01655784
vn -0.7934961 0.6078264 0.03018438
vn -0.8252805 0.5631021 0.04275547
vn -0.830312 0.5555428 0.04420765
vn -0.8323349 0.5529243 0.03864328
vn -0.8231306 0.5678276 0.005272446
vn -0.7860959 0.6180007 -0.01132434
vn -0.7507182 0.6604928 -0.01308899
vn -0.8309346 0.5547084 0.04296838
vn -0.7786522 0.6272934 -0.0142762
vn -0.735327 0.6772481 -0.02508565
vn -0.7385939 0.673956 -0.01619219
vn -0.7468917 0.6643755 -0.02753151
vn -0.7795063 0.6257281 -0.02888464
vn -0.8100942 0.586279 0.00493252
vn -0.8113737 0.5843924 0.01258033
vn -0.834249 0.5503062 0.03451896
g Glass_5_0
f 3/3/3 2/2/2 1/1/1
f 4/4/4 1/1/1 2/2/2
f 5/5/5 2/2/2 3/3/3
f 6/6/6 3/3/3 1/1/1
f 7/7/7 6/6/6 1/1/1
f 8/8/8 7/7/7 1/1/1
f 9/9/9 8/8/8 1/1/1
f 4/4/4 9/9/9 1/1/1
f 10/10/10 2/2/2 5/5/5
f 2/2/2 10/10/10 11/11/11
f 11/11/11 4/4/4 2/2/2
f 12/12/12 11/11/11 10/10/10
f 12/12/12 13/13/13 11/11/11
f 14/14/14 4/4/4 11/11/11
f 13/13/13 14/14/14 11/11/11
f 15/15/15 4/4/4 14/14/14
f 9/9/9 4/4/4 15/15/15
f 16/16/16 13/13/13 12/12/12
f 10/10/10 17/17/17 12/12/12
f 10/10/10 18/18/18 17/17/17
f 5/5/5 18/18/18 10/10/10
f 19/19/19 17/17/17 18/18/18
f 17/17/17 20/20/20 12/12/12
f 12/12/12 20/20/20 16/16/16
f 16/16/16 20/20/20 21/21/21
f 21/21/21 20/20/20 22/22/22
f 23/23/23 22/22/22 20/20/20
f 17/17/17 23/23/23 20/20/20
f 23/23/23 17/17/17 19/19/19
f 24/24/24 21/21/21 22/22/22
f 27/27/27 26/26/26 25/25/25
f 28/28/28 27/27/27 25/25/25
f 28/28/28 25/25/25 29/29/29
f 30/30/30 29/29/29 25/25/25
f 31/31/31 30/30/30 25/25/25
f 26/26/26 32/32/32 25/25/25
f 33/33/33 25/25/25 32/32/32
f 25/25/25 33/33/33 31/31/31
f 33/33/33 32/32/32 34/34/34
f 31/31/31 33/33/33 35/35/35
f 31/31/31 35/35/35 36/36/36
f 37/37/37 31/31/31 36/36/36
f 33/33/33 34/34/34 38/38/38
f 33/33/33 38/38/38 39/39/39
f 39/39/39 40/40/40 33/33/33
f 33/33/33 40/40/40 41/41/41
f 35/35/35 33/33/33 41/41/41
f 41/41/41 42/42/42 35/35/35
f 42/42/42 36/36/36 35/35/35
f 43/43/43 36/36/36 42/42/42
f 36/36/36 43/43/43 37/37/37
f 43/43/43 44/44/44 37/37/37
f 45/45/45 43/43/43 42/42/42
f 46/46/46 45/45/45 42/42/42
f 46/46/46 42/42/42 47/47/47
f 47/47/47 42/42/42 41/41/41
f 48/48/48 45/45/45 46/46/46
f 49/49/49 45/45/45 48/48/48
f 50/50/50 31/31/31 37/37/37
f 50/50/50 30/30/30 31/31/31
f 53/53/53 52/52/52 51/51/51
f 53/53/53 54/54/54 52/52/52
f 53/53/53 51/51/51 55/55/55
f 55/55/55 56/56/56 53/53/53
f 53/53/53 56/56/56 57/57/57
f 57/57/57 58/58/58 53/53/53
f 58/58/58 59/59/59 53/53/53
f 59/59/59 60/60/60 53/53/53
f 60/60/60 61/61/61 53/53/53
f 54/54/54 53/53/53 61/61/61
f 58/58/58 57/57/57 62/62/62
f 63/63/63 60/60/60 59/59/59
f 60/60/60 63/63/63 61/61/61
f 63/63/63 64/64/64 61/61/61
f 63/63/63 65/65/65 64/64/64
f 63/63/63 66/66/66 65/65/65
f 66/66/66 63/63/63 67/67/67
f 67/67/67 63/63/63 68/68/68
f 59/59/59 68/68/68 63/63/63
f 59/59/59 69/69/69 68/68/68
f 70/70/70 62/62/62 57/57/57
f 73/73/73 72/72/72 71/71/71
f 71/71/71 74/74/74 73/73/73
f 73/73/73 75/75/75 72/72/72
f 72/72/72 76/76/76 71/71/71
f 76/76/76 77/77/77 71/71/71
f 77/77/77 78/78/78 71/71/71
f 78/78/78 79/79/79 71/71/71
f 79/79/79 74/74/74 71/71/71
f 73/73/73 80/80/80 75/75/75
f 80/80/80 73/73/73 81/81/81
f 74/74/74 81/81/81 73/73/73
f 81/81/81 82/82/82 80/80/80
f 83/83/83 82/82/82 81/81/81
f 74/74/74 84/84/84 81/81/81
f 84/84/84 83/83/83 81/81/81
f 74/74/74 85/85/85 84/84/84
f 74/74/74 79/79/79 85/85/85
f 83/83/83 86/86/86 82/82/82
f 87/87/87 80/80/80 82/82/82
f 88/88/88 80/80/80 87/87/87
f 88/88/88 75/75/75 80/80/80
f 87/87/87 89/89/89 88/88/88
f 90/90/90 87/87/87 82/82/82
f 90/90/90 82/82/82 86/86/86
f 90/90/90 86/86/86 91/91/91
f 90/90/90 91/91/91 92/92/92
f 92/92/92 93/93/93 90/90/90
f 93/93/93 87/87/87 90/90/90
f 87/87/87 93/93/93 89/89/89
f 91/91/91 94/94/94 92/92/92
f 97/97/97 96/96/96 95/95/95
f 96/96/96 98/98/98 95/95/95
f 95/95/95 98/98/98 99/99/99
f 99/99/99 100/100/100 95/95/95
f 100/100/100 101/101/101 95/95/95
f 102/102/102 97/97/97 95/95/95
f 95/95/95 103/103/103 102/102/102
f 103/103/103 95/95/95 101/101/101
f 102/102/102 103/103/103 104/104/104
f 103/103/103 101/101/101 105/105/105
f 105/105/105 101/101/101 106/106/106
f 101/101/101 107/107/107 106/106/106
f 104/104/104 103/103/103 108/108/108
f 108/108/108 103/103/103 109/109/109
f 110/110/110 109/109/109 103/103/103
f 110/110/110 103/103/103 111/111/111
f 103/103/103 105/105/105 111/111/111
f 112/112/112 111/111/111 105/105/105
f 106/106/106 112/112/112 105/105/105
f 106/106/106 113/113/113 112/112/112
f 113/113/113 106/106/106 107/107/107
f 114/114/114 113/113/113 107/107/107
f 113/113/113 115/115/115 112/112/112
f 115/115/115 116/116/116 112/112/112
f 112/112/112 116/116/116 117/117/117
f 112/112/112 117/117/117 111/111/111
f 115/115/115 118/118/118 116/116/116
f 115/115/115 119/119/119 118/118/118
f 101/101/101 120/120/120 107/107/107
f 100/100/100 120/120/120 101/101/101
f 123/123/123 122/122/122 121/121/121
f 124/124/124 122/122/122 123/123/123
f 121/121/121 122/122/122 125/125/125
f 126/126/126 125/125/125 122/122/122
f 126/126/126 122/122/122 127/127/127
f 128/128/128 127/127/127 122/122/122
f 129/129/129 128/128/128 122/122/122
f 130/130/130 129/129/129 122/122/122
f 131/131/131 130/130/130 122/122/122
f 122/122/122 124/124/124 131/131/131
f 127/127/127 128/128/128 132/132/132
f 130/130/130 133/133/133 129/129/129
f 133/133/133 130/130/130 131/131/131
f 134/134/134 133/133/133 131/131/131
f 135/135/135 133/133/133 134/134/134
f 136/136/136 133/133/133 135/135/135
f 133/133/133 136/136/136 137/137/137
f 133/133/133 137/137/137 138/138/138
f 138/138/138 129/129/129 133/133/133
f 139/139/139 129/129/129 138/138/138
f 132/132/132 140/140/140 127/127/127
