g ref_5
v 0.7490941 0.69483 1.646541
v 0.7556002 0.6749718 1.685346
v 0.7193967 0.7017175 1.719563
v 0.7190923 0.7092199 1.630218
v 0.7507358 0.6529838 1.737371
v 0.7088176 0.6816302 1.794446
v 0.6526321 0.7198489 1.719563
v 0.6901579 0.7167677 1.627342
v 0.5847039 0.7164227 1.631626
v 0.5349944 0.7127606 1.638592
v 0.7356532 0.6398976 1.775122
v 0.7019213 0.6503756 1.834108
v 0.6540334 0.7110968 1.804977
v 0.5298214 0.707874 1.719563
v 0.4824953 0.7060169 1.650381
v 0.4746653 0.6922671 1.705629
v 0.5292661 0.6848003 1.829852
v 0.6266555 0.6482533 1.870694
v 0.6740389 0.6032827 1.878321
v 0.6110005 0.5974365 1.915939
v 0.5300581 0.6477125 1.887395
v 0.5283187 0.5936003 1.939177
v 0.4768246 0.5991785 1.931201
v 0.4742608 0.6541913 1.825711
v 0.4711396 0.6300475 1.879138
v 0.7019213 0.6503756 1.834108
v 0.7118816 0.6208795 1.833241
v 0.7019213 0.6503756 1.834108
v 0.7356532 0.6398976 1.775122
v -0.7482881 0.6948301 1.646542
v -0.7185906 0.7017176 1.719564
v -0.7547942 0.6749719 1.685346
v -0.7182863 0.7092201 1.630219
v -0.7499297 0.652984 1.737372
v -0.7080113 0.6816303 1.794447
v -0.651826 0.719849 1.719564
v -0.689352 0.7167678 1.627343
v -0.5838979 0.7164229 1.631626
v -0.5341884 0.7127607 1.638592
v -0.7348471 0.6398978 1.775122
v -0.7011151 0.6503757 1.834109
v -0.6532272 0.7110969 1.804977
v -0.5290153 0.7078741 1.719564
v -0.4816892 0.706017 1.650382
v -0.4738592 0.6922672 1.70563
v -0.5284599 0.6848003 1.829852
v -0.6258492 0.6482534 1.870695
v -0.6732327 0.6032828 1.878322
v -0.6101942 0.5974365 1.91594
v -0.5292518 0.6477126 1.887395
v -0.5275125 0.5936003 1.939177
v -0.4760184 0.5991786 1.931201
v -0.4734547 0.6541913 1.825712
v -0.4703334 0.6300476 1.879138
v -0.7011151 0.6503757 1.834109
v -0.7110754 0.6208796 1.833242
v -0.7348471 0.6398978 1.775122
v -0.7011151 0.6503757 1.834109
vt 0.9846258 0.861156
vt 0.9887885 0.8786729
vt 0.9672316 0.888117
vt 0.9705994 0.8509318
vt 0.9846481 0.9129105
vt 0.9609262 0.9199892
vt 0.9381281 0.8850334
vt 0.9564183 0.8478535
vt 0.9102452 0.8481869
vt 0.8879721 0.8521275
vt 0.9819294 0.9229253
vt 0.9596453 0.9409698
vt 0.9370351 0.9190288
vt 0.8860749 0.8862482
vt 0.8656859 0.8626432
vt 0.8623819 0.8884737
vt 0.886615 0.9336842
vt 0.9282591 0.9563308
vt 0.9595367 0.9655011
vt 0.9245653 0.9850819
vt 0.8874085 0.9622689
vt 0.8876348 0.9934693
vt 0.8685708 0.9943436
vt 0.8615026 0.9372647
vt 0.8615505 0.963769
vt 0.9596453 0.9409698
vt 0.9782705 0.9315827
vt 0.9596453 0.9409698
vt 0.9819294 0.9229253
vt 0.9846258 0.861156
vt 0.9672316 0.888117
vt 0.9887885 0.8786729
vt 0.9705994 0.8509318
vt 0.9846481 0.9129105
vt 0.9609262 0.9199892
vt 0.9381281 0.8850334
vt 0.9564183 0.8478535
vt 0.9102452 0.8481869
vt 0.8879721 0.8521275
vt 0.9819294 0.9229253
vt 0.9596453 0.9409698
vt 0.9370351 0.9190288
vt 0.8860749 0.8862482
vt 0.8656859 0.8626432
vt 0.8623819 0.8884737
vt 0.886615 0.9336842
vt 0.9282591 0.9563308
vt 0.9595367 0.9655011
vt 0.9245653 0.9850819
vt 0.8874085 0.9622689
vt 0.8876348 0.9934693
vt 0.8685708 0.9943436
vt 0.8615026 0.9372647
vt 0.8615505 0.963769
vt 0.9596453 0.9409698
vt 0.9782705 0.9315827
vt 0.9819294 0.9229253
vt 0.9596453 0.9409698
vn 0.50644 0.8530934 0.1254999
vn 0.7211633 0.641462 0.2616294
vn 0.503607 0.8337311 0.2264339
vn 0.3093576 0.9480762 0.0738196
vn 0.7803255 0.5295101 0.332733
vn 0.6426548 0.6526492 0.4013025
vn 0.1005564 0.9907125 0.09152655
vn 0.1514617 0.9880487 0.02861985
vn -0.05040812 0.9987287 2.670089E-05
vn -0.09855111 0.9941529 0.04413303
vn 0.83789 0.3253832 0.4382534
vn 0.6286717 0.4507904 0.6336875
vn 0.2062288 0.8908505 0.4047902
vn -0.1964891 0.9707934 0.1376675
vn -0.194321 0.9751115 0.1067563
vn -0.3397076 0.918602 0.2019137
vn -0.2483974 0.8754881 0.4145109
vn 0.2124554 0.6497359 0.729867
vn 0.4359817 0.4831096 0.7592925
vn 0.2266338 0.6230593 0.7486215
vn -0.08508572 0.792055 0.6044911
vn 0.06346893 0.6889172 0.722056
vn -0.1592096 0.751981 0.6396693
vn -0.434815 0.8257026 0.359376
vn -0.3138573 0.8394641 0.4436143
vn 0.6286717 0.4507904 0.6336875
vn 0.7827349 0.247527 0.5710136
vn 0.6286717 0.4507904 0.6336875
vn 0.83789 0.3253832 0.4382534
vn -0.5064401 0.8530933 0.1255003
vn -0.5036066 0.8337311 0.2264352
vn -0.7211632 0.6414623 0.2616293
vn -0.3093572 0.9480764 0.07381988
vn -0.7803247 0.5295098 0.3327354
vn -0.6426542 0.6526489 0.4013041
vn -0.1005565 0.9907125 0.09152678
vn -0.1514604 0.988049 0.02861934
vn 0.05040792 0.9987288 2.747373E-05
vn 0.09855103 0.9941528 0.044134
vn -0.8378881 0.3253837 0.4382567
vn -0.6286699 0.450792 0.6336883
vn -0.2062291 0.8908507 0.4047897
vn 0.1964893 0.9707932 0.1376677
vn 0.1943209 0.9751115 0.1067564
vn 0.3397079 0.9186021 0.2019126
vn 0.2483981 0.8754882 0.4145104
vn -0.2124554 0.6497355 0.7298675
vn -0.4359832 0.4831069 0.7592934
vn -0.2266334 0.6230582 0.7486226
vn 0.08508734 0.7920548 0.6044909
vn -0.06346878 0.6889169 0.7220563
vn 0.1592091 0.751981 0.6396695
vn 0.4348146 0.8257025 0.3593765
vn 0.3138589 0.8394632 0.4436149
vn -0.6286699 0.450792 0.6336883
vn -0.7827317 0.2475323 0.5710157
vn -0.8378881 0.3253837 0.4382567
vn -0.6286699 0.450792 0.6336883
g ref_5_0
f 3/3/3 2/2/2 1/1/1
f 4/4/4 3/3/3 1/1/1
f 2/2/2 3/3/3 5/5/5
f 6/6/6 5/5/5 3/3/3
f 3/3/3 7/7/7 6/6/6
f 3/3/3 4/4/4 7/7/7
f 8/8/8 7/7/7 4/4/4
f 7/7/7 8/8/8 9/9/9
f 9/9/9 10/10/10 7/7/7
f 5/5/5 6/6/6 11/11/11
f 12/12/12 11/11/11 6/6/6
f 6/6/6 13/13/13 12/12/12
f 13/13/13 6/6/6 7/7/7
f 7/7/7 14/14/14 13/13/13
f 14/14/14 7/7/7 10/10/10
f 10/10/10 15/15/15 14/14/14
f 14/14/14 15/15/15 16/16/16
f 14/14/14 16/16/16 17/17/17
f 17/17/17 13/13/13 14/14/14
f 13/13/13 17/17/17 18/18/18
f 18/18/18 12/12/12 13/13/13
f 12/12/12 18/18/18 19/19/19
f 18/18/18 20/20/20 19/19/19
f 18/18/18 21/21/21 20/20/20
f 21/21/21 18/18/18 17/17/17
f 21/21/21 22/22/22 20/20/20
f 21/21/21 23/23/23 22/22/22
f 17/17/17 24/24/24 21/21/21
f 24/24/24 17/17/17 16/16/16
f 25/25/25 23/23/23 21/21/21
f 25/25/25 21/21/21 24/24/24
f 19/19/19 27/27/27 26/26/26
f 29/29/29 28/28/28 27/27/27
f 32/32/32 31/31/31 30/30/30
f 31/31/31 33/33/33 30/30/30
f 31/31/31 32/32/32 34/34/34
f 34/34/34 35/35/35 31/31/31
f 36/36/36 31/31/31 35/35/35
f 33/33/33 31/31/31 36/36/36
f 36/36/36 37/37/37 33/33/33
f 37/37/37 36/36/36 38/38/38
f 39/39/39 38/38/38 36/36/36
f 35/35/35 34/34/34 40/40/40
f 40/40/40 41/41/41 35/35/35
f 42/42/42 35/35/35 41/41/41
f 35/35/35 42/42/42 36/36/36
f 43/43/43 36/36/36 42/42/42
f 36/36/36 43/43/43 39/39/39
f 44/44/44 39/39/39 43/43/43
f 44/44/44 43/43/43 45/45/45
f 45/45/45 43/43/43 46/46/46
f 42/42/42 46/46/46 43/43/43
f 46/46/46 42/42/42 47/47/47
f 41/41/41 47/47/47 42/42/42
f 47/47/47 41/41/41 48/48/48
f 49/49/49 47/47/47 48/48/48
f 50/50/50 47/47/47 49/49/49
f 47/47/47 50/50/50 46/46/46
f 51/51/51 50/50/50 49/49/49
f 52/52/52 50/50/50 51/51/51
f 53/53/53 46/46/46 50/50/50
f 46/46/46 53/53/53 45/45/45
f 52/52/52 54/54/54 50/50/50
f 50/50/50 54/54/54 53/53/53
f 56/56/56 48/48/48 55/55/55
f 58/58/58 57/57/57 56/56/56
