g Glass_19
v 0.3032 1.3502 0.3401002
v 0.3242 1.2573 0.5554002
v 0 1.3608 0.3573002
v 0.5932 1.3304 0.3000002
v 0.6294 1.2449 0.4880002
v 0.3441 1.1522 0.7748002
v 0 1.2662 0.5757002
v 0.6661 1.1481 0.6773002
v 0.3729 1.0104 1.0748
v 0 1.1592 0.7985002
v 0.7168 1.0171 0.9380002
v 0.5001 0.9370998 1.2327
v 0.3494 0.9352998 1.272
v 0 1.015 1.1029
v 0.7281 0.9664998 1.0422
v 0.6338 0.9409998 1.1794
v 0.7055 0.9479998 1.1132
v 0 0.9384997 1.3026
v 0.7082 1.1817 -0.1932998
v 0.6172 1.3586 -0.08389977
v 0.6196 1.355 -0.2336998
v 0.6279 1.3358 0.1076002
v 0.6119 1.3683 -0.2221998
v 0.6452 1.294 0.2628002
v 0.7191 1.0979 0.6630002
v 0.6781 1.204 0.4629002
v 0.791 0.9447999 0.6969002
v 0.7912 0.9951 -0.1484998
v 0.7776 1.0227 -0.9586998
v 0.7846 1.0108 -0.5882998
v 0.6827 1.2154 -1.121
v 0.6469 1.2888 -0.9950998
v 0.7069 1.1891 -0.3578998
v 0.7909 1.0012 -0.3250999
v 0.6225 1.3476 -0.8341998
v 0.7137 1.1312 -1.1951
v 0.7495 1.0592 -1.206
v 0.7629 1.0291 -1.1909
v 0.6175 1.3636 -0.3843998
v 0.6087 1.3816 -0.5708998
v 0.6097 1.3771 -0.4076998
v 0.5694 1.3501 -1.0653
v 0.2871 1.3751 -1.0883
v 0 1.3016 -1.2741
v 0.6011 1.2748 -1.2227
v 0.6324 1.183 -1.3932
v 0 1.3837 -1.089
v 0 1.2167 -1.4656
v 0.6538 1.0901 -1.5816
v 0.3145 1.1166 -1.6675
v 0.6338 1.0741 -1.631
v 0 1.1198 -1.6841
v 0.3171 1.0907 -1.7255
v 0.1341 1.0922 -1.7398
v 0 1.0934 -1.7438
v -0.3032 1.3502 0.3401002
v 0 1.3608 0.3573002
v -0.3242 1.2573 0.5554002
v -0.5932 1.3304 0.3000002
v -0.6294 1.2449 0.4880002
v -0.344 1.1522 0.7748002
v 0 1.2662 0.5757002
v -0.666 1.1481 0.6773002
v -0.3728 1.0104 1.0748
v 0 1.1592 0.7985002
v -0.7167 1.0171 0.9380002
v -0.5001 0.9370998 1.2327
v -0.3494 0.9352998 1.272
v 0 1.015 1.1029
v -0.7281 0.9664998 1.0422
v -0.6337 0.9409998 1.1794
v -0.7055 0.9479998 1.1132
v 0 0.9384997 1.3026
v -0.7082 1.1817 -0.1932998
v -0.6196 1.355 -0.2336998
v -0.6171 1.3586 -0.08389977
v -0.6279 1.3358 0.1076002
v -0.6119 1.3683 -0.2221998
v -0.6451 1.294 0.2628002
v -0.7191 1.0979 0.6630002
v -0.6781 1.204 0.4629002
v -0.791 0.9447999 0.6969002
v -0.7911 0.9951 -0.1484998
v -0.7776 1.0227 -0.9586998
v -0.6826 1.2154 -1.121
v -0.7846 1.0108 -0.5882998
v -0.6469 1.2888 -0.9950998
v -0.7069 1.1891 -0.3578998
v -0.7908 1.0012 -0.3250999
v -0.6225 1.3476 -0.8341998
v -0.7137 1.1312 -1.1951
v -0.7495 1.0592 -1.206
v -0.7628 1.0291 -1.1909
v -0.6175 1.3636 -0.3843998
v -0.6086 1.3816 -0.5708998
v -0.6097 1.3771 -0.4076998
v -0.5694 1.3501 -1.0653
v 0 1.3016 -1.2741
v -0.287 1.3751 -1.0883
v -0.6011 1.2748 -1.2227
v -0.6324 1.183 -1.3932
v 0 1.3837 -1.089
v 0 1.2167 -1.4656
v -0.6537 1.0901 -1.5816
v -0.3145 1.1166 -1.6675
v -0.6337 1.0741 -1.631
v 0 1.1198 -1.6841
v -0.3171 1.0907 -1.7255
v -0.1341 1.0922 -1.7398
v 0 1.0934 -1.7438
vt 0.7475 0.692
vt 0.7495 0.5366
vt 0.5471 0.6996
vt 0.9412 0.6963
vt 0.9547 0.5585
vt 0.7508 0.3755
vt 0.5349 0.543
vt 0.969 0.4168
vt 0.7535 0.1556
vt 0.5229 0.3803
vt 0.9887 0.2224
vt 0.8283 0.0343
vt 0.727 0.0179
vt 0.5064 0.1585
vt 0.9914 0.1455
vt 0.9196 0.0607
vt 0.9717 0.0989
vt 0.4955 0.0179
vt 0.4964 0.8732
vt 0.5499 0.7607
vt 0.4681 0.7679
vt 0.6556 0.7684
vt 0.4739 0.7591
vt 0.7421 0.788
vt 0.9681 0.8895
vt 0.8548 0.8339
vt 0.9921 0.9811
vt 0.5276 0.9835
vt 0.1467 0.9873
vt 0.346 0.9852
vt 0.054 0.8761
vt 0.1196 0.829
vt 0.4649 0.8749
vt 0.4877 0.9846
vt 0.2044 0.7908
vt 0.0164 0.9261
vt 0.0126 0.9696
vt 0.0216 0.9869
vt 0.4456 0.7703
vt 0.3449 0.7643
vt 0.4326 0.7625
vt 0.4228 0.5281
vt 0.2189 0.5223
vt 0.0124 0.38
vt 0.4448 0.4029
vt 0.467 0.264
vt 0.013 0.5253
vt 0.0112 0.2299
vt 0.4817 0.1133
vt 0.2347 0.0655
vt 0.4668 0.0763
vt 0.009 0.0585
vt 0.2362 0.0199
vt 0.1046 0.0126
vt 0.0083 0.0116
vt 0.7475 0.692
vt 0.5471 0.6996
vt 0.7495 0.5366
vt 0.9412 0.6963
vt 0.9547 0.5585
vt 0.7508 0.3755
vt 0.5349 0.543
vt 0.969 0.4168
vt 0.7535 0.1556
vt 0.5229 0.3803
vt 0.9887 0.2224
vt 0.8283 0.0343
vt 0.727 0.0179
vt 0.5064 0.1585
vt 0.9914 0.1455
vt 0.9196 0.0607
vt 0.9717 0.0989
vt 0.4955 0.0179
vt 0.4964 0.8732
vt 0.4681 0.7679
vt 0.5499 0.7607
vt 0.6556 0.7684
vt 0.4739 0.7591
vt 0.7421 0.788
vt 0.9681 0.8895
vt 0.8548 0.8339
vt 0.9921 0.9811
vt 0.5276 0.9835
vt 0.1467 0.9873
vt 0.054 0.8761
vt 0.346 0.9852
vt 0.1196 0.829
vt 0.4649 0.8749
vt 0.4877 0.9846
vt 0.2044 0.7908
vt 0.0164 0.9261
vt 0.0126 0.9696
vt 0.0216 0.9869
vt 0.4456 0.7703
vt 0.3449 0.7643
vt 0.4326 0.7625
vt 0.4228 0.5281
vt 0.0124 0.38
vt 0.2189 0.5223
vt 0.4448 0.4029
vt 0.467 0.264
vt 0.013 0.5253
vt 0.0112 0.2299
vt 0.4817 0.1133
vt 0.2347 0.0655
vt 0.4668 0.0763
vt 0.009 0.0585
vt 0.2362 0.0199
vt 0.1046 0.0126
vt 0.0083 0.0116
vn 0.08462431 0.9178541 0.387792
vn 0.08822208 0.9088126 0.4077702
vn 0 0.9186046 0.3951778
vn 0.1202418 0.9137115 0.3881663
vn 0.1298808 0.9037084 0.4079731
vn 0.09205505 0.9018495 0.4221296
vn 0 0.9098977 0.4148327
vn 0.1423328 0.8947893 0.4231944
vn 0.08350046 0.919365 0.384442
vn 0 0.9031358 0.429355
vn 0.1617007 0.901265 0.401963
vn 0.1074939 0.9332963 0.3426413
vn 0.05728678 0.930872 0.3608262
vn 0 0.9199037 0.3921443
vn 0.2048806 0.9032093 0.3771431
vn 0.07122031 0.9707296 0.2293723
vn 0.1890572 0.933883 0.3035128
vn 0 0.9338268 0.3577254
vn 0.9021993 0.4310068 0.01641791
vn 0.8894426 0.4570296 0.003977636
vn 0.8809423 0.4732158 0.002741469
vn 0.8978847 0.4399991 0.01427804
vn 0.8661227 0.4998281 0.001863895
vn 0.9124185 0.4084328 0.02598035
vn 0.9042914 0.4258245 0.03050568
vn 0.8919495 0.4487544 0.05518666
vn 0.9036456 0.4272534 0.02965002
vn 0.9111977 0.4112293 0.02468304
vn 0.9014315 0.4325997 -0.0166979
vn 0.9068128 0.4213236 -0.01330012
vn 0.9070562 0.4197532 -0.03250016
vn 0.9003212 0.4351519 -0.008034574
vn 0.9035236 0.4283991 -0.0109293
vn 0.913361 0.4070904 -0.007013722
vn 0.9030294 0.4292676 -0.01634525
vn 0.9055758 0.4210421 -0.05153597
vn 0.9038772 0.425933 -0.03983906
vn 0.9211908 0.3861797 -0.04767392
vn 0.885783 0.46409 -0.00297887
vn 0.9135217 0.4067717 -0.003845223
vn 0.8591467 0.511653 0.008843399
vn 0.08379466 0.8957565 -0.4365762
vn 0.1001709 0.8625314 -0.4959894
vn 0 0.9066846 -0.4218093
vn 0.07759292 0.8940103 -0.4412764
vn 0.09001888 0.8935784 -0.4397889
vn 0 0.9141169 -0.4054508
vn 0 0.920554 -0.3906153
vn 0.1293194 0.9166104 -0.3782881
vn 0.108417 0.9308709 -0.3488914
vn 0.1637844 0.9160085 -0.3662011
vn 0 0.9155683 -0.4021625
vn 0.09356077 0.9117877 -0.3998618
vn 0.03421679 0.925832 -0.3763831
vn 0 0.9145693 -0.4044292
vn -0.08462431 0.9178541 0.387792
vn 0 0.9186046 0.3951778
vn -0.08822987 0.9088042 0.4077872
vn -0.1202418 0.9137115 0.3881663
vn -0.1298868 0.9036968 0.407997
vn -0.0920574 0.9018427 0.4221435
vn 0 0.9098977 0.4148327
vn -0.1423415 0.8947735 0.4232248
vn -0.08349503 0.9193725 0.3844253
vn 0 0.9031358 0.429355
vn -0.1616731 0.901292 0.4019136
vn -0.1074937 0.9333066 0.3426135
vn -0.05729342 0.93088 0.3608046
vn 0 0.9199037 0.3921443
vn -0.2047548 0.9032868 0.3770257
vn -0.07127244 0.9707064 0.2294545
vn -0.1887037 0.9339818 0.3034283
vn 0 0.9338268 0.3577254
vn -0.9022045 0.4309938 0.01647639
vn -0.8809886 0.4731258 0.003332814
vn -0.8892424 0.4574192 0.003959151
vn -0.8980482 0.4396582 0.01449589
vn -0.8663363 0.4994552 0.002454926
vn -0.9123187 0.408651 0.02605841
vn -0.9042867 0.425837 0.03047052
vn -0.8943019 0.4443867 0.05238907
vn -0.9036798 0.4271826 0.02962804
vn -0.9113965 0.4107964 0.02454964
vn -0.9013084 0.4328577 -0.01665648
vn -0.9069564 0.4199727 -0.03245062
vn -0.9068476 0.4212504 -0.01325068
vn -0.900462 0.4348557 -0.008284811
vn -0.9035792 0.4282844 -0.01082203
vn -0.9135224 0.4067335 -0.006683533
vn -0.9029791 0.4293733 -0.01634897
vn -0.9054279 0.4213841 -0.05133888
vn -0.9043517 0.4249051 -0.04004484
vn -0.9223418 0.3833537 -0.04822227
vn -0.8857701 0.4641138 -0.003103499
vn -0.9121829 0.4097641 -0.003982255
vn -0.8595718 0.5109478 0.008295443
vn -0.0837865 0.8957669 -0.4365563
vn 0 0.9066846 -0.4218093
vn -0.1001325 0.862588 -0.4958985
vn -0.07759292 0.8940103 -0.4412764
vn -0.09001967 0.8935673 -0.4398113
vn 0 0.9141169 -0.4054508
vn 0 0.920554 -0.3906153
vn -0.1293402 0.9165981 -0.3783106
vn -0.1084427 0.9308734 -0.3488765
vn -0.1638356 0.9159948 -0.3662124
vn 0 0.9155683 -0.4021625
vn -0.09358241 0.911786 -0.3998607
vn -0.03421679 0.925832 -0.3763831
vn 0 0.9145693 -0.4044292
g Glass_19_0
f 3/3/3 2/2/2 1/1/1
f 1/1/1 2/2/2 4/4/4
f 2/2/2 5/5/5 4/4/4
f 6/6/6 5/5/5 2/2/2
f 6/6/6 2/2/2 7/7/7
f 7/7/7 2/2/2 3/3/3
f 8/8/8 5/5/5 6/6/6
f 9/9/9 8/8/8 6/6/6
f 9/9/9 6/6/6 10/10/10
f 10/10/10 6/6/6 7/7/7
f 11/11/11 8/8/8 9/9/9
f 12/12/12 11/11/11 9/9/9
f 13/13/13 12/12/12 9/9/9
f 13/13/13 9/9/9 14/14/14
f 14/14/14 9/9/9 10/10/10
f 11/11/11 12/12/12 15/15/15
f 16/16/16 15/15/15 12/12/12
f 16/16/16 17/17/17 15/15/15
f 18/18/18 13/13/13 14/14/14
f 21/21/21 20/20/20 19/19/19
f 19/19/19 20/20/20 22/22/22
f 23/23/23 20/20/20 21/21/21
f 22/22/22 24/24/24 19/19/19
f 25/25/25 19/19/19 24/24/24
f 26/26/26 25/25/25 24/24/24
f 25/25/25 27/27/27 19/19/19
f 27/27/27 28/28/28 19/19/19
f 31/31/31 30/30/30 29/29/29
f 32/32/32 30/30/30 31/31/31
f 33/33/33 30/30/30 32/32/32
f 34/34/34 30/30/30 33/33/33
f 35/35/35 33/33/33 32/32/32
f 36/36/36 31/31/31 29/29/29
f 37/37/37 36/36/36 29/29/29
f 38/38/38 37/37/37 29/29/29
f 39/39/39 33/33/33 35/35/35
f 40/40/40 39/39/39 35/35/35
f 40/40/40 41/41/41 39/39/39
f 44/44/44 43/43/43 42/42/42
f 45/45/45 44/44/44 42/42/42
f 44/44/44 45/45/45 46/46/46
f 47/47/47 43/43/43 44/44/44
f 48/48/48 44/44/44 46/46/46
f 48/48/48 46/46/46 49/49/49
f 50/50/50 48/48/48 49/49/49
f 51/51/51 50/50/50 49/49/49
f 50/50/50 52/52/52 48/48/48
f 53/53/53 52/52/52 50/50/50
f 53/53/53 50/50/50 51/51/51
f 54/54/54 52/52/52 53/53/53
f 55/55/55 52/52/52 54/54/54
f 58/58/58 57/57/57 56/56/56
f 58/58/58 56/56/56 59/59/59
f 60/60/60 58/58/58 59/59/59
f 60/60/60 61/61/61 58/58/58
f 58/58/58 61/61/61 62/62/62
f 58/58/58 62/62/62 57/57/57
f 60/60/60 63/63/63 61/61/61
f 63/63/63 64/64/64 61/61/61
f 61/61/61 64/64/64 65/65/65
f 61/61/61 65/65/65 62/62/62
f 63/63/63 66/66/66 64/64/64
f 66/66/66 67/67/67 64/64/64
f 67/67/67 68/68/68 64/64/64
f 64/64/64 68/68/68 69/69/69
f 64/64/64 69/69/69 65/65/65
f 66/66/66 70/70/70 67/67/67
f 71/71/71 67/67/67 70/70/70
f 72/72/72 71/71/71 70/70/70
f 68/68/68 73/73/73 69/69/69
f 76/76/76 75/75/75 74/74/74
f 76/76/76 74/74/74 77/77/77
f 76/76/76 78/78/78 75/75/75
f 79/79/79 77/77/77 74/74/74
f 74/74/74 80/80/80 79/79/79
f 80/80/80 81/81/81 79/79/79
f 82/82/82 80/80/80 74/74/74
f 83/83/83 82/82/82 74/74/74
f 86/86/86 85/85/85 84/84/84
f 86/86/86 87/87/87 85/85/85
f 86/86/86 88/88/88 87/87/87
f 86/86/86 89/89/89 88/88/88
f 88/88/88 90/90/90 87/87/87
f 85/85/85 91/91/91 84/84/84
f 91/91/91 92/92/92 84/84/84
f 92/92/92 93/93/93 84/84/84
f 88/88/88 94/94/94 90/90/90
f 94/94/94 95/95/95 90/90/90
f 96/96/96 95/95/95 94/94/94
f 99/99/99 98/98/98 97/97/97
f 98/98/98 100/100/100 97/97/97
f 100/100/100 98/98/98 101/101/101
f 99/99/99 102/102/102 98/98/98
f 98/98/98 103/103/103 101/101/101
f 101/101/101 103/103/103 104/104/104
f 103/103/103 105/105/105 104/104/104
f 105/105/105 106/106/106 104/104/104
f 107/107/107 105/105/105 103/103/103
f 107/107/107 108/108/108 105/105/105
f 105/105/105 108/108/108 106/106/106
f 107/107/107 109/109/109 108/108/108
f 107/107/107 110/110/110 109/109/109
