g model_car_113_matte_exhaust_LOD1
v 0.02499866 0.4373488 -2.149573
v 1.192093E-06 0.4428689 -2.14738
v 1.192093E-06 0.4960251 -2.281124
v 0.02499866 0.4905047 -2.283317
v 0.04698396 0.4661577 -2.292993
v 0.04698396 0.4130015 -2.159248
v 0.04698396 0.4343731 -2.305626
v 0.04698396 0.3812172 -2.171882
v 0.02499866 0.4100261 -2.315302
v 0.02499866 0.3568702 -2.181557
v 1.192093E-06 0.404506 -2.317494
v 1.192093E-06 0.3513498 -2.183753
v 0.02435946 0.4908931 -2.287303
v 1.192093E-06 0.4962249 -2.285206
v 0.02246213 0.4883146 -2.289707
v 1.192093E-06 0.4932718 -2.287737
v 0.04577899 0.467171 -2.296731
v 0.04221249 0.4664392 -2.298403
v 0.04577899 0.436203 -2.309038
v 0.04221249 0.4378808 -2.30975
v 0.02435946 0.412478 -2.318468
v 0.02246213 0.4160051 -2.318446
v 1.192093E-06 0.4071014 -2.320605
v 1.192093E-06 0.4110479 -2.320416
v 0.02056503 0.4847846 -2.28973
v 1.192093E-06 0.4893253 -2.287925
v 0.03864861 0.4647586 -2.297691
v 0.01992321 0.4823327 -2.286563
v 1.192093E-06 0.4867299 -2.284818
v 0.01992321 0.4316146 -2.158955
v 1.192093E-06 0.4360144 -2.157207
v 0.03744388 0.4629288 -2.294276
v 0.03744388 0.4122133 -2.166668
v 0.03744388 0.437602 -2.304343
v 0.03744388 0.386884 -2.176735
v 0.01992321 0.4181981 -2.312056
v 0.01992321 0.36748 -2.184445
v 1.192093E-06 0.4137983 -2.313801
v 1.192093E-06 0.3630829 -2.186193
v 1.192093E-06 0.4893253 -2.287925
v 0.03864861 0.4386156 -2.308081
v 0.02056503 0.4185867 -2.316039
v 1.192093E-06 0.414046 -2.317843
v 0.02499866 0.5723262 -2.149573
v 1.192093E-06 0.5778463 -2.14738
v 1.192093E-06 0.6309996 -2.281124
v 0.02499866 0.6254821 -2.283317
v 0.04698396 0.601135 -2.292993
v 0.04698396 0.5479791 -2.159248
v 0.04698396 0.5693507 -2.305626
v 0.04698396 0.5161946 -2.171882
v 0.02499866 0.5450037 -2.315302
v 0.02499866 0.4918475 -2.181557
v 1.192093E-06 0.5394833 -2.317494
v 1.192093E-06 0.4863272 -2.183753
v 0.02435946 0.6258707 -2.287303
v 1.192093E-06 0.6311543 -2.285246
v 0.02246213 0.6232893 -2.289707
v 1.192093E-06 0.6282494 -2.287737
v 0.04577899 0.6021485 -2.296731
v 0.04221249 0.6014137 -2.298403
v 0.04577899 0.5711775 -2.309038
v 0.04221249 0.5728581 -2.30975
v 0.02435946 0.5474553 -2.318468
v 0.02246213 0.5509827 -2.318446
v 1.192093E-06 0.5420787 -2.320605
v 1.192093E-06 0.5460253 -2.320416
v 0.02056503 0.6197619 -2.28973
v 1.192093E-06 0.6282494 -2.287737
v 1.192093E-06 0.6243026 -2.287925
v 0.03864861 0.599736 -2.297691
v 0.01992321 0.61731 -2.286563
v 1.192093E-06 0.6217072 -2.284818
v 0.01992321 0.566592 -2.158955
v 1.192093E-06 0.5709918 -2.157207
v 0.03744388 0.5979061 -2.294276
v 0.03744388 0.5471909 -2.166668
v 0.03744388 0.5725768 -2.304343
v 0.03744388 0.5218613 -2.176735
v 0.01992321 0.5531754 -2.312056
v 0.01992321 0.5024574 -2.184445
v 1.192093E-06 0.5487757 -2.313801
v 1.192093E-06 0.4980602 -2.186193
v 1.192093E-06 0.6243026 -2.287925
v 0.03864861 0.57359 -2.308081
v 0.02056503 0.5535641 -2.316039
v 1.192093E-06 0.5490234 -2.317843
v -0.0249989 0.4905047 -2.283317
v 1.192093E-06 0.4960251 -2.281124
v 1.192093E-06 0.4428689 -2.14738
v -0.0249989 0.4373488 -2.149573
v -0.0469842 0.4661577 -2.292993
v -0.0469842 0.4130015 -2.159248
v -0.0469842 0.4343731 -2.305626
v -0.0469842 0.3812172 -2.171882
v -0.0249989 0.4100261 -2.315302
v -0.0249989 0.3568702 -2.181557
v 1.192093E-06 0.404506 -2.317494
v 1.192093E-06 0.3513498 -2.183753
v -0.02435994 0.4908931 -2.287303
v 1.192093E-06 0.4962249 -2.285206
v -0.02246261 0.4883146 -2.289707
v 1.192093E-06 0.4932718 -2.287737
v -0.04577947 0.467171 -2.296731
v -0.04221272 0.4664392 -2.298403
v -0.04577947 0.436203 -2.309038
v -0.04221272 0.4378808 -2.30975
v -0.02435994 0.412478 -2.318468
v -0.02246261 0.4160051 -2.318446
v 1.192093E-06 0.4071014 -2.320605
v 1.192093E-06 0.4110479 -2.320416
v -0.02056527 0.4847846 -2.28973
v 1.192093E-06 0.4893253 -2.287925
v -0.03864908 0.4647586 -2.297691
v -0.01992345 0.4823327 -2.286563
v 1.192093E-06 0.4867299 -2.284818
v -0.01992345 0.4316146 -2.158955
v 1.192093E-06 0.4360144 -2.157207
v -0.03744149 0.4122133 -2.166668
v -0.03744149 0.4629288 -2.294276
v -0.03744149 0.386884 -2.176735
v -0.03744149 0.437602 -2.304343
v -0.01992345 0.36748 -2.184445
v -0.01992345 0.4181981 -2.312056
v 1.192093E-06 0.3630829 -2.186193
v 1.192093E-06 0.4137983 -2.313801
v 1.192093E-06 0.4893253 -2.287925
v -0.03864908 0.4386156 -2.308081
v -0.02056527 0.4185867 -2.316039
v 1.192093E-06 0.414046 -2.317843
v -0.0249989 0.6254821 -2.283317
v 1.192093E-06 0.6309996 -2.281124
v 1.192093E-06 0.5778463 -2.14738
v -0.0249989 0.5723262 -2.149573
v -0.0469842 0.601135 -2.292993
v -0.0469842 0.5479791 -2.159248
v -0.0469842 0.5693507 -2.305626
v -0.0469842 0.5161946 -2.171882
v -0.0249989 0.5450037 -2.315302
v -0.0249989 0.4918475 -2.181557
v 1.192093E-06 0.5394833 -2.317494
v 1.192093E-06 0.4863272 -2.183753
v -0.02435994 0.6258707 -2.287303
v 1.192093E-06 0.6311543 -2.285246
v -0.02246261 0.6232893 -2.289707
v 1.192093E-06 0.6282494 -2.287737
v -0.04577947 0.6021485 -2.296731
v -0.04221272 0.6014137 -2.298403
v -0.04577947 0.5711775 -2.309038
v -0.04221272 0.5728581 -2.30975
v -0.02435994 0.5474553 -2.318468
v -0.02246261 0.5509827 -2.318446
v 1.192093E-06 0.5420787 -2.320605
v 1.192093E-06 0.5460253 -2.320416
v -0.02056527 0.6197619 -2.28973
v 1.192093E-06 0.6282494 -2.287737
v 1.192093E-06 0.6243026 -2.287925
v -0.03864908 0.599736 -2.297691
v -0.01992345 0.61731 -2.286563
v 1.192093E-06 0.6217072 -2.284818
v -0.01992345 0.566592 -2.158955
v 1.192093E-06 0.5709918 -2.157207
v -0.03744149 0.5471909 -2.166668
v -0.03744149 0.5979061 -2.294276
v -0.03744149 0.5218613 -2.176735
v -0.03744149 0.5725768 -2.304343
v -0.01992345 0.5024574 -2.184445
v -0.01992345 0.5531754 -2.312056
v 1.192093E-06 0.4980602 -2.186193
v 1.192093E-06 0.5487757 -2.313801
v 1.192093E-06 0.6243026 -2.287925
v -0.03864908 0.57359 -2.308081
v -0.02056527 0.5535641 -2.316039
v 1.192093E-06 0.5490234 -2.317843
vt 0.0839087 0.1736537
vt 0.08389708 0.1673546
vt 0.04908921 0.167436
vt 0.04919381 0.1737351
vt 0.04921705 0.1820448
vt 0.08389708 0.1820448
vt 0.04921705 0.1903429
vt 0.08387383 0.1904243
vt 0.04917056 0.1986526
vt 0.08383896 0.1988037
vt 0.04905435 0.2049517
vt 0.08381572 0.2050912
vt 0.04821756 0.1737467
vt 0.04801998 0.1674825
vt 0.04721807 0.17377
vt 0.04698563 0.167587
vt 0.0482408 0.1820448
vt 0.04722969 0.1820564
vt 0.04822918 0.1903429
vt 0.04722969 0.1903429
vt 0.04819432 0.1986294
vt 0.0471832 0.1986178
vt 0.04799674 0.2049053
vt 0.04696239 0.2048123
vt 0.04611398 0.1737932
vt 0.04593965 0.1676684
vt 0.04613722 0.182068
vt 0.04492854 0.1738164
vt 0.04484718 0.1677033
vt 0.004007501 0.1738048
vt 0.004019123 0.1676335
vt 0.04494016 0.182068
vt 0.003995879 0.1820448
vt 0.04494016 0.1903313
vt 0.003972635 0.1902848
vt 0.04490529 0.1985829
vt 0.003949391 0.1985364
vt 0.04481231 0.2046961
vt 0.003949391 0.2047193
vt 0.04593965 0.1676684
vt 0.0461256 0.1903429
vt 0.04609074 0.1986061
vt 0.04591641 0.2047193
vt 0.0839087 0.1354987
vt 0.08389708 0.1292112
vt 0.04908921 0.1292926
vt 0.04919381 0.1355917
vt 0.04921705 0.1439014
vt 0.08389708 0.1438898
vt 0.04920543 0.1521995
vt 0.08387383 0.1522809
vt 0.04917056 0.1605092
vt 0.08383896 0.1606603
vt 0.04905435 0.1667967
vt 0.08381572 0.1669478
vt 0.04821756 0.1356033
vt 0.04801998 0.1293391
vt 0.04720645 0.1356266
vt 0.04698563 0.129432
vt 0.0482408 0.1439014
vt 0.04722969 0.143913
vt 0.04822918 0.1521879
vt 0.04722969 0.1521879
vt 0.04819432 0.160486
vt 0.0471832 0.1604744
vt 0.04799674 0.1667503
vt 0.04695076 0.1666573
vt 0.04611398 0.1356498
vt 0.04698563 0.129432
vt 0.04593965 0.129525
vt 0.04613722 0.143913
vt 0.04492854 0.135673
vt 0.04484718 0.1295599
vt 0.004007501 0.1356614
vt 0.004019123 0.1294785
vt 0.04494016 0.1439247
vt 0.003995879 0.1439014
vt 0.04494016 0.1521879
vt 0.003972635 0.1521414
vt 0.04490529 0.1604395
vt 0.003949391 0.160393
vt 0.04481231 0.1665527
vt 0.003949391 0.1665759
vt 0.04593965 0.129525
vt 0.0461256 0.1521879
vt 0.04609074 0.1604628
vt 0.04591641 0.1665759
vt 0.04919381 0.1737351
vt 0.04908921 0.167436
vt 0.08389708 0.1673546
vt 0.0839087 0.1736537
vt 0.04921705 0.1820448
vt 0.08389708 0.1820448
vt 0.04921705 0.1903429
vt 0.08387383 0.1904243
vt 0.04917056 0.1986526
vt 0.08383896 0.1988037
vt 0.04905435 0.2049517
vt 0.08381572 0.2050912
vt 0.04821756 0.1737467
vt 0.04801998 0.1674825
vt 0.04721807 0.17377
vt 0.04698563 0.167587
vt 0.0482408 0.1820448
vt 0.04722969 0.1820564
vt 0.04822918 0.1903429
vt 0.04722969 0.1903429
vt 0.04819432 0.1986294
vt 0.0471832 0.1986178
vt 0.04799674 0.2049053
vt 0.04696239 0.2048123
vt 0.04611398 0.1737932
vt 0.04593965 0.1676684
vt 0.04613722 0.182068
vt 0.04492854 0.1738164
vt 0.04484718 0.1677033
vt 0.004007501 0.1738048
vt 0.004019123 0.1676335
vt 0.003995879 0.1820448
vt 0.04494016 0.182068
vt 0.003972635 0.1902848
vt 0.04494016 0.1903313
vt 0.003949391 0.1985364
vt 0.04490529 0.1985829
vt 0.003949391 0.2047193
vt 0.04481231 0.2046961
vt 0.04593965 0.1676684
vt 0.0461256 0.1903429
vt 0.04609074 0.1986061
vt 0.04591641 0.2047193
vt 0.04919381 0.1355917
vt 0.04908921 0.1292926
vt 0.08389708 0.1292112
vt 0.0839087 0.1354987
vt 0.04921705 0.1439014
vt 0.08389708 0.1438898
vt 0.04920543 0.1521995
vt 0.08387383 0.1522809
vt 0.04917056 0.1605092
vt 0.08383896 0.1606603
vt 0.04905435 0.1667967
vt 0.08381572 0.1669478
vt 0.04821756 0.1356033
vt 0.04801998 0.1293391
vt 0.04720645 0.1356266
vt 0.04698563 0.129432
vt 0.0482408 0.1439014
vt 0.04722969 0.143913
vt 0.04822918 0.1521879
vt 0.04722969 0.1521879
vt 0.04819432 0.160486
vt 0.0471832 0.1604744
vt 0.04799674 0.1667503
vt 0.04695076 0.1666573
vt 0.04611398 0.1356498
vt 0.04698563 0.129432
vt 0.04593965 0.129525
vt 0.04613722 0.143913
vt 0.04492854 0.135673
vt 0.04484718 0.1295599
vt 0.004007501 0.1356614
vt 0.004019123 0.1294785
vt 0.003995879 0.1439014
vt 0.04494016 0.1439247
vt 0.003972635 0.1521414
vt 0.04494016 0.1521879
vt 0.003949391 0.160393
vt 0.04490529 0.1604395
vt 0.003949391 0.1665759
vt 0.04481231 0.1665527
vt 0.04593965 0.129525
vt 0.0461256 0.1521879
vt 0.04609074 0.1604628
vt 0.04591641 0.1665759
vn 0.5636761 0.7671499 0.3061867
vn -0.0003582239 0.9293559 0.369185
vn -0.0003582239 0.9330424 0.3597662
vn 0.5636761 0.7708365 0.2967835
vn 0.9396989 0.3210837 0.1177759
vn 0.9396989 0.3173971 0.1273772
vn 0.9396989 -0.3148374 -0.1335788
vn 0.9396989 -0.3185239 -0.1245328
vn 0.5636761 -0.7645903 -0.3125238
vn 0.5636761 -0.7664335 -0.3079757
vn -0.0003582239 -0.9267962 -0.3755645
vn -0.0003582239 -0.9286394 -0.3709835
vn 0.4309621 0.8242906 -0.3671738
vn -0.0003582239 0.9459451 -0.3243265
vn 0.04572302 0.4261488 -0.9034969
vn -0.0003582239 0.4224623 -0.9063804
vn 0.7240388 0.4759165 -0.4992708
vn 0.07890147 0.3929703 -0.9161599
vn 0.7203523 -0.01254451 -0.6934949
vn 0.07705826 0.3413594 -0.9367688
vn 0.4291189 -0.3517024 -0.831963
vn 0.04572302 0.3081808 -0.9502284
vn -0.0003582239 -0.4659839 -0.8847932
vn -0.0003582239 0.3118674 -0.9501256
vn -0.3690081 -0.2171452 -0.903704
vn -0.0003582239 -0.3664484 -0.9304383
vn -0.6160035 0.07593143 -0.7840753
vn -0.5643926 -0.762747 -0.3157183
vn -0.0003582239 -0.9249529 -0.3800816
vn -0.5643926 -0.7664335 -0.3066607
vn -0.0003582239 -0.9286394 -0.3709835
vn -0.9404154 -0.3148374 -0.1284379
vn -0.9404154 -0.3185239 -0.1190018
vn -0.9404154 0.3210837 0.1119114
vn -0.9404154 0.3173971 0.1219752
vn -0.5643926 0.7708365 0.2954186
vn -0.5643926 0.7671499 0.3048639
vn -0.0003582239 0.9330424 0.3597662
vn -0.0003582239 0.9293559 0.369185
vn -0.0003582239 -0.3664484 -0.9304383
vn -0.612317 0.4925058 -0.6184707
vn -0.3671649 0.7855824 -0.4980464
vn -0.0003582239 0.9017072 -0.4323471
vn 0.5636761 0.7671499 0.3061867
vn -0.0003582239 0.9293559 0.369185
vn -0.0003582239 0.9330424 0.3597662
vn 0.5636761 0.7708365 0.2967835
vn 0.9396989 0.3210837 0.1177759
vn 0.9396989 0.3173971 0.1273772
vn 0.9396989 -0.3148374 -0.1335788
vn 0.9396989 -0.3185239 -0.1245328
vn 0.5636761 -0.7645903 -0.3125238
vn 0.5636761 -0.7664335 -0.3079757
vn -0.0003582239 -0.9267962 -0.3755645
vn -0.0003582239 -0.9286394 -0.3709835
vn 0.4309621 0.8242906 -0.3671738
vn -0.0003582239 0.9459451 -0.3243265
vn 0.04572302 0.4261488 -0.9034969
vn -0.0003582239 0.4206191 -0.9072372
vn 0.7240388 0.4759165 -0.4992708
vn 0.07890147 0.3929703 -0.9161599
vn 0.7203523 -0.01254451 -0.6934949
vn 0.07705826 0.3413594 -0.9367688
vn 0.4291189 -0.3517024 -0.831963
vn 0.04572302 0.3081808 -0.9502284
vn -0.0003582239 -0.4659839 -0.8847932
vn -0.0003582239 0.3118674 -0.9501256
vn -0.3690081 -0.2171452 -0.903704
vn -0.0003582239 0.4206191 -0.9072372
vn -0.0003582239 -0.3664484 -0.9304383
vn -0.6160035 0.07593143 -0.7840753
vn -0.5643926 -0.762747 -0.3157183
vn -0.0003582239 -0.9249529 -0.3800816
vn -0.5643926 -0.7664335 -0.3066607
vn -0.0003582239 -0.9286394 -0.3709835
vn -0.9404154 -0.3148374 -0.1284379
vn -0.9404154 -0.3185239 -0.1190018
vn -0.9404154 0.3210837 0.1119114
vn -0.9404154 0.3173971 0.1219752
vn -0.5643926 0.7708365 0.2954186
vn -0.5643926 0.7671499 0.3048639
vn -0.0003582239 0.9330424 0.3597662
vn -0.0003582239 0.9293559 0.369185
vn -0.0003582239 -0.3664484 -0.9304383
vn -0.612317 0.4925058 -0.6184707
vn -0.3671649 0.7855824 -0.4980464
vn -0.0003582239 0.9017072 -0.4323471
vn -0.5643926 0.7708365 0.2954186
vn -0.0003582239 0.9330424 0.3597662
vn -0.0003582239 0.9293559 0.369185
vn -0.5643926 0.7671499 0.3048639
vn -0.9404154 0.3210837 0.1119114
vn -0.9404154 0.3173971 0.1219752
vn -0.9404154 -0.3148374 -0.1284379
vn -0.9404154 -0.3185239 -0.1190018
vn -0.5643926 -0.7645903 -0.3112279
vn -0.5643926 -0.7664335 -0.3066607
vn -0.0003582239 -0.9267962 -0.3755645
vn -0.0003582239 -0.9286394 -0.3709835
vn -0.4298353 0.8242906 -0.3684922
vn -0.0003582239 0.9459451 -0.3243265
vn -0.04643947 0.4261488 -0.9034603
vn -0.0003582239 0.4224623 -0.9063804
vn -0.722912 0.4759165 -0.500901
vn -0.07777464 0.3929703 -0.9162562
vn -0.7210687 -0.01254451 -0.69275
vn -0.07777464 0.3413594 -0.9367096
vn -0.4298353 -0.3517024 -0.831593
vn -0.0445962 0.3081808 -0.9502819
vn -0.0003582239 -0.4659839 -0.8847932
vn -0.0003582239 0.3118674 -0.9501256
vn 0.3701349 -0.2171452 -0.9032431
vn -0.0003582239 -0.3664484 -0.9304383
vn 0.6152871 0.07593143 -0.7846376
vn 0.5655193 -0.762747 -0.3136955
vn -0.0003582239 -0.9249529 -0.3800816
vn 0.5636761 -0.7664335 -0.3079757
vn -0.0003582239 -0.9286394 -0.3709835
vn 0.9396989 -0.3185239 -0.1245328
vn 0.9396989 -0.3148374 -0.1335788
vn 0.9396989 0.3173971 0.1273772
vn 0.9396989 0.3210837 0.1177759
vn 0.5636761 0.7671499 0.3061867
vn 0.5636761 0.7708365 0.2967835
vn -0.0003582239 0.9293559 0.369185
vn -0.0003582239 0.9330424 0.3597662
vn -0.0003582239 -0.3664484 -0.9304383
vn 0.6116005 0.4925058 -0.6191792
vn 0.3682916 0.7855824 -0.4972138
vn -0.0003582239 0.9017072 -0.4323471
vn -0.5643926 0.7708365 0.2954186
vn -0.0003582239 0.9330424 0.3597662
vn -0.0003582239 0.9293559 0.369185
vn -0.5643926 0.7671499 0.3048639
vn -0.9404154 0.3210837 0.1119114
vn -0.9404154 0.3173971 0.1219752
vn -0.9404154 -0.3148374 -0.1284379
vn -0.9404154 -0.3185239 -0.1190018
vn -0.5643926 -0.7645903 -0.3112279
vn -0.5643926 -0.7664335 -0.3066607
vn -0.0003582239 -0.9267962 -0.3755645
vn -0.0003582239 -0.9286394 -0.3709835
vn -0.4298353 0.8242906 -0.3684922
vn -0.0003582239 0.9459451 -0.3243265
vn -0.04643947 0.4261488 -0.9034603
vn -0.0003582239 0.4206191 -0.9072372
vn -0.722912 0.4759165 -0.500901
vn -0.07777464 0.3929703 -0.9162562
vn -0.7210687 -0.01254451 -0.69275
vn -0.07777464 0.3413594 -0.9367096
vn -0.4298353 -0.3517024 -0.831593
vn -0.0445962 0.3081808 -0.9502819
vn -0.0003582239 -0.4659839 -0.8847932
vn -0.0003582239 0.3118674 -0.9501256
vn 0.3701349 -0.2171452 -0.9032431
vn -0.0003582239 0.4206191 -0.9072372
vn -0.0003582239 -0.3664484 -0.9304383
vn 0.6152871 0.07593143 -0.7846376
vn 0.5655193 -0.762747 -0.3136955
vn -0.0003582239 -0.9249529 -0.3800816
vn 0.5636761 -0.7664335 -0.3079757
vn -0.0003582239 -0.9286394 -0.3709835
vn 0.9396989 -0.3185239 -0.1245328
vn 0.9396989 -0.3148374 -0.1335788
vn 0.9396989 0.3173971 0.1273772
vn 0.9396989 0.3210837 0.1177759
vn 0.5636761 0.7671499 0.3061867
vn 0.5636761 0.7708365 0.2967835
vn -0.0003582239 0.9293559 0.369185
vn -0.0003582239 0.9330424 0.3597662
vn -0.0003582239 -0.3664484 -0.9304383
vn 0.6116005 0.4925058 -0.6191792
vn 0.3682916 0.7855824 -0.4972138
vn -0.0003582239 0.9017072 -0.4323471
g model_car_113_matte_exhaust_LOD1_0
f 3/3/3 2/2/2 1/1/1
f 4/4/4 3/3/3 1/1/1
f 5/5/5 4/4/4 1/1/1
f 6/6/6 5/5/5 1/1/1
f 7/7/7 5/5/5 6/6/6
f 8/8/8 7/7/7 6/6/6
f 9/9/9 7/7/7 8/8/8
f 10/10/10 9/9/9 8/8/8
f 11/11/11 9/9/9 10/10/10
f 12/12/12 11/11/11 10/10/10
f 4/4/4 13/13/13 3/3/3
f 13/13/13 4/4/4 5/5/5
f 13/13/13 14/14/14 3/3/3
f 13/13/13 15/15/15 14/14/14
f 15/15/15 16/16/16 14/14/14
f 15/15/15 13/13/13 17/17/17
f 17/17/17 13/13/13 5/5/5
f 17/17/17 5/5/5 7/7/7
f 18/18/18 15/15/15 17/17/17
f 18/18/18 17/17/17 19/19/19
f 19/19/19 17/17/17 7/7/7
f 19/19/19 7/7/7 9/9/9
f 20/20/20 18/18/18 19/19/19
f 20/20/20 19/19/19 21/21/21
f 21/21/21 19/19/19 9/9/9
f 21/21/21 9/9/9 11/11/11
f 22/22/22 20/20/20 21/21/21
f 22/22/22 21/21/21 23/23/23
f 23/23/23 21/21/21 11/11/11
f 24/24/24 22/22/22 23/23/23
f 15/15/15 25/25/25 16/16/16
f 25/25/25 15/15/15 18/18/18
f 25/25/25 26/26/26 16/16/16
f 27/27/27 25/25/25 18/18/18
f 27/27/27 18/18/18 20/20/20
f 28/28/28 25/25/25 27/27/27
f 28/28/28 29/29/29 25/25/25
f 29/29/29 28/28/28 30/30/30
f 31/31/31 29/29/29 30/30/30
f 30/30/30 28/28/28 32/32/32
f 32/32/32 28/28/28 27/27/27
f 33/33/33 30/30/30 32/32/32
f 33/33/33 32/32/32 34/34/34
f 35/35/35 33/33/33 34/34/34
f 35/35/35 34/34/34 36/36/36
f 37/37/37 35/35/35 36/36/36
f 37/37/37 36/36/36 38/38/38
f 39/39/39 37/37/37 38/38/38
f 29/29/29 40/40/40 25/25/25
f 32/32/32 27/27/27 41/41/41
f 34/34/34 32/32/32 41/41/41
f 34/34/34 41/41/41 42/42/42
f 36/36/36 34/34/34 42/42/42
f 36/36/36 42/42/42 43/43/43
f 38/38/38 36/36/36 43/43/43
f 42/42/42 41/41/41 22/22/22
f 41/41/41 20/20/20 22/22/22
f 41/41/41 27/27/27 20/20/20
f 42/42/42 22/22/22 24/24/24
f 43/43/43 42/42/42 24/24/24
f 46/46/46 45/45/45 44/44/44
f 47/47/47 46/46/46 44/44/44
f 48/48/48 47/47/47 44/44/44
f 49/49/49 48/48/48 44/44/44
f 50/50/50 48/48/48 49/49/49
f 51/51/51 50/50/50 49/49/49
f 52/52/52 50/50/50 51/51/51
f 53/53/53 52/52/52 51/51/51
f 54/54/54 52/52/52 53/53/53
f 55/55/55 54/54/54 53/53/53
f 47/47/47 56/56/56 46/46/46
f 56/56/56 47/47/47 48/48/48
f 56/56/56 57/57/57 46/46/46
f 56/56/56 58/58/58 57/57/57
f 58/58/58 59/59/59 57/57/57
f 58/58/58 56/56/56 60/60/60
f 60/60/60 56/56/56 48/48/48
f 60/60/60 48/48/48 50/50/50
f 61/61/61 58/58/58 60/60/60
f 61/61/61 60/60/60 62/62/62
f 62/62/62 60/60/60 50/50/50
f 62/62/62 50/50/50 52/52/52
f 63/63/63 61/61/61 62/62/62
f 63/63/63 62/62/62 64/64/64
f 64/64/64 62/62/62 52/52/52
f 64/64/64 52/52/52 54/54/54
f 65/65/65 63/63/63 64/64/64
f 65/65/65 64/64/64 66/66/66
f 66/66/66 64/64/64 54/54/54
f 67/67/67 65/65/65 66/66/66
f 68/68/68 58/58/58 61/61/61
f 58/58/58 68/68/68 69/69/69
f 68/68/68 70/70/70 69/69/69
f 71/71/71 68/68/68 61/61/61
f 71/71/71 61/61/61 63/63/63
f 72/72/72 68/68/68 71/71/71
f 72/72/72 73/73/73 68/68/68
f 73/73/73 72/72/72 74/74/74
f 75/75/75 73/73/73 74/74/74
f 74/74/74 72/72/72 76/76/76
f 76/76/76 72/72/72 71/71/71
f 77/77/77 74/74/74 76/76/76
f 77/77/77 76/76/76 78/78/78
f 79/79/79 77/77/77 78/78/78
f 79/79/79 78/78/78 80/80/80
f 81/81/81 79/79/79 80/80/80
f 81/81/81 80/80/80 82/82/82
f 83/83/83 81/81/81 82/82/82
f 73/73/73 84/84/84 68/68/68
f 76/76/76 71/71/71 85/85/85
f 78/78/78 76/76/76 85/85/85
f 78/78/78 85/85/85 86/86/86
f 80/80/80 78/78/78 86/86/86
f 80/80/80 86/86/86 87/87/87
f 82/82/82 80/80/80 87/87/87
f 86/86/86 85/85/85 65/65/65
f 85/85/85 63/63/63 65/65/65
f 85/85/85 71/71/71 63/63/63
f 86/86/86 65/65/65 67/67/67
f 87/87/87 86/86/86 67/67/67
f 90/90/90 89/89/89 88/88/88
f 91/91/91 90/90/90 88/88/88
f 91/91/91 88/88/88 92/92/92
f 93/93/93 91/91/91 92/92/92
f 93/93/93 92/92/92 94/94/94
f 95/95/95 93/93/93 94/94/94
f 95/95/95 94/94/94 96/96/96
f 97/97/97 95/95/95 96/96/96
f 97/97/97 96/96/96 98/98/98
f 99/99/99 97/97/97 98/98/98
f 88/88/88 89/89/89 100/100/100
f 92/92/92 88/88/88 100/100/100
f 89/89/89 101/101/101 100/100/100
f 102/102/102 100/100/100 101/101/101
f 103/103/103 102/102/102 101/101/101
f 104/104/104 100/100/100 102/102/102
f 104/104/104 92/92/92 100/100/100
f 94/94/94 92/92/92 104/104/104
f 105/105/105 104/104/104 102/102/102
f 106/106/106 104/104/104 105/105/105
f 106/106/106 94/94/94 104/104/104
f 96/96/96 94/94/94 106/106/106
f 107/107/107 106/106/106 105/105/105
f 108/108/108 106/106/106 107/107/107
f 108/108/108 96/96/96 106/106/106
f 98/98/98 96/96/96 108/108/108
f 109/109/109 108/108/108 107/107/107
f 110/110/110 108/108/108 109/109/109
f 110/110/110 98/98/98 108/108/108
f 111/111/111 110/110/110 109/109/109
f 102/102/102 103/103/103 112/112/112
f 105/105/105 102/102/102 112/112/112
f 103/103/103 113/113/113 112/112/112
f 114/114/114 105/105/105 112/112/112
f 107/107/107 105/105/105 114/114/114
f 114/114/114 112/112/112 115/115/115
f 116/116/116 115/115/115 112/112/112
f 115/115/115 116/116/116 117/117/117
f 116/116/116 118/118/118 117/117/117
f 115/115/115 117/117/117 119/119/119
f 120/120/120 115/115/115 119/119/119
f 120/120/120 114/114/114 115/115/115
f 120/120/120 119/119/119 121/121/121
f 122/122/122 120/120/120 121/121/121
f 122/122/122 121/121/121 123/123/123
f 124/124/124 122/122/122 123/123/123
f 124/124/124 123/123/123 125/125/125
f 126/126/126 124/124/124 125/125/125
f 127/127/127 116/116/116 112/112/112
f 128/128/128 114/114/114 120/120/120
f 122/122/122 128/128/128 120/120/120
f 129/129/129 128/128/128 122/122/122
f 124/124/124 129/129/129 122/122/122
f 130/130/130 129/129/129 124/124/124
f 126/126/126 130/130/130 124/124/124
f 129/129/129 109/109/109 128/128/128
f 109/109/109 107/107/107 128/128/128
f 128/128/128 107/107/107 114/114/114
f 111/111/111 109/109/109 129/129/129
f 130/130/130 111/111/111 129/129/129
f 133/133/133 132/132/132 131/131/131
f 134/134/134 133/133/133 131/131/131
f 134/134/134 131/131/131 135/135/135
f 136/136/136 134/134/134 135/135/135
f 136/136/136 135/135/135 137/137/137
f 138/138/138 136/136/136 137/137/137
f 138/138/138 137/137/137 139/139/139
f 140/140/140 138/138/138 139/139/139
f 140/140/140 139/139/139 141/141/141
f 142/142/142 140/140/140 141/141/141
f 131/131/131 132/132/132 143/143/143
f 135/135/135 131/131/131 143/143/143
f 132/132/132 144/144/144 143/143/143
f 145/145/145 143/143/143 144/144/144
f 146/146/146 145/145/145 144/144/144
f 147/147/147 143/143/143 145/145/145
f 147/147/147 135/135/135 143/143/143
f 137/137/137 135/135/135 147/147/147
f 148/148/148 147/147/147 145/145/145
f 149/149/149 147/147/147 148/148/148
f 149/149/149 137/137/137 147/147/147
f 139/139/139 137/137/137 149/149/149
f 150/150/150 149/149/149 148/148/148
f 151/151/151 149/149/149 150/150/150
f 151/151/151 139/139/139 149/149/149
f 141/141/141 139/139/139 151/151/151
f 152/152/152 151/151/151 150/150/150
f 153/153/153 151/151/151 152/152/152
f 153/153/153 141/141/141 151/151/151
f 154/154/154 153/153/153 152/152/152
f 148/148/148 145/145/145 155/155/155
f 145/145/145 156/156/156 155/155/155
f 156/156/156 157/157/157 155/155/155
f 158/158/158 148/148/148 155/155/155
f 150/150/150 148/148/148 158/158/158
f 158/158/158 155/155/155 159/159/159
f 160/160/160 159/159/159 155/155/155
f 159/159/159 160/160/160 161/161/161
f 160/160/160 162/162/162 161/161/161
f 159/159/159 161/161/161 163/163/163
f 164/164/164 159/159/159 163/163/163
f 164/164/164 158/158/158 159/159/159
f 164/164/164 163/163/163 165/165/165
f 166/166/166 164/164/164 165/165/165
f 166/166/166 165/165/165 167/167/167
f 168/168/168 166/166/166 167/167/167
f 168/168/168 167/167/167 169/169/169
f 170/170/170 168/168/168 169/169/169
f 171/171/171 160/160/160 155/155/155
f 172/172/172 158/158/158 164/164/164
f 166/166/166 172/172/172 164/164/164
f 173/173/173 172/172/172 166/166/166
f 168/168/168 173/173/173 166/166/166
f 174/174/174 173/173/173 168/168/168
f 170/170/170 174/174/174 168/168/168
f 173/173/173 152/152/152 172/172/172
f 152/152/152 150/150/150 172/172/172
f 172/172/172 150/150/150 158/158/158
f 154/154/154 152/152/152 173/173/173
f 174/174/174 154/154/154 173/173/173
