g model_car_29_matte_mirror_LOD1
v 0.7253236 0.7465957 0.3391657
v 0.7177452 0.7743078 0.3398356
v 0.7038869 0.7715436 0.3411431
v 0.6930044 0.7665194 0.3421681
v 0.7323326 0.775074 0.3384662
v 0.7454025 0.7741008 0.3372549
v 0.756044 0.7716663 0.3362787
v 0.7633429 0.7680442 0.3356175
v 0.7678671 0.763625 0.3352123
v 0.7701877 0.7587945 0.3350037
v 0.7709464 0.7540529 0.3349372
v 0.7707837 0.7498939 0.334952
v 0.7694777 0.7455516 0.3350734
v 0.7668037 0.7402567 0.3353218
v 0.7621019 0.7345699 0.3357625
v 0.7547143 0.7290503 0.3364621
v 0.7452206 0.7244062 0.3373657
v 0.7173532 0.7767097 0.3398653
v 0.7030157 0.7738124 0.341217
v 0.7323858 0.7774936 0.3384542
v 0.7459069 0.776482 0.3372016
v 0.7560543 0.7270271 0.3363438
v 0.7638428 0.7328691 0.3356072
v 0.7461331 0.7221566 0.3372874
v 0.7342035 0.7213491 0.3384203
v 0.722336 0.7198583 0.3395768
v 0.710291 0.719919 0.3407897
v 0.6990801 0.7216494 0.3418516
v 0.6897136 0.7251738 0.3425585
v 0.6829664 0.7292811 0.3429964
v 0.6796091 0.7327582 0.3432492
v 0.6783623 0.7361451 0.343375
v 0.6779511 0.7399787 0.3434327
v 0.678661 0.745062 0.3434001
v 0.6807834 0.7521996 0.3432536
v 0.6852515 0.7598609 0.3428824
v 0.7347256 0.7189753 0.3383774
v 0.722475 0.7174387 0.339571
v 0.7100292 0.7175022 0.3408192
v 0.6915801 0.7684865 0.3422953
v 0.6833346 0.7613932 0.3430541
v 0.6983717 0.7193273 0.3419225
v 0.688486 0.7230781 0.3426783
v 0.6755314 0.7398826 0.3436559
v 0.6762931 0.7454925 0.3436176
v 0.6785663 0.753195 0.3434563
v 0.6812404 0.727555 0.3431605
v 0.6775059 0.7315557 0.3434474
v 0.6760225 0.7355195 0.3435924
v 0.7570364 0.7738849 0.336181
v 0.7648943 0.7699122 0.3354697
v 0.7699037 0.7649931 0.3350201
v 0.7724934 0.7595547 0.3347893
v 0.7733527 0.7541993 0.3347139
v 0.7731752 0.7495241 0.3347331
v 0.7717465 0.7447189 0.3348663
v 0.7688551 0.7389671 0.3351355
v -0.7253247 0.7465957 0.3391657
v -0.693004 0.7665194 0.3421681
v -0.7038865 0.7715436 0.3411431
v -0.7177448 0.7743078 0.3398356
v -0.7323322 0.775074 0.3384662
v -0.7454022 0.7741008 0.3372549
v -0.7560436 0.7716663 0.3362787
v -0.7633425 0.7680442 0.3356175
v -0.7678667 0.763625 0.3352123
v -0.7701874 0.7587945 0.3350037
v -0.770946 0.7540529 0.3349372
v -0.7707833 0.7498939 0.334952
v -0.7694774 0.7455516 0.3350734
v -0.7668034 0.7402567 0.3353218
v -0.7621017 0.7345699 0.3357625
v -0.754714 0.7290503 0.3364621
v -0.7452203 0.7244062 0.3373657
v -0.7173529 0.7767097 0.3398653
v -0.7030154 0.7738124 0.341217
v -0.7323855 0.7774936 0.3384542
v -0.7459065 0.776482 0.3372016
v -0.7560539 0.7270271 0.3363438
v -0.7638423 0.7328691 0.3356072
v -0.7461329 0.7221566 0.3372874
v -0.7342032 0.7213491 0.3384203
v -0.7223371 0.7198583 0.3395768
v -0.7102907 0.719919 0.3407897
v -0.6990798 0.7216494 0.3418516
v -0.6897148 0.7251738 0.3425585
v -0.682966 0.7292811 0.3429964
v -0.6796087 0.7327582 0.3432492
v -0.6783619 0.7361451 0.343375
v -0.6779507 0.7399787 0.3434327
v -0.6786606 0.745062 0.3434001
v -0.680783 0.7521996 0.3432536
v -0.6852525 0.7598609 0.3428824
v -0.7347252 0.7189753 0.3383774
v -0.7224761 0.7174387 0.339571
v -0.7100303 0.7175022 0.3408192
v -0.6915797 0.7684865 0.3422953
v -0.6833344 0.7613932 0.3430541
v -0.6983713 0.7193273 0.3419225
v -0.675531 0.7398826 0.3436559
v -0.6762928 0.7454925 0.3436176
v -0.678566 0.753195 0.3434563
v -0.6884856 0.7230781 0.3426783
v -0.6812401 0.727555 0.3431605
v -0.6775056 0.7315557 0.3434474
v -0.6760222 0.7355195 0.3435924
v -0.757036 0.7738849 0.336181
v -0.764894 0.7699122 0.3354697
v -0.7699033 0.7649931 0.3350201
v -0.7724931 0.7595547 0.3347893
v -0.7733524 0.7541993 0.3347139
v -0.7731749 0.7495241 0.3347331
v -0.7717462 0.7447189 0.3348663
v -0.7688547 0.7389671 0.3351355
vn -0.09256339 -0.002955072 -0.9957024
vn -0.09333216 -0.002186313 -0.9956326
vn -0.09333216 -0.001609743 -0.9956338
vn -0.09179464 -0.0006487891 -0.9957777
vn -0.09294778 -0.001609743 -0.9956697
vn -0.09217902 -0.002378501 -0.9957396
vn -0.09160244 -0.002186313 -0.9957933
vn -0.09179464 -0.002378501 -0.9957751
vn -0.09198682 -0.001994126 -0.9957582
vn -0.09217902 -0.00122536 -0.9957417
vn -0.09217902 -0.0004566014 -0.9957423
vn -0.09179464 -0.0002644137 -0.9957779
vn -0.09237121 -7.221848E-05 -0.9957246
vn -0.09179464 -0.001033172 -0.9957774
vn -0.09237121 -0.00180193 -0.995723
vn -0.09275559 -0.002570696 -0.9956856
vn -0.09371653 -0.003339455 -0.9955933
vn -0.09333216 -0.002955072 -0.9956306
vn -0.09275559 -0.002955072 -0.9956845
vn -0.09294778 -0.002762884 -0.9956672
vn -0.09217902 -0.002570696 -0.9957391
vn -0.09256339 -0.003147267 -0.9957018
vn -0.09160244 -0.002378501 -0.9957928
vn -0.09371653 -0.003339455 -0.9955933
vn -0.09563844 -0.003531642 -0.9954099
vn -0.0983291 -0.004108213 -0.9951455
vn -0.09506187 -0.006030113 -0.9954531
vn -0.08891179 -0.01275676 -0.9959578
vn -0.08064762 -0.01448648 -0.9966374
vn -0.08218513 -0.01871466 -0.9964414
vn -0.08871959 -0.004492596 -0.9960465
vn -0.0906415 0.004348151 -0.9958741
vn -0.09121807 0.005309097 -0.9958168
vn -0.0904493 0.006077863 -0.9958825
vn -0.08987273 0.004540339 -0.9959429
vn -0.09121807 0.002426252 -0.995828
vn -0.09544624 -0.003339455 -0.995429
vn -0.0983291 -0.002955072 -0.9951496
vn -0.09717596 -0.002378501 -0.9952644
vn -0.09141026 -0.002186313 -0.9958109
vn -0.08968055 0.0005043522 -0.9959705
vn -0.0867977 -0.005261354 -0.9962121
vn -0.076996 -0.01218019 -0.996957
vn -0.09217902 0.00511691 -0.9957293
vn -0.09025712 0.005885668 -0.9959011
vn -0.08891179 0.004348151 -0.99603
vn -0.07987885 -0.01333334 -0.9967154
vn -0.09006493 -0.00372383 -0.9959289
vn -0.09333216 0.00319501 -0.9956299
vn -0.09179464 -0.002762884 -0.9957741
vn -0.09179464 -0.002762884 -0.9957741
vn -0.09217902 -0.002186313 -0.9957401
vn -0.09237121 -0.00122536 -0.9957239
vn -0.09198682 -0.0004566014 -0.9957601
vn -0.09160244 -0.0002644137 -0.9957956
vn -0.09121807 -0.0006487891 -0.9958307
vn -0.09102587 -0.001417555 -0.9958475
vn 0.09270784 -0.002955072 -0.995689
vn 0.09174689 -0.0006487891 -0.9957821
vn 0.09328441 -0.001609743 -0.9956382
vn 0.09328441 -0.002186313 -0.9956371
vn 0.09290003 -0.001609743 -0.9956742
vn 0.09213127 -0.002378501 -0.995744
vn 0.0915547 -0.002186313 -0.9957976
vn 0.09174689 -0.002378501 -0.9957795
vn 0.09193908 -0.001994126 -0.9957626
vn 0.09213127 -0.00122536 -0.9957461
vn 0.09213127 -0.0004566014 -0.9957468
vn 0.09193908 -0.0002644137 -0.9957646
vn 0.09232346 -7.221848E-05 -0.995729
vn 0.09174689 -0.001033172 -0.9957818
vn 0.09232346 -0.001609743 -0.9957278
vn 0.09270784 -0.002570696 -0.99569
vn 0.09366879 -0.003339455 -0.9955978
vn 0.09328441 -0.002955072 -0.9956351
vn 0.09290003 -0.002955072 -0.995671
vn 0.09290003 -0.002762884 -0.9956716
vn 0.09213127 -0.002570696 -0.9957436
vn 0.09251565 -0.003147267 -0.9957063
vn 0.0915547 -0.002378501 -0.9957972
vn 0.09366879 -0.003339455 -0.9955978
vn 0.0955907 -0.003531642 -0.9954145
vn 0.09828135 -0.004108213 -0.9951502
vn 0.09501413 -0.006030113 -0.9954576
vn 0.08886404 -0.01275676 -0.9959621
vn 0.08059987 -0.01448648 -0.9966413
vn 0.0838671 -0.01717714 -0.9963289
vn 0.08867185 -0.004492596 -0.9960508
vn 0.09040156 0.003963768 -0.9958975
vn 0.09136251 0.005309097 -0.9958035
vn 0.09040156 0.006077863 -0.9958869
vn 0.08982499 0.004540339 -0.9959472
vn 0.09136251 0.002234057 -0.9958152
vn 0.0953985 -0.003339455 -0.9954336
vn 0.09828135 -0.002955072 -0.9951543
vn 0.0973204 -0.002378501 -0.9952503
vn 0.09136251 -0.002186313 -0.9958153
vn 0.08924842 0.001080915 -0.9960088
vn 0.08617338 -0.005453542 -0.9962652
vn 0.09213127 0.00511691 -0.9957337
vn 0.09020937 0.005885668 -0.9959055
vn 0.08886404 0.004348151 -0.9960343
vn 0.07694826 -0.01218019 -0.9969607
vn 0.0819452 -0.01160362 -0.9965693
vn 0.09020937 -0.00372383 -0.9959159
vn 0.09328441 0.00319501 -0.9956344
vn 0.09174689 -0.002762884 -0.9957786
vn 0.09174689 -0.002762884 -0.9957786
vn 0.09213127 -0.002186313 -0.9957445
vn 0.09232346 -0.00122536 -0.9957283
vn 0.09193908 -0.0004566014 -0.9957646
vn 0.0915547 -0.0002644137 -0.9958
vn 0.09117032 -0.0006487891 -0.9958351
vn 0.09117032 -0.001417555 -0.9958343
g model_car_29_matte_mirror_LOD1_0
f 3/3/3 2/2/2 1/1/1
f 4/4/4 3/3/3 1/1/1
f 2/2/2 5/5/5 1/1/1
f 5/5/5 6/6/6 1/1/1
f 6/6/6 7/7/7 1/1/1
f 7/7/7 8/8/8 1/1/1
f 8/8/8 9/9/9 1/1/1
f 9/9/9 10/10/10 1/1/1
f 10/10/10 11/11/11 1/1/1
f 11/11/11 12/12/12 1/1/1
f 12/12/12 13/13/13 1/1/1
f 13/13/13 14/14/14 1/1/1
f 14/14/14 15/15/15 1/1/1
f 15/15/15 16/16/16 1/1/1
f 16/16/16 17/17/17 1/1/1
f 18/18/18 2/2/2 3/3/3
f 19/19/19 18/18/18 3/3/3
f 6/6/6 5/5/5 20/20/20
f 21/21/21 6/6/6 20/20/20
f 18/18/18 20/20/20 2/2/2
f 20/20/20 5/5/5 2/2/2
f 22/22/22 16/16/16 15/15/15
f 23/23/23 22/22/22 15/15/15
f 23/23/23 15/15/15 14/14/14
f 24/24/24 17/17/17 16/16/16
f 22/22/22 24/24/24 16/16/16
f 25/25/25 17/17/17 24/24/24
f 17/17/17 25/25/25 1/1/1
f 25/25/25 26/26/26 1/1/1
f 26/26/26 27/27/27 1/1/1
f 27/27/27 28/28/28 1/1/1
f 28/28/28 29/29/29 1/1/1
f 29/29/29 30/30/30 1/1/1
f 30/30/30 31/31/31 1/1/1
f 31/31/31 32/32/32 1/1/1
f 32/32/32 33/33/33 1/1/1
f 33/33/33 34/34/34 1/1/1
f 34/34/34 35/35/35 1/1/1
f 35/35/35 36/36/36 1/1/1
f 36/36/36 4/4/4 1/1/1
f 37/37/37 25/25/25 24/24/24
f 27/27/27 26/26/26 38/38/38
f 38/38/38 26/26/26 25/25/25
f 37/37/37 38/38/38 25/25/25
f 39/39/39 27/27/27 38/38/38
f 40/40/40 4/4/4 36/36/36
f 41/41/41 40/40/40 36/36/36
f 41/41/41 36/36/36 35/35/35
f 42/42/42 28/28/28 27/27/27
f 29/29/29 28/28/28 42/42/42
f 39/39/39 42/42/42 27/27/27
f 43/43/43 29/29/29 42/42/42
f 40/40/40 19/19/19 4/4/4
f 19/19/19 3/3/3 4/4/4
f 44/44/44 33/33/33 32/32/32
f 35/35/35 34/34/34 45/45/45
f 46/46/46 35/35/35 45/45/45
f 46/46/46 41/41/41 35/35/35
f 44/44/44 45/45/45 33/33/33
f 45/45/45 34/34/34 33/33/33
f 43/43/43 47/47/47 29/29/29
f 47/47/47 30/30/30 29/29/29
f 31/31/31 30/30/30 47/47/47
f 48/48/48 31/31/31 47/47/47
f 48/48/48 49/49/49 31/31/31
f 49/49/49 44/44/44 32/32/32
f 49/49/49 32/32/32 31/31/31
f 50/50/50 7/7/7 6/6/6
f 21/21/21 50/50/50 6/6/6
f 8/8/8 7/7/7 50/50/50
f 51/51/51 8/8/8 50/50/50
f 51/51/51 52/52/52 8/8/8
f 52/52/52 9/9/9 8/8/8
f 10/10/10 9/9/9 52/52/52
f 53/53/53 10/10/10 52/52/52
f 53/53/53 54/54/54 10/10/10
f 54/54/54 11/11/11 10/10/10
f 54/54/54 55/55/55 11/11/11
f 55/55/55 12/12/12 11/11/11
f 55/55/55 56/56/56 12/12/12
f 56/56/56 13/13/13 12/12/12
f 14/14/14 13/13/13 56/56/56
f 57/57/57 14/14/14 56/56/56
f 57/57/57 23/23/23 14/14/14
f 60/60/60 59/59/59 58/58/58
f 61/61/61 60/60/60 58/58/58
f 62/62/62 61/61/61 58/58/58
f 63/63/63 62/62/62 58/58/58
f 64/64/64 63/63/63 58/58/58
f 65/65/65 64/64/64 58/58/58
f 66/66/66 65/65/65 58/58/58
f 67/67/67 66/66/66 58/58/58
f 68/68/68 67/67/67 58/58/58
f 69/69/69 68/68/68 58/58/58
f 70/70/70 69/69/69 58/58/58
f 71/71/71 70/70/70 58/58/58
f 72/72/72 71/71/71 58/58/58
f 73/73/73 72/72/72 58/58/58
f 74/74/74 73/73/73 58/58/58
f 61/61/61 75/75/75 60/60/60
f 75/75/75 76/76/76 60/60/60
f 62/62/62 63/63/63 77/77/77
f 63/63/63 78/78/78 77/77/77
f 77/77/77 75/75/75 61/61/61
f 62/62/62 77/77/77 61/61/61
f 73/73/73 79/79/79 72/72/72
f 79/79/79 80/80/80 72/72/72
f 72/72/72 80/80/80 71/71/71
f 81/81/81 79/79/79 73/73/73
f 74/74/74 81/81/81 73/73/73
f 74/74/74 82/82/82 81/81/81
f 82/82/82 74/74/74 58/58/58
f 83/83/83 82/82/82 58/58/58
f 84/84/84 83/83/83 58/58/58
f 85/85/85 84/84/84 58/58/58
f 86/86/86 85/85/85 58/58/58
f 87/87/87 86/86/86 58/58/58
f 88/88/88 87/87/87 58/58/58
f 89/89/89 88/88/88 58/58/58
f 90/90/90 89/89/89 58/58/58
f 91/91/91 90/90/90 58/58/58
f 92/92/92 91/91/91 58/58/58
f 93/93/93 92/92/92 58/58/58
f 59/59/59 93/93/93 58/58/58
f 82/82/82 94/94/94 81/81/81
f 83/83/83 84/84/84 95/95/95
f 95/95/95 94/94/94 82/82/82
f 83/83/83 95/95/95 82/82/82
f 84/84/84 96/96/96 95/95/95
f 59/59/59 97/97/97 93/93/93
f 97/97/97 98/98/98 93/93/93
f 93/93/93 98/98/98 92/92/92
f 99/99/99 96/96/96 84/84/84
f 85/85/85 86/86/86 99/99/99
f 85/85/85 99/99/99 84/84/84
f 76/76/76 97/97/97 59/59/59
f 60/60/60 76/76/76 59/59/59
f 90/90/90 100/100/100 89/89/89
f 91/91/91 92/92/92 101/101/101
f 92/92/92 102/102/102 101/101/101
f 98/98/98 102/102/102 92/92/92
f 101/101/101 100/100/100 90/90/90
f 91/91/91 101/101/101 90/90/90
f 86/86/86 103/103/103 99/99/99
f 104/104/104 103/103/103 86/86/86
f 87/87/87 104/104/104 86/86/86
f 87/87/87 88/88/88 104/104/104
f 88/88/88 105/105/105 104/104/104
f 106/106/106 105/105/105 88/88/88
f 100/100/100 106/106/106 89/89/89
f 89/89/89 106/106/106 88/88/88
f 107/107/107 78/78/78 63/63/63
f 64/64/64 107/107/107 63/63/63
f 64/64/64 65/65/65 107/107/107
f 65/65/65 108/108/108 107/107/107
f 109/109/109 108/108/108 65/65/65
f 66/66/66 109/109/109 65/65/65
f 66/66/66 67/67/67 109/109/109
f 67/67/67 110/110/110 109/109/109
f 111/111/111 110/110/110 67/67/67
f 68/68/68 111/111/111 67/67/67
f 112/112/112 111/111/111 68/68/68
f 69/69/69 112/112/112 68/68/68
f 113/113/113 112/112/112 69/69/69
f 70/70/70 113/113/113 69/69/69
f 70/70/70 71/71/71 113/113/113
f 71/71/71 114/114/114 113/113/113
f 80/80/80 114/114/114 71/71/71
