g model_car_109_glass_LOD1
v 0.7784163 0.790194 0.7396051
v 0.7565039 0.8281752 0.7524215
v 0.7168412 0.8849382 0.654696
v 0.7480715 0.8290147 0.6061622
v 0.6793233 0.9334071 0.5516576
v 0.7983519 0.7549995 0.726488
v 0.7961747 0.7553812 0.6501088
v 0.7943117 0.769809 0.8132654
v 0.78628 0.7851357 0.8191335
v 0.789803 0.7802643 0.826564
v 0.7973229 0.7678918 0.824376
v 0.7999848 0.75898 0.8091223
v 0.6286259 0.4845692 1.960548
v 0.6143254 0.4904805 1.961238
v 0.640129 0.5154529 1.939407
v 0.6850532 0.5276682 1.911892
v 0.6893913 0.5592856 1.882652
v 0.7290539 0.5701336 1.84537
v 0.6811673 0.5982443 1.824746
v 0.6506655 0.5788692 1.866738
v 0.6456099 0.5462471 1.913844
v 0.7200393 0.6146759 1.779762
v 0.7637395 0.6256267 1.735686
v 0.7688547 0.579362 1.805748
v 0.7983194 0.6298131 1.708542
v 0.8070984 0.5881574 1.765446
v 0.8400644 0.6266232 1.675256
v 0.8418733 0.5923275 1.729785
v 0.6286963 0.5610133 1.901997
v 0.7269905 0.5342104 1.874702
v 0.8066191 0.5495265 1.792406
v 0.8406764 0.5551913 1.754915
v 0.8320165 0.5010928 1.776876
v 0.7997031 0.4915421 1.821034
v 0.7686327 0.5413024 1.834968
v 0.7635147 0.4861398 1.861931
v 0.7171039 0.4830257 1.903901
v 0.8776664 0.5944992 1.658113
v 0.8782026 0.5614005 1.674571
v 0.6685539 0.4824705 1.939726
v 0.8754188 0.5396669 1.693529
v 0.8692231 0.5244133 1.712807
v 0.8594205 0.5120274 1.739902
v 0.8653346 0.6152337 1.658627
v 0.8609315 0.6182313 1.660872
v 0.6021858 0.5187619 1.951102
v 0.6140086 0.5410345 1.927292
v 0.604715 0.5043613 1.960033
v 0.6690278 0.8559258 0.8235122
v 0.7044661 0.7963058 0.9355625
v 0.5877717 0.8361201 0.9224211
v 0.5655994 0.8860269 0.8185432
v 0.5377784 0.9382731 0.7115403
v 0.3231255 0.9145437 0.8313515
v 0.318384 0.96806 0.7169019
v 0.5087496 0.9897585 0.6025229
v 0.3138103 1.01749 0.6038253
v 0.482659 1.032644 0.5061322
v 0.310263 1.05676 0.506403
v 0.5931523 0.9708276 0.6043479
v 0.6336896 0.9109883 0.719813
v 0.1388066 1.031187 0.6049951
v 0.136624 1.069991 0.5070584
v 0.3069864 1.100883 0.3886986
v 0.1341463 1.113388 0.3892564
v -5.364418E-07 1.070616 0.507183
v -5.364418E-07 1.115413 0.3896518
v -5.364418E-07 1.03113 0.6051359
v 0.1410704 0.9816835 0.7196152
v -5.364418E-07 0.9817214 0.7203952
v 0.1430092 0.9272059 0.8367484
v -5.364418E-07 0.9280833 0.8388714
v -5.364418E-07 0.8698931 0.9617372
v 0.1455709 0.8681222 0.9577321
v -5.364418E-07 0.818795 1.06626
v 0.1508893 0.8170484 1.0607
v -5.364418E-07 0.7650106 1.175068
v 0.1593867 0.7637569 1.168096
v 0.3364132 0.8096017 1.04523
v 0.3475454 0.7597599 1.145547
v 0.3286198 0.8577428 0.9479187
v -5.364418E-07 0.7098018 1.286461
v 0.09692073 0.709661 1.282819
v 0.21218 0.7087891 1.274424
v 0.593805 0.7992303 1.002908
v 0.7103585 0.7698171 0.992488
v 0.591839 0.7639166 1.081399
v 0.2892036 0.7073485 1.263782
v 0.3986002 0.7092251 1.240483
v 0.5116931 0.7169236 1.20192
v 0.6800733 0.7427814 1.064386
v 0.5823586 0.72938 1.158244
v -0.09692186 0.709661 1.282819
v -0.1593851 0.7637569 1.168096
v -0.2121783 0.7087891 1.274424
v -0.1508904 0.8170484 1.0607
v -0.3364143 0.8096017 1.04523
v -0.3475466 0.7597599 1.145547
v -0.1455721 0.8681222 0.9577321
v -0.1430104 0.9272059 0.8367484
v -0.1410688 0.9816835 0.7196152
v -0.3183824 0.96806 0.7169019
v -0.3138114 1.01749 0.6038253
v -0.5087481 0.9897585 0.6025229
v -0.4826574 1.032644 0.5061322
v -0.3102641 1.05676 0.506403
v -0.5377795 0.9382731 0.7115403
v -0.5931535 0.9708276 0.6043479
v -0.6336907 0.9109883 0.719813
v -0.3231239 0.9145437 0.8313515
v -0.5655978 0.8860269 0.8185432
v -0.138805 1.031187 0.6049951
v -0.1366252 1.069991 0.5070584
v -0.3069848 1.100883 0.3886986
v -0.1341448 1.113388 0.3892564
v -0.6690289 0.8559258 0.8235122
v -0.5877728 0.8361201 0.9224211
v -0.7044646 0.7963058 0.9355625
v -0.3286183 0.8577428 0.9479187
v -0.710357 0.7698171 0.992488
v -0.5938033 0.7992303 1.002908
v -0.5918374 0.7639166 1.081399
v -0.3985987 0.7092251 1.240483
v -0.2892047 0.7073485 1.263782
v -0.5116943 0.7169236 1.20192
v -0.6800745 0.7427814 1.064386
v -0.5823598 0.72938 1.158244
v 0.5579035 1.018874 0.5039388
v 0.5188447 1.067332 0.389695
v 0.4490241 1.081546 0.3883195
v -0.7784175 0.790194 0.7396051
v -0.7480726 0.8290147 0.6061622
v -0.7168424 0.8849382 0.654696
v -0.756505 0.8281752 0.7524215
v -0.6793216 0.9334071 0.5516576
v -0.798353 0.7549995 0.726488
v -0.7961731 0.7553812 0.6501088
v -0.7943128 0.769809 0.8132654
v -0.7862812 0.7851357 0.8191335
v -0.7898015 0.7802643 0.826564
v -0.7973213 0.7678918 0.824376
v -0.7999859 0.75898 0.8091223
v -0.6286269 0.4845692 1.960548
v -0.6401302 0.5154529 1.939407
v -0.6143266 0.4904805 1.961238
v -0.6850543 0.5276682 1.911892
v -0.6893923 0.5592856 1.882652
v -0.7290523 0.5701336 1.84537
v -0.6811684 0.5982443 1.824746
v -0.650664 0.5788692 1.866738
v -0.6456109 0.5462471 1.913844
v -0.7200377 0.6146759 1.779762
v -0.7637379 0.6256267 1.735686
v -0.7688558 0.579362 1.805748
v -0.7983205 0.6298131 1.708542
v -0.8070996 0.5881574 1.765446
v -0.8400656 0.6266232 1.675256
v -0.8418745 0.5923275 1.729785
v -0.6286974 0.5610133 1.901997
v -0.7269889 0.5342104 1.874702
v -0.8066202 0.5495265 1.792406
v -0.8406775 0.5551913 1.754915
v -0.8320177 0.5010928 1.776876
v -0.7997016 0.4915421 1.821034
v -0.7686337 0.5413024 1.834968
v -0.7635158 0.4861398 1.861931
v -0.717105 0.4830257 1.903901
v -0.8776648 0.5944992 1.658113
v -0.8782036 0.5614005 1.674571
v -0.668555 0.4824705 1.939726
v -0.8754172 0.5396669 1.693529
v -0.8692216 0.5244133 1.712807
v -0.8594216 0.5120274 1.739902
v -0.865333 0.6152337 1.658627
v -0.8609327 0.6182313 1.660872
v -0.602187 0.5187619 1.951102
v -0.6140097 0.5410345 1.927292
v -0.6047162 0.5043613 1.960033
v -0.5579046 1.018874 0.5039388
v -0.5188432 1.067332 0.389695
v -0.4490253 1.081546 0.3883195
vn 0.8568335 0.5135387 -0.04598277
vn 0.8568335 0.5135387 -0.04598277
vn 0.8532925 0.5188502 -0.0518306
vn 0.8532925 0.5188502 -0.0518306
vn 0.8479809 0.5259323 -0.06575388
vn 0.8549184 0.5187625 0
vn 0.851522 0.5223912 -0.04491955
vn 0.8639155 0.5011451 -0.05003573
vn 0.862145 0.5029157 -0.06149606
vn 0.851522 0.5117682 -0.1140334
vn 0.851522 0.5099977 -0.1217072
vn 0.865686 0.4993746 -0.0348245
vn 0.3911902 0.3966852 0.8304282
vn 0.3274519 0.4073083 0.8525698
vn 0.3664031 0.4763581 0.7992695
vn 0.4885681 0.4267839 0.7610235
vn 0.3221405 0.7189175 0.6159409
vn 0.3823377 0.7153765 0.5848541
vn 0.2442381 0.8162954 0.5234593
vn 0.1893525 0.8127544 0.5509772
vn 0.2690253 0.6781958 0.6838683
vn 0.2991239 0.8074428 0.508489
vn 0.3256814 0.7968198 0.5089301
vn 0.4283709 0.6959009 0.5763856
vn 0.3911902 0.7773442 0.4926522
vn 0.4726335 0.6693434 0.5732338
vn 0.474404 0.7490162 0.4625101
vn 0.6585367 0.5524899 0.5109641
vn 0.2424676 0.7614096 0.6012194
vn 0.5841755 0.3878328 0.712969
vn 0.6833238 0.3205535 0.6559833
vn 0.7612261 0.2869139 0.5815628
vn 0.7506031 0.1771425 0.6365654
vn 0.7151929 0.2320281 0.6592891
vn 0.6372907 0.3630457 0.6797488
vn 0.6567662 0.2780613 0.7009565
vn 0.6054215 0.2886844 0.7417048
vn 0.8338169 0.3577341 0.4204471
vn 0.8674565 0.2497332 0.4302936
vn 0.4956501 0.3382585 0.7999451
vn 0.8709975 0.2426512 0.4271811
vn 0.8745385 0.2196347 0.432369
vn 0.8426694 0.1842245 0.5059344
vn 0.7452915 0.5188502 0.4187303
vn 0.5983395 0.6817368 0.4209807
vn 0.2814188 0.5772769 0.7665212
vn 0.1893525 0.6799663 0.7083724
vn 0.3150584 0.5153092 0.796991
vn 0.2442381 0.8906567 0.3835079
vn 0.2548612 0.8871156 0.3848009
vn 0.1592538 0.8977387 0.4107352
vn 0.1592538 0.8995092 0.4068433
vn 0.1557128 0.9030502 0.4003172
vn 0.1043682 0.9012797 0.4204786
vn 0.1061386 0.9083617 0.4044919
vn 0.1521718 0.9119028 0.3811523
vn 0.1043682 0.9172143 0.3844806
vn 0.1468603 0.9225258 0.356901
vn 0.1008271 0.9278373 0.3590987
vn 0.2035165 0.9048207 0.3740061
vn 0.2247626 0.8959682 0.3830441
vn 0.04240036 0.9225258 0.3835993
vn 0.04240036 0.9331489 0.3569809
vn 0.09728611 0.9331489 0.346076
vn 0.04417092 0.9366899 0.347363
vn -9.179115E-05 0.9331489 0.3594902
vn -9.179115E-05 0.9366899 0.3501601
vn 0.001678705 0.9242963 0.3816721
vn 0.04417092 0.9119028 0.4080223
vn -9.179115E-05 0.9136733 0.4064494
vn 0.04771191 0.9030502 0.4268769
vn -9.179115E-05 0.9048207 0.4257928
vn -9.179115E-05 0.8995092 0.4369018
vn 0.04948241 0.8977387 0.4377405
vn -9.179115E-05 0.8977387 0.4405283
vn 0.0512529 0.8959682 0.441151
vn -9.179115E-05 0.8977387 0.4405283
vn 0.04948241 0.8977387 0.4377405
vn 0.09020406 0.8977387 0.4311942
vn 0.08489257 0.8995092 0.4285749
vn 0.09728611 0.8977387 0.4296518
vn -9.179115E-05 0.8977387 0.4405283
vn 0.02646583 0.8977387 0.4397326
vn 0.06541699 0.8977387 0.4356441
vn 0.1486308 0.8959682 0.4185092
vn 0.2637137 0.8782631 0.3988847
vn 0.1397783 0.8941977 0.4252911
vn 0.07249898 0.8995092 0.4308446
vn 0.08843356 0.9012797 0.424116
vn 0.09197456 0.9030502 0.4195724
vn 0.2725663 0.8658695 0.4194968
vn 0.1574833 0.8924272 0.4228152
vn -0.03019041 0.8977387 0.4394926
vn -0.04789543 0.8959682 0.4415281
vn -0.05320698 0.8977387 0.4373034
vn -0.04966599 0.8977387 0.4377196
vn -0.09038764 0.8995092 0.4274497
vn -0.0833056 0.8977387 0.4325799
vn -0.04789543 0.8995092 0.4342687
vn -0.04435444 0.9048207 0.4234763
vn -0.03904295 0.9136733 0.4045699
vn -0.1027812 0.9101322 0.401367
vn -0.1010107 0.9189848 0.3811349
vn -0.1647489 0.9154438 0.3671791
vn -0.1576669 0.9189848 0.3613975
vn -0.1010107 0.9278373 0.3590471
vn -0.1753719 0.9101322 0.375372
vn -0.2019296 0.9048207 0.3748653
vn -0.2231756 0.8959682 0.3839709
vn -0.1010107 0.9030502 0.4174891
vn -0.1877655 0.9065912 0.3779373
vn -0.03727239 0.9242963 0.3798516
vn -0.04081345 0.9331489 0.3571659
vn -0.1010107 0.9331489 0.3450072
vn -0.0355019 0.9366899 0.3483557
vn -0.2444217 0.8906567 0.383391
vn -0.1806835 0.8835746 0.4320294
vn -0.2550447 0.8871156 0.3846793
vn -0.09569913 0.8995092 0.426292
vn -0.2638973 0.8782631 0.3987633
vn -0.1877655 0.8729516 0.4502217
vn -0.1771425 0.9083617 0.3788134
vn -0.0797646 0.9012797 0.4258316
vn -0.07445306 0.8995092 0.4305113
vn -0.09392864 0.9030502 0.4191393
vn -0.2727498 0.86764 0.4157022
vn -0.1435028 0.8906567 0.4314366
vn 0.1858114 0.9172143 0.352409
vn 0.1804999 0.9260668 0.3313913
vn 0.1415488 0.9278373 0.3450826
vn -0.8587875 0.5117682 -0.02402584
vn -0.8517056 0.5223912 -0.04129262
vn -0.8517056 0.5206207 -0.05959632
vn -0.857017 0.5117682 -0.0601253
vn -0.8481644 0.5259323 -0.06334238
vn -0.853476 0.5188502 -0.04871416
vn -0.8517056 0.5223912 -0.04129262
vn -0.8729516 0.4745876 -0.1127923
vn -0.8481644 0.5223912 -0.0878891
vn -0.8517056 0.5117682 -0.112654
vn -0.8552465 0.5029157 -0.1250166
vn -0.8694105 0.4852107 -0.09325229
vn -0.2373396 0.4320954 0.8700365
vn -0.336488 0.4958336 0.8005778
vn -0.3170124 0.4161608 0.8522401
vn -0.4391774 0.4763581 0.7617127
vn -0.3081599 0.7029829 0.6409777
vn -0.3665867 0.6959009 0.6175241
vn -0.2391102 0.8145249 0.5285598
vn -0.1913065 0.8145249 0.5476779
vn -0.2461922 0.6923599 0.678253
vn -0.2975368 0.8074428 0.5094193
vn -0.325865 0.7968198 0.5088125
vn -0.5117682 0.6339332 0.5798465
vn -0.3931442 0.7773442 0.4910943
vn -0.5418668 0.6144576 0.5734302
vn -0.5542604 0.7277701 0.4039135
vn -0.6587203 0.5524899 0.5107275
vn -0.2337986 0.7507867 0.6177844
vn -0.594982 0.4002262 0.6970046
vn -0.6888189 0.3276355 0.6466711
vn -0.7684917 0.2762908 0.5771341
vn -0.7560982 0.178913 0.6295282
vn -0.717147 0.2320281 0.657163
vn -0.6445562 0.3736687 0.6670225
vn -0.6587203 0.2780613 0.6991205
vn -0.602064 0.2886844 0.7444328
vn -0.8304595 0.3701277 0.4163443
vn -0.86764 0.2532742 0.4278469
vn -0.4675056 0.3382585 0.8167127
vn -0.8711811 0.2479627 0.4237428
vn -0.8747221 0.2196347 0.4319975
vn -0.8304595 0.1753719 0.5287549
vn -0.717147 0.5507194 0.4270929
vn -0.6427857 0.6569498 0.3940096
vn -0.2833729 0.5896705 0.7562992
vn -0.189536 0.6799663 0.7083233
vn -0.3701277 0.3931442 0.8416906
vn -0.1842245 0.9172143 0.3532412
vn -0.1806835 0.9260668 0.3312912
vn -0.1576669 0.9260668 0.3428433
g model_car_109_glass_LOD1_0
f 3/3/3 2/2/2 1/1/1
f 4/4/4 3/3/3 1/1/1
f 3/3/3 4/4/4 5/5/5
f 4/4/4 1/1/1 6/6/6
f 7/7/7 4/4/4 6/6/6
f 8/8/8 1/1/1 2/2/2
f 9/9/9 8/8/8 2/2/2
f 8/8/8 9/9/9 10/10/10
f 11/11/11 8/8/8 10/10/10
f 12/12/12 8/8/8 11/11/11
f 12/12/12 6/6/6 1/1/1
f 8/8/8 12/12/12 1/1/1
f 15/15/15 14/14/14 13/13/13
f 15/15/15 13/13/13 16/16/16
f 15/15/15 16/16/16 17/17/17
f 17/17/17 16/16/16 18/18/18
f 17/17/17 18/18/18 19/19/19
f 17/17/17 19/19/19 20/20/20
f 21/21/21 17/17/17 20/20/20
f 21/21/21 15/15/15 17/17/17
f 18/18/18 22/22/22 19/19/19
f 23/23/23 22/22/22 18/18/18
f 24/24/24 23/23/23 18/18/18
f 25/25/25 23/23/23 24/24/24
f 26/26/26 25/25/25 24/24/24
f 27/27/27 25/25/25 26/26/26
f 28/28/28 27/27/27 26/26/26
f 21/21/21 20/20/20 29/29/29
f 16/16/16 30/30/30 18/18/18
f 24/24/24 18/18/18 30/30/30
f 28/28/28 26/26/26 31/31/31
f 32/32/32 28/28/28 31/31/31
f 32/32/32 31/31/31 33/33/33
f 31/31/31 34/34/34 33/33/33
f 31/31/31 35/35/35 34/34/34
f 26/26/26 24/24/24 35/35/35
f 31/31/31 26/26/26 35/35/35
f 35/35/35 24/24/24 30/30/30
f 35/35/35 36/36/36 34/34/34
f 35/35/35 30/30/30 36/36/36
f 30/30/30 37/37/37 36/36/36
f 38/38/38 28/28/28 32/32/32
f 39/39/39 38/38/38 32/32/32
f 40/40/40 37/37/37 30/30/30
f 16/16/16 40/40/40 30/30/30
f 41/41/41 39/39/39 32/32/32
f 13/13/13 40/40/40 16/16/16
f 42/42/42 41/41/41 32/32/32
f 43/43/43 42/42/42 32/32/32
f 43/43/43 32/32/32 33/33/33
f 28/28/28 38/38/38 44/44/44
f 28/28/28 44/44/44 45/45/45
f 45/45/45 27/27/27 28/28/28
f 21/21/21 47/47/47 46/46/46
f 21/21/21 46/46/46 48/48/48
f 15/15/15 21/21/21 48/48/48
f 21/21/21 29/29/29 47/47/47
f 15/15/15 48/48/48 14/14/14
f 51/51/51 50/50/50 49/49/49
f 52/52/52 51/51/51 49/49/49
f 53/53/53 52/52/52 49/49/49
f 54/54/54 52/52/52 53/53/53
f 55/55/55 54/54/54 53/53/53
f 55/55/55 53/53/53 56/56/56
f 57/57/57 55/55/55 56/56/56
f 57/57/57 56/56/56 58/58/58
f 59/59/59 57/57/57 58/58/58
f 60/60/60 56/56/56 53/53/53
f 58/58/58 56/56/56 60/60/60
f 61/61/61 60/60/60 53/53/53
f 61/61/61 53/53/53 49/49/49
f 57/57/57 59/59/59 62/62/62
f 59/59/59 63/63/63 62/62/62
f 59/59/59 64/64/64 63/63/63
f 59/59/59 58/58/58 64/64/64
f 64/64/64 65/65/65 63/63/63
f 63/63/63 65/65/65 66/66/66
f 65/65/65 67/67/67 66/66/66
f 63/63/63 66/66/66 68/68/68
f 62/62/62 63/63/63 68/68/68
f 57/57/57 62/62/62 69/69/69
f 55/55/55 57/57/57 69/69/69
f 62/62/62 68/68/68 70/70/70
f 69/69/69 62/62/62 70/70/70
f 55/55/55 69/69/69 71/71/71
f 54/54/54 55/55/55 71/71/71
f 69/69/69 70/70/70 72/72/72
f 71/71/71 69/69/69 72/72/72
f 71/71/71 72/72/72 73/73/73
f 74/74/74 71/71/71 73/73/73
f 54/54/54 71/71/71 74/74/74
f 73/73/73 75/75/75 74/74/74
f 75/75/75 76/76/76 74/74/74
f 76/76/76 75/75/75 77/77/77
f 78/78/78 76/76/76 77/77/77
f 79/79/79 76/76/76 78/78/78
f 80/80/80 79/79/79 78/78/78
f 81/81/81 54/54/54 74/74/74
f 76/76/76 79/79/79 81/81/81
f 74/74/74 76/76/76 81/81/81
f 54/54/54 81/81/81 52/52/52
f 81/81/81 51/51/51 52/52/52
f 78/78/78 77/77/77 82/82/82
f 83/83/83 78/78/78 82/82/82
f 83/83/83 84/84/84 78/78/78
f 80/80/80 78/78/78 84/84/84
f 79/79/79 80/80/80 85/85/85
f 85/85/85 51/51/51 81/81/81
f 79/79/79 85/85/85 81/81/81
f 51/51/51 85/85/85 86/86/86
f 50/50/50 51/51/51 86/86/86
f 80/80/80 87/87/87 85/85/85
f 85/85/85 87/87/87 86/86/86
f 88/88/88 80/80/80 84/84/84
f 89/89/89 80/80/80 88/88/88
f 80/80/80 89/89/89 87/87/87
f 89/89/89 90/90/90 87/87/87
f 87/87/87 91/91/91 86/86/86
f 90/90/90 92/92/92 87/87/87
f 92/92/92 91/91/91 87/87/87
f 94/94/94 93/93/93 82/82/82
f 95/95/95 93/93/93 94/94/94
f 77/77/77 94/94/94 82/82/82
f 96/96/96 94/94/94 77/77/77
f 75/75/75 96/96/96 77/77/77
f 96/96/96 97/97/97 94/94/94
f 97/97/97 98/98/98 94/94/94
f 94/94/94 98/98/98 95/95/95
f 96/96/96 75/75/75 99/99/99
f 75/75/75 73/73/73 99/99/99
f 100/100/100 99/99/99 73/73/73
f 72/72/72 100/100/100 73/73/73
f 101/101/101 100/100/100 72/72/72
f 101/101/101 102/102/102 100/100/100
f 103/103/103 102/102/102 101/101/101
f 102/102/102 103/103/103 104/104/104
f 104/104/104 103/103/103 105/105/105
f 103/103/103 106/106/106 105/105/105
f 107/107/107 102/102/102 104/104/104
f 104/104/104 108/108/108 107/107/107
f 104/104/104 105/105/105 108/108/108
f 108/108/108 109/109/109 107/107/107
f 110/110/110 102/102/102 107/107/107
f 102/102/102 110/110/110 100/100/100
f 100/100/100 110/110/110 99/99/99
f 111/111/111 110/110/110 107/107/107
f 106/106/106 103/103/103 112/112/112
f 112/112/112 103/103/103 101/101/101
f 113/113/113 106/106/106 112/112/112
f 114/114/114 106/106/106 113/113/113
f 105/105/105 106/106/106 114/114/114
f 115/115/115 114/114/114 113/113/113
f 115/115/115 113/113/113 66/66/66
f 67/67/67 115/115/115 66/66/66
f 107/107/107 109/109/109 116/116/116
f 111/111/111 107/107/107 116/116/116
f 117/117/117 111/111/111 116/116/116
f 118/118/118 117/117/117 116/116/116
f 113/113/113 112/112/112 68/68/68
f 66/66/66 113/113/113 68/68/68
f 68/68/68 112/112/112 70/70/70
f 112/112/112 101/101/101 70/70/70
f 119/119/119 110/110/110 111/111/111
f 117/117/117 119/119/119 111/111/111
f 70/70/70 101/101/101 72/72/72
f 117/117/117 118/118/118 120/120/120
f 121/121/121 117/117/117 120/120/120
f 117/117/117 121/121/121 119/119/119
f 122/122/122 121/121/121 120/120/120
f 122/122/122 98/98/98 121/121/121
f 98/98/98 97/97/97 121/121/121
f 121/121/121 97/97/97 119/119/119
f 97/97/97 96/96/96 119/119/119
f 96/96/96 99/99/99 119/119/119
f 110/110/110 119/119/119 99/99/99
f 123/123/123 98/98/98 122/122/122
f 98/98/98 123/123/123 124/124/124
f 98/98/98 124/124/124 95/95/95
f 125/125/125 123/123/123 122/122/122
f 126/126/126 122/122/122 120/120/120
f 127/127/127 125/125/125 122/122/122
f 126/126/126 127/127/127 122/122/122
f 128/128/128 58/58/58 60/60/60
f 58/58/58 128/128/128 129/129/129
f 130/130/130 58/58/58 129/129/129
f 58/58/58 130/130/130 64/64/64
f 133/133/133 132/132/132 131/131/131
f 134/134/134 133/133/133 131/131/131
f 132/132/132 133/133/133 135/135/135
f 131/131/131 132/132/132 136/136/136
f 132/132/132 137/137/137 136/136/136
f 131/131/131 138/138/138 134/134/134
f 138/138/138 139/139/139 134/134/134
f 139/139/139 138/138/138 140/140/140
f 138/138/138 141/141/141 140/140/140
f 138/138/138 142/142/142 141/141/141
f 142/142/142 138/138/138 131/131/131
f 136/136/136 142/142/142 131/131/131
f 145/145/145 144/144/144 143/143/143
f 143/143/143 144/144/144 146/146/146
f 146/146/146 144/144/144 147/147/147
f 146/146/146 147/147/147 148/148/148
f 148/148/148 147/147/147 149/149/149
f 149/149/149 147/147/147 150/150/150
f 147/147/147 151/151/151 150/150/150
f 144/144/144 151/151/151 147/147/147
f 152/152/152 148/148/148 149/149/149
f 152/152/152 153/153/153 148/148/148
f 153/153/153 154/154/154 148/148/148
f 153/153/153 155/155/155 154/154/154
f 155/155/155 156/156/156 154/154/154
f 155/155/155 157/157/157 156/156/156
f 157/157/157 158/158/158 156/156/156
f 150/150/150 151/151/151 159/159/159
f 160/160/160 146/146/146 148/148/148
f 148/148/148 154/154/154 160/160/160
f 156/156/156 158/158/158 161/161/161
f 158/158/158 162/162/162 161/161/161
f 161/161/161 162/162/162 163/163/163
f 164/164/164 161/161/161 163/163/163
f 165/165/165 161/161/161 164/164/164
f 156/156/156 161/161/161 165/165/165
f 154/154/154 156/156/156 165/165/165
f 154/154/154 165/165/165 160/160/160
f 166/166/166 165/165/165 164/164/164
f 160/160/160 165/165/165 166/166/166
f 167/167/167 160/160/160 166/166/166
f 158/158/158 168/168/168 162/162/162
f 168/168/168 169/169/169 162/162/162
f 167/167/167 170/170/170 160/160/160
f 170/170/170 146/146/146 160/160/160
f 169/169/169 171/171/171 162/162/162
f 170/170/170 143/143/143 146/146/146
f 171/171/171 172/172/172 162/162/162
f 172/172/172 173/173/173 162/162/162
f 162/162/162 173/173/173 163/163/163
f 168/168/168 158/158/158 174/174/174
f 174/174/174 158/158/158 175/175/175
f 157/157/157 175/175/175 158/158/158
f 177/177/177 151/151/151 176/176/176
f 176/176/176 151/151/151 178/178/178
f 151/151/151 144/144/144 178/178/178
f 159/159/159 151/151/151 177/177/177
f 178/178/178 144/144/144 145/145/145
f 105/105/105 179/179/179 108/108/108
f 179/179/179 105/105/105 180/180/180
f 105/105/105 181/181/181 180/180/180
f 181/181/181 105/105/105 114/114/114
