g model_car_109_matte_mirror_LOD1
v 1.045481 0.7829081 0.5870732
v 1.044088 0.8442574 0.5844275
v 0.988558 0.84444 0.6147751
v 0.9899536 0.7806123 0.6174228
v 0.9624082 0.7844319 0.6328661
v 0.9584627 0.8403988 0.6355509
v 0.9899536 0.9133089 0.6174228
v 0.96448 0.903322 0.630564
v 1.139743 0.8348532 0.5355563
v 1.115689 0.8768506 0.548704
v 1.045481 0.9039698 0.5870732
v 1.11565 0.7991666 0.5487236
v -1.045481 0.7829081 0.5870732
v -0.9899538 0.7806123 0.6174228
v -0.9885581 0.84444 0.6147751
v -1.044088 0.8442574 0.5844275
v -0.9624083 0.7844319 0.6328661
v -0.9584627 0.8403988 0.6355509
v -0.9899538 0.9133089 0.6174228
v -0.9644799 0.903322 0.630564
v -1.139743 0.8348532 0.5355563
v -1.115689 0.8768506 0.548704
v -1.045481 0.9039698 0.5870732
v -1.11565 0.7991666 0.5487236
vn -0.471526 -0.04210997 -0.8808462
vn -0.4694465 0.0005197525 -0.8829607
vn -0.4944005 -0.0005199909 -0.8692341
vn -0.49648 -0.04003045 -0.8671247
vn -0.5318315 -0.02339447 -0.846527
vn -0.5276725 -0.005718768 -0.8494286
vn -0.4912813 0.03691095 -0.8702185
vn -0.5235136 0.01403648 -0.8519017
vn -0.4621683 -0.001559734 -0.8867908
vn -0.459049 0.03587121 -0.8876864
vn -0.4684068 0.04106998 -0.8825578
vn -0.4642478 -0.03587148 -0.8849787
vn 0.4715263 -0.04210997 -0.880846
vn 0.4964803 -0.04003045 -0.8671245
vn 0.4944008 -0.0005199909 -0.8692339
vn 0.4694468 0.001559496 -0.8829594
vn 0.5318317 -0.02339447 -0.8465269
vn 0.5276728 -0.005718768 -0.8494285
vn 0.4912815 0.03691095 -0.8702183
vn 0.5235137 0.01403648 -0.8519017
vn 0.4621686 -0.001559734 -0.8867907
vn 0.4590493 0.03587121 -0.8876863
vn 0.468407 0.04106998 -0.8825577
vn 0.4642481 -0.03587148 -0.8849785
g model_car_109_matte_mirror_LOD1_0
f 3/3/3 2/2/2 1/1/1
f 4/4/4 3/3/3 1/1/1
f 3/3/3 4/4/4 5/5/5
f 6/6/6 3/3/3 5/5/5
f 7/7/7 3/3/3 6/6/6
f 3/3/3 7/7/7 2/2/2
f 8/8/8 7/7/7 6/6/6
f 2/2/2 9/9/9 1/1/1
f 10/10/10 9/9/9 2/2/2
f 11/11/11 10/10/10 2/2/2
f 7/7/7 11/11/11 2/2/2
f 9/9/9 12/12/12 1/1/1
f 15/15/15 14/14/14 13/13/13
f 16/16/16 15/15/15 13/13/13
f 14/14/14 15/15/15 17/17/17
f 15/15/15 18/18/18 17/17/17
f 15/15/15 19/19/19 18/18/18
f 19/19/19 15/15/15 16/16/16
f 19/19/19 20/20/20 18/18/18
f 21/21/21 16/16/16 13/13/13
f 21/21/21 22/22/22 16/16/16
f 22/22/22 23/23/23 16/16/16
f 23/23/23 19/19/19 16/16/16
f 24/24/24 21/21/21 13/13/13
