g Glass_8
v 0.7261 0.9595998 0.8121001
v 0.6575 0.9560998 0.9015001
v 0.6596 1.1165 0.5407001
v 0.5174 1.1373 0.6458001
v 0.5694 1.2798 0.2572002
v 0.5289 0.9621997 1.0154
v 0.3543 1.1547 0.6917001
v 0.3874 1.292 0.3158002
v 0.3578 0.9724998 1.0763
v 0.1789 0.9749998 1.1123
v 0.1739 1.1624 0.7242001
v 0.1967 1.3002 0.3523002
v 0 1.1661 0.7316001
v 0 0.9787998 1.1221
v 0 1.3047 0.3635002
v -0.1789 0.9749998 1.1123
v -0.1739 1.1624 0.7242001
v -0.3543 1.1547 0.6917001
v -0.1967 1.3002 0.3523002
v -0.3578 0.9724998 1.0763
v -0.5289 0.9621997 1.0154
v -0.5174 1.1373 0.6458001
v -0.3874 1.292 0.3158002
v -0.6575 0.9560998 0.9015001
v -0.6596 1.1165 0.5407001
v -0.7261 0.9595998 0.8121001
v -0.5694 1.2798 0.2572002
v 0.7455 1.0383 -0.9947997
v 0.7729999 0.9958 -0.4550998
v 0.6605999 1.18 -0.8462998
v 0.6328999 1.2573 -0.4879998
v 0.6206999 1.2822 -0.2397998
v 0.7835 0.9763999 0.3270001
v 0.6086 1.2901 -0.01479979
v 0.6005999 1.2926 0.1472002
v 0.7043999 1.1006 0.5023001
v 0.7811999 0.9746999 0.5143001
v -0.7455 1.0383 -0.9947997
v -0.6605999 1.18 -0.8462998
v -0.7729999 0.9958 -0.4550998
v -0.6328999 1.2573 -0.4879998
v -0.6206999 1.2822 -0.2397998
v -0.7835 0.9763999 0.3270001
v -0.6086 1.2901 -0.01479979
v -0.6005999 1.2926 0.1472002
v -0.7043999 1.1006 0.5023001
v -0.7811999 0.9746999 0.5143001
v 0.2571 1.251 -0.9628997
v 0.3602 1.0692 -1.4837
v 0.5038999 1.2315 -0.9378998
v 0.174 1.0734 -1.5041
v 0 1.2557 -0.9762998
v 0 1.0787 -1.512
v -0.174 1.0734 -1.5041
v -0.2571 1.251 -0.9628997
v -0.3602 1.0692 -1.4837
v -0.5038999 1.2315 -0.9378998
v -0.5598 1.0595 -1.4208
v 0.5598 1.0595 -1.4208
vt 0.7096 0.641
vt 0.6839 0.6013
vt 0.674 0.8037
vt 0.6034 0.7577
vt 0.6269 0.9692
vt 0.6103 0.5459
vt 0.527 0.7388
vt 0.5419 0.9431
vt 0.5302 0.5188
vt 0.4476 0.502
vt 0.4438 0.7245
vt 0.4537 0.9269
vt 0.3641 0.7212
vt 0.3652 0.4977
vt 0.3631 0.9219
vt 0.2828 0.501
vt 0.2843 0.7235
vt 0.2009 0.7368
vt 0.2724 0.9258
vt 0.2 0.5167
vt 0.1197 0.5429
vt 0.1244 0.7547
vt 0.1841 0.9409
vt 0.0455 0.5974
vt 0.0533 0.7999
vt 0.0194 0.6368
vt 0.0988 0.9659
vt 0.6806 0.3194
vt 0.4555 0.2939
vt 0.6181 0.396
vt 0.4682 0.4325
vt 0.3645 0.4445
vt 0.1292 0.2806
vt 0.2706 0.4496
vt 0.2029 0.4518
vt 0.0555 0.3485
vt 0.0511 0.2797
vt 0.0482 0.0943
vt 0.1106 0.1709
vt 0.2732 0.0688
vt 0.2605 0.2074
vt 0.3642 0.2194
vt 0.5995 0.0555
vt 0.4582 0.2245
vt 0.5258 0.2267
vt 0.6733 0.1234
vt 0.6777 0.0545
vt 0.737 0.1716
vt 0.9514 0.1334
vt 0.7302 0.0799
vt 0.9584 0.2023
vt 0.7414 0.2667
vt 0.9606 0.2667
vt 0.9584 0.3311
vt 0.737 0.3618
vt 0.9514 0.4
vt 0.7302 0.4535
vt 0.9293 0.4745
vt 0.9293 0.0589
vn 0.437049 0.8209319 0.3675037
vn 0.3984571 0.8349208 0.3796566
vn 0.3977534 0.8408958 0.3669966
vn 0.2933487 0.878163 0.3778574
vn 0.2355771 0.9018293 0.3622254
vn 0.2668832 0.873266 0.4076516
vn 0.1541039 0.908895 0.3875072
vn 0.151197 0.9226911 0.3546557
vn 0.1427702 0.8949626 0.4226802
vn 0.07033944 0.900053 0.4300664
vn 0.07287417 0.9162383 0.3939502
vn 0.07682984 0.9336595 0.3498244
vn 0 0.9189627 0.3943446
vn 0 0.9016492 0.4324682
vn 0 0.9366077 0.3503799
vn -0.07033931 0.900053 0.4300663
vn -0.07287409 0.9162383 0.3939502
vn -0.1541039 0.908895 0.3875072
vn -0.07682984 0.9336595 0.3498244
vn -0.1427703 0.8949627 0.42268
vn -0.2668833 0.873266 0.4076516
vn -0.2933487 0.878163 0.3778574
vn -0.151197 0.9226911 0.3546557
vn -0.3984571 0.8349208 0.3796566
vn -0.3977534 0.8408958 0.3669966
vn -0.437049 0.8209319 0.3675037
vn -0.2355771 0.9018293 0.3622254
vn 0.8564275 0.5162587 -0.002984544
vn 0.8792503 0.4762186 -0.01160511
vn 0.8643228 0.5028038 -0.01158848
vn 0.8822597 0.4704222 -0.01790883
vn 0.8781751 0.4783197 0.004317199
vn 0.8616683 0.5070801 0.01993751
vn 0.8587911 0.5114493 0.02995661
vn 0.8570793 0.5141667 0.03236801
vn 0.856424 0.5158473 0.02096362
vn 0.8529568 0.5217599 0.01520947
vn -0.8564275 0.5162587 -0.002984544
vn -0.8643228 0.5028038 -0.01158848
vn -0.8792503 0.4762186 -0.01160511
vn -0.8822597 0.4704222 -0.01790883
vn -0.8781751 0.4783197 0.004317199
vn -0.8616683 0.5070801 0.01993751
vn -0.8587911 0.5114493 0.02995661
vn -0.8570793 0.5141667 0.03236801
vn -0.856424 0.5158473 0.02096362
vn -0.8529568 0.5217599 0.01520947
vn 0.06936234 0.9470824 -0.3134067
vn 0.0951727 0.9435937 -0.3171326
vn 0.1148039 0.9435191 -0.3107924
vn 0.04746415 0.9474676 -0.3163105
vn 0 0.9487691 -0.3159703
vn 0 0.9495131 -0.3137274
vn -0.0474642 0.9474676 -0.3163105
vn -0.06936236 0.9470824 -0.3134067
vn -0.0951728 0.9435937 -0.3171327
vn -0.1148039 0.9435191 -0.3107923
vn -0.1454372 0.9372141 -0.3169822
vn 0.1454371 0.9372141 -0.3169822
g Glass_8_0
f 3/3/3 2/2/2 1/1/1
f 4/4/4 2/2/2 3/3/3
f 5/5/5 4/4/4 3/3/3
f 6/6/6 2/2/2 4/4/4
f 4/4/4 7/7/7 6/6/6
f 7/7/7 4/4/4 8/8/8
f 8/8/8 4/4/4 5/5/5
f 9/9/9 6/6/6 7/7/7
f 9/9/9 7/7/7 10/10/10
f 11/11/11 10/10/10 7/7/7
f 11/11/11 7/7/7 12/12/12
f 12/12/12 7/7/7 8/8/8
f 11/11/11 13/13/13 10/10/10
f 14/14/14 10/10/10 13/13/13
f 15/15/15 11/11/11 12/12/12
f 13/13/13 11/11/11 15/15/15
f 14/14/14 13/13/13 16/16/16
f 17/17/17 16/16/16 13/13/13
f 17/17/17 13/13/13 15/15/15
f 17/17/17 18/18/18 16/16/16
f 18/18/18 17/17/17 19/19/19
f 17/17/17 15/15/15 19/19/19
f 20/20/20 16/16/16 18/18/18
f 20/20/20 18/18/18 21/21/21
f 22/22/22 21/21/21 18/18/18
f 22/22/22 18/18/18 23/23/23
f 18/18/18 19/19/19 23/23/23
f 24/24/24 21/21/21 22/22/22
f 24/24/24 22/22/22 25/25/25
f 24/24/24 25/25/25 26/26/26
f 22/22/22 27/27/27 25/25/25
f 22/22/22 23/23/23 27/27/27
f 30/30/30 29/29/29 28/28/28
f 31/31/31 29/29/29 30/30/30
f 32/32/32 29/29/29 31/31/31
f 33/33/33 29/29/29 32/32/32
f 34/34/34 33/33/33 32/32/32
f 35/35/35 33/33/33 34/34/34
f 36/36/36 33/33/33 35/35/35
f 37/37/37 33/33/33 36/36/36
f 40/40/40 39/39/39 38/38/38
f 40/40/40 41/41/41 39/39/39
f 40/40/40 42/42/42 41/41/41
f 40/40/40 43/43/43 42/42/42
f 43/43/43 44/44/44 42/42/42
f 43/43/43 45/45/45 44/44/44
f 43/43/43 46/46/46 45/45/45
f 43/43/43 47/47/47 46/46/46
f 50/50/50 49/49/49 48/48/48
f 49/49/49 51/51/51 48/48/48
f 48/48/48 51/51/51 52/52/52
f 51/51/51 53/53/53 52/52/52
f 53/53/53 54/54/54 52/52/52
f 54/54/54 55/55/55 52/52/52
f 56/56/56 55/55/55 54/54/54
f 56/56/56 57/57/57 55/55/55
f 58/58/58 57/57/57 56/56/56
f 59/59/59 49/49/49 50/50/50
