g model_car_114_body_roof_LOD1
v -0.4369044 1.189389 -0.07263458
v -0.5743945 1.105635 -0.05293065
v -0.5846555 1.100242 -0.2181789
v -0.4441423 1.185112 -0.2235835
v -0.4451609 1.176052 -0.4081188
v -0.5898889 1.089303 -0.4067474
v -0.560569 1.11324 0.1113785
v -0.4213564 1.189122 0.0778681
v -0.5169637 1.112748 0.2812963
v -0.3938162 1.186774 0.189416
v -0.3991499 1.120373 0.4158965
v -0.3113529 1.182118 0.297818
v -0.2274299 1.124365 0.5027162
v -0.1704834 1.184461 0.363431
v -0.2899073 1.219931 -0.07575113
v -0.2793558 1.21939 0.05656958
v -0.2023525 1.222368 -0.07738203
v -0.1993086 1.221507 0.04748464
v -0.2620472 1.215611 0.1417931
v -0.2156366 1.208313 0.2187428
v -0.1345984 1.208452 0.2671232
v -5.960464E-08 1.185949 0.3924862
v -5.960464E-08 1.207925 0.2941325
v -5.960464E-08 1.214494 0.240363
v -0.118727 1.21458 0.2214667
v -5.960464E-08 1.21435 0.2280456
v -0.1116776 1.21434 0.2113855
v -0.1545981 1.215 0.1778026
v -0.1653175 1.215038 0.18558
v -0.1772215 1.217418 0.1228536
v -0.1916038 1.217956 0.1268781
v -0.1832522 1.220659 0.04543346
v -0.134294 1.201713 0.1608277
v -0.1005139 1.202346 0.1871677
v -0.1532215 1.200969 0.1150087
v -0.1587766 1.199428 0.04172891
v -0.1604732 1.194537 -0.07837647
v -0.1851096 1.221621 -0.07771409
v -0.1592211 1.18265 -0.2264631
v -0.1838574 1.217067 -0.226323
v -5.960464E-08 1.185585 -0.07832283
v -5.960464E-08 1.174703 -0.2266412
v -5.960464E-08 1.189861 0.04424357
v -5.960464E-08 1.191088 0.1214042
v -5.960464E-08 1.196887 0.1761699
v -5.960464E-08 1.203046 0.2016538
v -0.1809052 1.201432 -0.4080566
v -0.1562706 1.157732 -0.4074253
v -0.1532906 1.129632 -0.5710012
v -0.1779098 1.180997 -0.5730575
v -0.1848156 1.172464 -0.5744861
v -0.1578582 1.120702 -0.5723
v -0.1488874 1.126593 -0.5740208
v -5.960464E-08 1.123388 -0.5749271
v -5.960464E-08 1.15133 -0.4077868
v -0.2011228 1.173078 -0.5743961
v -0.196538 1.183088 -0.5730783
v -0.2958758 1.178154 -0.5745258
v -0.2940893 1.18865 -0.5731751
v -0.1991201 1.202757 -0.4081033
v -0.2935704 1.203899 -0.4083419
v -0.442622 1.16488 -0.5729451
v -0.2921522 1.216047 -0.2253649
v -0.2015414 1.217885 -0.2261621
v -0.5911203 1.077076 -0.5724124
v -0.5866305 1.065881 -0.5759786
v -0.4393032 1.154986 -0.5746832
v -0.5840779 1.07994 -0.4062355
v -0.5782512 1.091574 -0.2179298
v -0.5680352 1.096976 -0.05294794
v -0.5543827 1.104497 0.1107628
v -0.5114812 1.103807 0.279188
v -0.3952897 1.111328 0.4115935
v -0.2256866 1.115251 0.4957188
v -5.960464E-08 1.131456 0.5419667
v -5.960464E-08 1.122541 0.5359672
v 0.4369043 1.189389 -0.07263631
v 0.4441422 1.185112 -0.2235835
v 0.5846554 1.100242 -0.2181789
v 0.5743944 1.105635 -0.05293065
v 0.4451608 1.176052 -0.4081188
v 0.5898888 1.089303 -0.4067474
v 0.2921521 1.216047 -0.2253649
v 0.2899073 1.219931 -0.07575113
v 0.4213563 1.189122 0.0778681
v 0.2793557 1.21939 0.05656958
v 0.2023524 1.222368 -0.07738203
v 0.1993085 1.221507 0.04748464
v 0.3938161 1.186774 0.189416
v 0.5169636 1.112748 0.2812963
v 0.3991498 1.120373 0.4158965
v 0.3113528 1.182118 0.297818
v 0.2274299 1.124365 0.5027162
v 0.1704833 1.184461 0.363431
v 0.5605689 1.11324 0.1113785
v 0.2620471 1.215611 0.1417931
v 0.2156366 1.208313 0.2187428
v 0.1345983 1.208452 0.2671232
v -5.960464E-08 1.185949 0.3924862
v -5.960464E-08 1.207925 0.2941325
v -5.960464E-08 1.214494 0.240363
v 0.1187269 1.21458 0.2214667
v -5.960464E-08 1.21435 0.2280456
v 0.1116776 1.21434 0.2113855
v 0.1545981 1.215 0.1778026
v 0.1653174 1.215038 0.18558
v 0.1772214 1.217418 0.1228536
v 0.1916037 1.217956 0.1268781
v 0.183252 1.220659 0.04543346
v 0.134294 1.201713 0.160826
v 0.1005138 1.202346 0.1871677
v 0.1532214 1.200969 0.1150087
v 0.1587765 1.199428 0.04172891
v 0.1604731 1.194537 -0.07837647
v 0.1851095 1.221621 -0.07771581
v 0.1592209 1.18265 -0.2264631
v 0.1838574 1.217067 -0.226323
v -5.960464E-08 1.185585 -0.07832283
v -5.960464E-08 1.174703 -0.2266412
v -5.960464E-08 1.189861 0.04424357
v -5.960464E-08 1.191088 0.1214042
v -5.960464E-08 1.196887 0.1761699
v -5.960464E-08 1.203046 0.2016538
v 0.1809051 1.201432 -0.4080566
v 0.1562704 1.157732 -0.4074253
v 0.1532906 1.129632 -0.5710012
v 0.1779097 1.180997 -0.5730575
v 0.1848155 1.172464 -0.5744861
v 0.1578581 1.120702 -0.5723
v 0.1488873 1.126593 -0.5740208
v -5.960464E-08 1.123388 -0.5749271
v -5.960464E-08 1.15133 -0.4077868
v 0.2011228 1.173078 -0.5743961
v 0.1965379 1.183088 -0.5730783
v 0.2958757 1.178154 -0.5745258
v 0.2940891 1.18865 -0.5731751
v 0.19912 1.202757 -0.4081033
v 0.2935703 1.203899 -0.4083419
v 0.1965379 1.183088 -0.5730783
v 0.4426219 1.16488 -0.5729451
v 0.5911202 1.077074 -0.5724124
v 0.5866305 1.065881 -0.5759786
v 0.4393031 1.154986 -0.5746832
v 0.5840778 1.07994 -0.4062355
v 0.5866305 1.065881 -0.5759786
v 0.5782511 1.091574 -0.2179298
v 0.5680351 1.096976 -0.05294794
v 0.5543826 1.104497 0.1107628
v 0.5114812 1.103807 0.279188
v 0.3952896 1.111328 0.4115935
v 0.2256866 1.115251 0.4957188
v -5.960464E-08 1.131456 0.5419667
v -5.960464E-08 1.122541 0.5359672
v 0.5743944 1.105635 -0.05293065
v 0.2015413 1.217885 -0.2261621
vt 0.7283037 0.1774675
vt 0.7399094 0.1321622
vt 0.6788175 0.1250378
vt 0.675862 0.1724576
vt 0.6108655 0.1690816
vt 0.6105531 0.1219622
vt 0.7733927 0.1402717
vt 0.7603213 0.1827417
vt 0.8163793 0.1554456
vt 0.7900683 0.1909834
vt 0.8485892 0.1780322
vt 0.8196352 0.2118039
vt 0.8717645 0.2090166
vt 0.8374401 0.2387276
vt 0.7258288 0.2196972
vt 0.7533772 0.2230131
vt 0.7247955 0.2443983
vt 0.7507701 0.2455997
vt 0.7772132 0.2276385
vt 0.7993793 0.2395806
vt 0.8140726 0.2572173
vt 0.8574076 0.2944492
vt 0.8276125 0.2992908
vt 0.8115016 0.3012251
vt 0.8021666 0.267153
vt 0.8078733 0.3016336
vt 0.7994514 0.2694477
vt 0.7886747 0.257746
vt 0.7907291 0.2545021
vt 0.7724556 0.251811
vt 0.7735009 0.2476661
vt 0.7501814 0.2501891
vt 0.7836648 0.2647262
vt 0.7920988 0.2737368
vt 0.770233 0.2602209
vt 0.7491602 0.259524
vt 0.7241948 0.259524
vt 0.7245913 0.249312
vt 0.6709962 0.2602809
vt 0.6721016 0.2480265
vt 0.725144 0.3072802
vt 0.6706598 0.3074244
vt 0.7518874 0.3064032
vt 0.7751348 0.3049495
vt 0.7916542 0.3034237
vt 0.7993913 0.3025948
vt 0.6068167 0.2455276
vt 0.6047383 0.2609658
vt 0.5681072 0.2590315
vt 0.5725404 0.2440018
vt 0.5688521 0.2432209
vt 0.5668457 0.2573615
vt 0.5662209 0.2625877
vt 0.5661849 0.3065354
vt 0.6034047 0.3067877
vt 0.5693807 0.2372138
vt 0.572216 0.2384873
vt 0.5714231 0.2103382
vt 0.5744987 0.211059
vt 0.6071652 0.2402294
vt 0.608799 0.2132096
vt 0.5780429 0.1675558
vt 0.6736754 0.2170421
vt 0.6723779 0.2429325
vt 0.5818874 0.1250979
vt 0.5793524 0.1227431
vt 0.5751114 0.1671954
vt 0.6103609 0.1187064
vt 0.6791298 0.1218781
vt 0.740522 0.1290986
vt 0.7743298 0.1373403
vt 0.8176888 0.1530067
vt 0.8506797 0.1758696
vt 0.8742394 0.207599
vt 0.9032175 0.2829636
vt 0.9060528 0.2817142
vt 0.7283037 0.1774675
vt 0.675862 0.1724576
vt 0.6788175 0.1250378
vt 0.7399094 0.1321622
vt 0.6108655 0.1690816
vt 0.6105531 0.1219622
vt 0.6736754 0.2170421
vt 0.7258288 0.2196972
vt 0.7603213 0.1827417
vt 0.7533772 0.2230131
vt 0.7247955 0.2443983
vt 0.7507701 0.2455997
vt 0.7900683 0.1909834
vt 0.8163793 0.1554456
vt 0.8485892 0.1780322
vt 0.8196352 0.2118039
vt 0.8717645 0.2090166
vt 0.8374401 0.2387276
vt 0.7733927 0.1402717
vt 0.7772132 0.2276385
vt 0.7993793 0.2395806
vt 0.8140726 0.2572173
vt 0.8574076 0.2944492
vt 0.8276125 0.2992908
vt 0.8115016 0.3012251
vt 0.8021666 0.267153
vt 0.8078733 0.3016336
vt 0.7994514 0.2694477
vt 0.7886747 0.257746
vt 0.7907291 0.2545021
vt 0.7724556 0.251811
vt 0.7735009 0.2476661
vt 0.7501814 0.2501891
vt 0.7836648 0.2647262
vt 0.7920988 0.2737368
vt 0.770233 0.2602209
vt 0.7491602 0.259524
vt 0.7241948 0.259524
vt 0.7245913 0.249312
vt 0.6709962 0.2602809
vt 0.6721016 0.2480265
vt 0.725144 0.3072802
vt 0.6706598 0.3074244
vt 0.7518874 0.3064032
vt 0.7751348 0.3049495
vt 0.7916542 0.3034237
vt 0.7993913 0.3025948
vt 0.6068167 0.2455276
vt 0.6047383 0.2609658
vt 0.5681072 0.2590315
vt 0.5725404 0.2440018
vt 0.5688521 0.2432209
vt 0.5668457 0.2573615
vt 0.5662209 0.2625877
vt 0.5661849 0.3065354
vt 0.6034047 0.3067877
vt 0.5693807 0.2372138
vt 0.572216 0.2384873
vt 0.5714231 0.2103382
vt 0.5744987 0.211059
vt 0.6071652 0.2402294
vt 0.608799 0.2132096
vt 0.572216 0.2384873
vt 0.5780429 0.1675558
vt 0.5818874 0.1250979
vt 0.5793524 0.1227431
vt 0.5751114 0.1671954
vt 0.6103609 0.1187064
vt 0.5793524 0.1227431
vt 0.6791298 0.1218781
vt 0.740522 0.1290986
vt 0.7743298 0.1373403
vt 0.8176888 0.1530067
vt 0.8506797 0.1758696
vt 0.8742394 0.207599
vt 0.9032175 0.2829636
vt 0.9060528 0.2817142
vt 0.7399094 0.1321622
vt 0.6723779 0.2429325
vn -0.363072 0.9310902 0.03535068
vn -0.363072 0.9310902 0.03535068
vn -0.363072 0.9310902 -0.03535068
vn -0.363072 0.9310902 -0.03535068
vn -0.353851 0.9329345 -0.06650311
vn -0.353851 0.9329345 -0.06650311
vn -0.3446299 0.936623 0.06298923
vn -0.3446299 0.936623 0.06298923
vn -0.294836 0.9439998 0.1481085
vn -0.2966802 0.9439998 0.144379
vn -0.2044696 0.9476882 0.2451108
vn -0.2044696 0.9476882 0.2451108
vn -0.08090711 0.9310902 0.3557035
vn -0.06246495 0.9550651 0.289739
vn -0.112246 0.9936805 0
vn -0.1159471 0.9919494 0.05091781
vn -0.003450036 0.9993262 -0.03653962
vn -0.02558064 0.9993262 0.02631967
vn -0.1104146 0.988261 0.1055882
vn -0.1011935 0.9827284 0.1549349
vn -0.03111327 0.9845725 0.1721886
vn 0.000238359 0.9569093 0.2903869
vn 0.000238359 0.9845725 0.1749768
vn 0.000238359 0.9919494 0.1266344
vn -0.02004802 0.9919494 0.1250377
vn 0.02421319 0.9532208 -0.3013034
vn 0.1643735 0.9108039 -0.3787051
vn 0.3764583 0.8868291 -0.2679799
vn -0.05139965 0.9937936 0.09865275
vn 0.5442818 0.8315027 -0.1111781
vn -0.0292691 0.9974821 0.06459769
vn 0.6549348 0.7540456 -0.0497556
vn 0.000238359 0.9808841 -0.1945928
vn 0.000238359 0.9808841 -0.1945928
vn 0.000238359 0.9808841 -0.1945928
vn 0.000238359 0.9808841 -0.1945928
vn 0.000238359 0.9808841 -0.1945928
vn 0.7414995 0.6709533 0
vn 0.000238359 0.9808841 -0.1945928
vn 0.8135372 0.5806894 -0.03093465
vn 0.000238359 0.9808841 -0.1945928
vn 0.000238359 0.9808841 -0.1945928
vn 0.000238359 0.9808841 -0.1945928
vn 0.000238359 0.9808841 -0.1945928
vn 0.000238359 0.9808841 -0.1945928
vn 0.000238359 0.9808841 -0.1945928
vn 0.8670195 0.4958555 -0.04903688
vn 0.000238359 0.9808841 -0.1945928
vn 0.09982598 0.9237134 -0.369849
vn 0.8873059 0.4589713 -0.04509668
vn 0.6752211 -0.2565843 -0.6915497
vn 0.6862864 0.7171613 0.1212052
vn -0.04955542 0.9181808 -0.39305
vn -0.007138491 0.9864167 -0.1641072
vn 0.000238359 0.9808841 -0.1945928
vn 0.007615209 0.1325451 -0.9911477
vn 0.03712267 0.9937936 -0.1048626
vn -0.01082695 0.1380777 -0.9903622
vn -0.0587765 0.9956378 -0.07246207
vn 0.01683629 0.9956378 -0.09177122
vn -0.08090711 0.9937936 -0.07634344
vn -0.353851 0.9329345 -0.06650311
vn -0.1048819 0.9937936 -0.03706839
vn -0.01082695 0.9993262 -0.03506883
vn -0.353851 0.9329345 -0.06650311
vn -0.680277 -0.1440871 -0.718653
vn -0.07168603 0.174962 -0.981962
vn -0.8610101 -0.5073975 0.03477612
vn -0.8149047 -0.5756335 0.06764898
vn -0.8056836 -0.588543 0.06701516
vn -0.8056836 -0.5737892 0.1471047
vn -0.7263824 -0.5571914 0.402376
vn -0.4958555 -0.5571914 0.666082
vn -0.2450422 -0.5830103 0.7746311
vn 0.000238359 0.9347787 0.3552306
vn -0.2395096 -0.5848546 0.7749711
vn 0.3635488 0.9310902 0.0300541
vn 0.3635488 0.9310902 -0.0300541
vn 0.3635488 0.9310902 -0.0300541
vn 0.3635488 0.9310902 0.0300541
vn 0.3543277 0.9329345 -0.06391451
vn 0.3543277 0.9329345 -0.06391451
vn 0.1053587 0.9937936 -0.03569049
vn 0.1108913 0.9937936 -0.008799229
vn 0.3451066 0.936623 0.06032299
vn 0.1164239 0.9919494 0.04981785
vn 0.003926814 0.9993262 -0.03649147
vn 0.02421319 0.9993262 0.02758249
vn 0.2953128 0.9439998 0.1471556
vn 0.2953128 0.9439998 0.1471556
vn 0.2031021 0.9476882 0.246245
vn 0.2031021 0.9476882 0.246245
vn 0.08138382 0.9310902 0.3555947
vn 0.06294167 0.9550651 0.2896358
vn 0.3451066 0.936623 0.06032299
vn 0.1108913 0.988261 0.1050874
vn 0.1016702 0.9827284 0.1546226
vn 0.03159004 0.9845725 0.1721016
vn 0.000238359 0.9569093 0.2903869
vn 0.000238359 0.9845725 0.1749768
vn 0.000238359 0.9919494 0.1266344
vn 0.02052474 0.9919494 0.1249602
vn 0.02421319 0.9532208 -0.3013034
vn -0.1638968 0.9108039 -0.3789117
vn -0.3759816 0.8868291 -0.2686483
vn 0.05187637 0.9937936 0.09840291
vn -0.5438051 0.8315027 -0.1134868
vn 0.02974582 0.9974821 0.06437957
vn -0.654458 0.7540456 -0.05567637
vn 0.000238359 0.9808841 -0.1945928
vn 0.000238359 0.9808841 -0.1945928
vn 0.000238359 0.9808841 -0.1945928
vn 0.000238359 0.9808841 -0.1945928
vn 0.000238359 0.9808841 -0.1945928
vn -0.7411361 0.6710559 -0.02003218
vn 0.000238359 0.9808841 -0.1945928
vn -0.8130605 0.5806894 -0.0416215
vn 0.000238359 0.9808841 -0.1945928
vn 0.000238359 0.9808841 -0.1945928
vn 0.000238359 0.9808841 -0.1945928
vn 0.000238359 0.9808841 -0.1945928
vn 0.000238359 0.9808841 -0.1945928
vn 0.000238359 0.9808841 -0.1945928
vn -0.8665427 0.4958555 -0.05684271
vn 0.000238359 0.9808841 -0.1945928
vn -0.09197241 0.9218692 -0.3764284
vn -0.8868291 0.4589713 -0.05366042
vn -0.6747444 -0.2565843 -0.6920149
vn -0.6858096 0.7171613 0.1238744
vn 0.0758512 0.8960502 -0.437425
vn -0.007138491 0.9864167 -0.1641072
vn 0.000238359 0.9808841 -0.1945928
vn -0.008982718 0.1325451 -0.9911363
vn -0.03664595 0.9937936 -0.1050301
vn 0.009459436 0.1380777 -0.9903762
vn 0.05740905 0.9956378 -0.07355037
vn -0.01635957 0.9956378 -0.09185757
vn 0.08138382 0.9937936 -0.07583505
vn -0.03480172 0.9937936 -0.1056556
vn 0.3543277 0.9329345 -0.06391451
vn 0.3543277 0.9329345 -0.06391451
vn 0.6789095 -0.1440871 -0.7199449
vn 0.07216275 0.174962 -0.9819271
vn 0.8614869 -0.5073975 0.01970141
vn 0.6789095 -0.1440871 -0.7199449
vn 0.8153815 -0.5756335 0.06163668
vn 0.8043162 -0.588543 0.0818086
vn 0.8061604 -0.5737892 0.1444691
vn 0.7268592 -0.5571914 0.401514
vn 0.494488 -0.5571914 0.6670977
vn 0.245519 -0.5830103 0.7744801
vn 0.000238359 0.9347787 0.3552306
vn 0.2399864 -0.5848546 0.7748236
vn 0.3635488 0.9310902 0.0300541
vn 0.009459436 0.9993262 -0.03546263
g model_car_114_body_roof_LOD1_0
f 3/3/3 2/2/2 1/1/1
f 4/4/4 3/3/3 1/1/1
f 3/3/3 4/4/4 5/5/5
f 6/6/6 3/3/3 5/5/5
f 1/1/1 2/2/2 7/7/7
f 8/8/8 1/1/1 7/7/7
f 8/8/8 7/7/7 9/9/9
f 10/10/10 8/8/8 9/9/9
f 10/10/10 9/9/9 11/11/11
f 12/12/12 10/10/10 11/11/11
f 12/12/12 11/11/11 13/13/13
f 14/14/14 12/12/12 13/13/13
f 15/15/15 1/1/1 8/8/8
f 16/16/16 15/15/15 8/8/8
f 16/16/16 8/8/8 10/10/10
f 17/17/17 15/15/15 16/16/16
f 18/18/18 17/17/17 16/16/16
f 19/19/19 16/16/16 10/10/10
f 19/19/19 10/10/10 12/12/12
f 18/18/18 16/16/16 19/19/19
f 20/20/20 19/19/19 12/12/12
f 20/20/20 12/12/12 14/14/14
f 21/21/21 20/20/20 14/14/14
f 21/21/21 14/14/14 22/22/22
f 22/22/22 14/14/14 13/13/13
f 23/23/23 21/21/21 22/22/22
f 21/21/21 23/23/23 24/24/24
f 25/25/25 21/21/21 24/24/24
f 25/25/25 24/24/24 26/26/26
f 27/27/27 25/25/25 26/26/26
f 27/27/27 28/28/28 25/25/25
f 28/28/28 29/29/29 25/25/25
f 29/29/29 20/20/20 21/21/21
f 25/25/25 29/29/29 21/21/21
f 28/28/28 30/30/30 29/29/29
f 30/30/30 31/31/31 29/29/29
f 31/31/31 19/19/19 20/20/20
f 29/29/29 31/31/31 20/20/20
f 31/31/31 18/18/18 19/19/19
f 32/32/32 18/18/18 31/31/31
f 30/30/30 32/32/32 31/31/31
f 33/33/33 28/28/28 27/27/27
f 34/34/34 33/33/33 27/27/27
f 34/34/34 27/27/27 26/26/26
f 35/35/35 30/30/30 28/28/28
f 33/33/33 35/35/35 28/28/28
f 36/36/36 32/32/32 30/30/30
f 35/35/35 36/36/36 30/30/30
f 36/36/36 37/37/37 32/32/32
f 37/37/37 38/38/38 32/32/32
f 38/38/38 37/37/37 39/39/39
f 40/40/40 38/38/38 39/39/39
f 39/39/39 37/37/37 41/41/41
f 41/41/41 37/37/37 36/36/36
f 42/42/42 39/39/39 41/41/41
f 43/43/43 41/41/41 36/36/36
f 43/43/43 36/36/36 35/35/35
f 44/44/44 35/35/35 33/33/33
f 44/44/44 43/43/43 35/35/35
f 45/45/45 44/44/44 33/33/33
f 33/33/33 34/34/34 45/45/45
f 34/34/34 46/46/46 45/45/45
f 46/46/46 34/34/34 26/26/26
f 40/40/40 39/39/39 47/47/47
f 39/39/39 48/48/48 47/47/47
f 39/39/39 42/42/42 48/48/48
f 47/47/47 48/48/48 49/49/49
f 50/50/50 47/47/47 49/49/49
f 51/51/51 50/50/50 49/49/49
f 52/52/52 51/51/51 49/49/49
f 49/49/49 48/48/48 53/53/53
f 53/53/53 52/52/52 49/49/49
f 53/53/53 48/48/48 54/54/54
f 48/48/48 55/55/55 54/54/54
f 42/42/42 55/55/55 48/48/48
f 51/51/51 56/56/56 50/50/50
f 56/56/56 57/57/57 50/50/50
f 47/47/47 50/50/50 57/57/57
f 56/56/56 58/58/58 57/57/57
f 58/58/58 59/59/59 57/57/57
f 60/60/60 57/57/57 59/59/59
f 60/60/60 47/47/47 57/57/57
f 61/61/61 60/60/60 59/59/59
f 61/61/61 59/59/59 5/5/5
f 59/59/59 62/62/62 5/5/5
f 62/62/62 59/59/59 58/58/58
f 5/5/5 4/4/4 61/61/61
f 4/4/4 63/63/63 61/61/61
f 61/61/61 63/63/63 60/60/60
f 4/4/4 1/1/1 63/63/63
f 1/1/1 15/15/15 63/63/63
f 63/63/63 15/15/15 17/17/17
f 64/64/64 63/63/63 17/17/17
f 63/63/63 64/64/64 60/60/60
f 47/47/47 60/60/60 64/64/64
f 40/40/40 47/47/47 64/64/64
f 64/64/64 17/17/17 40/40/40
f 5/5/5 62/62/62 6/6/6
f 62/62/62 65/65/65 6/6/6
f 66/66/66 65/65/65 62/62/62
f 67/67/67 66/66/66 62/62/62
f 68/68/68 6/6/6 65/65/65
f 66/66/66 68/68/68 65/65/65
f 3/3/3 6/6/6 68/68/68
f 69/69/69 3/3/3 68/68/68
f 3/3/3 69/69/69 70/70/70
f 2/2/2 3/3/3 70/70/70
f 70/70/70 71/71/71 2/2/2
f 71/71/71 7/7/7 2/2/2
f 71/71/71 72/72/72 7/7/7
f 72/72/72 9/9/9 7/7/7
f 72/72/72 73/73/73 9/9/9
f 73/73/73 11/11/11 9/9/9
f 73/73/73 74/74/74 11/11/11
f 74/74/74 13/13/13 11/11/11
f 75/75/75 13/13/13 74/74/74
f 76/76/76 75/75/75 74/74/74
f 75/75/75 22/22/22 13/13/13
f 38/38/38 17/17/17 18/18/18
f 32/32/32 38/38/38 18/18/18
f 17/17/17 38/38/38 40/40/40
f 67/67/67 62/62/62 58/58/58
f 79/79/79 78/78/78 77/77/77
f 80/80/80 79/79/79 77/77/77
f 78/78/78 79/79/79 81/81/81
f 79/79/79 82/82/82 81/81/81
f 77/77/77 78/78/78 83/83/83
f 84/84/84 77/77/77 83/83/83
f 77/77/77 84/84/84 85/85/85
f 84/84/84 86/86/86 85/85/85
f 84/84/84 87/87/87 86/86/86
f 84/84/84 83/83/83 87/87/87
f 87/87/87 88/88/88 86/86/86
f 85/85/85 86/86/86 89/89/89
f 85/85/85 89/89/89 90/90/90
f 90/90/90 89/89/89 91/91/91
f 89/89/89 92/92/92 91/91/91
f 91/91/91 92/92/92 93/93/93
f 92/92/92 94/94/94 93/93/93
f 95/95/95 85/85/85 90/90/90
f 86/86/86 96/96/96 89/89/89
f 89/89/89 96/96/96 92/92/92
f 86/86/86 88/88/88 96/96/96
f 96/96/96 97/97/97 92/92/92
f 92/92/92 97/97/97 94/94/94
f 97/97/97 98/98/98 94/94/94
f 94/94/94 98/98/98 99/99/99
f 94/94/94 99/99/99 93/93/93
f 98/98/98 100/100/100 99/99/99
f 100/100/100 98/98/98 101/101/101
f 98/98/98 102/102/102 101/101/101
f 101/101/101 102/102/102 103/103/103
f 102/102/102 104/104/104 103/103/103
f 105/105/105 104/104/104 102/102/102
f 106/106/106 105/105/105 102/102/102
f 106/106/106 102/102/102 98/98/98
f 97/97/97 106/106/106 98/98/98
f 107/107/107 105/105/105 106/106/106
f 108/108/108 107/107/107 106/106/106
f 108/108/108 106/106/106 97/97/97
f 96/96/96 108/108/108 97/97/97
f 109/109/109 107/107/107 108/108/108
f 88/88/88 109/109/109 108/108/108
f 88/88/88 108/108/108 96/96/96
f 105/105/105 110/110/110 104/104/104
f 110/110/110 111/111/111 104/104/104
f 104/104/104 111/111/111 103/103/103
f 112/112/112 110/110/110 105/105/105
f 107/107/107 112/112/112 105/105/105
f 113/113/113 112/112/112 107/107/107
f 109/109/109 113/113/113 107/107/107
f 114/114/114 113/113/113 109/109/109
f 115/115/115 114/114/114 109/109/109
f 115/115/115 109/109/109 88/88/88
f 114/114/114 115/115/115 116/116/116
f 115/115/115 117/117/117 116/116/116
f 114/114/114 116/116/116 118/118/118
f 114/114/114 118/118/118 113/113/113
f 116/116/116 119/119/119 118/118/118
f 118/118/118 120/120/120 113/113/113
f 113/113/113 120/120/120 112/112/112
f 112/112/112 121/121/121 110/110/110
f 120/120/120 121/121/121 112/112/112
f 121/121/121 122/122/122 110/110/110
f 111/111/111 110/110/110 122/122/122
f 123/123/123 111/111/111 122/122/122
f 111/111/111 123/123/123 103/103/103
f 116/116/116 117/117/117 124/124/124
f 125/125/125 116/116/116 124/124/124
f 119/119/119 116/116/116 125/125/125
f 125/125/125 124/124/124 126/126/126
f 124/124/124 127/127/127 126/126/126
f 127/127/127 128/128/128 126/126/126
f 128/128/128 129/129/129 126/126/126
f 125/125/125 126/126/126 130/130/130
f 126/126/126 129/129/129 130/130/130
f 125/125/125 130/130/130 131/131/131
f 132/132/132 125/125/125 131/131/131
f 132/132/132 119/119/119 125/125/125
f 133/133/133 128/128/128 127/127/127
f 134/134/134 133/133/133 127/127/127
f 127/127/127 124/124/124 134/134/134
f 135/135/135 133/133/133 134/134/134
f 136/136/136 135/135/135 134/134/134
f 124/124/124 137/137/137 134/134/134
f 137/137/137 138/138/138 136/136/136
f 139/139/139 137/137/137 136/136/136
f 136/136/136 138/138/138 81/81/81
f 140/140/140 136/136/136 81/81/81
f 136/136/136 140/140/140 135/135/135
f 78/78/78 81/81/81 138/138/138
f 83/83/83 78/78/78 138/138/138
f 83/83/83 138/138/138 137/137/137
f 140/140/140 81/81/81 82/82/82
f 141/141/141 140/140/140 82/82/82
f 141/141/141 142/142/142 140/140/140
f 142/142/142 143/143/143 140/140/140
f 140/140/140 143/143/143 135/135/135
f 82/82/82 144/144/144 141/141/141
f 144/144/144 145/145/145 141/141/141
f 82/82/82 79/79/79 144/144/144
f 79/79/79 146/146/146 144/144/144
f 146/146/146 79/79/79 147/147/147
f 79/79/79 80/80/80 147/147/147
f 148/148/148 147/147/147 80/80/80
f 95/95/95 148/148/148 80/80/80
f 149/149/149 148/148/148 95/95/95
f 90/90/90 149/149/149 95/95/95
f 150/150/150 149/149/149 90/90/90
f 91/91/91 150/150/150 90/90/90
f 151/151/151 150/150/150 91/91/91
f 93/93/93 151/151/151 91/91/91
f 93/93/93 152/152/152 151/151/151
f 152/152/152 153/153/153 151/151/151
f 99/99/99 152/152/152 93/93/93
f 77/77/77 85/85/85 95/95/95
f 154/154/154 77/77/77 95/95/95
f 87/87/87 115/115/115 88/88/88
f 115/115/115 87/87/87 117/117/117
f 87/87/87 155/155/155 117/117/117
f 83/83/83 155/155/155 87/87/87
f 124/124/124 117/117/117 155/155/155
f 137/137/137 124/124/124 155/155/155
f 155/155/155 83/83/83 137/137/137
