g model_car_114_body_hood_LOD1
v -0.5145535 0.8281528 1.122373
v -0.6049779 0.8281923 1.033526
v -0.5670038 0.8120196 1.003618
v -0.3162014 0.7994507 1.154392
v -0.5198814 0.8342095 1.12664
v -0.6117744 0.8363896 1.038311
v -0.6576365 0.7754719 1.272278
v -0.3468474 0.8307549 1.218604
v -0.3964761 0.7849604 1.385365
v -0.7053832 0.8001062 1.087752
v -0.7555804 0.835481 0.7650999
v -0.7776013 0.8310785 0.7704055
v -0.7496278 0.8304175 0.7654403
v -0.3879383 0.7395568 1.561167
v -0.5894271 0.7302933 1.500778
v -0.357402 0.6945557 1.699462
v -0.5405915 0.6893092 1.636606
v -0.2097535 0.7432477 1.608694
v -0.1747077 0.6874357 1.765201
v -0.3176304 0.6384932 1.835453
v -0.1503744 0.6358264 1.88293
v -0.798829 0.8430623 0.5857165
v -0.8089337 0.8414111 0.589714
v -0.1327755 0.5686888 2.004093
v 2.384186E-07 0.6330218 1.899409
v 2.384186E-07 0.5664806 2.016133
v -0.2735124 0.5699435 1.967143
v -0.4254314 0.5716622 1.909311
v -0.4892243 0.6402937 1.764779
v -0.1168028 0.4944032 2.119464
v 2.384186E-07 0.4941444 2.125639
v -0.2276279 0.4922596 2.096318
v -0.3577115 0.4879526 2.057244
v -0.2259457 0.4815444 2.093887
v -0.3526254 0.4783375 2.053469
v 2.384186E-07 0.4828722 2.124173
v -0.1157563 0.4834742 2.118398
v -0.8150381 0.8460864 0.3703423
v -0.8143883 0.835481 0.3656811
v -0.8170158 0.8355935 0.3697601
v -0.8241132 0.8460442 0.3850099
v -0.7951073 0.8361955 0.5829794
v -0.7846622 0.8321052 0.5708718
v -0.7121404 0.8219724 0.7747067
v -0.1978933 0.8244874 1.26069
v -0.3413505 0.8260993 1.214851
v 2.384186E-07 0.7962438 1.207818
v 2.384186E-07 0.8197923 1.2736
v 2.384186E-07 0.8269544 1.27839
v -0.1945936 0.8287745 1.266159
v -0.200532 0.7896189 1.437663
v -0.2003914 0.7880942 1.443599
v -0.2307785 0.7837339 1.453416
v 2.384186E-07 0.7924152 1.454688
v 2.384186E-07 0.790927 1.460159
v -0.2002366 0.7853993 1.450215
v 2.384186E-07 0.7881617 1.466745
v -0.2380758 0.7779445 1.474278
v -0.2242522 0.7825412 1.456198
v -0.2001973 0.754185 1.450758
v -0.2238105 0.7513438 1.456657
v -0.2313412 0.7768164 1.476897
v -0.2027487 0.7428679 1.610067
v -0.2307054 0.7455516 1.476987
v -0.2012354 0.7270611 1.609662
v 2.384186E-07 0.7577015 1.467043
v -0.1995475 0.7242114 1.609198
v 2.384186E-07 0.6857281 1.784429
v 2.384186E-07 0.7242873 1.626338
v 2.384186E-07 0.7476109 1.488867
v -0.2292426 0.7397426 1.477187
v 2.384186E-07 0.7517292 1.468427
v -0.2227978 0.7453435 1.457715
v -0.200096 0.7480468 1.452178
v -0.8143883 0.835481 0.3656811
v -0.811924 0.8370535 0.3540179
v -0.7846622 0.8321052 0.5708718
v -0.7951073 0.8361955 0.5829794
v 0.5145539 0.8281528 1.122373
v 0.3162017 0.7994507 1.154392
v 0.5670042 0.8120196 1.003618
v 0.6049783 0.828195 1.033526
v 0.5198791 0.8342095 1.12664
v 0.6117748 0.8363896 1.038311
v 0.6576369 0.7754719 1.272278
v 0.3468449 0.8307549 1.218604
v 0.3964766 0.7849604 1.385365
v 0.7053809 0.8001062 1.087752
v 0.7555808 0.835481 0.7650999
v 0.7776018 0.8310785 0.7704055
v 0.7496282 0.8304175 0.7654403
v 0.3879388 0.7395568 1.561167
v 0.5894275 0.7302962 1.500778
v 0.3574025 0.6945557 1.699462
v 0.5405892 0.6893092 1.636606
v 0.209751 0.7432477 1.608694
v 0.1747082 0.6874357 1.765201
v 0.3176308 0.6384932 1.835453
v 0.1503748 0.6358264 1.88293
v 0.7988266 0.8430623 0.5857165
v 0.8089342 0.8414111 0.589714
v 0.1327732 0.5686888 2.004093
v 2.384186E-07 0.6330218 1.899409
v 2.384186E-07 0.5664806 2.016133
v 0.2735129 0.5699435 1.967143
v 0.4254318 0.5716622 1.909311
v 0.4892246 0.6402937 1.764779
v 0.1168032 0.4944032 2.119464
v 2.384186E-07 0.4941444 2.125639
v 0.2276283 0.4922596 2.096318
v 0.3577119 0.4879526 2.057244
v 0.2259433 0.4815444 2.093887
v 0.3526258 0.4783375 2.053469
v 2.384186E-07 0.4828722 2.124173
v 0.1157567 0.4834742 2.118398
v 0.8150386 0.8460864 0.3703423
v 0.8241137 0.8460442 0.3850099
v 0.8170134 0.8355935 0.3697601
v 0.8143888 0.835481 0.3656811
v 0.7951049 0.8361984 0.5829794
v 0.7846627 0.8321052 0.5708718
v 0.7121408 0.8219724 0.7747067
v 0.1978938 0.8244874 1.26069
v 0.3413509 0.8260993 1.214851
v 2.384186E-07 0.7962438 1.207818
v 2.384186E-07 0.8197923 1.2736
v 2.384186E-07 0.8269544 1.27839
v 0.194594 0.8287745 1.266159
v 0.2005325 0.7896189 1.437663
v 0.2003918 0.7880942 1.443599
v 0.2307762 0.7837339 1.453416
v 2.384186E-07 0.7924152 1.454688
v 2.384186E-07 0.790927 1.460159
v 0.2002343 0.7853993 1.450215
v 2.384186E-07 0.7881617 1.466745
v 0.2380733 0.7779445 1.474278
v 0.2242526 0.7825412 1.456198
v 0.2001949 0.7541879 1.450758
v 0.2238109 0.7513438 1.456657
v 0.2313416 0.7768164 1.476897
v 0.2027492 0.7428679 1.610067
v 0.2307059 0.7455516 1.476987
v 0.2012329 0.7270611 1.609662
v 2.384186E-07 0.7577015 1.467043
v 0.1995451 0.7242114 1.609198
v 2.384186E-07 0.6857281 1.784429
v 2.384186E-07 0.7242873 1.626338
v 2.384186E-07 0.7476109 1.488867
v 0.229243 0.7397426 1.477187
v 2.384186E-07 0.7517292 1.468427
v 0.2227982 0.7453435 1.457715
v 0.2000964 0.7480468 1.452178
v 0.2000964 0.7480468 1.452178
v 0.8143888 0.835481 0.3656811
v 0.7951049 0.8361984 0.5829794
v 0.7846627 0.8321052 0.5708718
v 0.8119245 0.8370535 0.3540179
vt 0.6708467 0.8134817
vt 0.6466569 0.7829661
vt 0.6255684 0.7794719
vt 0.6822951 0.8749382
vt 0.6729334 0.8115832
vt 0.6491036 0.7803556
vt 0.7242509 0.7726142
vt 0.7031707 0.8881216
vt 0.757647 0.8767222
vt 0.6689973 0.752516
vt 0.5727289 0.7252329
vt 0.5754784 0.7187027
vt 0.5722788 0.7275815
vt 0.8129907 0.8826879
vt 0.7941527 0.7987763
vt 0.8558057 0.8910103
vt 0.8364767 0.8165668
vt 0.8187435 0.9157239
vt 0.8671069 0.9294554
vt 0.8987762 0.9026633
vt 0.9062803 0.937336
vt 0.5210104 0.7022378
vt 0.5227453 0.6995046
vt 0.9430315 0.9417877
vt 0.9116076 0.9826306
vt 0.9477124 0.9818286
vt 0.9367386 0.9128597
vt 0.9180152 0.8526715
vt 0.8768613 0.8344064
vt 0.9877287 0.9456584
vt 0.9914439 0.9795864
vt 0.9841608 0.9247991
vt 0.9720741 0.8758057
vt 0.9874341 0.9244308
vt 0.9753556 0.8756257
vt 0.9947827 0.9792754
vt 0.9909366 0.9454292
vt 0.4669188 0.6883344
vt 0.4622461 0.689611
vt 0.4631381 0.6866159
vt 0.4694392 0.6865423
vt 0.5195211 0.7045946
vt 0.5155521 0.707156
vt 0.5735063 0.7368287
vt 0.7048728 0.9155766
vt 0.7019596 0.8902001
vt 0.6818778 0.9743981
vt 0.7029662 0.9760839
vt 0.7055766 0.9762639
vt 0.7070005 0.9166895
vt 0.762557 0.9218941
vt 0.7644637 0.9222705
vt 0.7696437 0.9119186
vt 0.7589726 0.9810675
vt 0.7606175 0.981223
vt 0.7665831 0.922696
vt 0.7627288 0.9814194
vt 0.7773851 0.9090381
vt 0.7705275 0.9144309
vt 0.7751184 0.9258957
vt 0.7780889 0.9209939
vt 0.7784326 0.9110675
vt 0.8190954 0.9176878
vt 0.7832034 0.9195209
vt 0.8193736 0.9221559
vt 0.7718204 0.9819431
vt 0.8193818 0.9231297
vt 0.8732688 0.9831461
vt 0.8234326 0.9838826
vt 0.7797419 0.9825078
vt 0.7836617 0.9210021
vt 0.7736126 0.9820331
vt 0.7791363 0.9219841
vt 0.776665 0.9262803
vt 0.4622461 0.689611
vt 0.45849 0.6894718
vt 0.5155521 0.707156
vt 0.5195211 0.7045946
vt 0.6708467 0.8134817
vt 0.6822951 0.8749382
vt 0.6255684 0.7794719
vt 0.6466569 0.7829661
vt 0.6729334 0.8115832
vt 0.6491036 0.7803556
vt 0.7242509 0.7726142
vt 0.7031707 0.8881216
vt 0.757647 0.8767222
vt 0.6689973 0.752516
vt 0.5727289 0.7252329
vt 0.5754784 0.7187027
vt 0.5722788 0.7275815
vt 0.8129907 0.8826879
vt 0.7941527 0.7987763
vt 0.8558057 0.8910103
vt 0.8364767 0.8165668
vt 0.8187435 0.9157239
vt 0.8671069 0.9294554
vt 0.8987762 0.9026633
vt 0.9062803 0.937336
vt 0.5210104 0.7022378
vt 0.5227453 0.6995046
vt 0.9430315 0.9417877
vt 0.9116076 0.9826306
vt 0.9477124 0.9818286
vt 0.9367386 0.9128597
vt 0.9180152 0.8526715
vt 0.8768613 0.8344064
vt 0.9877287 0.9456584
vt 0.9914439 0.9795864
vt 0.9841608 0.9247991
vt 0.9720741 0.8758057
vt 0.9874341 0.9244308
vt 0.9753556 0.8756257
vt 0.9947827 0.9792754
vt 0.9909366 0.9454292
vt 0.4669188 0.6883344
vt 0.4694392 0.6865423
vt 0.4631381 0.6866159
vt 0.4622461 0.689611
vt 0.5195211 0.7045946
vt 0.5155521 0.707156
vt 0.5735063 0.7368287
vt 0.7048728 0.9155766
vt 0.7019596 0.8902001
vt 0.6818778 0.9743981
vt 0.7029662 0.9760839
vt 0.7055766 0.9762639
vt 0.7070005 0.9166895
vt 0.762557 0.9218941
vt 0.7644637 0.9222705
vt 0.7696437 0.9119186
vt 0.7589726 0.9810675
vt 0.7606175 0.981223
vt 0.7665831 0.922696
vt 0.7627288 0.9814194
vt 0.7773851 0.9090381
vt 0.7705275 0.9144309
vt 0.7751184 0.9258957
vt 0.7780889 0.9209939
vt 0.7784326 0.9110675
vt 0.8190954 0.9176878
vt 0.7832034 0.9195209
vt 0.8193736 0.9221559
vt 0.7718204 0.9819431
vt 0.8193818 0.9231297
vt 0.8732688 0.9831461
vt 0.8234326 0.9838826
vt 0.7797419 0.9825078
vt 0.7836617 0.9210021
vt 0.7736126 0.9820331
vt 0.7791363 0.9219841
vt 0.776665 0.9262803
vt 0.776665 0.9262803
vt 0.4622461 0.689611
vt 0.5195211 0.7045946
vt 0.5155521 0.707156
vt 0.45849 0.6894718
vn 0.1861408 0.9449302 -0.2691812
vn 0.2290435 0.9585811 -0.1692967
vn 0.2270933 0.9585811 -0.1719038
vn 0.05353248 0.9507805 -0.3052059
vn -0.1746318 0.9585811 0.2250022
vn -0.2428862 0.9546808 0.1720199
vn -0.1473302 0.9566309 0.2512988
vn -0.1005272 0.9663815 0.2366452
vn -0.09857702 0.9663815 0.2374642
vn -0.2116842 0.9624813 0.1697633
vn -0.2136343 0.9702818 0.113638
vn -0.1239287 0.9761322 0.178347
vn 0.2621956 0.9605311 -0.0929166
vn -0.1161282 0.9488305 0.2936578
vn -0.07907581 0.9507805 0.2996054
vn -0.127829 0.9176285 0.3763212
vn -0.09857702 0.9020275 0.4202725
vn -0.096627 0.9488305 0.3006392
vn -0.06542504 0.9332294 0.3532737
vn -0.14538 0.878626 0.4548418
vn -0.07517564 0.8883766 0.452919
vn -0.1141781 0.9917331 0.05855661
vn 0.01843029 0.9936832 -0.1106978
vn -0.08102596 0.8493742 0.5215346
vn 0.0008791685 0.8922769 0.4514878
vn 0.0008791685 0.8532745 0.5214614
vn -0.1609809 0.8376734 0.5219084
vn -0.08102596 0.7811199 0.6191013
vn -0.04397368 0.8708255 0.4896215
vn -0.0829761 0.8318231 0.5488034
vn 0.0008791685 0.8357233 0.5491501
vn -0.1648812 0.8181722 0.5508252
vn -0.2760382 0.9098279 0.3098645
vn -0.2350856 -0.2680459 0.9342837
vn -0.2662876 -0.3616518 0.8934757
vn 0.09838527 -0.1003354 0.9900773
vn -0.1239287 -0.1471384 0.9813215
vn -0.06542504 0.9975835 0.02338148
vn 0.2600348 0.9655993 0
vn -0.8337733 0.1863326 -0.5197137
vn 0.2953476 0.8961772 0.3311136
vn 0.2543951 0.9663815 -0.03728004
vn 0.2543951 0.9663815 -0.03728004
vn 0.2621956 0.9605311 -0.0929166
vn 0.05353248 0.9507805 -0.3052059
vn 0.1549388 0.925429 -0.3457965
vn 0.0008791685 0.9527307 -0.3038149
vn 0.0008791685 0.9527307 -0.3038149
vn 0.0008791685 0.9780823 0.2082167
vn -0.04592383 0.974182 0.221044
vn -0.05762446 0.974182 0.2182862
vn -0.07907581 0.974182 0.2114626
vn -0.08492625 0.9702818 0.2265849
vn 0.0008791685 0.9780823 0.2082167
vn -0.0732255 0.9683317 0.2386875
vn 0.08083421 0.0166719 0.9965881
vn -0.08102596 0.01277173 0.9966301
vn -0.09272671 0.9644314 0.2475355
vn 0.6736714 0.02057219 0.7387447
vn 0.08083421 0.0166719 0.9965881
vn 0.6736714 0.02057219 0.7387447
vn 0.9973917 0.03422308 0.06354986
vn 0.9778905 0.04592383 -0.2040128
vn 0.9973917 0.03422308 0.06354986
vn 0.9778905 0.04592383 -0.2040128
vn -0.08102596 0.01277173 0.9966301
vn -0.02252233 0.9819825 0.1876252
vn 0.0008791685 0.9449302 0.3272707
vn 0.0008791685 0.9819825 0.18897
vn 0.0008791685 0.9819825 0.18897
vn -0.03422308 0.9800324 0.1958703
vn 0.0008791685 0.9702818 0.241976
vn -0.04202354 0.9702818 0.2383006
vn -0.04202354 0.9702818 0.2383006
vn 0.17444 0.9839326 -0.03804366
vn 0.17444 0.9839326 -0.03804366
vn 0.1704505 0.9853663 0
vn 0.1704505 0.9853663 0
vn -0.1863326 0.9449302 -0.2690485
vn -0.05372429 0.9507805 -0.3051723
vn -0.2272851 0.9585811 -0.1716501
vn -0.2292353 0.9585811 -0.1690368
vn 0.17444 0.9585811 0.225151
vn 0.2426943 0.9546808 0.1722905
vn 0.1529887 0.9663815 0.2066425
vn 0.1022855 0.9663815 0.2358905
vn 0.1003354 0.9663815 0.2367265
vn 0.2075921 0.9605311 0.1851634
vn 0.2134425 0.9702818 0.1139977
vn 0.2309936 0.9722319 0.03751195
vn -0.2623874 0.9605311 -0.0923736
vn 0.1159364 0.9488305 0.2937336
vn 0.1003354 0.9410299 0.323103
vn 0.1276371 0.9176285 0.3763863
vn 0.1120362 0.9507805 0.2889019
vn 0.09643519 0.9488305 0.3007008
vn 0.06523323 0.9332294 0.3533093
vn 0.1451882 0.878626 0.454903
vn 0.07498384 0.8883766 0.4529508
vn 0.1139863 0.9917331 0.05892899
vn -0.096627 0.9917331 0.08443172
vn 0.08083421 0.8493742 0.5215643
vn 0.0008791685 0.8922769 0.4514878
vn 0.0008791685 0.8532745 0.5214614
vn 0.1607892 0.8376734 0.5219675
vn 0.1237369 0.9156784 0.3823902
vn 0.07693392 0.845474 0.5284458
vn 0.0827843 0.8318231 0.5488325
vn 0.0008791685 0.8357233 0.5491501
vn 0.1646894 0.8181722 0.5508826
vn -0.05567443 0.9059278 0.4197562
vn 0.2348939 -0.2680459 0.934332
vn 0.2660958 -0.3616518 0.8935329
vn 0.09838527 -0.1003354 0.9900773
vn 0.1237369 -0.1471384 0.9813457
vn 0.06523323 0.9975835 0.02391208
vn -0.1492803 0.8708255 0.4683784
vn 0.8335814 0.1863326 -0.5200213
vn -0.2602134 0.9655511 0
vn -0.2545868 0.9663815 -0.03594758
vn -0.2545868 0.9663815 -0.03594758
vn -0.2623874 0.9605311 -0.0923736
vn -0.05372429 0.9507805 -0.3051723
vn -0.1551306 0.925429 -0.3457105
vn 0.0008791685 0.9527307 -0.3038149
vn 0.0008791685 0.9527307 -0.3038149
vn 0.0008791685 0.9780823 0.2082167
vn 0.04573196 0.974182 0.2210837
vn 0.05743271 0.974182 0.2183367
vn 0.07888407 0.974182 0.2115342
vn 0.08473444 0.9702818 0.2266567
vn 0.0008791685 0.9780823 0.2082167
vn 0.07303369 0.9683317 0.2387463
vn -0.08102596 0.01472187 0.9966033
vn 0.0827843 0.01277173 0.9964857
vn 0.0925349 0.9644314 0.2476074
vn -0.6738632 0.02057219 0.7385697
vn -0.08102596 0.01472187 0.9966033
vn -0.6738632 0.02057219 0.7385697
vn -0.9975835 0.03422308 0.06046423
vn -0.9780823 0.04592383 -0.2030911
vn -0.9975835 0.03422308 0.06046423
vn -0.9780823 0.04592383 -0.2030911
vn 0.08083421 0.01277173 0.9966457
vn 0.02428061 0.9819825 0.1874057
vn 0.0008791685 0.9449302 0.3272707
vn 0.0008791685 0.9819825 0.18897
vn 0.0008791685 0.9819825 0.18897
vn 0.03598136 0.9800324 0.195555
vn 0.0008791685 0.9702818 0.241976
vn 0.04183173 0.9702818 0.2383344
vn 0.04183173 0.9702818 0.2383344
vn 0.05158234 0.9702818 0.2364158
vn -0.1746318 0.9839326 -0.03715272
vn -0.1706366 0.985334 0
vn -0.1706366 0.985334 0
vn -0.1746318 0.9839326 -0.03715272
g model_car_114_body_hood_LOD1_0
f 3/3/3 2/2/2 1/1/1
f 4/4/4 3/3/3 1/1/1
f 1/1/1 2/2/2 5/5/5
f 2/2/2 6/6/6 5/5/5
f 7/7/7 5/5/5 6/6/6
f 8/8/8 5/5/5 7/7/7
f 9/9/9 8/8/8 7/7/7
f 10/10/10 7/7/7 6/6/6
f 10/10/10 6/6/6 11/11/11
f 11/11/11 6/6/6 2/2/2
f 12/12/12 10/10/10 11/11/11
f 13/13/13 11/11/11 2/2/2
f 13/13/13 2/2/2 3/3/3
f 14/14/14 9/9/9 7/7/7
f 15/15/15 14/14/14 7/7/7
f 14/14/14 15/15/15 16/16/16
f 15/15/15 17/17/17 16/16/16
f 18/18/18 14/14/14 16/16/16
f 14/14/14 18/18/18 9/9/9
f 19/19/19 18/18/18 16/16/16
f 19/19/19 16/16/16 20/20/20
f 20/20/20 16/16/16 17/17/17
f 21/21/21 19/19/19 20/20/20
f 12/12/12 11/11/11 22/22/22
f 23/23/23 12/12/12 22/22/22
f 24/24/24 21/21/21 20/20/20
f 25/25/25 21/21/21 24/24/24
f 26/26/26 25/25/25 24/24/24
f 27/27/27 24/24/24 20/20/20
f 27/27/27 20/20/20 28/28/28
f 20/20/20 29/29/29 28/28/28
f 29/29/29 20/20/20 17/17/17
f 24/24/24 30/30/30 26/26/26
f 30/30/30 31/31/31 26/26/26
f 27/27/27 28/28/28 32/32/32
f 32/32/32 30/30/30 24/24/24
f 27/27/27 32/32/32 24/24/24
f 28/28/28 33/33/33 32/32/32
f 34/34/34 32/32/32 33/33/33
f 35/35/35 34/34/34 33/33/33
f 36/36/36 31/31/31 30/30/30
f 37/37/37 36/36/36 30/30/30
f 37/37/37 30/30/30 32/32/32
f 34/34/34 37/37/37 32/32/32
f 22/22/22 38/38/38 23/23/23
f 38/38/38 22/22/22 39/39/39
f 39/39/39 40/40/40 38/38/38
f 40/40/40 41/41/41 38/38/38
f 38/38/38 41/41/41 23/23/23
f 22/22/22 42/42/42 39/39/39
f 42/42/42 22/22/22 11/11/11
f 13/13/13 42/42/42 11/11/11
f 43/43/43 42/42/42 13/13/13
f 44/44/44 43/43/43 13/13/13
f 44/44/44 13/13/13 3/3/3
f 4/4/4 46/46/46 45/45/45
f 4/4/4 45/45/45 47/47/47
f 45/45/45 48/48/48 47/47/47
f 48/48/48 45/45/45 49/49/49
f 45/45/45 50/50/50 49/49/49
f 45/45/45 46/46/46 50/50/50
f 46/46/46 8/8/8 50/50/50
f 5/5/5 8/8/8 46/46/46
f 1/1/1 5/5/5 46/46/46
f 46/46/46 4/4/4 1/1/1
f 50/50/50 8/8/8 9/9/9
f 51/51/51 50/50/50 9/9/9
f 52/52/52 51/51/51 9/9/9
f 53/53/53 52/52/52 9/9/9
f 51/51/51 52/52/52 54/54/54
f 54/54/54 49/49/49 50/50/50
f 51/51/51 54/54/54 50/50/50
f 52/52/52 55/55/55 54/54/54
f 52/52/52 56/56/56 55/55/55
f 56/56/56 52/52/52 53/53/53
f 56/56/56 57/57/57 55/55/55
f 58/58/58 53/53/53 9/9/9
f 59/59/59 56/56/56 53/53/53
f 59/59/59 53/53/53 58/58/58
f 60/60/60 56/56/56 59/59/59
f 56/56/56 60/60/60 57/57/57
f 61/61/61 60/60/60 59/59/59
f 61/61/61 59/59/59 62/62/62
f 62/62/62 59/59/59 58/58/58
f 62/62/62 58/58/58 18/18/18
f 18/18/18 58/58/58 9/9/9
f 63/63/63 62/62/62 18/18/18
f 18/18/18 19/19/19 63/63/63
f 64/64/64 61/61/61 62/62/62
f 63/63/63 19/19/19 65/65/65
f 62/62/62 63/63/63 65/65/65
f 64/64/64 62/62/62 65/65/65
f 60/60/60 66/66/66 57/57/57
f 65/65/65 19/19/19 67/67/67
f 64/64/64 65/65/65 67/67/67
f 19/19/19 68/68/68 67/67/67
f 19/19/19 21/21/21 68/68/68
f 21/21/21 25/25/25 68/68/68
f 68/68/68 69/69/69 67/67/67
f 69/69/69 70/70/70 67/67/67
f 70/70/70 71/71/71 67/67/67
f 71/71/71 64/64/64 67/67/67
f 61/61/61 64/64/64 71/71/71
f 71/71/71 70/70/70 72/72/72
f 73/73/73 71/71/71 72/72/72
f 72/72/72 74/74/74 73/73/73
f 72/72/72 66/66/66 74/74/74
f 66/66/66 60/60/60 74/74/74
f 74/74/74 60/60/60 73/73/73
f 73/73/73 61/61/61 71/71/71
f 60/60/60 61/61/61 73/73/73
f 77/77/77 76/76/76 75/75/75
f 78/78/78 77/77/77 75/75/75
f 81/81/81 80/80/80 79/79/79
f 82/82/82 81/81/81 79/79/79
f 82/82/82 79/79/79 83/83/83
f 84/84/84 82/82/82 83/83/83
f 83/83/83 85/85/85 84/84/84
f 83/83/83 86/86/86 85/85/85
f 86/86/86 87/87/87 85/85/85
f 85/85/85 88/88/88 84/84/84
f 84/84/84 88/88/88 89/89/89
f 84/84/84 89/89/89 82/82/82
f 88/88/88 90/90/90 89/89/89
f 89/89/89 91/91/91 82/82/82
f 82/82/82 91/91/91 81/81/81
f 87/87/87 92/92/92 85/85/85
f 92/92/92 93/93/93 85/85/85
f 93/93/93 92/92/92 94/94/94
f 95/95/95 93/93/93 94/94/94
f 92/92/92 96/96/96 94/94/94
f 96/96/96 92/92/92 87/87/87
f 96/96/96 97/97/97 94/94/94
f 94/94/94 97/97/97 98/98/98
f 94/94/94 98/98/98 95/95/95
f 97/97/97 99/99/99 98/98/98
f 89/89/89 90/90/90 100/100/100
f 90/90/90 101/101/101 100/100/100
f 99/99/99 102/102/102 98/98/98
f 99/99/99 103/103/103 102/102/102
f 103/103/103 104/104/104 102/102/102
f 102/102/102 105/105/105 98/98/98
f 98/98/98 105/105/105 106/106/106
f 107/107/107 98/98/98 106/106/106
f 98/98/98 107/107/107 95/95/95
f 108/108/108 102/102/102 104/104/104
f 109/109/109 108/108/108 104/104/104
f 106/106/106 105/105/105 110/110/110
f 110/110/110 105/105/105 102/102/102
f 108/108/108 110/110/110 102/102/102
f 111/111/111 106/106/106 110/110/110
f 110/110/110 112/112/112 111/111/111
f 112/112/112 113/113/113 111/111/111
f 109/109/109 114/114/114 108/108/108
f 114/114/114 115/115/115 108/108/108
f 115/115/115 112/112/112 110/110/110
f 108/108/108 115/115/115 110/110/110
f 116/116/116 100/100/100 101/101/101
f 117/117/117 116/116/116 101/101/101
f 117/117/117 118/118/118 116/116/116
f 118/118/118 119/119/119 116/116/116
f 100/100/100 116/116/116 119/119/119
f 120/120/120 100/100/100 119/119/119
f 100/100/100 120/120/120 89/89/89
f 120/120/120 91/91/91 89/89/89
f 120/120/120 121/121/121 91/91/91
f 121/121/121 122/122/122 91/91/91
f 91/91/91 122/122/122 81/81/81
f 124/124/124 80/80/80 123/123/123
f 123/123/123 80/80/80 125/125/125
f 126/126/126 123/123/123 125/125/125
f 123/123/123 126/126/126 127/127/127
f 128/128/128 123/123/123 127/127/127
f 124/124/124 123/123/123 128/128/128
f 86/86/86 124/124/124 128/128/128
f 86/86/86 83/83/83 124/124/124
f 83/83/83 79/79/79 124/124/124
f 80/80/80 124/124/124 79/79/79
f 86/86/86 128/128/128 87/87/87
f 128/128/128 129/129/129 87/87/87
f 129/129/129 130/130/130 87/87/87
f 130/130/130 131/131/131 87/87/87
f 130/130/130 129/129/129 132/132/132
f 132/132/132 129/129/129 128/128/128
f 127/127/127 132/132/132 128/128/128
f 133/133/133 130/130/130 132/132/132
f 134/134/134 130/130/130 133/133/133
f 130/130/130 134/134/134 131/131/131
f 135/135/135 134/134/134 133/133/133
f 131/131/131 136/136/136 87/87/87
f 134/134/134 137/137/137 131/131/131
f 131/131/131 137/137/137 136/136/136
f 134/134/134 138/138/138 137/137/137
f 138/138/138 134/134/134 135/135/135
f 138/138/138 139/139/139 137/137/137
f 137/137/137 139/139/139 140/140/140
f 137/137/137 140/140/140 136/136/136
f 136/136/136 140/140/140 96/96/96
f 136/136/136 96/96/96 87/87/87
f 140/140/140 141/141/141 96/96/96
f 97/97/97 96/96/96 141/141/141
f 139/139/139 142/142/142 140/140/140
f 97/97/97 141/141/141 143/143/143
f 140/140/140 142/142/142 143/143/143
f 141/141/141 140/140/140 143/143/143
f 144/144/144 138/138/138 135/135/135
f 97/97/97 143/143/143 145/145/145
f 143/143/143 142/142/142 145/145/145
f 146/146/146 97/97/97 145/145/145
f 99/99/99 97/97/97 146/146/146
f 103/103/103 99/99/99 146/146/146
f 147/147/147 146/146/146 145/145/145
f 148/148/148 147/147/147 145/145/145
f 149/149/149 148/148/148 145/145/145
f 142/142/142 149/149/149 145/145/145
f 142/142/142 139/139/139 149/149/149
f 150/150/150 148/148/148 149/149/149
f 150/150/150 149/149/149 151/151/151
f 151/151/151 152/152/152 150/150/150
f 144/144/144 150/150/150 153/153/153
f 138/138/138 144/144/144 153/153/153
f 138/138/138 152/152/152 151/151/151
f 139/139/139 151/151/151 149/149/149
f 139/139/139 138/138/138 151/151/151
f 156/156/156 155/155/155 154/154/154
f 157/157/157 156/156/156 154/154/154
