g Glass_44
v 0.1771 1.0822 0.3850994
v 0.3642 0.8989004 0.7585995
v 0.1999 0.8963004 0.7840995
v 0 1.0868 0.3912994
v 0 1.2255 0.07089933
v 0.3303 1.0719 0.3707994
v 0.4601 1.0572 0.3544994
v 0.5188 0.8961004 0.7027995
v 0.3425 1.2069 0.06109934
v 0.436 1.1904 0.04639934
v 0.4612 1.1837 0.05119934
v 0.5195 1.115 0.1960994
v 0.1596 1.2234 0.07049933
v 0.5605 1.0462 0.3422994
v 0.5814 0.9989002 0.4270994
v 0.586 0.8956004 0.6680995
v 0.6268 0.8955004 0.6332995
v 0 0.8912004 0.7903996
v 0.1846 1.115599 -1.490701
v 0.4244 1.086099 -1.450801
v 0.1589 1.250199 -1.005001
v 0.4694 0.961399 -1.842901
v 0.2069 0.974399 -1.912401
v 0 1.118899 -1.492501
v 0 1.251799 -1.005001
v 0.5008 0.9870991 -1.670401
v 0.4943 1.061899 -1.436801
v 0.4696 1.135499 -1.231201
v 0.4351 1.208699 -1.004901
v 0.3583 1.234799 -1.004601
v 0.4784 0.959899 -1.813901
v 0 0.977799 -1.921001
v 0.6579 0.9500993 -1.239101
v 0.6712 0.9167995 -0.8932005
v 0.6262 0.9932993 -1.234001
v 0.5941 1.049099 -1.140501
v 0.5586 1.111699 -1.026301
v 0.5171 1.188699 -0.8087007
v 0.6701 0.9021997 -0.5244005
v 0.5116 1.2307 -0.5158007
v 0.5104 1.2205 -0.2604007
v 0.6791 0.8690002 0.3509995
v 0.529 1.1833 -0.02790065
v 0.6699 0.9023997 -0.5099005
v 0.5103 1.2288 -0.5003007
v 0.5738 1.0959 0.1711994
v 0.5386 1.1558 0.03689936
v 0.6108 1.0256 0.3061994
v 0.6267 0.9830002 0.3728995
v -0.1771 1.0822 0.3850994
v -0.1999 0.8963004 0.7840995
v -0.3642 0.8989004 0.7585995
v 0 1.0868 0.3912994
v 0 1.2255 0.07089933
v -0.3303 1.0719 0.3707994
v -0.4601 1.0572 0.3544994
v -0.5189 0.8961004 0.7027995
v -0.3425 1.2069 0.06109934
v -0.436 1.1904 0.04639934
v -0.4612 1.1837 0.05119934
v -0.5195 1.115 0.1960994
v -0.1596 1.2234 0.07049933
v -0.5606 1.0462 0.3422994
v -0.5814 0.9989002 0.4270994
v -0.586 0.8956004 0.6680995
v -0.6268 0.8955004 0.6332995
v 0 0.8912004 0.7903996
v -0.1846 1.115599 -1.490701
v -0.1589 1.250199 -1.005001
v -0.4244 1.086099 -1.450801
v -0.4694 0.961399 -1.842901
v -0.2069 0.974399 -1.912401
v 0 1.118899 -1.492501
v 0 1.251799 -1.005001
v -0.5009 0.9870991 -1.670401
v -0.4943 1.061899 -1.436801
v -0.4696 1.135499 -1.231201
v -0.4352 1.208699 -1.004901
v -0.3583 1.234799 -1.004601
v -0.4785 0.959899 -1.813901
v 0 0.977799 -1.921001
v -0.6579 0.9500993 -1.239101
v -0.6262 0.9932993 -1.234001
v -0.6712 0.9167995 -0.8932005
v -0.5942 1.049099 -1.140501
v -0.5587 1.111699 -1.026301
v -0.5171 1.188699 -0.8087007
v -0.6701 0.9021997 -0.5244005
v -0.5116 1.2307 -0.5158007
v -0.5104 1.2205 -0.2604007
v -0.529 1.1833 -0.02790065
v -0.6791 0.8690002 0.3509995
v -0.67 0.9023997 -0.5099005
v -0.5103 1.2288 -0.5003007
v -0.5738 1.0959 0.1711994
v -0.5386 1.1558 0.03689936
v -0.6109 1.0256 0.3061994
v -0.6267 0.9830002 0.3728995
vt 0.506 0.7614
vt 0.3964 0.501
vt 0.4919 0.4882
vt 0.6159 0.7592
vt 0.6155 0.9744
vt 0.4104 0.7668
vt 0.3288 0.7724
vt 0.2922 0.5342
vt 0.4024 0.9758
vt 0.3441 0.9781
vt 0.3283 0.9737
vt 0.2913 0.8769
vt 0.5165 0.9745
vt 0.2657 0.7766
vt 0.252 0.7165
vt 0.2496 0.5538
vt 0.2228 0.5735
vt 0.6159 0.4833
vt 0.7848 0.6705
vt 0.9357 0.6891
vt 0.7689 0.9833
vt 0.9639 0.4337
vt 0.7997 0.3945
vt 0.6704 0.6698
vt 0.6704 0.9835
vt 0.9878 0.5411
vt 0.9823 0.6933
vt 0.965 0.8286
vt 0.9433 0.9761
vt 0.8931 0.9809
vt 0.9721 0.4507
vt 0.6713 0.3897
vt 0.337 0.0192
vt 0.3473 0.2311
vt 0.3026 0.0247
vt 0.262 0.0775
vt 0.2183 0.1464
vt 0.1611 0.2768
vt 0.3473 0.4559
vt 0.1303 0.4524
vt 0.5971 0.2348
vt 0.9824 0.0164
vt 0.7416 0.2147
vt 0.4555 0.0164
vt 0.4526 0.2335
vt 0.8665 0.1591
vt 0.7822 0.1996
vt 0.9521 0.1133
vt 0.9922 0.0884
vt 0.506 0.7614
vt 0.4919 0.4882
vt 0.3964 0.501
vt 0.6159 0.7592
vt 0.6155 0.9744
vt 0.4104 0.7668
vt 0.3288 0.7724
vt 0.2922 0.5342
vt 0.4024 0.9758
vt 0.3441 0.9781
vt 0.3283 0.9737
vt 0.2913 0.8769
vt 0.5165 0.9745
vt 0.2657 0.7766
vt 0.252 0.7165
vt 0.2496 0.5538
vt 0.2228 0.5735
vt 0.6159 0.4833
vt 0.7848 0.6705
vt 0.7689 0.9833
vt 0.9357 0.6891
vt 0.9639 0.4337
vt 0.7997 0.3945
vt 0.6704 0.6698
vt 0.6704 0.9835
vt 0.9878 0.5411
vt 0.9823 0.6933
vt 0.965 0.8286
vt 0.9433 0.9761
vt 0.8931 0.9809
vt 0.9721 0.4507
vt 0.6713 0.3897
vt 0.337 0.0192
vt 0.3026 0.0247
vt 0.3473 0.2311
vt 0.262 0.0775
vt 0.2183 0.1464
vt 0.1611 0.2768
vt 0.3473 0.4559
vt 0.1303 0.4524
vt 0.5971 0.2348
vt 0.7416 0.2147
vt 0.9824 0.0164
vt 0.4555 0.0164
vt 0.4526 0.2335
vt 0.8665 0.1591
vt 0.7822 0.1996
vt 0.9521 0.1133
vt 0.9922 0.0884
vn 0.06384698 0.9112093 0.4069659
vn 0.1041004 0.9082507 0.40527
vn 0.02594431 0.9035304 0.4277378
vn 0 0.9112778 0.4117922
vn 0 0.9141535 0.4053682
vn 0.124822 0.9087682 0.3981958
vn 0.1599363 0.9038199 0.3969006
vn 0.1778538 0.9042299 0.3882477
vn 0.1554686 0.9075704 0.3900583
vn 0.196587 0.9054887 0.3760902
vn 0.1628164 0.9104165 0.3803058
vn 0.1321333 0.9141915 0.383138
vn 0.05606761 0.9123101 0.4056436
vn 0.149379 0.8933197 0.4238701
vn 0.1990219 0.8954341 0.3982314
vn 0.240852 0.8937246 0.3784794
vn 0.3165347 0.8740381 0.3685961
vn 0 0.8979541 0.4400892
vn 0.08714715 0.9550129 -0.283471
vn 0.2600284 0.925974 -0.2737835
vn 0.053443 0.9590033 -0.2783103
vn 0.2681401 0.9185871 -0.2903422
vn 0.07471404 0.9472307 -0.3117241
vn 0 0.9571959 -0.2894407
vn 0 0.9640319 -0.2657866
vn 0.4777082 0.8501419 -0.2214807
vn 0.3632633 0.8901833 -0.2749789
vn 0.2675124 0.9268103 -0.2635522
vn 0.3047673 0.9164523 -0.2592915
vn 0.1778102 0.9411863 -0.2873183
vn 0.8204466 0.5245155 -0.2274885
vn 0 0.9498297 -0.3127676
vn 0.807406 0.5894362 0.02570019
vn 0.8671592 0.4979732 0.007590339
vn 0.8305165 0.5567834 0.0153187
vn 0.8660121 0.5000169 -0.002496944
vn 0.8677846 0.4968978 -0.006515475
vn 0.8812003 0.4726116 -0.01114646
vn 0.8862163 0.4631596 -0.01018657
vn 0.8992447 0.435073 -0.04550167
vn 0.8980597 0.4397918 0.008481916
vn 0.9091424 0.4164834 -0.001296826
vn 0.8977015 0.4405992 0.002085053
vn 0.8970809 0.4417467 0.0102794
vn 0.8984287 0.4388695 0.01480951
vn 0.9131123 0.4066922 -0.0287622
vn 0.1737985 0.9155213 0.3627875
vn 0.9192052 0.392744 -0.02852816
vn 0.9109361 0.4101099 0.04477872
vn -0.06384698 0.9112092 0.4069659
vn -0.02594431 0.9035304 0.4277378
vn -0.104066 0.9082578 0.4052629
vn 0 0.9112778 0.4117922
vn 0 0.9141535 0.4053682
vn -0.124822 0.9087682 0.3981957
vn -0.1598915 0.9038259 0.3969048
vn -0.177887 0.9042333 0.3882245
vn -0.1554686 0.9075704 0.3900583
vn -0.196587 0.9054887 0.3760902
vn -0.1628164 0.9104165 0.3803058
vn -0.1321074 0.9141983 0.3831306
vn -0.0560676 0.9123101 0.4056435
vn -0.1492386 0.8933054 0.4239497
vn -0.1990251 0.8954242 0.3982516
vn -0.2410393 0.8936829 0.3784586
vn -0.3165347 0.8740381 0.3685961
vn 0 0.8979541 0.4400892
vn -0.08714715 0.9550129 -0.283471
vn -0.053443 0.9590033 -0.2783103
vn -0.2600032 0.9259881 -0.2737597
vn -0.267686 0.918754 -0.2902331
vn -0.07471404 0.9472307 -0.3117241
vn 0 0.9571959 -0.2894407
vn 0 0.9640319 -0.2657866
vn -0.4769755 0.8505111 -0.221642
vn -0.3632578 0.890207 -0.2749096
vn -0.2677698 0.9267262 -0.2635864
vn -0.304464 0.9165297 -0.2593739
vn -0.177649 0.9412073 -0.2873493
vn -0.814983 0.5326702 -0.2281779
vn 0 0.9498297 -0.3127676
vn -0.807406 0.5894362 0.02570019
vn -0.8307167 0.5564871 0.01522576
vn -0.8672436 0.4978244 0.007709488
vn -0.8663743 0.4993884 -0.002595666
vn -0.8678879 0.4967213 -0.006208715
vn -0.8812208 0.4725767 -0.01100336
vn -0.8862163 0.4631596 -0.01018657
vn -0.8992447 0.435073 -0.04550167
vn -0.8979821 0.4399491 0.008544419
vn -0.8977015 0.4405992 0.002085053
vn -0.9092179 0.4163187 -0.001205363
vn -0.8969914 0.4419268 0.01035206
vn -0.8983202 0.4390914 0.01481728
vn -0.9131542 0.4065871 -0.02891982
vn -0.1737985 0.9155213 0.3627875
vn -0.9194634 0.3920943 -0.02914013
vn -0.9109736 0.4098919 0.04599702
g Glass_44_0
f 3/3/3 2/2/2 1/1/1
f 1/1/1 4/4/4 3/3/3
f 5/5/5 4/4/4 1/1/1
f 2/2/2 6/6/6 1/1/1
f 2/2/2 7/7/7 6/6/6
f 7/7/7 2/2/2 8/8/8
f 9/9/9 6/6/6 7/7/7
f 10/10/10 9/9/9 7/7/7
f 11/11/11 10/10/10 7/7/7
f 12/12/12 11/11/11 7/7/7
f 9/9/9 13/13/13 6/6/6
f 1/1/1 6/6/6 13/13/13
f 13/13/13 5/5/5 1/1/1
f 7/7/7 14/14/14 12/12/12
f 14/14/14 7/7/7 15/15/15
f 15/15/15 7/7/7 8/8/8
f 8/8/8 16/16/16 15/15/15
f 17/17/17 15/15/15 16/16/16
f 18/18/18 3/3/3 4/4/4
f 21/21/21 20/20/20 19/19/19
f 19/19/19 20/20/20 22/22/22
f 22/22/22 23/23/23 19/19/19
f 23/23/23 24/24/24 19/19/19
f 25/25/25 19/19/19 24/24/24
f 21/21/21 19/19/19 25/25/25
f 26/26/26 22/22/22 20/20/20
f 26/26/26 20/20/20 27/27/27
f 28/28/28 27/27/27 20/20/20
f 29/29/29 28/28/28 20/20/20
f 29/29/29 20/20/20 30/30/30
f 30/30/30 20/20/20 21/21/21
f 26/26/26 31/31/31 22/22/22
f 23/23/23 32/32/32 24/24/24
f 35/35/35 34/34/34 33/33/33
f 36/36/36 34/34/34 35/35/35
f 36/36/36 37/37/37 34/34/34
f 37/37/37 38/38/38 34/34/34
f 38/38/38 39/39/39 34/34/34
f 40/40/40 39/39/39 38/38/38
f 43/43/43 42/42/42 41/41/41
f 42/42/42 44/44/44 41/41/41
f 41/41/41 44/44/44 45/45/45
f 46/46/46 42/42/42 43/43/43
f 43/43/43 47/47/47 46/46/46
f 46/46/46 48/48/48 42/42/42
f 49/49/49 42/42/42 48/48/48
f 52/52/52 51/51/51 50/50/50
f 50/50/50 51/51/51 53/53/53
f 53/53/53 54/54/54 50/50/50
f 55/55/55 52/52/52 50/50/50
f 56/56/56 52/52/52 55/55/55
f 52/52/52 56/56/56 57/57/57
f 55/55/55 58/58/58 56/56/56
f 58/58/58 59/59/59 56/56/56
f 59/59/59 60/60/60 56/56/56
f 60/60/60 61/61/61 56/56/56
f 62/62/62 58/58/58 55/55/55
f 50/50/50 62/62/62 55/55/55
f 54/54/54 62/62/62 50/50/50
f 63/63/63 56/56/56 61/61/61
f 56/56/56 63/63/63 64/64/64
f 56/56/56 64/64/64 57/57/57
f 65/65/65 57/57/57 64/64/64
f 64/64/64 66/66/66 65/65/65
f 51/51/51 67/67/67 53/53/53
f 70/70/70 69/69/69 68/68/68
f 70/70/70 68/68/68 71/71/71
f 72/72/72 71/71/71 68/68/68
f 73/73/73 72/72/72 68/68/68
f 68/68/68 74/74/74 73/73/73
f 68/68/68 69/69/69 74/74/74
f 71/71/71 75/75/75 70/70/70
f 70/70/70 75/75/75 76/76/76
f 76/76/76 77/77/77 70/70/70
f 77/77/77 78/78/78 70/70/70
f 70/70/70 78/78/78 79/79/79
f 70/70/70 79/79/79 69/69/69
f 80/80/80 75/75/75 71/71/71
f 81/81/81 72/72/72 73/73/73
f 84/84/84 83/83/83 82/82/82
f 84/84/84 85/85/85 83/83/83
f 86/86/86 85/85/85 84/84/84
f 87/87/87 86/86/86 84/84/84
f 88/88/88 87/87/87 84/84/84
f 88/88/88 89/89/89 87/87/87
f 92/92/92 91/91/91 90/90/90
f 93/93/93 92/92/92 90/90/90
f 93/93/93 90/90/90 94/94/94
f 92/92/92 95/95/95 91/91/91
f 96/96/96 91/91/91 95/95/95
f 97/97/97 95/95/95 92/92/92
f 92/92/92 98/98/98 97/97/97
