g Taillights_44
v 0.6461 0.8251988 -2.095701
v 0.6234 0.8251988 -2.1241
v 0.6466 0.6666988 -2.1604
v 0.6671 0.6666988 -2.1295
v 0.5767 0.8251988 -2.1508
v 0.5776 0.6666988 -2.1961
v 0.4843 0.8251988 -2.176001
v 0.4343 0.8120987 -2.188
v 0.4328 0.6666988 -2.2294
v 0.3947 0.7777988 -2.204
v 0.3616 0.7336987 -2.2209
v 0.344 0.6666988 -2.232
v 0.6548 0.8027988 -2.0869
v 0.6737 0.6784988 -2.114
v -0.6461 0.8251988 -2.095701
v -0.6466 0.6666988 -2.1604
v -0.6234 0.8251988 -2.1241
v -0.6671 0.6666988 -2.1295
v -0.5767 0.8251988 -2.1508
v -0.5776 0.6666988 -2.1961
v -0.4843 0.8251988 -2.176001
v -0.4344 0.8120987 -2.188
v -0.4328 0.6666988 -2.2294
v -0.3947 0.7777988 -2.204
v -0.3616 0.7336987 -2.2209
v -0.3441 0.6666988 -2.232
v -0.6548 0.8027988 -2.0869
v -0.6737 0.6784988 -2.114
vt 0.4568 0.2426
vt 0.4138 0.2412
vt 0.4193 0.0213
vt 0.4661 0.0226
vt 0.3263 0.2412
vt 0.319 0.0224
vt 0.2027 0.2371
vt 0.1341 0.2133
vt 0.122 0.0098
vt 0.0791 0.1649
vt 0.0331 0.1031
vt 0.0075 0.0072
vt 0.4755 0.2183
vt 0.4857 0.0505
vt 0.4568 0.2426
vt 0.4193 0.0213
vt 0.4138 0.2412
vt 0.4661 0.0226
vt 0.3263 0.2412
vt 0.319 0.0224
vt 0.2027 0.2371
vt 0.1341 0.2133
vt 0.122 0.0098
vt 0.0791 0.1649
vt 0.0331 0.1031
vt 0.0075 0.0072
vt 0.4755 0.2183
vt 0.4857 0.0505
vn 0.8104004 0.2341506 -0.5370518
vn 0.6312739 0.2597611 -0.730765
vn 0.6413703 0.2460548 -0.7267056
vn 0.8171888 0.2266814 -0.5299226
vn 0.3709742 0.2642742 -0.8902457
vn 0.3293119 0.2560374 -0.9088446
vn 0.2028825 0.2398195 -0.9493816
vn 0.1790544 0.2497388 -0.9516144
vn 0.1505129 0.2396779 -0.9591144
vn 0.1459243 0.2677712 -0.952368
vn 0.09441768 0.2234098 -0.9701409
vn 0.02891255 0.1559801 -0.987337
vn 0.8993241 0.2025755 -0.3875299
vn 0.8143617 0.2391176 -0.5288079
vn -0.810401 0.2341503 -0.5370511
vn -0.6413703 0.2460548 -0.7267056
vn -0.6312739 0.2597611 -0.730765
vn -0.8171889 0.2266814 -0.5299225
vn -0.3709742 0.2642742 -0.8902457
vn -0.3293411 0.256016 -0.9088401
vn -0.2030632 0.2399178 -0.9493181
vn -0.1790805 0.2497316 -0.9516114
vn -0.1504797 0.2396098 -0.9591366
vn -0.14573 0.2677149 -0.9524135
vn -0.09446257 0.2234556 -0.970126
vn -0.02894497 0.1560136 -0.9873307
vn -0.8993253 0.2025744 -0.3875275
vn -0.8143617 0.2391176 -0.5288079
g Taillights_44_0
f 3/3/3 2/2/2 1/1/1
f 1/1/1 4/4/4 3/3/3
f 5/5/5 2/2/2 3/3/3
f 6/6/6 5/5/5 3/3/3
f 5/5/5 6/6/6 7/7/7
f 6/6/6 8/8/8 7/7/7
f 8/8/8 6/6/6 9/9/9
f 9/9/9 10/10/10 8/8/8
f 9/9/9 11/11/11 10/10/10
f 12/12/12 11/11/11 9/9/9
f 1/1/1 13/13/13 4/4/4
f 13/13/13 14/14/14 4/4/4
f 17/17/17 16/16/16 15/15/15
f 18/18/18 15/15/15 16/16/16
f 17/17/17 19/19/19 16/16/16
f 19/19/19 20/20/20 16/16/16
f 20/20/20 19/19/19 21/21/21
f 22/22/22 20/20/20 21/21/21
f 20/20/20 22/22/22 23/23/23
f 24/24/24 23/23/23 22/22/22
f 25/25/25 23/23/23 24/24/24
f 25/25/25 26/26/26 23/23/23
f 15/15/15 18/18/18 27/27/27
f 28/28/28 27/27/27 18/18/18
