g model_car_76_matte_detail_LOD0
v 1.430511E-06 0.5095949 2.143816
v 1.430511E-06 0.6658783 2.093238
v 0.0571661 0.6674132 2.091469
v 0.08213568 0.5156455 2.140976
v 0.1080543 0.6692672 2.088145
v 0.1518539 0.5262845 2.133871
v 0.1721905 0.6721065 2.081073
v 0.2201463 0.5407765 2.120821
v 0.2388512 0.6761215 2.064977
v 0.2837777 0.5530229 2.102891
v 0.2911571 0.6795506 2.050053
v 0.3180208 0.5620623 2.088791
v 0.324447 0.6819458 2.036813
v 0.3629918 0.574127 2.070309
v 0.3890437 0.6841793 2.00757
v 0.4242159 0.5961924 2.044196
v -0.05716348 0.6674132 2.091469
v -0.08213305 0.5156455 2.140976
v -0.1080556 0.6692672 2.088145
v -0.1518552 0.5262845 2.133871
v -0.1721878 0.6721065 2.081073
v -0.2201476 0.5407765 2.120821
v -0.2388487 0.6761215 2.064977
v -0.2837791 0.5530229 2.102891
v -0.2911584 0.6795506 2.050053
v -0.3180223 0.5620623 2.088791
v -0.3244443 0.6819458 2.036813
v -0.3629932 0.574127 2.070309
v -0.389045 0.6841793 2.00757
v -0.4242132 0.5961924 2.044196
v 0.4360503 0.3586309 2.073128
v 0.4256659 0.4179688 2.065874
v 0.4757866 0.4345291 2.047827
v 0.4795712 0.3681834 2.058216
v 0.5411104 0.3783941 2.031073
v 0.5304796 0.4491706 2.023823
v 0.5940464 0.4630892 1.994689
v 0.6176748 0.3890128 1.996321
v 0.6506133 0.4750085 1.968649
v 0.6759827 0.3976159 1.967413
v 0.7195642 0.4884989 1.935816
v 0.7367625 0.4097333 1.930727
v 0.7529591 0.4953613 1.919809
v 0.7736149 0.4198632 1.889019
v 0.4474243 0.3028071 2.079994
v 0.4831983 0.3045883 2.068172
v 0.7509841 0.3472004 1.926683
v 0.7901185 0.3595479 1.864421
v 0.7573496 0.3230994 1.925128
v 0.7963508 0.3367796 1.855136
v 0.7054396 0.3134863 1.965765
v 0.6958346 0.33619 1.967005
v 0.6437712 0.3072178 1.998127
v 0.6372482 0.3276594 1.997674
v 0.5529287 0.2997172 2.039127
v 0.5505335 0.3156714 2.037495
v 0.4838122 0.2938364 2.069856
v 0.4606038 0.2936666 2.078346
v 0.8047278 0.3434401 1.838907
v 0.8023932 0.3562922 1.831265
v 0.7945251 0.4231632 1.850757
v 0.7863703 0.4676089 1.869191
v 0.7781912 0.4826422 1.888963
v 0.767217 0.4910436 1.903911
v 0.3949287 0.3518534 2.082688
v 0.3902837 0.4028587 2.07444
v 0.3789138 0.3963599 2.079481
v 0.3710053 0.3768713 2.082797
v 0.3728673 0.3896389 2.079412
v 0.3696198 0.3805954 2.081812
v 0.3697249 0.383132 2.081137
v 0.4864255 0.5277789 -2.050273
v 0.5466802 0.5252383 -2.037865
v 0.5222843 0.5669212 -2.037397
v 0.5447456 0.5980706 -2.02597
v 0.563822 0.5968952 -2.021616
v 0.5823532 0.5964792 -2.014188
v 0.5922651 0.646095 -2.004503
v 0.5740651 0.6397173 -2.011906
v 0.6452172 0.6474926 -1.982449
v 0.6321144 0.5957401 -1.992596
v 0.7059525 0.6421084 -1.955222
v 0.6924056 0.595619 -1.963014
v 0.7368352 0.5972345 -1.933706
v 0.7358134 0.6238358 -1.934308
v 0.7493442 0.5977757 -1.925083
v 0.7397192 0.5283604 -1.938072
v 0.7664819 0.53122 -1.911305
v 0.6687124 0.5264459 -1.978871
v 0.6143789 0.5256865 -2.006324
v 0.5681479 0.5253432 -2.028075
v 0.6505286 0.4534762 -1.992919
v 0.5960214 0.4531653 -2.020538
v 0.5537041 0.4530239 -2.042187
v 0.5293446 0.4527733 -2.0543
v 0.4952831 0.4502611 -2.066708
v 0.4654588 0.4502006 -2.082053
v 0.4535072 0.5047197 -2.069063
v 0.7584887 0.4502087 -1.930059
v 0.7744348 0.4646523 -1.897601
v 0.7767129 0.4388063 -1.8967
v 0.4981912 0.4247949 -2.072113
v 0.5194287 0.4113123 -2.063703
v 0.544269 0.4057748 -2.051412
v 0.5837629 0.4047368 -2.03003
v 0.6381447 0.4038119 -2.002479
v 0.7221572 0.4016833 -1.961778
v 0.7293388 0.4535005 -1.95208
v 0.7537144 0.4018328 -1.941259
v 0.7670999 0.4024143 -1.930628
v 0.7757758 0.4070554 -1.919921
v 0.5602797 0.6232703 -2.018914
v 0.4073447 0.4831269 -2.091444
v 0.4186783 0.4913344 -2.085615
v 0.4063188 0.4880102 -2.090611
v -0.4360476 0.3586309 2.073128
v -0.4795685 0.3681834 2.058216
v -0.4757879 0.4345291 2.047827
v -0.4256673 0.4179688 2.065874
v -0.5411117 0.3783941 2.031073
v -0.5304768 0.4491706 2.023823
v -0.5940437 0.4630892 1.994689
v -0.6176763 0.3890128 1.996321
v -0.6506147 0.4750085 1.968649
v -0.6759801 0.3976159 1.967413
v -0.7195616 0.4884989 1.935816
v -0.7367599 0.4097333 1.930727
v -0.7529564 0.4953613 1.919809
v -0.7736163 0.4198632 1.889019
v -0.4474256 0.3028071 2.079994
v -0.4831955 0.3045883 2.068172
v -0.7509813 0.3472004 1.926683
v -0.7901199 0.3595479 1.864421
v -0.7573469 0.3230994 1.925128
v -0.7963481 0.3367796 1.855136
v -0.7054369 0.3134863 1.965765
v -0.6958361 0.33619 1.967005
v -0.6437685 0.3072178 1.998127
v -0.6372495 0.3276594 1.997674
v -0.5529301 0.2997172 2.039127
v -0.550535 0.3156714 2.037495
v -0.4838095 0.2938364 2.069856
v -0.4606051 0.2936666 2.078346
v -0.8047292 0.3434401 1.838907
v -0.8023946 0.3562922 1.831265
v -0.7945266 0.4231632 1.850757
v -0.7863717 0.4676089 1.869191
v -0.7781885 0.4826422 1.888963
v -0.7672184 0.4910436 1.903911
v -0.3949261 0.3518534 2.082688
v -0.390281 0.4028587 2.07444
v -0.3789151 0.3963599 2.079481
v -0.3710067 0.3768713 2.082797
v -0.3728688 0.3896389 2.079412
v -0.3696213 0.3805954 2.081812
v -0.3697262 0.383132 2.081137
v -0.4864228 0.5277789 -2.050273
v -0.5222857 0.5669212 -2.037397
v -0.5466816 0.5252383 -2.037865
v -0.5447428 0.5980706 -2.02597
v -0.5638235 0.5968952 -2.021616
v -0.5823545 0.5964792 -2.014188
v -0.5922625 0.646095 -2.004503
v -0.5740664 0.6397173 -2.011906
v -0.6452186 0.6474926 -1.982449
v -0.6321158 0.5957401 -1.992596
v -0.7059498 0.6421084 -1.955222
v -0.6924069 0.595619 -1.963014
v -0.7368367 0.5972345 -1.933706
v -0.7358108 0.6238358 -1.934308
v -0.7493455 0.5977757 -1.925083
v -0.7397206 0.5283604 -1.938072
v -0.7664833 0.53122 -1.911305
v -0.6687138 0.5264459 -1.978871
v -0.6143804 0.5256865 -2.006324
v -0.5681453 0.5253432 -2.028075
v -0.6505258 0.4534762 -1.992919
v -0.5960228 0.4531653 -2.020538
v -0.5537055 0.4530239 -2.042187
v -0.529346 0.4527733 -2.0543
v -0.4952805 0.4502611 -2.066708
v -0.465456 0.4502006 -2.082053
v -0.4535046 0.5047197 -2.069063
v -0.7584901 0.4502087 -1.930059
v -0.7744322 0.4646523 -1.897601
v -0.7767103 0.4388063 -1.8967
v -0.4981928 0.4247949 -2.072113
v -0.5194302 0.4113123 -2.063703
v -0.5442662 0.4057748 -2.051412
v -0.5837603 0.4047368 -2.03003
v -0.6381462 0.4038119 -2.002479
v -0.7221546 0.4016833 -1.961778
v -0.7293401 0.4535005 -1.95208
v -0.7537158 0.4018328 -1.941259
v -0.7671013 0.4024143 -1.930628
v -0.7757771 0.4070554 -1.919921
v -0.560281 0.6232703 -2.018914
v -0.407342 0.4831269 -2.091444
v -0.4063201 0.4880102 -2.090611
v -0.4186757 0.4913344 -2.085615
vn 0.0008865595 0.3095064 0.950897
vn 0.0008865595 0.3095064 0.950897
vn 0.02926534 0.3130537 0.9492844
vn 0.03103906 0.3130537 0.949228
vn 0.07183355 0.3219221 0.9440371
vn 0.07715458 0.3219221 0.9436171
vn 0.1392332 0.3361115 0.9314737
vn 0.1481015 0.3396588 0.9288153
vn 0.2137275 0.3538483 0.9105558
vn 0.2172748 0.3556219 0.9090241
vn 0.2687114 0.3644903 0.8915946
vn 0.2669377 0.3644903 0.8921273
vn 0.2935428 0.3964164 0.8698774
vn 0.2935428 0.3964164 0.8698774
vn 0.2970902 0.4194742 0.8577755
vn 0.2970902 0.4194742 0.8577755
vn -0.02926588 0.3130537 0.9492844
vn -0.03103954 0.3130537 0.949228
vn -0.07183403 0.3219221 0.9440371
vn -0.07715505 0.3219221 0.9436171
vn -0.1392336 0.3361115 0.9314736
vn -0.148102 0.3396588 0.9288152
vn -0.213728 0.3538483 0.9105557
vn -0.2172753 0.3556219 0.9090239
vn -0.2687119 0.3644903 0.8915945
vn -0.2669381 0.3644903 0.8921271
vn -0.2935433 0.3964164 0.8698773
vn -0.2935433 0.3964164 0.8698773
vn -0.2970907 0.4194742 0.8577753
vn -0.2970907 0.4194742 0.8577753
vn 0.2616166 0.1658388 0.9508176
vn 0.2616166 0.1622915 0.9514295
vn 0.341432 0.158744 0.9264041
vn 0.3432057 0.1605178 0.9254425
vn 0.3840002 0.1516494 0.9107943
vn 0.3804528 0.1516494 0.9122818
vn 0.3964159 0.1410074 0.9071777
vn 0.4035106 0.1445547 0.9034839
vn 0.433663 0.1108549 0.8942301
vn 0.4567208 0.1179495 0.8817562
vn 0.5276678 0.04877627 0.8480493
vn 0.6003884 0.06828672 0.7967877
vn 0.6465039 -0.02749169 0.7624152
vn 0.7883978 0.0221712 0.614766
vn 0.2793534 0.1693861 0.9451296
vn 0.352074 0.1640651 0.9214806
vn 0.6926194 0.1019865 0.7140568
vn 0.8575711 0.06473935 0.510275
vn 0.7405087 0.1285916 0.6596295
vn 0.8628922 0.1303653 0.4882847
vn 0.5258941 0.1498757 0.8372411
vn 0.493968 0.1356863 0.8588276
vn 0.4212473 0.1498757 0.8944764
vn 0.412379 0.148102 0.8988934
vn 0.3928685 0.1516494 0.9070043
vn 0.3893212 0.1516494 0.9085326
vn 0.3698108 0.1729335 0.9128713
vn 0.3112795 0.2172753 0.9251468
vn 0.9001393 0.1977649 0.3881214
vn 0.907234 0.05587101 0.4168991
vn 0.901913 0.0133028 0.4317128
vn 0.8930446 -0.0523231 0.4469157
vn 0.836287 -0.0611915 0.5448666
vn 0.7476034 -0.0700599 0.6604398
vn 0.2101801 0.1693861 0.9628773
vn 0.2048591 0.1658388 0.96464
vn 0.2030854 0.1693861 0.9643986
vn 0.0824756 0.1356863 0.987313
vn 0.0824756 0.1356863 0.987313
vn -0.0008870959 0.2562961 0.9665979
vn -0.0008870959 0.2562961 0.9665979
vn 0.2846744 0.2048596 -0.936479
vn 0.3201479 0.1445547 -0.9362741
vn 0.2332379 0.148102 -0.9610754
vn 0.2456536 0.1551967 -0.9568533
vn 0.341432 0.121497 -0.9320208
vn 0.3964159 0.09311813 -0.9133365
vn 0.3840002 0.09489185 -0.918444
vn 0.346753 0.1179495 -0.9305108
vn 0.412379 0.06473935 -0.9087092
vn 0.4212473 0.07006037 -0.9042357
vn 0.4744576 0.02749223 -0.879849
vn 0.4797786 0.04522896 -0.8762231
vn 0.5329888 0.03281325 -0.8454858
vn 0.5578202 -0.01330233 -0.8298552
vn 0.6287672 0.04877627 -0.7760623
vn 0.5507255 0.06473935 -0.832172
vn 0.6997142 0.06119204 -0.7117974
vn 0.4709102 0.06296569 -0.8799312
vn 0.4354367 0.06828672 -0.8976257
vn 0.4212473 0.08602345 -0.9028569
vn 0.4567208 0.07006037 -0.886847
vn 0.4496261 0.06651306 -0.890737
vn 0.4460788 0.07892877 -0.8915066
vn 0.3307899 0.1551967 -0.9308555
vn 0.3236952 0.213728 -0.9217059
vn 0.3715845 0.2616171 -0.8907757
vn 0.3644897 0.2633908 -0.8931811
vn 0.7050352 0.09843916 -0.702307
vn 0.8930446 0.02571851 -0.4492326
vn 0.8611185 0.1782545 -0.4761305
vn 0.3857738 0.1729335 -0.9062409
vn 0.4194736 0.1197233 -0.8998379
vn 0.4584945 0.0753814 -0.8854945
vn 0.4584945 0.06296569 -0.8864639
vn 0.4496261 0.07183403 -0.8903236
vn 0.4780049 0.08779711 -0.8739582
vn 0.5134784 0.08070242 -0.8542991
vn 0.580878 0.1037602 -0.8073503
vn 0.7901715 0.1977649 -0.5801017
vn 0.8469291 0.2261437 -0.4812174
vn 0.2669377 0.1339126 -0.9543645
vn 0.3112795 0.2740329 -0.9099511
vn 0.3112795 0.2758066 -0.9094151
vn 0.3130532 0.2225963 -0.9232814
vn -0.2616171 0.1658388 0.9508175
vn -0.3432062 0.1605178 0.9254423
vn -0.3414325 0.158744 0.9264039
vn -0.2616171 0.1622915 0.9514294
vn -0.3840007 0.1516494 0.9107941
vn -0.3804533 0.1516494 0.9122816
vn -0.3981901 0.1410074 0.9064003
vn -0.4035111 0.1445547 0.9034836
vn -0.4336635 0.1108549 0.8942299
vn -0.4567214 0.1179495 0.8817559
vn -0.5276683 0.04877627 0.848049
vn -0.6003889 0.06828672 0.7967873
vn -0.6465045 -0.02749169 0.7624147
vn -0.7883983 0.0221712 0.6147655
vn -0.2793539 0.1693861 0.9451295
vn -0.3520746 0.1640651 0.9214804
vn -0.69262 0.1019865 0.7140563
vn -0.8575717 0.06473935 0.5102741
vn -0.7405092 0.1285916 0.6596289
vn -0.8628927 0.1303653 0.4882838
vn -0.5258946 0.1498757 0.8372408
vn -0.4939684 0.1356863 0.8588274
vn -0.4212479 0.1498757 0.8944761
vn -0.4123794 0.148102 0.8988932
vn -0.3928691 0.1516494 0.9070041
vn -0.3893217 0.153423 0.9082345
vn -0.3698112 0.1729335 0.9128711
vn -0.3112801 0.2172753 0.9251466
vn -0.9001399 0.1977649 0.3881201
vn -0.9072345 0.05587101 0.4168981
vn -0.9019135 0.0133028 0.4317119
vn -0.8930451 -0.0523231 0.4469147
vn -0.8362876 -0.0611915 0.5448658
vn -0.7476038 -0.0700599 0.6604393
vn -0.2101806 0.1693861 0.9628772
vn -0.2048596 0.1658388 0.9646398
vn -0.203086 0.1693861 0.9643985
vn -0.08247608 0.1356863 0.987313
vn -0.08247608 0.1356863 0.987313
vn 0.0008865595 0.2562961 0.9665979
vn 0.0008865595 0.2562961 0.9665979
vn -0.2846749 0.2048596 -0.9364789
vn -0.2332384 0.148102 -0.9610752
vn -0.3201484 0.1445547 -0.9362739
vn -0.2456542 0.1551967 -0.9568532
vn -0.3414325 0.121497 -0.9320206
vn -0.3964164 0.09311813 -0.9133362
vn -0.3840007 0.09489185 -0.9184438
vn -0.3467535 0.1179495 -0.9305106
vn -0.4123794 0.06473935 -0.908709
vn -0.4212479 0.07006037 -0.9042354
vn -0.474458 0.02749223 -0.8798487
vn -0.4797791 0.04522896 -0.8762228
vn -0.5329893 0.03281325 -0.8454854
vn -0.5578207 -0.01330233 -0.8298548
vn -0.6287677 0.04877627 -0.7760619
vn -0.550726 0.06473935 -0.8321717
vn -0.6997147 0.06119204 -0.7117969
vn -0.4709107 0.06296569 -0.8799309
vn -0.4354373 0.06828672 -0.8976254
vn -0.4212479 0.08602345 -0.9028566
vn -0.4567214 0.07006037 -0.8868467
vn -0.4496266 0.06651306 -0.8907367
vn -0.4460793 0.07892877 -0.8915063
vn -0.3307905 0.1551967 -0.9308553
vn -0.3236957 0.213728 -0.9217057
vn -0.371585 0.2616171 -0.8907756
vn -0.3644903 0.2633908 -0.8931808
vn -0.7050357 0.09843916 -0.7023064
vn -0.8930451 0.02571851 -0.4492315
vn -0.861119 0.1782545 -0.4761296
vn -0.3857743 0.1729335 -0.9062407
vn -0.4194742 0.1197233 -0.8998376
vn -0.458495 0.0753814 -0.8854942
vn -0.458495 0.06296569 -0.8864636
vn -0.4496266 0.07183403 -0.8903234
vn -0.4780055 0.08779711 -0.8739579
vn -0.5134789 0.08070242 -0.8542988
vn -0.5808786 0.1037602 -0.80735
vn -0.790172 0.1977649 -0.580101
vn -0.8469296 0.2261437 -0.4812165
vn -0.2669381 0.1339126 -0.9543644
vn -0.3112801 0.2740329 -0.9099509
vn -0.3130537 0.2225963 -0.9232813
vn -0.3112801 0.2758066 -0.9094149
g model_car_76_matte_detail_LOD0_0
f 3/3/3 2/2/2 1/1/1
f 4/4/4 3/3/3 1/1/1
f 5/5/5 3/3/3 4/4/4
f 6/6/6 5/5/5 4/4/4
f 7/7/7 5/5/5 6/6/6
f 8/8/8 7/7/7 6/6/6
f 9/9/9 7/7/7 8/8/8
f 10/10/10 9/9/9 8/8/8
f 11/11/11 9/9/9 10/10/10
f 12/12/12 11/11/11 10/10/10
f 13/13/13 11/11/11 12/12/12
f 14/14/14 13/13/13 12/12/12
f 15/15/15 13/13/13 14/14/14
f 16/16/16 15/15/15 14/14/14
f 2/2/2 17/17/17 1/1/1
f 17/17/17 18/18/18 1/1/1
f 17/17/17 19/19/19 18/18/18
f 19/19/19 20/20/20 18/18/18
f 19/19/19 21/21/21 20/20/20
f 21/21/21 22/22/22 20/20/20
f 21/21/21 23/23/23 22/22/22
f 23/23/23 24/24/24 22/22/22
f 23/23/23 25/25/25 24/24/24
f 25/25/25 26/26/26 24/24/24
f 25/25/25 27/27/27 26/26/26
f 27/27/27 28/28/28 26/26/26
f 27/27/27 29/29/29 28/28/28
f 29/29/29 30/30/30 28/28/28
f 33/33/33 32/32/32 31/31/31
f 34/34/34 33/33/33 31/31/31
f 34/34/34 35/35/35 33/33/33
f 35/35/35 36/36/36 33/33/33
f 36/36/36 35/35/35 37/37/37
f 35/35/35 38/38/38 37/37/37
f 37/37/37 38/38/38 39/39/39
f 38/38/38 40/40/40 39/39/39
f 39/39/39 40/40/40 41/41/41
f 40/40/40 42/42/42 41/41/41
f 41/41/41 42/42/42 43/43/43
f 42/42/42 44/44/44 43/43/43
f 31/31/31 45/45/45 34/34/34
f 45/45/45 46/46/46 34/34/34
f 35/35/35 34/34/34 46/46/46
f 44/44/44 42/42/42 47/47/47
f 48/48/48 44/44/44 47/47/47
f 47/47/47 49/49/49 48/48/48
f 49/49/49 50/50/50 48/48/48
f 51/51/51 49/49/49 47/47/47
f 52/52/52 51/51/51 47/47/47
f 42/42/42 40/40/40 52/52/52
f 47/47/47 42/42/42 52/52/52
f 53/53/53 51/51/51 52/52/52
f 54/54/54 53/53/53 52/52/52
f 52/52/52 40/40/40 54/54/54
f 55/55/55 53/53/53 54/54/54
f 56/56/56 55/55/55 54/54/54
f 55/55/55 56/56/56 46/46/46
f 57/57/57 55/55/55 46/46/46
f 54/54/54 38/38/38 56/56/56
f 40/40/40 38/38/38 54/54/54
f 38/38/38 35/35/35 56/56/56
f 56/56/56 35/35/35 46/46/46
f 46/46/46 45/45/45 58/58/58
f 57/57/57 46/46/46 58/58/58
f 48/48/48 50/50/50 59/59/59
f 60/60/60 48/48/48 59/59/59
f 44/44/44 48/48/48 60/60/60
f 61/61/61 44/44/44 60/60/60
f 62/62/62 44/44/44 61/61/61
f 44/44/44 62/62/62 63/63/63
f 44/44/44 63/63/63 64/64/64
f 43/43/43 44/44/44 64/64/64
f 31/31/31 65/65/65 45/45/45
f 65/65/65 31/31/31 66/66/66
f 31/31/31 32/32/32 66/66/66
f 67/67/67 65/65/65 66/66/66
f 68/68/68 65/65/65 67/67/67
f 69/69/69 68/68/68 67/67/67
f 70/70/70 68/68/68 69/69/69
f 71/71/71 70/70/70 69/69/69
f 74/74/74 73/73/73 72/72/72
f 73/73/73 74/74/74 75/75/75
f 75/75/75 76/76/76 73/73/73
f 76/76/76 77/77/77 73/73/73
f 78/78/78 77/77/77 76/76/76
f 79/79/79 78/78/78 76/76/76
f 78/78/78 80/80/80 77/77/77
f 80/80/80 81/81/81 77/77/77
f 80/80/80 82/82/82 81/81/81
f 82/82/82 83/83/83 81/81/81
f 83/83/83 82/82/82 84/84/84
f 82/82/82 85/85/85 84/84/84
f 84/84/84 85/85/85 86/86/86
f 83/83/83 84/84/84 87/87/87
f 84/84/84 86/86/86 87/87/87
f 87/87/87 86/86/86 88/88/88
f 89/89/89 83/83/83 87/87/87
f 83/83/83 89/89/89 90/90/90
f 81/81/81 83/83/83 90/90/90
f 81/81/81 90/90/90 91/91/91
f 77/77/77 81/81/81 91/91/91
f 77/77/77 91/91/91 73/73/73
f 90/90/90 89/89/89 92/92/92
f 93/93/93 90/90/90 92/92/92
f 90/90/90 93/93/93 94/94/94
f 91/91/91 90/90/90 94/94/94
f 91/91/91 94/94/94 95/95/95
f 73/73/73 91/91/91 95/95/95
f 73/73/73 95/95/95 96/96/96
f 72/72/72 73/73/73 96/96/96
f 72/72/72 96/96/96 97/97/97
f 98/98/98 72/72/72 97/97/97
f 87/87/87 88/88/88 99/99/99
f 88/88/88 100/100/100 99/99/99
f 99/99/99 100/100/100 101/101/101
f 96/96/96 95/95/95 102/102/102
f 97/97/97 96/96/96 102/102/102
f 95/95/95 103/103/103 102/102/102
f 95/95/95 94/94/94 103/103/103
f 94/94/94 104/104/104 103/103/103
f 94/94/94 93/93/93 104/104/104
f 93/93/93 105/105/105 104/104/104
f 93/93/93 92/92/92 106/106/106
f 105/105/105 93/93/93 106/106/106
f 106/106/106 92/92/92 107/107/107
f 92/92/92 108/108/108 107/107/107
f 108/108/108 87/87/87 99/99/99
f 108/108/108 99/99/99 109/109/109
f 107/107/107 108/108/108 109/109/109
f 109/109/109 99/99/99 110/110/110
f 99/99/99 101/101/101 111/111/111
f 110/110/110 99/99/99 111/111/111
f 89/89/89 87/87/87 108/108/108
f 92/92/92 89/89/89 108/108/108
f 76/76/76 75/75/75 112/112/112
f 79/79/79 76/76/76 112/112/112
f 115/115/115 114/114/114 113/113/113
f 114/114/114 98/98/98 113/113/113
f 98/98/98 97/97/97 113/113/113
f 118/118/118 117/117/117 116/116/116
f 119/119/119 118/118/118 116/116/116
f 120/120/120 117/117/117 118/118/118
f 121/121/121 120/120/120 118/118/118
f 120/120/120 121/121/121 122/122/122
f 123/123/123 120/120/120 122/122/122
f 123/123/123 122/122/122 124/124/124
f 125/125/125 123/123/123 124/124/124
f 125/125/125 124/124/124 126/126/126
f 127/127/127 125/125/125 126/126/126
f 127/127/127 126/126/126 128/128/128
f 129/129/129 127/127/127 128/128/128
f 130/130/130 116/116/116 117/117/117
f 131/131/131 130/130/130 117/117/117
f 117/117/117 120/120/120 131/131/131
f 127/127/127 129/129/129 132/132/132
f 129/129/129 133/133/133 132/132/132
f 134/134/134 132/132/132 133/133/133
f 135/135/135 134/134/134 133/133/133
f 134/134/134 136/136/136 132/132/132
f 136/136/136 137/137/137 132/132/132
f 127/127/127 132/132/132 137/137/137
f 125/125/125 127/127/127 137/137/137
f 136/136/136 138/138/138 137/137/137
f 138/138/138 139/139/139 137/137/137
f 125/125/125 137/137/137 139/139/139
f 138/138/138 140/140/140 139/139/139
f 140/140/140 141/141/141 139/139/139
f 141/141/141 140/140/140 131/131/131
f 140/140/140 142/142/142 131/131/131
f 123/123/123 139/139/139 141/141/141
f 123/123/123 125/125/125 139/139/139
f 120/120/120 123/123/123 141/141/141
f 120/120/120 141/141/141 131/131/131
f 131/131/131 142/142/142 143/143/143
f 130/130/130 131/131/131 143/143/143
f 135/135/135 133/133/133 144/144/144
f 133/133/133 145/145/145 144/144/144
f 133/133/133 129/129/129 145/145/145
f 129/129/129 146/146/146 145/145/145
f 129/129/129 147/147/147 146/146/146
f 147/147/147 129/129/129 148/148/148
f 148/148/148 129/129/129 149/149/149
f 129/129/129 128/128/128 149/149/149
f 150/150/150 116/116/116 130/130/130
f 116/116/116 150/150/150 151/151/151
f 119/119/119 116/116/116 151/151/151
f 150/150/150 152/152/152 151/151/151
f 150/150/150 153/153/153 152/152/152
f 153/153/153 154/154/154 152/152/152
f 153/153/153 155/155/155 154/154/154
f 155/155/155 156/156/156 154/154/154
f 159/159/159 158/158/158 157/157/157
f 158/158/158 159/159/159 160/160/160
f 161/161/161 160/160/160 159/159/159
f 162/162/162 161/161/161 159/159/159
f 162/162/162 163/163/163 161/161/161
f 163/163/163 164/164/164 161/161/161
f 165/165/165 163/163/163 162/162/162
f 166/166/166 165/165/165 162/162/162
f 167/167/167 165/165/165 166/166/166
f 168/168/168 167/167/167 166/166/166
f 167/167/167 168/168/168 169/169/169
f 170/170/170 167/167/167 169/169/169
f 170/170/170 169/169/169 171/171/171
f 169/169/169 168/168/168 172/172/172
f 171/171/171 169/169/169 172/172/172
f 171/171/171 172/172/172 173/173/173
f 168/168/168 174/174/174 172/172/172
f 168/168/168 166/166/166 175/175/175
f 174/174/174 168/168/168 175/175/175
f 166/166/166 162/162/162 176/176/176
f 175/175/175 166/166/166 176/176/176
f 176/176/176 162/162/162 159/159/159
f 174/174/174 175/175/175 177/177/177
f 175/175/175 178/178/178 177/177/177
f 175/175/175 176/176/176 179/179/179
f 178/178/178 175/175/175 179/179/179
f 176/176/176 159/159/159 180/180/180
f 179/179/179 176/176/176 180/180/180
f 180/180/180 159/159/159 181/181/181
f 159/159/159 157/157/157 181/181/181
f 181/181/181 157/157/157 182/182/182
f 157/157/157 183/183/183 182/182/182
f 173/173/173 172/172/172 184/184/184
f 185/185/185 173/173/173 184/184/184
f 185/185/185 184/184/184 186/186/186
f 180/180/180 181/181/181 187/187/187
f 181/181/181 182/182/182 187/187/187
f 188/188/188 180/180/180 187/187/187
f 179/179/179 180/180/180 188/188/188
f 189/189/189 179/179/179 188/188/188
f 178/178/178 179/179/179 189/189/189
f 190/190/190 178/178/178 189/189/189
f 178/178/178 190/190/190 191/191/191
f 177/177/177 178/178/178 191/191/191
f 177/177/177 191/191/191 192/192/192
f 193/193/193 177/177/177 192/192/192
f 172/172/172 193/193/193 184/184/184
f 193/193/193 192/192/192 194/194/194
f 184/184/184 193/193/193 194/194/194
f 184/184/184 194/194/194 195/195/195
f 184/184/184 195/195/195 196/196/196
f 186/186/186 184/184/184 196/196/196
f 174/174/174 177/177/177 193/193/193
f 172/172/172 174/174/174 193/193/193
f 161/161/161 164/164/164 197/197/197
f 160/160/160 161/161/161 197/197/197
f 200/200/200 199/199/199 198/198/198
f 183/183/183 200/200/200 198/198/198
f 182/182/182 183/183/183 198/198/198
