g model_car_76_matte_mirror_LOD0
v 0.821347 1.018736 0.5418923
v 0.8453317 1.021018 0.5319486
v 0.8486863 1.041837 0.5295749
v 0.8227603 1.038734 0.5408983
v 0.819868 0.997638 0.5429881
v 0.8418398 0.9993332 0.5344182
v 0.8763771 1.022688 0.5188907
v 0.8727311 1.001604 0.521315
v 0.8400092 0.9764763 0.5359986
v 0.8206441 0.977431 0.5438676
v 0.8215706 0.9562052 0.5452603
v 0.8381017 0.9526626 0.5387632
v 0.8004427 0.9791506 0.5518945
v 0.7996721 0.9960819 0.5508552
v 0.8011813 1.015908 0.5501297
v 0.7861838 0.9950482 0.5560948
v 0.7864563 1.012825 0.5560103
v 0.802587 1.033995 0.5495339
v 0.7921697 1.029804 0.5538622
v 0.8012132 0.9619505 0.5530747
v 0.7922599 0.9656773 0.5563504
v 0.7891213 0.9808176 0.5562151
v 0.8650256 0.9552768 0.5254835
v 0.8689592 0.9789212 0.5231137
v 0.8862908 0.9573422 0.5149947
v 0.8918237 0.9808533 0.5129387
v 0.9110855 0.970231 0.5032036
v 0.9230045 0.9885644 0.498272
v 0.8971273 1.003397 0.5109654
v 0.9268685 1.004487 0.4964321
v 0.9254834 1.020044 0.4966802
v 0.9008955 1.024009 0.5085767
v 0.9212886 1.033017 0.4988959
v 0.9045133 1.043801 0.5062838
v 0.8798784 1.042935 0.5165622
v -0.8213467 1.018736 0.5418923
v -0.8227618 1.038734 0.5408983
v -0.8486859 1.041837 0.5295749
v -0.8453332 1.021018 0.5319486
v -0.8198695 0.997638 0.5429881
v -0.8418394 0.9993332 0.5344182
v -0.8763767 1.022688 0.5188907
v -0.8727308 1.001604 0.521315
v -0.8400089 0.9764763 0.5359986
v -0.8206437 0.977431 0.5438676
v -0.8215703 0.9562052 0.5452603
v -0.8381013 0.9526626 0.5387632
v -0.8004423 0.9791506 0.5518945
v -0.7996718 0.9960819 0.5508552
v -0.8011828 1.015908 0.5501297
v -0.7861834 0.9950482 0.5560948
v -0.7864559 1.012825 0.5560103
v -0.8025885 1.033995 0.5495339
v -0.7921693 1.029804 0.5538622
v -0.8012128 0.9619505 0.5530747
v -0.7922595 0.9656773 0.5563504
v -0.7891228 0.9808176 0.5562151
v -0.8650271 0.9552768 0.5254835
v -0.8689589 0.9789212 0.5231137
v -0.8862905 0.9573422 0.5149947
v -0.8918234 0.9808533 0.5129387
v -0.9110851 0.970231 0.5032036
v -0.9230041 0.9885644 0.498272
v -0.897127 1.003397 0.5109654
v -0.9268681 1.004487 0.4964321
v -0.925483 1.020044 0.4966802
v -0.9008952 1.024009 0.5085767
v -0.9212883 1.033017 0.4988959
v -0.9045129 1.043801 0.5062838
v -0.879878 1.042935 0.5165622
vn -0.1568434 -0.007136747 -0.9875977
vn -0.1617176 -0.007484898 -0.9868087
vn -0.1624139 -0.01166274 -0.9866538
vn -0.1571916 -0.01096644 -0.9875072
vn -0.1564953 -0.003307059 -0.9876732
vn -0.1610213 -0.003307059 -0.9869454
vn -0.1679844 -0.007833049 -0.9857585
vn -0.1672881 -0.004003361 -0.9858999
vn -0.1606731 0.0008707792 -0.9870073
vn -0.1568434 0.0008707792 -0.9876231
vn -0.1568434 0.004700467 -0.9876123
vn -0.160325 0.005396768 -0.9870495
vn -0.1526656 0.0005226284 -0.9882777
vn -0.1526656 -0.002958909 -0.9882734
vn -0.1530138 -0.006788597 -0.9882008
vn -0.1498804 -0.002610758 -0.9887007
vn -0.1498804 -0.006092295 -0.9886854
vn -0.1533619 -0.009921968 -0.9881203
vn -0.151273 -0.009225667 -0.988449
vn -0.1530138 0.003656 -0.9882173
vn -0.151273 0.002959698 -0.9884876
vn -0.1505767 0.0001744777 -0.9885983
vn -0.1655473 0.005048618 -0.9861889
vn -0.1665917 0.0005226284 -0.9860258
vn -0.1700733 0.004700467 -0.9854202
vn -0.1711177 0.0001744777 -0.9852506
vn -0.1749474 0.002263397 -0.9845752
vn -0.1773845 -0.001566291 -0.9841404
vn -0.1721622 -0.004351526 -0.985059
vn -0.1780808 -0.004351526 -0.9840062
vn -0.1777326 -0.007484898 -0.9840503
vn -0.1728585 -0.008181214 -0.9849127
vn -0.1770363 -0.009921968 -0.9841543
vn -0.1735548 -0.01201089 -0.984751
vn -0.1686807 -0.01201089 -0.9855976
vn 0.1568427 -0.007136747 -0.9875978
vn 0.1571908 -0.01096644 -0.9875073
vn 0.1624131 -0.01166274 -0.9866539
vn 0.1617168 -0.007484898 -0.9868088
vn 0.1564945 -0.003307059 -0.9876733
vn 0.1610205 -0.00365521 -0.9869443
vn 0.1679836 -0.007833049 -0.9857587
vn 0.1672873 -0.004003361 -0.9859
vn 0.1606723 0.0008707792 -0.9870074
vn 0.1568427 0.0008707792 -0.9876232
vn 0.1568427 0.004700467 -0.9876124
vn 0.1603242 0.005396768 -0.9870496
vn 0.1526648 0.0005226284 -0.9882779
vn 0.1526648 -0.002958909 -0.9882736
vn 0.153013 -0.006788597 -0.9882009
vn 0.1498796 -0.002610758 -0.9887008
vn 0.1498796 -0.006092295 -0.9886855
vn 0.1533611 -0.009921968 -0.9881204
vn 0.1512722 -0.009225667 -0.9884491
vn 0.153013 0.003656 -0.9882174
vn 0.1512722 0.002959698 -0.9884877
vn 0.1505759 0.0001744777 -0.9885984
vn 0.1655465 0.005048618 -0.9861891
vn 0.1665909 0.0005226284 -0.9860259
vn 0.1700725 0.004700467 -0.9854203
vn 0.1711169 0.0001744777 -0.9852507
vn 0.1749466 0.002263397 -0.9845753
vn 0.1773837 -0.001566291 -0.9841405
vn 0.1721614 -0.002610758 -0.9850653
vn 0.17808 -0.004351526 -0.9840064
vn 0.1777319 -0.007484898 -0.9840505
vn 0.1728577 -0.008181214 -0.9849128
vn 0.1770355 -0.009921968 -0.9841545
vn 0.173554 -0.01201089 -0.9847511
vn 0.1686799 -0.01201089 -0.9855977
g model_car_76_matte_mirror_LOD0_0
f 3/3/3 2/2/2 1/1/1
f 4/4/4 3/3/3 1/1/1
f 5/5/5 1/1/1 2/2/2
f 6/6/6 5/5/5 2/2/2
f 6/6/6 2/2/2 7/7/7
f 8/8/8 6/6/6 7/7/7
f 5/5/5 6/6/6 9/9/9
f 10/10/10 5/5/5 9/9/9
f 10/10/10 9/9/9 11/11/11
f 9/9/9 12/12/12 11/11/11
f 5/5/5 10/10/10 13/13/13
f 14/14/14 5/5/5 13/13/13
f 1/1/1 5/5/5 14/14/14
f 1/1/1 15/15/15 4/4/4
f 15/15/15 1/1/1 14/14/14
f 15/15/15 14/14/14 16/16/16
f 16/16/16 14/14/14 13/13/13
f 17/17/17 15/15/15 16/16/16
f 18/18/18 15/15/15 17/17/17
f 15/15/15 18/18/18 4/4/4
f 19/19/19 18/18/18 17/17/17
f 10/10/10 11/11/11 20/20/20
f 13/13/13 10/10/10 20/20/20
f 13/13/13 20/20/20 21/21/21
f 22/22/22 13/13/13 21/21/21
f 22/22/22 16/16/16 13/13/13
f 23/23/23 12/12/12 9/9/9
f 24/24/24 23/23/23 9/9/9
f 25/25/25 23/23/23 24/24/24
f 26/26/26 25/25/25 24/24/24
f 27/27/27 25/25/25 26/26/26
f 28/28/28 27/27/27 26/26/26
f 28/28/28 26/26/26 29/29/29
f 30/30/30 28/28/28 29/29/29
f 31/31/31 30/30/30 29/29/29
f 32/32/32 31/31/31 29/29/29
f 33/33/33 31/31/31 32/32/32
f 34/34/34 33/33/33 32/32/32
f 34/34/34 32/32/32 7/7/7
f 35/35/35 34/34/34 7/7/7
f 26/26/26 24/24/24 8/8/8
f 29/29/29 26/26/26 8/8/8
f 8/8/8 7/7/7 32/32/32
f 29/29/29 8/8/8 32/32/32
f 8/8/8 24/24/24 6/6/6
f 24/24/24 9/9/9 6/6/6
f 35/35/35 7/7/7 2/2/2
f 3/3/3 35/35/35 2/2/2
f 38/38/38 37/37/37 36/36/36
f 39/39/39 38/38/38 36/36/36
f 36/36/36 40/40/40 39/39/39
f 40/40/40 41/41/41 39/39/39
f 39/39/39 41/41/41 42/42/42
f 41/41/41 43/43/43 42/42/42
f 41/41/41 40/40/40 44/44/44
f 40/40/40 45/45/45 44/44/44
f 44/44/44 45/45/45 46/46/46
f 47/47/47 44/44/44 46/46/46
f 45/45/45 40/40/40 48/48/48
f 40/40/40 49/49/49 48/48/48
f 40/40/40 36/36/36 49/49/49
f 50/50/50 36/36/36 37/37/37
f 36/36/36 50/50/50 49/49/49
f 49/49/49 50/50/50 51/51/51
f 49/49/49 51/51/51 48/48/48
f 50/50/50 52/52/52 51/51/51
f 50/50/50 53/53/53 52/52/52
f 53/53/53 54/54/54 52/52/52
f 53/53/53 50/50/50 37/37/37
f 45/45/45 48/48/48 55/55/55
f 46/46/46 45/45/45 55/55/55
f 55/55/55 48/48/48 56/56/56
f 48/48/48 57/57/57 56/56/56
f 51/51/51 57/57/57 48/48/48
f 47/47/47 58/58/58 44/44/44
f 58/58/58 59/59/59 44/44/44
f 58/58/58 60/60/60 59/59/59
f 60/60/60 61/61/61 59/59/59
f 60/60/60 62/62/62 61/61/61
f 62/62/62 63/63/63 61/61/61
f 61/61/61 63/63/63 64/64/64
f 63/63/63 65/65/65 64/64/64
f 65/65/65 66/66/66 64/64/64
f 66/66/66 67/67/67 64/64/64
f 66/66/66 68/68/68 67/67/67
f 68/68/68 69/69/69 67/67/67
f 67/67/67 69/69/69 42/42/42
f 69/69/69 70/70/70 42/42/42
f 61/61/61 64/64/64 43/43/43
f 59/59/59 61/61/61 43/43/43
f 43/43/43 64/64/64 67/67/67
f 42/42/42 43/43/43 67/67/67
f 59/59/59 43/43/43 41/41/41
f 44/44/44 59/59/59 41/41/41
f 42/42/42 70/70/70 39/39/39
f 70/70/70 38/38/38 39/39/39
